<svg width="332" height="241" viewBox="0 0 332 241" fill="none" xmlns="http://www.w3.org/2000/svg">
<g filter="url(#filter0_d_6580_822)">
<rect x="28" y="28" width="275.662" height="185" rx="10" fill="white"/>
</g>
<g filter="url(#filter1_d_6580_822)">
<rect x="48" y="93" width="239" height="39" rx="10" fill="white"/>
</g>
<path d="M58 112C58 105.925 62.9249 101 69 101C75.0751 101 80 105.925 80 112C80 118.075 75.0751 123 69 123C62.9249 123 58 118.075 58 112Z" fill="url(#paint0_linear_6580_822)"/>
<g filter="url(#filter2_d_6580_822)">
<rect x="48" y="144" width="239" height="39" rx="10" fill="white"/>
</g>
<path d="M58 163C58 156.925 62.9249 152 69 152C75.0751 152 80 156.925 80 163C80 169.075 75.0751 174 69 174C62.9249 174 58 169.075 58 163Z" fill="#F5F4F4"/>
<rect opacity="0.65" x="94" y="103" width="176" height="6" rx="3" fill="url(#paint1_linear_6580_822)"/>
<rect opacity="0.65" x="94" y="154" width="176" height="6" rx="3" fill="url(#paint2_linear_6580_822)"/>
<rect opacity="0.5" x="94" y="116" width="47" height="4" rx="2" fill="url(#paint3_linear_6580_822)"/>
<rect opacity="0.5" x="94" y="167" width="47" height="4" rx="2" fill="url(#paint4_linear_6580_822)"/>
<path opacity="0.8" d="M28 38C28 32.4772 32.4772 28 38 28H293.662C299.185 28 303.662 32.4772 303.662 38V52.5033H28V38Z" fill="url(#paint5_linear_6580_822)"/>
<path d="M189.723 64.1423H282.223" stroke="white"/>
<g filter="url(#filter3_d_6580_822)">
<rect x="250" y="33" width="40" height="40" rx="10" fill="#7051CE"/>
</g>
<path d="M276.116 55.075L275.283 53.6916C275.108 53.3833 274.95 52.8 274.95 52.4583V50.35C274.95 48.3916 273.8 46.7 272.141 45.9083C271.708 45.1416 270.908 44.6666 269.991 44.6666C269.083 44.6666 268.266 45.1583 267.833 45.9333C266.208 46.7416 265.083 48.4166 265.083 50.35V52.4583C265.083 52.8 264.925 53.3833 264.75 53.6833L263.908 55.075C263.575 55.6333 263.5 56.25 263.708 56.8166C263.908 57.375 264.383 57.8083 265 58.0166C266.616 58.5666 268.316 58.8333 270.016 58.8333C271.716 58.8333 273.416 58.5666 275.033 58.025C275.616 57.8333 276.066 57.3916 276.283 56.8166C276.5 56.2416 276.441 55.6083 276.116 55.075Z" fill="white"/>
<path d="M272.359 59.675C272.009 60.6417 271.084 61.3334 270 61.3334C269.342 61.3334 268.692 61.0667 268.234 60.5917C267.967 60.3417 267.767 60.0084 267.65 59.6667C267.759 59.6834 267.867 59.6917 267.984 59.7084C268.175 59.7334 268.375 59.7584 268.575 59.775C269.05 59.8167 269.534 59.8417 270.017 59.8417C270.492 59.8417 270.967 59.8167 271.434 59.775C271.609 59.7584 271.784 59.75 271.95 59.725C272.084 59.7084 272.217 59.6917 272.359 59.675Z" fill="white"/>
<path opacity="0.8" d="M72.6709 113.245L72.1709 112.415C72.0659 112.23 71.9709 111.88 71.9709 111.675V110.41C71.9709 109.795 71.7818 109.223 71.4587 108.75C70.885 107.911 70.013 107 68.9959 107C67.9701 107 67.1002 107.936 66.5359 108.792C66.2296 109.257 66.0509 109.813 66.0509 110.41V111.675C66.0509 111.88 65.9559 112.23 65.8509 112.41L65.3459 113.245C65.1459 113.58 65.1009 113.95 65.2259 114.29C65.3459 114.625 65.6309 114.885 66.0009 115.01C66.9709 115.34 67.9909 115.5 69.0109 115.5C70.0309 115.5 71.0509 115.34 72.0209 115.015C72.3709 114.9 72.6409 114.635 72.7709 114.29C72.9009 113.945 72.8659 113.565 72.6709 113.245Z" fill="url(#paint6_linear_6580_822)"/>
<path opacity="0.8" d="M70.1698 116.035C70.2823 116.021 70.3676 116.13 70.3122 116.229C70.054 116.689 69.5625 117 68.9998 117C68.6048 117 68.2148 116.84 67.9398 116.555C67.8288 116.451 67.7371 116.323 67.6679 116.186C67.6266 116.104 67.6991 116.012 67.7898 116.025C67.9048 116.04 68.0248 116.055 68.1448 116.065C68.4298 116.09 68.7198 116.105 69.0098 116.105C69.2948 116.105 69.5798 116.09 69.8598 116.065C69.9648 116.055 70.0698 116.05 70.1698 116.035Z" fill="url(#paint7_linear_6580_822)"/>
<path opacity="0.8" d="M72.6709 164.245L72.1709 163.415C72.0659 163.23 71.9709 162.88 71.9709 162.675V161.41C71.9709 160.795 71.7818 160.223 71.4587 159.75C70.885 158.911 70.013 158 68.9959 158C67.9701 158 67.1002 158.936 66.5359 159.792C66.2296 160.257 66.0509 160.813 66.0509 161.41V162.675C66.0509 162.88 65.9559 163.23 65.8509 163.41L65.3459 164.245C65.1459 164.58 65.1009 164.95 65.2259 165.29C65.3459 165.625 65.6309 165.885 66.0009 166.01C66.9709 166.34 67.9909 166.5 69.0109 166.5C70.0309 166.5 71.0509 166.34 72.0209 166.015C72.3709 165.9 72.6409 165.635 72.7709 165.29C72.9009 164.945 72.8659 164.565 72.6709 164.245Z" fill="url(#paint8_linear_6580_822)"/>
<path opacity="0.8" d="M70.1698 167.035C70.2823 167.021 70.3676 167.13 70.3122 167.229C70.054 167.689 69.5625 168 68.9998 168C68.6048 168 68.2148 167.84 67.9398 167.555C67.8288 167.451 67.7371 167.323 67.6679 167.186C67.6266 167.104 67.6991 167.012 67.7898 167.025C67.9048 167.04 68.0248 167.055 68.1448 167.065C68.4298 167.09 68.7198 167.105 69.0098 167.105C69.2948 167.105 69.5798 167.09 69.8598 167.065C69.9648 167.055 70.0698 167.05 70.1698 167.035Z" fill="url(#paint9_linear_6580_822)"/>
<defs>
<filter id="filter0_d_6580_822" x="0" y="0" width="331.662" height="241" filterUnits="userSpaceOnUse" color-interpolation-filters="sRGB">
<feFlood flood-opacity="0" result="BackgroundImageFix"/>
<feColorMatrix in="SourceAlpha" type="matrix" values="0 0 0 0 0 0 0 0 0 0 0 0 0 0 0 0 0 0 127 0" result="hardAlpha"/>
<feMorphology radius="4" operator="dilate" in="SourceAlpha" result="effect1_dropShadow_6580_822"/>
<feOffset/>
<feGaussianBlur stdDeviation="12"/>
<feComposite in2="hardAlpha" operator="out"/>
<feColorMatrix type="matrix" values="0 0 0 0 0.282353 0 0 0 0 0.290196 0 0 0 0 0.619608 0 0 0 0.06 0"/>
<feBlend mode="normal" in2="BackgroundImageFix" result="effect1_dropShadow_6580_822"/>
<feBlend mode="normal" in="SourceGraphic" in2="effect1_dropShadow_6580_822" result="shape"/>
</filter>
<filter id="filter1_d_6580_822" x="20" y="65" width="295" height="95" filterUnits="userSpaceOnUse" color-interpolation-filters="sRGB">
<feFlood flood-opacity="0" result="BackgroundImageFix"/>
<feColorMatrix in="SourceAlpha" type="matrix" values="0 0 0 0 0 0 0 0 0 0 0 0 0 0 0 0 0 0 127 0" result="hardAlpha"/>
<feMorphology radius="4" operator="dilate" in="SourceAlpha" result="effect1_dropShadow_6580_822"/>
<feOffset/>
<feGaussianBlur stdDeviation="12"/>
<feComposite in2="hardAlpha" operator="out"/>
<feColorMatrix type="matrix" values="0 0 0 0 0.282353 0 0 0 0 0.290196 0 0 0 0 0.619608 0 0 0 0.08 0"/>
<feBlend mode="normal" in2="BackgroundImageFix" result="effect1_dropShadow_6580_822"/>
<feBlend mode="normal" in="SourceGraphic" in2="effect1_dropShadow_6580_822" result="shape"/>
</filter>
<filter id="filter2_d_6580_822" x="20" y="116" width="295" height="95" filterUnits="userSpaceOnUse" color-interpolation-filters="sRGB">
<feFlood flood-opacity="0" result="BackgroundImageFix"/>
<feColorMatrix in="SourceAlpha" type="matrix" values="0 0 0 0 0 0 0 0 0 0 0 0 0 0 0 0 0 0 127 0" result="hardAlpha"/>
<feMorphology radius="4" operator="dilate" in="SourceAlpha" result="effect1_dropShadow_6580_822"/>
<feOffset/>
<feGaussianBlur stdDeviation="12"/>
<feComposite in2="hardAlpha" operator="out"/>
<feColorMatrix type="matrix" values="0 0 0 0 0.282353 0 0 0 0 0.290196 0 0 0 0 0.619608 0 0 0 0.08 0"/>
<feBlend mode="normal" in2="BackgroundImageFix" result="effect1_dropShadow_6580_822"/>
<feBlend mode="normal" in="SourceGraphic" in2="effect1_dropShadow_6580_822" result="shape"/>
</filter>
<filter id="filter3_d_6580_822" x="222" y="17" width="96" height="96" filterUnits="userSpaceOnUse" color-interpolation-filters="sRGB">
<feFlood flood-opacity="0" result="BackgroundImageFix"/>
<feColorMatrix in="SourceAlpha" type="matrix" values="0 0 0 0 0 0 0 0 0 0 0 0 0 0 0 0 0 0 127 0" result="hardAlpha"/>
<feMorphology radius="4" operator="dilate" in="SourceAlpha" result="effect1_dropShadow_6580_822"/>
<feOffset dy="12"/>
<feGaussianBlur stdDeviation="12"/>
<feComposite in2="hardAlpha" operator="out"/>
<feColorMatrix type="matrix" values="0 0 0 0 0.356863 0 0 0 0 0.356863 0 0 0 0 0.905882 0 0 0 0.15 0"/>
<feBlend mode="normal" in2="BackgroundImageFix" result="effect1_dropShadow_6580_822"/>
<feBlend mode="normal" in="SourceGraphic" in2="effect1_dropShadow_6580_822" result="shape"/>
</filter>
<linearGradient id="paint0_linear_6580_822" x1="69" y1="101" x2="69" y2="123" gradientUnits="userSpaceOnUse">
<stop stop-color="#F4F3F3"/>
<stop offset="1" stop-color="#F4F4F4"/>
</linearGradient>
<linearGradient id="paint1_linear_6580_822" x1="94" y1="104.969" x2="120.877" y2="169.295" gradientUnits="userSpaceOnUse">
<stop stop-color="#183DFF"/>
<stop offset="0.390625" stop-color="#5D1EAE"/>
<stop offset="1" stop-color="#F74B35"/>
</linearGradient>
<linearGradient id="paint2_linear_6580_822" x1="94" y1="155.969" x2="120.877" y2="220.295" gradientUnits="userSpaceOnUse">
<stop stop-color="#183DFF"/>
<stop offset="0.390625" stop-color="#5D1EAE"/>
<stop offset="1" stop-color="#F74B35"/>
</linearGradient>
<linearGradient id="paint3_linear_6580_822" x1="94" y1="117.313" x2="119.163" y2="141.436" gradientUnits="userSpaceOnUse">
<stop stop-color="#183DFF"/>
<stop offset="0.390625" stop-color="#5D1EAE"/>
<stop offset="1" stop-color="#F74B35"/>
</linearGradient>
<linearGradient id="paint4_linear_6580_822" x1="94" y1="168.313" x2="119.163" y2="192.436" gradientUnits="userSpaceOnUse">
<stop stop-color="#183DFF"/>
<stop offset="0.390625" stop-color="#5D1EAE"/>
<stop offset="1" stop-color="#F74B35"/>
</linearGradient>
<linearGradient id="paint5_linear_6580_822" x1="28" y1="36.0402" x2="181.715" y2="177.138" gradientUnits="userSpaceOnUse">
<stop stop-color="#183DFF"/>
<stop offset="0.390625" stop-color="#5D1EAE"/>
<stop offset="1" stop-color="#F74B35"/>
</linearGradient>
<linearGradient id="paint6_linear_6580_822" x1="65.1562" y1="109.789" x2="73.0164" y2="110.369" gradientUnits="userSpaceOnUse">
<stop stop-color="#183DFF"/>
<stop offset="0.390625" stop-color="#5D1EAE"/>
<stop offset="1" stop-color="#F74B35"/>
</linearGradient>
<linearGradient id="paint7_linear_6580_822" x1="67.5898" y1="116.328" x2="70.346" y2="116.963" gradientUnits="userSpaceOnUse">
<stop stop-color="#183DFF"/>
<stop offset="0.390625" stop-color="#5D1EAE"/>
<stop offset="1" stop-color="#F74B35"/>
</linearGradient>
<linearGradient id="paint8_linear_6580_822" x1="65.1562" y1="160.789" x2="73.0164" y2="161.369" gradientUnits="userSpaceOnUse">
<stop stop-color="#183DFF"/>
<stop offset="0.390625" stop-color="#5D1EAE"/>
<stop offset="1" stop-color="#F74B35"/>
</linearGradient>
<linearGradient id="paint9_linear_6580_822" x1="67.5898" y1="167.328" x2="70.346" y2="167.963" gradientUnits="userSpaceOnUse">
<stop stop-color="#183DFF"/>
<stop offset="0.390625" stop-color="#5D1EAE"/>
<stop offset="1" stop-color="#F74B35"/>
</linearGradient>
</defs>
</svg>
