<svg width="287" height="241" viewBox="0 0 287 241" fill="none" xmlns="http://www.w3.org/2000/svg">
<path d="M35.7362 178.864L34.6136 204.22H27.3526L23.8672 189.115L26.3527 188L30.7028 200.489L32.0482 178.864H35.7362Z" fill="#D8DEED"/>
<mask id="mask0_330_1859" style="mask-type:alpha" maskUnits="userSpaceOnUse" x="2" y="137" width="55" height="103">
<path d="M19.6305 204.22H40.3752C41.609 204.22 42.6092 205.217 42.6092 206.446V230.141C42.6092 235.586 38.1797 240 32.7156 240H27.2901C21.826 240 17.3965 235.586 17.3965 230.141V206.446C17.3965 205.217 18.3967 204.22 19.6305 204.22ZM2.58546 165.228C2.54116 164.69 2.58306 164.148 2.70961 163.623C3.36835 160.891 6.12532 159.208 8.86748 159.864C11.3501 160.458 13.608 161.52 15.6411 163.049C19.2795 165.784 20.2874 168.576 18.6648 171.424C23.9529 171.424 27.0364 173.427 27.9153 177.431C29.6424 185.301 29.6424 191.927 26.3205 193.655C20.6304 196.613 15.2016 192.103 11.9182 188C9.72923 185.264 9.3071 181.073 10.6518 175.425C7.89653 175.034 5.77682 173.7 4.29265 171.424C3.37932 170.024 2.81026 167.958 2.58546 165.228ZM55.0471 172.31C56.0672 172.984 56.3577 174.386 55.9188 176.517C55.5807 178.158 54.8004 179.676 53.6618 180.909L48.797 186.174C50.3488 189.818 49.8499 192.536 47.3002 194.329C42.2898 197.853 37.6439 199.818 35.4581 198.042C31.7141 194.999 33.4868 188.106 35.4001 184.627C36.6756 182.307 39.4224 181.379 43.6404 181.841C44.5689 178.272 45.6132 175.64 46.7734 173.942C48.5137 171.396 52.9074 170.896 55.0471 172.31ZM29.6335 139.954C29.8792 139.433 30.212 138.956 30.6179 138.545C32.5966 136.543 35.8296 136.518 37.8392 138.49C39.5611 140.179 40.8324 142.214 41.6529 144.593C43.1342 148.889 42.4707 152.88 39.6625 156.568C44.0466 159.514 45.4793 162.893 43.9608 166.703C40.9768 174.189 37.2584 179.683 33.5352 179.264C27.1577 178.545 24.0873 169.617 23.6678 164.386C23.3881 160.898 25.7569 157.909 30.7743 155.419C29.1969 150.79 28.4316 147.118 28.4784 144.404C28.5022 143.023 28.8872 141.54 29.6335 139.954Z" fill="white"/>
</mask>
<g mask="url(#mask0_330_1859)">
<path d="M19.6305 204.22H40.3752C41.609 204.22 42.6092 205.217 42.6092 206.446V230.141C42.6092 235.586 38.1797 240 32.7156 240H27.2901C21.826 240 17.3965 235.586 17.3965 230.141V206.446C17.3965 205.217 18.3967 204.22 19.6305 204.22ZM2.58546 165.228C2.54116 164.69 2.58306 164.148 2.70961 163.623C3.36835 160.891 6.12532 159.208 8.86748 159.864C11.3501 160.458 13.608 161.52 15.6411 163.049C19.2795 165.784 20.2874 168.576 18.6648 171.424C23.9529 171.424 27.0364 173.427 27.9153 177.431C29.6424 185.301 29.6424 191.927 26.3205 193.655C20.6304 196.613 15.2016 192.103 11.9182 188C9.72923 185.264 9.3071 181.073 10.6518 175.425C7.89653 175.034 5.77682 173.7 4.29265 171.424C3.37932 170.024 2.81026 167.958 2.58546 165.228ZM55.0471 172.31C56.0672 172.984 56.3577 174.386 55.9188 176.517C55.5807 178.158 54.8004 179.676 53.6618 180.909L48.797 186.174C50.3488 189.818 49.8499 192.536 47.3002 194.329C42.2898 197.853 37.6439 199.818 35.4581 198.042C31.7141 194.999 33.4868 188.106 35.4001 184.627C36.6756 182.307 39.4224 181.379 43.6404 181.841C44.5689 178.272 45.6132 175.64 46.7734 173.942C48.5137 171.396 52.9074 170.896 55.0471 172.31ZM29.6335 139.954C29.8792 139.433 30.212 138.956 30.6179 138.545C32.5966 136.543 35.8296 136.518 37.8392 138.49C39.5611 140.179 40.8324 142.214 41.6529 144.593C43.1342 148.889 42.4707 152.88 39.6625 156.568C44.0466 159.514 45.4793 162.893 43.9608 166.703C40.9768 174.189 37.2584 179.683 33.5352 179.264C27.1577 178.545 24.0873 169.617 23.6678 164.386C23.3881 160.898 25.7569 157.909 30.7743 155.419C29.1969 150.79 28.4316 147.118 28.4784 144.404C28.5022 143.023 28.8872 141.54 29.6335 139.954Z" fill="#E1E5F0"/>
<path d="M31.2934 191.539C30.6806 192.274 29.6193 192.525 28.0133 192.156C13.9201 188.913 3.22683 152.116 14.0697 144.406C16.4754 142.695 12.7412 152.827 15.3611 156.253C21.6795 164.516 30.4764 179.585 31.7897 187.372C33.1577 184.591 36.2083 181.853 38.4195 178.864C43.53 171.956 48.7249 164.733 54.0417 167.964C62.4589 173.079 34.2027 200.52 31.2934 191.539ZM53.4733 123.185C66.7887 122.835 48.1031 181.083 38.2388 170.542C28.3744 160 40.1578 123.534 53.4733 123.185ZM15.641 211.694H44.2048V229.504H15.641V211.694Z" fill="#F2F6FB"/>
</g>
<g clip-path="url(#clip0_330_1859)">
<path d="M231.687 155.914C236.68 155.843 241.813 155.825 247.088 155.862C255.083 155.917 253.901 156.61 258.014 155.917C260.518 155.494 261.938 154.675 262.666 154.789C263.134 154.863 263.315 155.322 263.315 156.519C263.315 158.561 262.403 162.817 260.579 169.287L249.55 193.231L245.441 204.307C244.156 207.774 240.871 210.093 237.174 210.144L210.955 210.51L226.578 157.939C226.944 156.71 228.081 155.873 229.363 155.889L231.372 155.915C231.477 155.916 231.582 155.916 231.687 155.914Z" fill="#826FF7"/>
<path d="M250.332 213.887C250.264 214.628 249.641 215.209 248.883 215.209H246.313L252.805 239.435C252.801 239.526 252.301 239.727 251.629 239.907C251.319 239.99 251.005 240.059 250.791 240.087C250.577 240.114 250.438 240.114 250.427 240.073L243.765 215.209H91.9086L85.2464 240.073C85.1982 240.149 84.6645 240.073 83.9926 239.893C83.6825 239.81 83.3761 239.713 83.1769 239.63C82.9776 239.547 82.8577 239.477 82.8689 239.435L89.3604 215.209H87.5512C86.7479 215.209 86.0968 214.558 86.0968 213.754C86.0968 212.951 86.7479 212.3 87.5512 212.3H247.802L266.525 157.924C266.786 157.165 267.614 156.761 268.373 157.023C269.133 157.284 269.537 158.112 269.275 158.871L250.332 213.887Z" fill="#E1E5F0"/>
</g>
<g clip-path="url(#clip1_330_1859)">
<path d="M94.8217 155.609L94.7079 155.68C94.2833 155.971 94.167 156.545 94.4397 156.982L113.644 187.04C113.936 187.464 114.51 187.581 114.946 187.308L115.06 187.237C115.485 186.945 115.601 186.371 115.328 185.935L96.1357 155.896C95.8511 155.44 95.2772 155.324 94.8217 155.609ZM144.096 210.285L108.071 210.285C107.515 210.285 107.064 210.735 107.064 211.291C107.064 211.848 107.515 212.298 108.071 212.298L144.096 212.298C144.653 212.298 145.103 211.848 145.103 211.291C145.103 210.735 144.653 210.285 144.096 210.285Z" fill="#FFCB3D"/>
<path d="M95.9694 155.641C96.0382 155.701 96.0998 155.773 96.1518 155.856L115.344 185.895C115.438 186.045 115.486 186.211 115.491 186.376L126.581 179.748L118.49 164.856L113.862 163.025C112.598 162.733 111.363 162.318 110.167 161.798C107.3 160.503 106.595 159.334 102.853 156.976C101.847 156.337 100.827 155.761 99.7316 155.232C99.0912 155.052 97.8697 154.786 96.8166 155.127C96.6411 155.184 96.4893 155.279 96.3446 155.343C96.2028 155.432 96.0784 155.533 95.9694 155.641ZM107.956 210.253C107.999 210.248 108.043 210.245 108.087 210.245L144.113 210.245C144.162 210.245 144.211 210.248 144.258 210.255L144.258 195.293L128.951 195.293C126.06 197.277 124.309 198.575 123.698 199.186C122.78 200.104 121.773 200.932 120.699 201.67C118.081 203.415 116.716 203.393 112.733 205.317C111.659 205.832 110.63 206.391 109.601 207.04C108.571 207.689 108.236 208.383 107.967 209.457C107.923 209.636 107.923 209.815 107.9 209.972C107.9 210.075 107.92 210.168 107.956 210.253Z" fill="#474961"/>
<path d="M120.661 172.421L117.458 162.595C116.92 160.943 117.645 159.144 119.177 158.326L126.021 154.675C129.413 149.381 134.1 145.913 140.64 148.568C140.842 148.65 141.05 148.738 141.266 148.831L141.076 148.722C152.047 142.579 158.823 139.155 161.404 138.449C163.984 137.744 166.604 138.767 169.263 141.52L197.07 180.381C213.996 181.392 222.481 186.375 222.525 195.331C222.569 204.286 217.772 209.75 208.134 211.721C198.628 212.516 190.817 212.242 184.7 210.898C177.77 211.271 171.836 210.357 166.899 208.155C158.964 204.616 151.545 196.834 144.641 184.808L144.296 195.492H120.928C119.693 195.492 118.691 194.49 118.691 193.254C118.691 193.204 118.692 193.155 118.696 193.105C119.249 184.812 119.904 177.917 120.661 172.421Z" fill="#2963F9"/>
<path opacity="0.176986" d="M184.749 210.896C177.798 211.276 171.848 210.362 166.899 208.155C158.964 204.616 151.545 196.834 144.641 184.808L144.296 195.492H120.929C119.693 195.492 118.691 194.49 118.691 193.254C118.691 193.204 118.693 193.155 118.696 193.105C119.92 174.753 121.643 163.249 123.866 158.595C127.341 151.316 132.585 145.299 140.64 148.568C140.925 148.684 141.223 148.811 141.535 148.949L156.552 157.592L158.235 165.05C162.19 186.648 167.237 200.184 173.376 205.656C176.094 208.079 179.885 209.826 184.749 210.896Z" fill="#444444"/>
<path d="M222.162 152.62C224.128 152.736 226.424 153.298 228.495 154.908C230.935 156.792 231.919 158.943 233.699 163.278C235.177 166.879 236.449 170.066 234.99 171.935C233.922 173.304 232.051 173.304 230.794 173.218C228.931 172.853 227.198 172.717 225.51 172.66L221.494 181.399C221.087 182.545 218.248 189.731 217.412 190.618C215.024 193.172 208.96 190.635 199.218 183.009C196.76 180.81 196.074 178.178 197.161 175.113C197.786 173.154 198.369 171.336 198.911 169.66C197.665 169.491 195.859 169.039 195.107 167.677C193.961 165.601 195.862 162.675 198.004 159.427C200.563 155.505 201.941 153.583 204.681 152.18C206.367 151.322 208.064 151.02 209.612 151.013C212.489 150.399 216.958 150.254 222.162 152.62Z" fill="#FFCB3D"/>
<path opacity="0.176986" d="M198.833 169.695C197.597 169.51 195.91 169.04 195.19 167.736C194.044 165.659 196.014 162.776 198.087 159.485C200.61 155.48 202.023 153.497 204.763 152.095C206.346 151.289 207.94 150.992 209.41 150.976C208.254 151.235 207.368 151.567 206.812 151.831C205.407 152.49 205.016 153.051 203.987 154.884C203.41 155.915 201.691 160.852 198.833 169.695Z" fill="#8C2A00"/>
<path d="M184.9 158.189L184.9 158.215L200.487 158.427C201.135 158.434 201.677 157.899 201.683 157.25L201.716 155.414C201.723 154.765 201.188 154.224 200.539 154.217L184.983 154.022L184.983 154.007L183.314 155.104C182.585 155.57 182.565 156.598 183.277 157.066L184.9 158.189Z" fill="#474BFF"/>
<path d="M218.116 147.158C218.488 148.327 219.087 149.852 219.914 151.733C218.882 151.383 217.767 151.116 216.569 150.932C214.772 150.655 213.965 150.63 213.069 150.627L212.902 149.25C211.523 149.725 211.601 149.682 211.479 149.736C210.503 149.976 209.513 150.036 208.531 149.962C206.616 149.75 204.519 146.145 203.71 141.061C203.643 140.631 203.619 140.227 203.596 139.822L203.563 135.742C203.545 134.8 203.771 133.916 204.215 133.133C204.388 132.828 204.605 132.526 204.823 132.223C207.314 129.15 211.613 129.644 212.413 129.775C212.502 129.78 212.59 129.807 212.702 129.813C213.519 130.035 214.322 130.122 215.148 130.165C215.528 130.185 215.805 130.469 215.785 130.848L215.68 136.691C215.683 137.072 217.527 136.715 217.932 136.691C219.009 136.658 220.441 137.54 220.831 138.658C221.127 139.839 220.931 141.465 220.149 142.276C219.865 142.559 219.194 144.184 218.135 147.149C218.131 147.151 218.125 147.154 218.116 147.158ZM197.929 158.4L199.142 158.416C199.685 159.425 200.199 160.375 200.638 161.177C201.115 161.647 201.452 161.977 201.498 162.028L217.436 179.044C217.436 179.044 217.939 174.001 218.037 172.456C222.349 172.813 226.172 172.313 230.794 173.218C231.469 173.264 232.341 173.266 233.165 173.066C232.849 175.744 232.352 179.338 231.501 183.543C228.941 196.169 226.666 197.483 225.661 197.868C224.805 198.197 222.173 198.936 217.436 195.602C215.536 193.874 213.619 192.017 211.708 190.039C206.32 184.476 201.744 178.785 197.852 173.183C197.161 175 196.774 176.315 196.693 177.128C196.615 177.917 196.818 178.952 197.221 180.382C197.231 180.42 197.181 180.42 197.071 180.382L193.928 176.039C194.271 175.481 194.946 173.592 195.951 170.374C194.446 168.089 193.053 165.825 191.762 163.597L187.216 158.291C186.803 157.788 186.84 157.045 187.351 156.612L187.806 156.251C188.011 156.077 188.252 155.987 188.496 155.972L188.188 155.613C187.775 155.11 187.812 154.367 188.323 153.934L188.778 153.573C189.11 153.291 189.536 153.217 189.913 153.339C189.839 152.938 189.969 152.511 190.31 152.222L190.765 151.861C191.276 151.427 192.021 151.514 192.444 151.996L192.917 152.549C192.561 151.007 192.688 149.547 194.165 149.064C194.165 149.064 195.392 151.39 196.876 154.179L194.285 154.146L197.929 158.4Z" fill="#F5BCA3"/>
<path d="M225.356 137.51C225.438 137.938 225.503 138.347 225.588 138.756C225.898 138.818 226.23 138.902 226.602 139.078C226.864 139.204 228.66 139.993 229.407 141.556C230.477 143.808 229.326 147.377 225.874 149.549C225.689 149.651 225.529 149.71 225.529 149.71C224.935 149.926 224.374 149.941 223.791 149.955C223.679 149.949 223.544 149.965 223.544 149.965C222.323 149.886 221.023 149.801 219.643 149.71C218.873 149.586 218.381 148.928 218.168 147.735C218.11 147.41 218.086 147.011 218.077 146.563C218.017 145.735 217.911 144.222 217.836 143.011C218.581 142.915 219.271 142.571 219.792 142.038C220.618 141.23 220.884 140.011 220.517 138.894C220.127 137.776 219.008 136.888 217.931 136.921C217.527 136.945 217.139 137.081 216.769 137.286C216.304 137.62 215.902 138.025 215.65 138.549L214.551 141.136L214.57 141.152C214.555 141.154 214.541 141.156 214.527 141.157C212.522 141.366 211.642 133.791 207.363 132.491C206.371 132.192 205.294 132.296 204.681 132.443C206.523 128.886 212.394 129.641 212.506 129.647C213.84 129.851 215.08 130.184 215.795 130.222C219.321 130.496 220.707 130.121 222.448 131.108C223.101 131.478 223.703 131.958 224.141 132.586C225.316 134.228 225.44 136.178 225.356 137.51ZM206.456 138.948C206.235 138.891 206.183 138.597 206.348 138.449C206.581 138.282 206.947 138.122 207.393 138.168C208.352 138.263 209.302 138.94 208.24 139.108C207.606 139.232 206.897 139.083 206.456 138.948ZM202.662 138.659C202.442 138.58 202.413 138.288 202.621 138.164C202.875 138.021 203.218 137.882 203.706 137.974C204.639 138.135 205.54 138.9 204.437 138.999C203.762 139.053 203.102 138.817 202.662 138.659Z" fill="#482D1F"/>
<path d="M204.483 139.86C204.473 139.737 204.565 139.629 204.688 139.619C204.811 139.609 204.919 139.7 204.929 139.824L205.039 141.151L205.039 141.179L204.937 143.549C204.945 143.576 204.965 143.594 204.994 143.599C205.071 143.595 205.15 143.597 205.236 143.604C205.303 143.609 205.355 143.615 205.473 143.629C205.817 143.671 205.967 143.672 206.161 143.61C206.279 143.572 206.405 143.637 206.442 143.755C206.48 143.872 206.415 143.998 206.297 144.036C206.023 144.124 205.823 144.123 205.418 144.073C205.307 144.06 205.26 144.054 205.201 144.05C205.128 144.044 205.064 144.043 205.004 144.046L204.979 144.046C204.718 144.033 204.519 143.836 204.491 143.587L204.489 143.552L204.592 141.174L204.483 139.86Z" fill="#482D1F"/>
<path d="M206.682 145.628C206.839 145.608 207.243 145.526 207.337 145.281C207.338 145.236 207.383 145.17 207.362 145.125C207.297 145.012 206.603 145 206.603 145C205.686 145.006 205.463 144.958 205.393 145.068C205.37 145.135 205.368 145.224 205.521 145.429C205.694 145.812 206.435 145.668 206.682 145.628Z" fill="#482D1F"/>
<path d="M212.826 149.246L214.676 148.581L213.059 150.556L212.826 149.246Z" fill="#482D1F"/>
<path d="M204.146 141.56C203.854 141.993 203.148 140.925 203.343 140.196C203.404 139.886 203.61 139.807 203.768 139.793C204.014 139.806 204.272 139.998 204.28 140.29C204.327 140.673 204.361 141.303 204.146 141.56ZM207.779 141.673C207.465 142.105 206.781 141.039 206.976 140.309C207.037 139.999 207.243 139.92 207.401 139.906C207.647 139.919 207.905 140.112 207.913 140.403C207.96 140.787 208.016 141.417 207.779 141.673Z" fill="#482D1F"/>
<path d="M173.02 145.076C172.44 145.497 172.312 146.31 172.732 146.889L191.922 173.301C192.343 173.88 193.155 174.009 193.734 173.588C194.314 173.167 194.442 172.354 194.022 171.775L174.832 145.363C174.411 144.784 173.599 144.655 173.02 145.076Z" fill="#474961"/>
<path opacity="0.2" d="M195.978 170.457C194.967 173.693 194.29 175.591 193.946 176.151L197.088 180.493C197.199 180.532 197.249 180.532 197.238 180.493C196.836 179.064 196.632 178.029 196.711 177.24C196.793 176.418 197.187 175.083 197.893 173.234L195.978 170.457Z" fill="#8C2A00"/>
<path d="M217.732 167.106C217.717 167.127 217.689 167.169 217.65 167.231C217.583 167.336 217.51 167.455 217.435 167.586C217.145 168.092 216.898 168.625 216.738 169.143C216.312 170.524 216.588 171.415 217.84 171.739C218.02 171.786 218.127 171.969 218.081 172.148C218.034 172.328 217.851 172.436 217.672 172.389C215.975 171.949 215.572 170.647 216.096 168.946C216.273 168.374 216.54 167.798 216.853 167.253C216.934 167.111 217.011 166.983 217.084 166.87C217.127 166.801 217.16 166.752 217.179 166.725C217.284 166.572 217.493 166.534 217.646 166.639C217.799 166.745 217.837 166.954 217.732 167.106Z" fill="#482D1F"/>
</g>
<g clip-path="url(#clip2_330_1859)">
<path d="M159.748 88.7676H64.2018C61.7302 88.7676 59.7266 90.7712 59.7266 93.2428V105.997C59.7266 108.469 61.7302 110.472 64.2018 110.472H159.748C162.219 110.472 164.223 108.469 164.223 105.997V93.2428C164.223 90.7712 162.219 88.7676 159.748 88.7676Z" fill="#D8DEED"/>
<path d="M140.504 96.5991H153.93C154.645 96.5991 155.281 96.7586 155.811 97.0507C156.341 97.3429 156.766 97.7676 157.058 98.298C157.35 98.8284 157.51 99.4644 157.51 100.179C157.51 100.894 157.35 101.53 157.058 102.061C156.766 102.591 156.341 103.016 155.811 103.308C155.281 103.6 154.645 103.759 153.93 103.759H140.504C139.789 103.759 139.153 103.6 138.623 103.308C138.092 103.016 137.668 102.591 137.375 102.061C137.083 101.53 136.924 100.894 136.924 100.179C136.924 99.4644 137.083 98.8284 137.375 98.298C137.668 97.7676 138.092 97.3429 138.623 97.0507C139.153 96.7586 139.789 96.5991 140.504 96.5991Z" fill="#474BFF"/>
<path d="M128.644 96.5991H69.1236C68.6292 96.5991 68.2285 96.9998 68.2285 97.4942V102.864C68.2285 103.359 68.6292 103.759 69.1236 103.759H128.644C129.138 103.759 129.539 103.359 129.539 102.864V97.4942C129.539 96.9998 129.138 96.5991 128.644 96.5991Z" fill="white"/>
</g>
<g clip-path="url(#clip3_330_1859)">
<path d="M205.631 51.7144H110.085C107.613 51.7144 105.609 53.718 105.609 56.1896V68.944C105.609 71.4156 107.613 73.4192 110.085 73.4192H205.631C208.102 73.4192 210.106 71.4156 210.106 68.944V56.1896C210.106 53.718 208.102 51.7144 205.631 51.7144Z" fill="#D8DEED"/>
<path d="M186.387 59.5459H199.812C200.527 59.5459 201.163 59.7054 201.694 59.9975C202.224 60.2896 202.649 60.7143 202.941 61.2447C203.233 61.7751 203.393 62.4112 203.393 63.1261C203.393 63.8409 203.233 64.477 202.941 65.0074C202.649 65.5378 202.224 65.9625 201.694 66.2546C201.163 66.5467 200.527 66.7063 199.812 66.7063H186.387C185.672 66.7063 185.036 66.5467 184.505 66.2546C183.975 65.9625 183.55 65.5378 183.258 65.0074C182.966 64.477 182.807 63.8409 182.807 63.1261C182.807 62.4112 182.966 61.7751 183.258 61.2447C183.55 60.7143 183.975 60.2896 184.505 59.9975C185.036 59.7054 185.672 59.5459 186.387 59.5459Z" fill="#474BFF"/>
<path d="M174.527 59.5459H115.006C114.512 59.5459 114.111 59.9466 114.111 60.4409V65.8112C114.111 66.3055 114.512 66.7063 115.006 66.7063H174.527C175.021 66.7063 175.422 66.3055 175.422 65.8112V60.4409C175.422 59.9466 175.021 59.5459 174.527 59.5459Z" fill="white"/>
</g>
<g clip-path="url(#clip4_330_1859)">
<path d="M136.748 14.5422H41.2018C38.7302 14.5422 36.7266 16.5459 36.7266 19.0175V31.7719C36.7266 34.2435 38.7302 36.2471 41.2018 36.2471H136.748C139.219 36.2471 141.223 34.2435 141.223 31.7719V19.0175C141.223 16.5459 139.219 14.5422 136.748 14.5422Z" fill="#D8DEED"/>
<path d="M117.504 22.374H130.93C131.645 22.374 132.281 22.5335 132.811 22.8256C133.341 23.1178 133.766 23.5425 134.058 24.0729C134.35 24.6033 134.51 25.2393 134.51 25.9542C134.51 26.6691 134.35 27.3052 134.058 27.8355C133.766 28.3659 133.341 28.7907 132.811 29.0828C132.281 29.3749 131.645 29.5344 130.93 29.5344H117.504C116.789 29.5344 116.153 29.3749 115.623 29.0828C115.092 28.7907 114.668 28.3659 114.375 27.8355C114.083 27.3052 113.924 26.6691 113.924 25.9542C113.924 25.2393 114.083 24.6033 114.375 24.0729C114.668 23.5425 115.092 23.1178 115.623 22.8256C116.153 22.5335 116.789 22.374 117.504 22.374Z" fill="#474BFF"/>
<path d="M105.644 22.374H46.1236C45.6292 22.374 45.2285 22.7747 45.2285 23.2691V28.6393C45.2285 29.1337 45.6292 29.5344 46.1236 29.5344H105.644C106.138 29.5344 106.539 29.1337 106.539 28.6393V23.2691C106.539 22.7747 106.138 22.374 105.644 22.374Z" fill="white"/>
</g>
<defs>
<clipPath id="clip0_330_1859">
<rect width="187.064" height="85.7006" fill="white" transform="translate(82.7402 154.569)"/>
</clipPath>
<clipPath id="clip1_330_1859">
<rect width="227.341" height="211.902" fill="white" transform="translate(59.0215 0.397949)"/>
</clipPath>
<clipPath id="clip2_330_1859">
<rect width="119" height="21" fill="white" transform="translate(51 89)"/>
</clipPath>
<clipPath id="clip3_330_1859">
<rect width="119" height="21" fill="white" transform="translate(97 52)"/>
</clipPath>
<clipPath id="clip4_330_1859">
<rect width="119" height="27" fill="white" transform="translate(28 9)"/>
</clipPath>
</defs>
</svg>
