<svg width="403" height="273" viewBox="0 0 403 273" fill="none" xmlns="http://www.w3.org/2000/svg">
<g filter="url(#filter0_d_7416_1746)">
<rect x="63" y="59.0728" width="275.662" height="185" rx="10" fill="white"/>
</g>
<path d="M63 69C63 63.4772 67.4772 59 73 59H329C334.523 59 339 63.4772 339 69V77H63V69Z" fill="url(#paint0_linear_7416_1746)"/>
<g filter="url(#filter1_d_7416_1746)">
<rect x="288" y="67.0728" width="40" height="40" rx="10" fill="#7C8AEC"/>
</g>
<path d="M306.94 87.0928C307.58 87.5128 308.42 87.5128 309.06 87.0928L317.44 81.6728C317.22 80.7928 316.42 80.1128 315.46 80.1128H300.56C299.6 80.1328 298.8 80.7928 298.56 81.6728L306.94 87.0928Z" fill="white"/>
<path d="M310.06 88.633C309.44 89.033 308.72 89.233 308 89.233C307.28 89.233 306.56 89.033 305.94 88.633L298.5 83.833V91.973C298.5 93.113 299.42 94.033 300.56 94.033H315.46C316.6 94.033 317.52 93.113 317.52 91.973V83.833L310.06 88.633Z" fill="white"/>
<g clip-path="url(#clip0_7416_1746)">
<path d="M283.995 31.5177C284.368 32.2582 285.156 32.7131 285.984 32.6657L296.778 32.12C297.049 31.1755 296.666 30.1045 295.766 29.5847L281.791 21.5161C280.88 21.015 279.772 21.2009 279.07 21.8963L283.995 31.5177Z" fill="white"/>
<path d="M286.087 34.6516C285.289 34.691 284.506 34.4887 283.83 34.0988C283.155 33.7089 282.588 33.1315 282.223 32.4206L277.844 23.8896L273.436 31.5244C272.819 32.5936 273.184 33.9547 274.253 34.572L288.228 42.6406C289.297 43.2579 290.658 42.8932 291.276 41.824L295.684 34.1892L286.087 34.6516Z" fill="white"/>
</g>
<g filter="url(#filter2_d_7416_1746)">
<rect x="75" y="131.073" width="242" height="43" rx="10" fill="white"/>
</g>
<rect opacity="0.8" x="90" y="141.073" width="119" height="4" rx="2" fill="#768DEC"/>
<rect x="265" y="145.073" width="39" height="16" rx="8" fill="url(#paint1_linear_7416_1746)"/>
<rect opacity="0.8" x="90" y="150.073" width="63" height="4" rx="2" fill="url(#paint2_linear_7416_1746)"/>
<rect x="90" y="158.073" width="91" height="4" rx="2" fill="url(#paint3_linear_7416_1746)"/>
<rect x="77" y="194.073" width="30" height="30" rx="15" fill="#7C8AEC"/>
<g filter="url(#filter3_d_7416_1746)">
<rect x="217" y="188.073" width="158" height="39.5" rx="10" fill="white"/>
</g>
<rect x="225.587" y="196.087" width="96.1739" height="4.00725" rx="2" fill="url(#paint4_linear_7416_1746)"/>
<rect opacity="0.5" x="225.587" y="205.247" width="53.2391" height="4.00725" rx="2" fill="url(#paint5_linear_7416_1746)"/>
<rect opacity="0.5" x="225.587" y="214.406" width="70.9855" height="4.00725" rx="2" fill="url(#paint6_linear_7416_1746)"/>
<g clip-path="url(#clip1_7416_1746)">
<path d="M338.935 208.109C338.935 201.786 344.061 196.66 350.384 196.66C356.707 196.66 361.833 201.786 361.833 208.109C361.833 214.432 356.707 219.558 350.384 219.558C344.061 219.558 338.935 214.432 338.935 208.109Z" fill="url(#paint7_linear_7416_1746)"/>
<path d="M357.406 214.597C357.966 215.665 358.246 219.558 358.246 219.558H342.522C342.522 219.558 342.802 215.665 343.362 214.597C344.201 212.994 350.384 210.933 350.384 210.933C350.384 210.933 356.566 212.994 357.406 214.597Z" fill="url(#paint8_linear_7416_1746)"/>
<path d="M350.079 217.727C350.079 217.666 350.097 217.607 350.13 217.557C350.164 217.507 350.211 217.468 350.267 217.445C350.323 217.421 350.384 217.415 350.443 217.427C350.503 217.439 350.557 217.468 350.6 217.511C350.643 217.553 350.672 217.608 350.683 217.667C350.695 217.726 350.689 217.788 350.666 217.843C350.643 217.899 350.604 217.947 350.554 217.98C350.503 218.014 350.444 218.032 350.384 218.032C350.303 218.032 350.225 218 350.168 217.942C350.111 217.885 350.079 217.808 350.079 217.727ZM350.079 216.2C350.079 216.14 350.097 216.081 350.13 216.03C350.164 215.98 350.211 215.941 350.267 215.918C350.323 215.895 350.384 215.889 350.443 215.901C350.503 215.912 350.557 215.941 350.6 215.984C350.643 216.027 350.672 216.081 350.683 216.14C350.695 216.2 350.689 216.261 350.666 216.317C350.643 216.373 350.604 216.42 350.554 216.454C350.503 216.487 350.444 216.505 350.384 216.505C350.303 216.505 350.225 216.473 350.168 216.416C350.111 216.359 350.079 216.281 350.079 216.2ZM350.079 214.673C350.079 214.613 350.097 214.554 350.13 214.504C350.164 214.454 350.211 214.415 350.267 214.391C350.323 214.368 350.384 214.362 350.443 214.374C350.503 214.386 350.557 214.415 350.6 214.458C350.643 214.5 350.672 214.555 350.683 214.614C350.695 214.673 350.689 214.735 350.666 214.79C350.643 214.846 350.604 214.894 350.554 214.927C350.503 214.961 350.444 214.979 350.384 214.979C350.303 214.979 350.225 214.947 350.168 214.889C350.111 214.832 350.079 214.754 350.079 214.673Z" fill="white"/>
<path d="M356.908 210.049L344.508 208.55C343.896 205.305 344.621 203.26 346.683 202.416C347.636 199.293 351.345 199.547 352.397 199.802C355.975 200.668 357.478 204.084 356.908 210.049Z" fill="url(#paint9_linear_7416_1746)"/>
<path d="M348.552 211.849V207.27C346.642 207.241 347.015 203.932 348.934 204.941C349.277 205.094 350.155 204.674 349.85 203.644C351.91 205.17 354.782 202.491 354.964 204.14C355.32 207.385 354.63 210.052 352.799 210.052C352.604 210.059 352.409 210.048 352.216 210.017V211.849C351.618 212.205 351.02 212.384 350.423 212.384C349.825 212.384 349.202 212.205 348.552 211.849Z" fill="#FFDBC9"/>
<path d="M352.216 210.017V210.628C351.071 210.628 350.18 210.081 349.544 208.987C350.307 209.496 351.198 209.839 352.216 210.017Z" fill="#FFBC9E"/>
<path d="M350.381 212.305C350.904 212.28 352.216 212.01 352.216 211.426V210.933C352.356 210.933 352.757 211.264 352.963 211.544C353.778 212.65 352.874 213.643 352.137 213.643C351.206 213.643 350.59 212.866 350.384 212.492C350.178 212.866 349.561 213.643 348.631 213.643C347.894 213.643 346.99 212.65 347.805 211.544C348.011 211.264 348.412 210.933 348.552 210.933V211.426C348.552 212.01 349.83 212.28 350.381 212.305Z" fill="white"/>
</g>
<path d="M95.9441 212.684L94.8373 210.907C94.7617 210.786 94.6626 210.68 94.5458 210.598C94.429 210.515 94.2969 210.457 94.1572 210.426C94.0173 210.394 93.8722 210.389 93.7304 210.412C93.5886 210.436 93.4529 210.488 93.3312 210.564L92.351 211.182L92.3084 211.204L92.2836 211.221C91.2593 211.861 89.7436 211.334 88.9094 210.051C88.1137 208.736 88.2981 207.143 89.3224 206.499L89.3485 206.482C89.3619 206.474 89.3743 206.465 89.3857 206.455L90.3714 205.837C90.6163 205.684 90.7906 205.44 90.8559 205.158C90.9212 204.877 90.8722 204.581 90.7197 204.336L89.6459 202.637L89.6018 202.571C89.4174 202.321 89.1451 202.151 88.8398 202.094C88.5344 202.037 88.2188 202.098 87.9567 202.264L86.9504 202.922C85.4856 204.379 85.7375 207.589 87.5437 210.621L87.8039 211.034C89.449 213.523 91.6999 215.073 93.5308 215.073C93.854 215.075 94.1751 215.022 94.4807 214.917L94.4904 214.934L95.5063 214.296C95.7697 214.133 95.9613 213.876 96.0425 213.576C96.1238 213.277 96.0886 212.958 95.9441 212.684Z" fill="white"/>
<path d="M95.9154 207.328H95.892C95.7011 207.848 95.3555 208.107 94.8554 208.107C94.6824 208.112 94.5106 208.078 94.3531 208.006C94.1956 207.935 94.0566 207.828 93.9468 207.694C93.7164 207.419 93.6017 207.042 93.6026 206.564C93.6026 205.94 93.7618 205.435 94.0803 205.05C94.2128 204.869 94.3858 204.722 94.5855 204.62C94.7851 204.518 95.0057 204.465 95.2298 204.463C95.6355 204.463 95.8901 204.623 95.9939 204.941H96.0104L96.031 204.736C96.0365 204.682 96.0619 204.631 96.1023 204.595C96.1428 204.558 96.1954 204.538 96.2499 204.538H96.7235C96.7543 204.538 96.7848 204.544 96.8129 204.557C96.8411 204.569 96.8664 204.587 96.8871 204.61C96.9078 204.633 96.9236 204.66 96.9333 204.689C96.9431 204.718 96.9466 204.749 96.9438 204.78C96.8373 205.803 96.7845 206.48 96.7854 206.811C96.7854 207.191 96.8887 207.382 97.0952 207.382C97.3017 207.382 97.4917 207.244 97.6335 206.948C97.7892 206.591 97.8617 206.203 97.8455 205.814C97.8559 205.526 97.8075 205.238 97.7031 204.969C97.5987 204.7 97.4406 204.456 97.2384 204.25C96.8327 203.842 96.2669 203.639 95.5409 203.64C95.1783 203.631 94.8177 203.698 94.4831 203.839C94.1485 203.979 93.8475 204.189 93.5998 204.454C93.3468 204.717 93.1483 205.029 93.0158 205.369C92.8832 205.71 92.8193 206.073 92.8275 206.439C92.8275 207.195 93.057 207.792 93.5159 208.229C93.9747 208.665 94.6039 208.883 95.4033 208.881C95.8748 208.886 96.3434 208.808 96.7882 208.651C96.8216 208.639 96.8574 208.635 96.8926 208.64C96.9278 208.644 96.9614 208.657 96.9905 208.678C97.0196 208.698 97.0433 208.725 97.0596 208.757C97.0759 208.788 97.0843 208.823 97.0842 208.859V209.159C97.0847 209.204 97.0719 209.247 97.0473 209.284C97.0228 209.321 96.9877 209.35 96.9465 209.367C96.4138 209.542 95.8549 209.623 95.2945 209.608C94.2905 209.608 93.4736 209.32 92.844 208.745C92.2145 208.169 91.896 207.397 91.8886 206.426C91.8777 205.964 91.9615 205.503 92.1348 205.074C92.308 204.644 92.5672 204.255 92.8964 203.929C93.5673 203.258 94.4323 202.923 95.4914 202.923C96.4706 202.923 97.2631 203.185 97.8689 203.709C98.4746 204.233 98.777 204.921 98.7761 205.774C98.7761 206.479 98.5925 207.044 98.2254 207.469C98.0587 207.672 97.8484 207.835 97.61 207.945C97.3717 208.056 97.1115 208.111 96.8488 208.107C96.6108 208.118 96.3772 208.041 96.1921 207.891C96.1089 207.822 96.0413 207.736 95.9936 207.639C95.946 207.542 95.9193 207.436 95.9154 207.328ZM95.373 205.174C95.1279 205.174 94.9297 205.311 94.7755 205.587C94.6174 205.883 94.5378 206.215 94.5442 206.55C94.5313 206.765 94.5867 206.979 94.7025 207.16C94.7462 207.228 94.8062 207.283 94.877 207.321C94.9477 207.359 95.027 207.379 95.1073 207.378C95.3633 207.378 95.5643 207.24 95.7116 206.965C95.8734 206.621 95.949 206.243 95.9319 205.863C95.9423 205.679 95.8883 205.497 95.7791 205.349C95.7294 205.29 95.6668 205.244 95.5964 205.214C95.526 205.183 95.4495 205.17 95.373 205.174Z" fill="white"/>
<path d="M151.124 28.1866L151.099 24.0444C151.097 23.7615 151.039 23.4818 150.927 23.2217C150.816 22.9617 150.654 22.7265 150.45 22.5301C150.248 22.3297 150.009 22.1713 149.745 22.0643C149.482 21.9573 149.2 21.9037 148.915 21.9067L146.623 21.9334L146.528 21.9263L146.469 21.9285C144.08 21.9467 142.071 19.4881 141.993 16.4612C142.014 13.4209 143.974 10.9271 146.368 10.9019L146.429 10.9011C146.46 10.9018 146.491 10.8991 146.521 10.8932L148.822 10.8722C149.394 10.868 149.94 10.6373 150.342 10.2307C150.743 9.82413 150.967 9.27487 150.964 8.7035L150.913 4.72774L150.907 4.57072C150.855 3.95841 150.573 3.3886 150.117 2.97631C149.662 2.56402 149.067 2.33995 148.452 2.34934L146.074 2.41628C142.097 3.35435 139.196 9.02688 139.101 16.0075L139.112 16.9732C139.307 22.8727 141.496 27.8169 144.582 29.7133C145.125 30.0516 145.72 30.2956 146.344 30.4349L146.343 30.4728L148.716 30.4506C149.33 30.4478 149.919 30.2126 150.366 29.7925C150.812 29.3724 151.083 28.7986 151.124 28.1866Z" fill="white"/>
<path d="M156.623 19.1287L156.583 19.1045C155.724 19.7824 154.872 19.8623 154.029 19.3443C153.732 19.1737 153.478 18.9375 153.287 18.6537C153.096 18.3699 152.972 18.0461 152.925 17.707C152.822 17.0043 153.019 16.2504 153.516 15.4454C154.162 14.3934 154.953 13.7074 155.889 13.3875C156.3 13.2202 156.744 13.1514 157.186 13.1865C157.628 13.2215 158.055 13.3596 158.434 13.5895C159.118 14.0097 159.383 14.5419 159.228 15.1861L159.255 15.2032L159.503 14.8788C159.568 14.793 159.663 14.7345 159.769 14.7146C159.875 14.6947 159.985 14.715 160.077 14.7714L160.875 15.2619C160.927 15.2939 160.972 15.3364 161.006 15.3866C161.041 15.4368 161.064 15.4937 161.076 15.5536C161.087 15.6135 161.086 15.6751 161.072 15.7345C161.058 15.7938 161.032 15.8497 160.996 15.8984C159.756 17.5131 158.966 18.5994 158.626 19.1573C158.232 19.7978 158.208 20.2273 158.556 20.4412C158.904 20.655 159.367 20.6198 159.912 20.2677C160.545 19.8269 161.069 19.2482 161.445 18.5751C161.761 18.1 161.977 17.5655 162.079 17.0041C162.182 16.4427 162.169 15.8663 162.041 15.3101C161.779 14.2031 161.036 13.2744 159.811 12.524C159.21 12.1327 158.532 11.8734 157.823 11.7633C157.113 11.6531 156.389 11.6946 155.697 11.8851C154.997 12.0676 154.34 12.3865 153.764 12.8234C153.188 13.2604 152.703 13.8069 152.339 14.4314C151.556 15.7062 151.324 16.9494 151.646 18.1611C151.967 19.3728 152.802 20.3911 154.151 21.2159C154.941 21.7118 155.812 22.066 156.724 22.2628C156.793 22.2768 156.857 22.3072 156.912 22.3515C156.966 22.3958 157.009 22.4526 157.037 22.5171C157.065 22.5817 157.077 22.652 157.072 22.7221C157.067 22.7922 157.045 22.86 157.007 22.9197L156.697 23.4256C156.651 23.5012 156.585 23.5614 156.505 23.5984C156.425 23.6355 156.336 23.6477 156.249 23.6335C155.17 23.3765 154.144 22.935 153.215 22.3285C151.523 21.2886 150.444 19.9576 149.978 18.3355C149.513 16.7134 149.777 15.081 150.769 13.4381C151.23 12.6465 151.848 11.9573 152.585 11.4129C153.322 10.8685 154.162 10.4804 155.054 10.2723C156.88 9.83627 158.685 10.1667 160.471 11.2637C162.122 12.2779 163.186 13.5404 163.664 15.0512C164.143 16.5619 163.939 18.0354 163.055 19.4717C162.325 20.6598 161.43 21.4219 160.371 21.758C159.88 21.9276 159.357 21.9843 158.84 21.9239C158.324 21.8634 157.828 21.6874 157.389 21.4089C156.977 21.1805 156.663 20.8089 156.506 20.3644C156.437 20.1618 156.412 19.947 156.433 19.7341C156.453 19.5212 156.517 19.3149 156.623 19.1287ZM157.94 14.9352C157.527 14.6814 157.05 14.7081 156.505 15.0126C155.932 15.3482 155.454 15.8249 155.117 16.3974C154.873 16.7463 154.745 17.1636 154.752 17.5894C154.756 17.7483 154.8 17.9037 154.88 18.0411C154.96 18.1785 155.073 18.2935 155.209 18.3753C155.641 18.6405 156.122 18.6166 156.656 18.3051C157.284 17.893 157.803 17.3342 158.168 16.6767C158.376 16.377 158.473 16.0142 158.443 15.6506C158.42 15.5007 158.362 15.3582 158.275 15.2342C158.188 15.1101 158.073 15.0078 157.94 14.9352Z" fill="white"/>
<g filter="url(#filter4_d_7416_1746)">
<rect x="28" y="92" width="158" height="30" rx="10" fill="white"/>
</g>
<rect x="65.5869" y="99.7104" width="96.1739" height="3.85507" rx="1.92754" fill="url(#paint10_linear_7416_1746)"/>
<rect opacity="0.5" x="65.5869" y="108.521" width="53.2391" height="3.85507" rx="1.92754" fill="url(#paint11_linear_7416_1746)"/>
<g clip-path="url(#clip2_7416_1746)">
<path d="M34.9346 106.275C34.9346 100.192 39.8659 95.2607 45.9491 95.2607H46.8186C52.9018 95.2607 57.8331 100.192 57.8331 106.275C57.8331 112.358 52.9018 117.29 46.8186 117.29H45.9491C39.8659 117.29 34.9346 112.358 34.9346 106.275Z" fill="url(#paint12_linear_7416_1746)"/>
<path d="M53.406 112.517C53.9657 113.545 54.2456 117.29 54.2456 117.29H38.522C38.522 117.29 38.8019 113.545 39.3616 112.517C40.2012 110.975 46.3838 108.992 46.3838 108.992C46.3838 108.992 52.5664 110.975 53.406 112.517Z" fill="url(#paint13_linear_7416_1746)"/>
<path d="M46.0786 115.527C46.0786 115.469 46.0965 115.412 46.1301 115.364C46.1636 115.316 46.2113 115.278 46.2671 115.256C46.3229 115.234 46.3843 115.228 46.4435 115.239C46.5027 115.251 46.5571 115.279 46.5998 115.32C46.6425 115.361 46.6716 115.413 46.6834 115.47C46.6952 115.527 46.6891 115.586 46.666 115.64C46.6429 115.693 46.6038 115.739 46.5536 115.772C46.5033 115.804 46.4443 115.821 46.3839 115.821C46.303 115.821 46.2253 115.79 46.168 115.735C46.1108 115.68 46.0786 115.605 46.0786 115.527ZM46.0786 114.059C46.0786 114.001 46.0965 113.944 46.1301 113.896C46.1636 113.847 46.2113 113.81 46.2671 113.787C46.3229 113.765 46.3843 113.759 46.4435 113.771C46.5027 113.782 46.5571 113.81 46.5998 113.851C46.6425 113.892 46.6716 113.944 46.6834 114.001C46.6952 114.058 46.6891 114.117 46.666 114.171C46.6429 114.225 46.6038 114.271 46.5536 114.303C46.5033 114.335 46.4443 114.352 46.3839 114.352C46.303 114.352 46.2253 114.321 46.168 114.266C46.1108 114.211 46.0786 114.137 46.0786 114.059ZM46.0786 112.59C46.0786 112.532 46.0965 112.475 46.1301 112.427C46.1636 112.379 46.2113 112.341 46.2671 112.319C46.3229 112.297 46.3843 112.291 46.4435 112.302C46.5027 112.313 46.5571 112.341 46.5998 112.382C46.6425 112.423 46.6716 112.476 46.6834 112.533C46.6952 112.59 46.6891 112.649 46.666 112.703C46.6429 112.756 46.6038 112.802 46.5536 112.834C46.5033 112.867 46.4443 112.884 46.3839 112.884C46.303 112.884 46.2253 112.853 46.168 112.798C46.1108 112.743 46.0786 112.668 46.0786 112.59Z" fill="white"/>
<path d="M52.9077 108.141L40.5076 106.699C39.8962 103.577 40.6214 101.61 42.6829 100.798C43.636 97.794 47.3453 98.0384 48.3968 98.2833C51.9747 99.1168 53.4783 102.403 52.9077 108.141Z" fill="url(#paint14_linear_7416_1746)"/>
<path d="M44.552 109.873V105.467C42.6422 105.44 43.0147 102.256 44.9337 103.228C45.2771 103.375 46.1549 102.971 45.8496 101.979C47.9105 103.448 50.7823 100.871 50.9636 102.457C51.3205 105.578 50.63 108.144 48.7991 108.144C48.604 108.151 48.4086 108.14 48.2158 108.111V109.873C47.6181 110.216 47.0205 110.387 46.4228 110.387C45.8252 110.387 45.2016 110.216 44.552 109.873Z" fill="#FFDBC9"/>
<path d="M48.2157 108.111V108.698C47.0708 108.698 46.1803 108.172 45.5442 107.12C46.3075 107.609 47.198 107.94 48.2157 108.111Z" fill="#FFBC9E"/>
<path d="M46.3813 110.312C46.9035 110.288 48.2157 110.028 48.2157 109.467V108.992C48.3557 108.992 48.7565 109.31 48.9627 109.58C49.7776 110.644 48.8737 111.599 48.1365 111.599C47.2064 111.599 46.59 110.851 46.3839 110.492C46.1778 110.851 45.5614 111.599 44.6312 111.599C43.894 111.599 42.9902 110.644 43.805 109.58C44.0112 109.31 44.412 108.992 44.552 108.992V109.467C44.552 110.028 45.8297 110.288 46.3813 110.312Z" fill="white"/>
</g>
<defs>
<filter id="filter0_d_7416_1746" x="35" y="31.0728" width="331.662" height="241" filterUnits="userSpaceOnUse" color-interpolation-filters="sRGB">
<feFlood flood-opacity="0" result="BackgroundImageFix"/>
<feColorMatrix in="SourceAlpha" type="matrix" values="0 0 0 0 0 0 0 0 0 0 0 0 0 0 0 0 0 0 127 0" result="hardAlpha"/>
<feMorphology radius="4" operator="dilate" in="SourceAlpha" result="effect1_dropShadow_7416_1746"/>
<feOffset/>
<feGaussianBlur stdDeviation="12"/>
<feComposite in2="hardAlpha" operator="out"/>
<feColorMatrix type="matrix" values="0 0 0 0 0.282353 0 0 0 0 0.290196 0 0 0 0 0.619608 0 0 0 0.1 0"/>
<feBlend mode="normal" in2="BackgroundImageFix" result="effect1_dropShadow_7416_1746"/>
<feBlend mode="normal" in="SourceGraphic" in2="effect1_dropShadow_7416_1746" result="shape"/>
</filter>
<filter id="filter1_d_7416_1746" x="260" y="51.0728" width="96" height="96" filterUnits="userSpaceOnUse" color-interpolation-filters="sRGB">
<feFlood flood-opacity="0" result="BackgroundImageFix"/>
<feColorMatrix in="SourceAlpha" type="matrix" values="0 0 0 0 0 0 0 0 0 0 0 0 0 0 0 0 0 0 127 0" result="hardAlpha"/>
<feMorphology radius="4" operator="dilate" in="SourceAlpha" result="effect1_dropShadow_7416_1746"/>
<feOffset dy="12"/>
<feGaussianBlur stdDeviation="12"/>
<feComposite in2="hardAlpha" operator="out"/>
<feColorMatrix type="matrix" values="0 0 0 0 0.439216 0 0 0 0 0.694118 0 0 0 0 0.501961 0 0 0 0.15 0"/>
<feBlend mode="normal" in2="BackgroundImageFix" result="effect1_dropShadow_7416_1746"/>
<feBlend mode="normal" in="SourceGraphic" in2="effect1_dropShadow_7416_1746" result="shape"/>
</filter>
<filter id="filter2_d_7416_1746" x="47" y="103.073" width="298" height="99" filterUnits="userSpaceOnUse" color-interpolation-filters="sRGB">
<feFlood flood-opacity="0" result="BackgroundImageFix"/>
<feColorMatrix in="SourceAlpha" type="matrix" values="0 0 0 0 0 0 0 0 0 0 0 0 0 0 0 0 0 0 127 0" result="hardAlpha"/>
<feMorphology radius="4" operator="dilate" in="SourceAlpha" result="effect1_dropShadow_7416_1746"/>
<feOffset/>
<feGaussianBlur stdDeviation="12"/>
<feComposite in2="hardAlpha" operator="out"/>
<feColorMatrix type="matrix" values="0 0 0 0 0.282353 0 0 0 0 0.290196 0 0 0 0 0.619608 0 0 0 0.08 0"/>
<feBlend mode="normal" in2="BackgroundImageFix" result="effect1_dropShadow_7416_1746"/>
<feBlend mode="normal" in="SourceGraphic" in2="effect1_dropShadow_7416_1746" result="shape"/>
</filter>
<filter id="filter3_d_7416_1746" x="189" y="160.073" width="214" height="95.5" filterUnits="userSpaceOnUse" color-interpolation-filters="sRGB">
<feFlood flood-opacity="0" result="BackgroundImageFix"/>
<feColorMatrix in="SourceAlpha" type="matrix" values="0 0 0 0 0 0 0 0 0 0 0 0 0 0 0 0 0 0 127 0" result="hardAlpha"/>
<feMorphology radius="4" operator="dilate" in="SourceAlpha" result="effect1_dropShadow_7416_1746"/>
<feOffset/>
<feGaussianBlur stdDeviation="12"/>
<feComposite in2="hardAlpha" operator="out"/>
<feColorMatrix type="matrix" values="0 0 0 0 0.282353 0 0 0 0 0.290196 0 0 0 0 0.619608 0 0 0 0.08 0"/>
<feBlend mode="normal" in2="BackgroundImageFix" result="effect1_dropShadow_7416_1746"/>
<feBlend mode="normal" in="SourceGraphic" in2="effect1_dropShadow_7416_1746" result="shape"/>
</filter>
<filter id="filter4_d_7416_1746" x="0" y="64" width="214" height="86" filterUnits="userSpaceOnUse" color-interpolation-filters="sRGB">
<feFlood flood-opacity="0" result="BackgroundImageFix"/>
<feColorMatrix in="SourceAlpha" type="matrix" values="0 0 0 0 0 0 0 0 0 0 0 0 0 0 0 0 0 0 127 0" result="hardAlpha"/>
<feMorphology radius="4" operator="dilate" in="SourceAlpha" result="effect1_dropShadow_7416_1746"/>
<feOffset/>
<feGaussianBlur stdDeviation="12"/>
<feComposite in2="hardAlpha" operator="out"/>
<feColorMatrix type="matrix" values="0 0 0 0 0.282353 0 0 0 0 0.290196 0 0 0 0 0.619608 0 0 0 0.08 0"/>
<feBlend mode="normal" in2="BackgroundImageFix" result="effect1_dropShadow_7416_1746"/>
<feBlend mode="normal" in="SourceGraphic" in2="effect1_dropShadow_7416_1746" result="shape"/>
</filter>
<linearGradient id="paint0_linear_7416_1746" x1="63" y1="68" x2="339" y2="68" gradientUnits="userSpaceOnUse">
<stop stop-color="#738EEB"/>
<stop offset="1" stop-color="#987DED"/>
</linearGradient>
<linearGradient id="paint1_linear_7416_1746" x1="265" y1="153.073" x2="304" y2="153.073" gradientUnits="userSpaceOnUse">
<stop stop-color="#778DEC"/>
<stop offset="1" stop-color="#977FEB"/>
</linearGradient>
<linearGradient id="paint2_linear_7416_1746" x1="90" y1="152.073" x2="153" y2="152.073" gradientUnits="userSpaceOnUse">
<stop stop-color="#768DEC"/>
<stop offset="1" stop-color="#9181EC"/>
</linearGradient>
<linearGradient id="paint3_linear_7416_1746" x1="90" y1="160.073" x2="181" y2="160.073" gradientUnits="userSpaceOnUse">
<stop stop-color="#768DEC"/>
<stop offset="1" stop-color="#977FEC"/>
</linearGradient>
<linearGradient id="paint4_linear_7416_1746" x1="226.699" y1="197.903" x2="316.587" y2="220.072" gradientUnits="userSpaceOnUse">
<stop stop-color="#F9F7C6"/>
<stop offset="1" stop-color="#E8FCDB"/>
</linearGradient>
<linearGradient id="paint5_linear_7416_1746" x1="226.202" y1="207.062" x2="278.023" y2="214.137" gradientUnits="userSpaceOnUse">
<stop stop-color="#F9F7C6"/>
<stop offset="1" stop-color="#E8FCDB"/>
</linearGradient>
<linearGradient id="paint6_linear_7416_1746" x1="226.408" y1="216.222" x2="294.532" y2="228.623" gradientUnits="userSpaceOnUse">
<stop stop-color="#F9F7C6"/>
<stop offset="1" stop-color="#E8FCDB"/>
</linearGradient>
<linearGradient id="paint7_linear_7416_1746" x1="350.384" y1="196.66" x2="350.384" y2="219.558" gradientUnits="userSpaceOnUse">
<stop stop-color="#EAEAEA"/>
<stop offset="1" stop-color="#ECECEC"/>
</linearGradient>
<linearGradient id="paint8_linear_7416_1746" x1="342.522" y1="215.246" x2="358.246" y2="215.246" gradientUnits="userSpaceOnUse">
<stop stop-color="#606C88"/>
<stop offset="1" stop-color="#3F4C6B"/>
</linearGradient>
<linearGradient id="paint9_linear_7416_1746" x1="350.662" y1="210.049" x2="350.662" y2="199.662" gradientUnits="userSpaceOnUse">
<stop/>
<stop offset="1"/>
</linearGradient>
<linearGradient id="paint10_linear_7416_1746" x1="66.6988" y1="101.457" x2="156.174" y2="124.395" gradientUnits="userSpaceOnUse">
<stop stop-color="#F9F7C6"/>
<stop offset="1" stop-color="#E8FCDB"/>
</linearGradient>
<linearGradient id="paint11_linear_7416_1746" x1="66.2024" y1="110.268" x2="117.946" y2="117.612" gradientUnits="userSpaceOnUse">
<stop stop-color="#F9F7C6"/>
<stop offset="1" stop-color="#E8FCDB"/>
</linearGradient>
<linearGradient id="paint12_linear_7416_1746" x1="46.3838" y1="95.2607" x2="46.3838" y2="117.29" gradientUnits="userSpaceOnUse">
<stop stop-color="#EAEAEA"/>
<stop offset="1" stop-color="#ECECEC"/>
</linearGradient>
<linearGradient id="paint13_linear_7416_1746" x1="38.522" y1="113.141" x2="54.2456" y2="113.141" gradientUnits="userSpaceOnUse">
<stop stop-color="#606C88"/>
<stop offset="1" stop-color="#3F4C6B"/>
</linearGradient>
<linearGradient id="paint14_linear_7416_1746" x1="46.6616" y1="108.141" x2="46.6616" y2="98.1489" gradientUnits="userSpaceOnUse">
<stop/>
<stop offset="1"/>
</linearGradient>
<clipPath id="clip0_7416_1746">
<rect width="21.6605" height="21.6605" fill="white" transform="translate(281.036 17.2783) rotate(30)"/>
</clipPath>
<clipPath id="clip1_7416_1746">
<path d="M338.935 208.109C338.935 201.786 344.061 196.66 350.384 196.66C356.707 196.66 361.833 201.786 361.833 208.109C361.833 214.432 356.707 219.558 350.384 219.558C344.061 219.558 338.935 214.432 338.935 208.109Z" fill="white"/>
</clipPath>
<clipPath id="clip2_7416_1746">
<path d="M34.9346 106.275C34.9346 100.192 39.8659 95.2607 45.9491 95.2607H46.8186C52.9018 95.2607 57.8331 100.192 57.8331 106.275C57.8331 112.358 52.9018 117.29 46.8186 117.29H45.9491C39.8659 117.29 34.9346 112.358 34.9346 106.275Z" fill="white"/>
</clipPath>
</defs>
</svg>
