<svg width="332" height="241" viewBox="0 0 332 241" fill="none" xmlns="http://www.w3.org/2000/svg">
<g filter="url(#filter0_d_7176_1478)">
<rect x="28" y="28" width="275.662" height="185" rx="10" fill="white"/>
</g>
<g clip-path="url(#clip0_7176_1478)">
<path d="M147 83.5C147 72.7304 155.73 64 166.5 64C177.27 64 186 72.7304 186 83.5C186 94.2696 177.27 103 166.5 103C155.73 103 147 94.2696 147 83.5Z" fill="url(#paint0_linear_7176_1478)"/>
<path d="M170.66 86.88V89.805C170.66 90.3683 162.34 90.1789 162.34 89.3666C162.34 88.6022 162.356 85.1383 162.34 81.5744C160.477 79.1594 160.477 77.65 161.95 76.09C163.423 74.53 173.91 73.75 173.91 73.75C173.91 73.75 174.697 81.3173 174.82 83.37C174.87 84.1955 175.405 86.88 173.325 86.88H170.66Z" fill="url(#paint1_linear_7176_1478)"/>
<g style="mix-blend-mode:multiply">
<path d="M170.657 86.6301C168.964 86.4453 167.327 85.9107 165.851 85.06C165.851 85.06 166.891 87.53 170.657 88.2003V86.6301Z" fill="#FFD7B8"/>
</g>
<path d="M180.15 95.6299C180.975 97.3075 181.625 100.081 182.1 103.95H150.9C151.375 100.08 152.025 97.3071 152.85 95.6299C153.673 93.9581 161.3 90.7407 161.3 90.7407C161.3 90.7407 161.452 89.27 161.82 89.0592C162.189 88.8483 170.742 88.8485 171.18 89.0592C171.619 89.2699 171.7 90.74 171.7 90.74C171.7 90.74 179.33 93.9616 180.15 95.6299Z" fill="url(#paint2_linear_7176_1478)"/>
<path d="M164.033 77.6768C163.619 77.3217 163.117 77.0827 162.407 77.4516C160.724 78.3256 161.841 81.6975 163.725 81.6318C164.375 81.6091 164.077 82.9045 162.34 83.76C162.34 82.395 160.26 79.015 160.078 75.9376C157.985 75.1583 158.505 72.04 159.942 72.04C159.713 69.1811 164.29 67.7046 166.063 69.3451C167.865 67.1846 172.415 68.2896 172.69 70.1639C175.819 68.4938 177.875 73.2946 174.946 75.1583C173.74 75.9253 170.92 76.2171 166.85 76.2171C164.896 76.2171 166.02 80.7892 166.63 82.265C167.41 84.15 171.765 84.41 173.13 84.215C174.196 84.0628 174.755 83.63 174.82 83.37C175.795 85.97 174.56 87.53 172.61 87.53C169.295 87.53 165.98 86.555 165.46 84.15C165.046 82.236 165.069 79.1471 164.033 77.6768Z" fill="url(#paint3_linear_7176_1478)"/>
</g>
<path d="M76 151.5C76 142.387 83.3873 135 92.5 135C101.613 135 109 142.387 109 151.5C109 160.613 101.613 168 92.5 168C83.3873 168 76 160.613 76 151.5Z" fill="url(#paint4_linear_7176_1478)"/>
<path d="M102.62 160.85C103.427 162.39 103.83 168 103.83 168H81.1699C81.1699 168 81.5733 162.39 82.3799 160.85C83.5899 158.54 92.4999 155.57 92.4999 155.57C92.4999 155.57 101.41 158.54 102.62 160.85Z" fill="url(#paint5_linear_7176_1478)"/>
<path d="M92.0596 165.36C92.0596 165.273 92.0854 165.188 92.1337 165.116C92.1821 165.043 92.2508 164.987 92.3312 164.953C92.4116 164.92 92.5001 164.911 92.5854 164.928C92.6708 164.945 92.7492 164.987 92.8107 165.049C92.8722 165.11 92.9141 165.189 92.9311 165.274C92.9481 165.359 92.9394 165.448 92.9061 165.528C92.8728 165.609 92.8164 165.677 92.744 165.726C92.6717 165.774 92.5866 165.8 92.4996 165.8C92.3829 165.8 92.271 165.754 92.1884 165.671C92.1059 165.589 92.0596 165.477 92.0596 165.36ZM92.0596 163.16C92.0596 163.073 92.0854 162.988 92.1337 162.916C92.1821 162.843 92.2508 162.787 92.3312 162.753C92.4116 162.72 92.5001 162.711 92.5854 162.728C92.6708 162.745 92.7492 162.787 92.8107 162.849C92.8722 162.91 92.9141 162.989 92.9311 163.074C92.9481 163.159 92.9394 163.248 92.9061 163.328C92.8728 163.409 92.8164 163.477 92.744 163.526C92.6717 163.574 92.5866 163.6 92.4996 163.6C92.3829 163.6 92.271 163.554 92.1884 163.471C92.1059 163.389 92.0596 163.277 92.0596 163.16ZM92.0596 160.96C92.0596 160.873 92.0854 160.788 92.1337 160.716C92.1821 160.643 92.2508 160.587 92.3312 160.553C92.4116 160.52 92.5001 160.511 92.5854 160.528C92.6708 160.545 92.7492 160.587 92.8107 160.649C92.8722 160.71 92.9141 160.789 92.9311 160.874C92.9481 160.959 92.9394 161.048 92.9061 161.128C92.8728 161.209 92.8164 161.277 92.744 161.326C92.6717 161.374 92.5866 161.4 92.4996 161.4C92.3829 161.4 92.271 161.354 92.1884 161.271C92.1059 161.189 92.0596 161.077 92.0596 160.96Z" fill="white"/>
<path d="M101.902 154.295L84.0317 152.136C83.1507 147.459 84.1957 144.512 87.1668 143.295C88.5402 138.795 93.8859 139.161 95.4011 139.528C100.557 140.776 102.724 145.699 101.902 154.295Z" fill="url(#paint6_linear_7176_1478)"/>
<path d="M89.86 156.89V150.29C87.1077 150.249 87.6445 145.479 90.41 146.935C90.905 147.155 92.17 146.55 91.73 145.065C94.7 147.265 98.8387 143.404 99.1 145.78C99.6143 150.456 98.6192 154.3 95.9806 154.3C95.6995 154.311 95.4179 154.294 95.14 154.25V156.89C94.2787 157.403 93.4174 157.66 92.5561 157.66C91.6948 157.66 90.7961 157.403 89.86 156.89Z" fill="#FFDBC9"/>
<path d="M95.14 154.25V155.13C93.49 155.13 92.2067 154.342 91.29 152.765C92.39 153.498 93.6734 153.993 95.14 154.25Z" fill="#FFBC9E"/>
<path d="M92.4967 157.547C93.2492 157.511 95.1403 157.122 95.1403 156.281V155.57C95.342 155.57 95.9196 156.046 96.2167 156.45C97.3911 158.045 96.0885 159.475 95.0261 159.475C93.6857 159.475 92.7973 158.355 92.5003 157.816C92.2033 158.355 91.3149 159.475 89.9745 159.475C88.9121 159.475 87.6095 158.045 88.7838 156.45C89.0809 156.046 89.6586 155.57 89.8603 155.57V156.281C89.8603 157.122 91.7017 157.511 92.4967 157.547Z" fill="white"/>
<path d="M28 38C28 32.4772 32.4772 28 38 28H293.662C299.185 28 303.662 32.4772 303.662 38V52.5033H28V38Z" fill="url(#paint7_linear_7176_1478)"/>
<g filter="url(#filter1_d_7176_1478)">
<rect x="250" y="33" width="40" height="40" rx="10" fill="#03ABB1"/>
</g>
<g clip-path="url(#clip1_7176_1478)">
<path d="M227 151.5C227 142.387 234.387 135 243.5 135C252.613 135 260 142.387 260 151.5C260 160.613 252.613 168 243.5 168C234.387 168 227 160.613 227 151.5Z" fill="url(#paint8_linear_7176_1478)"/>
<path d="M246.91 154.14V155.46C246.91 157.22 249.44 157.99 249.44 157.99C249.44 157.99 246.525 160.19 243.5 160.19C240.475 160.19 237.56 157.99 237.56 157.99C237.56 157.99 240.109 157.22 240.09 155.46C240.07 153.7 240.083 152.666 240.07 149.651C238.493 147.607 238.594 146.236 239.456 145.271C242.345 142.04 250.21 143.14 250.21 143.14C250.21 143.14 250.943 151.059 249.275 153.37C248.56 154.36 246.91 154.14 246.91 154.14Z" fill="url(#paint9_linear_7176_1478)"/>
<path d="M246.91 154.14C244.49 153.865 243.06 152.82 243.06 152.82C243.962 154.156 245.338 155.099 246.91 155.46V154.14Z" fill="#DB6F3D"/>
<path d="M255.05 161.324C256.097 163.453 256.7 168.364 256.7 168.364H230.3C230.3 168.364 230.903 163.453 231.95 161.324C232.997 159.195 239.111 157.221 239.111 157.221C240.289 159.64 246.757 159.64 247.886 157.22C247.886 157.22 254.003 159.195 255.05 161.324Z" fill="url(#paint10_linear_7176_1478)"/>
<path d="M241.427 146.353C241.077 146.053 240.652 145.85 240.051 146.162C238.626 146.902 239.704 149.74 240.969 149.74C241.299 149.74 241.464 150.776 239.994 151.5C239.994 150.345 238.234 147.485 238.08 144.881C236.309 144.222 236.749 141.583 237.965 141.583C237.771 139.164 241.644 137.915 243.144 139.303C244.669 137.475 248.519 138.41 248.752 139.996C251.399 138.583 253.139 142.645 250.66 144.222C249.64 144.871 247.254 145.118 243.81 145.118C243.29 145.118 242.999 145.247 243.144 145.89C243.426 147.136 242.772 147.921 241.427 146.353Z" fill="url(#paint11_linear_7176_1478)"/>
</g>
<path d="M276.25 53.9588V52.6667C276.249 52.1143 276.03 51.5847 275.639 51.1941C275.249 50.8035 274.719 50.5839 274.167 50.5834H270.417V48.0412C271.147 47.9359 271.809 47.558 272.272 46.9837C272.734 46.4093 272.962 45.6811 272.909 44.9456C272.856 44.2101 272.527 43.5219 271.987 43.0195C271.447 42.5171 270.737 42.2378 270 42.2378C269.263 42.2378 268.553 42.5171 268.013 43.0195C267.473 43.5219 267.144 44.2101 267.091 44.9456C267.038 45.6811 267.266 46.4093 267.728 46.9837C268.191 47.558 268.854 47.9359 269.583 48.0412V50.5834H265.833C265.281 50.5839 264.751 50.8036 264.361 51.1942C263.97 51.5848 263.751 52.1143 263.75 52.6667V53.9588C263.02 54.0641 262.357 54.442 261.895 55.0164C261.432 55.5907 261.205 56.3189 261.257 57.0544C261.31 57.7899 261.64 58.4781 262.179 58.9805C262.719 59.4829 263.429 59.7622 264.167 59.7622C264.904 59.7622 265.614 59.4829 266.154 58.9805C266.694 58.4781 267.023 57.7899 267.076 57.0544C267.129 56.3189 266.901 55.5907 266.438 55.0164C265.976 54.442 265.313 54.0641 264.583 53.9588V52.6667C264.584 52.3353 264.716 52.0175 264.95 51.7832C265.184 51.5489 265.502 51.4171 265.833 51.4167H274.167C274.498 51.4171 274.816 51.5489 275.05 51.7832C275.284 52.0175 275.416 52.3353 275.417 52.6667V53.9588C274.687 54.0641 274.024 54.442 273.562 55.0164C273.099 55.5907 272.871 56.3189 272.924 57.0544C272.977 57.7899 273.306 58.4781 273.846 58.9805C274.386 59.4829 275.096 59.7622 275.833 59.7622C276.571 59.7622 277.281 59.4829 277.821 58.9805C278.36 58.4781 278.69 57.7899 278.743 57.0544C278.795 56.3189 278.568 55.5907 278.105 55.0164C277.643 54.442 276.98 54.0641 276.25 53.9588Z" fill="white"/>
<rect x="147" y="108" width="39" height="4" rx="2" fill="url(#paint12_linear_7176_1478)"/>
<rect x="79" y="176" width="28" height="4" rx="2" fill="url(#paint13_linear_7176_1478)"/>
<rect x="230" y="176" width="30" height="4" rx="2" fill="url(#paint14_linear_7176_1478)"/>
<path d="M143.5 96L108.5 131M191.5 96L227.5 131" stroke="url(#paint15_linear_7176_1478)" stroke-opacity="0.25" stroke-width="1.5" stroke-linecap="round" stroke-dasharray="3 3"/>
<defs>
<filter id="filter0_d_7176_1478" x="0" y="0" width="331.662" height="241" filterUnits="userSpaceOnUse" color-interpolation-filters="sRGB">
<feFlood flood-opacity="0" result="BackgroundImageFix"/>
<feColorMatrix in="SourceAlpha" type="matrix" values="0 0 0 0 0 0 0 0 0 0 0 0 0 0 0 0 0 0 127 0" result="hardAlpha"/>
<feMorphology radius="4" operator="dilate" in="SourceAlpha" result="effect1_dropShadow_7176_1478"/>
<feOffset/>
<feGaussianBlur stdDeviation="12"/>
<feComposite in2="hardAlpha" operator="out"/>
<feColorMatrix type="matrix" values="0 0 0 0 0.282353 0 0 0 0 0.290196 0 0 0 0 0.619608 0 0 0 0.06 0"/>
<feBlend mode="normal" in2="BackgroundImageFix" result="effect1_dropShadow_7176_1478"/>
<feBlend mode="normal" in="SourceGraphic" in2="effect1_dropShadow_7176_1478" result="shape"/>
</filter>
<filter id="filter1_d_7176_1478" x="222" y="17" width="96" height="96" filterUnits="userSpaceOnUse" color-interpolation-filters="sRGB">
<feFlood flood-opacity="0" result="BackgroundImageFix"/>
<feColorMatrix in="SourceAlpha" type="matrix" values="0 0 0 0 0 0 0 0 0 0 0 0 0 0 0 0 0 0 127 0" result="hardAlpha"/>
<feMorphology radius="4" operator="dilate" in="SourceAlpha" result="effect1_dropShadow_7176_1478"/>
<feOffset dy="12"/>
<feGaussianBlur stdDeviation="12"/>
<feComposite in2="hardAlpha" operator="out"/>
<feColorMatrix type="matrix" values="0 0 0 0 0.137255 0 0 0 0 0.584314 0 0 0 0 0.698039 0 0 0 0.15 0"/>
<feBlend mode="normal" in2="BackgroundImageFix" result="effect1_dropShadow_7176_1478"/>
<feBlend mode="normal" in="SourceGraphic" in2="effect1_dropShadow_7176_1478" result="shape"/>
</filter>
<linearGradient id="paint0_linear_7176_1478" x1="166.5" y1="64" x2="166.5" y2="103" gradientUnits="userSpaceOnUse">
<stop stop-color="#EAEAEA"/>
<stop offset="1" stop-color="#ECECEC"/>
</linearGradient>
<linearGradient id="paint1_linear_7176_1478" x1="167.904" y1="73.75" x2="167.904" y2="90.1283" gradientUnits="userSpaceOnUse">
<stop stop-color="#FFD4B3"/>
<stop offset="1" stop-color="#FFDCC2"/>
</linearGradient>
<linearGradient id="paint2_linear_7176_1478" x1="150.9" y1="96.4255" x2="182.1" y2="96.4255" gradientUnits="userSpaceOnUse">
<stop stop-color="#606C88"/>
<stop offset="1" stop-color="#3F4C6B"/>
</linearGradient>
<linearGradient id="paint3_linear_7176_1478" x1="167.521" y1="87.53" x2="167.521" y2="68.1593" gradientUnits="userSpaceOnUse">
<stop/>
<stop offset="1"/>
</linearGradient>
<linearGradient id="paint4_linear_7176_1478" x1="92.5" y1="135" x2="92.5" y2="168" gradientUnits="userSpaceOnUse">
<stop stop-color="#EAEAEA"/>
<stop offset="1" stop-color="#ECECEC"/>
</linearGradient>
<linearGradient id="paint5_linear_7176_1478" x1="81.1699" y1="161.785" x2="103.83" y2="161.785" gradientUnits="userSpaceOnUse">
<stop stop-color="#606C88"/>
<stop offset="1" stop-color="#3F4C6B"/>
</linearGradient>
<linearGradient id="paint6_linear_7176_1478" x1="92.9006" y1="154.295" x2="92.9006" y2="139.327" gradientUnits="userSpaceOnUse">
<stop/>
<stop offset="1"/>
</linearGradient>
<linearGradient id="paint7_linear_7176_1478" x1="28" y1="40.2517" x2="303.662" y2="40.2517" gradientUnits="userSpaceOnUse">
<stop stop-color="#02AAB0"/>
<stop offset="1" stop-color="#00CDAC"/>
</linearGradient>
<linearGradient id="paint8_linear_7176_1478" x1="243.5" y1="135" x2="243.5" y2="168" gradientUnits="userSpaceOnUse">
<stop stop-color="#EAEAEA"/>
<stop offset="1" stop-color="#ECECEC"/>
</linearGradient>
<linearGradient id="paint9_linear_7176_1478" x1="243.965" y1="142.96" x2="243.965" y2="160.19" gradientUnits="userSpaceOnUse">
<stop stop-color="#FFD4B3"/>
<stop offset="1" stop-color="#FFDCC2"/>
</linearGradient>
<linearGradient id="paint10_linear_7176_1478" x1="230.3" y1="162.792" x2="256.7" y2="162.792" gradientUnits="userSpaceOnUse">
<stop stop-color="#606C88"/>
<stop offset="1" stop-color="#3F4C6B"/>
</linearGradient>
<linearGradient id="paint11_linear_7176_1478" x1="244.378" y1="151.5" x2="244.378" y2="138.3" gradientUnits="userSpaceOnUse">
<stop/>
<stop offset="1"/>
</linearGradient>
<linearGradient id="paint12_linear_7176_1478" x1="147" y1="110" x2="186" y2="110" gradientUnits="userSpaceOnUse">
<stop stop-color="#02AAB0"/>
<stop offset="1" stop-color="#00CDAC"/>
</linearGradient>
<linearGradient id="paint13_linear_7176_1478" x1="79" y1="178" x2="107" y2="178" gradientUnits="userSpaceOnUse">
<stop stop-color="#02AAB0"/>
<stop offset="1" stop-color="#00CDAC"/>
</linearGradient>
<linearGradient id="paint14_linear_7176_1478" x1="230" y1="178" x2="260" y2="178" gradientUnits="userSpaceOnUse">
<stop stop-color="#02AAB0"/>
<stop offset="1" stop-color="#00CDAC"/>
</linearGradient>
<linearGradient id="paint15_linear_7176_1478" x1="168" y1="96" x2="168" y2="131" gradientUnits="userSpaceOnUse">
<stop stop-color="#03ABB0"/>
<stop offset="1" stop-color="#02CDAD"/>
</linearGradient>
<clipPath id="clip0_7176_1478">
<path d="M147 83.5C147 72.7304 155.73 64 166.5 64C177.27 64 186 72.7304 186 83.5C186 94.2696 177.27 103 166.5 103C155.73 103 147 94.2696 147 83.5Z" fill="white"/>
</clipPath>
<clipPath id="clip1_7176_1478">
<path d="M227 151.5C227 142.387 234.387 135 243.5 135C252.613 135 260 142.387 260 151.5C260 160.613 252.613 168 243.5 168C234.387 168 227 160.613 227 151.5Z" fill="white"/>
</clipPath>
</defs>
</svg>
