<svg width="14" height="14" viewBox="0 0 14 14" fill="none" xmlns="http://www.w3.org/2000/svg">
<path d="M7 14C8.85652 14 10.637 13.2625 11.9497 11.9497C13.2625 10.637 14 8.85652 14 7C14 5.14348 13.2625 3.36301 11.9497 2.05025C10.637 0.737498 8.85652 0 7 0C5.14348 0 3.36301 0.737498 2.05025 2.05025C0.737498 3.36301 0 5.14348 0 7C0 8.85652 0.737498 10.637 2.05025 11.9497C3.36301 13.2625 5.14348 14 7 14V14ZM7 0.875C7.57488 0.875 8.23113 1.39125 8.76925 2.5445C8.95913 2.95225 9.1245 3.42125 9.25838 3.9375H4.74163C4.8755 3.42125 5.04088 2.95225 5.23163 2.5445C5.768 1.39125 6.42425 0.875 7 0.875ZM4.438 2.17438C4.17962 2.74034 3.97938 3.33108 3.84037 3.9375H1.694C2.43271 2.66076 3.60607 1.69238 4.99975 1.20925C4.78888 1.498 4.60075 1.82525 4.438 2.17438ZM3.668 4.8125C3.55476 5.53614 3.49858 6.26756 3.5 7C3.5 7.76125 3.55862 8.498 3.66887 9.1875H1.2775C1.01065 8.48909 0.874222 7.74765 0.875 7C0.875 6.23 1.01763 5.4915 1.2775 4.8125H3.66887H3.668ZM3.84037 10.0625C3.99437 10.7126 4.1965 11.3068 4.438 11.8256C4.60075 12.1748 4.78888 12.502 4.99975 12.7908C3.60607 12.3076 2.43271 11.3392 1.694 10.0625H3.84125H3.84037ZM4.74163 10.0625H9.25838C9.13784 10.5408 8.97382 11.0071 8.76837 11.4555C8.232 12.6087 7.57575 13.125 7 13.125C6.42512 13.125 5.76888 12.6087 5.23075 11.4555C5.02593 11.007 4.8625 10.5407 4.7425 10.0625H4.74163ZM9.44475 9.1875H4.55525C4.43366 8.46471 4.37336 7.73294 4.375 7C4.375 6.22737 4.43887 5.49062 4.55525 4.8125H9.44475C9.56112 5.49062 9.625 6.22737 9.625 7C9.625 7.77263 9.56112 8.50938 9.44475 9.1875ZM10.1596 10.0625H12.306C11.5673 11.3392 10.3939 12.3076 9.00025 12.7908C9.21113 12.502 9.39925 12.1748 9.562 11.8256C9.8035 11.3068 10.0056 10.7126 10.1596 10.0625V10.0625ZM12.7234 9.1875H10.3311C10.4414 8.498 10.5 7.76125 10.5 7C10.5 6.23875 10.4414 5.502 10.3311 4.8125H12.7225C12.9824 5.4915 13.125 6.23 13.125 7C13.125 7.77 12.9824 8.5085 12.7225 9.1875H12.7234ZM9.00025 1.20925C10.394 1.69231 11.5673 2.66071 12.306 3.9375H10.1587C10.0197 3.33108 9.81949 2.74034 9.56113 2.17438C9.40532 1.83536 9.2172 1.51216 8.99937 1.20925H9.00025Z" fill="black"/>
</svg>
