<svg width="16" height="14" viewBox="0 0 16 14" fill="none" xmlns="http://www.w3.org/2000/svg">
<path d="M1.75996 0.76001C1.31676 0.76001 0.959961 1.11681 0.959961 1.56001V3.64001H13.76V1.56001C13.76 1.11681 13.4032 0.76001 12.96 0.76001H1.75996ZM2.55996 1.72001C2.82505 1.72001 3.03996 1.93491 3.03996 2.20001C3.03996 2.46511 2.82505 2.68001 2.55996 2.68001C2.29487 2.68001 2.07996 2.46511 2.07996 2.20001C2.07996 1.93491 2.29487 1.72001 2.55996 1.72001ZM4.63996 1.72001C4.90505 1.72001 5.11996 1.93491 5.11996 2.20001C5.11996 2.46511 4.90505 2.68001 4.63996 2.68001C4.37487 2.68001 4.15996 2.46511 4.15996 2.20001C4.15996 1.93491 4.37487 1.72001 4.63996 1.72001ZM6.71996 1.72001C6.98505 1.72001 7.19996 1.93491 7.19996 2.20001C7.19996 2.46511 6.98505 2.68001 6.71996 2.68001C6.45487 2.68001 6.23996 2.46511 6.23996 2.20001C6.23996 1.93491 6.45487 1.72001 6.71996 1.72001ZM0.959961 4.28001V11.16C0.959961 11.6032 1.31676 11.96 1.75996 11.96H10.425C10.3043 11.6634 10.24 11.3391 10.24 11C10.24 9.58995 11.3899 8.44001 12.8 8.44001C13.1391 8.44001 13.4633 8.50438 13.76 8.625V4.28001H0.959961ZM12.8 8.76001C11.5628 8.76001 10.56 9.76289 10.56 11C10.56 12.2371 11.5628 13.24 12.8 13.24C14.0371 13.24 15.04 12.2371 15.04 11C15.04 9.76289 14.0371 8.76001 12.8 8.76001ZM13.895 10.04C13.9809 10.0341 14.0697 10.0647 14.14 10.13C14.2759 10.259 14.2566 10.44 14.17 10.56L12.89 12.16C12.7888 12.2857 12.5888 12.318 12.455 12.22L11.335 11.42C11.1844 11.3293 11.1581 11.1132 11.26 10.97C11.3618 10.8268 11.5743 10.7972 11.705 10.9L12.58 11.525L13.67 10.16C13.7258 10.0885 13.809 10.046 13.895 10.04Z" fill="white"/>
</svg>
