<svg width="18" height="18" viewBox="0 0 18 18" fill="none" xmlns="http://www.w3.org/2000/svg">
<path d="M13.7994 3.3001V3.0001C13.7994 2.5051 13.3944 2.1001 12.8994 2.1001H3.29941C2.80441 2.1001 2.39941 2.5051 2.39941 3.0001V10.8001C2.39941 11.2951 2.80441 11.7001 3.29941 11.7001H3.59941V4.8001C3.59941 3.9721 4.27141 3.3001 5.09942 3.3001H13.7994Z" fill="white"/>
<path d="M14.6992 3.90015H5.09922C4.60422 3.90015 4.19922 4.30515 4.19922 4.80015V12.6001C4.19922 13.0951 4.60422 13.5001 5.09922 13.5001H9.78522L12.4012 15.8251C12.4552 15.8731 12.5272 15.9001 12.5992 15.9001C12.6412 15.9001 12.6832 15.8911 12.7222 15.8731C12.8302 15.8251 12.8992 15.7171 12.8992 15.6001V13.5001H14.6992C15.1942 13.5001 15.5992 13.0951 15.5992 12.6001V4.80015C15.5992 4.30515 15.1942 3.90015 14.6992 3.90015ZM7.75422 8.56815L7.49322 8.99415L7.45422 9.49215C7.44822 9.58215 7.40322 9.66015 7.33122 9.71415C7.28022 9.75015 7.21722 9.77115 7.15422 9.77115C7.13322 9.77115 7.10922 9.76815 7.08522 9.76215L6.59922 9.64515L6.11322 9.76215C6.02922 9.78315 5.93922 9.76515 5.86722 9.71415C5.79522 9.66015 5.75022 9.58215 5.74422 9.49215L5.70522 8.99415L5.44422 8.56815C5.39622 8.49315 5.38722 8.40315 5.41422 8.31915C5.44122 8.23515 5.50422 8.16915 5.58522 8.13615L6.04722 7.94415L6.37122 7.56315C6.48522 7.43115 6.71322 7.43115 6.82722 7.56315L7.15122 7.94415L7.61322 8.13615C7.69422 8.16915 7.75722 8.23515 7.78422 8.31915C7.81122 8.40315 7.80222 8.49315 7.75422 8.56815ZM11.0542 8.56815L10.7932 8.99415L10.7542 9.49215C10.7482 9.58215 10.7032 9.66015 10.6312 9.71415C10.5802 9.75015 10.5172 9.77115 10.4542 9.77115C10.4332 9.77115 10.4092 9.76815 10.3852 9.76215L9.89922 9.64515L9.41322 9.76215C9.32922 9.78315 9.23922 9.76515 9.16722 9.71415C9.09522 9.66015 9.05022 9.58215 9.04422 9.49215L9.00522 8.99415L8.74422 8.56815C8.69622 8.49315 8.68722 8.40315 8.71422 8.31915C8.74122 8.23515 8.80422 8.16915 8.88522 8.13615L9.34722 7.94415L9.67122 7.56315C9.78522 7.43115 10.0132 7.43115 10.1272 7.56315L10.4512 7.94415L10.9132 8.13615C10.9942 8.16915 11.0572 8.23515 11.0842 8.31915C11.1112 8.40315 11.1022 8.49315 11.0542 8.56815ZM14.3542 8.56815L14.0932 8.99415L14.0542 9.49215C14.0482 9.58215 14.0032 9.66015 13.9312 9.71415C13.8802 9.75015 13.8172 9.77115 13.7542 9.77115C13.7332 9.77115 13.7092 9.76815 13.6852 9.76215L13.1992 9.64515L12.7132 9.76215C12.6292 9.78315 12.5392 9.76515 12.4672 9.71415C12.3952 9.66015 12.3502 9.58215 12.3442 9.49215L12.3052 8.99415L12.0442 8.56815C11.9962 8.49315 11.9872 8.40315 12.0142 8.31915C12.0412 8.23515 12.1042 8.16915 12.1852 8.13615L12.6472 7.94415L12.9712 7.56315C13.0852 7.43115 13.3132 7.43115 13.4272 7.56315L13.7512 7.94415L14.2132 8.13615C14.2942 8.16915 14.3572 8.23515 14.3842 8.31915C14.4112 8.40315 14.4022 8.49315 14.3542 8.56815Z" fill="white"/>
</svg>
