<svg width="41" height="41" viewBox="0 0 41 41" fill="none" xmlns="http://www.w3.org/2000/svg">
<g clip-path="url(#clip0_4668_1950)">
<path d="M35.5881 41H5.4121C4.6875 41 4.1001 40.4126 4.1001 39.688V1.312C4.1001 0.587402 4.6875 0 5.4121 0H27.8391V7.47348C27.8391 8.35024 28.5499 9.061 29.4266 9.061H36.9001V39.688C36.9001 40.4126 36.3127 41 35.5881 41ZM10.0116 26.568H11.6785V24.295H12.9449C14.6443 24.295 16.0081 23.3857 16.0081 21.6323V21.6106C16.0081 20.0628 14.9149 18.9912 13.1073 18.9912H10.0116V26.568ZM11.6785 22.8121V20.4957H12.9666C13.8 20.4957 14.3196 20.8962 14.3196 21.6431V21.6647C14.3196 22.3142 13.8325 22.8121 12.9991 22.8121H11.6785ZM17.2421 26.568H20.197C22.5783 26.568 24.2236 24.9119 24.2236 22.7796V22.758C24.2236 20.6256 22.5783 18.9912 20.197 18.9912H17.2421V26.568ZM20.197 20.4957C21.5608 20.4957 22.4809 21.4374 22.4809 22.7796V22.8012C22.4809 24.1434 21.5608 25.0635 20.197 25.0635H18.909V20.4957H20.197ZM25.7064 26.568H27.3733V23.6347H30.9886V22.1193H27.3733V20.5066H31.4756V18.9912H25.7064V26.568ZM28.7001 6.888V0L36.9001 8.2H30.0121C29.2875 8.2 28.7001 7.6126 28.7001 6.888Z" fill="#484A9E"/>
</g>
<defs>
<clipPath id="clip0_4668_1950">
<rect width="41" height="41" fill="white"/>
</clipPath>
</defs>
</svg>
