<svg width="18" height="18" viewBox="0 0 18 18" fill="none" xmlns="http://www.w3.org/2000/svg">
<g clip-path="url(#clip0_4668_1657)">
<path d="M3.67241 11.0518C4.83552 11.0518 5.77841 10.109 5.77841 8.94584C5.77841 7.78273 4.83552 6.83984 3.67241 6.83984C2.50929 6.83984 1.56641 7.78273 1.56641 8.94584C1.56641 10.109 2.50929 11.0518 3.67241 11.0518Z" fill="#272727"/>
<path d="M4.46432 11.6099H2.89832C1.76432 11.6099 0.810321 12.4559 0.684321 13.5899L0.450321 15.4079C0.414321 15.6419 0.576321 15.8579 0.810321 15.9119C1.71032 16.1099 2.68232 16.1999 3.67232 16.1999C4.08632 16.1999 4.48232 16.1819 4.86032 16.1459L5.05832 14.5259C5.16632 13.6799 5.58032 12.9599 6.19232 12.4559C5.79632 11.9339 5.14832 11.6099 4.46432 11.6099Z" fill="#272727"/>
<path d="M14.3287 11.0518C15.4918 11.0518 16.4347 10.109 16.4347 8.94584C16.4347 7.78273 15.4918 6.83984 14.3287 6.83984C13.1655 6.83984 12.2227 7.78273 12.2227 8.94584C12.2227 10.109 13.1655 11.0518 14.3287 11.0518Z" fill="#272727"/>
<path d="M17.3346 13.5899C17.2086 12.4559 16.2366 11.6099 15.1206 11.6099H13.5546C12.8526 11.6099 12.2226 11.9339 11.8086 12.4559C12.4206 12.9599 12.8526 13.6799 12.9426 14.5259L13.1406 16.1459C13.5186 16.1819 13.9326 16.1999 14.3286 16.1999C15.3366 16.1999 16.2906 16.0919 17.1906 15.9119C17.4246 15.8579 17.5686 15.6419 17.5506 15.4079L17.3346 13.5899Z" fill="#272727"/>
<path d="M9.77445 12.6719H8.20845C7.07445 12.6719 6.12045 13.5179 5.99445 14.6339L5.77845 16.4519C5.74245 16.6859 5.90445 16.9199 6.13845 16.9559C7.03845 17.1539 8.01045 17.2439 9.00045 17.2439C10.0084 17.2439 10.9624 17.1359 11.8624 16.9559C12.0964 16.9019 12.2404 16.6859 12.2224 16.4519L12.0064 14.6339C11.8624 13.5179 10.9084 12.6719 9.77445 12.6719Z" fill="#272727"/>
<path d="M9.00053 12.1141C10.1636 12.1141 11.1065 11.1712 11.1065 10.0081C11.1065 8.84499 10.1636 7.9021 9.00053 7.9021C7.83742 7.9021 6.89453 8.84499 6.89453 10.0081C6.89453 11.1712 7.83742 12.1141 9.00053 12.1141Z" fill="#272727"/>
<path d="M7.03827 4.48193C7.16427 4.58993 7.21827 4.76993 7.18227 4.93193L6.84027 6.33593C6.75027 6.73193 7.18227 7.03793 7.52427 6.82193L8.76627 6.06593C8.91027 5.97593 9.09027 5.97593 9.23427 6.06593L10.4763 6.82193C10.8183 7.03793 11.2503 6.71393 11.1603 6.33593L10.8183 4.93193C10.7823 4.76993 10.8363 4.58993 10.9623 4.48193L12.0603 3.54593C12.3663 3.27593 12.2043 2.77193 11.8083 2.75393L10.3683 2.62793C10.2063 2.60993 10.0443 2.50193 9.99027 2.35793L9.43227 1.02593C9.27027 0.647932 8.74827 0.647932 8.58627 1.02593L8.02827 2.33993C7.95627 2.50193 7.81227 2.60993 7.65027 2.60993L6.21027 2.73593C5.81427 2.77193 5.65227 3.27593 5.95827 3.52793L7.03827 4.48193Z" fill="#272727"/>
</g>
<defs>
<clipPath id="clip0_4668_1657">
<rect width="18" height="18" fill="white"/>
</clipPath>
</defs>
</svg>
