<svg width="16" height="10" viewBox="0 0 16 10" fill="none" xmlns="http://www.w3.org/2000/svg">
<path d="M9.03844 0.22998C10.1965 0.22998 10.8397 0.886855 10.8627 2.02825L10.8634 2.09216V7.91367C10.8634 9.06757 10.1841 9.74549 9.04249 9.76933L8.97976 9.76998H2.68342C1.52502 9.76998 0.825105 9.11267 0.800477 7.97614L0.799805 7.91367V2.09216C0.799805 0.932494 1.52998 0.254477 2.62342 0.230631L2.68342 0.22998H9.03844ZM14.4428 1.12876C14.8858 1.12876 15.1803 1.44235 15.1989 1.89915L15.1998 1.9453V8.05466C15.1998 8.53636 14.9005 8.8712 14.4428 8.8712C14.2467 8.8712 14.0303 8.77496 13.8406 8.62011L13.7974 8.58335L11.6614 6.73292V3.26116L13.7974 1.41661C13.9969 1.24037 14.2316 1.12876 14.4428 1.12876Z" fill="white"/>
</svg>
