<svg width="30" height="30" viewBox="0 0 30 30" fill="none" xmlns="http://www.w3.org/2000/svg">
<path d="M2.86328 9.72448V21.887C2.86328 24.262 4.55078 25.237 6.60078 24.062L9.53828 22.387C10.1758 22.0245 11.2383 21.987 11.9008 22.3245L18.4633 25.612C19.1258 25.937 20.1883 25.912 20.8258 25.5495L26.2383 22.4495C26.9258 22.0495 27.5008 21.0745 27.5008 20.2745V8.11198C27.5008 5.73698 25.8133 4.76198 23.7633 5.93698L20.8258 7.61198C20.1883 7.97448 19.1258 8.01198 18.4633 7.67448L11.9008 4.39948C11.2383 4.07448 10.1758 4.09948 9.53828 4.46198L4.12578 7.56198C3.42578 7.96198 2.86328 8.93698 2.86328 9.72448Z" fill="#41B5A6" fill-opacity="0.1" stroke="#41B5A6" stroke-width="1.5" stroke-linecap="round" stroke-linejoin="round"/>
<path d="M10.6992 5V21.25" stroke="#41B5A6" stroke-width="1.5" stroke-linecap="round" stroke-linejoin="round"/>
<path d="M19.6621 8.27539V25.0004" stroke="#41B5A6" stroke-width="1.5" stroke-linecap="round" stroke-linejoin="round"/>
</svg>
