<svg width="31" height="48" viewBox="0 0 31 48" fill="none" xmlns="http://www.w3.org/2000/svg">
<path d="M28.9279 48C28.4944 48 27.8305 47.8558 27.1284 47.1724L15.761 36.0877C15.584 35.9143 15.419 35.9143 15.242 36.0877L3.87261 47.1724C3.17152 47.8569 2.50764 48 2.07411 48C1.38207 48 0.749375 47.6391 0.377202 47.0343C0.127746 46.626 0 46.121 0 45.5333V3.34577C0 1.50101 1.49775 0 3.33849 0H27.6615C29.5023 0 31 1.50101 31 3.34577V45.5333C31.001 47.2288 29.9257 48 28.9279 48Z" fill="black" fill-opacity="0.3"/>
<path d="M28.9279 48C28.4944 48 27.8305 47.8558 27.1284 47.1724L15.761 36.0877C15.584 35.9143 15.419 35.9143 15.242 36.0877L3.87261 47.1724C3.17152 47.8569 2.50764 48 2.07411 48C1.38207 48 0.749375 47.6391 0.377202 47.0343C0.127746 46.626 0 46.121 0 45.5333V3.34577C0 1.50101 1.49775 0 3.33849 0H27.6615C29.5023 0 31 1.50101 31 3.34577V45.5333C31.001 47.2288 29.9257 48 28.9279 48Z" fill="black" fill-opacity="0.3"/>
<path d="M28.9279 48C28.4944 48 27.8305 47.8558 27.1284 47.1724L15.761 36.0877C15.584 35.9143 15.419 35.9143 15.242 36.0877L3.87261 47.1724C3.17152 47.8569 2.50764 48 2.07411 48C1.38207 48 0.749375 47.6391 0.377202 47.0343C0.127746 46.626 0 46.121 0 45.5333V3.34577C0 1.50101 1.49775 0 3.33849 0H27.6615C29.5023 0 31 1.50101 31 3.34577V45.5333C31.001 47.2288 29.9257 48 28.9279 48ZM15.5015 32.9637C16.3937 32.9637 17.2326 33.3034 17.8653 33.9194L27.9794 43.7812L27.9844 3.34577C27.9844 3.17137 27.8375 3.02419 27.6635 3.02419H3.3395C3.16548 3.02419 3.01862 3.17137 3.01862 3.34577V43.7802L13.1377 33.9194C13.7684 33.3034 14.6083 32.9637 15.5015 32.9637Z" fill="white"/>
</svg>
