<svg width="17" height="23" viewBox="0 0 17 23" fill="none" xmlns="http://www.w3.org/2000/svg">
<path d="M14.3735 0H2.55C1.8737 0 1.2251 0.259677 0.746878 0.721906C0.26866 1.18413 0 1.81105 0 2.46474V22.1827C0.000410304 22.3313 0.0425254 22.477 0.121859 22.6043C0.201193 22.7317 0.314773 22.8358 0.4505 22.9056C0.583417 22.9716 0.731974 23.0025 0.881202 22.9953C1.03043 22.9881 1.17505 22.943 1.3005 22.8646L8.5 18.2391L15.6825 22.8646C15.8103 22.9459 15.9585 22.9924 16.1115 22.9992C16.2644 23.0059 16.4163 22.9725 16.5513 22.9027C16.6862 22.8329 16.7991 22.7291 16.8781 22.6023C16.9571 22.4756 16.9992 22.3306 17 22.1827V2.53868C17 1.86538 16.7233 1.21966 16.2307 0.743563C15.7382 0.267467 15.0701 0 14.3735 0V0ZM15.3 20.6463L8.9675 16.5384C8.82871 16.4501 8.66618 16.403 8.5 16.403C8.33382 16.403 8.17129 16.4501 8.0325 16.5384L1.7 20.6463V2.46474C1.7 2.24684 1.78955 2.03787 1.94896 1.8838C2.10837 1.72972 2.32457 1.64316 2.55 1.64316H14.365C14.4874 1.64207 14.6088 1.66444 14.7222 1.70895C14.8356 1.75347 14.9387 1.81926 15.0256 1.90253C15.1126 1.98579 15.1816 2.08488 15.2287 2.19407C15.2758 2.30326 15.3 2.42039 15.3 2.53868V20.6463Z" fill="black"/>
</svg>
