<svg width="17" height="23" viewBox="0 0 17 23" fill="none" xmlns="http://www.w3.org/2000/svg">
<path fill-rule="evenodd" clip-rule="evenodd" d="M2.55078 0H14.373C15.0703 0 15.7383 0.267578 16.2305 0.744141C16.4805 0.986328 16.6758 1.27148 16.8066 1.58203C16.9336 1.88281 17 2.20703 17 2.53906V22.1836C17 22.3301 16.957 22.4766 16.8789 22.6016C16.8398 22.6641 16.793 22.7207 16.7402 22.7695C16.6836 22.8223 16.6191 22.8672 16.5508 22.9023C16.416 22.9727 16.2637 23.0059 16.1113 23C15.959 22.9922 15.8105 22.9453 15.6816 22.8652L8.5 18.2383L1.30078 22.8652C1.25 22.8965 1.19531 22.9219 1.14062 22.9434C1.05859 22.9727 0.970703 22.9922 0.880859 22.9961C0.732422 23.002 0.583984 22.9707 0.451172 22.9062C0.392578 22.877 0.337891 22.8398 0.289062 22.7988C0.222656 22.7422 0.166016 22.6777 0.121094 22.6035C0.0429688 22.4766 0 22.332 0 22.1836V2.46484C0 1.81055 0.269531 1.18359 0.746094 0.722656C1.0332 0.443359 1.38281 0.238281 1.76367 0.119141C2.01562 0.0410156 2.28125 0 2.55078 0Z" fill="#484A9E"/>
</svg>
