<svg width="68" height="58" viewBox="0 0 68 58" fill="none" xmlns="http://www.w3.org/2000/svg">
<path d="M50.4272 51.7714H17.1039C15.0616 51.7692 13.1036 50.9595 11.6594 49.5201C10.2152 48.0806 9.40279 46.1289 9.40039 44.0931V26.5323C9.40039 26.2556 9.51063 25.9903 9.70687 25.7947C9.9031 25.5991 10.1693 25.4892 10.4468 25.4892C10.7243 25.4892 10.9905 25.5991 11.1867 25.7947C11.3829 25.9903 11.4932 26.2556 11.4932 26.5323V44.0931C11.495 45.5758 12.0867 46.9972 13.1386 48.0456C14.1904 49.0939 15.6165 49.6836 17.1039 49.6853H50.4272C51.9145 49.6834 53.3404 49.0937 54.3921 48.0453C55.4438 46.997 56.0354 45.5757 56.0373 44.0931V16.0413C56.0356 14.5586 55.4441 13.1371 54.3923 12.0886C53.3406 11.0401 51.9147 10.4503 50.4272 10.4484H26.5416C26.2641 10.4484 25.998 10.3385 25.8017 10.1429C25.6055 9.9473 25.4953 9.68199 25.4953 9.40536C25.4953 9.12872 25.6055 8.86342 25.8017 8.66781C25.998 8.4722 26.2641 8.3623 26.5416 8.3623H50.4272C52.4695 8.3647 54.4275 9.17452 55.8715 10.6141C57.3156 12.0537 58.1278 14.0055 58.1301 16.0413V44.0931C58.1278 46.1288 57.3156 48.0806 55.8715 49.52C54.4274 50.9595 52.4695 51.7692 50.4272 51.7714Z" fill="#242424"/>
<path d="M55.7872 44.5399C55.6498 44.54 55.5137 44.513 55.3868 44.4605C55.2599 44.408 55.1447 44.331 55.0477 44.2339L47.1803 36.3922C46.7638 35.9962 46.2103 35.7753 45.6348 35.7753C45.0592 35.7753 44.5057 35.9962 44.0892 36.3922L39.1252 41.3398C38.9289 41.5353 38.6628 41.6452 38.3854 41.6452C38.1079 41.6452 37.8418 41.5353 37.6456 41.3398L25.4328 29.1653C25.0224 28.7574 24.4665 28.5284 23.8869 28.5284C23.3074 28.5284 22.7515 28.7574 22.3411 29.1653L12.4813 38.9943C12.2851 39.1898 12.019 39.2997 11.7415 39.2997C11.464 39.2997 11.1979 39.1898 11.0017 38.9943C10.8055 38.7987 10.6953 38.5334 10.6953 38.2569C10.6953 37.9803 10.8055 37.715 11.0017 37.5194L20.8615 27.6904C21.6646 26.8918 22.7526 26.4434 23.8869 26.4434C25.0213 26.4434 26.1093 26.8918 26.9124 27.6904L38.385 39.1271L42.6096 34.9173C43.0056 34.5196 43.4769 34.2041 43.9961 33.9892C44.5154 33.7744 45.0722 33.6644 45.6344 33.6657C46.1967 33.6643 46.7537 33.7743 47.273 33.9892C47.7924 34.204 48.2638 34.5195 48.6599 34.9173L56.5273 42.7562C56.7235 42.9518 56.8337 43.2171 56.8337 43.4937C56.8337 43.7703 56.7235 44.0355 56.5273 44.2311C56.4304 44.3286 56.3151 44.406 56.1881 44.459C56.0611 44.512 55.9249 44.5395 55.7872 44.5399Z" fill="#242424"/>
<path d="M45.4238 25.9443C44.1156 25.9433 42.8612 25.4251 41.9359 24.5033C41.0106 23.5814 40.4899 22.3313 40.4883 21.0273C40.4899 19.7236 41.0103 18.4738 41.9351 17.5521C42.86 16.6303 44.1138 16.1118 45.4217 16.1104C46.7294 16.1118 47.9832 16.6303 48.908 17.5521C49.8327 18.4739 50.3529 19.7237 50.3544 21.0273C50.3529 22.3305 49.833 23.58 48.9087 24.5017C47.9844 25.4235 46.7312 25.9422 45.4238 25.9443ZM45.4238 18.1965C44.6705 18.1966 43.9481 18.4948 43.4151 19.0254C42.8821 19.556 42.5822 20.2757 42.5811 21.0266C42.5818 21.7773 42.8813 22.4971 43.4139 23.028C43.9464 23.5588 44.6685 23.8574 45.4217 23.8581C46.1746 23.8574 46.8965 23.5589 47.429 23.0282C47.9614 22.4975 48.2608 21.7779 48.2616 21.0273C48.2608 20.2771 47.9617 19.5578 47.4297 19.0271C46.8977 18.4965 46.1764 18.1977 45.4238 18.1965Z" fill="#242424"/>
<path d="M11.4608 22.8523C17.7904 22.8523 22.9215 17.7375 22.9215 11.4281C22.9215 5.1187 17.7904 0.00390625 11.4608 0.00390625C5.13116 0.00390625 0 5.1187 0 11.4281C0 17.7375 5.13116 22.8523 11.4608 22.8523Z" fill="#489E89" fill-opacity="0.1"/>
<path d="M19.0726 12.4718H3.85108C3.57356 12.4718 3.3074 12.362 3.11116 12.1663C2.91493 11.9707 2.80469 11.7054 2.80469 11.4288C2.80469 11.1522 2.91493 10.8869 3.11116 10.6912C3.3074 10.4956 3.57356 10.3857 3.85108 10.3857H19.0726C19.3501 10.3857 19.6162 10.4956 19.8125 10.6912C20.0087 10.8869 20.119 11.1522 20.119 11.4288C20.119 11.7054 20.0087 11.9707 19.8125 12.1663C19.6162 12.362 19.3501 12.4718 19.0726 12.4718Z" fill="#489E89"/>
<path d="M11.4605 20.0579C11.1829 20.0579 10.9168 19.948 10.7205 19.7524C10.5243 19.5568 10.4141 19.2915 10.4141 19.0148V3.84188C10.4141 3.56525 10.5243 3.29994 10.7205 3.10433C10.9168 2.90872 11.1829 2.79883 11.4605 2.79883C11.738 2.79883 12.0041 2.90872 12.2004 3.10433C12.3966 3.29994 12.5068 3.56525 12.5068 3.84188V19.0148C12.5068 19.2915 12.3966 19.5568 12.2004 19.7524C12.0041 19.948 11.738 20.0579 11.4605 20.0579Z" fill="#489E89"/>
</svg>
