<svg width="176" height="163" viewBox="0 0 176 163" fill="none" xmlns="http://www.w3.org/2000/svg">
<path d="M66.7511 108.154H144.231C144.605 108.154 144.908 108.637 144.908 109.234C144.908 109.83 144.605 110.314 144.231 110.314H66.7511C66.3772 110.314 66.074 109.83 66.074 109.234C66.074 108.637 66.3772 108.154 66.7511 108.154Z" fill="#D8DEED"/>
<path d="M66.7511 120.033H144.231C144.605 120.033 144.908 120.517 144.908 121.113C144.908 121.709 144.605 122.193 144.231 122.193H66.7511C66.3772 122.193 66.074 121.709 66.074 121.113C66.074 120.517 66.3772 120.033 66.7511 120.033Z" fill="#D8DEED"/>
<g clip-path="url(#clip0_99_919)">
<path d="M169.651 79.0059H79.451C75.9091 79.0059 73.0166 75.8598 73.0166 72.0074V7.38371C73.0166 3.53133 75.9091 0.385223 79.451 0.385223H169.651C173.192 0.385223 176.085 3.53133 176.085 7.38371V71.9753C176.085 75.8598 173.192 79.0059 169.651 79.0059Z" fill="#FBFCFE"/>
<path d="M102.67 44.03C107.395 44.03 111.225 40.197 111.225 35.4686C111.225 30.7403 107.395 26.9072 102.67 26.9072C97.9455 26.9072 94.1152 30.7403 94.1152 35.4686C94.1152 40.197 97.9455 44.03 102.67 44.03Z" fill="#FFCB3D"/>
<path d="M123.855 44.03C128.58 44.03 132.41 40.197 132.41 35.4686C132.41 30.7403 128.58 26.9072 123.855 26.9072C119.13 26.9072 115.3 30.7403 115.3 35.4686C115.3 40.197 119.13 44.03 123.855 44.03Z" fill="#3ABF7C"/>
<path d="M145.038 44.03C149.763 44.03 153.594 40.197 153.594 35.4686C153.594 30.7403 149.763 26.9072 145.038 26.9072C140.314 26.9072 136.483 30.7403 136.483 35.4686C136.483 40.197 140.314 44.03 145.038 44.03Z" fill="#FF5645"/>
<path d="M153.848 57.8913H95.4906C94.8437 57.8913 94.3193 58.4161 94.3193 59.0634V59.9807C94.3193 60.628 94.8437 61.1528 95.4906 61.1528H153.848C154.495 61.1528 155.02 60.628 155.02 59.9807V59.0634C155.02 58.4161 154.495 57.8913 153.848 57.8913Z" fill="#E1E5F0"/>
<path d="M153.848 51.3683H95.4906C94.8437 51.3683 94.3193 51.8931 94.3193 52.5404V53.6616C94.3193 54.3089 94.8437 54.8337 95.4906 54.8337H153.848C154.495 54.8337 155.02 54.3089 155.02 53.6616V52.5404C155.02 51.8931 154.495 51.3683 153.848 51.3683Z" fill="#E1E5F0"/>
<path d="M72.7275 4.07775C72.7275 1.82567 74.5528 0 76.7998 0H171.927C174.176 0 176 1.82584 176 4.07775V8.96908H72.7275V4.07775Z" fill="#E1E5F0"/>
<path d="M78.7368 6.52297C79.8055 6.52297 80.6719 5.65597 80.6719 4.58647C80.6719 3.51697 79.8055 2.64996 78.7368 2.64996C77.6681 2.64996 76.8018 3.51697 76.8018 4.58647C76.8018 5.65597 77.6681 6.52297 78.7368 6.52297Z" fill="#FF5645"/>
<path d="M85.0513 6.52297C86.12 6.52297 86.9864 5.65597 86.9864 4.58647C86.9864 3.51697 86.12 2.64996 85.0513 2.64996C83.9826 2.64996 83.1162 3.51697 83.1162 4.58647C83.1162 5.65597 83.9826 6.52297 85.0513 6.52297Z" fill="#FFCB3D"/>
<path d="M91.5689 6.52297C92.6376 6.52297 93.5039 5.65597 93.5039 4.58647C93.5039 3.51697 92.6376 2.64996 91.5689 2.64996C90.5002 2.64996 89.6338 3.51697 89.6338 4.58647C89.6338 5.65597 90.5002 6.52297 91.5689 6.52297Z" fill="#3ABF7C"/>
</g>
<path d="M28.7063 120.981H13.7722C13.3191 120.981 12.9226 120.604 12.9226 120.15V120.056C12.9226 119.603 13.3191 119.225 13.81 119.225H27.6488C36.0314 119.225 44.414 119.225 52.7777 119.225H65.6159C66.069 119.225 66.4655 119.603 66.4655 120.056V120.15C66.4655 120.604 66.0879 120.981 65.6159 120.981H47.3967L52.419 130.194C55.9872 136.765 59.5555 143.316 63.1426 149.886L69.052 160.723C69.2597 161.1 69.0898 161.591 68.6933 161.818L68.6178 161.856C68.2213 162.063 67.7115 161.95 67.5227 161.591L45.4146 120.981H30.6884L8.58027 161.591C8.39147 161.95 7.88172 162.082 7.48525 161.856L7.40973 161.818C7.01325 161.591 6.84334 161.1 7.05101 160.723L12.9604 149.886C16.5286 143.316 20.0969 136.765 23.684 130.194L28.7063 120.981ZM12.9792 113.583V102.605C12.9792 94.2332 12.9792 85.8802 12.9792 77.5273V67.5515C12.9792 65.9875 14.2472 64.7195 15.8112 64.7195H46.6229C48.1869 64.7195 49.4549 65.9875 49.4549 67.5515V113.615C49.4549 115.179 48.1869 116.447 46.6229 116.447C46.6219 116.447 46.6209 116.447 46.6199 116.447L15.8082 116.415C14.2453 116.413 12.9792 115.145 12.9792 113.583Z" fill="#D8DEED"/>
<g clip-path="url(#clip1_99_919)">
<path d="M28.1576 159.156H47.1647C47.2956 159.156 47.4192 159.181 47.5295 159.226L45.8493 149.291L32.4763 147.639L28.1576 159.156ZM51.9937 159.199C52.078 159.171 52.1683 159.156 52.2623 159.156H82.2621C82.3584 159.156 82.4508 159.172 82.5369 159.201C82.5934 159.108 82.6353 159.004 82.6586 158.892V158.873C82.6586 158.778 82.6775 158.684 82.6586 158.59C82.6397 158.476 82.6397 158.382 82.602 158.269C82.3565 157.419 81.6957 156.702 81.2615 156.305C81.2049 156.249 81.1671 156.23 81.1105 156.192C80.2798 155.682 79.4302 155.21 78.5428 154.814C76.8059 154.021 72.9544 152.397 71.8028 151.812C70.3113 151.057 68.2534 149.773 66.1011 147.469C65.9878 147.413 65.8368 147.337 65.8368 147.337L52.621 147.016C52.621 147.016 52.5643 147.205 52.5643 147.224L51.9035 158.797C51.9035 158.942 51.9359 159.077 51.9937 159.199Z" fill="#474961"/>
<path d="M29.3038 116.124C29.304 116.404 29.3041 116.687 29.3041 116.973C29.3041 126.595 29.644 140.368 29.7572 144.941C29.7761 145.539 29.7006 147.175 30.8334 148.213C31.2865 148.618 31.7774 148.794 32.0794 148.899C35.4212 150.007 40.1033 150.025 45.2386 149.603C45.5784 149.568 46.1259 149.374 46.8623 149.163C47.9762 148.829 48.788 147.844 48.9013 146.665C49.4299 141.494 50.8836 127.369 50.9969 126.12C51.148 124.537 51.2801 122.743 51.3934 120.703L51.7643 114.786C53.7274 114.371 55.5978 113.915 57.3682 113.437C54.9437 123.168 52.5784 133.34 50.4872 143.447C50.3928 143.89 50.2228 144.923 50.7137 145.901C51.6199 147.69 53.9799 147.617 59.6249 148.318C66.2706 149.166 69.0459 150.033 70.5563 148.244C71.0661 147.672 71.236 147.063 71.2926 146.786C72.6708 139.536 79.5053 118.45 82.1673 103.322C82.1673 103.285 82.1862 103.266 82.1862 103.23C82.3956 102.025 82.3596 100.839 82.1155 99.7265C81.5891 94.5423 77.2656 90.446 71.9232 90.3345L55.7719 89.9974C48.7109 89.8714 25.8515 89.1351 25.1763 89.7818C24.5011 90.4284 24.2239 95.8466 24.1484 98.1503C24.1484 98.9962 24.1484 99.8601 24.1295 100.688C24.1295 104.737 24.8281 108.445 25.9986 111.307C26.8104 113.286 27.8299 114.852 28.9816 115.86C29.088 115.953 29.1954 116.041 29.3038 116.124Z" fill="#5D5FEF"/>
<path opacity="0.176986" d="M29.3375 116.149C29.3347 112.825 29.3159 109.963 29.2812 108.085C29.2434 106.467 28.9602 97.5662 32.6229 95.7193C32.9438 95.561 33.2648 95.4203 33.9067 95.1916C34.4165 95.0157 37.0596 94.0834 40.458 94.2242C42.6669 94.3121 45.9897 94.4528 48.7273 96.6692C52.5221 99.765 52.4277 104.602 52.39 105.394L51.8015 114.779C53.769 114.361 55.6433 113.904 57.4169 113.424C58.643 108.505 59.884 103.698 61.1124 99.0705C62.2452 94.8089 66.2288 92.0416 70.439 92.5766C72.006 92.7795 73.573 92.9825 75.14 93.1854C78.6318 93.6476 81.283 96.2533 82.0967 99.5486C81.4906 94.4489 77.2051 90.4447 71.924 90.3345L55.7727 89.9974C48.7117 89.8714 25.8523 89.1351 25.1771 89.7818C24.502 90.4284 24.2247 95.8466 24.1492 98.1503C24.1492 98.9962 24.1492 99.8601 24.1303 100.688C24.1303 104.737 24.8289 108.445 25.9994 111.307C26.8112 113.286 27.8307 114.852 28.9824 115.86C29.0995 115.962 29.2179 116.059 29.3375 116.149Z" fill="#444444"/>
<path fill-rule="evenodd" clip-rule="evenodd" d="M65.8693 76.5422L57.7483 77.3464C57.8008 78.6219 57.8538 79.976 57.9073 81.413C57.9073 81.413 58.356 85.7987 56.3164 87.6341C56.1054 87.8339 55.8584 87.9825 55.6431 88.112C55.6294 88.1202 55.6159 88.1283 55.6026 88.1364C55.1335 88.4069 54.7256 88.5228 54.7256 88.5228C54.7256 88.5228 54.7052 88.5421 54.6848 88.5421C52.0709 89.223 49.8365 89.1974 48.3275 89.1801C47.9526 89.1758 47.6224 89.172 47.3424 89.1797C42.8146 89.2763 39.1434 89.257 35.9617 89.1604C35.5738 89.1488 34.9341 89.1604 34.1507 89.1746C31.0209 89.2315 25.5964 89.3301 24.7645 88.1557L24.7033 88.0398C24.5198 87.6341 24.377 87.1317 24.275 86.5328C24.2546 86.4749 24.2342 86.3976 24.2342 86.3396C23.8479 84.0942 23.8625 80.694 24.3821 76.6215L17.0478 75.6357C16.2681 75.5372 16.275 74.0126 16.2784 73.2523C16.2786 73.2055 16.2788 73.1617 16.2788 73.1212C16.383 72.4101 16.7517 71.3444 17.3584 71.0852C17.0446 70.493 17.0233 69.4612 17.3123 68.4799C17.5428 67.6973 18.2701 67.2527 19.0147 67.0363C19.6923 65.0882 20.748 61.8648 21.1516 60.3208C22.3599 55.6197 23.8514 53.8639 24.3611 53.3542C24.9464 52.75 25.5128 52.3347 25.8904 52.0703C28.4391 50.3145 31.1389 50.0502 32.5172 50.0124C32.5549 49.9936 32.5927 49.9936 32.6304 49.9936L38.4655 49.9114C40.3051 49.6808 42.1691 49.8112 43.976 49.9376L44.0179 49.9405C44.6168 49.9857 45.2803 50.0362 45.9805 50.1164L51.1911 50.3719C51.2288 50.3732 51.2665 50.3746 51.3036 50.3947C52.6797 50.4806 55.3686 50.839 57.8545 52.6826C58.2227 52.96 58.7742 53.3948 59.3381 54.0191C59.8297 54.5463 61.259 56.3531 62.3025 61.0934C62.6519 62.6506 63.5945 65.9089 64.2037 67.8794C64.9403 68.1217 65.6517 68.5914 65.8547 69.3815C66.1093 70.3724 66.052 71.4028 65.7177 71.9837C66.3149 72.2639 66.6462 73.3418 66.7256 74.0562C66.7242 74.0966 66.7229 74.1404 66.7214 74.1871C66.6983 74.9471 66.6519 76.4711 65.8693 76.5422ZM52.243 159.156H82.2617C82.731 159.156 83.1113 159.536 83.1113 160.006C83.1113 160.475 82.731 160.855 82.2617 160.855H52.243C51.7738 160.855 51.3934 160.475 51.3934 160.006C51.3934 159.536 51.7738 159.156 52.243 159.156ZM28.2658 159.156H47.1455C47.6147 159.156 47.9951 159.536 47.9951 160.006C47.9951 160.475 47.6147 160.855 47.1455 160.855H28.2658C27.7965 160.855 27.4162 160.475 27.4162 160.006C27.4162 159.536 27.7965 159.156 28.2658 159.156Z" fill="#DE3190"/>
<path d="M39.4617 44.5832L39.2569 50.5976C39.2569 50.7298 39.3135 50.862 39.4268 50.9186C39.9176 51.2207 40.6162 51.5605 41.4847 51.7493C43.0517 52.108 44.3921 51.8437 45.1473 51.6171C45.2984 51.5794 45.4116 51.4283 45.4116 51.2773L45.4858 47.9179C46.5575 48.3174 46.4968 48.2777 46.5963 48.3109C47.7857 48.6129 48.8052 48.5752 48.994 48.5374C49.6737 48.4808 50.3911 47.9144 51.033 46.9515C51.9015 45.6677 52.6756 43.6665 53.0909 41.2687C53.1664 40.9289 53.1853 40.5891 53.2042 40.2492L53.2797 36.8698C53.2986 36.1146 53.1098 35.3783 52.7511 34.6797C52.6 34.3776 52.449 34.1322 52.2602 33.9245C52.2201 33.8731 52.1794 33.8228 52.1381 33.7737C50.654 31.8568 47.7026 31.6052 46.332 31.7533C46.162 31.7722 45.5579 31.8477 44.6894 31.9044C44.2174 31.9421 43.8398 31.9421 43.6133 31.961C40.8002 32.0743 39.6863 31.7345 38.2703 32.4897C38.006 32.6218 37.4019 32.9617 36.8732 33.6224C35.3817 35.4915 35.7404 37.9081 35.8348 38.6256C36.1747 40.7779 37.4207 42.0994 37.7983 42.6469C38.2253 43.2767 38.9299 44.0393 39.4617 44.5832ZM65.5475 85.1452L64.2011 76.7174L57.759 77.218L57.8296 82.9825C55.3674 82.7063 52.9312 82.6751 51.7005 83.2074C51.6651 83.2226 51.6304 83.2382 51.5963 83.2544C45.7643 82.1508 35.7772 80.3247 29.6529 79.5591L30.2696 77.381L17.5868 75.6763C17.0134 81.9181 17.6651 89.4707 23.9653 90.245C31.2364 91.1387 43.274 91.1387 60.0781 90.245H68.3787C68.4961 87.8195 66.8984 86.425 65.5475 85.1452Z" fill="#F9BDA3"/>
<path d="M36.198 39.9962C37.0831 39.9974 37.927 40.0396 38.7662 40.0865C38.6401 39.4135 38.7406 38.676 39.1815 38.0615C39.7857 37.2119 40.9184 36.7399 41.8247 37.042C42.3344 37.2119 42.6743 37.6084 42.712 37.6462C43.2218 38.2881 43.335 38.9677 43.335 38.9677L43.4302 39.9043C44.947 38.3334 46.8796 36.3472 48.3217 34.8308C49.1722 35.0638 50.5756 35.2968 52.1703 34.9579C52.3885 34.9096 52.5943 34.8369 52.7891 34.7548C52.7767 34.7297 52.7641 34.7047 52.7512 34.6797C52.6002 34.3776 52.4492 34.1322 52.2604 33.9245C52.2203 33.8731 52.1796 33.8228 52.1382 33.7737C50.6542 31.8568 47.7027 31.6052 46.3321 31.7533C46.1622 31.7722 45.5581 31.8477 44.6896 31.9044C44.2176 31.9421 43.84 31.9421 43.6135 31.961C40.8004 32.0743 39.6865 31.7345 38.2705 32.4897C38.0062 32.6218 37.402 32.9617 36.8734 33.6224C35.3819 35.4915 35.7406 37.9081 35.835 38.6256C35.9142 39.1274 36.0427 39.584 36.198 39.9962ZM52.5295 39.232C52.7183 39.1943 52.7749 38.9489 52.6428 38.8167C52.4728 38.6657 52.1708 38.5146 51.7932 38.5146C51.0191 38.5146 50.1884 39.0244 51.0569 39.2509C51.5666 39.402 52.1708 39.3264 52.5295 39.232ZM48.6403 39.3642C48.829 39.3264 48.8857 39.081 48.7347 38.9489C48.5647 38.7978 48.2627 38.6468 47.8662 38.6468C47.0921 38.6468 46.2614 39.1754 47.1299 39.3831C47.6774 39.553 48.2627 39.4397 48.6403 39.3642Z" fill="#482D1F"/>
<path opacity="0.2" d="M65.5625 85.1908L64.201 76.7174L57.7589 77.2181L57.8301 83.0139C61.1847 83.3901 64.5876 84.2208 65.0558 84.6998C65.2179 84.8628 65.3882 85.0258 65.5625 85.1908Z" fill="#8C2A00"/>
<path d="M51.0573 40.5725C51.0762 40.8935 51.1328 41.4221 51.3216 41.6109C51.6426 41.8941 52.058 40.9501 51.8125 40.3648C51.7181 40.1194 51.586 40.0816 51.4349 40.1005C51.2084 40.1383 51.0573 40.346 51.0573 40.5725ZM47.6778 40.5159C47.659 40.8368 47.659 41.3655 47.8478 41.592C48.131 41.913 48.6596 41.0068 48.4708 40.4026C48.3953 40.1572 48.2631 40.1005 48.1121 40.1005C47.8855 40.1005 47.6967 40.2893 47.6778 40.5159Z" fill="#482D1F"/>
<path d="M49.2259 44.4051C49.0938 44.3673 48.7728 44.2729 48.7162 44.0653C48.7162 44.0275 48.6973 43.9709 48.7162 43.9331C48.7917 43.8009 49.0183 43.8765 49.3581 43.8953C49.9623 43.9331 50.4531 43.8765 50.4531 43.8765C50.4531 43.8765 50.321 44.2541 50.2266 44.3673C50.0189 44.6505 49.4147 44.4617 49.2259 44.4051Z" fill="#482D1F"/>
<path d="M50.7911 42.6042C50.8266 42.8171 50.6615 43.0262 50.4463 43.062C50.3992 43.0664 50.3992 43.0664 50.3687 43.0688C50.0502 43.0933 49.851 43.1024 49.5091 43.1024C49.4048 43.1024 49.3203 43.0178 49.3203 42.9136C49.3203 42.8093 49.4048 42.7248 49.5091 42.7248C49.8402 42.7248 50.0301 42.7161 50.3397 42.6923L50.4008 42.6876C50.4013 42.6867 50.4185 42.665 50.4179 42.6614L50.1339 40.6365L50.1321 40.6103V39.4964C50.1321 39.3921 50.2166 39.3076 50.3209 39.3076C50.4252 39.3076 50.5097 39.3921 50.5097 39.4964V40.5971L50.7911 42.6042Z" fill="#482D1F"/>
<path d="M38.764 39.0913C38.6776 39.6445 38.7771 40.2468 39.0283 40.7311C39.3335 41.3414 39.7631 41.6742 40.318 41.9304C40.4127 41.9741 40.454 42.0862 40.4103 42.1809C40.3666 42.2756 40.2544 42.3169 40.1598 42.2732C39.9158 42.1606 39.7221 42.0519 39.4979 41.8781C39.1676 41.6223 38.8912 41.3011 38.6918 40.9024C38.4051 40.3495 38.292 39.6659 38.3909 39.033C38.407 38.93 38.5036 38.8595 38.6066 38.8756C38.7096 38.8917 38.7801 38.9883 38.764 39.0913Z" fill="#482D1F"/>
<path d="M50.9675 40.6126C50.9864 40.9336 51.043 41.4622 51.2318 41.651C51.5528 41.9342 51.9681 40.9902 51.7227 40.4049C51.6283 40.1595 51.4961 40.1217 51.3451 40.1406C51.1185 40.1784 50.9675 40.3861 50.9675 40.6126ZM47.588 40.556C47.5691 40.8769 47.5691 41.4056 47.7579 41.6321C48.0411 41.9531 48.5697 41.0469 48.381 40.4427C48.3054 40.1973 48.1733 40.1406 48.0222 40.1406C47.7957 40.1406 47.6069 40.3294 47.588 40.556Z" fill="#482D1F"/>
<path d="M49.1361 44.4452C49.0039 44.4074 48.683 44.313 48.6263 44.1054C48.6263 44.0676 48.6075 44.011 48.6263 43.9732C48.7019 43.841 48.9284 43.9166 49.2683 43.9354C49.8724 43.9732 50.3633 43.9166 50.3633 43.9166C50.3633 43.9166 50.2311 44.2942 50.1367 44.4074C49.929 44.6906 49.3249 44.5018 49.1361 44.4452Z" fill="#482D1F"/>
<path d="M38.6742 39.1314C38.5877 39.6846 38.6873 40.2868 38.9384 40.7711C39.2436 41.3815 39.6732 41.7143 40.2282 41.9704C40.3228 42.0141 40.3642 42.1263 40.3205 42.221C40.2768 42.3156 40.1646 42.357 40.0699 42.3133C39.8259 42.2007 39.6322 42.0919 39.408 41.9182C39.0778 41.6623 38.8013 41.3412 38.602 40.9425C38.3152 40.3895 38.2022 39.706 38.3011 39.0731C38.3172 38.9701 38.4138 38.8996 38.5168 38.9157C38.6198 38.9318 38.6903 39.0283 38.6742 39.1314Z" fill="#482D1F"/>
<path d="M29.9967 77.4368C29.9507 77.5863 30.0346 77.7448 30.1841 77.7908C30.3336 77.8368 30.4921 77.7529 30.5381 77.6034C31.0761 75.8547 32.794 70.5549 33.1572 69.5759C33.2116 69.4292 33.1368 69.2662 32.9902 69.2118C32.8435 69.1574 32.6806 69.2322 32.6262 69.3789C32.2581 70.3711 30.5378 75.6782 29.9967 77.4368ZM55.779 61.5783C56.251 65.9421 56.6286 69.4233 57.4782 77.2486C57.4951 77.4041 57.6348 77.5165 57.7903 77.4996C57.9458 77.4827 58.0582 77.343 58.0413 77.1875C57.1917 69.3622 56.8141 65.881 56.3421 61.5174C56.3253 61.3619 56.1856 61.2495 56.0301 61.2663C55.8746 61.2831 55.7622 61.4228 55.779 61.5783Z" fill="#482D1F"/>
<path d="M45.4814 47.9845L43.935 47.2953L45.4449 49.7845L45.4814 47.9845Z" fill="#482D1F"/>
</g>
<g clip-path="url(#clip2_99_919)">
<path d="M22.1812 89.7953H143.845C144.432 89.7953 144.908 90.2788 144.908 90.8752C144.908 91.4716 144.432 91.9551 143.845 91.9551H22.1812C21.594 91.9551 21.118 91.4716 21.118 90.8752C21.118 90.2788 21.594 89.7953 22.1812 89.7953Z" fill="#D8DEED"/>
</g>
<path d="M144.908 91.4873V161.538C144.908 161.876 144.425 162.15 143.828 162.15C143.232 162.15 142.748 161.876 142.748 161.538V91.4873C142.748 91.1493 143.232 90.8752 143.828 90.8752C144.425 90.8752 144.908 91.1493 144.908 91.4873Z" fill="#D8DEED"/>
<g clip-path="url(#clip3_99_919)">
<path d="M82.4413 89.2084C82.2532 89.5409 81.8963 89.7656 81.4875 89.7656H54.3574C53.7532 89.7656 53.2812 89.2747 53.2812 88.6705C53.2812 88.0664 53.7721 87.5755 54.3574 87.5755H80.7465L89.9457 62.8242C90.1533 62.2578 90.7764 61.9746 91.3428 62.1823C91.9091 62.39 92.1923 63.013 91.9847 63.5794L82.5259 89.0292C82.5027 89.0926 82.4743 89.1524 82.4413 89.2084Z" fill="#474961"/>
</g>
<g clip-path="url(#clip4_99_919)">
<path d="M157.183 47.6346L144.785 39.6474C144.62 39.7627 144.62 39.7627 144.471 39.8945L149.105 53.8431C149.105 53.8431 150.926 53.5961 152.333 52.8056L154.435 55.5064C155.267 55.0441 155.854 54.681 156.198 54.417C156.541 54.153 156.974 53.7312 157.498 53.1514L155.396 50.4342C155.991 49.4955 156.587 48.5568 157.183 47.6346Z" fill="#D8DEED"/>
</g>
<defs>
<clipPath id="clip0_99_919">
<rect width="103.272" height="79.2948" fill="white" transform="translate(72.7275)"/>
</clipPath>
<clipPath id="clip1_99_919">
<rect width="98.5521" height="142.731" fill="white" transform="matrix(-1 0 0 1 99.1592 18.1245)"/>
</clipPath>
<clipPath id="clip2_99_919">
<rect width="131.75" height="2.15984" fill="white" transform="matrix(-1 0 0 1 144.908 89.7953)"/>
</clipPath>
<clipPath id="clip3_99_919">
<rect width="66.8342" height="50.2201" fill="white" transform="matrix(-1 0 0 1 106.145 39.6474)"/>
</clipPath>
<clipPath id="clip4_99_919">
<rect width="13.027" height="15.859" fill="white" transform="translate(144.471 39.6474)"/>
</clipPath>
</defs>
</svg>
