<svg width="215" height="162" viewBox="0 0 215 162" fill="none" xmlns="http://www.w3.org/2000/svg">
<g clip-path="url(#clip0_99_934)">
<path d="M122.751 0H5.04111C2.25698 0 0 2.26925 0 5.06851V93.5141C0 96.3133 2.25698 98.5826 5.04111 98.5826H122.751C125.535 98.5826 127.792 96.3133 127.792 93.5141V5.06851C127.792 2.26925 125.535 0 122.751 0Z" fill="white"/>
<path d="M72.5107 76.4059V80.9452C72.5107 81.1976 72.4846 81.2892 72.4355 81.3815C72.3864 81.4738 72.3144 81.5462 72.2226 81.5955C72.1308 81.6449 72.0398 81.6712 71.7887 81.6712L28.1042 81.6712V75.68L71.7887 75.68C72.0398 75.68 72.1308 75.7062 72.2226 75.7556C72.3144 75.805 72.3864 75.8774 72.4355 75.9697C72.4846 76.062 72.5107 76.1535 72.5107 76.4059Z" fill="#D8DEED"/>
<path fill-rule="evenodd" clip-rule="evenodd" d="M116.576 64.4235V68.9628C116.576 69.2152 116.55 69.3067 116.501 69.399C116.452 69.4913 116.38 69.5637 116.288 69.6131C116.196 69.6625 116.105 69.6887 115.854 69.6887L28.1046 69.6887V63.6975L115.854 63.6975C116.105 63.6975 116.196 63.7238 116.288 63.7732C116.38 63.8225 116.452 63.8949 116.501 63.9872C116.55 64.0795 116.576 64.1711 116.576 64.4235Z" fill="white"/>
<path d="M104.962 52.441V56.9803C104.962 57.2327 104.936 57.3243 104.887 57.4165C104.838 57.5088 104.766 57.5813 104.674 57.6306C104.582 57.68 104.491 57.7063 104.24 57.7063L28.1044 57.7063V51.715L104.24 51.715C104.491 51.715 104.582 51.7413 104.674 51.7907C104.766 51.84 104.838 51.9125 104.887 52.0047C104.936 52.097 104.962 52.1886 104.962 52.441Z" fill="#D8DEED"/>
<path d="M78.6602 40.4586V44.9978C78.6602 45.2503 78.634 45.3418 78.5849 45.4341C78.5358 45.5264 78.4638 45.5988 78.372 45.6482C78.2802 45.6975 78.1892 45.7238 77.9381 45.7238L28.105 45.7238V39.7326L77.9381 39.7326C78.1892 39.7326 78.2802 39.7589 78.372 39.8082C78.4638 39.8576 78.5358 39.93 78.5849 40.0223C78.634 40.1146 78.6602 40.2061 78.6602 40.4586Z" fill="#D8DEED"/>
<path d="M91.6406 28.4761V33.0154C91.6406 33.2678 91.6145 33.3593 91.5654 33.4516C91.5163 33.5439 91.4443 33.6164 91.3525 33.6657C91.2607 33.7151 91.1696 33.7414 90.9186 33.7414L28.1051 33.7414V27.7501L90.9186 27.7501C91.1696 27.7501 91.2607 27.7764 91.3525 27.8258C91.4443 27.8751 91.5163 27.9475 91.5654 28.0398C91.6145 28.1321 91.6406 28.2237 91.6406 28.4761Z" fill="#D8DEED"/>
<path d="M0 5.06963C0 2.26975 2.25869 0 5.03912 0H122.753C125.536 0 127.792 2.26996 127.792 5.06963V11.1507H0V5.06963Z" fill="#E1E5F0"/>
<path d="M7.43555 8.10961C8.75801 8.10961 9.83007 7.03172 9.83007 5.70207C9.83007 4.37242 8.75801 3.29453 7.43555 3.29453C6.11308 3.29453 5.04102 4.37242 5.04102 5.70207C5.04102 7.03172 6.11308 8.10961 7.43555 8.10961Z" fill="#FF5645"/>
<path d="M15.249 8.10961C16.5715 8.10961 17.6436 7.03172 17.6436 5.70207C17.6436 4.37242 16.5715 3.29453 15.249 3.29453C13.9266 3.29453 12.8545 4.37242 12.8545 5.70207C12.8545 7.03172 13.9266 8.10961 15.249 8.10961Z" fill="#FFCB3D"/>
<path d="M23.3154 8.10961C24.6379 8.10961 25.71 7.03172 25.71 5.70207C25.71 4.37242 24.6379 3.29453 23.3154 3.29453C21.993 3.29453 20.9209 4.37242 20.9209 5.70207C20.9209 7.03172 21.993 8.10961 23.3154 8.10961Z" fill="#3ABF7C"/>
</g>
<path d="M188.735 117.949H204.632C205.115 117.949 205.537 117.543 205.537 117.056V116.955C205.537 116.468 205.115 116.063 204.592 116.063H189.86C180.937 116.063 172.014 116.063 163.111 116.063H149.444C148.962 116.063 148.54 116.468 148.54 116.955V117.056C148.54 117.543 148.942 117.949 149.444 117.949H168.839L163.492 127.846C159.694 134.904 155.896 141.942 152.077 149L145.786 160.641C145.565 161.047 145.746 161.574 146.168 161.817L146.249 161.858C146.671 162.081 147.213 161.959 147.414 161.574L170.949 117.949H186.625L210.159 161.574C210.36 161.959 210.903 162.101 211.325 161.858L211.405 161.817C211.827 161.574 212.008 161.047 211.787 160.641L205.496 149C201.698 141.942 197.9 134.904 194.081 127.846L188.735 117.949ZM205.476 110.001V98.2088C205.476 89.2151 205.476 80.2421 205.476 71.2691V60.5526C205.476 58.8724 204.127 57.5104 202.462 57.5104H169.662C167.997 57.5104 166.648 58.8724 166.648 60.5526V110.036C166.648 111.716 167.997 113.078 169.662 113.078C169.663 113.078 169.664 113.078 169.666 113.078L202.465 113.043C204.129 113.042 205.476 111.68 205.476 110.001Z" fill="#D8DEED"/>
<g clip-path="url(#clip1_99_934)">
<path d="M130.241 159.075H163.173C163.675 159.075 164.082 159.486 164.082 159.994C164.082 160.501 163.675 160.913 163.173 160.913H130.241C129.739 160.913 129.332 160.501 129.332 159.994C129.332 159.486 129.739 159.075 130.241 159.075ZM167.214 159.075H188.024C188.526 159.075 188.933 159.486 188.933 159.994C188.933 160.501 188.526 160.913 188.024 160.913H167.214C166.712 160.913 166.305 160.501 166.305 159.994C166.305 159.486 166.712 159.075 167.214 159.075Z" fill="#FF5645"/>
<path d="M187.806 159.075H167.241L168.89 147.92H183.546L187.806 159.075ZM163.742 159.277C163.587 159.151 163.389 159.075 163.173 159.075H130.241C130.203 159.075 130.166 159.077 130.129 159.082C130.118 158.987 130.112 158.876 130.115 158.741C130.137 158.599 130.14 158.435 130.183 158.273C130.443 157.297 130.757 156.649 131.676 156.073C132.596 155.497 133.534 154.982 134.512 154.53C138.118 152.816 139.35 152.838 141.721 151.266C142.703 150.61 143.605 149.849 144.447 149.027C145.009 148.478 146.224 147.588 148.09 146.354L162.558 146.399L163.742 159.277Z" fill="#474961"/>
<path d="M187.637 111.072C187.604 121.064 187.27 134.339 187.155 138.905C187.135 139.541 187.215 141.262 186.003 142.347C185.66 142.665 185.316 142.795 184.67 143.076C184.165 143.301 181.902 143.974 177.376 144.348C177.093 144.367 176.79 144.385 176.487 144.367C171.82 144.198 170.669 143.899 168.871 143.375C167.679 143.039 166.81 141.991 166.689 140.757C166.123 135.313 164.567 120.48 164.446 119.17C164.284 117.506 164.143 115.616 164.022 113.465L163.957 112.458L158.366 110.192C160.701 119.384 162.966 128.906 164.991 138.372C165.092 138.836 165.274 139.879 164.749 140.865C163.779 142.74 161.254 142.643 155.213 143.378C148.101 144.247 145.131 145.156 143.515 143.3C142.969 142.701 142.788 142.083 142.727 141.793C141.252 134.274 133.938 112.453 131.09 96.7976C131.09 96.7589 131.069 96.7396 131.069 96.7009C130.16 91.6564 133.575 86.9017 138.646 86.2639C140.323 86.0513 141.838 85.8465 143.515 85.6339C144.023 85.5728 144.53 85.5552 145.031 85.5783L170.064 85.1319C184.911 84.9991 182.867 83.2267 187.509 85.4234C190.604 86.8878 192.712 91.057 193.831 97.9308C194.232 103.157 192.167 107.538 187.637 111.072Z" fill="#A339FF"/>
<path opacity="0.176986" d="M187.663 111.052C187.664 110.53 187.665 110.017 187.665 109.515C187.665 105.624 187.686 102.276 187.726 100.125C187.766 98.4224 188.069 89.0696 184.15 87.1242C183.806 86.9559 183.463 86.8249 182.776 86.5818C182.231 86.3947 179.402 85.422 175.765 85.5717C173.402 85.6652 169.846 85.8148 166.916 88.153C162.875 91.3891 162.976 96.4957 163.017 97.3188L163.984 112.469L158.396 110.204C156.839 104.074 155.251 98.0913 153.683 92.3681C152.611 88.473 149.03 85.7768 145.102 85.577L170.064 85.1319C184.911 84.9991 182.867 83.2267 187.509 85.4234C190.604 86.8878 192.712 91.057 193.831 97.9308C194.232 103.147 192.175 107.521 187.663 111.052Z" fill="#444444"/>
<path d="M166.37 47.0438C166.613 46.936 166.862 46.84 167.116 46.7563L171.428 45.2759C171.677 45.229 171.926 45.188 172.174 45.1529C172.514 44.7519 173.206 44.4119 174.406 44.033C178.668 42.6636 184.108 44.9409 186.046 50.0438C187.734 54.4909 189.977 59.514 189.768 59.58C189.724 59.5942 188.745 60.3145 187.404 60.7605C189.343 68.289 190.389 73.3288 190.539 75.8798C190.839 80.9608 189.177 84.3662 183.546 84.7978C177.915 85.2293 170.077 85.8373 169.156 84.1525C168.564 83.0692 165.781 76.3808 160.807 64.0872C158.947 64.7063 157.976 65.0232 157.893 65.0379C157.634 65.0843 156.751 62.0944 156.176 57.3666C155.517 51.9415 158.717 47.4171 164.019 46.4916C164.895 46.3348 165.679 46.5189 166.37 47.0438Z" fill="#FF5645"/>
<path opacity="0.176986" d="M166.383 47.0536C161.11 49.3031 158.491 57.0071 160.247 62.704C160.441 63.1711 160.632 63.6306 160.821 64.0826C158.952 64.7047 157.976 65.0231 157.893 65.0379C157.634 65.0844 156.751 62.0944 156.176 57.3666C155.517 51.9415 158.717 47.4171 164.019 46.4916C164.901 46.3338 165.689 46.5212 166.383 47.0536Z" fill="#444444"/>
<path d="M157.678 47.6878C157.678 47.6878 157.294 49.2398 159.335 48.811C161.375 48.3821 161.961 48.1779 161.961 48.1779L161.436 46.7688L157.678 47.6878Z" fill="#482D1F"/>
<path d="M169.214 46.596L172.972 64.6379L173.865 59.7401C178.574 60.6888 182.406 61.1631 185.361 61.163C185.377 61.163 185.393 61.1629 185.409 61.1627C184.743 63.7821 183.165 75.1482 180.71 79.5459C177.607 85.1052 175.795 85.7157 171.213 85.2614C170.743 85.2149 170.301 85.1295 169.883 85.0055C170.083 85.0726 170.29 85.1291 170.503 85.1748L146.794 85.5495L146.792 85.5561L146.72 85.5507L146.621 85.5522C146.578 85.5529 146.535 85.5464 146.494 85.5336L136.735 84.7959C135.222 84.6816 133.832 83.912 132.923 82.6851L131.647 80.9636C131.404 80.6356 131.246 80.2512 131.187 79.8456C130.995 78.5061 131.914 77.2629 133.239 77.0688L136.366 76.6108C138.313 76.3256 140.29 76.3293 142.236 76.6218L148.279 77.5303C152.823 76.0619 158.885 74.1333 160.399 73.8009L158.519 64.8312L160.741 63.9343C161.439 65.5718 162.095 67.11 162.71 68.5488C162.013 61.7129 162.092 54.1637 161.254 47.4576L159.153 47.504C157.9 48.0145 155.274 48.8722 154.991 47.0547C154.991 47.0547 158.466 45.6047 160.91 44.5428L161.092 44.3794C161.254 44.2365 161.395 44.1548 161.597 44.0935C161.638 44.0731 161.678 44.0731 161.719 44.0731L161.853 44.0533C161.489 44.0813 161.233 44.0746 161.145 44.0647C159.455 43.9887 157.384 40.9123 156.387 36.429C156.295 36.0681 156.263 35.7019 156.212 35.3375L155.957 31.6906C155.886 30.8768 156.039 30.0638 156.382 29.3365C156.415 29.2516 156.45 29.187 156.485 29.1224C156.608 28.9065 156.731 28.6906 156.858 28.5154C157.345 27.8163 157.949 27.2914 158.585 26.9072C160.098 26.1174 161.866 25.92 162.863 25.9549C163.005 25.9628 163.454 25.9847 164.085 26.0109C164.681 26.1016 165.251 26.1332 165.837 26.1019C166.16 26.0938 166.426 26.3572 166.455 26.6827L166.704 31.9086C166.706 31.9473 166.716 32.0018 166.734 32.0722C168.768 31.2213 170.225 31.7068 171.103 33.5286C172.421 36.2613 171.228 35.6701 170.642 36.3984C170.22 36.9072 169.694 37.1587 169.34 37.2925C169.274 37.3068 169.207 37.3459 169.148 37.4002L170.73 37.4156L171.01 38.5388L171.113 39.9647L172.153 45.1822C172.153 45.1822 170.686 46.0091 169.214 46.596ZM165.681 43.4913L165.562 42.9051C165.512 42.9265 165.462 42.9481 165.41 42.97C163.729 43.6927 163.826 43.6431 163.709 43.6945C163.457 43.774 163.211 43.8374 162.979 43.8878L164.79 43.6238L165.681 43.4913ZM182.204 147.979H168.927L169.213 143.467C170.845 143.934 172.126 144.208 176.513 144.367C176.816 144.385 177.119 144.367 177.402 144.348C179.561 144.17 181.205 143.923 182.389 143.689L183.546 147.92L182.204 147.979ZM161.98 142.534L162.558 146.399H148.014L148.974 144.209C150.601 144.017 152.644 143.695 155.238 143.378C158.307 143.004 160.468 142.846 161.98 142.534Z" fill="#F9BDA3"/>
<path d="M166.915 43.3352L166.152 43.4432L165.725 43.5067C165.71 43.5027 165.696 43.4985 165.681 43.4941L165.562 42.904L167.73 41.959C167.438 42.6388 167.166 43.0975 166.915 43.3352Z" fill="#482D1F"/>
<path d="M157.667 35.9878C157.739 36.3504 157.871 36.9333 157.732 37.212C157.508 37.6624 156.719 36.7482 156.78 36.0458C156.815 35.7556 156.946 35.6211 157.107 35.6069C157.367 35.5634 157.604 35.7269 157.667 35.9878ZM161.961 35.2186C162.033 35.5812 162.164 36.1641 162.026 36.4428C161.802 36.8932 161.013 35.9789 161.074 35.2766C161.109 34.9864 161.24 34.8519 161.401 34.8376C161.66 34.7942 161.898 34.9577 161.961 35.2186Z" fill="#482D1F"/>
<path d="M158.658 35.9434L158.653 37.9938C158.674 38.2454 158.88 38.4636 159.117 38.4426C159.257 38.4418 159.346 38.4339 159.704 38.3952C159.864 38.378 159.974 38.3669 160.103 38.3554C160.214 38.3456 160.297 38.2465 160.287 38.1342C160.277 38.0218 160.179 37.9387 160.068 37.9485C159.935 37.9603 159.823 37.9716 159.661 37.9891C159.318 38.0261 159.234 38.0335 159.097 38.035C159.089 38.0351 159.059 38.0026 159.056 37.9765L159.062 35.9444C159.062 35.8316 158.972 35.7399 158.861 35.7397C158.749 35.7394 158.658 35.8306 158.658 35.9434Z" fill="#482D1F"/>
<path d="M160.507 39.5086C160.644 39.4555 160.974 39.2828 160.997 39.0758C160.993 39.0351 161.008 38.9723 160.986 38.9538C160.897 38.8592 160.642 38.9637 160.285 39.0567C159.65 39.2154 159.106 39.2635 159.106 39.2635C159.106 39.2635 159.317 39.5933 159.427 39.6861C159.669 39.9107 160.292 39.6096 160.507 39.5086Z" fill="#482D1F"/>
<path d="M165.388 33.7079L166.058 33.4778C166.44 33.3463 166.635 33.9263 166.253 34.0578L165.583 34.288L165.078 34.4615C165.135 34.6515 165.174 34.8502 165.192 35.0559C165.33 36.6514 164.162 38.0579 162.584 38.1975C161.21 38.3189 159.979 37.4413 159.591 36.1604L159.237 36.2167L158.945 36.2631C159.004 37.7995 157.86 39.1278 156.328 39.2632C154.75 39.4028 153.358 38.2225 153.22 36.6271C153.082 35.0316 154.25 33.625 155.828 33.4855C157.244 33.3603 158.517 34.2987 158.858 35.6567L159.143 35.6115L159.237 36.2167C158.89 35.9569 158.889 35.9481 158.888 35.9393L158.571 35.7025L158.858 35.6567C158.872 35.7134 158.885 35.7709 158.896 35.829C158.922 35.7244 159.001 35.634 159.143 35.6115L159.475 35.5585C159.339 33.9642 160.506 32.5593 162.084 32.4197C163.246 32.317 164.306 32.9294 164.84 33.8962L165.388 33.7079ZM158.665 36.3077C158.498 36.3343 158.342 36.2176 158.318 36.0484C158.294 35.8826 158.407 35.7285 158.571 35.7025L159.143 35.6115L159.475 35.5585C159.476 35.5595 159.476 35.5604 159.476 35.5614C159.494 35.7687 159.533 35.9691 159.591 36.1604L159.237 36.2167L158.665 36.3077ZM159.237 36.2167C159.092 36.2397 158.988 36.1748 158.932 36.0797L159.237 36.2167ZM162.531 37.5872C163.776 37.4771 164.697 36.3677 164.588 35.1093C164.479 33.8509 163.381 32.92 162.137 33.0301C160.892 33.1402 159.971 34.2496 160.08 35.508C160.188 36.7664 161.286 37.6973 162.531 37.5872ZM155.881 34.0958C154.636 34.2059 153.715 35.3153 153.824 36.5737C153.933 37.8321 155.03 38.763 156.275 38.6529C157.52 38.5428 158.441 37.4334 158.332 36.175C158.329 36.1325 158.324 36.0903 158.318 36.0484C158.148 34.8503 157.079 33.9898 155.881 34.0958Z" fill="#482D1F"/>
<path opacity="0.2" d="M170.491 85.1748L146.782 85.5495L146.78 85.5561L146.708 85.5507L146.61 85.5522C146.566 85.5529 146.523 85.5464 146.483 85.5336L136.723 84.7959C135.211 84.6816 133.821 83.912 132.911 82.6851L131.635 80.9637C131.392 80.6357 131.234 80.2512 131.176 79.8456C130.984 78.5062 131.902 77.263 133.227 77.0688L136.354 76.6108C138.301 76.3256 140.278 76.3293 142.224 76.6218L148.268 77.5304C152.811 76.0619 158.874 74.1333 160.387 73.801L158.508 64.8312L160.73 63.9343C161.468 65.6675 162.16 67.2894 162.806 68.7999C162.919 69.6987 163.049 70.5933 163.202 71.4825C164.694 79.5057 166.423 84.3009 170.491 85.1748Z" fill="#F9BDA3"/>
<path d="M172.763 64.7454C172.715 64.5832 172.807 64.4128 172.967 64.3647C173.127 64.3166 173.296 64.4091 173.344 64.5713L175.344 71.3922C175.391 71.5544 175.3 71.7249 175.139 71.773C174.979 71.821 174.81 71.7285 174.763 71.5663L172.763 64.7454ZM185.421 61.413C185.254 61.4118 185.119 61.2736 185.12 61.1044C185.122 60.9353 185.258 60.7991 185.426 60.8004C186.269 60.8068 187.06 60.6825 187.801 60.428C187.96 60.3736 188.132 60.4593 188.186 60.6194C188.24 60.7796 188.155 60.9536 187.996 61.0081C187.19 61.2851 186.331 61.4199 185.421 61.413Z" fill="#482D1F"/>
<path d="M168.651 37.2186C168.958 37.1282 169.866 36.9265 170.424 36.2331C171.012 35.5251 171.301 34.4131 170.867 33.3854C170.477 32.3949 169.439 31.6462 168.475 31.752C167.933 31.8204 167.513 32.1241 167.456 32.1701C166.792 32.7003 166.527 33.3798 166.527 33.3798L166.366 33.8541C166.286 33.7482 166.21 33.6491 166.137 33.5578C164.59 32.0955 163.698 31.081 162.131 29.6205C161.344 29.8952 156.288 31.7142 155.908 31.5428C155.908 29.4678 156.659 28.7999 156.786 28.6247C157.273 27.9256 157.985 27.2472 158.621 26.863C160.135 26.0731 161.902 25.8758 162.899 25.9107C163.042 25.9185 163.49 25.9404 164.121 25.9666C164.304 25.9709 164.487 25.9753 164.71 25.976C165.237 25.9704 165.643 25.9755 165.886 25.9745C168.963 25.9074 170.122 25.4769 171.724 26.1757C171.817 26.2193 171.949 26.282 172.104 26.3683C172.211 26.0858 172.335 25.823 172.459 25.5795C175.846 18.9454 179.96 20.4472 179.96 20.4718C179.96 20.4964 183.077 20.4964 183.875 23.71C183.954 24.0293 184.513 26.285 183.62 28.1448C182.421 30.5782 178.846 32.0764 174.778 31.0538C174.828 31.7654 174.78 32.3482 174.759 32.6518C174.537 35.0084 173.266 36.4943 172.894 37.1217C172.399 37.9581 171.787 38.7999 171.058 39.6469C170.149 39.095 169.454 38.4509 168.971 37.7146C168.866 37.5526 168.759 37.3867 168.651 37.2186Z" fill="#482D1F"/>
</g>
<path d="M68.1016 127.754C68.1355 127.752 68.1696 127.751 68.204 127.751H108.96C109.752 127.751 110.394 128.388 110.394 129.174C110.394 129.961 109.752 130.598 108.96 130.598H68.204C68.1696 130.598 68.1355 130.597 68.1016 130.595V158.771C68.1016 159.557 67.4598 160.195 66.668 160.195C65.8762 160.195 65.2344 159.557 65.2344 158.771L65.2344 84.5256C65.2344 83.8404 65.7217 83.2682 66.3708 83.1323C66.5545 83.0474 66.7593 83 66.9752 83H188.834C189.626 83 190.268 83.6375 190.268 84.4239C190.268 85.2103 189.626 85.8478 188.834 85.8478H68.1016V127.754Z" fill="#D8DEED"/>
<path d="M108.633 82.3963C108.805 82.7008 109.131 82.9066 109.504 82.9066H134.266C134.817 82.9066 135.248 82.457 135.248 81.9036C135.248 81.3503 134.8 80.9006 134.266 80.9006H110.18L101.784 58.2292C101.595 57.7104 101.026 57.451 100.509 57.6412C99.9921 57.8315 99.7336 58.4021 99.9232 58.9209L108.556 82.2322C108.577 82.2902 108.603 82.345 108.633 82.3963Z" fill="#474961"/>
<defs>
<clipPath id="clip0_99_934">
<rect width="127.792" height="98.5826" fill="white"/>
</clipPath>
<clipPath id="clip1_99_934">
<rect width="105.463" height="154.389" fill="white" transform="translate(108.725 6.5235)"/>
</clipPath>
</defs>
</svg>
