<svg width="50" height="50" viewBox="0 0 50 50" fill="none" xmlns="http://www.w3.org/2000/svg">
<g clip-path="url(#clip0_5738_76)">
<g filter="url(#filter0_i_5738_76)">
<path d="M27.3916 0.818966C26.7046 0.287527 25.8602 6.25064e-05 24.9916 0.00196248C24.1231 0.00386246 23.2799 0.295018 22.5952 0.829458L0.289535 18.8968C0.199111 18.9701 0.126189 19.0626 0.0760968 19.1676C0.0260043 19.2727 5.75456e-06 19.3876 0 19.5039L0 47.6554C0.000489707 48.277 0.247528 48.873 0.686917 49.3127C1.12631 49.7524 1.72216 49.9998 2.34375 50.0007H47.6562C48.2778 49.9998 48.8737 49.7524 49.3131 49.3127C49.7525 48.873 49.9995 48.277 50 47.6554V19.5039C50 19.3876 49.974 19.2727 49.9239 19.1676C49.8738 19.0626 49.8009 18.9701 49.7105 18.8968L27.3916 0.818966ZM48.4375 47.6554C48.4371 47.7137 48.4301 47.7717 48.4168 47.8285L27.3766 31.698C26.6942 31.176 25.859 30.8931 24.9999 30.8931C24.1408 30.893 23.3056 31.1758 22.6233 31.6978L1.5832 47.8285C1.56986 47.7717 1.56292 47.7137 1.5625 47.6554V45.8857L20.1327 31.6384L2.24593 19.3229L23.5655 2.05416C23.9734 1.73693 24.4749 1.56382 24.9916 1.56192C25.5084 1.56002 26.0111 1.72944 26.4213 2.04367L47.7541 19.3229L29.8672 31.6385L48.4375 45.7966V47.6554Z" fill="url(#paint0_linear_5738_76)"/>
</g>
<g filter="url(#filter1_b_5738_76)">
<path d="M33.4763 10.9352C32.9624 10.3242 32.3211 9.83298 31.5973 9.49599C30.8734 9.15899 30.0847 8.98438 29.2863 8.98438C28.4879 8.98438 27.6991 9.15899 26.9753 9.49599C26.2515 9.83298 25.6102 10.3242 25.0962 10.9352L25 11.0439L24.9038 10.9352C24.3898 10.3242 23.7485 9.83298 23.0247 9.49599C22.3009 9.15899 21.5121 8.98438 20.7137 8.98438C19.9153 8.98438 19.1266 9.15899 18.4028 9.49599C17.679 9.83298 17.0376 10.3242 16.5237 10.9352C15.4389 12.2188 14.8438 13.845 14.8438 15.5255C14.8437 17.206 15.4388 18.8323 16.5235 20.1159L24.4143 29.0331C24.4877 29.116 24.5779 29.1824 24.6789 29.2279C24.7799 29.2734 24.8894 29.2969 25.0002 29.2969C25.111 29.2969 25.2205 29.2734 25.3215 29.2279C25.4225 29.1824 25.5127 29.116 25.5861 29.0331L33.4763 20.116C34.5611 18.8325 35.1562 17.2062 35.1562 15.5256C35.1562 13.8451 34.5611 12.2188 33.4763 10.9352Z" fill="#B4CBF9"/>
</g>
<g filter="url(#filter2_i_5738_76)">
<path d="M49.2188 0C49.0116 1.03591e-05 48.8128 0.0823237 48.6663 0.228834C48.5198 0.375345 48.4375 0.574053 48.4375 0.78125V8.59375C48.4375 8.80095 48.5198 8.99966 48.6663 9.14618C48.8128 9.29269 49.0115 9.375 49.2188 9.375C49.426 9.375 49.6247 9.29269 49.7712 9.14618C49.9177 8.99966 50 8.80095 50 8.59375V0.78125C50 0.574053 49.9177 0.375345 49.7712 0.228834C49.6247 0.0823237 49.4259 1.03591e-05 49.2188 0V0Z" fill="url(#paint1_linear_5738_76)"/>
</g>
<g filter="url(#filter3_i_5738_76)">
<path d="M46.875 3.90625V0.78125C46.875 0.57405 46.7927 0.375336 46.6462 0.228823C46.4997 0.08231 46.301 0 46.0938 0C45.8865 0 45.6878 0.08231 45.5413 0.228823C45.3948 0.375336 45.3125 0.57405 45.3125 0.78125V3.90625C45.3125 4.11345 45.3948 4.31216 45.5413 4.45868C45.6878 4.60519 45.8865 4.6875 46.0938 4.6875C46.301 4.6875 46.4997 4.60519 46.6462 4.45868C46.7927 4.31216 46.875 4.11345 46.875 3.90625Z" fill="url(#paint2_linear_5738_76)"/>
</g>
<g filter="url(#filter4_i_5738_76)">
<path d="M0.78125 9.375C0.988447 9.37499 1.18716 9.29268 1.33367 9.14617C1.48018 8.99966 1.56249 8.80095 1.5625 8.59375V0.78125C1.5625 0.57405 1.48019 0.375336 1.33368 0.228823C1.18716 0.08231 0.98845 0 0.78125 0C0.57405 0 0.375336 0.08231 0.228823 0.228823C0.08231 0.375336 0 0.57405 0 0.78125L0 8.59375C1.03591e-05 8.80095 0.0823237 8.99966 0.228834 9.14617C0.375345 9.29268 0.574053 9.37499 0.78125 9.375Z" fill="url(#paint3_linear_5738_76)"/>
</g>
<g filter="url(#filter5_i_5738_76)">
<path d="M4.6875 3.90625V0.78125C4.6875 0.57405 4.60519 0.375336 4.45868 0.228823C4.31216 0.08231 4.11345 0 3.90625 0C3.69905 0 3.50034 0.08231 3.35382 0.228823C3.20731 0.375336 3.125 0.57405 3.125 0.78125V3.90625C3.125 4.11345 3.20731 4.31216 3.35382 4.45868C3.50034 4.60519 3.69905 4.6875 3.90625 4.6875C4.11345 4.6875 4.31216 4.60519 4.45868 4.45868C4.60519 4.31216 4.6875 4.11345 4.6875 3.90625Z" fill="url(#paint4_linear_5738_76)"/>
</g>
</g>
<defs>
<filter id="filter0_i_5738_76" x="-1" y="0.00195312" width="51" height="51.9985" filterUnits="userSpaceOnUse" color-interpolation-filters="sRGB">
<feFlood flood-opacity="0" result="BackgroundImageFix"/>
<feBlend mode="normal" in="SourceGraphic" in2="BackgroundImageFix" result="shape"/>
<feColorMatrix in="SourceAlpha" type="matrix" values="0 0 0 0 0 0 0 0 0 0 0 0 0 0 0 0 0 0 127 0" result="hardAlpha"/>
<feOffset dx="-1" dy="2"/>
<feGaussianBlur stdDeviation="3"/>
<feComposite in2="hardAlpha" operator="arithmetic" k2="-1" k3="1"/>
<feColorMatrix type="matrix" values="0 0 0 0 1 0 0 0 0 1 0 0 0 0 1 0 0 0 0.25 0"/>
<feBlend mode="normal" in2="shape" result="effect1_innerShadow_5738_76"/>
</filter>
<filter id="filter1_b_5738_76" x="-67.1562" y="-73.0156" width="184.312" height="184.312" filterUnits="userSpaceOnUse" color-interpolation-filters="sRGB">
<feFlood flood-opacity="0" result="BackgroundImageFix"/>
<feGaussianBlur in="BackgroundImage" stdDeviation="41"/>
<feComposite in2="SourceAlpha" operator="in" result="effect1_backgroundBlur_5738_76"/>
<feBlend mode="normal" in="SourceGraphic" in2="effect1_backgroundBlur_5738_76" result="shape"/>
</filter>
<filter id="filter2_i_5738_76" x="48.4375" y="0" width="1.5625" height="11.375" filterUnits="userSpaceOnUse" color-interpolation-filters="sRGB">
<feFlood flood-opacity="0" result="BackgroundImageFix"/>
<feBlend mode="normal" in="SourceGraphic" in2="BackgroundImageFix" result="shape"/>
<feColorMatrix in="SourceAlpha" type="matrix" values="0 0 0 0 0 0 0 0 0 0 0 0 0 0 0 0 0 0 127 0" result="hardAlpha"/>
<feOffset dy="2"/>
<feGaussianBlur stdDeviation="2"/>
<feComposite in2="hardAlpha" operator="arithmetic" k2="-1" k3="1"/>
<feColorMatrix type="matrix" values="0 0 0 0 1 0 0 0 0 1 0 0 0 0 1 0 0 0 0.25 0"/>
<feBlend mode="normal" in2="shape" result="effect1_innerShadow_5738_76"/>
</filter>
<filter id="filter3_i_5738_76" x="45.3125" y="0" width="1.5625" height="6.6875" filterUnits="userSpaceOnUse" color-interpolation-filters="sRGB">
<feFlood flood-opacity="0" result="BackgroundImageFix"/>
<feBlend mode="normal" in="SourceGraphic" in2="BackgroundImageFix" result="shape"/>
<feColorMatrix in="SourceAlpha" type="matrix" values="0 0 0 0 0 0 0 0 0 0 0 0 0 0 0 0 0 0 127 0" result="hardAlpha"/>
<feOffset dy="2"/>
<feGaussianBlur stdDeviation="2"/>
<feComposite in2="hardAlpha" operator="arithmetic" k2="-1" k3="1"/>
<feColorMatrix type="matrix" values="0 0 0 0 1 0 0 0 0 1 0 0 0 0 1 0 0 0 0.25 0"/>
<feBlend mode="normal" in2="shape" result="effect1_innerShadow_5738_76"/>
</filter>
<filter id="filter4_i_5738_76" x="0" y="0" width="1.5625" height="11.375" filterUnits="userSpaceOnUse" color-interpolation-filters="sRGB">
<feFlood flood-opacity="0" result="BackgroundImageFix"/>
<feBlend mode="normal" in="SourceGraphic" in2="BackgroundImageFix" result="shape"/>
<feColorMatrix in="SourceAlpha" type="matrix" values="0 0 0 0 0 0 0 0 0 0 0 0 0 0 0 0 0 0 127 0" result="hardAlpha"/>
<feOffset dy="2"/>
<feGaussianBlur stdDeviation="2"/>
<feComposite in2="hardAlpha" operator="arithmetic" k2="-1" k3="1"/>
<feColorMatrix type="matrix" values="0 0 0 0 1 0 0 0 0 1 0 0 0 0 1 0 0 0 0.25 0"/>
<feBlend mode="normal" in2="shape" result="effect1_innerShadow_5738_76"/>
</filter>
<filter id="filter5_i_5738_76" x="3.125" y="0" width="1.5625" height="6.6875" filterUnits="userSpaceOnUse" color-interpolation-filters="sRGB">
<feFlood flood-opacity="0" result="BackgroundImageFix"/>
<feBlend mode="normal" in="SourceGraphic" in2="BackgroundImageFix" result="shape"/>
<feColorMatrix in="SourceAlpha" type="matrix" values="0 0 0 0 0 0 0 0 0 0 0 0 0 0 0 0 0 0 127 0" result="hardAlpha"/>
<feOffset dy="2"/>
<feGaussianBlur stdDeviation="2"/>
<feComposite in2="hardAlpha" operator="arithmetic" k2="-1" k3="1"/>
<feColorMatrix type="matrix" values="0 0 0 0 1 0 0 0 0 1 0 0 0 0 1 0 0 0 0.25 0"/>
<feBlend mode="normal" in2="shape" result="effect1_innerShadow_5738_76"/>
</filter>
<linearGradient id="paint0_linear_5738_76" x1="32.2891" y1="4.50024" x2="32.2875" y2="57.2896" gradientUnits="userSpaceOnUse">
<stop stop-color="#1E6BFF"/>
<stop offset="1" stop-color="#6A9CFF"/>
</linearGradient>
<linearGradient id="paint1_linear_5738_76" x1="48.2747" y1="3.71049" x2="50.5551" y2="4.09056" gradientUnits="userSpaceOnUse">
<stop stop-color="#2B73FF"/>
<stop offset="1" stop-color="#6A9CFF"/>
</linearGradient>
<linearGradient id="paint2_linear_5738_76" x1="45.1497" y1="1.85524" x2="47.259" y2="2.55837" gradientUnits="userSpaceOnUse">
<stop stop-color="#2B73FF"/>
<stop offset="1" stop-color="#6A9CFF"/>
</linearGradient>
<linearGradient id="paint3_linear_5738_76" x1="-0.16284" y1="3.71049" x2="2.11756" y2="4.09056" gradientUnits="userSpaceOnUse">
<stop stop-color="#2B73FF"/>
<stop offset="1" stop-color="#6A9CFF"/>
</linearGradient>
<linearGradient id="paint4_linear_5738_76" x1="2.96216" y1="1.85524" x2="5.07153" y2="2.55837" gradientUnits="userSpaceOnUse">
<stop stop-color="#2B73FF"/>
<stop offset="1" stop-color="#6A9CFF"/>
</linearGradient>
<clipPath id="clip0_5738_76">
<rect width="50" height="50" fill="white"/>
</clipPath>
</defs>
</svg>
