<svg width="17" height="16" viewBox="0 0 17 16" fill="none" xmlns="http://www.w3.org/2000/svg">
<path d="M10.1 2.42424C10.1 2.03847 9.93143 1.6685 9.63137 1.39572C9.33131 1.12294 8.92435 0.969697 8.5 0.969697C8.07565 0.969697 7.66869 1.12294 7.36863 1.39572C7.06857 1.6685 6.9 2.03847 6.9 2.42424H5.83333C5.83333 1.78129 6.11429 1.16468 6.61438 0.710044C7.11448 0.255411 7.79276 0 8.5 0C9.20724 0 9.88552 0.255411 10.3856 0.710044C10.8857 1.16468 11.1667 1.78129 11.1667 2.42424H15.9667C16.1081 2.42424 16.2438 2.47532 16.3438 2.56625C16.4438 2.65718 16.5 2.7805 16.5 2.90909C16.5 3.03768 16.4438 3.161 16.3438 3.25193C16.2438 3.34286 16.1081 3.39394 15.9667 3.39394H15.3757L13.9933 14.2836C13.9331 14.7563 13.684 15.1923 13.2932 15.5088C12.9024 15.8252 12.3972 16.0001 11.8739 16H5.12613C4.60277 16.0001 4.09764 15.8252 3.70685 15.5088C3.31605 15.1923 3.06685 14.7563 3.00667 14.2836L1.6232 3.39394H1.03333C0.908506 3.39398 0.787619 3.35421 0.691724 3.28156C0.595829 3.20891 0.531002 3.10799 0.508533 2.99636L0.5 2.90909C0.5 2.7805 0.55619 2.65718 0.65621 2.56625C0.756229 2.47532 0.891885 2.42424 1.03333 2.42424H10.1ZM14.3005 3.39394H2.6984L4.06587 14.1721C4.09597 14.4085 4.22065 14.6266 4.41616 14.7848C4.61167 14.9431 4.86436 15.0305 5.12613 15.0303H11.8739C12.1355 15.0302 12.3879 14.9427 12.5832 14.7845C12.7785 14.6263 12.903 14.4084 12.9331 14.1721L14.3005 3.39394ZM6.9 5.81818C7.16133 5.81818 7.38 5.96849 7.4248 6.1663L7.43333 6.24291V12.1823C7.43333 12.416 7.1944 12.6061 6.9 12.6061C6.63867 12.6061 6.42 12.4558 6.3752 12.2579L6.36667 12.1813V6.24388C6.36667 6.00921 6.6056 5.81915 6.9 5.81915V5.81818ZM10.1 5.81818C10.3613 5.81818 10.58 5.96849 10.6248 6.1663L10.6333 6.24291V12.1823C10.6333 12.416 10.3944 12.6061 10.1 12.6061C9.83867 12.6061 9.62 12.4558 9.5752 12.2579L9.56667 12.1813V6.24388C9.56667 6.00921 9.8056 5.81915 10.1 5.81915V5.81818Z" fill="black"/>
</svg>
