<svg width="25" height="25" viewBox="0 0 25 25" fill="none" xmlns="http://www.w3.org/2000/svg">
<path fill-rule="evenodd" clip-rule="evenodd" d="M16.4503 1.04297C16.8815 1.04297 17.2315 1.39297 17.2315 1.82422L17.232 2.70735C18.7529 2.81163 20.0161 3.3326 20.9102 4.22849C21.8862 5.2087 22.3997 6.61807 22.3946 8.3087V17.8118C22.3946 21.2827 20.1904 23.4389 16.6435 23.4389H7.83307C4.2862 23.4389 2.08203 21.2524 2.08203 17.7327V8.30662C2.08203 5.03286 4.04771 2.93145 7.25358 2.70771L7.25422 1.82422C7.25422 1.39297 7.60422 1.04297 8.03547 1.04297C8.46672 1.04297 8.81672 1.39297 8.81672 1.82422L8.81641 2.68776H15.6685L15.669 1.82422C15.669 1.39297 16.019 1.04297 16.4503 1.04297ZM16.8749 16.8724C17.3062 16.8724 17.6562 17.2224 17.6562 17.6537C17.6562 18.0849 17.3062 18.4349 16.8749 18.4349C16.4437 18.4349 16.0895 18.0849 16.0895 17.6537C16.0895 17.2224 16.4343 16.8724 16.8656 16.8724H16.8749ZM12.2526 16.8724C12.6838 16.8724 13.0338 17.2224 13.0338 17.6537C13.0338 18.0849 12.6838 18.4349 12.2526 18.4349C11.8213 18.4349 11.4671 18.0849 11.4671 17.6537C11.4671 17.2224 11.8119 16.8724 12.2432 16.8724H12.2526ZM7.62047 16.8724C8.05172 16.8724 8.40172 17.2224 8.40172 17.6537C8.40172 18.0849 8.05172 18.4349 7.62047 18.4349C7.18922 18.4349 6.83401 18.0849 6.83401 17.6537C6.83401 17.2224 7.17984 16.8724 7.61109 16.8724H7.62047ZM16.8749 12.8238C17.3062 12.8238 17.6562 13.1738 17.6562 13.6051C17.6562 14.0363 17.3062 14.3863 16.8749 14.3863C16.4437 14.3863 16.0895 14.0363 16.0895 13.6051C16.0895 13.1738 16.4343 12.8238 16.8656 12.8238H16.8749ZM12.2526 12.8238C12.6838 12.8238 13.0338 13.1738 13.0338 13.6051C13.0338 14.0363 12.6838 14.3863 12.2526 14.3863C11.8213 14.3863 11.4671 14.0363 11.4671 13.6051C11.4671 13.1738 11.8119 12.8238 12.2432 12.8238H12.2526ZM7.62047 12.8238C8.05172 12.8238 8.40172 13.1738 8.40172 13.6051C8.40172 14.0363 8.05172 14.3863 7.62047 14.3863C7.18922 14.3863 6.83401 14.0363 6.83401 13.6051C6.83401 13.1738 7.17984 12.8238 7.61109 12.8238H7.62047Z" fill="#F38F18" fill-opacity="0.1"/>
<path fill-rule="evenodd" clip-rule="evenodd" d="M16.4503 1.04297C16.8815 1.04297 17.2315 1.39297 17.2315 1.82422L17.232 2.70735C18.7529 2.81163 20.0161 3.3326 20.9102 4.22849C21.8862 5.2087 22.3997 6.61807 22.3946 8.3087V17.8118C22.3946 21.2827 20.1904 23.4389 16.6435 23.4389H7.83307C4.2862 23.4389 2.08203 21.2524 2.08203 17.7327V8.30661C2.08203 5.03286 4.04771 2.93145 7.25358 2.70771L7.25422 1.82422C7.25422 1.39297 7.60422 1.04297 8.03547 1.04297C8.46672 1.04297 8.81672 1.39297 8.81672 1.82422L8.81641 2.68776H15.6685L15.669 1.82422C15.669 1.39297 16.019 1.04297 16.4503 1.04297ZM20.832 10.318H3.64453V17.7327C3.64453 20.4056 5.13203 21.8764 7.83307 21.8764H16.6435C19.3445 21.8764 20.8321 20.4327 20.8321 17.8118L20.832 10.318ZM16.8749 16.8724C17.3062 16.8724 17.6562 17.2224 17.6562 17.6537C17.6562 18.0849 17.3062 18.4349 16.8749 18.4349C16.4437 18.4349 16.0895 18.0849 16.0895 17.6537C16.0895 17.2224 16.4343 16.8724 16.8656 16.8724H16.8749ZM12.2526 16.8724C12.6838 16.8724 13.0338 17.2224 13.0338 17.6537C13.0338 18.0849 12.6838 18.4349 12.2526 18.4349C11.8213 18.4349 11.4671 18.0849 11.4671 17.6537C11.4671 17.2224 11.8119 16.8724 12.2432 16.8724H12.2526ZM7.62047 16.8724C8.05172 16.8724 8.40172 17.2224 8.40172 17.6537C8.40172 18.0849 8.05172 18.4349 7.62047 18.4349C7.18922 18.4349 6.83401 18.0849 6.83401 17.6537C6.83401 17.2224 7.17984 16.8724 7.61109 16.8724H7.62047ZM16.8749 12.8238C17.3062 12.8238 17.6562 13.1738 17.6562 13.6051C17.6562 14.0363 17.3062 14.3863 16.8749 14.3863C16.4437 14.3863 16.0895 14.0363 16.0895 13.6051C16.0895 13.1738 16.4343 12.8238 16.8656 12.8238H16.8749ZM12.2526 12.8238C12.6838 12.8238 13.0338 13.1738 13.0338 13.6051C13.0338 14.0363 12.6838 14.3863 12.2526 14.3863C11.8213 14.3863 11.4671 14.0363 11.4671 13.6051C11.4671 13.1738 11.8119 12.8238 12.2432 12.8238H12.2526ZM7.62047 12.8238C8.05172 12.8238 8.40172 13.1738 8.40172 13.6051C8.40172 14.0363 8.05172 14.3863 7.62047 14.3863C7.18922 14.3863 6.83401 14.0363 6.83401 13.6051C6.83401 13.1738 7.17984 12.8238 7.61109 12.8238H7.62047ZM15.6685 4.25026H8.81641L8.81672 5.25234C8.81672 5.68359 8.46672 6.03359 8.03547 6.03359C7.60422 6.03359 7.25422 5.68359 7.25422 5.25234L7.25366 4.27391C4.92009 4.46994 3.64453 5.88448 3.64453 8.30661V8.75547H20.832L20.8321 8.30661C20.8362 7.02016 20.4904 6.02016 19.8039 5.33266C19.2013 4.72829 18.3204 4.36734 17.2324 4.27441L17.2315 5.25234C17.2315 5.68359 16.8815 6.03359 16.4503 6.03359C16.019 6.03359 15.669 5.68359 15.669 5.25234L15.6685 4.25026Z" fill="#F38F18"/>
</svg>
