<svg width="25" height="24" viewBox="0 0 25 24" fill="none" xmlns="http://www.w3.org/2000/svg">
<path d="M23.2538 3.27649L11.275 15.2016L6.71555 10.5773C6.46047 10.3203 6.07647 10.319 5.81956 10.5741C5.56264 10.8291 5.56127 11.2131 5.81635 11.47L10.8223 16.512C10.9498 16.6405 11.1096 16.7051 11.2696 16.7056C11.4296 16.7062 11.5898 16.6428 11.7183 16.5152L24.1466 4.1757C24.4035 3.92062 24.4049 3.53662 24.1498 3.2797C23.9266 3.0549 23.5106 3.05341 23.2538 3.27649Z" fill="white"/>
<path d="M12.0457 23.2999C18.2216 23.322 23.2636 18.316 23.2857 12.1401C23.2894 11.1161 23.1652 10.0596 22.8806 9.09861C22.7859 8.74626 22.4346 8.553 22.0822 8.64774C21.7299 8.74248 21.5366 9.09379 21.6314 9.44613C21.8843 10.311 22.009 11.2395 22.0056 12.1675C21.986 17.6395 17.5221 22.0715 12.0501 22.0519C6.57818 22.0323 2.14626 17.5363 2.16587 12.0644C2.18549 6.59241 6.6494 2.16039 12.1214 2.18C14.4574 2.18837 16.7264 3.02851 18.513 4.53892C18.7681 4.76384 19.1843 4.73333 19.4092 4.47813C19.6341 4.22294 19.6036 3.80683 19.3484 3.58191C17.3386 1.84669 14.7499 0.909411 12.126 0.900006C5.94999 0.87787 0.908019 5.88383 0.885883 12.0598C0.863747 18.2358 5.86971 23.2777 12.0457 23.2999Z" fill="white"/>
</svg>
