<svg width="25" height="25" viewBox="0 0 25 25" fill="none" xmlns="http://www.w3.org/2000/svg">
<path fill-rule="evenodd" clip-rule="evenodd" d="M12.4987 2.08203C18.2424 2.08203 22.9154 6.75495 22.9154 12.4987C22.9154 18.2424 18.2424 22.9154 12.4987 22.9154C6.75495 22.9154 2.08203 18.2424 2.08203 12.4987C2.08203 6.75495 6.75495 2.08203 12.4987 2.08203ZM12.1458 7.38974C12.5781 7.38974 12.927 7.73974 12.927 8.17099V12.7772L16.4739 14.8918C16.8437 15.1137 16.9656 15.5929 16.7447 15.9637C16.5979 16.2085 16.3385 16.3449 16.0729 16.3449C15.9364 16.3449 15.7989 16.3095 15.6729 16.2356L11.7458 13.8929C11.5104 13.7512 11.3645 13.496 11.3645 13.221V8.17099C11.3645 7.73974 11.7145 7.38974 12.1458 7.38974Z" fill="#188AF3" fill-opacity="0.1"/>
<path fill-rule="evenodd" clip-rule="evenodd" d="M12.4987 2.08203C18.2424 2.08203 22.9154 6.75495 22.9154 12.4987C22.9154 18.2424 18.2424 22.9154 12.4987 22.9154C6.75495 22.9154 2.08203 18.2424 2.08203 12.4987C2.08203 6.75495 6.75495 2.08203 12.4987 2.08203ZM12.4987 3.64453C7.61641 3.64453 3.64453 7.61641 3.64453 12.4987C3.64453 17.381 7.61641 21.3529 12.4987 21.3529C17.381 21.3529 21.3529 17.381 21.3529 12.4987C21.3529 7.61641 17.381 3.64453 12.4987 3.64453ZM12.1458 7.38974C12.5781 7.38974 12.927 7.73974 12.927 8.17099V12.7772L16.4739 14.8918C16.8437 15.1137 16.9656 15.5929 16.7447 15.9637C16.5979 16.2085 16.3385 16.3449 16.0729 16.3449C15.9364 16.3449 15.7989 16.3095 15.6729 16.2356L11.7458 13.8929C11.5104 13.7512 11.3645 13.496 11.3645 13.221V8.17099C11.3645 7.73974 11.7145 7.38974 12.1458 7.38974Z" fill="#188AF3"/>
</svg>
