<svg width="434" height="298" viewBox="0 0 434 298" fill="none" xmlns="http://www.w3.org/2000/svg">
<g filter="url(#filter0_d_10557_2699)">
<rect x="28" y="34" width="353" height="235.758" rx="20" fill="white"/>
</g>
<g filter="url(#filter1_d_10557_2699)">
<rect x="53.6113" y="169.398" width="139.58" height="61.1697" rx="12" fill="white"/>
</g>
<rect opacity="0.65" x="70.5605" y="187.24" width="103.224" height="10.1949" rx="5.09747" fill="url(#paint0_linear_10557_2699)"/>
<rect opacity="0.4" x="70.5605" y="206.354" width="33.2944" height="5.09747" rx="2.54874" fill="url(#paint1_linear_10557_2699)"/>
<g filter="url(#filter2_d_10557_2699)">
<rect x="220" y="169" width="186" height="62" rx="12" fill="white"/>
</g>
<rect opacity="0.65" x="235.794" y="187.24" width="150.87" height="10.1949" rx="5.09747" fill="url(#paint2_linear_10557_2699)"/>
<rect opacity="0.4" x="235.794" y="206.354" width="33.2944" height="5.09747" rx="2.54874" fill="url(#paint3_linear_10557_2699)"/>
<g filter="url(#filter3_d_10557_2699)">
<rect x="53" y="77" width="269" height="60" rx="12" fill="white"/>
</g>
<rect opacity="0.65" x="113" y="89" width="186" height="8" rx="4" fill="url(#paint4_linear_10557_2699)"/>
<rect opacity="0.4" x="112.517" y="105.951" width="60.186" height="5.09747" rx="2.54874" fill="url(#paint5_linear_10557_2699)"/>
<rect opacity="0.4" x="112.517" y="117.421" width="90.9192" height="5.09747" rx="2.54874" fill="url(#paint6_linear_10557_2699)"/>
<g clip-path="url(#clip0_10557_2699)">
<path d="M70.2583 102.702C70.2583 94.6438 76.8615 88.1113 84.9197 88.1113V88.1113C92.9779 88.1113 99.5811 94.6438 99.5811 102.702V102.702C99.5811 110.76 92.9779 117.293 84.9197 117.293V117.293C76.8615 117.293 70.2583 110.76 70.2583 102.702V102.702Z" fill="url(#paint7_linear_10557_2699)"/>
<path d="M93.9119 110.97C94.6286 112.332 94.987 117.292 94.987 117.292H74.8521C74.8521 117.292 75.2105 112.332 75.9272 110.97C77.0024 108.927 84.9195 106.301 84.9195 106.301C84.9195 106.301 92.8367 108.927 93.9119 110.97Z" fill="url(#paint8_linear_10557_2699)"/>
<path d="M84.5288 114.959C84.5288 114.882 84.5517 114.806 84.5947 114.742C84.6377 114.678 84.6987 114.629 84.7702 114.599C84.8416 114.57 84.9202 114.562 84.9961 114.577C85.0719 114.592 85.1416 114.629 85.1962 114.683C85.2509 114.738 85.2882 114.807 85.3032 114.883C85.3183 114.958 85.3106 115.036 85.281 115.107C85.2514 115.179 85.2013 115.239 85.137 115.282C85.0727 115.325 84.9971 115.348 84.9198 115.348C84.8161 115.348 84.7166 115.307 84.6433 115.234C84.57 115.161 84.5288 115.062 84.5288 114.959ZM84.5288 113.013C84.5288 112.936 84.5517 112.861 84.5947 112.797C84.6377 112.733 84.6987 112.683 84.7702 112.654C84.8416 112.624 84.9202 112.617 84.9961 112.632C85.0719 112.647 85.1416 112.684 85.1962 112.738C85.2509 112.792 85.2882 112.862 85.3032 112.937C85.3183 113.013 85.3106 113.091 85.281 113.162C85.2514 113.233 85.2013 113.294 85.137 113.337C85.0727 113.379 84.9971 113.402 84.9198 113.402C84.8161 113.402 84.7166 113.361 84.6433 113.288C84.57 113.215 84.5288 113.116 84.5288 113.013ZM84.5288 111.068C84.5288 110.991 84.5517 110.916 84.5947 110.852C84.6377 110.788 84.6987 110.738 84.7702 110.708C84.8416 110.679 84.9202 110.671 84.9961 110.686C85.0719 110.701 85.1416 110.738 85.1962 110.793C85.2509 110.847 85.2882 110.916 85.3032 110.992C85.3183 111.067 85.3106 111.146 85.281 111.217C85.2514 111.288 85.2013 111.349 85.137 111.391C85.0727 111.434 84.9971 111.457 84.9198 111.457C84.8161 111.457 84.7166 111.416 84.6433 111.343C84.57 111.27 84.5288 111.171 84.5288 111.068Z" fill="white"/>
<path d="M93.2735 105.174L77.3946 103.264C76.6117 99.1284 77.5403 96.5226 80.1802 95.4468C81.4006 91.4674 86.1506 91.7911 87.497 92.1155C92.0788 93.2196 94.0043 97.5724 93.2735 105.174Z" fill="url(#paint9_linear_10557_2699)"/>
<path d="M82.5739 107.469V101.632C80.1283 101.596 80.6053 97.3786 83.0626 98.6657C83.5024 98.8602 84.6265 98.3253 84.2355 97.0121C86.8746 98.9575 90.552 95.5433 90.7843 97.6444C91.2412 101.779 90.357 105.178 88.0125 105.178C87.7627 105.188 87.5125 105.173 87.2655 105.134V107.469C86.5002 107.923 85.7349 108.15 84.9696 108.15C84.2042 108.15 83.4057 107.923 82.5739 107.469Z" fill="#FFDBC9"/>
<path d="M87.2652 105.133V105.912C85.7991 105.912 84.6588 105.215 83.8442 103.82C84.8217 104.469 85.962 104.907 87.2652 105.133Z" fill="#FFBC9E"/>
<path d="M84.9165 108.049C85.5852 108.017 87.2656 107.673 87.2656 106.929V106.301C87.4449 106.301 87.9581 106.722 88.2221 107.079C89.2656 108.489 88.1081 109.754 87.1641 109.754C85.973 109.754 85.1837 108.763 84.9198 108.287C84.6559 108.764 83.8665 109.754 82.6754 109.754C81.7314 109.754 80.5739 108.489 81.6174 107.079C81.8814 106.722 82.3947 106.301 82.5739 106.301V106.929C82.5739 107.673 84.2102 108.017 84.9165 108.049Z" fill="white"/>
</g>
<g filter="url(#filter4_d_10557_2699)">
<rect x="317" y="16" width="51.2221" height="50.9747" rx="5" fill="#20A4E9"/>
</g>
<path d="M342.036 26.4307C338.209 26.4307 335.099 29.5413 335.099 33.3676C335.099 37.1208 338.034 40.1584 341.86 40.2899C341.977 40.2753 342.094 40.2753 342.182 40.2899C342.211 40.2899 342.225 40.2899 342.255 40.2899C342.269 40.2899 342.269 40.2899 342.284 40.2899C346.022 40.1584 348.958 37.1208 348.972 33.3676C348.972 29.5413 345.862 26.4307 342.036 26.4307Z" fill="white"/>
<path d="M349.454 44.174C345.38 41.4576 338.735 41.4576 334.631 44.174C332.777 45.4153 331.754 47.0948 331.754 48.8911C331.754 50.6874 332.777 52.3522 334.617 53.579C336.661 54.9517 339.348 55.6381 342.036 55.6381C344.723 55.6381 347.41 54.9517 349.454 53.579C351.295 52.3376 352.317 50.6728 352.317 48.8619C352.302 47.0656 351.295 45.4007 349.454 44.174Z" fill="white"/>
<defs>
<filter id="filter0_d_10557_2699" x="0" y="6" width="409" height="291.758" filterUnits="userSpaceOnUse" color-interpolation-filters="sRGB">
<feFlood flood-opacity="0" result="BackgroundImageFix"/>
<feColorMatrix in="SourceAlpha" type="matrix" values="0 0 0 0 0 0 0 0 0 0 0 0 0 0 0 0 0 0 127 0" result="hardAlpha"/>
<feMorphology radius="4" operator="dilate" in="SourceAlpha" result="effect1_dropShadow_10557_2699"/>
<feOffset/>
<feGaussianBlur stdDeviation="12"/>
<feComposite in2="hardAlpha" operator="out"/>
<feColorMatrix type="matrix" values="0 0 0 0 0.282353 0 0 0 0 0.290196 0 0 0 0 0.619608 0 0 0 0.06 0"/>
<feBlend mode="normal" in2="BackgroundImageFix" result="effect1_dropShadow_10557_2699"/>
<feBlend mode="normal" in="SourceGraphic" in2="effect1_dropShadow_10557_2699" result="shape"/>
</filter>
<filter id="filter1_d_10557_2699" x="25.6113" y="141.398" width="195.58" height="117.17" filterUnits="userSpaceOnUse" color-interpolation-filters="sRGB">
<feFlood flood-opacity="0" result="BackgroundImageFix"/>
<feColorMatrix in="SourceAlpha" type="matrix" values="0 0 0 0 0 0 0 0 0 0 0 0 0 0 0 0 0 0 127 0" result="hardAlpha"/>
<feMorphology radius="4" operator="dilate" in="SourceAlpha" result="effect1_dropShadow_10557_2699"/>
<feOffset/>
<feGaussianBlur stdDeviation="12"/>
<feComposite in2="hardAlpha" operator="out"/>
<feColorMatrix type="matrix" values="0 0 0 0 0.282353 0 0 0 0 0.290196 0 0 0 0 0.619608 0 0 0 0.08 0"/>
<feBlend mode="normal" in2="BackgroundImageFix" result="effect1_dropShadow_10557_2699"/>
<feBlend mode="normal" in="SourceGraphic" in2="effect1_dropShadow_10557_2699" result="shape"/>
</filter>
<filter id="filter2_d_10557_2699" x="192" y="141" width="242" height="118" filterUnits="userSpaceOnUse" color-interpolation-filters="sRGB">
<feFlood flood-opacity="0" result="BackgroundImageFix"/>
<feColorMatrix in="SourceAlpha" type="matrix" values="0 0 0 0 0 0 0 0 0 0 0 0 0 0 0 0 0 0 127 0" result="hardAlpha"/>
<feMorphology radius="4" operator="dilate" in="SourceAlpha" result="effect1_dropShadow_10557_2699"/>
<feOffset/>
<feGaussianBlur stdDeviation="12"/>
<feComposite in2="hardAlpha" operator="out"/>
<feColorMatrix type="matrix" values="0 0 0 0 0.282353 0 0 0 0 0.290196 0 0 0 0 0.619608 0 0 0 0.08 0"/>
<feBlend mode="normal" in2="BackgroundImageFix" result="effect1_dropShadow_10557_2699"/>
<feBlend mode="normal" in="SourceGraphic" in2="effect1_dropShadow_10557_2699" result="shape"/>
</filter>
<filter id="filter3_d_10557_2699" x="25" y="49" width="325" height="116" filterUnits="userSpaceOnUse" color-interpolation-filters="sRGB">
<feFlood flood-opacity="0" result="BackgroundImageFix"/>
<feColorMatrix in="SourceAlpha" type="matrix" values="0 0 0 0 0 0 0 0 0 0 0 0 0 0 0 0 0 0 127 0" result="hardAlpha"/>
<feMorphology radius="4" operator="dilate" in="SourceAlpha" result="effect1_dropShadow_10557_2699"/>
<feOffset/>
<feGaussianBlur stdDeviation="12"/>
<feComposite in2="hardAlpha" operator="out"/>
<feColorMatrix type="matrix" values="0 0 0 0 0.282353 0 0 0 0 0.290196 0 0 0 0 0.619608 0 0 0 0.08 0"/>
<feBlend mode="normal" in2="BackgroundImageFix" result="effect1_dropShadow_10557_2699"/>
<feBlend mode="normal" in="SourceGraphic" in2="effect1_dropShadow_10557_2699" result="shape"/>
</filter>
<filter id="filter4_d_10557_2699" x="289" y="0" width="107.222" height="106.975" filterUnits="userSpaceOnUse" color-interpolation-filters="sRGB">
<feFlood flood-opacity="0" result="BackgroundImageFix"/>
<feColorMatrix in="SourceAlpha" type="matrix" values="0 0 0 0 0 0 0 0 0 0 0 0 0 0 0 0 0 0 127 0" result="hardAlpha"/>
<feMorphology radius="4" operator="dilate" in="SourceAlpha" result="effect1_dropShadow_10557_2699"/>
<feOffset dy="12"/>
<feGaussianBlur stdDeviation="12"/>
<feComposite in2="hardAlpha" operator="out"/>
<feColorMatrix type="matrix" values="0 0 0 0 0.0156863 0 0 0 0 0.807843 0 0 0 0 0.992157 0 0 0 0.15 0"/>
<feBlend mode="normal" in2="BackgroundImageFix" result="effect1_dropShadow_10557_2699"/>
<feBlend mode="normal" in="SourceGraphic" in2="effect1_dropShadow_10557_2699" result="shape"/>
</filter>
<linearGradient id="paint0_linear_10557_2699" x1="70.5605" y1="192.338" x2="173.784" y2="192.338" gradientUnits="userSpaceOnUse">
<stop stop-color="#00D2FF"/>
<stop offset="1" stop-color="#3A7BD5"/>
</linearGradient>
<linearGradient id="paint1_linear_10557_2699" x1="70.5605" y1="208.903" x2="103.855" y2="208.903" gradientUnits="userSpaceOnUse">
<stop stop-color="#00D2FF"/>
<stop offset="1" stop-color="#3A7BD5"/>
</linearGradient>
<linearGradient id="paint2_linear_10557_2699" x1="235.794" y1="192.338" x2="386.664" y2="192.338" gradientUnits="userSpaceOnUse">
<stop stop-color="#00D2FF"/>
<stop offset="1" stop-color="#3A7BD5"/>
</linearGradient>
<linearGradient id="paint3_linear_10557_2699" x1="235.794" y1="208.903" x2="269.089" y2="208.903" gradientUnits="userSpaceOnUse">
<stop stop-color="#00D2FF"/>
<stop offset="1" stop-color="#3A7BD5"/>
</linearGradient>
<linearGradient id="paint4_linear_10557_2699" x1="113" y1="93" x2="299" y2="93" gradientUnits="userSpaceOnUse">
<stop stop-color="#00D2FF"/>
<stop offset="1" stop-color="#3A7BD5"/>
</linearGradient>
<linearGradient id="paint5_linear_10557_2699" x1="112.517" y1="108.5" x2="172.703" y2="108.5" gradientUnits="userSpaceOnUse">
<stop stop-color="#00D2FF"/>
<stop offset="1" stop-color="#3A7BD5"/>
</linearGradient>
<linearGradient id="paint6_linear_10557_2699" x1="112.517" y1="119.97" x2="203.436" y2="119.97" gradientUnits="userSpaceOnUse">
<stop stop-color="#00D2FF"/>
<stop offset="1" stop-color="#3A7BD5"/>
</linearGradient>
<linearGradient id="paint7_linear_10557_2699" x1="84.9197" y1="88.1113" x2="84.9197" y2="117.293" gradientUnits="userSpaceOnUse">
<stop stop-color="#EAEAEA"/>
<stop offset="1" stop-color="#ECECEC"/>
</linearGradient>
<linearGradient id="paint8_linear_10557_2699" x1="74.8521" y1="111.797" x2="94.987" y2="111.797" gradientUnits="userSpaceOnUse">
<stop stop-color="#606C88"/>
<stop offset="1" stop-color="#3F4C6B"/>
</linearGradient>
<linearGradient id="paint9_linear_10557_2699" x1="85.2751" y1="105.174" x2="85.2751" y2="91.9375" gradientUnits="userSpaceOnUse">
<stop/>
<stop offset="1"/>
</linearGradient>
<clipPath id="clip0_10557_2699">
<path d="M70.2583 102.702C70.2583 94.6438 76.8615 88.1113 84.9197 88.1113V88.1113C92.9779 88.1113 99.5811 94.6438 99.5811 102.702V102.702C99.5811 110.76 92.9779 117.293 84.9197 117.293V117.293C76.8615 117.293 70.2583 110.76 70.2583 102.702V102.702Z" fill="white"/>
</clipPath>
</defs>
</svg>
