<svg width="432" height="306" viewBox="0 0 432 306" fill="none" xmlns="http://www.w3.org/2000/svg">
<g filter="url(#filter0_d_11294_2794)">
<rect x="76.6842" y="28" width="326.442" height="219.079" rx="10" fill="white"/>
</g>
<g clip-path="url(#clip0_11294_2794)">
<path d="M329.133 163.263C329.133 160.502 331.371 158.263 334.133 158.263H382.167C384.928 158.263 387.167 160.502 387.167 163.263V211.297C387.167 214.059 384.928 216.297 382.167 216.297H334.133C331.371 216.297 329.133 214.059 329.133 211.297V163.263Z" fill="url(#paint0_linear_11294_2794)"/>
<path d="M375.947 203.723C377.365 206.431 378.075 216.297 378.075 216.297H338.225C338.225 216.297 338.934 206.431 340.353 203.723C342.481 199.661 358.15 194.438 358.15 194.438C358.15 194.438 373.819 199.661 375.947 203.723Z" fill="url(#paint1_linear_11294_2794)"/>
<path d="M357.376 211.655C357.376 211.502 357.421 211.352 357.506 211.225C357.591 211.097 357.712 210.998 357.854 210.94C357.995 210.881 358.151 210.866 358.301 210.896C358.451 210.925 358.589 210.999 358.697 211.107C358.805 211.216 358.879 211.353 358.909 211.504C358.939 211.654 358.923 211.809 358.865 211.951C358.806 212.092 358.707 212.213 358.58 212.298C358.452 212.383 358.303 212.428 358.15 212.428C357.945 212.428 357.748 212.347 357.603 212.202C357.458 212.057 357.376 211.86 357.376 211.655ZM357.376 207.786C357.376 207.633 357.421 207.483 357.506 207.356C357.591 207.228 357.712 207.129 357.854 207.071C357.995 207.012 358.151 206.997 358.301 207.027C358.451 207.057 358.589 207.13 358.697 207.238C358.805 207.347 358.879 207.485 358.909 207.635C358.939 207.785 358.923 207.94 358.865 208.082C358.806 208.223 358.707 208.344 358.58 208.429C358.452 208.514 358.303 208.559 358.15 208.559C357.945 208.559 357.748 208.478 357.603 208.333C357.458 208.188 357.376 207.991 357.376 207.786ZM357.376 203.917C357.376 203.764 357.421 203.614 357.506 203.487C357.591 203.36 357.712 203.26 357.854 203.202C357.995 203.143 358.151 203.128 358.301 203.158C358.451 203.188 358.589 203.261 358.697 203.37C358.805 203.478 358.879 203.616 358.909 203.766C358.939 203.916 358.923 204.071 358.865 204.213C358.806 204.354 358.707 204.475 358.58 204.56C358.452 204.645 358.303 204.69 358.15 204.69C357.945 204.69 357.748 204.609 357.603 204.464C357.458 204.319 357.376 204.122 357.376 203.917Z" fill="white"/>
<path d="M374.684 192.196L343.257 188.398C341.708 180.173 343.545 174.991 348.77 172.851C351.186 164.937 360.587 165.581 363.251 166.226C372.319 168.422 376.13 177.078 374.684 192.196Z" fill="url(#paint2_linear_11294_2794)"/>
<path d="M353.507 196.759V185.152C348.667 185.08 349.611 176.693 354.474 179.252C355.345 179.639 357.57 178.575 356.796 175.964C362.019 179.833 369.297 173.043 369.757 177.221C370.661 185.445 368.911 192.204 364.271 192.204C363.776 192.223 363.281 192.194 362.793 192.116V196.759C361.278 197.662 359.763 198.113 358.249 198.113C356.734 198.113 355.153 197.662 353.507 196.759Z" fill="#FFDBC9"/>
<path d="M362.792 192.116V193.664C359.891 193.664 357.634 192.278 356.022 189.505C357.956 190.795 360.213 191.665 362.792 192.116Z" fill="#FFBC9E"/>
<path d="M358.143 197.915C359.467 197.852 362.793 197.167 362.793 195.687V194.438C363.147 194.438 364.163 195.276 364.686 195.985C366.751 198.79 364.46 201.305 362.592 201.305C360.234 201.305 358.672 199.335 358.15 198.388C357.627 199.336 356.065 201.305 353.708 201.305C351.84 201.305 349.549 198.79 351.614 195.985C352.136 195.276 353.152 194.438 353.507 194.438V195.687C353.507 197.167 356.745 197.852 358.143 197.915Z" fill="white"/>
</g>
<g clip-path="url(#clip1_11294_2794)">
<path d="M250.763 163.263C250.763 160.502 253.002 158.263 255.763 158.263H303.797C306.559 158.263 308.797 160.502 308.797 163.263V211.297C308.797 214.059 306.559 216.297 303.797 216.297H255.763C253.002 216.297 250.763 214.059 250.763 211.297V163.263Z" fill="url(#paint3_linear_11294_2794)"/>
<path d="M297.577 203.723C298.996 206.431 299.705 216.297 299.705 216.297H259.855C259.855 216.297 260.565 206.431 261.983 203.723C264.111 199.661 279.78 194.438 279.78 194.438C279.78 194.438 295.45 199.661 297.577 203.723Z" fill="url(#paint4_linear_11294_2794)"/>
<path d="M279.006 211.655C279.006 211.502 279.052 211.352 279.137 211.225C279.222 211.097 279.343 210.998 279.484 210.94C279.626 210.881 279.781 210.866 279.931 210.896C280.081 210.925 280.219 210.999 280.327 211.107C280.436 211.216 280.509 211.353 280.539 211.504C280.569 211.654 280.554 211.809 280.495 211.951C280.437 212.092 280.337 212.213 280.21 212.298C280.083 212.383 279.933 212.428 279.78 212.428C279.575 212.428 279.378 212.347 279.233 212.202C279.088 212.057 279.006 211.86 279.006 211.655ZM279.006 207.786C279.006 207.633 279.052 207.483 279.137 207.356C279.222 207.228 279.343 207.129 279.484 207.071C279.626 207.012 279.781 206.997 279.931 207.027C280.081 207.057 280.219 207.13 280.327 207.238C280.436 207.347 280.509 207.485 280.539 207.635C280.569 207.785 280.554 207.94 280.495 208.082C280.437 208.223 280.337 208.344 280.21 208.429C280.083 208.514 279.933 208.559 279.78 208.559C279.575 208.559 279.378 208.478 279.233 208.333C279.088 208.188 279.006 207.991 279.006 207.786ZM279.006 203.917C279.006 203.764 279.052 203.614 279.137 203.487C279.222 203.36 279.343 203.26 279.484 203.202C279.626 203.143 279.781 203.128 279.931 203.158C280.081 203.188 280.219 203.261 280.327 203.37C280.436 203.478 280.509 203.616 280.539 203.766C280.569 203.916 280.554 204.071 280.495 204.213C280.437 204.354 280.337 204.475 280.21 204.56C280.083 204.645 279.933 204.69 279.78 204.69C279.575 204.69 279.378 204.609 279.233 204.464C279.088 204.319 279.006 204.122 279.006 203.917Z" fill="white"/>
<path d="M296.314 192.196L264.888 188.398C263.338 180.173 265.176 174.991 270.401 172.851C272.816 164.937 282.217 165.581 284.882 166.226C293.95 168.422 297.761 177.078 296.314 192.196Z" fill="url(#paint5_linear_11294_2794)"/>
<path d="M275.138 196.759V185.152C270.297 185.08 271.241 176.693 276.105 179.252C276.975 179.639 279.2 178.575 278.426 175.964C283.649 179.833 290.928 173.043 291.387 177.221C292.292 185.445 290.542 192.204 285.901 192.204C285.407 192.223 284.912 192.194 284.423 192.116V196.759C282.908 197.662 281.394 198.113 279.879 198.113C278.364 198.113 276.784 197.662 275.138 196.759Z" fill="#FFDBC9"/>
<path d="M284.423 192.116V193.664C281.521 193.664 279.264 192.278 277.652 189.505C279.587 190.795 281.844 191.665 284.423 192.116Z" fill="#FFBC9E"/>
<path d="M279.774 197.915C281.097 197.852 284.423 197.167 284.423 195.687V194.438C284.778 194.438 285.794 195.276 286.316 195.985C288.381 198.79 286.091 201.305 284.222 201.305C281.865 201.305 280.303 199.335 279.78 198.388C279.258 199.336 277.696 201.305 275.338 201.305C273.47 201.305 271.179 198.79 273.244 195.985C273.767 195.276 274.783 194.438 275.138 194.438V195.687C275.138 197.167 278.376 197.852 279.774 197.915Z" fill="white"/>
</g>
<g clip-path="url(#clip2_11294_2794)">
<path d="M172.44 83.7799C172.44 81.0185 174.679 78.7799 177.44 78.7799H225.475C228.236 78.7799 230.475 81.0185 230.475 83.7799V131.814C230.475 134.575 228.236 136.814 225.475 136.814H177.44C174.679 136.814 172.44 134.575 172.44 131.814V83.7799Z" fill="url(#paint6_linear_11294_2794)"/>
<path d="M215.482 109.635C217.052 104.423 218.019 95.5131 211.42 89.4195C206.377 84.7625 192.752 84.2932 188.013 94.4491C187.222 96.1445 188.303 98.8017 190.431 98.705C191.267 98.6663 191.785 101.317 192.269 102.961C191.592 109.635 185.56 109.758 182.5 114.858C178.727 121.145 183.37 130.43 194.493 130.43C205.617 130.43 211.993 121.223 215.482 109.635Z" fill="url(#paint7_linear_11294_2794)"/>
<path d="M219.255 124.903C220.673 127.635 221.383 137.588 221.383 137.588H181.532C181.532 137.588 182.242 127.635 183.66 124.903C185.788 120.804 201.458 115.535 201.458 115.535C201.458 115.535 217.127 120.804 219.255 124.903Z" fill="url(#paint8_linear_11294_2794)"/>
<path d="M206.1 117.856C206.1 117.856 203.631 119.21 201.359 119.21C199.087 119.21 196.815 117.856 196.815 117.856V113.6C196.326 113.678 195.831 113.707 195.336 113.688C190.696 113.688 188.946 106.929 189.851 98.705C190.431 98.705 191.785 98.705 193.72 95.9967C193.236 99.7689 198.846 99.1886 200.974 96.1902C199.91 99.7689 202.715 102.187 205.133 100.736C209.875 97.8911 210.94 106.564 206.1 106.636V117.856Z" fill="url(#paint9_linear_11294_2794)"/>
<g style="mix-blend-mode:multiply" opacity="0.782">
<path d="M196.815 113.6C199.214 113.159 201.511 112.273 203.585 110.989C203.585 110.989 201.167 115.148 196.815 115.148V113.6Z" fill="#FFD7B8"/>
</g>
<path d="M201.464 119.012C202.862 118.949 206.1 118.264 206.1 116.785V115.535C206.455 115.535 207.471 116.373 207.993 117.082C210.059 119.887 207.768 122.402 205.899 122.402C203.542 122.402 201.98 120.433 201.458 119.485C200.935 120.433 199.373 122.402 197.016 122.402C195.147 122.402 192.856 119.887 194.922 117.082C195.444 116.373 196.46 115.535 196.815 115.535V116.785C196.815 118.264 200.141 118.949 201.464 119.012Z" fill="white"/>
<path d="M200.684 132.171C200.684 132.018 200.729 131.869 200.814 131.741C200.899 131.614 201.02 131.515 201.161 131.456C201.303 131.398 201.458 131.383 201.608 131.412C201.759 131.442 201.896 131.516 202.005 131.624C202.113 131.732 202.187 131.87 202.216 132.02C202.246 132.17 202.231 132.326 202.172 132.467C202.114 132.609 202.015 132.73 201.887 132.815C201.76 132.9 201.611 132.945 201.458 132.945C201.252 132.945 201.055 132.864 200.91 132.718C200.765 132.573 200.684 132.377 200.684 132.171ZM200.684 128.302C200.684 128.149 200.729 128 200.814 127.873C200.899 127.745 201.02 127.646 201.161 127.588C201.303 127.529 201.458 127.514 201.608 127.543C201.759 127.573 201.896 127.647 202.005 127.755C202.113 127.863 202.187 128.001 202.216 128.151C202.246 128.302 202.231 128.457 202.172 128.599C202.114 128.74 202.015 128.861 201.887 128.946C201.76 129.031 201.611 129.076 201.458 129.076C201.252 129.076 201.055 128.995 200.91 128.85C200.765 128.704 200.684 128.508 200.684 128.302ZM200.684 124.433C200.684 124.28 200.729 124.131 200.814 124.004C200.899 123.876 201.02 123.777 201.161 123.719C201.303 123.66 201.458 123.645 201.608 123.675C201.759 123.704 201.896 123.778 202.005 123.886C202.113 123.995 202.187 124.132 202.216 124.282C202.246 124.433 202.231 124.588 202.172 124.73C202.114 124.871 202.015 124.992 201.887 125.077C201.76 125.162 201.611 125.207 201.458 125.207C201.252 125.207 201.055 125.126 200.91 124.981C200.765 124.835 200.684 124.639 200.684 124.433Z" fill="url(#paint10_linear_11294_2794)"/>
</g>
<g clip-path="url(#clip3_11294_2794)">
<path d="M250.787 83.7799C250.787 81.0185 253.025 78.7799 255.787 78.7799H303.821C306.582 78.7799 308.821 81.0185 308.821 83.7799V131.814C308.821 134.575 306.582 136.814 303.821 136.814H255.787C253.025 136.814 250.787 134.575 250.787 131.814V83.7799Z" fill="url(#paint11_linear_11294_2794)"/>
<path d="M285.801 112.44V114.761C285.801 117.856 290.25 119.21 290.25 119.21C290.25 119.21 285.124 123.079 279.804 123.079C274.484 123.079 269.358 119.21 269.358 119.21C269.358 119.21 273.842 117.856 273.807 114.761C273.772 111.666 273.795 109.848 273.772 104.545C271 100.951 271.178 98.5392 272.694 96.843C277.773 91.1605 291.604 93.095 291.604 93.095C291.604 93.095 292.895 107.022 289.96 111.086C288.703 112.827 285.801 112.44 285.801 112.44Z" fill="url(#paint12_linear_11294_2794)"/>
<path d="M285.801 112.44C281.545 111.956 279.03 110.118 279.03 110.118C280.618 112.467 283.038 114.126 285.801 114.761V112.44Z" fill="#DB6F3D"/>
<path d="M300.116 125.073C301.958 128.818 303.018 137.454 303.018 137.454H256.59C256.59 137.454 257.651 128.817 259.492 125.073C261.333 121.33 272.085 117.858 272.085 117.858C274.158 122.112 285.532 122.112 287.517 117.856C287.517 117.856 298.274 121.329 300.116 125.073Z" fill="url(#paint13_linear_11294_2794)"/>
<path d="M276.158 98.7454C275.543 98.2171 274.796 97.8613 273.739 98.4103C271.234 99.7109 273.13 104.702 275.355 104.702C275.935 104.702 276.224 106.524 273.64 107.797C273.64 105.766 270.545 100.736 270.274 96.1569C267.159 94.9972 267.933 90.3569 270.071 90.3569C269.73 86.1034 276.542 83.9063 279.179 86.3474C281.861 83.1325 288.632 84.7768 289.041 87.5659C293.696 85.0807 296.757 92.2245 292.397 94.9977C290.604 96.1391 286.407 96.5734 280.35 96.5734C279.435 96.5734 278.923 96.8005 279.179 97.9312C279.674 100.122 278.525 101.502 276.158 98.7454Z" fill="url(#paint14_linear_11294_2794)"/>
</g>
<g clip-path="url(#clip4_11294_2794)">
<path d="M172.605 163.263C172.605 160.502 174.844 158.263 177.605 158.263H225.639C228.401 158.263 230.639 160.502 230.639 163.263V211.297C230.639 214.059 228.401 216.297 225.639 216.297H177.605C174.844 216.297 172.605 214.059 172.605 211.297V163.263Z" fill="url(#paint15_linear_11294_2794)"/>
<path d="M207.619 191.923V194.244C207.619 197.339 212.068 198.694 212.068 198.694C212.068 198.694 206.942 202.563 201.622 202.563C196.302 202.563 191.176 198.694 191.176 198.694C191.176 198.694 195.66 197.339 195.625 194.244C195.59 191.149 195.614 189.331 195.59 184.028C192.818 180.434 192.996 178.022 194.512 176.326C199.591 170.644 213.423 172.578 213.423 172.578C213.423 172.578 214.713 186.505 211.778 190.569C210.521 192.31 207.619 191.923 207.619 191.923Z" fill="url(#paint16_linear_11294_2794)"/>
<path d="M207.619 191.923C203.363 191.439 200.849 189.602 200.849 189.602C202.436 191.951 204.856 193.61 207.619 194.244V191.923Z" fill="#DB6F3D"/>
<path d="M221.934 204.557C223.776 208.301 224.836 216.937 224.836 216.937H178.409C178.409 216.937 179.469 208.3 181.31 204.557C183.152 200.813 193.904 197.341 193.904 197.341C195.976 201.595 207.35 201.595 209.335 197.339C209.335 197.339 220.093 200.812 221.934 204.557Z" fill="url(#paint17_linear_11294_2794)"/>
<path d="M197.977 178.229C197.362 177.7 196.614 177.345 195.558 177.894C193.053 179.194 194.948 184.185 197.173 184.185C197.753 184.185 198.042 186.008 195.458 187.28C195.458 185.249 192.363 180.219 192.092 175.64C188.978 174.48 189.751 169.84 191.89 169.84C191.548 165.587 198.36 163.389 200.997 165.831C203.68 162.616 210.45 164.26 210.859 167.049C215.515 164.564 218.575 171.708 214.216 174.481C212.422 175.622 208.226 176.057 202.168 176.057C201.254 176.057 200.742 176.284 200.997 177.414C201.492 179.605 200.343 180.985 197.977 178.229Z" fill="url(#paint18_linear_11294_2794)"/>
</g>
<g clip-path="url(#clip5_11294_2794)">
<path d="M94.0946 83.7799C94.0946 81.0185 96.3332 78.7799 99.0946 78.7799H147.129C149.89 78.7799 152.129 81.0185 152.129 83.7799V131.814C152.129 134.575 149.89 136.814 147.129 136.814H99.0946C96.3332 136.814 94.0946 134.575 94.0946 131.814V83.7799Z" fill="url(#paint19_linear_11294_2794)"/>
<path d="M129.109 112.44V114.761C129.109 117.856 133.558 119.21 133.558 119.21C133.558 119.21 128.431 123.079 123.112 123.079C117.792 123.079 112.666 119.21 112.666 119.21C112.666 119.21 117.15 117.856 117.115 114.761C117.08 111.666 117.103 109.848 117.08 104.545C114.307 100.951 114.485 98.5392 116.001 96.843C121.08 91.1605 134.912 93.095 134.912 93.095C134.912 93.095 136.203 107.022 133.268 111.086C132.01 112.827 129.109 112.44 129.109 112.44Z" fill="url(#paint20_linear_11294_2794)"/>
<g style="mix-blend-mode:multiply">
<path d="M129.109 112.44C124.853 111.956 122.338 110.118 122.338 110.118C123.926 112.467 126.345 114.126 129.109 114.761V112.44Z" fill="#FFDBC9"/>
</g>
<path d="M143.424 125.073C145.265 128.818 146.325 137.454 146.325 137.454H99.8981C99.8981 137.454 100.959 128.817 102.8 125.073C104.641 121.33 115.393 117.858 115.393 117.858C117.466 122.112 128.839 122.112 130.825 117.856C130.825 117.856 141.582 121.329 143.424 125.073Z" fill="url(#paint21_linear_11294_2794)"/>
<path d="M122.338 132.558C122.338 132.405 122.383 132.256 122.468 132.128C122.553 132.001 122.674 131.902 122.816 131.843C122.957 131.785 123.113 131.769 123.263 131.799C123.413 131.829 123.551 131.903 123.659 132.011C123.767 132.119 123.841 132.257 123.871 132.407C123.9 132.557 123.885 132.713 123.827 132.854C123.768 132.996 123.669 133.117 123.542 133.202C123.414 133.287 123.265 133.332 123.112 133.332C122.906 133.332 122.71 133.251 122.565 133.105C122.419 132.96 122.338 132.763 122.338 132.558ZM122.338 128.689C122.338 128.536 122.383 128.387 122.468 128.259C122.553 128.132 122.674 128.033 122.816 127.974C122.957 127.916 123.113 127.901 123.263 127.93C123.413 127.96 123.551 128.034 123.659 128.142C123.767 128.25 123.841 128.388 123.871 128.538C123.9 128.688 123.885 128.844 123.827 128.985C123.768 129.127 123.669 129.248 123.542 129.333C123.414 129.418 123.265 129.463 123.112 129.463C122.906 129.463 122.71 129.382 122.565 129.236C122.419 129.091 122.338 128.895 122.338 128.689ZM122.338 124.82C122.338 124.667 122.383 124.518 122.468 124.39C122.553 124.263 122.674 124.164 122.816 124.105C122.957 124.047 123.113 124.032 123.263 124.061C123.413 124.091 123.551 124.165 123.659 124.273C123.767 124.381 123.841 124.519 123.871 124.669C123.9 124.82 123.885 124.975 123.827 125.116C123.768 125.258 123.669 125.379 123.542 125.464C123.414 125.549 123.265 125.594 123.112 125.594C122.906 125.594 122.71 125.513 122.565 125.368C122.419 125.222 122.338 125.026 122.338 124.82Z" fill="white"/>
<path d="M119.466 98.7454C118.851 98.2171 118.104 97.8613 117.047 98.4103C114.542 99.7109 116.438 104.702 118.662 104.702C119.243 104.702 119.531 106.524 116.948 107.797C116.948 105.766 113.852 100.736 113.582 96.1569C110.467 94.9972 111.241 90.3569 113.379 90.3569C113.038 86.1034 119.849 83.9063 122.487 86.3474C125.169 83.1325 131.94 84.7768 132.348 87.5659C137.004 85.0807 140.064 92.2245 135.705 94.9977C133.911 96.1391 129.715 96.5734 123.658 96.5734C122.743 96.5734 122.231 96.8005 122.487 97.9312C122.982 100.122 121.832 101.502 119.466 98.7454Z" fill="url(#paint22_linear_11294_2794)"/>
</g>
<path d="M76.6842 38C76.6842 32.4771 81.1614 28 86.6842 28H393.126C398.649 28 403.126 32.4772 403.126 38V57.0171H76.6842V38Z" fill="url(#paint23_linear_11294_2794)"/>
<path d="M268.197 70.8002H377.736" stroke="white"/>
<g filter="url(#filter1_d_11294_2794)">
<rect x="28" y="202.211" width="283.026" height="75.7895" rx="10" fill="white"/>
</g>
<rect x="48.1316" y="211.684" width="129.079" height="4.73684" rx="2" fill="url(#paint24_linear_11294_2794)"/>
<rect x="255.368" y="230.632" width="46.1842" height="18.9474" rx="2" fill="url(#paint25_linear_11294_2794)"/>
<rect opacity="0.5" x="48.6982" y="222.291" width="62.2483" height="4.68535" rx="2" fill="url(#paint26_linear_11294_2794)"/>
<rect opacity="0.5" x="48.1316" y="233" width="95.9211" height="4.73684" rx="2" fill="url(#paint27_linear_11294_2794)"/>
<g clip-path="url(#clip6_11294_2794)">
<path d="M48.1316 257.216C48.1316 249.728 54.2019 243.658 61.6899 243.658C69.178 243.658 75.2483 249.728 75.2483 257.216C75.2483 264.704 69.178 270.775 61.6899 270.775C54.2019 270.775 48.1316 264.704 48.1316 257.216Z" fill="url(#paint28_linear_11294_2794)"/>
<path d="M70.0057 264.899C70.6686 266.165 71 270.775 71 270.775H52.3799C52.3799 270.775 52.7113 266.165 53.3742 264.899C54.3684 263.001 61.69 260.561 61.69 260.561C61.69 260.561 69.0115 263.001 70.0057 264.899Z" fill="url(#paint29_linear_11294_2794)"/>
<path d="M61.3284 268.605C61.3284 268.534 61.3496 268.464 61.3893 268.404C61.429 268.345 61.4855 268.299 61.5516 268.271C61.6176 268.244 61.6903 268.237 61.7605 268.251C61.8306 268.265 61.895 268.299 61.9456 268.35C61.9962 268.4 62.0306 268.465 62.0445 268.535C62.0585 268.605 62.0513 268.678 62.024 268.744C61.9966 268.81 61.9503 268.866 61.8908 268.906C61.8313 268.946 61.7614 268.967 61.6899 268.967C61.594 268.967 61.5021 268.929 61.4343 268.861C61.3665 268.793 61.3284 268.701 61.3284 268.605ZM61.3284 266.798C61.3284 266.726 61.3496 266.656 61.3893 266.597C61.429 266.537 61.4855 266.491 61.5516 266.463C61.6176 266.436 61.6903 266.429 61.7605 266.443C61.8306 266.457 61.895 266.491 61.9456 266.542C61.9962 266.592 62.0306 266.657 62.0445 266.727C62.0585 266.797 62.0513 266.87 62.024 266.936C61.9966 267.002 61.9503 267.058 61.8908 267.098C61.8313 267.138 61.7614 267.159 61.6899 267.159C61.594 267.159 61.5021 267.121 61.4343 267.053C61.3665 266.985 61.3284 266.893 61.3284 266.798ZM61.3284 264.99C61.3284 264.918 61.3496 264.848 61.3893 264.789C61.429 264.729 61.4855 264.683 61.5516 264.656C61.6176 264.628 61.6903 264.621 61.7605 264.635C61.8306 264.649 61.895 264.684 61.9456 264.734C61.9962 264.785 62.0306 264.849 62.0445 264.919C62.0585 264.989 62.0513 265.062 62.024 265.128C61.9966 265.194 61.9503 265.251 61.8908 265.29C61.8313 265.33 61.7614 265.351 61.6899 265.351C61.594 265.351 61.5021 265.313 61.4343 265.245C61.3665 265.178 61.3284 265.086 61.3284 264.99Z" fill="white"/>
<path d="M69.4156 259.513L54.7313 257.739C54.0073 253.895 54.866 251.474 57.3074 250.474C58.436 246.776 62.8286 247.077 64.0737 247.379C68.3107 248.405 70.0914 252.449 69.4156 259.513Z" fill="url(#paint30_linear_11294_2794)"/>
<path d="M59.5206 261.645V256.222C57.259 256.188 57.7001 252.269 59.9726 253.465C60.3793 253.646 61.4188 253.149 61.0572 251.929C63.4977 253.736 66.8985 250.564 67.1133 252.516C67.5359 256.359 66.7182 259.517 64.55 259.517C64.319 259.526 64.0877 259.512 63.8593 259.476V261.645C63.1515 262.067 62.4438 262.278 61.736 262.278C61.0283 262.278 60.2898 262.067 59.5206 261.645Z" fill="#FFDBC9"/>
<path d="M63.8593 259.476V260.199C62.5035 260.199 61.4489 259.551 60.6957 258.256C61.5996 258.858 62.6541 259.265 63.8593 259.476Z" fill="#FFBC9E"/>
<path d="M61.6869 262.185C62.3053 262.156 63.8592 261.836 63.8592 261.145V260.561C64.025 260.561 64.4996 260.952 64.7438 261.284C65.7088 262.594 64.6384 263.769 63.7654 263.769C62.6639 263.769 61.9339 262.849 61.6899 262.406C61.4458 262.849 60.7159 263.769 59.6144 263.769C58.7414 263.769 57.671 262.594 58.636 261.284C58.8802 260.952 59.3548 260.561 59.5206 260.561V261.145C59.5206 261.836 61.0337 262.156 61.6869 262.185Z" fill="white"/>
</g>
<defs>
<filter id="filter0_d_11294_2794" x="48.6842" y="0" width="382.442" height="275.079" filterUnits="userSpaceOnUse" color-interpolation-filters="sRGB">
<feFlood flood-opacity="0" result="BackgroundImageFix"/>
<feColorMatrix in="SourceAlpha" type="matrix" values="0 0 0 0 0 0 0 0 0 0 0 0 0 0 0 0 0 0 127 0" result="hardAlpha"/>
<feMorphology radius="4" operator="dilate" in="SourceAlpha" result="effect1_dropShadow_11294_2794"/>
<feOffset/>
<feGaussianBlur stdDeviation="12"/>
<feComposite in2="hardAlpha" operator="out"/>
<feColorMatrix type="matrix" values="0 0 0 0 0.282353 0 0 0 0 0.290196 0 0 0 0 0.619608 0 0 0 0.06 0"/>
<feBlend mode="normal" in2="BackgroundImageFix" result="effect1_dropShadow_11294_2794"/>
<feBlend mode="normal" in="SourceGraphic" in2="effect1_dropShadow_11294_2794" result="shape"/>
</filter>
<filter id="filter1_d_11294_2794" x="0" y="174.211" width="339.026" height="131.789" filterUnits="userSpaceOnUse" color-interpolation-filters="sRGB">
<feFlood flood-opacity="0" result="BackgroundImageFix"/>
<feColorMatrix in="SourceAlpha" type="matrix" values="0 0 0 0 0 0 0 0 0 0 0 0 0 0 0 0 0 0 127 0" result="hardAlpha"/>
<feMorphology radius="4" operator="dilate" in="SourceAlpha" result="effect1_dropShadow_11294_2794"/>
<feOffset/>
<feGaussianBlur stdDeviation="12"/>
<feComposite in2="hardAlpha" operator="out"/>
<feColorMatrix type="matrix" values="0 0 0 0 0.282353 0 0 0 0 0.290196 0 0 0 0 0.619608 0 0 0 0.08 0"/>
<feBlend mode="normal" in2="BackgroundImageFix" result="effect1_dropShadow_11294_2794"/>
<feBlend mode="normal" in="SourceGraphic" in2="effect1_dropShadow_11294_2794" result="shape"/>
</filter>
<linearGradient id="paint0_linear_11294_2794" x1="358.15" y1="158.263" x2="358.15" y2="216.297" gradientUnits="userSpaceOnUse">
<stop stop-color="#EAEAEA"/>
<stop offset="1" stop-color="#ECECEC"/>
</linearGradient>
<linearGradient id="paint1_linear_11294_2794" x1="338.225" y1="205.368" x2="378.075" y2="205.368" gradientUnits="userSpaceOnUse">
<stop stop-color="#606C88"/>
<stop offset="1" stop-color="#3F4C6B"/>
</linearGradient>
<linearGradient id="paint2_linear_11294_2794" x1="358.854" y1="192.196" x2="358.854" y2="165.872" gradientUnits="userSpaceOnUse">
<stop/>
<stop offset="1"/>
</linearGradient>
<linearGradient id="paint3_linear_11294_2794" x1="279.78" y1="158.263" x2="279.78" y2="216.297" gradientUnits="userSpaceOnUse">
<stop stop-color="#EAEAEA"/>
<stop offset="1" stop-color="#ECECEC"/>
</linearGradient>
<linearGradient id="paint4_linear_11294_2794" x1="259.855" y1="205.368" x2="299.705" y2="205.368" gradientUnits="userSpaceOnUse">
<stop stop-color="#606C88"/>
<stop offset="1" stop-color="#3F4C6B"/>
</linearGradient>
<linearGradient id="paint5_linear_11294_2794" x1="280.484" y1="192.196" x2="280.484" y2="165.872" gradientUnits="userSpaceOnUse">
<stop/>
<stop offset="1"/>
</linearGradient>
<linearGradient id="paint6_linear_11294_2794" x1="201.458" y1="78.7799" x2="201.458" y2="136.814" gradientUnits="userSpaceOnUse">
<stop stop-color="#EAEAEA"/>
<stop offset="1" stop-color="#ECECEC"/>
</linearGradient>
<linearGradient id="paint7_linear_11294_2794" x1="198.92" y1="130.43" x2="198.92" y2="86.2447" gradientUnits="userSpaceOnUse">
<stop/>
<stop offset="1"/>
</linearGradient>
<linearGradient id="paint8_linear_11294_2794" x1="181.532" y1="126.561" x2="221.383" y2="126.561" gradientUnits="userSpaceOnUse">
<stop stop-color="#606C88"/>
<stop offset="1" stop-color="#3F4C6B"/>
</linearGradient>
<linearGradient id="paint9_linear_11294_2794" x1="199.435" y1="95.9967" x2="199.435" y2="119.21" gradientUnits="userSpaceOnUse">
<stop stop-color="#FFE0CC"/>
<stop offset="1" stop-color="#FFEADB"/>
</linearGradient>
<linearGradient id="paint10_linear_11294_2794" x1="201.458" y1="123.66" x2="201.458" y2="132.945" gradientUnits="userSpaceOnUse">
<stop stop-color="#130027"/>
<stop offset="1" stop-color="#130017"/>
</linearGradient>
<linearGradient id="paint11_linear_11294_2794" x1="279.804" y1="78.7799" x2="279.804" y2="136.814" gradientUnits="userSpaceOnUse">
<stop stop-color="#EAEAEA"/>
<stop offset="1" stop-color="#ECECEC"/>
</linearGradient>
<linearGradient id="paint12_linear_11294_2794" x1="280.622" y1="92.7776" x2="280.622" y2="123.079" gradientUnits="userSpaceOnUse">
<stop stop-color="#FFD4B3"/>
<stop offset="1" stop-color="#FFDCC2"/>
</linearGradient>
<linearGradient id="paint13_linear_11294_2794" x1="256.59" y1="127.655" x2="303.018" y2="127.655" gradientUnits="userSpaceOnUse">
<stop stop-color="#606C88"/>
<stop offset="1" stop-color="#3F4C6B"/>
</linearGradient>
<linearGradient id="paint14_linear_11294_2794" x1="281.348" y1="107.797" x2="281.348" y2="84.5828" gradientUnits="userSpaceOnUse">
<stop/>
<stop offset="1"/>
</linearGradient>
<linearGradient id="paint15_linear_11294_2794" x1="201.622" y1="158.263" x2="201.622" y2="216.297" gradientUnits="userSpaceOnUse">
<stop stop-color="#EAEAEA"/>
<stop offset="1" stop-color="#ECECEC"/>
</linearGradient>
<linearGradient id="paint16_linear_11294_2794" x1="202.441" y1="172.261" x2="202.441" y2="202.563" gradientUnits="userSpaceOnUse">
<stop stop-color="#FFD4B3"/>
<stop offset="1" stop-color="#FFDCC2"/>
</linearGradient>
<linearGradient id="paint17_linear_11294_2794" x1="178.409" y1="207.138" x2="224.836" y2="207.138" gradientUnits="userSpaceOnUse">
<stop stop-color="#606C88"/>
<stop offset="1" stop-color="#3F4C6B"/>
</linearGradient>
<linearGradient id="paint18_linear_11294_2794" x1="203.167" y1="187.28" x2="203.167" y2="164.066" gradientUnits="userSpaceOnUse">
<stop/>
<stop offset="1"/>
</linearGradient>
<linearGradient id="paint19_linear_11294_2794" x1="123.112" y1="78.7799" x2="123.112" y2="136.814" gradientUnits="userSpaceOnUse">
<stop stop-color="#EAEAEA"/>
<stop offset="1" stop-color="#ECECEC"/>
</linearGradient>
<linearGradient id="paint20_linear_11294_2794" x1="123.93" y1="92.7776" x2="123.93" y2="123.079" gradientUnits="userSpaceOnUse">
<stop stop-color="#FFD4B3"/>
<stop offset="1" stop-color="#FFDCC2"/>
</linearGradient>
<linearGradient id="paint21_linear_11294_2794" x1="99.8981" y1="127.655" x2="146.325" y2="127.655" gradientUnits="userSpaceOnUse">
<stop stop-color="#606C88"/>
<stop offset="1" stop-color="#3F4C6B"/>
</linearGradient>
<linearGradient id="paint22_linear_11294_2794" x1="124.656" y1="107.797" x2="124.656" y2="84.5828" gradientUnits="userSpaceOnUse">
<stop/>
<stop offset="1"/>
</linearGradient>
<linearGradient id="paint23_linear_11294_2794" x1="76.6842" y1="42.5085" x2="403.126" y2="42.5085" gradientUnits="userSpaceOnUse">
<stop stop-color="#134E5E"/>
<stop offset="1" stop-color="#71B280"/>
</linearGradient>
<linearGradient id="paint24_linear_11294_2794" x1="49.6238" y1="213.831" x2="168.299" y2="247.063" gradientUnits="userSpaceOnUse">
<stop stop-color="#F9F7C6"/>
<stop offset="1" stop-color="#E8FCDB"/>
</linearGradient>
<linearGradient id="paint25_linear_11294_2794" x1="255.902" y1="239.217" x2="301.665" y2="240.363" gradientUnits="userSpaceOnUse">
<stop stop-color="#F9F7C6"/>
<stop offset="1" stop-color="#E8FCDB"/>
</linearGradient>
<linearGradient id="paint26_linear_11294_2794" x1="49.4179" y1="224.414" x2="110.007" y2="232.686" gradientUnits="userSpaceOnUse">
<stop stop-color="#F9F7C6"/>
<stop offset="1" stop-color="#E8FCDB"/>
</linearGradient>
<linearGradient id="paint27_linear_11294_2794" x1="49.2405" y1="235.146" x2="140.398" y2="254.116" gradientUnits="userSpaceOnUse">
<stop stop-color="#F9F7C6"/>
<stop offset="1" stop-color="#E8FCDB"/>
</linearGradient>
<linearGradient id="paint28_linear_11294_2794" x1="61.6899" y1="243.658" x2="61.6899" y2="270.775" gradientUnits="userSpaceOnUse">
<stop stop-color="#EAEAEA"/>
<stop offset="1" stop-color="#ECECEC"/>
</linearGradient>
<linearGradient id="paint29_linear_11294_2794" x1="52.3799" y1="265.668" x2="71" y2="265.668" gradientUnits="userSpaceOnUse">
<stop stop-color="#606C88"/>
<stop offset="1" stop-color="#3F4C6B"/>
</linearGradient>
<linearGradient id="paint30_linear_11294_2794" x1="62.019" y1="259.513" x2="62.019" y2="247.213" gradientUnits="userSpaceOnUse">
<stop/>
<stop offset="1"/>
</linearGradient>
<clipPath id="clip0_11294_2794">
<path d="M329.133 163.263C329.133 160.502 331.371 158.263 334.133 158.263H382.167C384.928 158.263 387.167 160.502 387.167 163.263V211.297C387.167 214.059 384.928 216.297 382.167 216.297H334.133C331.371 216.297 329.133 214.059 329.133 211.297V163.263Z" fill="white"/>
</clipPath>
<clipPath id="clip1_11294_2794">
<path d="M250.763 163.263C250.763 160.502 253.002 158.263 255.763 158.263H303.797C306.559 158.263 308.797 160.502 308.797 163.263V211.297C308.797 214.059 306.559 216.297 303.797 216.297H255.763C253.002 216.297 250.763 214.059 250.763 211.297V163.263Z" fill="white"/>
</clipPath>
<clipPath id="clip2_11294_2794">
<path d="M172.44 83.7799C172.44 81.0185 174.679 78.7799 177.44 78.7799H225.475C228.236 78.7799 230.475 81.0185 230.475 83.7799V131.814C230.475 134.575 228.236 136.814 225.475 136.814H177.44C174.679 136.814 172.44 134.575 172.44 131.814V83.7799Z" fill="white"/>
</clipPath>
<clipPath id="clip3_11294_2794">
<path d="M250.787 83.7799C250.787 81.0185 253.025 78.7799 255.787 78.7799H303.821C306.582 78.7799 308.821 81.0185 308.821 83.7799V131.814C308.821 134.575 306.582 136.814 303.821 136.814H255.787C253.025 136.814 250.787 134.575 250.787 131.814V83.7799Z" fill="white"/>
</clipPath>
<clipPath id="clip4_11294_2794">
<path d="M172.605 163.263C172.605 160.502 174.844 158.263 177.605 158.263H225.639C228.401 158.263 230.639 160.502 230.639 163.263V211.297C230.639 214.059 228.401 216.297 225.639 216.297H177.605C174.844 216.297 172.605 214.059 172.605 211.297V163.263Z" fill="white"/>
</clipPath>
<clipPath id="clip5_11294_2794">
<path d="M94.0946 83.7799C94.0946 81.0185 96.3332 78.7799 99.0946 78.7799H147.129C149.89 78.7799 152.129 81.0185 152.129 83.7799V131.814C152.129 134.575 149.89 136.814 147.129 136.814H99.0946C96.3332 136.814 94.0946 134.575 94.0946 131.814V83.7799Z" fill="white"/>
</clipPath>
<clipPath id="clip6_11294_2794">
<path d="M48.1316 257.216C48.1316 249.728 54.2019 243.658 61.6899 243.658C69.178 243.658 75.2483 249.728 75.2483 257.216C75.2483 264.704 69.178 270.775 61.6899 270.775C54.2019 270.775 48.1316 264.704 48.1316 257.216Z" fill="white"/>
</clipPath>
</defs>
</svg>
