<svg width="194" height="122" viewBox="0 0 194 122" fill="none" xmlns="http://www.w3.org/2000/svg">
<g clip-path="url(#clip0_103_1090)">
<path d="M133.498 3.81769H1.15671C0.517809 3.81769 -0.00012207 4.33562 -0.00012207 4.97452V93.0093C-0.00012207 93.6482 0.517809 94.1662 1.15671 94.1662H133.498C134.137 94.1662 134.655 93.6482 134.655 93.0093V4.97452C134.655 4.33562 134.137 3.81769 133.498 3.81769Z" fill="white"/>
<path d="M15.8147 80.4238H22.5027V83.0293C22.5027 83.4225 22.2576 83.7741 21.8887 83.9101C20.9787 84.2455 20.0687 84.4132 19.1587 84.4132C18.2487 84.4132 17.3387 84.2455 16.4287 83.9101C16.0598 83.7741 15.8147 83.4225 15.8147 83.0293V80.4238Z" fill="#D8DEED"/>
<path d="M13.0733 80.6696L18.4642 82.6149C18.9514 82.7907 19.4863 82.7813 19.9671 82.5886L24.7645 80.665C24.945 80.5927 25.0326 80.3878 24.9603 80.2073C24.9233 80.115 24.849 80.0427 24.7557 80.0082L19.9168 78.2174C19.4662 78.0507 18.9722 78.0425 18.5164 78.1944L13.0816 80.0045C12.8971 80.0659 12.7974 80.2653 12.8588 80.4497C12.8929 80.552 12.9719 80.633 13.0733 80.6696Z" fill="#E1E5F0"/>
<path d="M23.7643 82.8561C23.9186 82.9152 24.0283 83.0647 24.0283 83.2398C24.0283 83.3908 23.9468 83.5227 23.8255 83.5941C23.8361 83.6132 23.8441 83.6302 23.8495 83.6449C24.1054 84.3408 24.4304 85.0788 23.6881 85.1165C23.2616 85.1382 23.1926 84.6418 23.4812 83.6273C23.3214 83.5711 23.2069 83.4188 23.2069 83.2398C23.2069 83.0647 23.3165 82.9152 23.4709 82.8561V81.2676L19.1262 80.2735C19.0472 80.2554 18.9979 80.1767 19.0159 80.0978C19.034 80.0188 19.1127 79.9695 19.1916 79.9875L23.6503 81.0078C23.717 81.023 23.7643 81.0824 23.7643 81.1507V82.8561Z" fill="#D8DEED"/>
<path d="M0 2.31423C0 1.03615 1.03517 6.10352e-05 2.31416 6.10352e-05H132.341C133.619 6.10352e-05 134.655 1.03624 134.655 2.31423V5.09012H0V2.31423ZM91.1982 58.0126C91.1982 56.7344 92.2343 55.6983 93.5121 55.6983H124.384C125.662 55.6983 126.698 56.7347 126.698 58.0126V77.8667C126.698 79.1449 125.662 80.181 124.384 80.181H93.5121C92.2342 80.181 91.1982 79.1447 91.1982 77.8667V58.0126ZM49.5776 58.0126C49.5776 56.7344 50.6136 55.6983 51.8914 55.6983H82.7637C84.0416 55.6983 85.0775 56.7347 85.0775 58.0126V77.8667C85.0775 79.1449 84.0415 80.181 82.7637 80.181H51.8914C50.6135 80.181 49.5776 79.1447 49.5776 77.8667V58.0126Z" fill="#D8DEED"/>
<path d="M3.41259 3.70192C4.01954 3.70192 4.51158 3.20988 4.51158 2.60293C4.51158 1.99597 4.01954 1.50394 3.41259 1.50394C2.80563 1.50394 2.3136 1.99597 2.3136 2.60293C2.3136 3.20988 2.80563 3.70192 3.41259 3.70192Z" fill="#FF5645"/>
<path d="M6.99865 3.70192C7.6056 3.70192 8.09764 3.20988 8.09764 2.60293C8.09764 1.99597 7.6056 1.50394 6.99865 1.50394C6.39169 1.50394 5.89966 1.99597 5.89966 2.60293C5.89966 3.20988 6.39169 3.70192 6.99865 3.70192Z" fill="#FFCB3D"/>
<path d="M10.7007 3.70192C11.3076 3.70192 11.7997 3.20988 11.7997 2.60293C11.7997 1.99597 11.3076 1.50394 10.7007 1.50394C10.0937 1.50394 9.60168 1.99597 9.60168 2.60293C9.60168 3.20988 10.0937 3.70192 10.7007 3.70192Z" fill="#3ABF7C"/>
<path d="M23.9848 62.2377H21.5941V61.0423C21.5941 60.3789 21.0621 59.8469 20.3987 59.8469H18.0079C17.3444 59.8469 16.8125 60.3789 16.8125 61.0423V62.2377H14.4217C13.7583 62.2377 13.2323 62.7697 13.2323 63.4331L13.2263 70.0078C13.2263 70.6712 13.7583 71.2031 14.4217 71.2031H23.9848C24.6483 71.2031 25.1802 70.6712 25.1802 70.0078V63.4331C25.1802 62.7697 24.6483 62.2377 23.9848 62.2377ZM20.3987 62.2377H18.0079V61.0423H20.3987V62.2377Z" fill="#E1E5F0"/>
<path d="M13.1879 69.063H25.2189V69.9885C25.2189 70.6274 24.701 71.1453 24.0621 71.1453H14.3447C13.7058 71.1453 13.1879 70.6274 13.1879 69.9885V69.063Z" fill="#D8DEED"/>
<path d="M124.359 11.7998H10.2957C9.01792 11.7998 7.98206 12.5829 7.98206 13.549V39.087C7.98206 40.0531 9.01792 40.8362 10.2957 40.8362H124.359C125.637 40.8362 126.673 40.0531 126.673 39.087V13.549C126.673 12.5829 125.637 11.7998 124.359 11.7998Z" fill="#E1E5F0"/>
<path d="M114.25 68.3491L104.219 73.3645C104.162 73.3931 104.092 73.3699 104.064 73.3127C104.056 73.2967 104.052 73.279 104.052 73.261V63.2302C104.052 63.1663 104.103 63.1145 104.167 63.1145C104.185 63.1145 104.203 63.1187 104.219 63.1267L114.25 68.1421C114.307 68.1707 114.33 68.2402 114.302 68.2973C114.29 68.3197 114.272 68.3379 114.25 68.3491ZM68.5131 73.7453L67.7626 73.7538L67.7679 73.7453H58.865C58.7373 73.7453 58.6888 73.6571 58.7566 73.5483L65.1005 63.3774C65.1684 63.2686 65.2804 63.2667 65.3511 63.3735L69.9006 70.319L71.687 67.4492C71.7545 67.3408 71.8676 67.3375 71.9409 67.4439L76.0389 73.3867C76.1117 73.4922 76.0677 73.5809 75.94 73.5848L72.0512 73.7051L72.0116 73.7055L72.0352 73.7453C72.0352 73.7453 71.9312 73.7453 71.804 73.7453H68.5131ZM71.9509 65.0076C71.1596 65.0076 70.5182 64.3616 70.5182 63.5647C70.5182 62.7678 71.1596 62.1218 71.9509 62.1218C72.7422 62.1218 73.3837 62.7678 73.3837 63.5647C73.3837 64.3616 72.7422 65.0076 71.9509 65.0076Z" fill="#F2F6FB"/>
<mask id="mask0_103_1090" style="mask-type:alpha" maskUnits="userSpaceOnUse" x="7" y="11" width="120" height="30">
<path d="M124.359 11.7998H10.2956C9.01779 11.7998 7.98193 12.5829 7.98193 13.549V39.087C7.98193 40.0531 9.01779 40.8362 10.2956 40.8362H124.359C125.637 40.8362 126.673 40.0531 126.673 39.087V13.549C126.673 12.5829 125.637 11.7998 124.359 11.7998Z" fill="white"/>
</mask>
<g mask="url(#mask0_103_1090)">
<mask id="mask1_103_1090" style="mask-type:alpha" maskUnits="userSpaceOnUse" x="7" y="7" width="120" height="63">
<path d="M126.094 7.05692H8.67591C8.29257 7.05692 7.98181 7.36767 7.98181 7.75101V68.716C7.98181 69.0993 8.29257 69.4101 8.67591 69.4101H126.094C126.478 69.4101 126.788 69.0993 126.788 68.716V7.75101C126.788 7.36767 126.478 7.05692 126.094 7.05692Z" fill="white"/>
</mask>
<g mask="url(#mask1_103_1090)">
<path d="M126.094 7.05695H8.67591C8.29257 7.05695 7.98181 7.3677 7.98181 7.75104V68.716C7.98181 69.0993 8.29257 69.4101 8.67591 69.4101H126.094C126.478 69.4101 126.788 69.0993 126.788 68.716V7.75104C126.788 7.3677 126.478 7.05695 126.094 7.05695Z" fill="#E1E5F0"/>
<path d="M6.07458 75.8233H144.104V11.8066C140.861 21.6421 134.683 26.9911 128.029 26.9911C124.185 26.9911 120.184 25.2069 116.497 21.4698C112.852 17.7761 108.764 16.0116 104.732 16.0116C97.6286 16.0107 90.6959 21.4839 86.6444 31.5191C83.4693 39.383 79.2823 43.3159 75.0953 43.3159C70.9084 43.3159 66.7207 39.383 63.5434 31.5163C59.4899 21.4821 52.553 16.0069 45.4486 16.0059C41.4152 16.0059 37.3288 17.7695 33.683 21.4642C29.996 25.2003 25.9934 26.9845 22.15 26.9845C15.496 26.9845 9.31746 21.6365 6.07458 11.8V75.8233Z" fill="#D8DEED"/>
</g>
</g>
<path d="M50.0907 37.3658H75.9995C76.9579 37.3658 77.7348 38.1426 77.7348 39.101V40.5271C77.7348 41.4854 76.9579 42.2623 75.9995 42.2623H50.0907C49.1324 42.2623 48.3555 41.4854 48.3555 40.5271V39.101C48.3555 38.1426 49.1324 37.3658 50.0907 37.3658ZM50.0907 45.3226H72.3271C73.2855 45.3226 74.0623 46.0995 74.0623 47.0579V48.4839C74.0623 49.4423 73.2855 50.2192 72.3271 50.2192H50.0907C49.1324 50.2192 48.3555 49.4423 48.3555 48.4839V47.0579C48.3555 46.0995 49.1324 45.3226 50.0907 45.3226Z" fill="#474BFF"/>
<mask id="mask2_103_1090" style="mask-type:alpha" maskUnits="userSpaceOnUse" x="13" y="21" width="34" height="33">
<path d="M29.7883 53.5617C38.7648 53.5617 46.0417 46.2848 46.0417 37.3082C46.0417 28.3317 38.7648 21.0548 29.7883 21.0548C20.8117 21.0548 13.5348 28.3317 13.5348 37.3082C13.5348 46.2848 20.8117 53.5617 29.7883 53.5617Z" fill="white"/>
</mask>
<g mask="url(#mask2_103_1090)">
<path d="M29.7883 53.5616C38.7648 53.5616 46.0417 46.2847 46.0417 37.3081C46.0417 28.3316 38.7648 21.0547 29.7883 21.0547C20.8117 21.0547 13.5348 28.3316 13.5348 37.3081C13.5348 46.2847 20.8117 53.5616 29.7883 53.5616Z" fill="#A339FF"/>
<path d="M43.5272 58.3121L37.8342 58.2784L37.7172 51.5756L42.2418 50.9528L42.5799 52.4279" fill="#BF865F"/>
<path d="M25.7398 35.9038C24.9101 35.5151 22.5014 35.683 22.479 35.6946C21.6351 35.7325 20.1578 35.8922 18.6151 36.9952C18.3866 37.1612 18.044 37.4217 17.6919 37.7981C17.3851 38.1158 16.796 38.2978 16.106 41.1907C15.8578 42.2132 15.5804 44.7607 14.4769 46.497C14.2554 46.8455 13.9662 48.2396 13.6091 50.6795C16.1906 50.9727 18.1572 51.1927 19.5088 51.3395C19.2214 53.9212 19.2403 56.0734 19.4931 57.4705C19.3098 58.3221 19.2542 58.8283 19.3265 58.989C23.1581 59.0147 25.4404 59.0327 26.1734 59.0431C27.9787 59.0694 32.9268 59.444 37.5212 59.0303C38.6587 57.9113 38.538 54.1877 38.538 54.1877C38.4994 53.4551 38.4616 52.7586 38.4246 52.0965C40.5877 51.5935 42.3317 51.0394 43.6567 50.4344C43.1761 48.1185 42.8628 46.7613 42.717 46.3628C42.2922 45.2247 41.3584 43.2227 41.1276 42.1889C40.4131 38.987 39.5181 38.0882 39.2004 37.7813C38.8353 37.4174 37.3143 36.151 35.0343 35.87C34.5345 35.8084 33.5592 35.7362 32.1083 35.6535C31.4671 35.5543 30.8562 35.5158 30.3323 35.4833C28.8193 35.3981 27.235 35.3052 25.7398 35.9038Z" fill="#FFCB3D"/>
<path fill-rule="evenodd" clip-rule="evenodd" d="M25.7494 35.9099C26.8934 38.3321 27.4964 40.5995 27.5584 42.712C27.6203 44.8244 27.6203 48.455 27.5584 53.6036L34.4206 53.5615C34.3637 48.855 34.2089 45.2385 33.9562 42.712C33.7035 40.1854 32.8424 37.7973 31.3729 35.5475C29.5919 35.3814 28.3204 35.3473 27.5584 35.4452C26.7963 35.5431 26.1934 35.698 25.7494 35.9099Z" fill="white"/>
<path d="M27.0208 32.2379L26.8301 36.0386C26.8286 36.123 26.8618 36.2079 26.9306 36.2453C27.228 36.4433 27.6521 36.6676 28.1821 36.7973C29.1381 37.043 29.9623 36.8887 30.4275 36.7522C30.5204 36.7297 30.5915 36.6345 30.5932 36.5382L30.6798 34.2977C31.2825 34.5339 31.249 34.5107 31.3081 34.5316C32.0336 34.7294 32.6585 34.7171 32.7746 34.696C33.1916 34.6686 33.6372 34.3293 34.0408 33.7462C34.5866 32.969 35.0822 31.7512 35.3623 30.2867C35.4122 30.0793 35.4274 29.8713 35.4426 29.6633L35.525 27.5937C35.5446 27.1313 35.4368 26.6781 35.2246 26.2463C35.1352 26.0597 35.0453 25.9077 34.9319 25.7784C34.2495 24.8706 33.2419 24.5423 32.4279 24.4372C31.9948 24.374 31.5992 24.3698 31.3142 24.3955C31.2099 24.4053 30.839 24.4451 30.3063 24.4705C30.0168 24.4886 29.7854 24.4846 29.6464 24.4937C27.9218 24.533 27.243 24.3129 26.3674 24.7604C26.2041 24.8386 25.8303 25.0403 25.4994 25.4395C24.5657 26.5686 24.7596 28.053 24.8097 28.4935C24.9949 29.8157 25.7442 30.6387 25.9697 30.9782C26.2388 31.3905 26.6961 31.8968 27.0208 32.2379Z" fill="#DB9E75"/>
<path d="M21.3309 52.3467C21.3064 52.4393 21.3617 52.5343 21.4543 52.5588C21.547 52.5832 21.6419 52.528 21.6664 52.4353C22.0673 50.9175 23.3507 46.3196 23.6247 45.4679C23.654 45.3766 23.6039 45.2789 23.5126 45.2495C23.4214 45.2202 23.3237 45.2703 23.2943 45.3616C23.0178 46.221 21.7333 50.8231 21.3309 52.3467ZM39.0229 52.605C39.0496 52.697 39.1459 52.7499 39.2379 52.7232C39.3299 52.6964 39.3829 52.6002 39.3561 52.5081C38.918 51.0006 37.65 46.3985 37.4462 45.5273C37.4243 45.434 37.331 45.376 37.2377 45.3978C37.1444 45.4197 37.0864 45.513 37.1082 45.6063C37.3139 46.4854 38.5831 51.0917 39.0229 52.605ZM30.7006 34.3051L29.1207 33.6378L30.6108 36.1517L30.7006 34.3051ZM34.1699 29.8255C34.178 30.0223 34.2071 30.3468 34.3207 30.4645C34.5143 30.6414 34.7789 30.0675 34.6348 29.7063C34.5796 29.5549 34.499 29.5304 34.4063 29.5403C34.2671 29.5611 34.1723 29.6867 34.1699 29.8255ZM32.1001 29.7546C32.0851 29.9511 32.0795 30.2749 32.1927 30.4157C32.3628 30.6154 32.6963 30.0659 32.5871 29.6937C32.5435 29.5425 32.4631 29.5064 32.3706 29.5048C32.2318 29.5024 32.1141 29.616 32.1001 29.7546ZM33.007 32.1539C33.122 32.1906 33.4901 32.3127 33.6204 32.1415C33.6794 32.0731 33.7645 31.8432 33.7645 31.8432C33.7645 31.8432 33.4631 31.8726 33.0934 31.843C32.8854 31.8278 32.7474 31.7791 32.6997 31.8593C32.6878 31.8822 32.6987 31.9171 32.6983 31.9403C32.7308 32.0681 32.9264 32.1294 33.007 32.1539ZM33.9851 31.0673L33.8342 29.8347L33.846 29.1603C33.8471 29.0964 33.7962 29.0438 33.7323 29.0426C33.6685 29.0415 33.6158 29.0924 33.6147 29.1563L33.6028 29.8387L33.6036 29.8548L33.7559 31.0984C33.7562 31.1006 33.7455 31.1137 33.7452 31.1142L33.7077 31.1165C33.5178 31.1278 33.4013 31.131 33.1984 31.1275C33.1346 31.1264 33.0819 31.1773 33.0808 31.2412C33.0796 31.305 33.1305 31.3577 33.1944 31.3588C33.4039 31.3625 33.526 31.359 33.7214 31.3474C33.7401 31.3463 33.7401 31.3463 33.769 31.3442C33.9013 31.3245 34.0046 31.1981 33.9851 31.0673Z" fill="#482D1F"/>
<path d="M26.6217 29.0162C26.6357 28.7187 26.7278 28.4201 26.9213 28.1602C27.3005 27.6461 27.9995 27.3691 28.5515 27.5638C28.862 27.6734 29.066 27.9199 29.0887 27.9434C29.1769 28.0586 29.2449 28.1754 29.2969 28.2832C31.0384 27.4921 32.3943 27.07 33.3646 27.0171C34.1067 26.9766 34.8281 27.1408 35.5289 27.5097C35.5351 27.0719 35.4278 26.6431 35.2264 26.2335C35.1371 26.0469 35.0472 25.8949 34.9337 25.7656C34.2513 24.8578 33.2438 24.5294 32.4297 24.4244C31.9966 24.3612 31.601 24.3569 31.3161 24.3827C31.2118 24.3925 30.8408 24.4323 30.3082 24.4577C30.0186 24.4758 29.7873 24.4717 29.6483 24.4809C27.9236 24.5202 27.2448 24.3001 26.3693 24.7476C26.2059 24.8258 25.8322 25.0275 25.5012 25.4267C24.5675 26.5558 24.7614 28.0402 24.8116 28.4807C24.8518 28.7678 24.9186 29.0313 25.0008 29.2715C25.4822 29.2129 26.0225 29.1278 26.6217 29.0162ZM35.0863 29.02C35.2024 28.9989 35.2397 28.8491 35.1602 28.7668C35.0577 28.6724 34.8742 28.5767 34.6429 28.5726C34.1687 28.5643 33.6543 28.8678 34.1839 29.0158C34.4946 29.1138 34.8656 29.074 35.0863 29.02ZM32.7022 29.0594C32.8183 29.0383 32.8556 28.8885 32.7645 28.8059C32.662 28.7116 32.4785 28.6158 32.2356 28.6116C31.7614 28.6033 31.2468 28.9183 31.7767 29.0548C32.1103 29.1648 32.4701 29.1016 32.7022 29.0594Z" fill="#482D1F"/>
<path d="M26.6544 28.7866C26.5956 29.1245 26.6501 29.4946 26.7988 29.794C26.9792 30.1712 27.2389 30.3797 27.5761 30.5425C27.6336 30.5703 27.6578 30.6395 27.63 30.697C27.6022 30.7545 27.533 30.7786 27.4755 30.7509C27.3272 30.6793 27.2097 30.6106 27.0742 30.5018C26.8746 30.3415 26.7087 30.1418 26.5908 29.8953C26.4211 29.5535 26.3591 29.1335 26.4265 28.7469C26.4375 28.6839 26.4974 28.6418 26.5603 28.6527C26.6233 28.6637 26.6654 28.7236 26.6544 28.7866Z" fill="#482D1F"/>
</g>
<rect x="46.6204" y="53.9083" width="81.7879" height="30.309" fill="#F2F6FB"/>
<path d="M33.4156 60.9652H125.302C126.059 60.9652 126.673 61.0685 126.673 61.196V62.8609C126.673 62.9884 126.059 63.0918 125.302 63.0918H33.4156C32.6582 63.0918 32.0442 62.9884 32.0442 62.8609V61.196C32.0442 61.0685 32.6582 60.9652 33.4156 60.9652ZM33.4156 64.4209H109.53C110.287 64.4209 110.901 64.5243 110.901 64.6518V66.3167C110.901 66.4441 110.287 66.5475 109.53 66.5475H33.4156C32.6582 66.5475 32.0442 66.4441 32.0442 66.3167V64.6518C32.0442 64.5243 32.6582 64.4209 33.4156 64.4209ZM33.4156 71.3324H77.9871C78.7446 71.3324 79.3586 71.4357 79.3586 71.5632V73.2281C79.3586 73.3556 78.7446 73.459 77.9871 73.459H33.4156C32.6582 73.459 32.0442 73.3556 32.0442 73.2281V71.5632C32.0442 71.4357 32.6582 71.3324 33.4156 71.3324ZM33.4156 67.8766H125.302C126.059 67.8766 126.673 67.98 126.673 68.1075V69.7724C126.673 69.8999 126.059 70.0032 125.302 70.0032H33.4156C32.6582 70.0032 32.0442 69.8999 32.0442 69.7724V68.1075C32.0442 67.98 32.6582 67.8766 33.4156 67.8766Z" fill="#E1E5F0"/>
<path d="M33.3033 77.2764H117.663C118.358 77.2764 118.922 77.3797 118.922 77.5072V79.1721C118.922 79.2996 118.358 79.403 117.663 79.403H33.3033C32.6079 79.403 32.0442 79.2996 32.0442 79.1721V77.5072C32.0442 77.3797 32.6079 77.2764 33.3033 77.2764ZM33.3033 80.7321H103.183C103.879 80.7321 104.443 80.8354 104.443 80.9629V82.6278C104.443 82.7553 103.879 82.8587 103.183 82.8587H33.3033C32.6079 82.8587 32.0442 82.7553 32.0442 82.6278V80.9629C32.0442 80.8354 32.6079 80.7321 33.3033 80.7321ZM33.3033 87.6435H74.2241C74.9195 87.6435 75.4832 87.7469 75.4832 87.8744V89.5393C75.4832 89.6668 74.9195 89.7701 74.2241 89.7701H33.3033C32.6079 89.7701 32.0442 89.6668 32.0442 89.5393V87.8744C32.0442 87.7469 32.6079 87.6435 33.3033 87.6435ZM33.3033 84.1878H117.663C118.358 84.1878 118.922 84.2912 118.922 84.4187V86.0836C118.922 86.2111 118.358 86.3144 117.663 86.3144H33.3033C32.6079 86.3144 32.0442 86.2111 32.0442 86.0836V84.4187C32.0442 84.2912 32.6079 84.1878 33.3033 84.1878Z" fill="#E1E5F0"/>
</g>
<path d="M169.623 89.8127H181.276C181.63 89.8127 181.939 89.518 181.939 89.1644V89.0908C181.939 88.7372 181.63 88.4425 181.247 88.4425H170.448C163.907 88.4425 157.365 88.4425 150.839 88.4425H140.821C140.467 88.4425 140.158 88.7372 140.158 89.0908V89.1644C140.158 89.518 140.452 89.8127 140.821 89.8127H155.038L151.119 97.0021C148.334 102.129 145.55 107.241 142.751 112.368L138.139 120.825C137.977 121.119 138.11 121.502 138.419 121.679L138.478 121.709C138.788 121.871 139.185 121.782 139.333 121.502L156.584 89.8127H168.076L185.328 121.502C185.475 121.782 185.873 121.885 186.182 121.709L186.241 121.679C186.55 121.502 186.683 121.119 186.521 120.825L181.91 112.368C179.125 107.241 176.341 102.129 173.542 97.0021L169.623 89.8127ZM181.895 84.0393V75.4733C181.895 68.9403 181.895 62.4222 181.895 55.9042V48.1197C181.895 46.8992 180.906 45.9098 179.685 45.9098H155.642C154.421 45.9098 153.432 46.8992 153.432 48.1197V84.0647C153.432 85.2851 154.421 86.2745 155.642 86.2745C155.642 86.2745 155.643 86.2745 155.644 86.2745L179.687 86.2492C180.907 86.2479 181.895 85.2589 181.895 84.0393Z" fill="#D8DEED"/>
<g clip-path="url(#clip1_103_1090)">
<path d="M175.122 120.78H160.007C159.653 120.78 159.344 120.525 159.344 120.219V120.015C159.344 119.709 159.638 119.454 160.007 119.454H175.107C175.461 119.454 175.77 119.709 175.77 120.015V120.219C175.8 120.525 175.49 120.78 175.122 120.78ZM149.197 119.441L163.83 108.539C164.124 108.318 164.552 108.377 164.773 108.671C164.994 108.966 164.935 109.393 164.64 109.614L149.849 120.634C149.554 120.855 149.127 120.796 148.906 120.502C148.685 120.207 148.744 119.78 149.038 119.559L149.197 119.441H149.407C149.775 119.441 150.084 119.743 150.084 120.104C150.07 120.478 149.775 120.767 149.407 120.767H141.23C140.862 120.767 140.552 120.464 140.552 120.104C140.552 119.743 140.862 119.441 141.23 119.441H149.197Z" fill="#FFCB3D"/>
<path d="M162.077 111.534L171.719 110.227L175.141 119.455C175.134 119.454 175.127 119.454 175.12 119.454H160.019C159.991 119.454 159.962 119.456 159.934 119.459L161.071 112.283L162.077 111.534ZM163.847 108.536C163.845 108.537 163.844 108.538 163.843 108.539L149.209 119.441H141.243C141.161 119.441 141.082 119.456 141.009 119.483C140.979 119.375 140.955 119.261 140.95 119.16C140.965 119.057 140.965 118.939 140.995 118.821C141.068 118.556 141.186 118.305 141.319 118.084C141.746 117.407 142.512 116.935 142.512 116.935C143.396 116.361 144.206 115.978 145.164 115.565C145.665 115.344 146.372 115.049 147.197 114.725C147.462 113.871 147.727 113.016 147.992 112.147C148.493 110.482 148.994 108.832 149.48 107.182L158.349 100.744L163.847 108.536Z" fill="#474961"/>
<path d="M157.942 92.2316L157.896 92.0697C157.79 91.7894 157.801 91.7791 157.927 92.039C157.852 91.0724 157.784 90.0189 157.723 88.8689L157.53 85.6507L154.139 84.3645C155.417 86.9958 156.693 89.6653 157.952 92.3552C157.948 92.3141 157.945 92.2729 157.942 92.2316V92.2316ZM174.945 86.5794C174.928 94.383 174.677 105.011 174.592 108.623C174.577 109.117 174.636 110.453 173.752 111.296C173.502 111.543 173.251 111.644 172.78 111.862C172.411 112.037 170.761 112.56 167.461 112.85C167.255 112.865 167.034 112.879 166.813 112.865C163.427 112.734 162.579 112.504 161.279 112.101L164.617 109.614C164.911 109.393 164.97 108.966 164.749 108.671C164.532 108.381 164.113 108.319 163.819 108.53L161.261 104.903C160.252 105.469 158.578 105.929 156.018 106.811C151.079 108.517 149.099 109.622 147.662 108.529C147.181 108.18 146.957 107.761 146.869 107.561C144.664 102.362 136.102 87.7313 131.67 76.8711C131.664 76.8432 131.647 76.8323 131.641 76.8045C130.219 73.3037 131.953 70.0707 136.657 67.7072C138.539 66.9755 140.053 66.6072 141.291 66.5185L141.289 66.5143C159.365 65.1402 169.39 64.656 171.362 65.0618C174.321 65.6705 176.53 67.0462 177.964 69.8865C179.398 72.7269 179.921 75.8829 179.043 80.2737C178.233 84.3292 175.91 86.2924 174.945 86.5794Z" fill="#474BFF"/>
<path d="M161.406 104.947C162.063 104.497 162.554 103.981 162.684 103.47C162.875 102.758 162.745 102.089 162.45 101.43C160.836 97.8229 159.718 95.4308 159.094 94.2492C159.037 94.1413 158.903 94.1 158.796 94.157C158.688 94.214 158.646 94.3477 158.703 94.4556C159.321 95.6259 160.436 98.0121 162.046 101.61C162.304 102.185 162.416 102.763 162.257 103.358C162.16 103.738 161.731 104.189 161.156 104.582C161.056 104.651 161.03 104.789 161.099 104.89C161.168 104.99 161.305 105.016 161.406 104.947Z" fill="#482D1F"/>
<path opacity="0.176986" d="M174.988 86.6193C174.988 86.367 174.989 86.1177 174.989 85.8717C174.989 82.8505 175.003 80.2505 175.033 78.5801C175.062 77.2583 175.283 69.9957 172.425 68.4851C172.175 68.3543 171.924 68.2527 171.423 68.0638C171.026 67.9186 168.963 67.1633 166.311 67.2795C164.588 67.3521 161.995 67.4683 159.858 69.284C156.912 71.7968 156.986 75.7622 157.015 76.4013L157.575 85.7494L154.2 84.4693C151.828 79.5841 149.443 74.8306 147.132 70.3248C145.999 68.1235 144.653 66.3195 141.257 66.592L141.251 66.5813C159.327 65.2072 169.351 64.723 171.324 65.1288C174.283 65.7375 176.492 67.1132 177.926 69.9535C179.36 72.7939 179.883 75.9499 179.005 80.3408C178.216 84.2861 175.997 86.2513 174.988 86.6193Z" fill="#444444"/>
<path d="M171.657 51.1491C172.547 51.0899 173.363 51.0076 174.104 50.9022C174.929 50.9022 176.21 50.7549 176.829 49.8709C177.728 48.6039 176.697 46.5561 175.548 44.2579C174.163 41.5029 173.225 40.4476 171.717 39.0278C169.149 36.6107 167.34 36.303 165.88 37.4209C165.861 37.4357 165.842 37.452 165.823 37.4699C165.171 37.294 164.485 37.2044 163.776 37.2141L160.535 37.2698C156.425 37.3116 153.007 40.6402 153.066 44.6651V44.9158L153.154 52.6733L153.169 59.9639C153.326 60.86 153.409 61.3453 153.419 61.4195C153.434 61.5449 153.434 61.6563 153.449 61.7816C153.478 62.1159 153.522 62.4223 153.611 62.7287C153.64 62.854 154.512 63.3972 154.556 63.5225C166.688 64.4547 172.813 64.7907 172.93 64.5308C173.169 63.9785 172.745 59.5179 171.657 51.1491Z" fill="#FFCB3D"/>
<path d="M163.256 36.8595C163.007 36.5448 162.781 36.2499 162.578 35.975C161.829 36.2836 161.009 36.5999 160.119 36.9238C160.031 36.9556 159.936 36.959 159.847 36.9336C159.612 36.8669 159.476 36.6224 159.542 36.3876L159.714 35.7822C160.34 35.3809 160.656 35.1316 160.811 35.0132C160.851 34.9779 161.593 34.5323 161.633 34.4971L161.634 32.1582C161.64 31.994 163.021 29.9901 162.683 29.2807C162.291 28.6086 161.12 27.485 160.427 27.6417C160.168 27.7078 158.781 28.3081 158.732 28.0628L158.067 24.2826C158.032 24.0352 157.817 23.8873 157.569 23.9222C157.029 23.9981 156.499 24.0429 155.942 24.0025C155.869 24.0127 155.808 24.0064 155.75 24.0146C155.216 24.0303 152.372 24.2519 151.145 26.5466C151.042 26.7689 150.939 26.9911 150.866 27.2092C150.676 27.7701 150.641 28.3687 150.771 28.9738L151.304 31.6001C151.361 31.8242 151.419 32.0483 151.497 32.2793C151.075 32.1974 150.753 32.1659 150.529 32.1848C149.499 32.2719 149.345 32.8011 150.067 33.7725L153.212 37.4267C148.236 49.1391 145.823 56.6342 145.973 59.9121L138.701 60.2779C136.233 60.8955 132.73 61.6783 132.73 61.6783C132.819 63.7991 135.426 63.5063 136.699 63.2216L140.268 64.053L142.944 64.6526C143.463 65.0391 144.388 66.1539 147.113 66.1539C150.478 66.1539 159.212 65.7964 173.314 65.0812C176.025 64.7477 177.501 64.1515 177.742 63.2926C178.103 62.0043 179.46 61.2625 176.623 53.2689C176.296 52.3493 175.971 51.4852 175.654 50.6813C175.105 50.8745 174.503 50.9202 174.044 50.9202C171.824 51.2359 168.933 51.3446 165.373 51.2462C165.794 52.3021 166.103 53.1694 166.293 53.5132C166.775 54.5424 167.014 55.0771 167.009 55.1173L153.316 58.4371L153.256 52.8305L153.242 52.6912L153.153 44.9338V44.6831C153.111 41.7671 154.816 39.2165 157.321 38.0166C156.588 38.1847 155.878 38.2293 155.192 38.1502C154.007 38.0137 153.112 36.8175 152.506 34.5616L152.519 34.564C152.336 34.234 152.159 33.8809 151.99 33.5068C153.133 36.0359 154.66 37.6085 155.77 37.5175C156.415 37.4417 157.048 37.2786 157.649 37.0011C157.726 36.9487 157.672 36.9925 158.633 36.4375L158.953 37.3722C157.938 37.6852 157.454 38.0164 157.513 37.98C157.817 38.378 158.007 38.6146 158.343 38.8694C160.333 40.4133 162.976 40.0675 165.084 39.371C165.298 38.3133 165.564 37.6633 165.88 37.4209C165.986 37.34 166.093 37.2668 166.202 37.2013C165.12 36.992 164.138 36.889 163.256 36.8595Z" fill="#ED9474"/>
<path opacity="0.2" d="M157.356 38.0166C156.623 38.1848 155.913 38.2293 155.227 38.1502C154.042 38.0137 153.147 36.8175 152.541 34.5616L152.554 34.564C152.196 33.9179 151.86 33.1831 151.566 32.3766C151.554 32.3441 151.543 32.3117 151.532 32.2794C151.111 32.1974 150.788 32.1659 150.564 32.1848C149.534 32.2719 149.38 32.8011 150.103 33.7725L153.247 37.4267C148.245 49.2011 145.832 56.7135 146.011 59.9639L146.487 59.94C147.679 59.7167 148.813 59.5425 148.88 59.5628L153.352 58.4786L153.292 52.8305L153.277 52.6913L153.188 44.9338V44.6831C153.146 41.7671 154.851 39.2166 157.356 38.0166Z" fill="#8C2A00"/>
<path d="M158.614 36.4001C157.661 36.9501 157.714 36.9068 157.638 36.959C157.036 37.2364 156.404 37.3996 155.759 37.4753C154.809 37.5532 153.554 36.4138 152.496 34.4999L152.45 34.4916C153.106 36.8669 154.027 38.1228 155.211 38.2593C156.396 38.3958 157.657 38.0921 158.994 37.3481L158.614 36.4001ZM158.591 31.0769L158.58 31.0705L158.965 29.2608C159.062 28.8902 159.271 28.5781 159.53 28.3037C159.743 28.125 159.976 27.988 160.235 27.9219C160.927 27.7652 161.761 28.1983 162.154 28.8722C162.531 29.5481 162.513 30.369 162.08 30.9951C161.81 31.405 161.408 31.7145 160.938 31.8697L160.763 31.8909L159.474 36.4252C159.408 36.66 159.544 36.9045 159.779 36.9712C159.867 36.9963 159.961 36.9933 160.047 36.9626C165.789 34.9258 168.585 33.1347 168.434 31.5891C168.3 30.2229 166.994 28.1763 164.516 25.4496C164.313 25.0589 164.044 24.678 163.689 24.342C163.327 23.9912 162.878 23.7568 162.409 23.5995C161.16 23.1799 160.311 23.5968 157.998 23.8624C157.531 23.928 156.837 23.966 155.95 24.0015C155.877 24.0117 155.816 24.0054 155.758 24.0136C155.224 24.029 152.515 24.1025 151.148 26.5658C151.168 26.6075 152.154 26.3201 152.834 26.3883C155.762 26.6909 157.283 31.4759 158.552 31.0892C158.565 31.0859 158.577 31.0819 158.591 31.0769ZM153.194 30.4583C153.496 30.4902 153.973 30.4975 154.367 30.338C155.033 30.0957 154.333 29.7775 153.702 29.8364C153.408 29.8629 153.191 30.0124 153.062 30.1496C152.974 30.2661 153.044 30.4496 153.194 30.4583ZM150.706 30.7485C151.012 30.8096 151.481 30.8627 151.896 30.7449C152.596 30.5423 151.918 30.1616 151.295 30.1748C150.968 30.1761 150.763 30.309 150.617 30.4336C150.498 30.5396 150.554 30.7252 150.706 30.7485Z" fill="#482D1F"/>
<path d="M154.453 32.1112C154.574 31.9157 154.459 31.5154 154.38 31.2735C154.339 31.0859 154.147 30.9938 153.987 31.0163C153.887 31.0453 153.764 31.1221 153.763 31.3304C153.729 31.8262 154.304 32.4297 154.453 32.1112ZM152.044 32.435C152.136 32.2435 152.049 31.8391 151.971 31.5972C151.929 31.4096 151.738 31.3175 151.577 31.3401C151.477 31.369 151.354 31.4458 151.354 31.6542C151.319 32.15 151.91 32.7513 152.044 32.435Z" fill="#482D1F"/>
<path d="M152.036 31.3105C152.014 31.2322 152.059 31.1508 152.138 31.1288C152.216 31.1067 152.297 31.1523 152.32 31.2307L152.557 32.075L152.561 32.0931L152.793 33.6371C152.801 33.6537 152.816 33.6632 152.836 33.6624C153.105 33.596 153.388 33.6249 153.654 33.7309C153.729 33.7611 153.766 33.8468 153.736 33.9223C153.706 33.9979 153.62 34.0347 153.544 34.0046C153.33 33.9192 153.107 33.8972 152.898 33.9505L152.882 33.9536C152.712 33.9776 152.558 33.8756 152.509 33.7181L152.504 33.6958L152.271 32.146L152.036 31.3105Z" fill="#482D1F"/>
<path d="M153.857 34.9622C153.957 34.9332 154.211 34.838 154.247 34.6693C154.243 34.6401 154.266 34.5923 154.247 34.5651C154.193 34.4983 153.741 34.5619 153.741 34.5619C153.145 34.6605 152.995 34.6519 152.962 34.731C152.953 34.7768 152.961 34.8351 153.082 34.9521C153.248 35.1817 153.701 35.0139 153.857 34.9622Z" fill="#482D1F"/>
<path d="M167.357 55.0281C167.257 54.9578 167.119 54.9818 167.049 55.0816C166.979 55.1813 167.003 55.3192 167.103 55.3895L169.542 57.1073C169.642 57.1776 169.78 57.1537 169.85 57.0539C169.921 56.9541 169.897 56.8162 169.797 56.746L167.357 55.0281ZM164.972 48.044C165.012 47.9289 164.952 47.8027 164.837 47.7621C164.722 47.7214 164.596 47.7818 164.555 47.8969C164.545 47.9262 164.527 47.9785 164.506 48.0505C164.469 48.1693 164.434 48.3011 164.4 48.4427C164.308 48.8294 164.251 49.2159 164.246 49.5806C164.23 50.7099 164.718 51.4327 165.842 51.4178C165.964 51.4162 166.061 51.316 166.06 51.1939C166.058 51.0719 165.958 50.9743 165.836 50.9759C165.006 50.9869 164.675 50.4962 164.688 49.587C164.693 49.2585 164.745 48.9025 164.83 48.5446C164.861 48.4123 164.895 48.2892 164.928 48.1788C164.948 48.1134 164.964 48.0673 164.972 48.044Z" fill="#482D1F"/>
</g>
<path d="M113.33 97.4664C113.346 97.4647 113.362 97.4638 113.378 97.4638H132.283C132.651 97.4638 132.948 97.9263 132.948 98.4968C132.948 99.0672 132.651 99.5297 132.283 99.5297H113.378C113.362 99.5297 113.346 99.5288 113.33 99.5271V119.967C113.33 120.538 113.032 121 112.665 121C112.298 121 112 120.538 112 119.967V66.1068C112 65.6097 112.226 65.1947 112.527 65.0961C112.612 65.0345 112.707 65.0001 112.808 65.0001H169.335C169.702 65.0001 170 65.4625 170 66.033C170 66.6035 169.702 67.0659 169.335 67.0659H113.33V97.4664Z" fill="#D8DEED"/>
<g clip-path="url(#clip2_103_1090)">
<path d="M115.757 64.8719C115.904 65.1314 116.183 65.3067 116.502 65.3067H137.672C138.144 65.3067 138.512 64.9236 138.512 64.4522C138.512 63.9808 138.129 63.5977 137.672 63.5977H117.08L109.901 44.2834C109.739 43.8414 109.253 43.6204 108.811 43.7825C108.369 43.9446 108.148 44.4307 108.31 44.8727L115.691 64.7321C115.709 64.7816 115.732 64.8282 115.757 64.8719Z" fill="#474961"/>
</g>
<defs>
<clipPath id="clip0_103_1090">
<rect width="134.655" height="94.166" fill="white"/>
</clipPath>
<clipPath id="clip1_103_1090">
<rect width="76.9037" height="111.378" fill="white" transform="matrix(-1 0 0 1 193.759 9.40259)"/>
</clipPath>
<clipPath id="clip2_103_1090">
<rect width="52.1531" height="39.1885" fill="white" transform="translate(97.2609 26.1978)"/>
</clipPath>
</defs>
</svg>
