<svg width="190" height="126" viewBox="0 0 190 126" fill="none" xmlns="http://www.w3.org/2000/svg">
<g clip-path="url(#clip0_103_1232)">
<path d="M138.749 0H5.57225C2.49478 0 0 2.49293 0 5.56812V102.732C0 105.807 2.49478 108.3 5.57225 108.3H138.749C141.827 108.3 144.321 105.807 144.321 102.732V5.56812C144.321 2.49293 141.827 0 138.749 0Z" fill="white"/>
<path d="M21.6996 99.8741C14.4853 99.8741 8.63696 93.9699 8.63696 86.6867C8.63696 79.4035 14.4853 73.4993 21.6996 73.4993C28.9139 73.4993 34.7622 79.4035 34.7622 86.6867C34.7622 93.9699 28.9139 99.8741 21.6996 99.8741ZM21.7281 86.6314C22.692 86.6314 23.4734 85.8526 23.4734 84.892C23.4734 83.9314 22.692 83.1527 21.7281 83.1527C20.7642 83.1527 19.9828 83.9314 19.9828 84.892C19.9828 85.8526 20.7642 86.6314 21.7281 86.6314ZM21.7281 87.501C19.981 87.501 18.5647 88.9125 18.5647 90.6536H24.8915C24.8915 88.9125 23.4752 87.501 21.7281 87.501Z" fill="#D8DEED"/>
<path d="M8.63699 23.388C8.63699 22.7719 9.13388 22.2725 9.75112 22.2725H101.981C102.596 22.2725 103.095 22.771 103.095 23.388V63.2679C103.095 63.884 102.598 64.3834 101.981 64.3834H9.75112C9.13581 64.3834 8.63699 63.8849 8.63699 63.2679V23.388ZM43.5753 84.2302H116.778C117.917 84.2302 118.84 85.1528 118.84 86.2908V87.4028C118.84 88.5408 117.917 89.4633 116.778 89.4633H43.5753C42.4365 89.4633 41.5133 88.5408 41.5133 87.4028V86.2908C41.5133 85.1528 42.4365 84.2302 43.5753 84.2302ZM43.5753 92.734H129.884C131.023 92.734 131.946 93.6565 131.946 94.7945V95.9065C131.946 97.0445 131.023 97.9671 129.884 97.9671H43.5753C42.4365 97.9671 41.5133 97.0445 41.5133 95.9065V94.7945C41.5133 93.6565 42.4365 92.734 43.5753 92.734ZM43.5753 75.7265H98.4292C99.5681 75.7265 100.491 76.649 100.491 77.787V78.899C100.491 80.037 99.5681 80.9595 98.4292 80.9595H43.5753C42.4365 80.9595 41.5133 80.037 41.5133 78.899V77.787C41.5133 76.649 42.4365 75.7265 43.5753 75.7265ZM0 5.56935C0 2.49348 2.49457 0 5.57437 0H139.026C142.104 0 144.6 2.49371 144.6 5.56935V12.2499H0V5.56935Z" fill="#E1E5F0"/>
<path d="M114.256 55.1716H131.291C132.247 55.1716 133.074 55.3655 133.755 55.7294C134.436 56.0934 134.97 56.6275 135.334 57.308C135.699 57.9886 135.893 58.8146 135.893 59.77V59.785C135.893 60.7404 135.699 61.5664 135.334 62.247C134.97 62.9275 134.436 63.4616 133.755 63.8256C133.074 64.1895 132.247 64.3834 131.291 64.3834H114.256C113.3 64.3834 112.473 64.1895 111.792 63.8256C111.111 63.4616 110.577 62.9275 110.213 62.247C109.848 61.5664 109.654 60.7404 109.654 59.785V59.77C109.654 58.8146 109.848 57.9886 110.213 57.308C110.577 56.6275 111.111 56.0934 111.792 55.7294C112.473 55.3655 113.3 55.1716 114.256 55.1716Z" fill="#A339FF"/>
<path d="M8.21909 8.90898C9.68088 8.90898 10.8659 7.72484 10.8659 6.26412C10.8659 4.80341 9.68088 3.61926 8.21909 3.61926C6.75729 3.61926 5.57227 4.80341 5.57227 6.26412C5.57227 7.72484 6.75729 8.90898 8.21909 8.90898Z" fill="#FF5645"/>
<path d="M16.856 8.90898C18.3178 8.90898 19.5029 7.72484 19.5029 6.26412C19.5029 4.80341 18.3178 3.61926 16.856 3.61926C15.3943 3.61926 14.2092 4.80341 14.2092 6.26412C14.2092 7.72484 15.3943 8.90898 16.856 8.90898Z" fill="#FFCB3D"/>
<path d="M25.7717 8.90898C27.2335 8.90898 28.4185 7.72484 28.4185 6.26412C28.4185 4.80341 27.2335 3.61926 25.7717 3.61926C24.3099 3.61926 23.1249 4.80341 23.1249 6.26412C23.1249 7.72484 24.3099 8.90898 25.7717 8.90898Z" fill="#3ABF7C"/>
</g>
<path d="M156.45 125.1C156.699 125.1 156.9 125.301 156.9 125.55C156.9 125.798 156.699 126 156.45 126H140.15C139.901 126 139.7 125.798 139.7 125.55C139.7 125.301 139.901 125.1 140.15 125.1H156.45ZM188.25 126H178C177.76 126 177.55 125.827 177.55 125.619V125.481C177.55 125.273 177.75 125.1 178 125.1H188.25C188.49 125.1 188.7 125.273 188.7 125.481V125.619C188.7 125.827 188.5 126 188.25 126Z" fill="#3ABF7C"/>
<path d="M156.503 125.103C156.485 125.101 156.468 125.1 156.45 125.1H140.221C140.21 125.045 140.205 124.976 140.206 124.887C140.217 124.817 140.219 124.737 140.24 124.657C140.369 124.18 140.524 123.862 140.979 123.58C141.434 123.298 141.899 123.046 142.383 122.825C144.167 121.986 144.777 121.996 145.951 121.227C146.437 120.905 146.883 120.533 147.3 120.13C147.578 119.861 148.179 119.425 149.103 118.821L156.564 118.821L156.503 125.103ZM188.305 125.103C188.287 125.101 188.268 125.1 188.25 125.1H178.034L178.843 119.999L186.003 119.029L188.305 125.103Z" fill="#474961"/>
<path d="M167.19 85.6094C164.916 93.1349 163.495 98.3242 161.099 106.181C160.604 107.586 160.421 108.652 160.551 109.379C160.746 110.469 161.707 112.422 162.176 114.553C162.644 116.684 157.839 114.346 153.754 113.561C149.668 112.777 145.459 111.976 145.568 111.364C145.833 109.909 149.983 108.007 150.312 106.181C150.64 104.355 150.888 102.366 150.934 102.039C153.036 89.5503 155.009 79.9544 156.078 74.7349C156.529 72.4967 157.396 68.271 160.551 63.9452C160.756 63.6716 160.922 63.4587 161.02 63.327C161.31 63.0202 161.635 62.7889 161.967 62.615C161.959 62.5534 161.952 62.4919 161.945 62.4307C162.744 61.8366 163.287 61.4071 166.523 61.1606C166.603 61.1592 166.693 61.1476 166.773 61.1462C169.91 60.9814 172.574 62.1263 174.583 64.5958C175.866 66.5045 176.87 68.8522 177.598 71.6389C178.265 74.1968 180.809 85.6637 185.228 106.04C185.427 106.628 185.619 107.06 185.806 107.335C186.427 108.251 188.261 109.501 189.556 111.257C190.85 113.012 185.51 112.831 181.458 113.776C177.407 114.721 173.236 115.702 173.087 115.098C172.81 113.96 174.646 111.574 175.201 109.735C173.518 105.158 171.866 100.404 170.263 95.4906C169.174 92.143 168.151 88.8475 167.19 85.6094Z" fill="#A339FF"/>
<path opacity="0.176986" d="M167.16 85.632C164.896 93.1241 163.477 98.3065 161.088 106.141C160.592 107.547 160.409 108.613 160.539 109.34C160.734 110.429 161.695 112.383 162.164 114.514C162.632 116.644 157.828 114.307 153.742 113.522C149.656 112.737 145.447 111.937 145.556 111.325C145.821 109.87 149.972 107.967 150.3 106.141C150.628 104.315 150.876 102.327 150.922 102C153.025 89.511 154.997 79.9151 156.067 74.6957C156.518 72.4575 157.384 68.2317 160.539 63.906C160.744 63.6323 160.91 63.4194 161.008 63.2877C161.292 62.9873 161.609 62.7593 161.934 62.5866C162.305 65.6842 162.721 69.2031 163.326 71.9789C163.938 74.7875 164.753 77.4499 165.602 80.2455C166.102 82.0223 166.621 83.8182 167.16 85.632Z" fill="#444444"/>
<path d="M171.026 47.0337C171.577 47.1931 172.098 47.426 172.55 47.7153C174.489 48.9562 175.631 51.3213 174.745 53.65C174.56 54.1351 173.94 54.7225 172.885 55.4121C172.8 55.4217 172.715 55.4301 172.63 55.4374L172.299 59.0205C172.289 59.1305 172.279 59.2305 172.279 59.3405C172.269 59.8405 172.179 60.5805 171.749 61.1205C171.149 61.8805 170.259 62.9805 166.539 63.0205C162.539 63.0605 161.579 61.9605 160.959 61.1805C160.529 60.6505 160.419 60.0105 160.409 59.4905C160.409 59.3805 160.399 59.2805 160.389 59.1705L160.036 55.4099C158.16 55.0958 157.874 53.8529 157.564 52.8912C156.934 50.9319 158.28 48.6281 159.953 47.5263C161.144 46.7415 162.605 46.412 163.965 46.6929C164.589 46.5087 165.265 46.4051 165.979 46.4005H166.549C168.275 46.3902 169.85 46.5419 171.026 47.0337Z" fill="#3ABF7C"/>
<path opacity="0.176986" d="M160.032 55.3718C158.195 55.0462 157.91 53.8149 157.603 52.8605C156.972 50.9011 158.319 48.5973 159.992 47.4955C161.194 46.7032 162.672 46.3749 164.042 46.6704C161.933 47.2659 160.388 48.7783 159.859 50.5205C159.699 51.0405 159.669 51.6005 159.729 52.1405L160.032 55.3718Z" fill="#444444"/>
<path d="M163.27 44.9384C163.244 44.9449 163.217 44.9516 163.19 44.9583C162.313 45.1776 162.364 45.1612 162.303 45.1769C161.654 45.2719 161.119 45.1844 161.021 45.1575C160.201 44.9898 159.424 43.3416 159.28 41.0961C159.263 40.9145 159.275 40.7349 159.278 40.5546L159.433 38.7711C159.46 38.3721 159.597 37.9907 159.821 37.6655C159.843 37.627 159.865 37.5984 159.887 37.5699C159.964 37.475 160.041 37.3802 160.116 37.3052C160.408 37.0048 160.743 36.7977 161.084 36.6611C161.884 36.3963 162.764 36.4278 163.248 36.5318C163.317 36.5467 163.535 36.5919 163.841 36.6535C164.125 36.7435 164.402 36.803 164.691 36.8332C164.849 36.8543 164.959 37.0023 164.948 37.1619L164.67 39.7087C164.663 39.7698 165.416 39.1938 166.196 39.4C166.448 39.4665 166.794 39.8197 167.237 40.4597C167.079 40.942 166.996 41.1901 166.989 41.2039C166.662 41.8022 166.422 42.1784 166.269 42.3325L166.209 43.9364L166.312 46.4005H165.979C165.027 46.4067 164.145 46.5884 163.359 46.9027L163.27 44.9384ZM184.851 113.172L186.003 119.031L178.862 120.035L178.104 114.522C179.18 114.285 180.341 114.014 181.492 113.745C182.57 113.494 183.74 113.322 184.851 113.172ZM150.922 112.973C151.845 113.158 152.819 113.345 153.787 113.531C155.056 113.774 156.394 114.167 157.621 114.53L156.565 118.93H149L150.922 112.973ZM159.668 61.2683C158.523 62.1767 157.362 62.5864 156.184 62.4972C152.79 62.2401 149.297 58.8945 145.706 52.4603L145.707 52.4599L145.706 52.4598L142.154 45.6646C143.04 44.924 143.859 44.9528 144.61 45.7511C145.302 46.6596 145.701 47.2017 145.806 47.3775C147.377 50.01 148.642 49.5436 150.179 51.4783L154.972 55.6049L156.724 53.797C156.504 52.9623 156.291 52.0776 156.087 51.1429C155.556 50.784 154.736 50.1308 153.4 49.0114C153.275 48.9065 152.658 48.7669 151.55 48.5927C149.903 48.8086 149.158 48.3443 149.316 47.2L156.384 46.7371C157.136 46.6878 157.861 47.0269 158.305 47.6357C158.842 48.372 159.227 48.9879 159.461 49.4835L163.699 55.8388L165.904 52.2618C166.548 53.4194 167.507 53.9434 168.827 54.6902C169.912 55.3037 171.218 55.5361 172.746 55.3874C169.8 61.2164 166.912 64.1721 164.079 64.2546C162.437 64.3025 160.967 63.307 159.668 61.2683Z" fill="#FFD6BA"/>
<path opacity="0.2" d="M159.73 61.255C158.581 62.1727 157.414 62.5868 156.231 62.4971C152.836 62.2401 149.344 58.8945 145.752 52.4602L145.753 52.4599L145.752 52.4598L142.2 45.6646C143.087 44.9239 143.905 44.9528 144.656 45.7511C145.348 46.6596 145.747 47.2017 145.852 47.3775C147.423 50.01 148.688 49.5435 150.225 51.4782L155.018 55.6049L156.78 53.7865C157.639 57.0337 158.623 59.5232 159.73 61.255Z" fill="#8C2A00"/>
<path d="M163.309 45.7816L164.49 44.6257L163.273 44.9375L163.309 45.7816Z" fill="#482D1F"/>
<path d="M168.198 41.5575C168.067 42.0333 168.105 42.3974 168.311 42.6499C169.345 43.9158 169.815 44.1008 169.556 44.5641C169.261 45.0933 168.161 45.2327 166.256 44.9822C164.987 44.1238 165.271 42.5756 165.273 42.4406C165.273 42.4395 165.272 42.4384 165.272 42.4372C165.404 42.4163 165.816 42.3847 166.158 42.0783C166.5 41.7814 166.726 41.266 166.593 40.7354C166.478 40.2261 166.028 39.7836 165.548 39.7601C165.278 39.7513 165.05 39.8656 165.019 39.8835C164.653 40.0885 164.471 40.3965 164.471 40.3965L164.357 40.6125C164.325 40.5551 164.295 40.5016 164.267 40.4524C163.623 39.6255 162.979 38.8085 162.325 37.9809C161.169 37.6294 160.082 37.6537 159.909 37.5414C159.986 37.4465 160.063 37.3516 160.138 37.2767C160.43 36.9763 160.765 36.7692 161.106 36.6326C161.906 36.3678 162.786 36.3993 163.27 36.5033C163.339 36.5181 163.557 36.5634 163.863 36.6249C163.952 36.6412 164.041 36.6574 164.15 36.6751C164.408 36.7132 164.606 36.7471 164.725 36.7654C166.235 36.9712 166.835 36.8428 167.564 37.3148C167.698 37.4043 168.004 37.6162 168.249 37.9842C168.956 39.0561 168.638 40.307 168.551 40.6819C168.465 41.0172 168.339 41.3077 168.198 41.5575ZM159.176 39.8648C159.079 39.8328 159.054 39.7088 159.132 39.6479C159.231 39.5794 159.392 39.4985 159.592 39.5129C160.001 39.543 160.419 39.8361 159.965 39.9214C159.675 39.9865 159.361 39.9178 159.176 39.8648ZM161.102 40.1013C161.005 40.0692 160.98 39.9453 161.068 39.8855C161.167 39.8171 161.328 39.7361 161.537 39.7518C161.947 39.7819 162.363 40.0849 161.91 40.1603C161.61 40.2242 161.296 40.1554 161.102 40.1013Z" fill="#482D1F"/>
<path d="M142.803 42.1388C143.069 41.965 143.369 41.9488 143.473 42.1103L148.407 49.3981C148.512 49.5596 148.395 49.8308 148.13 50.0146C147.864 50.1884 147.564 50.2046 147.46 50.0431L142.526 42.7554C142.411 42.5848 142.537 42.3127 142.803 42.1388Z" fill="#474961"/>
<path d="M159.827 40.7205C159.826 40.8917 159.822 41.1732 159.708 41.2802C159.557 41.443 159.305 40.9486 159.414 40.6395C159.46 40.5042 159.535 40.4731 159.614 40.4828C159.733 40.4974 159.821 40.599 159.827 40.7205ZM161.601 40.8779C161.61 41.0503 161.596 41.3306 161.482 41.4375C161.331 41.6003 161.079 41.106 161.188 40.7969C161.234 40.6616 161.309 40.6304 161.388 40.6402C161.507 40.6548 161.596 40.7563 161.601 40.8779Z" fill="#482D1F"/>
<path d="M160.858 42.8219C160.93 42.8106 161.106 42.7717 161.149 42.6662C161.152 42.6464 161.165 42.6178 161.158 42.5967C161.126 42.5323 160.993 42.5462 160.812 42.5442C160.49 42.5349 160.236 42.4735 160.236 42.4735C160.236 42.4735 160.291 42.6817 160.335 42.7375C160.414 42.9084 160.745 42.8383 160.858 42.8219Z" fill="#482D1F"/>
<path d="M160.086 41.8997L160.084 41.9107C160.07 42.019 160.132 42.1287 160.238 42.16C160.257 42.1643 160.268 42.1665 160.279 42.1686C160.384 42.1883 160.459 42.1985 160.729 42.2318C160.784 42.2385 160.834 42.1995 160.841 42.1447C160.847 42.0899 160.808 42.04 160.754 42.0332C160.488 42.0006 160.415 41.9906 160.317 41.972C160.306 41.9701 160.296 41.9681 160.286 41.966C160.288 41.9663 160.281 41.9538 160.282 41.939L160.53 40.8986L160.532 40.8843L160.584 40.2962C160.589 40.2412 160.548 40.1927 160.493 40.1878C160.438 40.1829 160.39 40.2236 160.385 40.2786L160.333 40.8594L160.086 41.8997Z" fill="#482D1F"/>
<path d="M165.991 52.293C165.892 50.8669 166.128 49.8035 166.691 49.0981C166.743 49.0334 166.732 48.939 166.667 48.8873C166.603 48.8356 166.508 48.8462 166.456 48.911C165.84 49.6833 165.588 50.8192 165.691 52.3137C165.697 52.3964 165.769 52.4587 165.851 52.453C165.934 52.4472 165.996 52.3756 165.991 52.293Z" fill="#482D1F"/>
<defs>
<clipPath id="clip0_103_1232">
<rect width="144.6" height="108.3" fill="white"/>
</clipPath>
</defs>
</svg>
