<svg width="187" height="123" viewBox="0 0 187 123" fill="none" xmlns="http://www.w3.org/2000/svg">
<g clip-path="url(#clip0_113_1046)">
<path d="M105.196 0H4.32018C1.93421 0 0 1.93446 0 4.32074V79.7177C0 82.104 1.93421 84.0384 4.32018 84.0384H105.196C107.582 84.0384 109.517 82.104 109.517 79.7177V4.32074C109.517 1.93446 107.582 0 105.196 0Z" fill="white"/>
<path d="M0 4.32169C0 1.93489 1.93568 0 4.31847 0H105.198C107.583 0 109.517 1.93506 109.517 4.32169V9.50563H0V4.32169Z" fill="#E1E5F0"/>
<path d="M6.37228 6.91318C7.50561 6.91318 8.42436 5.99431 8.42436 4.86082C8.42436 3.72734 7.50561 2.80847 6.37228 2.80847C5.23894 2.80847 4.32019 3.72734 4.32019 4.86082C4.32019 5.99431 5.23894 6.91318 6.37228 6.91318Z" fill="#FF5645"/>
<path d="M13.0685 6.91318C14.2019 6.91318 15.1206 5.99431 15.1206 4.86082C15.1206 3.72734 14.2019 2.80847 13.0685 2.80847C11.9352 2.80847 11.0164 3.72734 11.0164 4.86082C11.0164 5.99431 11.9352 6.91318 13.0685 6.91318Z" fill="#FFCB3D"/>
<path d="M19.9808 6.91318C21.1142 6.91318 22.0329 5.99431 22.0329 4.86082C22.0329 3.72734 21.1142 2.80847 19.9808 2.80847C18.8475 2.80847 17.9287 3.72734 17.9287 4.86082C17.9287 5.99431 18.8475 6.91318 19.9808 6.91318Z" fill="#3ABF7C"/>
</g>
<path fill-rule="evenodd" clip-rule="evenodd" d="M9.6875 19.0527C9.6875 18.4713 9.91899 18 10.2057 18H48.1693C48.4555 18 48.6875 18.4703 48.6875 19.0527V64H9.6875V19.0527Z" fill="#E1E5F0"/>
<g clip-path="url(#clip1_113_1046)">
<path d="M98.7441 50.4892H59.415C58.2503 50.4892 57.3062 51.4342 57.3062 52.5999V61.5705C57.3062 62.7363 58.2503 63.6813 59.415 63.6813H98.7441C99.9088 63.6813 100.853 62.7363 100.853 61.5705V52.5999C100.853 51.4342 99.9088 50.4892 98.7441 50.4892Z" fill="#E1E5F0"/>
<path d="M61.3613 56.7696H83.3916C83.508 56.7696 83.6024 56.8641 83.6024 56.9806V58.0833C83.6024 58.1999 83.508 58.2944 83.3916 58.2944H61.3613C61.2448 58.2944 61.1504 58.1999 61.1504 58.0833V56.9806C61.1504 56.8641 61.2448 56.7696 61.3613 56.7696ZM61.3613 59.2474H85.2943C85.4107 59.2474 85.5051 59.3419 85.5051 59.4585V60.5612C85.5051 60.6778 85.4107 60.7723 85.2943 60.7723H61.3613C61.2448 60.7723 61.1504 60.6778 61.1504 60.5612V59.4585C61.1504 59.3419 61.2448 59.2474 61.3613 59.2474Z" fill="#F2F6FB"/>
<path d="M85.6748 54.2917H61.3613C61.2448 54.2917 61.1504 54.3862 61.1504 54.5028V55.6055C61.1504 55.722 61.2448 55.8165 61.3613 55.8165H85.6748C85.7913 55.8165 85.8857 55.722 85.8857 55.6055V54.5028C85.8857 54.3862 85.7913 54.2917 85.6748 54.2917Z" fill="#F2F6FB"/>
<path d="M98.7441 35.503H59.415C58.2503 35.503 57.3062 36.448 57.3062 37.6137V46.5843C57.3062 47.75 58.2503 48.6951 59.415 48.6951H98.7441C99.9088 48.6951 100.853 47.75 100.853 46.5843V37.6137C100.853 36.448 99.9088 35.503 98.7441 35.503Z" fill="#F2F6FB"/>
<path d="M94.2576 60.9629C92.156 60.9629 90.4522 59.2561 90.4522 57.1508C90.4522 55.0454 92.156 53.3387 94.2576 53.3387C96.3593 53.3387 98.0631 55.0454 98.0631 57.1508C98.0631 59.2561 96.3593 60.9629 94.2576 60.9629ZM64.9558 45.914C62.8541 45.914 61.1504 44.2073 61.1504 42.1019C61.1504 39.9965 62.8541 38.2898 64.9558 38.2898C67.0575 38.2898 68.7613 39.9965 68.7613 42.1019C68.7613 44.2073 67.0575 45.914 64.9558 45.914Z" fill="#474BFF"/>
<path fill-rule="evenodd" clip-rule="evenodd" d="M64.9539 42.0504C64.4356 42.0504 64.0155 41.6352 64.0155 41.1231C64.0155 40.611 64.4356 40.1959 64.9539 40.1959C65.4721 40.1959 65.8922 40.611 65.8922 41.1231C65.8922 41.6352 65.4721 42.0504 64.9539 42.0504ZM64.9539 42.514C65.8931 42.514 66.6546 43.2665 66.6546 44.1947H63.2531C63.2531 43.2665 64.0146 42.514 64.9539 42.514ZM94.2557 57.0993C93.7375 57.0993 93.3174 56.6841 93.3174 56.172C93.3174 55.6599 93.7375 55.2447 94.2557 55.2447C94.7739 55.2447 95.194 55.6599 95.194 56.172C95.194 56.6841 94.7739 57.0993 94.2557 57.0993ZM94.2557 57.5629C95.195 57.5629 95.9564 58.3154 95.9564 59.2436H92.555C92.555 58.3154 93.3164 57.5629 94.2557 57.5629Z" fill="white"/>
<path d="M70.8749 41.3395H92.9051C93.0216 41.3395 93.116 41.434 93.116 41.5506V42.6532C93.116 42.7698 93.0216 42.8643 92.9051 42.8643H70.8749C70.7584 42.8643 70.664 42.7698 70.664 42.6532V41.5506C70.664 41.434 70.7584 41.3395 70.8749 41.3395ZM70.8749 43.8173H96.7106C96.827 43.8173 96.9214 43.9118 96.9214 44.0284V45.1311C96.9214 45.2477 96.827 45.3422 96.7106 45.3422H70.8749C70.7584 45.3422 70.664 45.2477 70.664 45.1311V44.0284C70.664 43.9118 70.7584 43.8173 70.8749 43.8173Z" fill="#E1E5F0"/>
<path d="M87.5775 38.8616H70.8749C70.7584 38.8616 70.664 38.9561 70.664 39.0727V40.1754C70.664 40.292 70.7584 40.3865 70.8749 40.3865H87.5775C87.694 40.3865 87.7884 40.292 87.7884 40.1754V39.0727C87.7884 38.9561 87.694 38.8616 87.5775 38.8616Z" fill="#E1E5F0"/>
</g>
<path d="M38.177 51.9529C38.1851 52.4808 38.1918 53.0254 38.1918 53.5766C38.1918 53.5766 38.4267 55.936 37.3592 56.9233C37.2418 57.0377 37.103 57.1208 36.9856 57.1936C36.74 57.3391 36.5265 57.4015 36.5265 57.4015C36.5265 57.4015 36.5159 57.4118 36.5052 57.4118C34.7972 57.8692 33.3988 57.7341 32.6623 57.7548C30.2925 57.8068 28.371 57.7964 26.7057 57.7444C25.6916 57.7133 21.3897 57.9939 20.8453 57.204C20.8346 57.1832 20.8239 57.1624 20.8133 57.1416C20.7172 56.9233 20.6425 56.6531 20.5891 56.3309C20.5784 56.2997 20.5677 56.2582 20.5677 56.227C20.3913 55.1779 20.3746 53.6541 20.5538 51.8287L15.4276 51.4081C15.092 51.3805 14.8351 51.0979 14.8395 50.7613C14.8624 49.0324 14.956 47.8481 15.1205 47.2084C15.8808 44.2506 17.3336 42.9712 17.4619 42.5131C18.1914 39.8674 18.9165 38.9286 19.2097 38.6454C19.5466 38.3097 19.8708 38.0805 20.0869 37.9348C21.5451 36.9673 23.074 36.8445 23.8535 36.8368C23.875 36.8265 23.8964 36.8268 23.9177 36.8272L27.7076 36.84C28.016 36.8322 28.0787 36.8202 28.018 36.8902C28.4814 36.8266 29.0112 36.7627 29.5879 36.7077C30.446 36.7207 31.2246 36.7674 31.9238 36.8478L35.111 36.8927C35.1324 36.8927 35.1537 36.8927 35.1751 36.9034C35.9543 36.9248 37.4808 37.0742 38.9219 38.067C39.1354 38.2164 39.4557 38.4513 39.7866 38.7928C40.0748 39.0811 40.7834 40.0324 41.4666 42.6905C41.5869 43.1507 43.0172 44.4553 43.7257 47.4258C43.879 48.0684 43.952 49.2541 43.9446 50.9831C43.9432 51.3198 43.6814 51.5979 43.3454 51.6195L38.177 51.9529H38.177Z" fill="#DE3190"/>
<path d="M19.8739 57.1196L20.0767 57.0129L23.6207 55.1234C23.6207 55.1234 32.2139 53.1186 37.1563 52.2006C38.0103 51.5921 43.0915 51.7289 43.2303 51.5901C43.5826 54.9847 44.0306 58.3737 39.7414 58.3737L18.2193 58.0056L19.8739 57.1196Z" fill="#F2A98A"/>
<path d="M23.2576 48.5477C23.4711 47.8538 24.4959 44.6621 24.7414 44.0002" stroke="#482D1F" stroke-width="0.173993" stroke-linecap="round" stroke-linejoin="round"/>
<path d="M35.7609 44.0002L37.2319 51.8749" stroke="#482D1F" stroke-width="0.173993" stroke-linecap="round" stroke-linejoin="round"/>
<path d="M28.6768 32.9913L31.1677 33.9767L31.1891 34.4997V34.5104L31.125 37.4139C31.125 37.4993 31.061 37.5847 30.9756 37.6061C30.5486 37.7342 29.7907 37.8836 28.9047 37.6808C28.4136 37.5741 28.0187 37.3819 27.7411 37.2111C27.6771 37.1791 27.6451 37.1044 27.6451 37.0296L27.7588 33.6905C27.4537 33.381 27.0244 32.9219 26.7697 32.5462C26.5562 32.2367 25.8517 31.4894 25.6596 30.2725C25.6062 29.8669 25.4034 28.5005 26.2467 27.4437C26.5456 27.0701 26.8872 26.8779 27.0366 26.8032C27.8372 26.3762 28.467 26.5684 30.0576 26.5043C30.1857 26.4936 30.3992 26.4936 30.666 26.4723C31.1571 26.4403 31.4987 26.3976 31.5947 26.3869C32.3847 26.3015 34.1033 26.4509 34.9253 27.5931C34.968 27.6679 35.0213 27.7426 35.0747 27.8066C34.8612 27.9027 34.6157 28.0521 34.3382 28.1162C33.5482 28.287 32.865 28.1696 32.438 28.0521C31.6801 28.8634 30.9222 29.6747 30.1643 30.4753C29.7601 31.0412 29.1313 32.1577 28.6768 32.9913Z" fill="#F2A98A"/>
<path d="M31.3384 35.1935L29.6625 34.884L31.1142 36.656L31.3384 35.1935Z" fill="#482D1F"/>
<path d="M35.523 29.2904L35.4803 31.2012C35.4697 31.3934 35.459 31.5855 35.4163 31.7777C35.1815 33.1334 34.7438 34.2649 34.2527 34.9908C33.8898 35.5352 33.4842 35.8554 33.0999 35.8875C32.9931 35.9088 32.4167 35.9302 31.7442 35.7594C31.6801 35.738 31.7335 35.77 30.8261 35.4285C30.4739 35.3004 30.1963 35.1936 29.9828 35.0975C29.5985 34.9374 29.3957 34.8307 29.289 34.7666C29.2142 34.7346 29.1929 34.7132 29.1929 34.7132C28.6912 33.7525 28.2642 32.8772 27.9012 32.1086C27.6878 31.6496 27.4636 31.1906 27.581 30.6248C27.6237 30.4006 27.7411 29.8455 28.2322 29.5573C28.7125 29.2798 29.2463 29.4185 29.3957 29.4612C29.5985 29.5146 29.7587 29.6 29.8547 29.6641L29.8441 26.9313C29.8441 26.7605 29.9828 26.6111 30.1536 26.6111C30.5272 26.6004 30.9009 26.5684 31.2958 26.4616C31.3385 26.451 31.3812 26.451 31.4239 26.4403C31.7869 26.3869 33.8151 26.1734 34.9466 27.6252C35.0534 27.7426 35.1388 27.8814 35.2241 28.0522C35.427 28.4471 35.5337 28.8635 35.523 29.2904Z" fill="#F2A98A"/>
<path d="M35.0746 27.8066C34.8612 27.9027 34.6156 28.0521 34.3274 28.1162C33.5268 28.287 32.8223 28.1696 32.3953 28.0521C31.6267 28.8634 30.5806 29.9416 29.8013 30.7529C28.3495 30.8169 27.1753 30.6034 25.7235 30.6675C25.7235 30.6675 25.5848 30.518 25.51 30.2938C25.4033 29.9736 25.1791 28.5965 26.1078 27.465C26.4067 27.0914 26.759 26.8993 26.9084 26.8245C27.7197 26.3975 28.3602 26.5897 29.9828 26.5256C30.1109 26.515 30.3244 26.515 30.6019 26.4936C31.1036 26.4616 31.4452 26.4189 31.552 26.4082C32.3526 26.3228 34.1032 26.4723 34.9359 27.6145C34.9679 27.6678 35.0213 27.7426 35.0746 27.8066Z" fill="#482D1F"/>
<path d="M30.0789 31.8203L29.9402 30.4539C29.9402 30.4539 29.8761 30.0697 29.5879 29.7067C29.5666 29.6854 29.3744 29.4612 29.0862 29.3651C28.5738 29.1943 27.9333 29.4612 27.5917 29.9416C27.2395 30.4326 27.2715 31.0624 27.5063 31.5321C27.7412 32.0018 28.1468 32.1939 28.2856 32.258L28.8513 32.3754L30.0789 31.8203Z" fill="#F2A98A"/>
<path d="M34.3167 31.3507C34.3167 31.2226 34.4021 31.1051 34.5302 31.0838C34.6156 31.0731 34.6903 31.0945 34.7437 31.2332C34.8825 31.5642 34.6476 32.0979 34.4661 31.9378C34.3594 31.831 34.3274 31.5321 34.3167 31.3507Z" fill="#482D1F"/>
<path d="M32.4059 31.3292C32.4166 31.2011 32.5233 31.0944 32.6514 31.0944C32.7368 31.0944 32.8115 31.1264 32.8542 31.2652C32.961 31.6067 32.6621 32.1191 32.502 31.9377C32.3952 31.8096 32.3952 31.5107 32.4059 31.3292Z" fill="#482D1F"/>
<path d="M33.2815 33.5284C33.2067 33.507 33.0253 33.4536 32.9932 33.3362C32.9932 33.3149 32.9826 33.2828 32.9932 33.2615C33.0359 33.1868 33.164 33.2295 33.3562 33.2401C33.6978 33.2615 33.9753 33.2295 33.9753 33.2295C33.9753 33.2295 33.9006 33.443 33.8472 33.507C33.7298 33.6671 33.3882 33.5604 33.2815 33.5284Z" fill="#482D1F"/>
<path d="M35.1493 30.6032C35.2561 30.5819 35.2881 30.4431 35.2134 30.3684C35.1173 30.283 34.9465 30.1976 34.733 30.1976C34.2953 30.1976 33.8256 30.4858 34.3167 30.6139C34.6049 30.6993 34.9465 30.6459 35.1493 30.6032Z" fill="#482D1F"/>
<path d="M32.9504 30.678C33.0571 30.6566 33.0891 30.5179 33.0037 30.4431C32.9077 30.3577 32.7369 30.2723 32.5127 30.2723C32.075 30.2723 31.6053 30.5712 32.0964 30.6887C32.406 30.7741 32.7369 30.7207 32.9504 30.678Z" fill="#482D1F"/>
<path d="M33.9005 30.7421V31.3719L34.0606 32.5141C34.0713 32.5781 34.0179 32.6422 33.9539 32.6529C33.8151 32.6635 33.687 32.6742 33.4415 32.6742" stroke="#482D1F" stroke-width="0.173993" stroke-linecap="round" stroke-linejoin="round"/>
<path d="M27.2607 30.5072C27.2073 30.8488 27.2713 31.2117 27.4208 31.5C27.6556 31.9696 28.0613 32.1618 28.2 32.2258" stroke="#482D1F" stroke-width="0.173993" stroke-linecap="round" stroke-linejoin="round"/>
<path d="M26.1227 46.0767C27.0441 42.273 27.6642 40.0185 27.983 39.3133C28.2979 38.6165 28.3434 39.1262 28.5645 39.4158C28.679 39.5659 28.6327 39.1954 28.8108 39.2269C29.1586 39.2882 29.3635 39.5234 29.4253 39.9324C29.7335 40.111 29.8633 40.3379 29.8148 40.613C29.7796 40.8125 30.0581 41.2256 29.4714 43.6773C29.2629 44.5483 29.8161 45.7393 29.6019 46.6723L29.6108 46.6738C29.0826 48.6585 27.3527 51.7076 24.4211 55.8212C20.0237 61.9916 16.2869 58.7592 15.2833 58.0654C14.6143 57.6028 14.6143 55.3732 15.2833 51.3765L20.1413 51.7822L26.1227 46.0767Z" fill="#F2A98A"/>
<path d="M20.0658 51.7822L19.0144 52.405" stroke="#482D1F" stroke-width="0.173993" stroke-linecap="round" stroke-linejoin="round"/>
<path d="M25.3072 54.5482L22.6385 57.8574" stroke="#482D1F" stroke-width="0.173993" stroke-linecap="round" stroke-linejoin="round"/>
<path d="M32.6467 66.7985H9.87524C9.76616 66.7985 9.67773 66.8869 9.67773 66.996V68.0278C9.67773 68.1369 9.76616 68.2253 9.87524 68.2253H32.6467C32.7558 68.2253 32.8442 68.1369 32.8442 68.0278V66.996C32.8442 66.8869 32.7558 66.7985 32.6467 66.7985Z" fill="#D8DEED"/>
<path d="M23.1894 68.7194H9.79392C9.72975 68.7194 9.67773 68.805 9.67773 68.9107V69.9105C9.67773 70.0162 9.72975 70.1019 9.79392 70.1019H23.1894C23.2536 70.1019 23.3056 70.0162 23.3056 69.9105V68.9107C23.3056 68.805 23.2536 68.7194 23.1894 68.7194Z" fill="#D8DEED"/>
<path d="M171.001 92.9903H181.718C182.043 92.9903 182.328 92.7193 182.328 92.3941V92.3264C182.328 92.0012 182.043 91.7303 181.691 91.7303H171.76C165.744 91.7303 159.729 91.7303 153.727 91.7303H144.514C144.188 91.7303 143.904 92.0012 143.904 92.3264V92.3941C143.904 92.7193 144.175 92.9903 144.514 92.9903H157.588L153.984 99.602C151.423 104.317 148.863 109.018 146.289 113.733L142.048 121.51C141.899 121.781 142.021 122.133 142.305 122.296L142.359 122.323C142.644 122.472 143.01 122.391 143.145 122.133L159.011 92.9903H169.579L185.444 122.133C185.579 122.391 185.945 122.486 186.23 122.323L186.284 122.296C186.569 122.133 186.69 121.781 186.541 121.51L182.301 113.733C179.74 109.018 177.179 104.317 174.605 99.602L171.001 92.9903ZM182.287 87.6809V79.8033C182.287 73.7952 182.287 67.8009 182.287 61.8067V54.6477C182.287 53.5253 181.377 52.6154 180.255 52.6154H158.144C157.021 52.6154 156.111 53.5253 156.111 54.6477V87.7042C156.111 88.8266 157.021 89.7365 158.144 89.7365C158.144 89.7365 158.145 89.7365 158.146 89.7365L180.257 89.7132C181.379 89.712 182.287 88.8025 182.287 87.6809Z" fill="#D8DEED"/>
<g clip-path="url(#clip2_113_1046)">
<path d="M130.4 120.521H152.484C152.821 120.521 153.094 120.794 153.094 121.131C153.094 121.468 152.821 121.741 152.484 121.741H130.4C130.063 121.741 129.79 121.468 129.79 121.131C129.79 120.794 130.063 120.521 130.4 120.521ZM155.194 120.521H169.149C169.485 120.521 169.758 120.794 169.758 121.131C169.758 121.468 169.485 121.741 169.149 121.741H155.194C154.857 121.741 154.584 121.468 154.584 121.131C154.584 120.794 154.857 120.521 155.194 120.521Z" fill="#FF5645"/>
<path d="M169.003 120.521H155.212L156.318 113.12H166.146L169.003 120.521ZM152.866 120.656C152.761 120.572 152.628 120.521 152.484 120.521H130.4C130.374 120.521 130.349 120.523 130.325 120.526C130.317 120.463 130.313 120.389 130.315 120.3C130.33 120.205 130.332 120.097 130.361 119.989C130.535 119.342 130.746 118.912 131.362 118.53C131.979 118.147 132.608 117.806 133.263 117.506C135.682 116.369 136.508 116.384 138.098 115.341C138.756 114.905 139.361 114.401 139.926 113.855C140.303 113.491 141.117 112.9 142.369 112.082L152.071 112.112L152.866 120.656Z" fill="#474961"/>
<path d="M168.889 88.6745C168.867 95.3037 168.643 104.11 168.566 107.14C168.552 107.562 168.607 108.703 167.794 109.423C167.563 109.634 167.333 109.721 166.9 109.907C166.561 110.056 165.043 110.503 162.009 110.751C161.819 110.763 161.616 110.776 161.412 110.763C158.283 110.652 157.51 110.453 156.305 110.106C155.505 109.882 154.923 109.187 154.841 108.368C154.462 104.757 153.419 94.9159 153.337 94.0472C153.229 92.9427 153.134 91.6893 153.053 90.2621L153.01 89.594L149.26 88.0904C150.826 94.1892 152.345 100.506 153.703 106.786C153.771 107.094 153.893 107.786 153.541 108.44C152.89 109.684 151.197 109.62 147.146 110.107C142.377 110.684 140.385 111.287 139.301 110.056C138.935 109.658 138.813 109.248 138.773 109.056C137.784 104.068 132.879 89.5907 130.969 79.2043C130.969 79.1787 130.955 79.1658 130.955 79.1402C130.345 75.7934 132.635 72.639 136.036 72.2159C137.16 72.0748 138.177 71.9389 139.301 71.7979C139.642 71.7574 139.982 71.7457 140.318 71.761L157.105 71.4649C167.061 71.3767 165.69 70.2009 168.804 71.6583C170.879 72.6298 172.292 75.3958 173.043 79.9561C173.312 83.4236 171.927 86.3297 168.889 88.6745Z" fill="#A339FF"/>
<path opacity="0.176986" d="M168.907 88.6613C168.908 88.315 168.908 87.9746 168.908 87.6414C168.908 85.0601 168.922 82.8387 168.949 81.4116C168.976 80.2823 169.179 74.0773 166.551 72.7867C166.32 72.675 166.09 72.5881 165.629 72.4268C165.264 72.3027 163.367 71.6574 160.928 71.7566C159.343 71.8187 156.958 71.918 154.994 73.4692C152.284 75.6161 152.352 79.004 152.379 79.5501L153.027 89.6011L149.28 88.0983C148.236 84.032 147.171 80.0626 146.12 76.2656C145.401 73.6815 142.999 71.8927 140.365 71.7602L157.105 71.4649C167.061 71.3767 165.69 70.2009 168.804 71.6583C170.879 72.6298 172.292 75.3958 173.043 79.9561C173.312 83.4171 171.933 86.3188 168.907 88.6613Z" fill="#444444"/>
<path d="M154.628 46.1959C154.791 46.1243 154.957 46.0606 155.128 46.0051L158.019 45.0229C158.187 44.9918 158.354 44.9646 158.52 44.9413C158.747 44.6753 159.212 44.4498 160.016 44.1983C162.875 43.2898 166.523 44.8007 167.822 48.1862C168.954 51.1365 170.459 54.469 170.318 54.5128C170.289 54.5222 169.632 55.0001 168.733 55.296C170.034 60.2907 170.734 63.6343 170.835 65.3267C171.036 68.6976 169.922 70.9569 166.146 71.2432C162.369 71.5295 157.113 71.9328 156.496 70.8151C156.099 70.0964 154.232 65.6591 150.897 57.5031C149.65 57.9137 148.998 58.124 148.943 58.1338C148.769 58.1646 148.177 56.181 147.792 53.0444C147.35 49.4452 149.495 46.4435 153.051 45.8295C153.638 45.7255 154.164 45.8476 154.628 46.1959Z" fill="#FF5645"/>
<path opacity="0.176986" d="M154.636 46.2023C151.1 47.6947 149.344 52.8059 150.522 56.5854C150.652 56.8953 150.78 57.2001 150.906 57.5C149.653 57.9127 148.998 58.124 148.943 58.1338C148.769 58.1646 148.177 56.181 147.792 53.0444C147.35 49.4452 149.495 46.4435 153.051 45.8295C153.642 45.7248 154.171 45.8491 154.636 46.2023Z" fill="#444444"/>
<path d="M148.799 46.6231C148.799 46.6231 148.541 47.6528 149.91 47.3683C151.278 47.0837 151.671 46.9483 151.671 46.9483L151.319 46.0134L148.799 46.6231Z" fill="#482D1F"/>
<path d="M156.535 45.8988L159.055 57.8684L159.654 54.619C162.811 55.2484 165.381 55.5631 167.363 55.563C167.374 55.563 167.384 55.5629 167.395 55.5628C166.948 57.3006 165.89 64.8413 164.244 67.7589C162.163 71.4471 160.948 71.8522 157.875 71.5508C157.56 71.5199 157.264 71.4633 156.984 71.381C157.118 71.4255 157.256 71.463 157.399 71.4933L141.5 71.7419L141.499 71.7463L141.45 71.7427L141.384 71.7437C141.355 71.7442 141.326 71.7399 141.299 71.7313L134.754 71.242C133.74 71.1661 132.808 70.6555 132.198 69.8415L131.342 68.6995C131.179 68.4819 131.073 68.2268 131.034 67.9577C130.905 67.0691 131.521 66.2443 132.41 66.1155L134.507 65.8116C135.812 65.6224 137.138 65.6249 138.443 65.8189L142.496 66.4217C145.543 65.4475 149.608 64.168 150.623 63.9475L149.363 57.9966L150.853 57.4016C151.321 58.488 151.761 59.5085 152.173 60.463C151.706 55.9278 151.759 50.9194 151.197 46.4703L149.788 46.5011C148.948 46.8398 147.186 47.4089 146.997 46.2031C146.997 46.2031 149.327 45.2411 150.966 44.5366L151.088 44.4282C151.197 44.3334 151.292 44.2792 151.427 44.2385C151.454 44.225 151.481 44.225 151.508 44.225L151.598 44.2119C151.354 44.2304 151.183 44.226 151.124 44.2194C149.99 44.1689 148.601 42.128 147.933 39.1536C147.871 38.9142 147.85 38.6712 147.815 38.4295L147.644 36.01C147.597 35.4701 147.7 34.9307 147.929 34.4482C147.952 34.3918 147.975 34.349 147.999 34.3061C148.081 34.1629 148.164 34.0197 148.249 33.9034C148.576 33.4396 148.98 33.0914 149.407 32.8365C150.422 32.3125 151.607 32.1816 152.276 32.2047C152.371 32.2099 152.672 32.2244 153.095 32.2418C153.495 32.302 153.877 32.323 154.27 32.3022C154.487 32.2968 154.665 32.4716 154.684 32.6876L154.852 36.1546C154.853 36.1803 154.859 36.2164 154.872 36.2631C156.236 35.6986 157.213 36.0207 157.802 37.2294C158.686 39.0423 157.885 38.6501 157.492 39.1333C157.209 39.4709 156.856 39.6377 156.619 39.7265C156.575 39.736 156.53 39.7619 156.49 39.7979L157.551 39.8081L157.739 40.5533L157.808 41.4993L158.505 44.9608C158.505 44.9608 157.522 45.5094 156.535 45.8988ZM154.165 43.839L154.086 43.4501C154.052 43.4643 154.019 43.4786 153.984 43.4931C152.856 43.9726 152.922 43.9397 152.843 43.9738C152.674 44.0265 152.509 44.0686 152.353 44.1021L153.568 43.9269L154.165 43.839ZM165.246 113.16H156.343L156.534 110.167C157.628 110.477 158.487 110.658 161.429 110.763C161.633 110.776 161.836 110.763 162.026 110.751C163.474 110.633 164.576 110.469 165.37 110.314L166.146 113.12L165.246 113.16ZM151.683 109.548L152.071 112.112H142.318L142.962 110.659C144.053 110.532 145.423 110.318 147.163 110.107C149.22 109.86 150.67 109.754 151.683 109.548Z" fill="#DB9E75"/>
<path d="M154.993 43.7354L154.481 43.8071L154.195 43.8492C154.185 43.8465 154.175 43.8437 154.166 43.8408L154.085 43.4493L155.54 42.8224C155.344 43.2734 155.162 43.5777 154.993 43.7354Z" fill="#482D1F"/>
<path d="M148.792 38.8609C148.84 39.1015 148.928 39.4882 148.835 39.6731C148.685 39.9719 148.156 39.3653 148.196 38.8994C148.22 38.7069 148.308 38.6176 148.416 38.6082C148.59 38.5793 148.749 38.6878 148.792 38.8609ZM151.671 38.3506C151.719 38.5912 151.807 38.9778 151.715 39.1628C151.564 39.4615 151.035 38.855 151.076 38.389C151.1 38.1965 151.187 38.1073 151.295 38.0978C151.469 38.069 151.629 38.1775 151.671 38.3506Z" fill="#482D1F"/>
<path d="M149.456 38.8314L149.452 40.1917C149.467 40.3587 149.605 40.5034 149.764 40.4895C149.857 40.4889 149.917 40.4837 150.157 40.4581C150.265 40.4466 150.338 40.4392 150.425 40.4316C150.499 40.4251 150.555 40.3594 150.548 40.2849C150.542 40.2103 150.476 40.1552 150.401 40.1617C150.312 40.1695 150.237 40.177 150.129 40.1886C149.898 40.2132 149.842 40.2181 149.75 40.2191C149.745 40.2191 149.724 40.1976 149.723 40.1803L149.727 38.8321C149.727 38.7572 149.667 38.6964 149.592 38.6963C149.517 38.6961 149.456 38.7566 149.456 38.8314Z" fill="#482D1F"/>
<path d="M150.696 41.1967C150.788 41.1615 151.009 41.0469 151.024 40.9096C151.022 40.8826 151.032 40.8409 151.017 40.8286C150.957 40.7658 150.787 40.8352 150.547 40.8969C150.121 41.0022 149.757 41.0341 149.757 41.0341C149.757 41.0341 149.898 41.2529 149.972 41.3145C150.134 41.4635 150.552 41.2637 150.696 41.1967Z" fill="#482D1F"/>
<path d="M153.969 37.3483L154.418 37.1956C154.675 37.1084 154.806 37.4932 154.549 37.5805L154.1 37.7332L153.761 37.8483C153.8 37.9743 153.826 38.1062 153.838 38.2426C153.93 39.3011 153.147 40.2343 152.089 40.3269C151.168 40.4074 150.342 39.8252 150.082 38.9754L149.844 39.0127L149.648 39.0435C149.688 40.0628 148.921 40.944 147.894 41.0339C146.835 41.1265 145.902 40.3435 145.809 39.285C145.717 38.2265 146.5 37.2933 147.558 37.2007C148.508 37.1177 149.362 37.7403 149.59 38.6412L149.781 38.6112L149.844 39.0127C149.611 38.8404 149.611 38.8345 149.61 38.8287L149.398 38.6716L149.59 38.6412C149.6 38.6789 149.608 38.717 149.616 38.7555C149.633 38.6861 149.686 38.6261 149.781 38.6112L150.004 38.5761C149.913 37.5184 150.695 36.5863 151.753 36.4937C152.532 36.4255 153.244 36.8318 153.602 37.4732L153.969 37.3483ZM149.461 39.0731C149.349 39.0907 149.244 39.0133 149.228 38.9011C149.212 38.7911 149.288 38.6889 149.398 38.6716L149.781 38.6112L150.004 38.5761C150.004 38.5767 150.004 38.5773 150.004 38.578C150.016 38.7155 150.043 38.8484 150.082 38.9754L149.844 39.0127L149.461 39.0731ZM149.844 39.0127C149.747 39.028 149.677 38.985 149.64 38.9219L149.844 39.0127ZM152.053 39.922C152.888 39.8489 153.506 39.1129 153.433 38.278C153.36 37.4432 152.624 36.8256 151.789 36.8986C150.954 36.9717 150.336 37.7077 150.409 38.5425C150.482 39.3774 151.218 39.995 152.053 39.922ZM147.594 37.6056C146.759 37.6787 146.141 38.4147 146.214 39.2496C146.287 40.0844 147.023 40.702 147.858 40.629C148.693 40.5559 149.311 39.8199 149.238 38.9851C149.235 38.9569 149.232 38.9289 149.228 38.9011C149.114 38.1062 148.397 37.5353 147.594 37.6056Z" fill="#482D1F"/>
<path opacity="0.2" d="M157.391 71.4933L141.492 71.7419L141.491 71.7463L141.443 71.7427L141.376 71.7437C141.347 71.7442 141.318 71.7399 141.291 71.7314L134.746 71.242C133.732 71.1661 132.8 70.6555 132.19 69.8415L131.334 68.6995C131.171 68.4819 131.065 68.2269 131.026 67.9577C130.898 67.0691 131.514 66.2443 132.402 66.1155L134.499 65.8116C135.804 65.6224 137.131 65.6249 138.435 65.8189L142.488 66.4217C145.535 65.4475 149.601 64.168 150.616 63.9475L149.355 57.9966L150.845 57.4016C151.34 58.5515 151.804 59.6275 152.238 60.6296C152.313 61.2259 152.401 61.8194 152.503 62.4093C153.504 67.7323 154.663 70.9135 157.391 71.4933Z" fill="#8C2A00"/>
<path d="M158.914 57.9397C158.882 57.8321 158.944 57.719 159.051 57.6871C159.159 57.6552 159.272 57.7166 159.304 57.8242L160.645 62.3494C160.677 62.4571 160.616 62.5701 160.508 62.602C160.401 62.6339 160.287 62.5726 160.256 62.4649L158.914 57.9397ZM167.403 55.7289C167.291 55.7281 167.201 55.6364 167.201 55.5241C167.202 55.4119 167.294 55.3216 167.406 55.3224C167.972 55.3267 168.502 55.2442 168.999 55.0754C169.106 55.0393 169.221 55.0961 169.257 55.2024C169.293 55.3087 169.236 55.4241 169.13 55.4602C168.589 55.644 168.013 55.7335 167.403 55.7289Z" fill="#482D1F"/>
<path d="M156.157 39.6774C156.363 39.6175 156.973 39.4836 157.347 39.0236C157.741 38.5539 157.935 37.8161 157.644 37.1344C157.382 36.4772 156.686 35.9805 156.039 36.0507C155.676 36.0961 155.395 36.2975 155.356 36.3281C154.911 36.6798 154.733 37.1306 154.733 37.1306L154.626 37.4453C154.572 37.3751 154.52 37.3093 154.471 37.2487C153.435 36.2786 152.836 35.6055 151.785 34.6366C151.257 34.8188 147.867 36.0256 147.612 35.9119C147.612 34.5353 148.116 34.0922 148.201 33.9759C148.527 33.5121 149.005 33.0621 149.432 32.8071C150.446 32.2831 151.632 32.1522 152.3 32.1753C152.396 32.1806 152.696 32.1951 153.12 32.2125C153.242 32.2153 153.365 32.2182 153.515 32.2187C153.868 32.215 154.14 32.2184 154.303 32.2177C156.367 32.1732 157.144 31.8876 158.218 32.3512C158.281 32.3801 158.369 32.4217 158.473 32.479C158.545 32.2915 158.628 32.1171 158.711 31.9557C160.982 27.5543 163.741 28.5507 163.741 28.567C163.741 28.5833 165.832 28.5833 166.367 30.7153C166.42 30.9272 166.795 32.4237 166.195 33.6575C165.392 35.272 162.994 36.2659 160.266 35.5875C160.3 36.0596 160.267 36.4462 160.253 36.6477C160.105 38.2111 159.252 39.1969 159.003 39.6131C158.671 40.1681 158.26 40.7265 157.772 41.2885C157.162 40.9223 156.696 40.495 156.372 40.0065C156.302 39.899 156.23 39.789 156.157 39.6774Z" fill="#482D1F"/>
</g>
<path d="M89.4153 100.065C89.4377 100.064 89.4603 100.063 89.4831 100.063H116.445C116.969 100.063 117.393 100.487 117.393 101.011C117.393 101.535 116.969 101.96 116.445 101.96H89.4831C89.4603 101.96 89.4377 101.959 89.4153 101.957V120.724C89.4153 121.248 88.9907 121.673 88.4669 121.673C87.9431 121.673 87.5185 121.248 87.5185 120.724L87.5185 71.272C87.5185 70.8156 87.8409 70.4345 88.2703 70.344C88.3918 70.2874 88.5273 70.2558 88.6702 70.2558H169.284C169.808 70.2558 170.233 70.6804 170.233 71.2042C170.233 71.728 169.808 72.1526 169.284 72.1526H89.4153V100.065Z" fill="#D8DEED"/>
<g clip-path="url(#clip3_113_1046)">
<path d="M116.858 69.783C116.993 70.0215 117.249 70.1828 117.542 70.1828H137.011C137.445 70.1828 137.784 69.8305 137.784 69.397C137.784 68.9634 137.431 68.6111 137.011 68.6111H118.074L111.472 50.8489C111.323 50.4425 110.876 50.2392 110.47 50.3883C110.063 50.5373 109.86 50.9844 110.009 51.3909L116.797 69.6544C116.814 69.6999 116.834 69.7428 116.858 69.783Z" fill="#474961"/>
</g>
<defs>
<clipPath id="clip0_113_1046">
<rect width="109.517" height="84.0384" fill="white"/>
</clipPath>
<clipPath id="clip1_113_1046">
<rect width="56.1996" height="32.1886" fill="white" transform="translate(50.9797 31.4926)"/>
</clipPath>
<clipPath id="clip2_113_1046">
<rect width="70.7237" height="102.427" fill="white" transform="translate(115.97 19.3132)"/>
</clipPath>
<clipPath id="clip3_113_1046">
<rect width="47.9621" height="36.0393" fill="white" transform="translate(99.8476 34.2166)"/>
</clipPath>
</defs>
</svg>
