<svg width="24" height="24" viewBox="0 0 24 24" fill="none" xmlns="http://www.w3.org/2000/svg">
<path d="M15.1564 0H8.16114C2.33175 0 0 2.39166 0 8.37083V15.5458C0 21.525 2.33175 23.9167 8.16114 23.9167H15.1564C20.9858 23.9167 23.3175 21.525 23.3175 15.5458V8.37083C23.3175 2.39166 20.9858 0 15.1564 0ZM17.1384 9.65208L10.9592 15.99C10.7261 16.2292 10.4263 16.3487 10.1098 16.3487C9.79336 16.3487 9.49357 16.2292 9.26039 15.99L6.16249 12.8125C5.69614 12.3342 5.69614 11.5654 6.16249 11.0871C6.62884 10.6087 7.37833 10.6087 7.84469 11.0871L10.0932 13.3933L15.4395 7.90958C15.9059 7.43125 16.6554 7.43125 17.1217 7.90958C17.5881 8.38791 17.6047 9.17375 17.1384 9.65208Z" fill="#ECECEC"/>
</svg>
