<svg width="23" height="20" viewBox="0 0 23 20" fill="none" xmlns="http://www.w3.org/2000/svg">
<path d="M13.2497 9.52457L21.9031 1.76696C22.0976 1.56339 22.1992 1.30153 22.1876 1.03371C22.1761 0.765893 22.0522 0.511841 21.8408 0.322322C21.6294 0.132804 21.3461 0.021779 21.0473 0.0114343C20.7486 0.00108958 20.4565 0.0921872 20.2294 0.266522L11.5759 8.02413L2.92252 0.25588C2.69544 0.0815456 2.40334 -0.00955108 2.10459 0.000793623C1.80585 0.0111383 1.52246 0.122162 1.31105 0.311681C1.09965 0.501199 0.975805 0.755251 0.964266 1.02307C0.952727 1.29089 1.05434 1.55275 1.24881 1.75632L9.90224 9.52457L1.23694 17.2822C1.11268 17.3776 1.01176 17.495 0.940509 17.627C0.86926 17.759 0.82922 17.9028 0.822906 18.0494C0.816592 18.1959 0.844138 18.3421 0.903815 18.4786C0.963492 18.6152 1.05401 18.7392 1.16969 18.8429C1.28538 18.9466 1.42372 19.0278 1.57605 19.0813C1.72837 19.1348 1.89139 19.1595 2.05487 19.1538C2.21834 19.1481 2.37875 19.1122 2.52602 19.0484C2.67328 18.9845 2.80423 18.894 2.91065 18.7826L11.5759 11.025L20.2294 18.7826C20.4565 18.957 20.7486 19.0481 21.0473 19.0377C21.3461 19.0274 21.6294 18.9163 21.8408 18.7268C22.0522 18.5373 22.1761 18.2833 22.1876 18.0154C22.1992 17.7476 22.0976 17.4858 21.9031 17.2822L13.2497 9.52457Z" fill="black"/>
</svg>
