<svg width="15" height="21" viewBox="0 0 15 21" fill="none" xmlns="http://www.w3.org/2000/svg">
<path d="M13.75 9.25H12.5V5.5C12.5 2.75 10.25 0.5 7.5 0.5C4.75 0.5 2.5 2.75 2.5 5.5V9.25H1.25C0.625 9.25 0 9.875 0 10.5V19.25C0 19.875 0.625 20.5 1.25 20.5H13.75C14.375 20.5 15 19.875 15 19.25V10.5C15 9.875 14.375 9.25 13.75 9.25ZM8.75 18H6.25L6.75 15.25C6.125 15 5.625 14.25 5.625 13.625C5.625 12.625 6.5 11.75 7.5 11.75C8.5 11.75 9.375 12.625 9.375 13.625C9.375 14.375 9 15 8.25 15.25L8.75 18ZM10 9.25H5V5.5C5 4.125 6.125 3 7.5 3C8.875 3 10 4.125 10 5.5V9.25Z" fill="white"/>
</svg>
