<svg width="14" height="14" viewBox="0 0 14 14" fill="none" xmlns="http://www.w3.org/2000/svg">
<path d="M1.16725 0H12.8327C13.142 0.00092326 13.4384 0.124198 13.6571 0.3429C13.8758 0.561602 13.9991 0.85796 14 1.16725V12.8328C13.9991 13.142 13.8758 13.4384 13.6571 13.6571C13.4384 13.8758 13.142 13.9991 12.8327 14H1.16725C0.85796 13.9991 0.561602 13.8758 0.342899 13.6571C0.124197 13.4384 0.000923157 13.142 0 12.8328V1.16725C0.000923157 0.85796 0.124197 0.561602 0.342899 0.3429C0.561602 0.124198 0.85796 0.00092326 1.16725 0ZM9.625 13.125H13.125V9.625H9.625V13.125ZM9.625 8.75H13.125V5.25H9.625V8.75ZM5.25 13.125H8.75V9.625H5.25V13.125ZM5.25 8.75H8.75V5.25H5.25V8.75ZM0.875 13.125H4.375V9.625H0.875V13.125ZM0.875 8.75H4.375V5.25H0.875V8.75ZM0.875 4.375H13.125V0.875H0.875V4.375Z" fill="white"/>
<path d="M9.625 5.25H13.125L13.125 8.75H9.625L9.625 5.25Z" fill="#222222"/>
<path d="M9.625 9.625H13.125V13.125H9.625V9.625Z" fill="#222222"/>
<path d="M5.25 5.25H8.75V8.75H5.25V5.25Z" fill="#222222"/>
<path d="M5.25 9.625H8.75V13.125H5.25V9.625Z" fill="#222222"/>
<path d="M0.875 0.875H13.125V4.375H0.875V0.875Z" fill="#222222"/>
<path d="M0.875 5.25H4.375V8.75H0.875V5.25Z" fill="#222222"/>
<path d="M0.875 9.625H4.375V13.125H0.875V9.625Z" fill="#222222"/>
</svg>
