<svg height='100px' width='100px'  fill="#000000" xmlns="http://www.w3.org/2000/svg" data-name="Layer 1" viewBox="0 0 100 100" x="0px" y="0px"><title>Help</title><path d="M50,9A41,41,0,1,1,9,50,41,41,0,0,1,50,9m0-9a50,50,0,1,0,50,50A50,50,0,0,0,50,0Z"></path><path d="M49.73,60.61H46.08a1.12,1.12,0,0,1-1.21-1.15,37.71,37.71,0,0,1,.74-9.36,8.53,8.53,0,0,1,2.25-4c1-1.06,2.08-2,3.16-3S53.39,41,54.61,40c2.4-2,2.11-5.48-.89-7.12a7,7,0,0,0-9.8,3.45,13.7,13.7,0,0,0-.6,1.88c-.24.87-.64,1.18-1.54,1.07l-7.13-.86a1.26,1.26,0,0,1-1.18-1.52A14.61,14.61,0,0,1,45.57,24a20.73,20.73,0,0,1,12.59,1.16,13.59,13.59,0,0,1,7.65,8,10.58,10.58,0,0,1-1.66,10.56,37.87,37.87,0,0,1-5.76,5.63c-.67.58-1.31,1.2-2,1.77a4.52,4.52,0,0,0-1.65,3.65c0,1.53-.1,3.05-.14,4.58a1.23,1.23,0,0,1-1.35,1.35H49.73Z"></path><path d="M54.89,71.5a5,5,0,1,1-5-5A5,5,0,0,1,54.89,71.5Z"></path></svg>