<svg height='100px' width='100px'  fill="#1A1A1A" xmlns="http://www.w3.org/2000/svg" data-name="Layer 1" viewBox="0 0 24 24" x="0px" y="0px"><path d="M19.5,15.55054V14A2.50231,2.50231,0,0,0,17,11.5H12.5V8.44946a3.5,3.5,0,1,0-1,0V11.5H7A2.50263,2.50263,0,0,0,4.5,14v1.55054a3.5,3.5,0,1,0,1,0V14A1.50164,1.50164,0,0,1,7,12.5H17A1.50164,1.50164,0,0,1,18.5,14v1.55054a3.5,3.5,0,1,0,1,0ZM7.5,19A2.5,2.5,0,1,1,5,16.5,2.50263,2.50263,0,0,1,7.5,19Zm2-14A2.5,2.5,0,1,1,12,7.5,2.50263,2.50263,0,0,1,9.5,5ZM19,21.5A2.5,2.5,0,1,1,21.5,19,2.50231,2.50231,0,0,1,19,21.5Z"></path></svg>