<?xml version="1.0" encoding="utf-8"?>
<!-- Generator: Adobe Illustrator 26.0.2, SVG Export Plug-In . SVG Version: 6.00 Build 0)  -->
<svg version="1.1" id="Layer_1" xmlns="http://www.w3.org/2000/svg" xmlns:xlink="http://www.w3.org/1999/xlink" x="0px" y="0px"
	 viewBox="0 0 100 100" style="enable-background:new 0 0 100 100;" xml:space="preserve">
<style type="text/css">
	.st0{fill:#1A1A1A;}
</style>
<g>
	<path class="st0" d="M94.6,77c-0.9-6.5-6-11.8-12.3-13v-5.6c0-6.3-5.1-11.4-11.4-11.4H53.1V36c8-1.6,13.5-9.3,12.3-17.5
		C64.2,10,56.3,4.1,47.8,5.3C39.3,6.6,33.3,14.5,34.6,23c0.9,6.5,6,11.8,12.3,13v10.9H29.2c-6.3,0-11.4,5.1-11.4,11.4V64
		c-3.8,0.8-7.1,2.8-9.4,6c-2.5,3.3-3.5,7.4-2.9,11.5c0.6,4.1,2.8,7.8,6.1,10.3c2.7,2,6,3.1,9.3,3.1c0.8,0,1.5,0,2.3-0.2
		c4.1-0.6,7.8-2.8,10.2-6.1c2.5-3.3,3.5-7.4,3-11.6c-0.9-6.5-6-11.8-12.3-13v-5.6c0-2.9,2.4-5.2,5.2-5.2h41.7c2.9,0,5.2,2.4,5.2,5.2
		V64c-3.8,0.8-7.1,2.8-9.4,6c-2.5,3.3-3.5,7.4-3,11.5c0.6,4.1,2.8,7.8,6.1,10.3c3.3,2.5,7.5,3.5,11.6,2.9
		C89.9,93.4,95.8,85.5,94.6,77z M20.8,88.6c-5.2,0-9.4-4.2-9.4-9.4c0-5.2,4.2-9.4,9.4-9.4s9.4,4.2,9.4,9.4
		C30.2,84.4,26,88.6,20.8,88.6z M40.6,20.8c0-5.2,4.2-9.4,9.4-9.4s9.4,4.2,9.4,9.4c0,5.2-4.2,9.4-9.4,9.4
		C44.8,30.2,40.6,26,40.6,20.8z M79.2,88.6c-5.2,0-9.4-4.2-9.4-9.4c0-5.2,4.2-9.4,9.4-9.4c5.2,0,9.4,4.2,9.4,9.4
		C88.6,84.3,84.3,88.6,79.2,88.6z"/>
</g>
</svg>
