<?xml version="1.0" encoding="utf-8"?>
<!-- Generator: Adobe Illustrator 26.0.2, SVG Export Plug-In . SVG Version: 6.00 Build 0)  -->
<svg version="1.1" id="Layer_1" xmlns="http://www.w3.org/2000/svg" xmlns:xlink="http://www.w3.org/1999/xlink" x="0px" y="0px"
	 viewBox="0 0 100 100" style="enable-background:new 0 0 100 100;" xml:space="preserve">
<g>
	<path d="M50,26.1c-13.2,0-23.9,10.7-23.9,23.9S36.8,73.9,50,73.9c13.1,0,23.8-10.7,23.9-23.9C73.9,36.8,63.2,26.1,50,26.1z
		 M50,67.3c-9.6,0-17.3-7.8-17.3-17.3S40.4,32.7,50,32.7c9.5,0,17.3,7.8,17.3,17.3C67.3,59.6,59.6,67.3,50,67.3z"/>
	<path d="M97.5,41.3c-0.5-0.3-5.3-3.2-8.3-4.7l-2-4.8c1-3.1,2.3-8.3,2.5-9.2c0.5-2.2-0.1-4.4-1.7-6L83.4,12c-1.6-1.6-3.8-2.2-6-1.7
		c-0.1,0-5.9,1.5-9.2,2.5l-4.8-2c-1.5-3-4.3-7.6-4.7-8.3c-1.2-1.9-3.2-3-5.4-3h-6.5c-2.2,0-4.2,1.1-5.4,3C41,3,38.1,7.8,36.6,10.8
		l-4.8,2c-3.1-1-8.3-2.3-9.2-2.5c-2.2-0.5-4.4,0.1-6,1.7L12,16.6c-1.6,1.6-2.2,3.8-1.7,6c0,0.1,1.4,5.8,2.5,9.2l-2,4.8
		c-2.9,1.5-7.6,4.3-8.3,4.7c-1.9,1.2-3,3.2-3,5.4v6.5c0,2.2,1.1,4.2,3,5.4c0.5,0.3,5.3,3.2,8.3,4.7l2,4.8c-1,3.1-2.3,8.3-2.5,9.2
		c-0.5,2.2,0.1,4.4,1.7,6l4.6,4.6c1.6,1.6,3.8,2.2,6,1.7c0.1,0,5.8-1.4,9.2-2.5l4.8,2c1.5,2.9,4.3,7.6,4.7,8.3c1.2,1.9,3.2,3,5.4,3
		h6.5c0,0,0,0,0,0c2.2,0,4.2-1.1,5.4-3c0.3-0.5,3.2-5.3,4.7-8.3l4.8-2c3.1,1,8.3,2.3,9.2,2.5c2.2,0.5,4.4-0.1,6-1.7l4.6-4.6
		c1.6-1.6,2.2-3.8,1.7-6c0-0.1-1.5-5.9-2.5-9.2l2-4.8c2.9-1.5,7.6-4.3,8.3-4.7c1.9-1.2,3-3.2,3-5.4v-6.5
		C100.5,44.5,99.3,42.5,97.5,41.3z M94,53.2c-1.2,0.8-6.7,4-8.7,4.9l-1.2,0.5l-3.9,9.4l0.4,1.2c0.8,2.1,2.3,8.2,2.7,9.6l-4.5,4.5
		c-1.7-0.4-7.7-2-9.6-2.7l-1.2-0.4l-9.5,3.9l-0.5,1.2c-1,2.1-4.3,7.6-4.9,8.7h-6.4c-0.9-1.3-4.1-6.7-4.9-8.6l-0.5-1.2l-9.4-3.9
		l-1.2,0.5c-2.1,0.8-8.3,2.4-9.6,2.7l-4.5-4.5c0.4-1.7,2-7.7,2.7-9.6l0.4-1.2l-3.9-9.5l-1.2-0.5c-2.1-1-7.6-4.3-8.7-4.9v-6.4
		c1.3-0.9,6.8-4.1,8.7-4.9l1.2-0.5l3.9-9.5l-0.4-1.2c-0.8-2.1-2.3-8.2-2.7-9.6l4.5-4.5c1.7,0.4,7.7,2,9.6,2.7l1.2,0.4l9.5-3.9
		l0.5-1.2c1-2.1,4.3-7.6,4.9-8.7h6.3c0.8,1.2,4,6.7,4.9,8.7l0.5,1.2l9.5,3.9l1.2-0.4c2.1-0.8,8.3-2.4,9.6-2.7l4.5,4.5
		c-0.4,1.7-2,7.7-2.7,9.6l-0.4,1.2l3.9,9.5l1.2,0.5c2.1,1,7.6,4.3,8.7,4.9V53.2z"/>
</g>
</svg>
