<svg width="344" height="332" viewBox="0 0 344 332" fill="none" xmlns="http://www.w3.org/2000/svg">
<g clip-path="url(#clip0_392_1645)">
<path d="M331.803 141.719H174.911C168.75 141.719 163.719 137.158 163.719 131.573V37.8915C163.719 32.3069 168.75 27.7461 174.911 27.7461H331.803C337.963 27.7461 342.995 32.3069 342.995 37.8915V131.527C342.995 137.158 337.963 141.719 331.803 141.719Z" fill="#F2F6FB"/>
<path d="M223.195 96.3503V89.9432H206.191V84.9161L222.357 61.8505H229.503V84.4725H234.037V89.9432H229.503V96.3503H223.195ZM212.943 84.4725H223.589V68.7998L212.943 84.4725ZM253.142 96.9418C249.955 96.9418 247.227 96.2025 244.96 94.7239C242.693 93.2125 240.935 91.1261 239.687 88.4647C238.471 85.7704 237.863 82.649 237.863 79.1004C237.863 75.5847 238.471 72.4797 239.687 69.7855C240.935 67.0912 242.693 65.0048 244.96 63.5262C247.227 62.0148 249.955 61.2591 253.142 61.2591C256.329 61.2591 259.056 62.0148 261.323 63.5262C263.59 65.0048 265.332 67.0912 266.547 69.7855C267.796 72.4797 268.42 75.5847 268.42 79.1004C268.42 82.649 267.796 85.7704 266.547 88.4647C265.332 91.1261 263.59 93.2125 261.323 94.7239C259.056 96.2025 256.329 96.9418 253.142 96.9418ZM253.142 91.2739C255.737 91.2739 257.857 90.1897 259.499 88.0211C261.142 85.8525 261.964 82.879 261.964 79.1004C261.964 75.3219 261.142 72.3483 259.499 70.1797C257.857 68.0112 255.737 66.9269 253.142 66.9269C250.513 66.9269 248.377 68.0112 246.735 70.1797C245.125 72.3483 244.32 75.3219 244.32 79.1004C244.32 82.879 245.125 85.8525 246.735 88.0211C248.377 90.1897 250.513 91.2739 253.142 91.2739ZM289.759 96.3503V89.9432H272.755V84.9161L288.921 61.8505H296.067V84.4725H300.602V89.9432H296.067V96.3503H289.759ZM279.507 84.4725H290.153V68.7998L279.507 84.4725Z" fill="#FF5645"/>
<path opacity="0.8" d="M214.836 121.376V105.205H224.839V106.799H216.776V112.436H224.146V114.007H216.776V119.782H224.839V121.376H214.836ZM231.572 121.376V105.205H236.793C238.056 105.205 239.088 105.413 239.889 105.828C240.69 106.244 241.283 106.814 241.668 107.538C242.053 108.262 242.246 109.063 242.246 109.941C242.246 110.957 241.968 111.874 241.414 112.69C240.875 113.506 240.028 114.084 238.873 114.423L242.407 121.376H240.12L236.84 114.7H236.701H233.513V121.376H231.572ZM233.513 113.175H236.655C237.902 113.175 238.811 112.875 239.381 112.274C239.951 111.673 240.236 110.903 240.236 109.964C240.236 109.009 239.951 108.254 239.381 107.7C238.827 107.13 237.91 106.845 236.632 106.845H233.513V113.175ZM248.963 121.376V105.205H254.184C255.447 105.205 256.479 105.413 257.28 105.828C258.081 106.244 258.674 106.814 259.059 107.538C259.444 108.262 259.637 109.063 259.637 109.941C259.637 110.957 259.359 111.874 258.805 112.69C258.266 113.506 257.419 114.084 256.264 114.423L259.798 121.376H257.511L254.231 114.7H254.092H250.904V121.376H248.963ZM250.904 113.175H254.046C255.293 113.175 256.202 112.875 256.772 112.274C257.342 111.673 257.627 110.903 257.627 109.964C257.627 109.009 257.342 108.254 256.772 107.7C256.218 107.13 255.301 106.845 254.023 106.845H250.904V113.175ZM273.701 121.654C272.115 121.654 270.721 121.307 269.519 120.614C268.333 119.906 267.402 118.92 266.724 117.657C266.062 116.394 265.731 114.939 265.731 113.291C265.731 111.643 266.062 110.195 266.724 108.947C267.402 107.684 268.333 106.699 269.519 105.99C270.721 105.282 272.115 104.927 273.701 104.927C275.303 104.927 276.697 105.282 277.882 105.99C279.084 106.699 280.016 107.684 280.678 108.947C281.34 110.195 281.671 111.643 281.671 113.291C281.671 114.939 281.34 116.394 280.678 117.657C280.016 118.92 279.084 119.906 277.882 120.614C276.697 121.307 275.303 121.654 273.701 121.654ZM273.701 119.944C274.887 119.944 275.926 119.682 276.82 119.159C277.728 118.62 278.429 117.857 278.922 116.871C279.43 115.87 279.684 114.677 279.684 113.291C279.684 111.904 279.43 110.718 278.922 109.733C278.429 108.747 277.728 107.992 276.82 107.469C275.926 106.93 274.887 106.66 273.701 106.66C272.515 106.66 271.468 106.93 270.559 107.469C269.666 107.992 268.965 108.747 268.457 109.733C267.964 110.718 267.717 111.904 267.717 113.291C267.717 114.677 267.964 115.87 268.457 116.871C268.965 117.857 269.666 118.62 270.559 119.159C271.468 119.682 272.515 119.944 273.701 119.944ZM288.167 121.376V105.205H293.388C294.651 105.205 295.683 105.413 296.484 105.828C297.285 106.244 297.878 106.814 298.263 107.538C298.648 108.262 298.841 109.063 298.841 109.941C298.841 110.957 298.563 111.874 298.009 112.69C297.47 113.506 296.623 114.084 295.468 114.423L299.002 121.376H296.715L293.435 114.7H293.296H290.108V121.376H288.167ZM290.108 113.175H293.25C294.497 113.175 295.406 112.875 295.976 112.274C296.546 111.673 296.831 110.903 296.831 109.964C296.831 109.009 296.546 108.254 295.976 107.7C295.421 107.13 294.505 106.845 293.227 106.845H290.108V113.175Z" fill="#FF5645"/>
<path d="M163.771 27.1327C163.771 21.4605 168.368 16.8623 174.039 16.8623H332.675C338.346 16.8623 342.944 21.4632 342.944 27.1327V38.9381H163.771V27.1327Z" fill="#E1E5F0"/>
<path d="M189.953 0.947266H125.78C120.109 0.947266 115.512 5.54432 115.512 11.2151V43.5587C115.512 49.2294 120.109 53.8265 125.78 53.8265H189.953C195.624 53.8265 200.221 49.2294 200.221 43.5587V11.2151C200.221 5.54432 195.624 0.947266 189.953 0.947266Z" fill="#FF5645"/>
<path fill-rule="evenodd" clip-rule="evenodd" d="M144.895 13.713C145.784 14.8175 145.609 16.4334 144.505 17.3221L130.38 28.6872L144.981 36.6869C146.225 37.3681 146.68 38.9282 145.999 40.1715C145.318 41.4148 143.758 41.8705 142.515 41.1894L124.546 31.3451C123.794 30.9334 123.298 30.1736 123.222 29.3199C123.147 28.4662 123.502 27.6312 124.17 27.0939L141.286 13.3222C142.391 12.4335 144.007 12.6085 144.895 13.713Z" fill="white"/>
<path fill-rule="evenodd" clip-rule="evenodd" d="M168.301 13.9103C169.081 12.7263 170.673 12.3986 171.857 13.1783L189.825 25.0118C190.539 25.482 190.972 26.2767 190.98 27.1315C190.988 27.9863 190.57 28.789 189.865 29.2725L172.686 41.055C171.517 41.8568 169.919 41.5591 169.118 40.39C168.316 39.2209 168.613 37.6231 169.783 36.8212L183.812 27.1989L169.033 17.4659C167.849 16.6862 167.521 15.0943 168.301 13.9103Z" fill="white"/>
<path fill-rule="evenodd" clip-rule="evenodd" d="M161.379 7.87716C162.761 8.1914 163.627 9.56682 163.313 10.9492L155.492 45.3519C155.178 46.7343 153.803 47.6003 152.42 47.286C151.038 46.9718 150.172 45.5964 150.486 44.2139L158.306 9.81127C158.621 8.42885 159.996 7.56292 161.379 7.87716Z" fill="white"/>
</g>
<path d="M46.3057 244.96H14.6832C13.7238 244.96 12.8842 244.161 12.8842 243.201V243.001C12.8842 242.042 13.7238 241.242 14.7632 241.242H44.0664C61.8163 241.242 79.5661 241.242 97.276 241.242H124.46C125.42 241.242 126.259 242.042 126.259 243.001V243.201C126.259 244.161 125.46 244.96 124.46 244.96H85.8819L96.5164 264.469C104.072 278.381 111.628 292.253 119.223 306.165L131.736 329.112C132.176 329.912 131.816 330.951 130.977 331.431L130.817 331.511C129.977 331.95 128.898 331.711 128.498 330.951L81.6849 244.96H50.5027L3.68951 330.951C3.28974 331.711 2.21035 331.99 1.37083 331.511L1.21093 331.431C0.371407 330.951 0.0116124 329.912 0.451361 329.112L12.9642 306.165C20.5199 292.253 28.0756 278.381 35.6712 264.469L46.3057 244.96ZM13.0042 229.294V206.05C13.0042 188.322 13.0042 170.635 13.0042 152.948V131.825C13.0042 128.513 15.6889 125.828 19.0007 125.828H84.2434C87.5552 125.828 90.24 128.513 90.24 131.825V229.363C90.24 232.675 87.5552 235.359 84.2434 235.359C84.2413 235.359 84.2392 235.359 84.2371 235.359L18.9944 235.291C15.6851 235.287 13.0042 232.603 13.0042 229.294Z" fill="#D8DEED"/>
<g clip-path="url(#clip1_392_1645)">
<path d="M166.105 326.193H100.943C99.9491 326.193 99.1436 326.999 99.1436 327.992C99.1436 328.986 99.9491 329.791 100.943 329.791H166.105C167.099 329.791 167.904 328.986 167.904 327.992C167.904 326.999 167.099 326.193 166.105 326.193ZM92.9472 326.193H51.7707C50.7772 326.193 49.9718 326.999 49.9718 327.992C49.9718 328.986 50.7772 329.791 51.7707 329.791H92.9472C93.9407 329.791 94.7462 328.986 94.7462 327.992C94.7462 326.999 93.9407 326.193 92.9472 326.193Z" fill="#3ABF7C"/>
<path d="M52.2008 326.193H92.8931L89.6303 304.356H60.6312L52.2008 326.193ZM99.8162 326.589C100.125 326.341 100.516 326.193 100.943 326.193H166.105C166.18 326.193 166.254 326.198 166.326 326.206C166.349 326.022 166.36 325.803 166.355 325.54C166.311 325.261 166.305 324.941 166.219 324.623C165.706 322.712 165.084 321.444 163.265 320.316C161.447 319.188 159.59 318.181 157.655 317.295C150.52 313.941 148.081 313.984 143.39 310.907C141.448 309.622 139.663 308.133 137.995 306.523C136.884 305.45 134.481 303.706 130.787 301.291L102.16 301.379L99.8162 326.589Z" fill="#474961"/>
<path d="M52.5355 232.224C52.6012 251.785 53.2618 277.77 53.4897 286.709C53.5296 287.954 53.3697 291.322 55.7684 293.446C56.448 294.069 57.1276 294.325 58.4068 294.874C59.4063 295.314 63.8837 296.632 72.8386 297.364C73.3983 297.401 73.9979 297.438 74.5976 297.401C83.8323 297.071 86.111 296.486 89.669 295.46C92.0276 294.801 93.7466 292.751 93.9865 290.334C95.1059 279.678 98.1841 250.641 98.424 248.077C98.7438 244.818 99.0236 241.12 99.2635 236.909L99.3907 234.938L110.454 230.501C105.834 248.496 101.352 267.135 97.3446 285.665C97.1447 286.573 96.7849 288.616 97.8243 290.546C99.7432 294.216 104.74 294.027 116.694 295.465C130.765 297.167 136.642 298.945 139.84 295.313C140.92 294.14 141.279 292.93 141.399 292.362C144.318 277.644 158.789 234.928 164.426 204.281C164.426 204.206 164.466 204.168 164.466 204.092C166.265 194.217 159.509 184.91 149.475 183.661C146.157 183.245 143.158 182.844 139.84 182.428C138.835 182.308 137.832 182.274 136.84 182.319L87.3073 181.445C57.9295 181.185 61.9747 177.715 52.7884 182.016C46.6643 184.882 42.4945 193.044 40.2792 206.5C39.4859 216.731 43.5714 225.306 52.5355 232.224Z" fill="#FFCB3D"/>
<path opacity="0.176986" d="M52.485 232.185C52.4816 231.164 52.4799 230.159 52.4799 229.176C52.4799 221.56 52.4399 215.005 52.3599 210.794C52.28 207.462 51.6803 189.153 59.4359 185.345C60.1155 185.016 60.7951 184.759 62.1543 184.283C63.2337 183.917 68.8305 182.013 76.0264 182.306C80.7037 182.489 87.7397 182.782 93.5364 187.359C101.532 193.694 101.332 203.69 101.252 205.302L99.3385 234.958L110.396 230.524C113.476 218.526 116.618 206.814 119.721 195.61C121.842 187.985 128.928 182.707 136.701 182.316L87.3073 181.445C57.9295 181.185 61.9746 177.715 52.7884 182.016C46.6642 184.882 42.4945 193.044 40.2791 206.5C39.4874 216.712 43.556 225.274 52.485 232.185Z" fill="#444444"/>
<path d="M94.6164 106.885C94.1354 106.674 93.6435 106.486 93.141 106.322L84.6095 103.424C84.1152 103.333 83.6229 103.252 83.1329 103.184C82.4604 102.399 81.0908 101.733 78.7161 100.991C70.2825 98.3106 59.5185 102.769 55.6846 112.758C52.3435 121.463 47.905 131.297 48.3186 131.426C48.4068 131.453 50.3437 132.863 52.9976 133.737C49.1594 148.474 47.0914 158.34 46.7935 163.334C46.2004 173.28 49.4883 179.946 60.6309 180.791C71.7735 181.636 87.2819 182.826 89.1043 179.528C90.276 177.407 95.783 164.314 105.625 140.249C109.305 141.461 111.227 142.081 111.39 142.11C111.904 142.201 113.65 136.348 114.787 127.093C116.092 116.473 109.761 107.616 99.2697 105.804C97.5353 105.497 95.9842 105.858 94.6164 106.885Z" fill="#3ABF7C"/>
<path opacity="0.176986" d="M94.5911 106.904C105.026 111.308 110.207 126.389 106.732 137.541C106.348 138.455 105.97 139.355 105.598 140.24C109.296 141.457 111.226 142.081 111.39 142.11C111.904 142.201 113.65 136.348 114.787 127.093C116.092 116.473 109.761 107.616 99.2697 105.804C97.5246 105.495 95.9651 105.862 94.5911 106.904Z" fill="#444444"/>
<path d="M111.816 108.146C111.816 108.146 112.576 111.184 108.538 110.345C104.5 109.505 103.341 109.105 103.341 109.105L104.381 106.347L111.816 108.146Z" fill="#482D1F"/>
<path d="M88.989 106.008L81.5536 141.327L79.7867 131.739C70.4695 133.596 62.887 134.525 57.0392 134.524C57.0079 134.524 56.9766 134.524 56.9453 134.524C58.2626 139.651 61.3847 161.901 66.2424 170.51C72.3831 181.393 75.967 182.588 85.0348 181.698C85.9634 181.607 86.839 181.44 87.6656 181.198C87.2692 181.329 86.8607 181.439 86.4395 181.529L133.352 182.262L133.356 182.275L133.498 182.265L133.694 182.268C133.78 182.269 133.865 182.256 133.945 182.231L153.256 180.787C156.249 180.564 158.999 179.057 160.799 176.655L163.324 173.285C163.805 172.643 164.118 171.891 164.233 171.097C164.613 168.475 162.795 166.041 160.173 165.661L153.987 164.764C150.134 164.206 146.222 164.213 142.372 164.786L130.413 166.564C121.423 163.69 109.427 159.915 106.432 159.264L110.151 141.705L105.755 139.949C104.374 143.155 103.076 146.166 101.858 148.982C103.237 135.601 103.082 120.823 104.741 107.695L108.898 107.786C111.377 108.785 116.574 110.464 117.133 106.906C117.133 106.906 110.257 104.068 105.42 101.989L105.06 101.669C104.74 101.39 104.461 101.23 104.061 101.11C103.981 101.07 103.901 101.07 103.821 101.07L103.555 101.031C104.275 101.086 104.781 101.073 104.956 101.053C108.3 100.904 112.398 94.8823 114.37 86.1059C114.552 85.3995 114.615 84.6826 114.718 83.9693L115.222 76.8301C115.361 75.2371 115.059 73.6456 114.381 72.2219C114.315 72.0556 114.246 71.9292 114.177 71.8027C113.933 71.3801 113.689 70.9575 113.438 70.6145C112.474 69.246 111.28 68.2185 110.022 67.4663C107.027 65.9202 103.529 65.5339 101.557 65.6021C101.275 65.6176 100.388 65.6604 99.1394 65.7117C97.9601 65.8894 96.8311 65.9512 95.6727 65.8899C95.032 65.874 94.5053 66.3898 94.4495 67.027L93.9558 77.257C93.9524 77.3326 93.9328 77.4394 93.8972 77.5772C89.8716 75.9115 86.9896 76.8619 85.2511 80.4282C82.6434 85.7776 85.0048 84.6202 86.1642 86.046C87 87.0421 88.0404 87.5344 88.7399 87.7962C88.8704 87.8243 89.0037 87.9008 89.1212 88.007L85.99 88.0372L85.4364 90.236L85.2324 93.0273L83.175 103.241C83.175 103.241 86.0769 104.86 88.989 106.008ZM95.9808 99.9309L96.216 98.7833C96.3143 98.8251 96.4143 98.8675 96.5158 98.9103C99.8432 100.325 99.6511 100.228 99.883 100.329C100.382 100.484 100.867 100.608 101.328 100.707L97.7444 100.19L95.9808 99.9309ZM63.2859 304.472H89.5566L88.9908 295.64C85.7625 296.555 83.2284 297.091 74.5473 297.401C73.9476 297.438 73.348 297.401 72.7883 297.364C68.5155 297.015 65.2621 296.532 62.9195 296.075L60.6312 304.356L63.2859 304.472ZM103.304 293.814L102.16 301.379H130.937L129.039 297.092C125.819 296.717 121.777 296.086 116.643 295.465C110.572 294.734 106.295 294.424 103.304 293.814Z" fill="#DB9E75"/>
<path d="M93.538 99.6254L95.049 99.8369L95.8942 99.9612C95.9227 99.9533 95.9513 99.945 95.9802 99.9365L96.2168 98.7813L91.9261 96.9314C92.504 98.2622 93.0413 99.1602 93.538 99.6254Z" fill="#482D1F"/>
<path d="M111.837 85.2422C111.695 85.9521 111.435 87.0931 111.708 87.6387C112.152 88.5203 113.713 86.7307 113.593 85.3557C113.522 84.7877 113.264 84.5244 112.946 84.4965C112.432 84.4114 111.962 84.7315 111.837 85.2422ZM103.341 83.7365C103.199 84.4463 102.938 85.5873 103.212 86.1329C103.656 87.0145 105.217 85.2249 105.097 83.8499C105.026 83.2819 104.768 83.0186 104.45 82.9907C103.935 82.9056 103.466 83.2257 103.341 83.7365Z" fill="#482D1F"/>
<path d="M109.877 85.1552L109.887 89.169C109.845 89.6616 109.438 90.0887 108.969 90.0477C108.692 90.046 108.515 90.0305 107.807 89.9549C107.491 89.9211 107.274 89.8994 107.018 89.877C106.798 89.8577 106.635 89.6638 106.654 89.4439C106.673 89.2239 106.867 89.0612 107.087 89.0805C107.35 89.1034 107.571 89.1256 107.892 89.1599C108.571 89.2324 108.737 89.2468 109.008 89.2497C109.024 89.2499 109.084 89.1862 109.089 89.1352L109.077 85.1572C109.077 84.9364 109.255 84.757 109.476 84.7564C109.697 84.7559 109.876 84.9344 109.877 85.1552Z" fill="#482D1F"/>
<path d="M106.218 92.1347C105.946 92.0306 105.294 91.6926 105.249 91.2874C105.256 91.2077 105.226 91.0848 105.27 91.0484C105.446 90.8633 105.95 91.0678 106.657 91.25C107.914 91.5607 108.989 91.6547 108.989 91.6547C108.989 91.6547 108.571 92.3004 108.355 92.4821C107.875 92.9217 106.642 92.3323 106.218 92.1347Z" fill="#482D1F"/>
<path d="M96.5596 80.7793L95.2346 80.3287C94.4776 80.0713 94.0915 81.2067 94.8485 81.4642L96.1735 81.9147L97.1726 82.2545C97.0595 82.6262 96.9831 83.0153 96.9478 83.4179C96.6746 86.5412 98.985 89.2946 102.108 89.5678C104.826 89.8056 107.263 88.0876 108.031 85.5801L108.73 85.6902L109.308 85.7812C109.191 88.7887 111.456 91.3889 114.486 91.654C117.61 91.9273 120.363 89.6169 120.636 86.4936C120.91 83.3704 118.599 80.617 115.476 80.3437C112.675 80.0987 110.155 81.9358 109.48 84.5942L108.917 84.5055L108.73 85.6902C109.418 85.1817 109.42 85.1645 109.421 85.1473L110.049 84.6837L109.48 84.5942C109.452 84.7052 109.427 84.8176 109.405 84.9314C109.354 84.7266 109.197 84.5496 108.917 84.5055L108.259 84.4019C108.529 81.2809 106.219 78.5306 103.098 78.2575C100.799 78.0564 98.7 79.2553 97.6435 81.1478L96.5596 80.7793ZM109.862 85.8684C110.193 85.9204 110.502 85.692 110.549 85.3609C110.596 85.0363 110.373 84.7347 110.049 84.6837L108.917 84.5055L108.259 84.4019C108.258 84.4038 108.258 84.4056 108.258 84.4075C108.223 84.8134 108.145 85.2055 108.031 85.5801L108.73 85.6902L109.862 85.8684ZM108.73 85.6902C109.017 85.7353 109.224 85.6083 109.334 85.4222L108.73 85.6902ZM102.213 88.3731C99.7493 88.1576 97.9271 85.9859 98.1426 83.5225C98.3581 81.059 100.53 79.2368 102.993 79.4523C105.457 79.6678 107.279 81.8395 107.063 84.3029C106.848 86.7663 104.676 88.5886 102.213 88.3731ZM115.371 81.5385C117.835 81.754 119.657 83.9257 119.442 86.3891C119.226 88.8525 117.054 90.6748 114.591 90.4593C112.127 90.2438 110.305 88.0721 110.521 85.6086C110.528 85.5255 110.537 85.443 110.549 85.3609C110.884 83.0155 113 81.331 115.371 81.5385Z" fill="#482D1F"/>
<path opacity="0.2" d="M86.4625 181.529L133.375 182.263L133.379 182.276L133.521 182.265L133.717 182.268C133.803 182.269 133.888 182.257 133.968 182.231L153.279 180.787C156.272 180.564 159.022 179.057 160.822 176.655L163.347 173.286C163.828 172.643 164.141 171.891 164.256 171.097C164.636 168.475 162.818 166.041 160.196 165.661L154.009 164.764C150.157 164.206 146.245 164.213 142.395 164.786L130.436 166.565C121.446 163.69 109.45 159.915 106.455 159.264L110.174 141.705L105.778 139.949C104.317 143.342 102.947 146.517 101.669 149.474C101.446 151.234 101.188 152.985 100.886 154.725C97.9335 170.432 94.5124 179.818 86.4625 181.529Z" fill="#8C2A00"/>
<path d="M81.9688 141.537C82.0629 141.22 81.8818 140.886 81.5643 140.792C81.2467 140.698 80.913 140.879 80.8189 141.196L76.8612 154.549C76.7671 154.866 76.9482 155.2 77.2657 155.294C77.5832 155.388 77.9169 155.207 78.011 154.89L81.9688 141.537ZM56.9213 135.014C57.2525 135.011 57.519 134.741 57.5165 134.41C57.514 134.079 57.2435 133.812 56.9123 133.815C55.2434 133.827 53.6773 133.584 52.2115 133.086C51.8979 132.979 51.5573 133.147 51.4507 133.46C51.3441 133.774 51.5119 134.114 51.8255 134.221C53.4209 134.763 55.1204 135.027 56.9213 135.014Z" fill="#482D1F"/>
<path d="M90.1035 87.6516C89.4958 87.4747 87.6975 87.0798 86.5937 85.7225C85.4308 84.3366 84.8588 82.1597 85.717 80.148C86.4886 78.209 88.543 76.7434 90.4512 76.9505C91.5229 77.0844 92.3538 77.6788 92.4663 77.7689C93.7801 78.8068 94.3058 80.1369 94.3058 80.1369L94.6231 81.0655C94.7814 80.8582 94.9333 80.6641 95.0779 80.4854C98.1374 77.6229 99.9038 75.6369 103.003 72.778C104.561 73.3156 114.565 76.8764 115.317 76.5409C115.317 72.479 113.831 71.1715 113.581 70.8285C112.617 69.46 111.207 68.132 109.949 67.3798C106.954 65.8337 103.456 65.4474 101.484 65.5156C101.202 65.5311 100.315 65.5739 99.0667 65.6252C98.7048 65.6336 98.3428 65.6421 97.9013 65.6436C96.8589 65.6327 96.0554 65.6426 95.574 65.6406C89.4858 65.5093 87.1918 64.6665 84.0223 66.0345C83.8373 66.1198 83.5769 66.2425 83.2694 66.4116C83.0592 65.8585 82.8131 65.3439 82.5687 64.8674C75.8661 51.8807 67.7257 54.8205 67.7257 54.8686C67.7257 54.9168 61.5573 54.9168 59.9794 61.2077C59.8221 61.8328 58.716 66.2484 60.4843 69.8891C62.8563 74.6527 69.9306 77.5855 77.9794 75.5836C77.8803 76.9766 77.9761 78.1176 78.0173 78.7119C78.4565 83.3251 80.9709 86.2338 81.7062 87.4619C82.6866 89.0993 83.8977 90.7471 85.3397 92.4052C87.1378 91.3249 88.5147 90.064 89.4701 88.6227C89.6767 88.3055 89.8884 87.9808 90.1035 87.6516Z" fill="#482D1F"/>
</g>
<path d="M287.035 265.835C286.969 265.83 286.902 265.828 286.835 265.828H207.281C205.735 265.828 204.482 267.081 204.482 268.626C204.482 270.172 205.735 271.425 207.281 271.425H286.835C286.902 271.425 286.969 271.423 287.035 271.418V326.793C287.035 328.339 288.288 329.592 289.833 329.592C291.379 329.592 292.632 328.339 292.632 326.793V180.877C292.632 179.53 291.681 178.406 290.413 178.138C290.055 177.972 289.655 177.878 289.234 177.878H51.3699C49.8244 177.878 48.5715 179.131 48.5715 180.677C48.5715 182.222 49.8244 183.475 51.3699 183.475H287.035V265.835Z" fill="#D8DEED"/>
<g clip-path="url(#clip2_392_1645)">
<path d="M206.062 176.482C205.664 177.186 204.908 177.662 204.043 177.662H146.596C145.316 177.662 144.317 176.623 144.317 175.343C144.317 174.064 145.356 173.025 146.596 173.025H202.474L221.952 120.615C222.392 119.415 223.711 118.816 224.911 119.255C226.11 119.695 226.71 121.014 226.27 122.214L206.241 176.103C206.192 176.237 206.132 176.364 206.062 176.482Z" fill="#474961"/>
</g>
<defs>
<clipPath id="clip0_392_1645">
<rect width="227.945" height="141.182" fill="white" transform="translate(115.512 0.947266)"/>
</clipPath>
<clipPath id="clip1_392_1645">
<rect width="208.681" height="302.227" fill="white" transform="matrix(-1 0 0 1 208.681 27.564)"/>
</clipPath>
<clipPath id="clip2_392_1645">
<rect width="141.519" height="106.339" fill="white" transform="matrix(-1 0 0 1 256.253 71.5386)"/>
</clipPath>
</defs>
</svg>
