<svg width="240" height="207" viewBox="0 0 240 207" fill="none" xmlns="http://www.w3.org/2000/svg">
<g clip-path="url(#clip0_498_1605)">
<path d="M161.848 204.128C162.388 204.128 162.826 204.567 162.826 205.108C162.826 205.649 162.388 206.087 161.848 206.087H126.413C125.873 206.087 125.435 205.649 125.435 205.108C125.435 204.567 125.873 204.128 126.413 204.128H161.848ZM230.978 206.087H208.696C208.174 206.087 207.717 205.71 207.717 205.258V204.957C207.717 204.505 208.152 204.128 208.696 204.128H230.978C231.5 204.128 231.957 204.505 231.957 204.957V205.258C231.957 205.71 231.522 206.087 230.978 206.087Z" fill="#FFCB3D"/>
<path d="M161.962 204.135C161.925 204.131 161.887 204.128 161.848 204.128H126.567C126.544 204.009 126.532 203.859 126.535 203.665C126.56 203.513 126.563 203.339 126.609 203.165C126.888 202.125 127.226 201.435 128.216 200.821C129.205 200.207 130.214 199.659 131.266 199.177C135.147 197.351 136.473 197.374 139.024 195.699C140.08 194.999 141.05 194.189 141.957 193.313C142.562 192.728 143.868 191.779 145.877 190.465L162.095 190.464L161.962 204.135ZM231.097 204.135C231.058 204.131 231.018 204.128 230.978 204.128H208.771L210.528 193.027L226.093 190.916L231.097 204.135Z" fill="#474961"/>
<path d="M185.196 118.189C180.251 134.566 177.163 145.859 171.955 162.956C170.877 166.015 170.48 168.335 170.762 169.916C171.186 172.288 173.276 176.54 174.295 181.176C175.313 185.813 164.868 180.725 155.986 179.018C147.104 177.31 137.954 175.568 138.192 174.236C138.767 171.07 147.79 166.93 148.503 162.956C149.217 158.982 149.757 154.655 149.857 153.943C154.427 126.765 158.716 105.882 161.04 94.5237C162.02 89.6529 163.904 80.4567 170.762 71.043C171.209 70.4476 171.57 69.9842 171.783 69.6975C172.413 69.03 173.119 68.5267 173.84 68.1481C173.824 68.0141 173.808 67.8804 173.792 67.7471C175.531 66.4543 176.711 65.5195 183.746 64.9831C183.92 64.98 184.115 64.9548 184.289 64.9518C191.11 64.5932 196.9 67.0847 201.268 72.4589C204.056 76.6126 206.24 81.7216 207.821 87.7861C209.272 93.3526 214.801 118.307 224.408 162.649C224.84 163.929 225.259 164.869 225.665 165.468C227.016 167.462 231.002 170.181 233.817 174.002C236.631 177.823 225.022 177.428 216.214 179.485C207.406 181.542 198.339 183.675 198.015 182.362C197.413 179.885 201.404 174.692 202.61 170.691C198.953 160.731 195.36 150.384 191.876 139.692C189.508 132.407 187.286 125.236 185.196 118.189Z" fill="#3ABF7C"/>
<path opacity="0.176986" d="M185.13 118.238C180.208 134.542 177.123 145.82 171.93 162.87C170.852 165.929 170.454 168.249 170.737 169.83C171.161 172.202 173.251 176.454 174.269 181.091C175.288 185.727 164.843 180.64 155.96 178.932C147.078 177.225 137.929 175.482 138.166 174.15C138.742 170.984 147.764 166.844 148.478 162.87C149.191 158.897 149.731 154.569 149.831 153.857C154.401 126.679 158.69 105.797 161.014 94.4381C161.995 89.5673 163.878 80.3711 170.737 70.9574C171.183 70.362 171.545 69.8986 171.757 69.6119C172.374 68.9582 173.064 68.462 173.77 68.0862C174.577 74.8272 175.481 82.4851 176.795 88.5258C178.125 94.6379 179.897 100.432 181.743 106.516C182.831 110.382 183.96 114.291 185.13 118.238Z" fill="#444444"/>
<path d="M193.536 34.2398C194.733 34.5868 195.866 35.0936 196.849 35.7232C201.064 38.4237 203.545 43.5707 201.619 48.6384C201.218 49.6941 199.87 50.9723 197.577 52.4731C197.39 52.494 197.206 52.5123 197.023 52.5281L196.302 60.3257C196.28 60.565 196.258 60.7827 196.258 61.022C196.236 62.1102 196.041 63.7205 195.106 64.8957C193.802 66.5496 191.867 68.9435 183.78 69.0305C175.084 69.1175 172.997 66.7237 171.649 65.0263C170.715 63.8729 170.475 62.4801 170.454 61.3485C170.454 61.1091 170.432 60.8915 170.41 60.6521L169.643 52.4682C165.565 51.7847 164.943 49.08 164.27 46.9871C162.899 42.7232 165.827 37.7096 169.462 35.3119C172.052 33.6039 175.228 32.8869 178.184 33.4983C179.542 33.0973 181.01 32.872 182.562 32.8619H183.802C187.555 32.8395 190.979 33.1697 193.536 34.2398Z" fill="#FFCB3D"/>
<path opacity="0.176986" d="M169.635 52.3852C165.64 51.6765 165.022 48.997 164.354 46.92C162.984 42.6561 165.911 37.6425 169.547 35.2448C172.161 33.5204 175.374 32.8061 178.353 33.4491C173.767 34.7451 170.408 38.0363 169.258 41.8277C168.91 42.9593 168.845 44.178 168.975 45.3532L169.635 52.3852Z" fill="#444444"/>
<path d="M176.674 29.6798C176.617 29.6942 176.559 29.7086 176.5 29.7232C174.593 30.2005 174.704 30.1647 174.571 30.199C173.162 30.4058 171.998 30.2153 171.785 30.1567C170.001 29.7919 168.312 26.205 168 21.3183C167.962 20.923 167.989 20.5323 167.995 20.14L168.332 16.2586C168.392 15.3902 168.69 14.5603 169.175 13.8525C169.225 13.7687 169.273 13.7067 169.32 13.6446C169.487 13.4381 169.654 13.2316 169.818 13.0686C170.452 12.4149 171.181 11.9642 171.921 11.6669C173.661 11.0906 175.574 11.1591 176.626 11.3854C176.776 11.4178 177.249 11.5163 177.915 11.6502C178.533 11.8462 179.135 11.9755 179.762 12.0412C180.107 12.0872 180.346 12.4094 180.322 12.7567L179.717 18.2991C179.702 18.4319 181.34 17.1785 183.035 17.6272C183.582 17.7719 184.336 18.5406 185.297 19.9332C184.954 20.983 184.775 21.5229 184.759 21.5528C184.048 22.855 183.526 23.6737 183.194 24.009L183.062 27.4993L183.286 32.8617H182.562C180.494 32.8752 178.575 33.2707 176.867 33.9547L176.674 29.6798ZM223.59 178.171L226.094 190.92L210.57 193.105L208.922 181.109C211.26 180.593 213.784 180.003 216.287 179.418C218.631 178.871 221.174 178.497 223.59 178.171ZM149.83 177.737C151.836 178.14 153.955 178.546 156.06 178.951C158.817 179.481 161.725 180.337 164.394 181.126L162.098 190.701H145.652L149.83 177.737ZM168.843 65.2171C166.355 67.1941 163.831 68.0856 161.27 67.8915C153.892 67.3321 146.299 60.0513 138.491 46.0491L138.493 46.0483L138.492 46.0481L130.769 31.2603C132.697 29.6485 134.477 29.7112 136.109 31.4485C137.614 33.4256 138.48 34.6054 138.708 34.988C142.123 40.7169 144.874 39.7017 148.215 43.912L158.634 52.8924L162.443 48.9582C161.964 47.1416 161.503 45.2163 161.059 43.1823C159.904 42.4012 158.122 40.9796 155.217 38.5437C154.945 38.3153 153.604 38.0115 151.195 37.6324C147.614 38.1022 145.996 37.092 146.34 34.6017L161.704 33.5942C163.338 33.487 164.914 34.2249 165.88 35.5498C167.048 37.1521 167.885 38.4925 168.393 39.571L177.606 53.4014L182.399 45.6171C183.801 48.1363 185.884 49.2767 188.755 50.9019C191.113 52.237 193.952 52.7427 197.273 52.4192C190.87 65.1042 184.59 71.5365 178.433 71.7161C174.863 71.8202 171.667 69.6539 168.843 65.2171Z" fill="#ED9474"/>
<path opacity="0.2" d="M168.979 65.1884C166.479 67.1855 163.943 68.0865 161.371 67.8915C153.992 67.3321 146.399 60.0513 138.592 46.0491L138.593 46.0483L138.592 46.0482L130.87 31.2604C132.797 29.6486 134.577 29.7113 136.21 31.4486C137.714 33.4256 138.58 34.6055 138.808 34.988C142.224 40.7169 144.974 39.7018 148.316 43.9121L158.735 52.8925L162.566 48.9354C164.433 56.0019 166.571 61.4195 168.979 65.1884Z" fill="#8C2A00"/>
<path d="M176.758 31.515L179.326 28.9995L176.68 29.678L176.758 31.515Z" fill="#482D1F"/>
<path d="M187.388 22.3226C187.103 23.3579 187.185 24.1503 187.633 24.6998C189.88 27.4546 190.902 27.8572 190.34 28.8655C189.698 30.0172 187.306 30.3204 183.165 29.7753C180.406 27.9073 181.025 24.5381 181.029 24.2444C181.027 24.2419 181.026 24.2394 181.025 24.2369C181.313 24.1915 182.21 24.1228 182.953 23.4559C183.695 22.8098 184.188 21.688 183.898 20.5334C183.648 19.4251 182.669 18.4622 181.627 18.411C181.04 18.3918 180.543 18.6406 180.475 18.6794C179.681 19.1256 179.286 19.796 179.286 19.796L179.038 20.2659C178.969 20.1411 178.903 20.0246 178.841 19.9176C177.442 18.118 176.04 16.3402 174.619 14.5391C172.106 13.7742 169.744 13.827 169.368 13.5825C169.535 13.3761 169.702 13.1696 169.866 13.0066C170.5 12.3529 171.229 11.9021 171.969 11.6049C173.709 11.0286 175.622 11.0971 176.674 11.3234C176.824 11.3558 177.297 11.4543 177.963 11.5882C178.157 11.6235 178.35 11.6589 178.587 11.6973C179.148 11.7802 179.579 11.854 179.838 11.8939C183.119 12.3417 184.424 12.0623 186.009 13.0894C186.3 13.2843 186.965 13.7454 187.498 14.5462C189.034 16.8789 188.343 19.6011 188.155 20.4169C187.968 21.1466 187.693 21.7788 187.388 22.3226ZM167.774 18.6389C167.564 18.5692 167.509 18.2994 167.679 18.1667C167.894 18.0178 168.244 17.8416 168.679 17.873C169.568 17.9386 170.476 18.5763 169.489 18.762C168.859 18.9038 168.176 18.7541 167.774 18.6389ZM171.96 19.1534C171.75 19.0837 171.695 18.8139 171.886 18.6839C172.102 18.535 172.452 18.3588 172.908 18.3929C173.798 18.4584 174.702 19.1177 173.718 19.2818C173.066 19.4209 172.384 19.2713 171.96 19.1534Z" fill="#482D1F"/>
<path d="M132.181 23.5878C132.759 23.2095 133.411 23.1743 133.638 23.5257L144.364 39.3853C144.591 39.7368 144.337 40.327 143.761 40.727C143.183 41.1053 142.531 41.1405 142.304 40.789L131.578 24.9295C131.328 24.5582 131.603 23.9661 132.181 23.5878Z" fill="#474961"/>
<path d="M169.188 20.5011C169.187 20.8736 169.177 21.4863 168.929 21.719C168.601 22.0733 168.054 20.9975 168.29 20.3249C168.392 20.0304 168.554 19.9626 168.726 19.9838C168.985 20.0156 169.177 20.2366 169.188 20.5011ZM173.045 20.8435C173.065 21.2187 173.034 21.8288 172.786 22.0615C172.458 22.4158 171.911 21.34 172.147 20.6673C172.249 20.3729 172.41 20.3051 172.583 20.3263C172.842 20.3581 173.034 20.579 173.045 20.8435Z" fill="#482D1F"/>
<path d="M171.431 25.0741C171.587 25.0494 171.97 24.9649 172.064 24.7353C172.069 24.6921 172.099 24.6299 172.082 24.5841C172.012 24.4439 171.724 24.4742 171.33 24.4697C170.632 24.4496 170.078 24.3158 170.078 24.3158C170.078 24.3158 170.198 24.769 170.293 24.8903C170.466 25.2624 171.186 25.1097 171.431 25.0741Z" fill="#482D1F"/>
<path d="M169.751 23.0672L169.747 23.0911C169.718 23.3269 169.852 23.5656 170.082 23.6337C170.125 23.6431 170.149 23.6478 170.173 23.6523C170.399 23.6952 170.563 23.7176 171.151 23.7899C171.27 23.8045 171.378 23.7197 171.393 23.6004C171.407 23.4811 171.323 23.3725 171.203 23.3579C170.626 23.2869 170.467 23.2652 170.254 23.2247C170.231 23.2205 170.209 23.2161 170.187 23.2116C170.192 23.2123 170.177 23.185 170.178 23.1527L170.716 20.8887L170.722 20.8575L170.835 19.5778C170.845 19.4581 170.757 19.3524 170.637 19.3418C170.518 19.3312 170.412 19.4197 170.402 19.5394L170.29 20.8033L169.751 23.0672Z" fill="#482D1F"/>
<path d="M182.588 45.6849C182.373 42.5815 182.886 40.2674 184.111 38.7324C184.223 38.5915 184.2 38.3861 184.059 38.2736C183.918 38.1611 183.713 38.1842 183.601 38.3251C182.26 40.0059 181.712 42.4776 181.938 45.7301C181.95 45.91 182.106 46.0456 182.285 46.0331C182.465 46.0207 182.601 45.8647 182.588 45.6849Z" fill="#482D1F"/>
</g>
<g clip-path="url(#clip1_498_1605)">
<path d="M113.913 66.9565H5.7971C2.59545 66.9565 0 69.552 0 72.7536V97.3913C0 100.593 2.59545 103.188 5.7971 103.188H113.913C117.115 103.188 119.71 100.593 119.71 97.3913V72.7536C119.71 69.552 117.115 66.9565 113.913 66.9565Z" fill="#F2F6FB"/>
<path d="M11.1476 84.2054H71.7088C72.029 84.2054 72.2885 84.465 72.2885 84.7852V87.8137C72.2885 88.1339 72.029 88.3934 71.7088 88.3934H11.1476C10.8274 88.3934 10.5679 88.1339 10.5679 87.8137V84.7852C10.5679 84.465 10.8274 84.2054 11.1476 84.2054ZM11.1476 91.0109H76.9394C77.2596 91.0109 77.5191 91.2704 77.5191 91.5906V94.6192C77.5191 94.9393 77.2596 95.1989 76.9394 95.1989H11.1476C10.8274 95.1989 10.5679 94.9393 10.5679 94.6192V91.5906C10.5679 91.2704 10.8274 91.0109 11.1476 91.0109Z" fill="#D8DEED"/>
<path d="M77.9855 77.4001H11.1476C10.8274 77.4001 10.5679 77.6597 10.5679 77.9799V81.0084C10.5679 81.3286 10.8274 81.5881 11.1476 81.5881H77.9855C78.3057 81.5881 78.5652 81.3286 78.5652 81.0084V77.9799C78.5652 77.6597 78.3057 77.4001 77.9855 77.4001Z" fill="#D8DEED"/>
<path d="M113.913 25.7971H5.7971C2.59545 25.7971 0 28.3926 0 31.5942V56.2319C0 59.4336 2.59545 62.029 5.7971 62.029H113.913C117.115 62.029 119.71 59.4336 119.71 56.2319V31.5942C119.71 28.3926 117.115 25.7971 113.913 25.7971Z" fill="#F2F6FB"/>
<path d="M101.58 95.7225C95.8022 95.7225 91.1186 91.0349 91.1186 85.2525C91.1186 79.4702 95.8022 74.7826 101.58 74.7826C107.357 74.7826 112.041 79.4702 112.041 85.2525C112.041 91.0349 107.357 95.7225 101.58 95.7225ZM21.029 54.3909C15.2515 54.3909 10.5679 49.7033 10.5679 43.921C10.5679 38.1386 15.2515 33.451 21.029 33.451C26.8065 33.451 31.4901 38.1386 31.4901 43.921C31.4901 49.7033 26.8065 54.3909 21.029 54.3909Z" fill="#474BFF"/>
<path fill-rule="evenodd" clip-rule="evenodd" d="M21.0237 43.7795C19.5991 43.7795 18.4442 42.6393 18.4442 41.2328C18.4442 39.8262 19.5991 38.686 21.0237 38.686C22.4483 38.686 23.6031 39.8262 23.6031 41.2328C23.6031 42.6393 22.4483 43.7795 21.0237 43.7795ZM21.0237 45.0529C23.6057 45.0529 25.6989 47.1195 25.6989 49.6688H16.3484C16.3484 47.1195 18.4416 45.0529 21.0237 45.0529ZM101.574 85.1111C100.15 85.1111 98.9949 83.9709 98.9949 82.5643C98.9949 81.1578 100.15 80.0176 101.574 80.0176C102.999 80.0176 104.154 81.1578 104.154 82.5643C104.154 83.9709 102.999 85.1111 101.574 85.1111ZM101.574 86.3844C104.156 86.3844 106.25 88.4511 106.25 91.0004H96.8991C96.8991 88.4511 98.9923 86.3844 101.574 86.3844Z" fill="white"/>
<path d="M37.3004 41.8269H97.8617C98.1818 41.8269 98.4414 42.0864 98.4414 42.4066V45.4352C98.4414 45.7553 98.1818 46.0149 97.8617 46.0149H37.3004C36.9802 46.0149 36.7207 45.7553 36.7207 45.4352V42.4066C36.7207 42.0864 36.9802 41.8269 37.3004 41.8269ZM37.3004 48.6324H108.323C108.643 48.6324 108.903 48.8919 108.903 49.2121V52.2406C108.903 52.5608 108.643 52.8203 108.323 52.8203H37.3004C36.9802 52.8203 36.7207 52.5608 36.7207 52.2406V49.2121C36.7207 48.8919 36.9802 48.6324 37.3004 48.6324Z" fill="#E1E5F0"/>
<path d="M83.2161 35.0215H37.3004C36.9802 35.0215 36.7207 35.281 36.7207 35.6012V38.6297C36.7207 38.9499 36.9802 39.2095 37.3004 39.2095H83.2161C83.5363 39.2095 83.7958 38.9499 83.7958 38.6297V35.6012C83.7958 35.281 83.5363 35.0215 83.2161 35.0215Z" fill="#E1E5F0"/>
</g>
<defs>
<clipPath id="clip0_498_1605">
<rect width="124.638" height="206.087" fill="white" transform="translate(115.362)"/>
</clipPath>
<clipPath id="clip1_498_1605">
<rect width="137.101" height="88.4058" fill="white" transform="translate(0 14.7826)"/>
</clipPath>
</defs>
</svg>
