<svg width="46" height="46" viewBox="0 0 46 46" fill="none" xmlns="http://www.w3.org/2000/svg">
<circle cx="23" cy="23" r="23" fill="url(#paint0_linear_10439_2439)"/>
<path opacity="0.6" d="M32 18V28C32 31 30.5 33 27 33H19C15.5 33 14 31 14 28V18C14 15 15.5 13 19 13H27C30.5 13 32 15 32 18Z" fill="white"/>
<path d="M29.5 20.25H27.5C25.98 20.25 24.75 19.02 24.75 17.5V15.5C24.75 15.09 25.09 14.75 25.5 14.75C25.91 14.75 26.25 15.09 26.25 15.5V17.5C26.25 18.19 26.81 18.75 27.5 18.75H29.5C29.91 18.75 30.25 19.09 30.25 19.5C30.25 19.91 29.91 20.25 29.5 20.25Z" fill="white"/>
<path d="M23 24.75H19C18.59 24.75 18.25 24.41 18.25 24C18.25 23.59 18.59 23.25 19 23.25H23C23.41 23.25 23.75 23.59 23.75 24C23.75 24.41 23.41 24.75 23 24.75Z" fill="white"/>
<path d="M27 28.75H19C18.59 28.75 18.25 28.41 18.25 28C18.25 27.59 18.59 27.25 19 27.25H27C27.41 27.25 27.75 27.59 27.75 28C27.75 28.41 27.41 28.75 27 28.75Z" fill="white"/>
<defs>
<linearGradient id="paint0_linear_10439_2439" x1="-6.48718" y1="-17.6923" x2="57.2051" y2="46" gradientUnits="userSpaceOnUse">
<stop stop-color="#C84E89"/>
<stop offset="1" stop-color="#F15F79"/>
</linearGradient>
</defs>
</svg>
