<svg width="46" height="46" viewBox="0 0 46 46" fill="none" xmlns="http://www.w3.org/2000/svg">
<circle cx="23" cy="23" r="23" fill="url(#paint0_linear_10439_2447)"/>
<path opacity="0.6" d="M30.2102 17.3595C29.1702 15.2595 27.1602 13.7095 24.8302 13.1995C22.3902 12.6595 19.8902 13.2395 17.9802 14.7795C16.0602 16.3095 14.9702 18.5995 14.9702 21.0495C14.9702 23.6395 16.5202 26.3495 18.8602 27.9195V28.7495C18.8502 29.0295 18.8402 29.4595 19.1802 29.8095C19.5302 30.1695 20.0502 30.2095 20.4602 30.2095H25.5902C26.1302 30.2095 26.5402 30.0595 26.8202 29.7795C27.2002 29.3895 27.1902 28.8895 27.1802 28.6195V27.9195C30.2802 25.8295 32.2302 21.4195 30.2102 17.3595Z" fill="white"/>
<path d="M26.2602 33.0004C26.2002 33.0004 26.1302 32.9904 26.0702 32.9704C24.0602 32.4004 21.9502 32.4004 19.9402 32.9704C19.5702 33.0704 19.1802 32.8604 19.0802 32.4904C18.9702 32.1204 19.1902 31.7304 19.5602 31.6304C21.8202 30.9904 24.2002 30.9904 26.4602 31.6304C26.8302 31.7404 27.0502 32.1204 26.9402 32.4904C26.8402 32.8004 26.5602 33.0004 26.2602 33.0004Z" fill="white"/>
<defs>
<linearGradient id="paint0_linear_10439_2447" x1="0" y1="23" x2="46" y2="23" gradientUnits="userSpaceOnUse">
<stop stop-color="#FFA751"/>
<stop offset="1" stop-color="#FFE259"/>
</linearGradient>
</defs>
</svg>
