<svg width="46" height="46" viewBox="0 0 46 46" fill="none" xmlns="http://www.w3.org/2000/svg">
<circle cx="23" cy="23" r="23" fill="url(#paint0_linear_10439_2474)"/>
<path opacity="0.6" d="M33 18.81V24.9L31.37 23.5C30.59 22.83 29.33 22.83 28.55 23.5L24.39 27.07C23.61 27.74 22.35 27.74 21.57 27.07L21.23 26.79C20.52 26.17 19.39 26.11 18.59 26.65L13.67 29.95L13.56 30.03C13.19 29.23 13 28.28 13 27.19V18.81C13 15.17 15.17 13 18.81 13H27.19C30.83 13 33 15.17 33 18.81Z" fill="white"/>
<path d="M20.0001 21.3791C21.3146 21.3791 22.3801 20.3136 22.3801 18.9991C22.3801 17.6847 21.3146 16.6191 20.0001 16.6191C18.6857 16.6191 17.6201 17.6847 17.6201 18.9991C17.6201 20.3136 18.6857 21.3791 20.0001 21.3791Z" fill="white"/>
<path d="M33.0001 24.9005V27.1905C33.0001 30.8305 30.8301 33.0005 27.1901 33.0005H18.8101C16.2601 33.0005 14.4201 31.9305 13.5601 30.0305L13.6701 29.9505L18.5901 26.6505C19.3901 26.1105 20.5201 26.1705 21.2301 26.7905L21.5701 27.0705C22.3501 27.7405 23.6101 27.7405 24.3901 27.0705L28.5501 23.5005C29.3301 22.8305 30.5901 22.8305 31.3701 23.5005L33.0001 24.9005Z" fill="white"/>
<defs>
<linearGradient id="paint0_linear_10439_2474" x1="0" y1="23" x2="46" y2="23" gradientUnits="userSpaceOnUse">
<stop stop-color="#BF5AE0"/>
<stop offset="1" stop-color="#A811DA"/>
</linearGradient>
</defs>
</svg>
