<svg width="46" height="46" viewBox="0 0 46 46" fill="none" xmlns="http://www.w3.org/2000/svg">
<circle cx="23" cy="23" r="23" fill="url(#paint0_linear_10438_2440)"/>
<path opacity="0.6" d="M27.24 14.6504H18.76C16.29 14.6504 14.29 16.6604 14.29 19.1204V28.5304C14.29 30.9904 16.3 33.0004 18.76 33.0004H27.23C29.7 33.0004 31.7 30.9904 31.7 28.5304V19.1204C31.71 16.6504 29.7 14.6504 27.24 14.6504Z" fill="white"/>
<path d="M25.3498 13H20.6498C19.6098 13 18.7598 13.84 18.7598 14.88V15.82C18.7598 16.86 19.5998 17.7 20.6398 17.7H25.3498C26.3898 17.7 27.2298 16.86 27.2298 15.82V14.88C27.2398 13.84 26.3898 13 25.3498 13Z" fill="white"/>
<defs>
<linearGradient id="paint0_linear_10438_2440" x1="-18.4" y1="3.06667" x2="59.2889" y2="46" gradientUnits="userSpaceOnUse">
<stop stop-color="#0052D4"/>
<stop offset="0.5" stop-color="#4364F7"/>
<stop offset="1" stop-color="#6FB1FC"/>
</linearGradient>
</defs>
</svg>
