<svg width="366" height="262" viewBox="0 0 366 262" fill="none" xmlns="http://www.w3.org/2000/svg">
<path d="M163.234 247.45L163.237 247.617C163.219 248.258 162.672 248.769 161.999 248.781L115.37 248.707C114.697 248.691 114.162 248.171 114.15 247.531L114.147 247.364C114.166 246.723 114.712 246.212 115.385 246.2L161.985 246.275C162.687 246.262 163.222 246.782 163.234 247.45ZM39.1625 248.503L39.0945 248.517L11.8168 227.109C11.3177 226.719 11.2068 225.967 11.6227 225.494L11.7059 225.355C11.9554 225.048 12.3436 224.881 12.7318 224.909C12.9536 224.909 13.1477 224.993 13.3418 225.132L40.4924 246.208L55.3504 246.241C55.988 246.23 56.4962 246.75 56.535 247.39L56.5379 247.557C56.5214 248.197 56.0033 248.708 55.3657 248.719L39.1142 248.67C39.1303 248.614 39.1464 248.558 39.1625 248.503Z" fill="#FF5645"/>
<path d="M162.841 246.688C162.617 246.474 162.306 246.345 161.953 246.352L115.354 246.277C115.28 246.279 115.207 246.286 115.137 246.299L117.007 228.98L138.304 228.919C140.866 230.6 142.532 231.815 143.303 232.563C144.46 233.684 145.698 234.72 147.045 235.616C150.299 237.759 151.99 237.729 156.939 240.065C158.281 240.682 159.569 241.383 160.83 242.169C162.092 242.954 162.523 243.838 162.879 245.168C162.938 245.39 162.942 245.613 162.973 245.807C162.981 246.246 162.928 246.509 162.841 246.688ZM13.3086 225.207L23.0131 211.883L39.6495 224.551L40.1819 226.277C42.1228 233.108 43.1765 236.709 43.3428 237.08C43.5429 237.515 43.7504 237.916 43.9685 238.308C45.4761 238.924 47.188 239.526 49.8033 240.839C51.1342 241.48 52.4096 242.204 53.6574 243.011C54.9051 243.818 55.321 244.709 55.6537 246.046C55.6817 246.158 55.6955 246.27 55.706 246.379C55.5851 246.337 55.455 246.315 55.3191 246.318L40.4611 246.284L13.3106 225.209C13.3099 225.208 13.3092 225.208 13.3086 225.207Z" fill="#474961"/>
<path d="M95.0408 90.5574C95.1236 90.5686 95.2065 90.5821 95.2896 90.5979C96.092 90.7502 96.8412 91.1092 97.4638 91.6398C121.463 112.09 135.658 129.005 140.047 142.385C142.536 149.972 144.733 169.494 146.638 200.951C146.991 206.784 142.569 211.8 136.761 212.154C136.638 212.162 136.516 212.167 136.394 212.17L118.917 212.624C113.19 212.773 108.393 208.298 108.121 202.551L105.791 153.444C101.96 149.377 98.6224 145.795 95.7775 142.697C95.0948 146.434 94.0415 150.38 92.3391 155.659C89.5023 164.455 77.945 181.84 57.6673 207.814L56.888 208.856C53.5851 213.275 47.4524 214.398 42.809 211.434L29.7684 203.11C24.8574 199.976 23.4069 193.437 26.5285 188.506C26.6583 188.301 26.7951 188.1 26.9387 187.904L55.9806 148.333C56.6728 132.645 58.0433 118.92 60.092 107.158C63.1651 89.516 86.1691 89.8971 94.8754 90.1874C94.9314 90.3083 94.9865 90.4316 95.0408 90.5574Z" fill="#3ABF7C"/>
<path opacity="0.176986" d="M95.0195 90.5547C95.1083 90.5664 95.1972 90.5806 95.2862 90.5975C96.0886 90.7499 96.8379 91.1089 97.4605 91.6395C121.46 112.09 135.654 129.005 140.043 142.384C142.532 149.972 144.729 169.494 146.635 200.951C146.988 206.784 142.566 211.799 136.757 212.154C136.635 212.162 136.513 212.167 136.39 212.17L118.914 212.624C113.186 212.773 108.39 208.298 108.117 202.551L105.788 153.443C101.959 149.379 98.6232 145.799 95.7794 142.703C97.0366 135.801 97.0314 129.598 97.5193 117.003C98.0101 104.334 97.1768 95.5181 95.0195 90.5547Z" fill="#444444"/>
<path d="M59.5914 68.231L56.5246 68.8003C56.4099 68.8216 56.2932 68.8307 56.1766 68.8275C55.2581 68.8022 54.534 68.034 54.5592 67.1117C54.8046 58.1387 55.7053 52.2843 57.2615 49.5485C57.7171 48.7477 58.304 48.1023 58.9828 47.6024C61.7581 44.9574 66.4804 43.4666 72.1123 42.5042L73.6688 42.2286C76.076 41.8185 78.395 41.8493 80.5479 42.2382C83.2345 42.3413 86.5414 42.9673 89.5489 44.9582C90.0259 45.2696 91.0441 45.9374 92.1667 47.0392C92.1667 47.0392 94.3701 49.1653 97.2458 56.4027C97.5791 57.2608 98.0635 58.6861 98.6989 60.6788C98.9323 61.411 98.5305 62.1947 97.8013 62.4291C97.7515 62.4451 97.7008 62.4583 97.6495 62.4686L94.1627 63.1663L95.0813 74.5409C95.107 74.8474 95.1278 75.1264 95.1808 75.428C95.4039 76.8587 95.4116 78.6667 94.4927 80.3279C93.1752 82.7663 91.0835 86.2467 80.1418 88.0709C69.9647 89.7598 67.0048 87.1739 65.0006 85.3801C63.5664 84.1074 62.9644 82.1218 62.6963 80.7557C62.6433 80.454 62.5679 80.1847 62.4876 79.8879L59.5914 68.231Z" fill="#FF5645"/>
<path opacity="0.176986" d="M80.4964 42.2335C85.8953 43.1948 90.2563 46.407 92.3584 50.5701C93.0457 51.9186 93.3972 53.4396 93.4934 54.9493L94.157 63.1662L97.6325 62.4867C97.684 62.4766 97.7349 62.4636 97.7849 62.4478C98.515 62.2163 98.9201 61.4343 98.6896 60.7011C98.0586 58.6943 97.5763 57.2614 97.2426 56.4025C94.3669 49.165 92.1635 47.0389 92.1635 47.0389C91.0409 45.9372 90.0227 45.2693 89.5457 44.958C86.4907 42.9356 83.1892 42.3216 80.4964 42.2335Z" fill="#444444"/>
<g clip-path="url(#clip0_12467_5543)">
<path d="M254.534 10.7266H113.957C113.038 10.7266 112.293 11.4745 112.293 12.3971V117.364C112.293 118.287 113.038 119.035 113.957 119.035H254.534C255.453 119.035 256.198 118.287 256.198 117.364V12.3971C256.198 11.4745 255.453 10.7266 254.534 10.7266Z" fill="#F2F6FB"/>
<path d="M136.97 48.3468H231.713V108.645C231.713 109.258 231.214 109.756 230.604 109.756H138.079C137.467 109.756 136.97 109.257 136.97 108.645V48.3468ZM112.293 16.2963C112.293 13.2202 114.776 10.7266 117.841 10.7266H250.65C253.714 10.7266 256.198 13.2205 256.198 16.2963V22.9774H112.293V16.2963ZM145.697 57.6042V65.4077C145.697 66.0218 146.194 66.5189 146.807 66.5189H154.559C155.175 66.5189 155.669 66.0214 155.669 65.4077V57.6042C155.669 56.9901 155.172 56.4929 154.559 56.4929H146.807C146.191 56.4929 145.697 56.9904 145.697 57.6042ZM145.697 74.5231V82.3266C145.697 82.9407 146.194 83.4379 146.807 83.4379H154.559C155.175 83.4379 155.669 82.9403 155.669 82.3266V74.5231C155.669 73.909 155.172 73.4118 154.559 73.4118H146.807C146.191 73.4118 145.697 73.9094 145.697 74.5231ZM162.526 57.6042V65.4077C162.526 66.0218 163.023 66.5189 163.636 66.5189H171.389C172.004 66.5189 172.499 66.0214 172.499 65.4077V57.6042C172.499 56.9901 172.002 56.4929 171.389 56.4929H163.636C163.02 56.4929 162.526 56.9904 162.526 57.6042ZM162.526 74.5231V82.3266C162.526 82.9407 163.023 83.4379 163.636 83.4379H171.389C172.004 83.4379 172.499 82.9403 172.499 82.3266V74.5231C172.499 73.909 172.002 73.4118 171.389 73.4118H163.636C163.02 73.4118 162.526 73.9094 162.526 74.5231ZM179.355 57.6042V65.4077C179.355 66.0218 179.852 66.5189 180.465 66.5189H188.218C188.833 66.5189 189.328 66.0214 189.328 65.4077V57.6042C189.328 56.9901 188.831 56.4929 188.218 56.4929H180.465C179.85 56.4929 179.355 56.9904 179.355 57.6042ZM179.355 74.5231V82.3266C179.355 82.9407 179.852 83.4379 180.465 83.4379H188.218C188.833 83.4379 189.328 82.9403 189.328 82.3266V74.5231C189.328 73.909 188.831 73.4118 188.218 73.4118H180.465C179.85 73.4118 179.355 73.9094 179.355 74.5231ZM196.184 57.6042V65.4077C196.184 66.0218 196.681 66.5189 197.295 66.5189H205.047C205.663 66.5189 206.157 66.0214 206.157 65.4077V57.6042C206.157 56.9901 205.66 56.4929 205.047 56.4929H197.295C196.679 56.4929 196.184 56.9904 196.184 57.6042ZM213.014 57.6042V65.4077C213.014 66.0218 213.511 66.5189 214.124 66.5189H221.876C222.492 66.5189 222.987 66.0214 222.987 65.4077V57.6042C222.987 56.9901 222.49 56.4929 221.876 56.4929H214.124C213.508 56.4929 213.014 56.9904 213.014 57.6042ZM213.014 74.5231V82.3266C213.014 82.9407 213.511 83.4379 214.124 83.4379H221.876C222.492 83.4379 222.987 82.9403 222.987 82.3266V74.5231C222.987 73.909 222.49 73.4118 221.876 73.4118H214.124C213.508 73.4118 213.014 73.9094 213.014 74.5231ZM145.697 91.442V99.2455C145.697 99.8596 146.194 100.357 146.807 100.357H154.559C155.175 100.357 155.669 99.8593 155.669 99.2455V91.442C155.669 90.828 155.172 90.3308 154.559 90.3308H146.807C146.191 90.3308 145.697 90.8283 145.697 91.442ZM162.526 91.442V99.2455C162.526 99.8596 163.023 100.357 163.636 100.357H171.389C172.004 100.357 172.499 99.8593 172.499 99.2455V91.442C172.499 90.828 172.002 90.3308 171.389 90.3308H163.636C163.02 90.3308 162.526 90.8283 162.526 91.442ZM179.355 91.442V99.2455C179.355 99.8596 179.852 100.357 180.465 100.357H188.218C188.833 100.357 189.328 99.8593 189.328 99.2455V91.442C189.328 90.828 188.831 90.3308 188.218 90.3308H180.465C179.85 90.3308 179.355 90.8283 179.355 91.442ZM196.184 91.442V99.2455C196.184 99.8596 196.681 100.357 197.295 100.357H205.047C205.663 100.357 206.157 99.8593 206.157 99.2455V91.442C206.157 90.828 205.66 90.3308 205.047 90.3308H197.295C196.679 90.3308 196.184 90.8283 196.184 91.442ZM213.014 91.442V99.2455C213.014 99.8596 213.511 100.357 214.124 100.357H221.876C222.492 100.357 222.987 99.8593 222.987 99.2455V91.442C222.987 90.828 222.49 90.3308 221.876 90.3308H214.124C213.508 90.3308 213.014 90.8283 213.014 91.442Z" fill="#E1E5F0"/>
<path d="M205.047 73.4102H197.293C196.68 73.4102 196.184 73.9088 196.184 74.5239V82.3225C196.184 82.9376 196.68 83.4362 197.293 83.4362H205.047C205.66 83.4362 206.157 82.9376 206.157 82.3225V74.5239C206.157 73.9088 205.66 73.4102 205.047 73.4102Z" fill="#FFCB3D"/>
<path d="M221.903 56.4805H214.148C213.536 56.4805 213.039 56.9791 213.039 57.5942V65.3928C213.039 66.0079 213.536 66.5065 214.148 66.5065H221.903C222.515 66.5065 223.012 66.0079 223.012 65.3928V57.5942C223.012 56.9791 222.515 56.4805 221.903 56.4805Z" fill="#FFCB3D"/>
<path d="M136.969 36.377C136.969 35.7611 137.467 35.2617 138.078 35.2617H230.602C231.215 35.2617 231.711 35.7593 231.711 36.377V50.3459H136.969V36.377ZM169.312 40.2898C169.006 40.2898 168.757 40.5391 168.757 40.8466V44.761C168.757 45.0686 169.006 45.3179 169.312 45.3179H199.368C199.674 45.3179 199.923 45.0686 199.923 44.761V40.8466C199.923 40.5391 199.674 40.2898 199.368 40.2898H169.312Z" fill="#D8DEED"/>
<path d="M120.474 19.6378C121.929 19.6378 123.108 18.4535 123.108 16.9927C123.108 15.5319 121.929 14.3477 120.474 14.3477C119.019 14.3477 117.84 15.5319 117.84 16.9927C117.84 18.4535 119.019 19.6378 120.474 19.6378Z" fill="#FF5645"/>
<path d="M129.068 19.6378C130.522 19.6378 131.702 18.4535 131.702 16.9927C131.702 15.5319 130.522 14.3477 129.068 14.3477C127.613 14.3477 126.434 15.5319 126.434 16.9927C126.434 18.4535 127.613 19.6378 129.068 19.6378Z" fill="#FFCB3D"/>
<path d="M137.939 19.6378C139.394 19.6378 140.573 18.4535 140.573 16.9927C140.573 15.5319 139.394 14.3477 137.939 14.3477C136.484 14.3477 135.305 15.5319 135.305 16.9927C135.305 18.4535 136.484 19.6378 137.939 19.6378Z" fill="#3ABF7C"/>
</g>
<path d="M117.902 212.565C118.211 212.585 118.524 212.59 118.839 212.582L136.315 212.128C136.438 212.125 136.56 212.12 136.682 212.112C137.718 212.049 138.71 211.838 139.638 211.5L138.209 228.905H116.889L117.902 212.565ZM46.1827 212.812L39.6481 224.553L23.0117 211.884L28.8285 202.457C29.1026 202.672 29.3898 202.877 29.6899 203.068L42.7306 211.392C43.8181 212.086 44.9873 212.556 46.1827 212.812ZM107.819 83.4911L111.848 83.9402C113.565 83.0321 129.203 74.8851 130.222 78.8363C130.222 78.8363 130.154 78.9803 129.996 79.2273L137.277 76.7242C141.292 82.3679 137.893 91.1899 137.839 91.2206C128.548 95.3139 121.573 97.4888 116.914 97.7451C116.376 97.7747 115.895 97.7403 115.471 97.6419C115.464 97.6931 115.457 97.7447 115.45 97.7964C100.75 99.5671 85.3399 98.9116 69.2187 95.8301C65.34 95.0886 61.0491 86.0234 56.3461 68.6343C56.3916 68.6297 56.4369 68.6232 56.4819 68.6148L74.578 65.256C74.7398 65.226 74.8918 65.1734 75.0313 65.1021L79.4897 80.3338L93.1921 81.8609C93.6412 81.254 93.9675 80.6687 94.2566 80.1336C95.1756 78.4724 95.1678 76.6644 94.9448 75.2337C94.8918 74.9321 94.871 74.6531 94.8453 74.3466L94.1322 63.065L97.4594 62.5081C97.5334 62.495 98.014 62.3689 98.014 62.3689L101.624 69.6501C104.728 67.9249 113.819 57.218 113.819 57.218C113.819 57.218 114.25 63.0484 115.211 75.8547L107.819 83.4911ZM78.2477 39.0895L78.5652 41.7364C84.1919 41.9673 86.7493 44.1638 87.611 45.1215C87.611 45.1215 81.6744 46.2101 69.8014 48.3871C66.5995 45.8093 61.8338 45.2248 58.8731 47.467C60.517 45.8681 63.3563 44.492 67.3911 43.3386C68.4466 43.0369 69.4516 42.7835 70.408 42.5734L69.3741 32.7005C69.3139 32.6664 69.2537 32.6301 69.1937 32.5917C68.1122 31.8739 67.2962 30.5369 67.4515 28.9674C67.5819 27.5199 68.6615 25.5281 69.9757 25.2898C70.7132 25.149 72.772 25.7775 72.6265 25.1248C72.5296 24.6897 71.9618 22.3828 70.9233 18.2039C70.8353 17.7664 71.0901 17.3231 71.5187 17.2078C72.49 16.9753 73.4508 16.9185 74.404 16.4027C74.5111 16.3738 74.6111 16.3181 74.7182 16.2893C75.6001 15.9367 80.5094 13.8952 84.2583 16.8643C84.5783 17.0953 84.893 17.4141 85.2149 17.7599C85.975 18.5643 86.4763 19.5824 86.7098 20.6726L87.7801 25.5442C87.8557 26.0427 87.9581 26.534 87.9801 27.047C88.3876 33.3076 86.8609 38.1286 84.6543 38.8953C84.3936 38.9942 82.9545 39.4103 81.1453 39.4071C80.9702 39.3965 81.1256 39.4412 78.6319 39.1321C78.5003 39.1179 78.3722 39.1037 78.2477 39.0895Z" fill="#F2A98A"/>
<path opacity="0.2" d="M107.592 83.5159L115.195 75.7674C114.234 62.935 113.82 57.2148 113.82 57.2148C113.82 57.2148 104.724 67.8796 101.62 69.6049L98.0158 62.3657C98.0158 62.3657 97.5999 62.505 96.6294 62.6442L94.1339 63.0618L94.8423 74.5121C94.8679 74.8185 94.8888 75.0975 94.9417 75.3992C95.1648 76.8298 95.1726 78.6379 94.2536 80.299C93.9815 80.8026 93.6764 81.3506 93.2672 81.9194L107.592 83.5159Z" fill="#8C2A00"/>
<path d="M129.146 83.8021C130.518 83.4065 131.578 83.0636 133.936 82.272C136.305 81.4766 137.373 81.1312 138.76 80.7312C138.98 80.6675 139.211 80.7956 139.274 81.0173C139.338 81.239 139.21 81.4703 138.989 81.534C137.618 81.9297 136.558 82.2725 134.2 83.0642C131.83 83.8596 130.763 84.2049 129.376 84.6049C129.155 84.6686 128.925 84.5405 128.862 84.3189C128.798 84.0972 128.926 83.8658 129.146 83.8021ZM128.421 89.5346C129.914 89.0014 131.078 88.6152 133.673 87.7771C136.259 86.9416 137.418 86.5573 138.9 86.0278C139.116 85.9505 139.354 86.064 139.431 86.2813C139.508 86.4986 139.395 86.7375 139.179 86.8148C137.686 87.348 136.522 87.7342 133.927 88.5723C131.341 89.4078 130.182 89.7921 128.7 90.3216C128.484 90.3989 128.246 90.2854 128.169 90.0681C128.092 89.8507 128.205 89.6119 128.421 89.5346Z" fill="#482D1F"/>
<path d="M61.3975 25.4864C61.3753 24.4109 61.5479 23.2369 62.0982 22.081C62.6237 20.9307 63.3856 20.2357 63.7103 19.9466C65.4998 18.3697 67.2235 18.4825 71.2729 17.3064C72.1228 17.0489 73.3744 16.6833 74.8312 16.1184C74.9455 16.1165 75.0454 16.0608 75.1526 16.032C76.0345 15.6794 80.8711 14.1186 84.4234 16.9965C84.4378 17.0503 84.9739 17.3384 84.9687 17.4263C84.9687 17.4263 81.2738 25.4245 73.5519 27.0555C73.3452 26.8318 72.7976 26.3021 71.9763 25.9664C71.8816 25.9343 71.2115 25.6822 70.474 25.823C69.1597 26.0613 68.0933 27.4436 67.9629 28.8911C67.7932 30.4068 68.6021 31.7169 69.6567 32.442C70.7114 33.1671 71.8473 33.1209 72.217 33.1079L72.6507 32.9822C73.0254 33.7026 73.2863 34.4787 72.9837 35.0708C72.3992 36.2146 71.3112 36.8749 69.7197 37.0519C68.2477 38.9227 65.8406 40.2282 63.0478 40.4243C58.2359 40.7622 54.1012 37.6786 53.8128 33.5369C53.5366 29.5708 56.8875 26.0727 61.3975 25.4864ZM88.2872 24.1507C87.7998 24.3683 86.9643 24.6796 86.1427 24.6124C84.8638 24.553 85.8967 23.5833 87.0092 23.3416C87.552 23.2244 88.0255 23.3852 88.324 23.5355C88.5617 23.6733 88.5406 24.0249 88.2872 24.1507ZM83.0914 25.5487C82.5773 25.7735 81.7417 26.0848 80.8933 26.0249C79.6216 25.9923 80.6474 24.9957 81.7598 24.754C82.3294 24.6296 82.8029 24.7904 83.1014 24.9407C83.3659 25.0713 83.3448 25.4229 83.0914 25.5487Z" fill="#482D1F"/>
<path d="M86.8294 26.765C86.7968 26.4278 87.0001 26.1137 87.3214 26.0273C87.5357 25.9696 87.7519 26.0267 87.9327 26.3816C88.3498 27.1918 87.8497 28.6523 87.3723 28.2619C87.0184 28.0112 86.8978 27.2366 86.8294 26.765ZM82.019 27.8863C81.9865 27.5492 82.1897 27.2351 82.5111 27.1486C82.7254 27.091 82.9416 27.1481 83.1224 27.503C83.5395 28.3132 83.0393 29.7737 82.562 29.3833C82.2081 29.1326 82.0607 28.3651 82.019 27.8863Z" fill="#482D1F"/>
<path d="M84.8077 32.9577C84.6058 32.9543 84.1075 32.9155 83.9482 32.6413C83.9338 32.5875 83.8855 32.514 83.8979 32.453C83.962 32.2628 84.3317 32.2498 84.8282 32.1739C85.7067 32.024 86.3815 31.7559 86.3815 31.7559C86.3815 31.7559 86.3108 32.3515 86.2128 32.522C86.0598 33.0243 85.1238 32.9591 84.8077 32.9577Z" fill="#482D1F"/>
<path d="M85.4918 27.3417L86.5737 30.114L86.5833 30.1435C86.6617 30.437 86.5344 30.7634 86.2558 30.8907C86.2037 30.9103 86.1744 30.9204 86.145 30.9304C85.8666 31.0252 85.664 31.0827 84.9344 31.279C84.7865 31.3188 84.6344 31.2306 84.5948 31.0821C84.5552 30.9336 84.6429 30.7809 84.7909 30.7411C85.5076 30.5482 85.7045 30.4924 85.967 30.4031C85.9943 30.3938 86.0216 30.3843 86.0489 30.3746C86.0429 30.3763 86.057 30.339 86.05 30.2984L84.9681 27.526L84.9562 27.4873L84.5863 25.8861C84.5517 25.7363 84.6446 25.5867 84.7938 25.552C84.943 25.5173 85.0919 25.6105 85.1265 25.7603L85.4918 27.3417Z" fill="#482D1F"/>
<path d="M75.543 65.0712C74.8689 62.4652 74.1491 59.7563 73.3836 56.9443C73.323 56.7218 73.0943 56.5908 72.8728 56.6516C72.6512 56.7124 72.5207 56.9421 72.5812 57.1646C73.3458 59.9732 74.0647 62.6787 74.7379 65.2812C74.7957 65.5044 75.0227 65.6384 75.245 65.5804C75.4673 65.5224 75.6008 65.2944 75.543 65.0712Z" fill="#482D1F"/>
<path d="M314.14 249.488C314.747 249.488 315.214 249.083 315.191 248.596V248.271C315.191 247.785 314.7 247.379 314.14 247.379H290.214C289.631 247.379 289.164 247.785 289.164 248.271V248.596C289.164 249.083 289.654 249.488 290.214 249.488H314.14ZM260.82 247.379H223.706C223.126 247.379 222.656 247.851 222.656 248.434C222.656 249.016 223.126 249.488 223.706 249.488H260.82C261.4 249.488 261.871 249.016 261.871 248.434C261.871 247.851 261.4 247.379 260.82 247.379Z" fill="#FF5645"/>
<path d="M277.504 167.589C278.122 180.649 279.18 199.678 280.676 224.678C280.76 226.08 281.861 227.206 283.256 227.314C290.633 227.887 294.322 228.173 294.322 228.173C296.199 228.134 298.101 228.098 300.103 227.966C300.903 227.934 301.73 227.853 302.557 227.772C307.948 226.648 311.713 225.624 317.104 224.501C318.155 224.258 319.75 222.042 318.733 218.39C317.716 214.737 314.59 193.671 312.075 178.208C312.288 175.711 312.266 173.219 311.914 170.75C311.523 167.914 304.696 120.44 303.898 115.778C303.274 107.046 299.032 103.235 294.147 101.623C292.841 101.191 291.854 99.6621 289.88 99.0031C288.096 98.4072 284.232 98.0394 278.29 97.8997C276.363 97.4613 271.611 97.6117 268.321 99.5176C267.017 100.273 265.296 101.94 263.199 105.912C261.102 109.884 248.862 147.703 248.605 154.694C246.364 161.134 244.52 167.167 243.446 170.854C242.466 174.206 242.466 176.887 242.372 177.677C239.781 198.434 229.371 217.085 234.226 221.633C234.973 222.328 238.964 223.118 246.948 224.722C247.461 224.818 247.928 224.913 247.928 224.913C249.912 225.296 251.779 225.584 253.647 225.847C253.647 225.847 262.47 227.571 272.484 226.805C274.098 226.676 275.772 206.938 277.504 167.589Z" fill="#FFCB3D"/>
<path opacity="0.176986" d="M268.32 99.4327C267.017 100.188 265.296 101.855 263.199 105.827C261.102 109.799 248.861 147.618 248.604 154.609C246.364 161.049 244.52 167.082 243.446 170.769C242.465 174.121 242.465 176.802 242.372 177.592C239.781 198.349 229.37 217 234.226 221.549C234.973 222.243 238.964 223.033 246.947 224.637C247.461 224.733 247.928 224.828 247.928 224.828C249.912 225.212 251.779 225.499 253.646 225.762C253.646 225.762 262.47 227.486 272.484 226.72C274.11 226.59 275.797 206.553 277.543 166.607C277.137 157.931 276.935 152.015 276.935 148.857C276.218 143.242 275.527 137.604 274.81 131.99C274.179 119.236 274.053 110.586 274.433 106.039C274.477 105.513 274.76 102.777 275.282 97.832L268.32 99.4327Z" fill="#444444"/>
<path d="M290.203 247.376H313.879L306.762 233.607L293.831 235.177L290.203 247.376ZM223.234 247.48C223.372 247.413 223.526 247.376 223.689 247.376H260.803C260.882 247.376 260.958 247.385 261.032 247.401L258.519 233.067L243.892 232.609L239.691 235.68C238.71 236.618 237.683 237.508 236.539 238.258C233.808 240.063 232.385 240.04 228.23 242.032C227.109 242.548 226.012 243.157 224.962 243.813C224.448 244.282 223.538 245.22 223.234 246.345C223.188 246.532 223.188 246.72 223.164 246.884C223.159 247.096 223.186 247.295 223.234 247.48Z" fill="#474961"/>
<path d="M295.895 118.238C295.895 118.238 288.822 133.38 292.37 134.107C292.37 134.107 294.495 132.958 296.035 129.302" fill="#482D1F"/>
<path d="M313.824 122.052L316.858 142.421C316.951 143.053 316.531 143.639 315.901 143.757L288.847 147.835C288.217 147.929 287.633 147.507 287.517 146.874L284.482 126.505C284.389 125.872 284.809 125.286 285.439 125.169L312.493 121.091C313.147 120.997 313.73 121.442 313.824 122.052Z" fill="#F2F6FB"/>
<path d="M287.405 129.066L289.716 143.997C289.832 144.63 289.389 145.216 288.759 145.333L286.588 145.684C285.958 145.802 285.374 145.356 285.257 144.723L282.946 129.792C282.83 129.159 283.273 128.573 283.903 128.456L286.074 128.105C286.705 127.987 287.288 128.433 287.405 129.066Z" fill="#FF5645"/>
<path d="M274.498 64.3549C272.841 63.6841 270.311 63.1649 267.717 64.6228C265.508 65.8391 265.993 67.5098 262.191 71.3045C260.306 73.1811 258.655 74.3393 258.773 75.8189C258.846 76.6689 259.444 77.2633 259.918 77.6423C262.053 78.5005 264.192 79.3553 266.335 80.21L266.251 87.4219L266.247 87.6406L266.107 91.6651L266.107 93.0505C266.107 97.6146 269.629 101.398 274.164 101.704L289.058 102.709C292.145 102.917 294.816 100.573 295.023 97.473C295.031 97.3546 295.035 97.236 295.036 97.1173L295.086 83.9846C297.499 84.1488 299.911 84.3121 302.324 84.4727C303.083 84.3319 304.079 84.0201 304.521 83.2099C305.309 81.7667 303.73 79.8124 302.158 76.9598C299.014 71.2546 300.32 69.8183 298.082 67.473C294.979 64.2187 290.857 63.7823 288.579 63.8035C288.06 63.7966 287.53 63.8855 287.029 64.0182L286.971 64.0485C285.887 63.7171 284.735 63.5345 283.541 63.5256L278.364 63.5005C277.02 63.4859 275.718 63.7968 274.498 64.3549Z" fill="#FF5645"/>
<path d="M292.64 227.941L293.832 235.18C293.832 235.18 298.135 234.656 306.74 233.609C306.683 231.05 306.639 228.783 306.61 226.809C305.36 227.094 304.057 227.382 302.642 227.677C301.815 227.758 300.988 227.84 300.189 227.872C298.186 228.003 296.285 228.04 294.407 228.078L292.64 227.941ZM244.474 224.113L243.893 232.612L258.52 233.07C258.52 233.07 259.093 229.959 259.772 226.554C256.099 226.215 253.732 225.752 253.732 225.752C251.864 225.489 249.997 225.202 248.013 224.819C248.013 224.819 247.546 224.723 247.033 224.627C246.129 224.446 245.276 224.274 244.474 224.113ZM282.454 59.4639L283.574 55.3627C283.659 55.1182 284.567 54.7749 285.076 54.3709C285.981 53.6313 286.186 52.3781 286.016 51.1275C285.76 49.9282 284.706 48.843 283.574 48.7528C283.149 48.719 282.742 48.8102 282.334 48.998L282.306 49.0151C282.165 49.1005 281.995 49.1063 281.853 49.095C281.463 49.0213 281.185 48.6861 281.236 48.2881L282.07 42.2161C282.143 41.8238 281.888 41.4942 281.497 41.4206C280.642 41.279 279.827 41.0749 279.017 40.7513C278.904 40.723 278.813 40.7003 278.723 40.6776C277.913 40.4507 273.514 39.3734 270.56 42.2575C270.294 42.5533 270.034 42.8263 269.813 43.1335C269.265 43.8899 268.92 44.794 268.802 45.7549L268.323 50.0075C268.289 50.4339 268.278 50.8659 268.29 51.3037C268.492 56.6928 270.215 60.6996 272.169 61.1645C273.176 61.3686 274.218 61.4361 275.237 61.3047C275.375 61.2739 275.283 61.3032 276.807 60.9716L276.827 63.3767C274.285 63.8684 273.254 64.8132 273.254 64.8132C273.352 65.4309 273.579 65.8698 273.86 66.195C275.591 68.2198 280.81 67.1999 286.862 63.9594C285.547 63.6495 284.344 63.435 283.245 63.2962C282.981 62.0212 282.712 60.8744 282.454 59.4639ZM266.169 93.4009C266.163 93.2664 266.16 93.1312 266.16 92.9953L266.16 91.61L266.3 87.5855L266.304 87.3668L266.388 80.0913C264.188 79.2136 261.991 78.3359 259.799 77.4546C259.678 77.3577 259.548 77.2467 259.422 77.121L253.528 84.9343C251.983 83.6458 244.762 78.1387 240.247 74.7076C234.029 69.1221 222.029 58.4566 222.029 58.4566C220.508 59.5684 221.591 63.0283 223.407 66.7642C222.639 67.2718 221.814 68.2674 220.934 69.7509C220.068 71.2096 220.365 73.081 221.638 74.1983L228.78 80.4649C235.97 89.0679 248.412 101.682 252.013 102.944C255.899 104.305 260.942 100.193 266.169 93.4009ZM301.926 84.3497C296.641 83.9973 291.354 83.6324 286.068 83.2742L295.785 124.445C295.79 124.446 295.795 124.446 295.8 124.446L291.485 142.432C291.382 142.859 291.588 143.3 291.981 143.493C293.325 144.157 295.058 144.476 297.179 144.452C300.909 144.409 303.481 142.977 303.481 142.955C306.337 136.598 307.959 131.669 308.347 128.167C308.4 127.69 308.405 127.164 308.361 126.588C308.376 126.582 308.391 126.577 308.406 126.571L301.926 84.3497Z" fill="#F2A98A"/>
<path opacity="0.176986" d="M274.77 64.4952C273.159 63.7668 270.521 63.0441 267.716 64.621C265.506 65.8374 265.992 67.5081 262.189 71.3028C260.304 73.1794 258.755 74.2692 258.755 75.7537C258.755 76.5851 259.285 77.1152 259.796 77.4516C261.989 78.3331 264.188 79.2157 266.386 80.0712L266.542 75.3638C266.526 72.53 267.328 69.9724 268.95 67.6908C270.204 65.9275 272.144 64.8623 274.77 64.4952Z" fill="#444444"/>
<path opacity="0.2" d="M266.167 93.4013C266.161 93.2669 266.158 93.1317 266.158 92.9958L266.158 91.6105L266.299 87.586L266.302 87.3672L266.387 80.0917C264.187 79.2141 261.989 78.3364 259.797 77.455C259.676 77.3582 259.547 77.2472 259.42 77.1214L253.526 84.9347C251.981 83.6462 244.76 78.1392 240.246 74.7081C234.027 69.1226 222.027 58.457 222.027 58.457C220.507 59.5689 221.589 63.0288 223.405 66.7646C222.637 67.2723 221.813 68.2679 220.932 69.7514C220.067 71.21 220.363 73.0815 221.636 74.1988L228.778 80.4654C235.968 89.0684 248.41 101.682 252.011 102.944C255.898 104.305 260.94 100.193 266.167 93.4013Z" fill="#8C2A00"/>
<path d="M297.522 135.889C297.566 135.7 297.448 135.511 297.26 135.467C297.071 135.423 296.883 135.541 296.84 135.73C296.569 136.904 296.321 137.814 295.737 139.84C295.15 141.879 294.899 142.797 294.625 143.987C294.581 144.176 294.698 144.365 294.887 144.409C295.075 144.453 295.263 144.335 295.307 144.146C295.577 142.972 295.826 142.062 296.41 140.036C296.997 137.997 297.248 137.079 297.522 135.889ZM302.278 135.066C302.333 134.88 302.228 134.684 302.043 134.629C301.857 134.573 301.662 134.679 301.607 134.865C301.226 136.15 300.963 137.122 300.4 139.267C299.84 141.404 299.577 142.371 299.199 143.646C299.144 143.832 299.25 144.028 299.435 144.084C299.62 144.139 299.815 144.033 299.87 143.847C300.251 142.563 300.515 141.591 301.077 139.446C301.638 137.308 301.9 136.341 302.278 135.066ZM286.582 83.4898C286.578 83.2958 286.418 83.1417 286.225 83.1452C286.21 83.1454 286.182 83.1447 286.144 83.1422C286.082 83.1382 286.013 83.1305 285.939 83.1183C285.733 83.0845 285.529 83.0227 285.341 82.9276C284.726 82.6159 284.4 82.0204 284.503 80.9768C284.583 80.1654 284.699 79.4575 284.841 78.8478C284.941 78.4181 285.047 78.0636 285.152 77.7804C285.213 77.6166 285.258 77.5158 285.28 77.4742C285.371 77.3028 285.307 77.0898 285.136 76.9985C284.965 76.9071 284.753 76.9719 284.662 77.1432C284.626 77.2125 284.568 77.3417 284.496 77.5346C284.38 77.8462 284.265 78.2294 284.159 78.6882C284.01 79.3277 283.89 80.0656 283.806 80.9071C283.674 82.2406 284.153 83.1128 285.025 83.5552C285.282 83.6854 285.554 83.7676 285.826 83.8123C285.996 83.8403 286.136 83.8494 286.233 83.8484L286.239 83.8483C286.432 83.8444 286.586 83.6839 286.582 83.4898Z" fill="#482D1F"/>
<path d="M290.803 51.7723C294.788 54.561 299.254 54.4411 301.523 52.3274C303.248 50.7061 303.569 48.0567 303.614 47.6815C304.07 43.9064 300.979 42.6975 300.718 42.584C300.718 42.584 296.906 39.238 290.535 44.9383C290.515 44.9563 290.495 44.9744 290.475 44.9927C290.097 44.3332 289.562 43.7877 288.96 43.3362C287.272 42.0922 285.8 42.3035 282.182 41.5668C281.446 41.4308 280.308 41.1104 278.96 40.7247C278.847 40.6964 278.756 40.6737 278.666 40.651C277.856 40.4241 273.513 39.3722 270.56 42.2563C270.565 42.3282 273.091 51.2021 279.804 52.279H279.804L280.971 50.2257C281.31 49.7309 281.768 49.3383 282.295 49.0594C282.702 48.8716 283.11 48.7803 283.534 48.8142C284.667 48.9044 285.72 49.9896 285.976 51.1889C286.209 52.3826 285.779 53.6279 284.828 54.3562C284.229 54.8517 283.497 55.1246 282.713 55.1251C282.588 56.9975 282.438 59.5988 282.438 59.5988C282.438 59.5988 282.824 59.5988 282.998 59.5988C283.17 59.5988 288.9 57.8867 290.803 51.7723ZM271.866 49.6863C272.308 49.8452 273.055 50.0323 273.701 49.9523C274.816 49.8208 273.847 49.071 272.874 48.9239C272.415 48.8332 272.036 49.004 271.781 49.1576C271.6 49.3056 271.646 49.6068 271.866 49.6863ZM267.49 48.893C267.921 49.0973 268.623 49.3698 269.308 49.3239C270.446 49.2947 269.573 48.4482 268.594 48.2271C268.09 48.1251 267.728 48.2277 267.45 48.3757C267.252 48.4952 267.275 48.7908 267.49 48.893Z" fill="#482D1F"/>
<path d="M269.147 51.9621C269.379 51.7061 269.373 51.0524 269.356 50.6374C269.356 50.3475 269.101 50.1145 268.84 50.0977C268.67 50.1034 268.461 50.1718 268.382 50.4902C268.145 51.2521 268.819 52.4114 269.147 51.9621ZM272.999 52.4297C273.254 52.1794 273.225 51.5199 273.208 51.1049C273.208 50.815 272.953 50.5821 272.693 50.5652C272.523 50.571 272.313 50.6393 272.234 50.9577C271.997 51.7197 272.649 52.8733 272.999 52.4297Z" fill="#482D1F"/>
<path d="M269.385 53.7849L269.597 51.2916L269.535 49.9142C269.529 49.7849 269.629 49.6752 269.757 49.6694C269.886 49.6635 269.995 49.7635 270.001 49.8929L270.064 51.2856L270.064 51.3163L269.85 53.8234C269.85 53.8324 269.866 53.85 269.908 53.8544L269.932 53.8582C270.176 53.91 270.473 53.9363 270.82 53.9363C270.949 53.9363 271.054 54.0412 271.054 54.1707C271.054 54.3001 270.949 54.4051 270.82 54.4051C270.447 54.4051 270.123 54.3767 269.846 54.3191C269.57 54.2841 269.363 54.057 269.385 53.7849Z" fill="#482D1F"/>
<path d="M289.41 45.7911C289.41 45.7911 288.863 48.577 290.462 52.6009L286.555 51.0912L286.621 48.7888L289.41 45.7911Z" fill="#482D1F"/>
<path d="M276.715 60.9713L278.707 60.5039L276.87 64.5129L276.715 60.9713Z" fill="#482D1F"/>
<path d="M270.963 56.2881C271.132 56.2823 271.551 56.2422 271.664 55.9807C271.676 55.9352 271.715 55.8726 271.704 55.8215C271.664 55.6907 270.911 55.623 270.911 55.623C269.966 55.5554 269.722 55.4703 269.643 55.5954C269.604 55.6579 269.604 55.7546 269.762 55.9876C269.927 56.3911 270.697 56.2939 270.963 56.2881Z" fill="#482D1F"/>
<g clip-path="url(#clip1_12467_5543)">
<path d="M237.622 156.475C251.558 156.475 262.854 145.131 262.854 131.138C262.854 117.144 251.558 105.801 237.622 105.801C223.687 105.801 212.391 117.144 212.391 131.138C212.391 145.131 223.687 156.475 237.622 156.475Z" fill="#E1E5F0"/>
<path d="M237.623 152.577C249.415 152.577 258.973 142.978 258.973 131.138C258.973 119.298 249.415 109.699 237.623 109.699C225.832 109.699 216.273 119.298 216.273 131.138C216.273 142.978 225.832 152.577 237.623 152.577Z" fill="#F2F6FB"/>
<path d="M239.284 129.467H254.812C255.118 129.467 255.366 129.716 255.366 130.024V131.694C255.366 132.002 255.118 132.251 254.812 132.251H237.066C236.76 132.251 236.512 132.002 236.512 131.694V130.163V112.483C236.512 112.175 236.76 111.926 237.066 111.926H238.73C239.036 111.926 239.284 112.175 239.284 112.483V129.467Z" fill="#D8DEED"/>
</g>
<defs>
<clipPath id="clip0_12467_5543">
<rect width="143.905" height="108.308" fill="white" transform="translate(112.293 10.7266)"/>
</clipPath>
<clipPath id="clip1_12467_5543">
<rect width="70.7046" height="56.7992" fill="white" transform="translate(202.41 99.6758)"/>
</clipPath>
</defs>
</svg>
