<svg width="183" height="136" viewBox="0 0 183 136" fill="none" xmlns="http://www.w3.org/2000/svg">
<g filter="url(#filter0_d_8376_2956)">
<rect x="46" y="28" width="93" height="80" rx="12" fill="white"/>
</g>
<g filter="url(#filter1_d_8376_2956)">
<rect x="28" y="45" width="83.1921" height="22.5606" rx="2" fill="white"/>
</g>
<rect opacity="0.6" x="46.416" y="49.7002" width="35.4928" height="2.82007" rx="1.41003" fill="url(#paint0_linear_8376_2956)"/>
<rect opacity="0.3" x="47.3574" y="55.8105" width="17.3767" height="1.88005" rx="0.940023" fill="url(#paint1_linear_8376_2956)"/>
<rect opacity="0.3" x="47.8262" y="60.041" width="26.2499" height="1.88005" rx="0.940023" fill="url(#paint2_linear_8376_2956)"/>
<g clip-path="url(#clip0_8376_2956)">
<path d="M32.6992 56.0451C32.6992 52.8003 35.3296 50.1699 38.5744 50.1699V50.1699C41.8191 50.1699 44.4495 52.8003 44.4495 56.0451V56.0451C44.4495 59.2898 41.8191 61.9202 38.5744 61.9202V61.9202C35.3296 61.9202 32.6992 59.2898 32.6992 56.0451V56.0451Z" fill="url(#paint3_linear_8376_2956)"/>
<path d="M42.1787 59.3752C42.4659 59.9235 42.6095 61.9211 42.6095 61.9211H34.541C34.541 61.9211 34.6846 59.9235 34.9719 59.3752C35.4027 58.5526 38.5753 57.4951 38.5753 57.4951C38.5753 57.4951 41.7479 58.5526 42.1787 59.3752Z" fill="url(#paint4_linear_8376_2956)"/>
<path d="M38.418 60.9802C38.418 60.9492 38.4272 60.9189 38.4444 60.8932C38.4616 60.8674 38.4861 60.8473 38.5147 60.8355C38.5433 60.8236 38.5748 60.8205 38.6052 60.8265C38.6356 60.8326 38.6635 60.8475 38.6854 60.8694C38.7073 60.8913 38.7223 60.9192 38.7283 60.9496C38.7344 60.98 38.7312 61.0115 38.7194 61.0402C38.7075 61.0688 38.6875 61.0932 38.6617 61.1105C38.6359 61.1277 38.6056 61.1369 38.5746 61.1369C38.5331 61.1369 38.4932 61.1204 38.4639 61.091C38.4345 61.0616 38.418 61.0217 38.418 60.9802ZM38.418 60.1969C38.418 60.1659 38.4272 60.1356 38.4444 60.1098C38.4616 60.084 38.4861 60.064 38.5147 60.0521C38.5433 60.0403 38.5748 60.0371 38.6052 60.0432C38.6356 60.0492 38.6635 60.0642 38.6854 60.0861C38.7073 60.108 38.7223 60.1359 38.7283 60.1663C38.7344 60.1967 38.7312 60.2282 38.7194 60.2568C38.7075 60.2854 38.6875 60.3099 38.6617 60.3271C38.6359 60.3443 38.6056 60.3535 38.5746 60.3535C38.5331 60.3535 38.4932 60.337 38.4639 60.3076C38.4345 60.2783 38.418 60.2384 38.418 60.1969ZM38.418 59.4135C38.418 59.3825 38.4272 59.3522 38.4444 59.3265C38.4616 59.3007 38.4861 59.2806 38.5147 59.2688C38.5433 59.2569 38.5748 59.2538 38.6052 59.2598C38.6356 59.2659 38.6635 59.2808 38.6854 59.3027C38.7073 59.3246 38.7223 59.3525 38.7283 59.3829C38.7344 59.4133 38.7312 59.4448 38.7194 59.4735C38.7075 59.5021 38.6875 59.5266 38.6617 59.5438C38.6359 59.561 38.6056 59.5702 38.5746 59.5702C38.5331 59.5702 38.4932 59.5537 38.4639 59.5243C38.4345 59.4949 38.418 59.4551 38.418 59.4135Z" fill="white"/>
<path d="M41.9238 57.0408L35.5607 56.2718C35.247 54.6065 35.6191 53.5572 36.677 53.124C37.1661 51.5216 39.0695 51.652 39.609 51.7826C41.445 52.2272 42.2166 53.9799 41.9238 57.0408Z" fill="url(#paint5_linear_8376_2956)"/>
<path d="M37.6362 57.9652V55.6151C36.6562 55.6005 36.8473 53.9022 37.832 54.4205C38.0083 54.4988 38.4587 54.2834 38.302 53.7547C39.3596 54.538 40.8332 53.1632 40.9263 54.0093C41.1094 55.6743 40.7551 57.0429 39.8156 57.0429C39.7154 57.0468 39.6152 57.0408 39.5162 57.0252V57.9652C39.2096 58.148 38.9029 58.2394 38.5962 58.2394C38.2895 58.2394 37.9695 58.148 37.6362 57.9652Z" fill="#FFDBC9"/>
<path d="M39.5154 57.0249V57.3382C38.9279 57.3382 38.4709 57.0575 38.1445 56.4961C38.5362 56.7572 38.9932 56.9335 39.5154 57.0249Z" fill="#FFBC9E"/>
<path d="M38.575 58.1992C38.8429 58.1863 39.5163 58.0477 39.5163 57.7481V57.4951C39.5881 57.4951 39.7938 57.6648 39.8996 57.8085C40.3177 58.3764 39.8539 58.8856 39.4756 58.8856C38.9983 58.8856 38.682 58.4868 38.5763 58.2949C38.4705 58.4868 38.1542 58.8856 37.6769 58.8856C37.2986 58.8856 36.8348 58.3764 37.2529 57.8085C37.3587 57.6648 37.5644 57.4951 37.6362 57.4951V57.7481C37.6362 58.0477 38.2919 58.1863 38.575 58.1992Z" fill="white"/>
</g>
<rect opacity="0.75" x="89.1016" y="52.5205" width="17.3904" height="7.52019" rx="3.76009" fill="url(#paint6_linear_8376_2956)"/>
<g filter="url(#filter2_d_8376_2956)">
<rect x="53" y="72" width="101.377" height="27.9073" rx="2" fill="white"/>
</g>
<rect opacity="0.65" x="76.9199" y="77.6953" width="43.8543" height="4.55629" rx="2.27815" fill="url(#paint7_linear_8376_2956)"/>
<rect opacity="0.4" x="79.7676" y="84.5293" width="25.6291" height="2.84768" rx="1.42384" fill="url(#paint8_linear_8376_2956)"/>
<rect opacity="0.4" x="79.1992" y="89.0859" width="34.7417" height="3.41722" rx="1.70861" fill="url(#paint9_linear_8376_2956)"/>
<g clip-path="url(#clip1_8376_2956)">
<path d="M59.7188 85.7413C59.7188 81.8094 62.9061 78.6221 66.838 78.6221V78.6221C70.7698 78.6221 73.9572 81.8094 73.9572 85.7413V85.7413C73.9572 89.6731 70.7698 92.8605 66.838 92.8605V92.8605C62.9061 92.8605 59.7188 89.6731 59.7188 85.7413V85.7413Z" fill="url(#paint10_linear_8376_2956)"/>
<path d="M71.2042 89.7762C71.5522 90.4407 71.7263 92.8612 71.7263 92.8612H61.9492C61.9492 92.8612 62.1233 90.4407 62.4713 89.7762C62.9934 88.7795 66.8377 87.498 66.8377 87.498C66.8377 87.498 70.6821 88.7795 71.2042 89.7762Z" fill="url(#paint11_linear_8376_2956)"/>
<path d="M66.6484 91.7221C66.6484 91.6845 66.6596 91.6478 66.6804 91.6166C66.7013 91.5854 66.7309 91.5611 66.7656 91.5467C66.8003 91.5323 66.8385 91.5286 66.8753 91.5359C66.9122 91.5432 66.946 91.5613 66.9725 91.5878C66.9991 91.6144 67.0172 91.6482 67.0245 91.685C67.0318 91.7219 67.0281 91.76 67.0137 91.7947C66.9993 91.8294 66.975 91.8591 66.9438 91.8799C66.9125 91.9008 66.8758 91.9119 66.8383 91.9119C66.7879 91.9119 66.7396 91.8919 66.704 91.8563C66.6684 91.8207 66.6484 91.7724 66.6484 91.7221ZM66.6484 90.7729C66.6484 90.7353 66.6596 90.6986 66.6804 90.6674C66.7013 90.6362 66.7309 90.6118 66.7656 90.5975C66.8003 90.5831 66.8385 90.5793 66.8753 90.5867C66.9122 90.594 66.946 90.6121 66.9725 90.6386C66.9991 90.6652 67.0172 90.699 67.0245 90.7358C67.0318 90.7726 67.0281 90.8108 67.0137 90.8455C66.9993 90.8802 66.975 90.9098 66.9438 90.9307C66.9125 90.9516 66.8758 90.9627 66.8383 90.9627C66.7879 90.9627 66.7396 90.9427 66.704 90.9071C66.6684 90.8715 66.6484 90.8232 66.6484 90.7729ZM66.6484 89.8236C66.6484 89.7861 66.6596 89.7494 66.6804 89.7182C66.7013 89.6869 66.7309 89.6626 66.7656 89.6482C66.8003 89.6339 66.8385 89.6301 66.8753 89.6374C66.9122 89.6448 66.946 89.6628 66.9725 89.6894C66.9991 89.7159 67.0172 89.7498 67.0245 89.7866C67.0318 89.8234 67.0281 89.8616 67.0137 89.8963C66.9993 89.931 66.975 89.9606 66.9438 89.9815C66.9125 90.0023 66.8758 90.0135 66.8383 90.0135C66.7879 90.0135 66.7396 89.9935 66.704 89.9579C66.6684 89.9223 66.6484 89.874 66.6484 89.8236Z" fill="white"/>
<path d="M70.8936 86.9477L63.1831 86.0159C62.803 83.9979 63.2539 82.7265 64.5358 82.2016C65.1284 80.2599 67.4349 80.4178 68.0887 80.5761C70.3134 81.1148 71.2484 83.2387 70.8936 86.9477Z" fill="url(#paint12_linear_8376_2956)"/>
<path d="M65.6988 88.0676V85.22C64.5112 85.2022 64.7428 83.1444 65.9361 83.7724C66.1496 83.8673 66.6954 83.6063 66.5056 82.9655C67.7871 83.9148 69.5727 82.2489 69.6855 83.274C69.9074 85.2917 69.4781 86.95 68.3396 86.9501C68.2183 86.9547 68.0968 86.9475 67.9769 86.9286V88.0676C67.6053 88.2891 67.2337 88.3999 66.862 88.3999C66.4904 88.3999 66.1026 88.2891 65.6988 88.0676Z" fill="#FFDBC9"/>
<path d="M67.9776 86.9278V87.3075C67.2656 87.3075 66.7119 86.9674 66.3164 86.2871C66.791 86.6035 67.3447 86.8171 67.9776 86.9278Z" fill="#FFBC9E"/>
<path d="M66.8371 88.3512C67.1618 88.3356 67.9777 88.1676 67.9777 87.8046V87.498C68.0648 87.498 68.314 87.7036 68.4422 87.8777C68.9489 88.5659 68.3869 89.1829 67.9285 89.1829C67.3501 89.1829 66.9668 88.6997 66.8387 88.4672C66.7105 88.6998 66.3272 89.1829 65.7489 89.1829C65.2905 89.1829 64.7285 88.5659 65.2352 87.8777C65.3633 87.7036 65.6126 87.498 65.6996 87.498V87.8046C65.6996 88.1676 66.4941 88.3356 66.8371 88.3512Z" fill="white"/>
</g>
<rect opacity="0.65" x="127.609" y="82.252" width="23.351" height="9.68212" rx="4.84106" fill="url(#paint13_linear_8376_2956)"/>
<defs>
<filter id="filter0_d_8376_2956" x="18" y="0" width="149" height="136" filterUnits="userSpaceOnUse" color-interpolation-filters="sRGB">
<feFlood flood-opacity="0" result="BackgroundImageFix"/>
<feColorMatrix in="SourceAlpha" type="matrix" values="0 0 0 0 0 0 0 0 0 0 0 0 0 0 0 0 0 0 127 0" result="hardAlpha"/>
<feMorphology radius="4" operator="dilate" in="SourceAlpha" result="effect1_dropShadow_8376_2956"/>
<feOffset/>
<feGaussianBlur stdDeviation="12"/>
<feComposite in2="hardAlpha" operator="out"/>
<feColorMatrix type="matrix" values="0 0 0 0 0.282353 0 0 0 0 0.290196 0 0 0 0 0.619608 0 0 0 0.1 0"/>
<feBlend mode="normal" in2="BackgroundImageFix" result="effect1_dropShadow_8376_2956"/>
<feBlend mode="normal" in="SourceGraphic" in2="effect1_dropShadow_8376_2956" result="shape"/>
</filter>
<filter id="filter1_d_8376_2956" x="0" y="17" width="139.191" height="78.5605" filterUnits="userSpaceOnUse" color-interpolation-filters="sRGB">
<feFlood flood-opacity="0" result="BackgroundImageFix"/>
<feColorMatrix in="SourceAlpha" type="matrix" values="0 0 0 0 0 0 0 0 0 0 0 0 0 0 0 0 0 0 127 0" result="hardAlpha"/>
<feMorphology radius="4" operator="dilate" in="SourceAlpha" result="effect1_dropShadow_8376_2956"/>
<feOffset/>
<feGaussianBlur stdDeviation="12"/>
<feComposite in2="hardAlpha" operator="out"/>
<feColorMatrix type="matrix" values="0 0 0 0 0.282353 0 0 0 0 0.290196 0 0 0 0 0.619608 0 0 0 0.08 0"/>
<feBlend mode="normal" in2="BackgroundImageFix" result="effect1_dropShadow_8376_2956"/>
<feBlend mode="normal" in="SourceGraphic" in2="effect1_dropShadow_8376_2956" result="shape"/>
</filter>
<filter id="filter2_d_8376_2956" x="25" y="44" width="157.377" height="83.9072" filterUnits="userSpaceOnUse" color-interpolation-filters="sRGB">
<feFlood flood-opacity="0" result="BackgroundImageFix"/>
<feColorMatrix in="SourceAlpha" type="matrix" values="0 0 0 0 0 0 0 0 0 0 0 0 0 0 0 0 0 0 127 0" result="hardAlpha"/>
<feMorphology radius="4" operator="dilate" in="SourceAlpha" result="effect1_dropShadow_8376_2956"/>
<feOffset/>
<feGaussianBlur stdDeviation="12"/>
<feComposite in2="hardAlpha" operator="out"/>
<feColorMatrix type="matrix" values="0 0 0 0 0.282353 0 0 0 0 0.290196 0 0 0 0 0.619608 0 0 0 0.03 0"/>
<feBlend mode="normal" in2="BackgroundImageFix" result="effect1_dropShadow_8376_2956"/>
<feBlend mode="normal" in="SourceGraphic" in2="effect1_dropShadow_8376_2956" result="shape"/>
</filter>
<linearGradient id="paint0_linear_8376_2956" x1="46.416" y1="51.1102" x2="81.9088" y2="51.1102" gradientUnits="userSpaceOnUse">
<stop stop-color="#F44545"/>
<stop offset="1" stop-color="#EEA849"/>
</linearGradient>
<linearGradient id="paint1_linear_8376_2956" x1="47.3574" y1="56.7506" x2="64.7341" y2="56.7506" gradientUnits="userSpaceOnUse">
<stop stop-color="#F44545"/>
<stop offset="1" stop-color="#EEA849"/>
</linearGradient>
<linearGradient id="paint2_linear_8376_2956" x1="47.8262" y1="60.981" x2="74.076" y2="60.981" gradientUnits="userSpaceOnUse">
<stop stop-color="#F44545"/>
<stop offset="1" stop-color="#EEA849"/>
</linearGradient>
<linearGradient id="paint3_linear_8376_2956" x1="38.5744" y1="50.1699" x2="38.5744" y2="61.9202" gradientUnits="userSpaceOnUse">
<stop stop-color="#EAEAEA"/>
<stop offset="1" stop-color="#ECECEC"/>
</linearGradient>
<linearGradient id="paint4_linear_8376_2956" x1="34.541" y1="59.7081" x2="42.6095" y2="59.7081" gradientUnits="userSpaceOnUse">
<stop stop-color="#606C88"/>
<stop offset="1" stop-color="#3F4C6B"/>
</linearGradient>
<linearGradient id="paint5_linear_8376_2956" x1="38.7187" y1="57.0408" x2="38.7187" y2="51.7109" gradientUnits="userSpaceOnUse">
<stop/>
<stop offset="1"/>
</linearGradient>
<linearGradient id="paint6_linear_8376_2956" x1="89.1016" y1="56.2806" x2="106.492" y2="56.2806" gradientUnits="userSpaceOnUse">
<stop stop-color="#F44545"/>
<stop offset="1" stop-color="#EEA849"/>
</linearGradient>
<linearGradient id="paint7_linear_8376_2956" x1="76.9199" y1="79.9735" x2="120.774" y2="79.9735" gradientUnits="userSpaceOnUse">
<stop stop-color="#00D2FF"/>
<stop offset="1" stop-color="#3A7BD5"/>
</linearGradient>
<linearGradient id="paint8_linear_8376_2956" x1="79.7676" y1="85.9531" x2="105.397" y2="85.9531" gradientUnits="userSpaceOnUse">
<stop stop-color="#00D2FF"/>
<stop offset="1" stop-color="#3A7BD5"/>
</linearGradient>
<linearGradient id="paint9_linear_8376_2956" x1="79.1992" y1="90.7945" x2="113.941" y2="90.7945" gradientUnits="userSpaceOnUse">
<stop stop-color="#00D2FF"/>
<stop offset="1" stop-color="#3A7BD5"/>
</linearGradient>
<linearGradient id="paint10_linear_8376_2956" x1="66.838" y1="78.6221" x2="66.838" y2="92.8605" gradientUnits="userSpaceOnUse">
<stop stop-color="#EAEAEA"/>
<stop offset="1" stop-color="#ECECEC"/>
</linearGradient>
<linearGradient id="paint11_linear_8376_2956" x1="61.9492" y1="90.1796" x2="71.7263" y2="90.1796" gradientUnits="userSpaceOnUse">
<stop stop-color="#606C88"/>
<stop offset="1" stop-color="#3F4C6B"/>
</linearGradient>
<linearGradient id="paint12_linear_8376_2956" x1="67.0098" y1="86.9477" x2="67.0098" y2="80.4893" gradientUnits="userSpaceOnUse">
<stop/>
<stop offset="1"/>
</linearGradient>
<linearGradient id="paint13_linear_8376_2956" x1="127.609" y1="87.093" x2="150.96" y2="87.093" gradientUnits="userSpaceOnUse">
<stop stop-color="#00D2FF"/>
<stop offset="1" stop-color="#3A7BD5"/>
</linearGradient>
<clipPath id="clip0_8376_2956">
<path d="M32.6992 56.0451C32.6992 52.8003 35.3296 50.1699 38.5744 50.1699V50.1699C41.8191 50.1699 44.4495 52.8003 44.4495 56.0451V56.0451C44.4495 59.2898 41.8191 61.9202 38.5744 61.9202V61.9202C35.3296 61.9202 32.6992 59.2898 32.6992 56.0451V56.0451Z" fill="white"/>
</clipPath>
<clipPath id="clip1_8376_2956">
<path d="M59.7188 85.7413C59.7188 81.8094 62.9061 78.6221 66.838 78.6221V78.6221C70.7698 78.6221 73.9572 81.8094 73.9572 85.7413V85.7413C73.9572 89.6731 70.7698 92.8605 66.838 92.8605V92.8605C62.9061 92.8605 59.7188 89.6731 59.7188 85.7413V85.7413Z" fill="white"/>
</clipPath>
</defs>
</svg>
