<svg width="76" height="30" viewBox="0 0 76 30" fill="none" xmlns="http://www.w3.org/2000/svg">
<path d="M2.24828 5.92333C0.800059 3.28246 0.0759496 1.96203 0.656815 0.981013C1.23768 0 2.74363 0 5.75553 0H72C73.8856 0 74.8284 0 75.4142 0.585786C76 1.17157 76 2.11438 76 4V26C76 27.8856 76 28.8284 75.4142 29.4142C74.8284 30 73.8856 30 72 30H5.98145C2.88155 30 1.33161 30 0.755372 28.9943C0.179139 27.9885 0.962977 26.6514 2.53065 23.9771L6.35274 17.4571C6.91306 16.5013 7.19322 16.0233 7.20077 15.4957C7.20832 14.9681 6.94194 14.4824 6.4092 13.5109L2.24828 5.92333Z" fill="#CC3942"/>
</svg>
