<svg width="38" height="38" viewBox="0 0 38 38" fill="none" xmlns="http://www.w3.org/2000/svg">
<path d="M19.0009 9.85303C18.7994 9.85303 18.6061 9.9331 18.4635 10.0756C18.321 10.2182 18.2409 10.4115 18.2409 10.613V22.393L13.5061 17.6354C13.4355 17.5648 13.3517 17.5088 13.2594 17.4706C13.1672 17.4324 13.0683 17.4127 12.9684 17.4127C12.8686 17.4127 12.7697 17.4324 12.6774 17.4706C12.5852 17.5088 12.5013 17.5648 12.4307 17.6354C12.3601 17.706 12.3041 17.7899 12.2659 17.8821C12.2277 17.9744 12.208 18.0733 12.208 18.1731C12.208 18.273 12.2277 18.3719 12.2659 18.4641C12.3041 18.5564 12.3601 18.6402 12.4307 18.7108L18.4651 24.7452C18.5006 24.7798 18.5387 24.8116 18.5791 24.8402H18.6095L18.7083 24.8934H18.7539C18.7857 24.9063 18.8188 24.9152 18.8527 24.92C18.902 24.9258 18.9517 24.9258 19.0009 24.92C19.0514 24.9256 19.1024 24.9256 19.1529 24.92C19.1855 24.9147 19.2173 24.9058 19.2479 24.8934H19.2935L19.3923 24.8402H19.4227L19.5405 24.7452L25.5711 18.7108C25.7137 18.5682 25.7939 18.3748 25.7939 18.1731C25.7939 17.9714 25.7137 17.778 25.5711 17.6354C25.4285 17.4928 25.2351 17.4127 25.0334 17.4127C24.8318 17.4127 24.6383 17.4928 24.4957 17.6354L19.7609 22.374V10.613C19.7609 10.4115 19.6809 10.2182 19.5383 10.0756C19.3958 9.9331 19.2025 9.85303 19.0009 9.85303Z" fill="black"/>
<path d="M12.9651 28.146H25.0339C25.2354 28.146 25.4287 28.0659 25.5713 27.9234C25.7138 27.7808 25.7939 27.5875 25.7939 27.386C25.7939 27.1844 25.7138 26.9911 25.5713 26.8486C25.4287 26.706 25.2354 26.626 25.0339 26.626H12.9651C12.7635 26.626 12.5702 26.706 12.4277 26.8486C12.2852 26.9911 12.2051 27.1844 12.2051 27.386C12.2051 27.5875 12.2852 27.7808 12.4277 27.9234C12.5702 28.0659 12.7635 28.146 12.9651 28.146Z" fill="black"/>
</svg>
