<svg width="332" height="241" viewBox="0 0 332 241" fill="none" xmlns="http://www.w3.org/2000/svg">
<circle cx="165.5" cy="138.5" r="69" fill="#F1F3F9" stroke="#DBE0EA"/>
<circle r="4" transform="matrix(1 0 0 -1 245.5 138.5)" fill="#F1F3F9" stroke="#DBE0EA"/>
<circle r="4" transform="matrix(1 0 0 -1 109.5 191.5)" fill="#F1F3F9" stroke="#DBE0EA"/>
<circle r="7" transform="matrix(1 0 0 -1 86.5 168.5)" fill="#F1F3F9" stroke="#DBE0EA"/>
<path d="M165 108.833C157.358 108.833 151.146 115.046 151.146 122.687C151.146 130.183 157.008 136.25 164.65 136.512C164.883 136.483 165.117 136.483 165.292 136.512C165.35 136.512 165.379 136.512 165.437 136.512C165.467 136.512 165.467 136.512 165.496 136.512C172.962 136.25 178.825 130.183 178.854 122.687C178.854 115.046 172.642 108.833 165 108.833Z" fill="white"/>
<path d="M151.646 122.687C151.646 115.322 157.634 109.333 165 109.333C172.365 109.333 178.354 115.321 178.354 122.687C178.325 129.912 172.679 135.755 165.487 136.012H165.487H165.487H165.487H165.486H165.486H165.486H165.486H165.486H165.486H165.486H165.486H165.485H165.485H165.485H165.485H165.485H165.485H165.485H165.485H165.484H165.484H165.484H165.484H165.484H165.484H165.484H165.483H165.483H165.483H165.483H165.483H165.483H165.483H165.483H165.483H165.482H165.482H165.482H165.482H165.482H165.482H165.482H165.482H165.481H165.481H165.481H165.481H165.481H165.481H165.481H165.481H165.481H165.48H165.48H165.48H165.48H165.48H165.48H165.48H165.48H165.48H165.479H165.479H165.479H165.479H165.479H165.479H165.479H165.479H165.479H165.478H165.478H165.478H165.478H165.478H165.478H165.478H165.478H165.478H165.477H165.477H165.477H165.477H165.477H165.477H165.477H165.477H165.477H165.477H165.476H165.476H165.476H165.476H165.476H165.476H165.476H165.476H165.476H165.476H165.475H165.475H165.475H165.475H165.475H165.475H165.475H165.475H165.475H165.475H165.474H165.474H165.474H165.474H165.474H165.474H165.474H165.474H165.474H165.474H165.474H165.473H165.473H165.473H165.473H165.473H165.473H165.473H165.473H165.473H165.473H165.473H165.472H165.472H165.472H165.472H165.472H165.472H165.472H165.472H165.472H165.472H165.472H165.471H165.471H165.471H165.471H165.471H165.471H165.471H165.471H165.471H165.471H165.471H165.47H165.47H165.47H165.47H165.47H165.47H165.47H165.47H165.47H165.47H165.47H165.47H165.469H165.469H165.469H165.469H165.469H165.469H165.469H165.469H165.469H165.469H165.469H165.468H165.468H165.468H165.468H165.468H165.468H165.468H165.468H165.468H165.468H165.468H165.468H165.467H165.467H165.467H165.467H165.467H165.467H165.467H165.467H165.467H165.467H165.467H165.466H165.466H165.466H165.466H165.466H165.466H165.466H165.466H165.466H165.466H165.466H165.466H165.465H165.465H165.465H165.465H165.465H165.465H165.465H165.465H165.465H165.465H165.465H165.465H165.464H165.464H165.464H165.464H165.464H165.464H165.464H165.464H165.464H165.464H165.464H165.463H165.463H165.463H165.463H165.463H165.463H165.463H165.463H165.463H165.463H165.463H165.463H165.462H165.462H165.462H165.462H165.462H165.462H165.462H165.462H165.462H165.462H165.462H165.461H165.461H165.461H165.461H165.461H165.461H165.461H165.461H165.461H165.461H165.461H165.46H165.46H165.46H165.46H165.46H165.46H165.46H165.46H165.46H165.46H165.46H165.459H165.459H165.459H165.459H165.459H165.459H165.459H165.459H165.459H165.459H165.458H165.458H165.458H165.458H165.458H165.458H165.458H165.458H165.458H165.458H165.458H165.457H165.457H165.457H165.457H165.457H165.457H165.457H165.457H165.457H165.457H165.456H165.456H165.456H165.456H165.456H165.456H165.456H165.456H165.456H165.455H165.455H165.455H165.455H165.455H165.455H165.455H165.455H165.455H165.455H165.454H165.454H165.454H165.454H165.454H165.454H165.454H165.454H165.454H165.453H165.453H165.453H165.453H165.453H165.453H165.453H165.453H165.453H165.452H165.452H165.452H165.452H165.452H165.452H165.452H165.452H165.451H165.451H165.451H165.451H165.451H165.451H165.451H165.451H165.451H165.45H165.45H165.45H165.45H165.45H165.45H165.45H165.45H165.449H165.449H165.449H165.449H165.449H165.449H165.449H165.449H165.448H165.448H165.448H165.448H165.448H165.448H165.448H165.448H165.447H165.447H165.447H165.447H165.447H165.447H165.447H165.446H165.446H165.446H165.446H165.446H165.446H165.446H165.445H165.445H165.445H165.445H165.445H165.445H165.445H165.444H165.444H165.444H165.444H165.444H165.444H165.444H165.443H165.443H165.443H165.443H165.443H165.443H165.443H165.442H165.442H165.442H165.442H165.442H165.442H165.441H165.441H165.441H165.441H165.441H165.441H165.441H165.44H165.44H165.44H165.44H165.44H165.44H165.439H165.439H165.439H165.439H165.439H165.439H165.438H165.438H165.438H165.438H165.438H165.438H165.437H165.437H165.437H165.436H165.436H165.436H165.435H165.435H165.435H165.434H165.434H165.434H165.433H165.433H165.433H165.432H165.432H165.432H165.431H165.431H165.431H165.43H165.43H165.43H165.429H165.429H165.429H165.428H165.428H165.428H165.427H165.427H165.427H165.426H165.426H165.426H165.426H165.425H165.425H165.425H165.424H165.424H165.424H165.423H165.423H165.423H165.422H165.422H165.422H165.421H165.421H165.421H165.42H165.42H165.42H165.42H165.419H165.419H165.419H165.418H165.418H165.418H165.417H165.417H165.417H165.416H165.416H165.416H165.416H165.415H165.415H165.415H165.414H165.414H165.414H165.413H165.413H165.413H165.413H165.412H165.412H165.412H165.411H165.411H165.411H165.411H165.41H165.41H165.41H165.409H165.409H165.409H165.408H165.408H165.408H165.408H165.407H165.407H165.407H165.406H165.406H165.406H165.406H165.405H165.405H165.405H165.404H165.404H165.404H165.404H165.403H165.403H165.403H165.402H165.402H165.402H165.402H165.401H165.401H165.401H165.4H165.4H165.4H165.4H165.399H165.399H165.399H165.399H165.398H165.398H165.398H165.397H165.397H165.397H165.397H165.396H165.396H165.396H165.395H165.395H165.395H165.395H165.394H165.394H165.394H165.394H165.393H165.393H165.393H165.392H165.392H165.392H165.392H165.391H165.391H165.391H165.391H165.39H165.39H165.39H165.389H165.389H165.389H165.389H165.388H165.388H165.388H165.388H165.387H165.387H165.387H165.387H165.386H165.386H165.386H165.385H165.385H165.385H165.385H165.384H165.384H165.384H165.384H165.383H165.383H165.383H165.383H165.382H165.382H165.382H165.382H165.381H165.381H165.381H165.38H165.38H165.38H165.38H165.379H165.379H165.379H165.379H165.378H165.378H165.378H165.378H165.377H165.377H165.377H165.377H165.376H165.376H165.376H165.376H165.375H165.375H165.375H165.375H165.374H165.374H165.374H165.373H165.373H165.373H165.373H165.372H165.372H165.372H165.372H165.371H165.371H165.371H165.371H165.37H165.37H165.37H165.37H165.369H165.369H165.369H165.369H165.368H165.368H165.368H165.368H165.367H165.367H165.367H165.367H165.366H165.366H165.366H165.366H165.365H165.365H165.365H165.365H165.364H165.364H165.364H165.363H165.363H165.363H165.363H165.362H165.362H165.362H165.362H165.361H165.361H165.361H165.361H165.36H165.36H165.36H165.36H165.359H165.359H165.359H165.359H165.358H165.358H165.358H165.358H165.357H165.357H165.357H165.357H165.356H165.356H165.356H165.356H165.355H165.355H165.355H165.354H165.354H165.354H165.354H165.353H165.353H165.353H165.353H165.352H165.352H165.352H165.352H165.351H165.351H165.351H165.351H165.35H165.35H165.35H165.35H165.349H165.349H165.349H165.349H165.348H165.348H165.348H165.347H165.347H165.347H165.347H165.346H165.346H165.346H165.346H165.345H165.345H165.345H165.345H165.344H165.344H165.344H165.344H165.343H165.343H165.343H165.342H165.342H165.342H165.342H165.341H165.341H165.341H165.341H165.34H165.34H165.34H165.34H165.339H165.339H165.339H165.338H165.338H165.338H165.338H165.337H165.337H165.337H165.337H165.336H165.336H165.336H165.335H165.335H165.335H165.335H165.334H165.334H165.334H165.334H165.333H165.333H165.333H165.332H165.332H165.332H165.332H165.331H165.331H165.331H165.331H165.33H165.33H165.33H165.33C165.116 135.982 164.867 135.985 164.629 136.011C157.272 135.739 151.646 129.898 151.646 122.687Z" stroke="#8C9ABF" stroke-opacity="0.5" stroke-linejoin="round"/>
<path d="M179.817 144.271C171.679 138.846 158.408 138.846 150.212 144.271C146.508 146.75 144.467 150.104 144.467 153.692C144.467 157.279 146.508 160.604 150.183 163.054C154.267 165.796 159.633 167.167 165 167.167C170.367 167.167 175.733 165.796 179.817 163.054C183.492 160.575 185.533 157.25 185.533 153.633C185.504 150.046 183.492 146.721 179.817 144.271Z" fill="white"/>
<path d="M150.462 162.639L150.461 162.638C146.887 160.256 144.967 157.071 144.967 153.692C144.967 150.312 146.887 147.099 150.489 144.687C154.489 142.04 159.754 140.702 165.036 140.702C170.32 140.702 175.57 142.04 179.539 144.687C183.11 147.067 185.005 150.252 185.033 153.636C185.032 157.044 183.112 160.228 179.537 162.64C175.553 165.314 170.289 166.667 165 166.667C159.71 166.667 154.446 165.314 150.462 162.639Z" stroke="#8C9ABF" stroke-opacity="0.5" stroke-linejoin="round"/>
<g filter="url(#filter0_d_7882_1510)">
<rect x="28" y="28" width="275.662" height="185" rx="10" fill="white"/>
</g>
<g clip-path="url(#clip0_7882_1510)">
<path d="M290.01 143C290.01 140.239 287.771 138 285.01 138H246C243.238 138 241 140.239 241 143V182.01C241 184.771 243.238 187.01 246 187.01H285.01C287.771 187.01 290.01 184.771 290.01 182.01V143Z" fill="url(#paint0_linear_7882_1510)"/>
<path d="M250.475 176.391C249.277 178.678 248.678 187.01 248.678 187.01H282.332C282.332 187.01 281.732 178.678 280.535 176.391C278.737 172.96 265.505 168.55 265.505 168.55C265.505 168.55 252.272 172.96 250.475 176.391Z" fill="url(#paint1_linear_7882_1510)"/>
<path d="M266.158 183.089C266.158 182.96 266.12 182.834 266.048 182.726C265.976 182.619 265.874 182.535 265.755 182.485C265.635 182.436 265.504 182.423 265.377 182.448C265.25 182.473 265.134 182.536 265.043 182.627C264.951 182.718 264.889 182.835 264.864 182.962C264.839 183.088 264.852 183.22 264.901 183.339C264.95 183.459 265.034 183.561 265.142 183.633C265.249 183.704 265.375 183.743 265.505 183.743C265.678 183.743 265.844 183.674 265.967 183.551C266.089 183.429 266.158 183.262 266.158 183.089ZM266.158 179.822C266.158 179.693 266.12 179.566 266.048 179.459C265.976 179.351 265.874 179.268 265.755 179.218C265.635 179.169 265.504 179.156 265.377 179.181C265.25 179.206 265.134 179.268 265.043 179.36C264.951 179.451 264.889 179.568 264.864 179.694C264.839 179.821 264.852 179.953 264.901 180.072C264.95 180.191 265.034 180.293 265.142 180.365C265.249 180.437 265.375 180.475 265.505 180.475C265.678 180.475 265.844 180.406 265.967 180.284C266.089 180.161 266.158 179.995 266.158 179.822ZM266.158 176.555C266.158 176.425 266.12 176.299 266.048 176.191C265.976 176.084 265.874 176 265.755 175.951C265.635 175.901 265.504 175.888 265.377 175.914C265.25 175.939 265.134 176.001 265.043 176.092C264.951 176.184 264.889 176.3 264.864 176.427C264.839 176.554 264.852 176.685 264.901 176.805C264.95 176.924 265.034 177.026 265.142 177.098C265.249 177.17 265.375 177.208 265.505 177.208C265.678 177.208 265.844 177.139 265.967 177.017C266.089 176.894 266.158 176.728 266.158 176.555V176.555Z" fill="white"/>
<path d="M251.542 166.656L278.082 163.449C279.39 156.503 277.838 152.126 273.426 150.32C271.386 143.636 263.447 144.18 261.196 144.725C253.538 146.579 250.32 153.89 251.542 166.656Z" fill="url(#paint2_linear_7882_1510)"/>
<path d="M269.426 170.51V160.708C273.513 160.647 272.716 153.564 268.609 155.725C267.874 156.052 265.995 155.154 266.648 152.948C262.237 156.215 256.091 150.481 255.703 154.01C254.939 160.955 256.417 166.663 260.336 166.663C260.753 166.679 261.171 166.654 261.584 166.589V170.51C262.863 171.272 264.142 171.654 265.422 171.654C266.701 171.654 268.035 171.272 269.426 170.51Z" fill="#FFDBC9"/>
<path d="M261.584 166.589V167.896C264.034 167.896 265.94 166.725 267.302 164.384C265.668 165.473 263.762 166.208 261.584 166.589Z" fill="#FFBC9E"/>
<path d="M265.51 171.486C264.393 171.433 261.584 170.854 261.584 169.605V168.55C261.284 168.55 260.426 169.257 259.985 169.856C258.241 172.225 260.176 174.349 261.754 174.349C263.744 174.349 265.064 172.686 265.505 171.886C265.946 172.686 267.265 174.349 269.256 174.349C270.834 174.349 272.768 172.225 271.024 169.856C270.583 169.257 269.725 168.55 269.426 168.55V169.605C269.426 170.854 266.691 171.433 265.51 171.486Z" fill="white"/>
</g>
<g clip-path="url(#clip1_7882_1510)">
<path d="M108.861 75.8808C108.861 73.1194 111.099 70.8808 113.861 70.8808H152.867C155.629 70.8808 157.867 73.1194 157.867 75.8808V114.887C157.867 117.649 155.629 119.887 152.867 119.887H113.861C111.099 119.887 108.861 117.649 108.861 114.887V75.8808Z" fill="url(#paint3_linear_7882_1510)"/>
<path d="M145.207 96.936C146.532 92.5351 147.349 85.0111 141.777 79.8654C137.518 75.9328 126.013 75.5365 122.011 84.1126C121.343 85.5443 122.256 87.7881 124.053 87.7064C124.759 87.6738 125.196 89.9117 125.605 91.3003C125.033 96.936 119.939 97.0401 117.355 101.347C114.17 106.656 118.09 114.497 127.483 114.497C136.876 114.497 142.261 106.722 145.207 96.936Z" fill="url(#paint4_linear_7882_1510)"/>
<path d="M148.393 109.829C149.591 112.136 150.19 120.541 150.19 120.541H116.539C116.539 120.541 117.138 112.136 118.335 109.829C120.132 106.368 133.364 101.918 133.364 101.918C133.364 101.918 146.596 106.368 148.393 109.829Z" fill="url(#paint5_linear_7882_1510)"/>
<path d="M137.285 103.879C137.285 103.879 135.199 105.022 133.281 105.022C131.362 105.022 129.444 103.879 129.444 103.879V100.285C129.031 100.35 128.613 100.375 128.195 100.359C124.277 100.359 122.799 94.6508 123.563 87.7064C124.053 87.7064 125.196 87.7064 126.83 85.4194C126.422 88.6049 131.159 88.1148 132.956 85.5828C132.057 88.6049 134.426 90.6468 136.468 89.4216C140.472 87.0192 141.372 94.3429 137.285 94.404V103.879Z" fill="url(#paint6_linear_7882_1510)"/>
<g style="mix-blend-mode:multiply" opacity="0.782">
<path d="M129.444 100.285C131.47 99.9117 133.409 99.1638 135.161 98.0795C135.161 98.0795 133.119 101.592 129.444 101.592V100.285Z" fill="#FFD7B8"/>
</g>
<path d="M133.369 104.855C134.55 104.801 137.285 104.223 137.285 102.974V101.918C137.584 101.918 138.442 102.626 138.883 103.225C140.627 105.594 138.693 107.717 137.115 107.717C135.124 107.717 133.805 106.054 133.364 105.254C132.923 106.054 131.604 107.717 129.613 107.717C128.035 107.717 126.101 105.594 127.845 103.225C128.286 102.626 129.144 101.918 129.443 101.918V102.974C129.443 104.223 132.252 104.801 133.369 104.855Z" fill="white"/>
<path d="M132.711 115.967C132.711 115.838 132.749 115.711 132.821 115.604C132.893 115.496 132.995 115.413 133.114 115.363C133.233 115.314 133.365 115.301 133.492 115.326C133.618 115.351 133.735 115.414 133.826 115.505C133.918 115.596 133.98 115.713 134.005 115.839C134.03 115.966 134.017 116.098 133.968 116.217C133.918 116.336 133.835 116.438 133.727 116.51C133.62 116.582 133.493 116.62 133.364 116.62C133.191 116.62 133.025 116.552 132.902 116.429C132.78 116.306 132.711 116.14 132.711 115.967ZM132.711 112.7C132.711 112.571 132.749 112.444 132.821 112.337C132.893 112.229 132.995 112.146 133.114 112.096C133.233 112.047 133.365 112.034 133.492 112.059C133.618 112.084 133.735 112.146 133.826 112.238C133.918 112.329 133.98 112.446 134.005 112.572C134.03 112.699 134.017 112.83 133.968 112.95C133.918 113.069 133.835 113.171 133.727 113.243C133.62 113.315 133.493 113.353 133.364 113.353C133.191 113.353 133.025 113.284 132.902 113.162C132.78 113.039 132.711 112.873 132.711 112.7ZM132.711 109.433C132.711 109.303 132.749 109.177 132.821 109.07C132.893 108.962 132.995 108.878 133.114 108.829C133.233 108.78 133.365 108.767 133.492 108.792C133.618 108.817 133.735 108.879 133.826 108.971C133.918 109.062 133.98 109.178 134.005 109.305C134.03 109.432 134.017 109.563 133.968 109.683C133.918 109.802 133.835 109.904 133.727 109.976C133.62 110.048 133.493 110.086 133.364 110.086C133.191 110.086 133.025 110.017 132.902 109.895C132.78 109.772 132.711 109.606 132.711 109.433V109.433Z" fill="url(#paint7_linear_7882_1510)"/>
</g>
<g clip-path="url(#clip2_7882_1510)">
<path d="M175.02 75.8808C175.02 73.1194 177.259 70.8808 180.02 70.8808H219.027C221.788 70.8808 224.027 73.1194 224.027 75.8808V114.887C224.027 117.649 221.788 119.887 219.027 119.887H180.02C177.259 119.887 175.02 117.649 175.02 114.887V75.8808Z" fill="url(#paint8_linear_7882_1510)"/>
<path d="M204.587 99.3046V101.265C204.587 103.879 208.345 105.022 208.345 105.022C208.345 105.022 204.016 108.289 199.523 108.289C195.031 108.289 190.702 105.022 190.702 105.022C190.702 105.022 194.489 103.879 194.459 101.265C194.43 98.6512 194.45 97.1157 194.43 92.6378C192.089 89.6031 192.239 87.5664 193.519 86.1341C197.808 81.3355 209.488 82.9691 209.488 82.9691C209.488 82.9691 210.578 94.7295 208.099 98.1611C207.038 99.6313 204.587 99.3046 204.587 99.3046Z" fill="url(#paint9_linear_7882_1510)"/>
<path d="M204.587 99.3046C200.993 98.8962 198.87 97.3444 198.87 97.3444C200.211 99.3279 202.254 100.729 204.587 101.265V99.3046Z" fill="#DB6F3D"/>
<path d="M216.676 109.973C218.231 113.135 219.126 120.428 219.126 120.428H179.921C179.921 120.428 180.816 113.134 182.371 109.973C183.926 106.812 193.005 103.88 193.005 103.88C194.755 107.472 204.36 107.472 206.036 103.879C206.036 103.879 215.12 106.811 216.676 109.973Z" fill="url(#paint10_linear_7882_1510)"/>
<path d="M196.445 87.7405C195.925 87.2944 195.294 86.994 194.402 87.4576C192.287 88.5558 193.888 92.7704 195.766 92.7704C196.256 92.7704 196.5 94.3095 194.318 95.3841C194.318 93.6688 191.704 89.4216 191.476 85.5546C188.846 84.5753 189.499 80.6569 191.305 80.6569C191.016 77.0651 196.768 75.2097 198.996 77.2711C201.261 74.5563 206.978 75.9448 207.323 78.3C211.255 76.2014 213.839 82.234 210.158 84.5758C208.643 85.5396 205.1 85.9063 199.984 85.9063C199.212 85.9063 198.78 86.0981 198.996 87.0529C199.414 88.9031 198.443 90.0685 196.445 87.7405Z" fill="url(#paint11_linear_7882_1510)"/>
</g>
<g clip-path="url(#clip3_7882_1510)">
<path d="M42.7021 75.8808C42.7021 73.1194 44.9407 70.8808 47.7021 70.8808H86.7088C89.4702 70.8808 91.7088 73.1194 91.7088 75.8808V114.887C91.7088 117.649 89.4702 119.887 86.7088 119.887H47.7022C44.9407 119.887 42.7021 117.649 42.7021 114.887V75.8808Z" fill="url(#paint12_linear_7882_1510)"/>
<path d="M72.2695 99.3046V101.265C72.2695 103.879 76.0267 105.022 76.0267 105.022C76.0267 105.022 71.6977 108.289 67.2055 108.289C62.7132 108.289 58.3843 105.022 58.3843 105.022C58.3843 105.022 62.171 103.879 62.1415 101.265C62.1119 98.6512 62.1317 97.1157 62.1119 92.6378C59.7707 89.6031 59.921 87.5664 61.2012 86.1341C65.4902 81.3355 77.1701 82.9691 77.1701 82.9691C77.1701 82.9691 78.2601 94.7295 75.7816 98.1611C74.7198 99.6313 72.2695 99.3046 72.2695 99.3046Z" fill="url(#paint13_linear_7882_1510)"/>
<g style="mix-blend-mode:multiply">
<path d="M72.2694 99.3046C68.6756 98.8962 66.552 97.3444 66.552 97.3444C67.8927 99.3279 69.936 100.729 72.2694 101.265V99.3046Z" fill="#FFDBC9"/>
</g>
<path d="M84.3577 109.973C85.9129 113.135 86.8081 120.428 86.8081 120.428H47.6028C47.6028 120.428 48.4983 113.134 50.0531 109.973C51.6079 106.812 60.6876 103.88 60.6876 103.88C62.4376 107.472 72.0421 107.472 73.7186 103.879C73.7186 103.879 82.8026 106.811 84.3577 109.973Z" fill="url(#paint14_linear_7882_1510)"/>
<path d="M66.552 116.294C66.552 116.164 66.5903 116.038 66.6621 115.931C66.7339 115.823 66.836 115.739 66.9554 115.69C67.0748 115.64 67.2061 115.628 67.3329 115.653C67.4597 115.678 67.5761 115.74 67.6675 115.832C67.7588 115.923 67.8211 116.039 67.8463 116.166C67.8715 116.293 67.8586 116.424 67.8091 116.544C67.7596 116.663 67.6759 116.765 67.5684 116.837C67.461 116.909 67.3347 116.947 67.2054 116.947C67.0321 116.947 66.8659 116.878 66.7434 116.756C66.6208 116.633 66.552 116.467 66.552 116.294ZM66.552 113.026C66.552 112.897 66.5903 112.771 66.6621 112.663C66.7339 112.556 66.836 112.472 66.9554 112.423C67.0748 112.373 67.2061 112.36 67.3329 112.386C67.4597 112.411 67.5761 112.473 67.6675 112.564C67.7588 112.656 67.8211 112.772 67.8463 112.899C67.8715 113.026 67.8586 113.157 67.8091 113.277C67.7596 113.396 67.6759 113.498 67.5684 113.57C67.461 113.642 67.3347 113.68 67.2054 113.68C67.0321 113.68 66.8659 113.611 66.7434 113.489C66.6208 113.366 66.552 113.2 66.552 113.026ZM66.552 109.759C66.552 109.63 66.5903 109.504 66.6621 109.396C66.7339 109.289 66.836 109.205 66.9554 109.156C67.0748 109.106 67.2061 109.093 67.3329 109.119C67.4597 109.144 67.5761 109.206 67.6675 109.297C67.7588 109.389 67.8211 109.505 67.8463 109.632C67.8715 109.759 67.8586 109.89 67.8091 110.009C67.7596 110.129 67.6759 110.231 67.5684 110.303C67.461 110.374 67.3347 110.413 67.2054 110.413C67.0321 110.413 66.8659 110.344 66.7434 110.221C66.6208 110.099 66.552 109.933 66.552 109.759V109.759Z" fill="white"/>
<path d="M64.1271 87.7405C63.6076 87.2944 62.9764 86.994 62.0841 87.4576C59.9689 88.5558 61.5697 92.7704 63.4483 92.7704C63.9384 92.7704 64.1821 94.3095 62.0002 95.3841C62.0002 93.6688 59.3865 89.4216 59.1578 85.5546C56.5278 84.5753 57.1812 80.6569 58.9868 80.6569C58.6986 77.0651 64.4505 75.2097 66.6777 77.2711C68.9428 74.5563 74.6602 75.9448 75.0054 78.3C78.9369 76.2014 81.5211 82.234 77.8399 84.5758C76.3251 85.5396 72.7816 85.9063 67.6665 85.9063C66.8943 85.9063 66.4617 86.0981 66.6777 87.0529C67.0957 88.9031 66.1252 90.0685 64.1271 87.7405Z" fill="url(#paint15_linear_7882_1510)"/>
</g>
<path d="M28 38C28 32.4772 32.4772 28 38 28H293.662C299.185 28 303.662 32.4772 303.662 38V52.5033H28V38Z" fill="url(#paint16_linear_7882_1510)"/>
<path d="M189.722 64.1424H282.222" stroke="white"/>
<g filter="url(#filter1_d_7882_1510)">
<rect x="253" y="36" width="40" height="40" rx="10" fill="#175260"/>
</g>
<g filter="url(#filter2_d_7882_1510)">
<path d="M277.425 48.1239H269.322C267.541 48.1239 266.083 49.582 266.083 51.3629V63.1941C266.083 64.7042 267.166 65.3499 268.489 64.6105L272.582 62.3296C273.019 62.0901 273.727 62.0901 274.154 62.3296L278.247 64.6105C279.581 65.3395 280.664 64.7042 280.664 63.1941V51.3629C280.664 49.582 279.206 48.1239 277.425 48.1239Z" fill="white"/>
</g>
<g clip-path="url(#clip4_7882_1510)">
<path d="M175 143C175 140.239 177.239 138 180 138H219.007C221.768 138 224.007 140.239 224.007 143V182.007C224.007 184.768 221.768 187.007 219.007 187.007H180C177.239 187.007 175 184.768 175 182.007V143Z" fill="url(#paint17_linear_7882_1510)"/>
<path d="M204.567 166.424V168.384C204.567 170.998 208.325 172.141 208.325 172.141C208.325 172.141 203.996 175.408 199.503 175.408C195.011 175.408 190.682 172.141 190.682 172.141C190.682 172.141 194.469 170.998 194.439 168.384C194.41 165.77 194.43 164.235 194.41 159.757C192.069 156.722 192.219 154.686 193.499 153.253C197.788 148.455 209.468 150.088 209.468 150.088C209.468 150.088 210.558 161.849 208.079 165.28C207.018 166.751 204.567 166.424 204.567 166.424Z" fill="url(#paint18_linear_7882_1510)"/>
<path d="M204.567 166.424C200.973 166.015 198.85 164.464 198.85 164.464C200.191 166.447 202.234 167.848 204.567 168.384V166.424Z" fill="#DB6F3D"/>
<path d="M216.656 177.092C218.211 180.254 219.106 187.547 219.106 187.547H179.901C179.901 187.547 180.796 180.253 182.351 177.092C183.906 173.931 192.985 170.999 192.985 170.999C194.735 174.592 204.34 174.592 206.016 170.998C206.016 170.998 215.1 173.93 216.656 177.092Z" fill="url(#paint19_linear_7882_1510)"/>
<path d="M196.425 154.86C195.905 154.414 195.274 154.113 194.382 154.577C192.267 155.675 193.868 159.89 195.746 159.89C196.236 159.89 196.48 161.429 194.298 162.503C194.298 160.788 191.684 156.541 191.456 152.674C188.826 151.695 189.479 147.776 191.285 147.776C190.996 144.184 196.748 142.329 198.976 144.39C201.241 141.675 206.958 143.064 207.303 145.419C211.235 143.321 213.819 149.353 210.138 151.695C208.623 152.659 205.079 153.026 199.964 153.026C199.192 153.026 198.76 153.217 198.976 154.172C199.394 156.022 198.423 157.188 196.425 154.86Z" fill="url(#paint20_linear_7882_1510)"/>
</g>
<g clip-path="url(#clip5_7882_1510)">
<path d="M109 143C109 140.239 111.239 138 114 138H153.007C155.768 138 158.007 140.239 158.007 143V182.007C158.007 184.768 155.768 187.007 153.007 187.007H114C111.239 187.007 109 184.768 109 182.007V143Z" fill="url(#paint21_linear_7882_1510)"/>
<path d="M148.532 176.389C149.73 178.676 150.329 187.007 150.329 187.007H116.678C116.678 187.007 117.277 178.676 118.475 176.389C120.272 172.958 133.503 168.547 133.503 168.547C133.503 168.547 146.735 172.958 148.532 176.389Z" fill="url(#paint22_linear_7882_1510)"/>
<path d="M132.85 183.086C132.85 182.957 132.888 182.83 132.96 182.723C133.032 182.616 133.134 182.532 133.253 182.482C133.373 182.433 133.504 182.42 133.631 182.445C133.758 182.47 133.874 182.533 133.965 182.624C134.057 182.715 134.119 182.832 134.144 182.959C134.169 183.085 134.156 183.217 134.107 183.336C134.058 183.456 133.974 183.558 133.866 183.629C133.759 183.701 133.633 183.739 133.503 183.739C133.33 183.739 133.164 183.671 133.041 183.548C132.919 183.426 132.85 183.259 132.85 183.086ZM132.85 179.819C132.85 179.69 132.888 179.563 132.96 179.456C133.032 179.348 133.134 179.265 133.253 179.215C133.373 179.166 133.504 179.153 133.631 179.178C133.758 179.203 133.874 179.266 133.965 179.357C134.057 179.448 134.119 179.565 134.144 179.691C134.169 179.818 134.156 179.95 134.107 180.069C134.058 180.188 133.974 180.29 133.866 180.362C133.759 180.434 133.633 180.472 133.503 180.472C133.33 180.472 133.164 180.404 133.041 180.281C132.919 180.158 132.85 179.992 132.85 179.819ZM132.85 176.552C132.85 176.423 132.888 176.296 132.96 176.189C133.032 176.081 133.134 175.998 133.253 175.948C133.373 175.899 133.504 175.886 133.631 175.911C133.758 175.936 133.874 175.998 133.965 176.09C134.057 176.181 134.119 176.298 134.144 176.424C134.169 176.551 134.156 176.683 134.107 176.802C134.058 176.921 133.974 177.023 133.866 177.095C133.759 177.167 133.633 177.205 133.503 177.205C133.33 177.205 133.164 177.136 133.041 177.014C132.919 176.891 132.85 176.725 132.85 176.552V176.552Z" fill="white"/>
<path d="M147.466 166.654L120.927 163.447C119.619 156.502 121.171 152.125 125.583 150.319C127.623 143.636 135.561 144.179 137.811 144.724C145.469 146.578 148.687 153.888 147.466 166.654Z" fill="url(#paint23_linear_7882_1510)"/>
<path d="M129.583 170.508V160.706C125.495 160.645 126.293 153.563 130.4 155.724C131.135 156.051 133.013 155.152 132.36 152.947C136.77 156.214 142.916 150.48 143.305 154.009C144.068 160.953 142.591 166.661 138.672 166.661C138.255 166.677 137.837 166.652 137.424 166.587V170.508C136.145 171.27 134.866 171.651 133.587 171.651C132.308 171.651 130.973 171.27 129.583 170.508Z" fill="#FFDBC9"/>
<path d="M137.424 166.587V167.894C134.974 167.894 133.068 166.723 131.707 164.382C133.34 165.471 135.246 166.206 137.424 166.587Z" fill="#FFBC9E"/>
<path d="M133.498 171.484C134.615 171.43 137.424 170.852 137.424 169.603V168.547C137.723 168.547 138.581 169.255 139.022 169.854C140.766 172.223 138.832 174.347 137.254 174.347C135.264 174.347 133.944 172.683 133.503 171.883C133.062 172.684 131.743 174.347 129.752 174.347C128.175 174.347 126.24 172.223 127.984 169.854C128.425 169.255 129.283 168.547 129.583 168.547V169.603C129.583 170.852 132.317 171.43 133.498 171.484Z" fill="white"/>
</g>
<defs>
<filter id="filter0_d_7882_1510" x="0" y="0" width="331.662" height="241" filterUnits="userSpaceOnUse" color-interpolation-filters="sRGB">
<feFlood flood-opacity="0" result="BackgroundImageFix"/>
<feColorMatrix in="SourceAlpha" type="matrix" values="0 0 0 0 0 0 0 0 0 0 0 0 0 0 0 0 0 0 127 0" result="hardAlpha"/>
<feMorphology radius="4" operator="dilate" in="SourceAlpha" result="effect1_dropShadow_7882_1510"/>
<feOffset/>
<feGaussianBlur stdDeviation="12"/>
<feComposite in2="hardAlpha" operator="out"/>
<feColorMatrix type="matrix" values="0 0 0 0 0.282353 0 0 0 0 0.290196 0 0 0 0 0.619608 0 0 0 0.06 0"/>
<feBlend mode="normal" in2="BackgroundImageFix" result="effect1_dropShadow_7882_1510"/>
<feBlend mode="normal" in="SourceGraphic" in2="effect1_dropShadow_7882_1510" result="shape"/>
</filter>
<filter id="filter1_d_7882_1510" x="225" y="20" width="96" height="96" filterUnits="userSpaceOnUse" color-interpolation-filters="sRGB">
<feFlood flood-opacity="0" result="BackgroundImageFix"/>
<feColorMatrix in="SourceAlpha" type="matrix" values="0 0 0 0 0 0 0 0 0 0 0 0 0 0 0 0 0 0 127 0" result="hardAlpha"/>
<feMorphology radius="4" operator="dilate" in="SourceAlpha" result="effect1_dropShadow_7882_1510"/>
<feOffset dy="12"/>
<feGaussianBlur stdDeviation="12"/>
<feComposite in2="hardAlpha" operator="out"/>
<feColorMatrix type="matrix" values="0 0 0 0 0.439216 0 0 0 0 0.694118 0 0 0 0 0.501961 0 0 0 0.15 0"/>
<feBlend mode="normal" in2="BackgroundImageFix" result="effect1_dropShadow_7882_1510"/>
<feBlend mode="normal" in="SourceGraphic" in2="effect1_dropShadow_7882_1510" result="shape"/>
</filter>
<filter id="filter2_d_7882_1510" x="241.083" y="27.1239" width="64.5806" height="66.7933" filterUnits="userSpaceOnUse" color-interpolation-filters="sRGB">
<feFlood flood-opacity="0" result="BackgroundImageFix"/>
<feColorMatrix in="SourceAlpha" type="matrix" values="0 0 0 0 0 0 0 0 0 0 0 0 0 0 0 0 0 0 127 0" result="hardAlpha"/>
<feOffset dy="4"/>
<feGaussianBlur stdDeviation="12.5"/>
<feComposite in2="hardAlpha" operator="out"/>
<feColorMatrix type="matrix" values="0 0 0 0 0 0 0 0 0 0 0 0 0 0 0 0 0 0 0.1 0"/>
<feBlend mode="normal" in2="BackgroundImageFix" result="effect1_dropShadow_7882_1510"/>
<feBlend mode="normal" in="SourceGraphic" in2="effect1_dropShadow_7882_1510" result="shape"/>
</filter>
<linearGradient id="paint0_linear_7882_1510" x1="265.505" y1="138" x2="265.505" y2="187.01" gradientUnits="userSpaceOnUse">
<stop stop-color="#EAEAEA"/>
<stop offset="1" stop-color="#ECECEC"/>
</linearGradient>
<linearGradient id="paint1_linear_7882_1510" x1="282.332" y1="177.78" x2="248.678" y2="177.78" gradientUnits="userSpaceOnUse">
<stop stop-color="#606C88"/>
<stop offset="1" stop-color="#3F4C6B"/>
</linearGradient>
<linearGradient id="paint2_linear_7882_1510" x1="264.91" y1="166.656" x2="264.91" y2="144.426" gradientUnits="userSpaceOnUse">
<stop/>
<stop offset="1"/>
</linearGradient>
<linearGradient id="paint3_linear_7882_1510" x1="133.364" y1="70.8808" x2="133.364" y2="119.887" gradientUnits="userSpaceOnUse">
<stop stop-color="#EAEAEA"/>
<stop offset="1" stop-color="#ECECEC"/>
</linearGradient>
<linearGradient id="paint4_linear_7882_1510" x1="131.221" y1="114.497" x2="131.221" y2="77.1844" gradientUnits="userSpaceOnUse">
<stop/>
<stop offset="1"/>
</linearGradient>
<linearGradient id="paint5_linear_7882_1510" x1="116.539" y1="111.23" x2="150.19" y2="111.23" gradientUnits="userSpaceOnUse">
<stop stop-color="#606C88"/>
<stop offset="1" stop-color="#3F4C6B"/>
</linearGradient>
<linearGradient id="paint6_linear_7882_1510" x1="131.657" y1="85.4194" x2="131.657" y2="105.022" gradientUnits="userSpaceOnUse">
<stop stop-color="#FFE0CC"/>
<stop offset="1" stop-color="#FFEADB"/>
</linearGradient>
<linearGradient id="paint7_linear_7882_1510" x1="133.364" y1="108.779" x2="133.364" y2="116.62" gradientUnits="userSpaceOnUse">
<stop stop-color="#130027"/>
<stop offset="1" stop-color="#130017"/>
</linearGradient>
<linearGradient id="paint8_linear_7882_1510" x1="199.523" y1="70.8808" x2="199.523" y2="119.887" gradientUnits="userSpaceOnUse">
<stop stop-color="#EAEAEA"/>
<stop offset="1" stop-color="#ECECEC"/>
</linearGradient>
<linearGradient id="paint9_linear_7882_1510" x1="200.214" y1="82.701" x2="200.214" y2="108.289" gradientUnits="userSpaceOnUse">
<stop stop-color="#FFD4B3"/>
<stop offset="1" stop-color="#FFDCC2"/>
</linearGradient>
<linearGradient id="paint10_linear_7882_1510" x1="179.921" y1="112.153" x2="219.126" y2="112.153" gradientUnits="userSpaceOnUse">
<stop stop-color="#606C88"/>
<stop offset="1" stop-color="#3F4C6B"/>
</linearGradient>
<linearGradient id="paint11_linear_7882_1510" x1="200.828" y1="95.3841" x2="200.828" y2="75.781" gradientUnits="userSpaceOnUse">
<stop/>
<stop offset="1"/>
</linearGradient>
<linearGradient id="paint12_linear_7882_1510" x1="67.2055" y1="70.8808" x2="67.2055" y2="119.887" gradientUnits="userSpaceOnUse">
<stop stop-color="#EAEAEA"/>
<stop offset="1" stop-color="#ECECEC"/>
</linearGradient>
<linearGradient id="paint13_linear_7882_1510" x1="67.8965" y1="82.701" x2="67.8965" y2="108.289" gradientUnits="userSpaceOnUse">
<stop stop-color="#FFD4B3"/>
<stop offset="1" stop-color="#FFDCC2"/>
</linearGradient>
<linearGradient id="paint14_linear_7882_1510" x1="47.6028" y1="112.153" x2="86.8081" y2="112.153" gradientUnits="userSpaceOnUse">
<stop stop-color="#606C88"/>
<stop offset="1" stop-color="#3F4C6B"/>
</linearGradient>
<linearGradient id="paint15_linear_7882_1510" x1="68.5096" y1="95.3841" x2="68.5096" y2="75.781" gradientUnits="userSpaceOnUse">
<stop/>
<stop offset="1"/>
</linearGradient>
<linearGradient id="paint16_linear_7882_1510" x1="28" y1="40.2517" x2="303.662" y2="40.2517" gradientUnits="userSpaceOnUse">
<stop stop-color="#134E5E"/>
<stop offset="1" stop-color="#71B280"/>
</linearGradient>
<linearGradient id="paint17_linear_7882_1510" x1="199.503" y1="138" x2="199.503" y2="187.007" gradientUnits="userSpaceOnUse">
<stop stop-color="#EAEAEA"/>
<stop offset="1" stop-color="#ECECEC"/>
</linearGradient>
<linearGradient id="paint18_linear_7882_1510" x1="200.194" y1="149.82" x2="200.194" y2="175.408" gradientUnits="userSpaceOnUse">
<stop stop-color="#FFD4B3"/>
<stop offset="1" stop-color="#FFDCC2"/>
</linearGradient>
<linearGradient id="paint19_linear_7882_1510" x1="179.901" y1="179.272" x2="219.106" y2="179.272" gradientUnits="userSpaceOnUse">
<stop stop-color="#606C88"/>
<stop offset="1" stop-color="#3F4C6B"/>
</linearGradient>
<linearGradient id="paint20_linear_7882_1510" x1="200.807" y1="162.503" x2="200.807" y2="142.9" gradientUnits="userSpaceOnUse">
<stop/>
<stop offset="1"/>
</linearGradient>
<linearGradient id="paint21_linear_7882_1510" x1="133.503" y1="138" x2="133.503" y2="187.007" gradientUnits="userSpaceOnUse">
<stop stop-color="#EAEAEA"/>
<stop offset="1" stop-color="#ECECEC"/>
</linearGradient>
<linearGradient id="paint22_linear_7882_1510" x1="116.678" y1="177.777" x2="150.329" y2="177.777" gradientUnits="userSpaceOnUse">
<stop stop-color="#606C88"/>
<stop offset="1" stop-color="#3F4C6B"/>
</linearGradient>
<linearGradient id="paint23_linear_7882_1510" x1="134.098" y1="166.654" x2="134.098" y2="144.425" gradientUnits="userSpaceOnUse">
<stop/>
<stop offset="1"/>
</linearGradient>
<clipPath id="clip0_7882_1510">
<path d="M290.01 143C290.01 140.239 287.771 138 285.01 138H246C243.238 138 241 140.239 241 143V182.01C241 184.771 243.238 187.01 246 187.01H285.01C287.771 187.01 290.01 184.771 290.01 182.01V143Z" fill="white"/>
</clipPath>
<clipPath id="clip1_7882_1510">
<path d="M108.861 75.8808C108.861 73.1194 111.099 70.8808 113.861 70.8808H152.867C155.629 70.8808 157.867 73.1194 157.867 75.8808V114.887C157.867 117.649 155.629 119.887 152.867 119.887H113.861C111.099 119.887 108.861 117.649 108.861 114.887V75.8808Z" fill="white"/>
</clipPath>
<clipPath id="clip2_7882_1510">
<path d="M175.02 75.8808C175.02 73.1194 177.259 70.8808 180.02 70.8808H219.027C221.788 70.8808 224.027 73.1194 224.027 75.8808V114.887C224.027 117.649 221.788 119.887 219.027 119.887H180.02C177.259 119.887 175.02 117.649 175.02 114.887V75.8808Z" fill="white"/>
</clipPath>
<clipPath id="clip3_7882_1510">
<path d="M42.7021 75.8808C42.7021 73.1194 44.9407 70.8808 47.7021 70.8808H86.7088C89.4702 70.8808 91.7088 73.1194 91.7088 75.8808V114.887C91.7088 117.649 89.4702 119.887 86.7088 119.887H47.7022C44.9407 119.887 42.7021 117.649 42.7021 114.887V75.8808Z" fill="white"/>
</clipPath>
<clipPath id="clip4_7882_1510">
<path d="M175 143C175 140.239 177.239 138 180 138H219.007C221.768 138 224.007 140.239 224.007 143V182.007C224.007 184.768 221.768 187.007 219.007 187.007H180C177.239 187.007 175 184.768 175 182.007V143Z" fill="white"/>
</clipPath>
<clipPath id="clip5_7882_1510">
<path d="M109 143C109 140.239 111.239 138 114 138H153.007C155.768 138 158.007 140.239 158.007 143V182.007C158.007 184.768 155.768 187.007 153.007 187.007H114C111.239 187.007 109 184.768 109 182.007V143Z" fill="white"/>
</clipPath>
</defs>
</svg>
