<svg width="275" height="247" viewBox="0 0 275 247" fill="none" xmlns="http://www.w3.org/2000/svg">
<g clip-path="url(#clip0_388_2472)">
<path d="M160.192 0H26.2606C23.1657 0 20.6567 2.50892 20.6567 5.60383V103.391C20.6567 106.486 23.1657 108.995 26.2606 108.995H160.192C163.287 108.995 165.796 106.486 165.796 103.391V5.60383C165.796 2.50892 163.287 0 160.192 0Z" fill="#F2F6FB"/>
<path d="M29.3427 23.538C29.3427 22.918 29.8424 22.4153 30.4631 22.4153H123.215C123.834 22.4153 124.336 22.9171 124.336 23.538V63.6736C124.336 64.2937 123.836 64.7963 123.215 64.7963H30.4631C29.8443 64.7963 29.3427 64.2946 29.3427 63.6736V23.538ZM64.479 84.7704H138.096C139.242 84.7704 140.17 85.6989 140.17 86.8442V87.9633C140.17 89.1086 139.242 90.0371 138.096 90.0371H64.479C63.3337 90.0371 62.4053 89.1086 62.4053 87.9633V86.8442C62.4053 85.6989 63.3337 84.7704 64.479 84.7704ZM64.479 93.3287H151.277C152.422 93.3287 153.351 94.2572 153.351 95.4025V96.5216C153.351 97.6669 152.422 98.5954 151.277 98.5954H64.479C63.3337 98.5954 62.4053 97.6669 62.4053 96.5216V95.4025C62.4053 94.2572 63.3337 93.3287 64.479 93.3287ZM64.479 76.2121H119.644C120.789 76.2121 121.718 77.1406 121.718 78.2859V79.405C121.718 80.5503 120.789 81.4788 119.644 81.4788H64.479C63.3337 81.4788 62.4053 80.5503 62.4053 79.405V78.2859C62.4053 77.1406 63.3337 76.2121 64.479 76.2121ZM20.6567 5.60506C20.6567 2.50947 23.1654 0 26.2627 0H160.47C163.566 0 166.076 2.5097 166.076 5.60506V12.3284H20.6567V5.60506Z" fill="#E1E5F0"/>
<path d="M135.563 55.5256H152.694C153.655 55.5256 154.487 55.7207 155.172 56.087C155.856 56.4533 156.394 56.9908 156.76 57.6757C157.127 58.3606 157.322 59.192 157.322 60.1535V60.1686C157.322 61.1301 157.127 61.9615 156.76 62.6464C156.394 63.3313 155.856 63.8688 155.172 64.2351C154.487 64.6014 153.655 64.7965 152.694 64.7965H135.563C134.601 64.7965 133.77 64.6014 133.085 64.2351C132.4 63.8688 131.862 63.3313 131.496 62.6464C131.13 61.9615 130.935 61.1301 130.935 60.1686V60.1535C130.935 59.192 131.13 58.3606 131.496 57.6757C131.862 56.9908 132.4 56.4533 133.085 56.087C133.77 55.7207 134.601 55.5256 135.563 55.5256Z" fill="#FF856A"/>
</g>
<path d="M151.88 22.4153H138.8C135.926 22.4153 133.572 24.775 133.572 27.6573V46.805C133.572 49.2491 135.32 50.2941 137.455 49.0974L144.062 45.406C144.768 45.0184 145.912 45.0184 146.601 45.406L153.208 49.0974C155.36 50.2772 157.108 49.2491 157.108 46.805V27.6573C157.108 24.775 154.755 22.4153 151.88 22.4153Z" fill="#E1E5F0"/>
<g clip-path="url(#clip1_388_2472)">
<path d="M261.859 183.374V183.426C261.859 184.087 261.275 184.639 260.607 184.639H239.602L247.003 198.095C252.289 207.69 257.547 217.258 262.805 226.854L271.513 242.681C271.819 243.233 271.569 243.949 270.984 244.28L270.873 244.335C270.289 244.666 269.538 244.473 269.26 243.949L236.681 184.639H214.981L182.403 243.949C182.125 244.473 181.373 244.639 180.789 244.335L180.678 244.28C180.094 243.949 179.843 243.233 180.149 242.681L188.857 226.854C194.143 217.258 199.401 207.69 204.659 198.095L212.06 184.639H184.211C183.516 184.639 182.959 184.087 182.959 183.426V183.288C182.959 182.626 183.543 182.075 184.211 182.075H203.129C215.454 182.075 227.806 182.075 240.159 182.075H259.403L261.748 163.269C263.361 150.475 264.947 137.654 266.561 124.832L269.204 103.656C269.287 102.911 269.927 102.36 270.623 102.442L270.762 102.47C271.43 102.553 271.903 103.242 271.819 103.931L261.887 183.233C261.88 183.281 261.87 183.328 261.859 183.374Z" fill="#D8DEED"/>
<path d="M261.859 183.374V183.426C261.859 184.087 261.275 184.639 260.607 184.639H239.602L247.003 198.095C252.289 207.69 257.547 217.258 262.805 226.854L271.513 242.681C271.819 243.233 271.568 243.949 270.984 244.28L270.873 244.335C270.289 244.666 269.537 244.473 269.259 243.949L236.681 184.639H214.981L182.402 243.949C182.124 244.473 181.373 244.639 180.789 244.335L180.678 244.28C180.093 243.949 179.843 243.233 180.149 242.681L188.857 226.854C194.143 217.258 199.401 207.69 204.659 198.095L212.06 184.639H184.211C183.515 184.639 182.959 184.087 182.959 183.426V183.288C182.959 182.626 183.543 182.075 184.211 182.075H203.129C215.454 182.075 227.806 182.075 240.159 182.075H259.403L261.748 163.269C263.361 150.475 264.947 137.654 266.561 124.832L269.204 103.656C269.287 102.911 269.927 102.36 270.622 102.442L270.762 102.47C271.429 102.553 271.902 103.242 271.819 103.931L261.887 183.233C261.88 183.281 261.87 183.328 261.859 183.374Z" fill="#D8DEED"/>
</g>
<g clip-path="url(#clip2_388_2472)">
<path d="M212.257 244.288L197.114 244.288C196.418 244.288 195.853 244.852 195.853 245.548C195.853 246.245 196.418 246.809 197.114 246.809L212.805 246.809C213.091 246.809 213.355 246.714 213.567 246.553L213.571 246.554L241.454 225.659C241.966 225.276 242.091 224.521 241.679 224.038L241.597 223.896C241.351 223.583 240.961 223.408 240.569 223.43C240.344 223.426 240.147 223.506 239.948 223.643L212.257 244.288ZM139.675 244.288C138.978 244.288 138.414 244.852 138.414 245.548C138.414 246.245 138.978 246.809 139.675 246.809L184.505 246.809C185.202 246.809 185.766 246.245 185.766 245.548C185.766 244.852 185.202 244.288 184.505 244.288L139.675 244.288Z" fill="#3ABF7C"/>
<path d="M139.277 244.525C139.408 244.479 139.55 244.453 139.698 244.453L184.529 244.453C184.652 244.453 184.771 244.471 184.883 244.504L185.216 226.845L164.145 226.845C161.556 228.537 159.872 229.759 159.093 230.512C157.924 231.64 156.673 232.683 155.312 233.584C152.024 235.741 150.315 235.711 145.314 238.062C143.958 238.683 142.656 239.388 141.381 240.179C140.106 240.969 139.671 241.858 139.311 243.197C139.251 243.42 139.247 243.645 139.216 243.84C139.21 244.141 139.233 244.359 139.277 244.525ZM240.548 223.596L230.453 209.241L213.364 221.75L212.831 223.422C210.75 230.261 209.622 233.865 209.447 234.236C209.237 234.669 209.021 235.07 208.794 235.46C207.26 236.053 205.519 236.629 202.854 237.904C201.498 238.525 200.196 239.231 198.922 240.021C197.647 240.812 197.211 241.701 196.851 243.04C196.791 243.263 196.787 243.487 196.756 243.682C196.751 243.969 196.794 244.237 196.867 244.482C196.954 244.463 197.044 244.453 197.137 244.453L212.28 244.453L239.971 223.809C240.157 223.681 240.341 223.602 240.548 223.596Z" fill="#474961"/>
<path d="M185.414 203.404C190.85 205.659 197.639 204.082 205.782 198.672C220.248 189.061 218.893 185.507 217.632 183.686C217.632 183.658 217.407 183.325 217.407 183.297C217.855 183.297 217.344 182.933 220.538 182.905C223.732 182.876 240.936 182.512 247.521 173.014C250.147 169.225 250.351 165.028 250.547 163.151C251.275 155.847 248.482 148.944 242.167 142.441C196.441 142.481 173.541 142.482 173.466 142.445C173.354 142.389 164.614 142.161 158.963 146.127C153.543 149.931 148.717 157.995 154.301 172.063L155.119 191.538C155.396 198.131 160.51 203.502 167.082 204.1C170.013 204.367 173.228 204.501 176.727 204.501C178.628 204.501 181.263 204.193 184.631 203.577C184.896 203.529 185.157 203.471 185.414 203.404V203.404Z" fill="#FFCB3D"/>
<path opacity="0.176986" d="M185.567 203.322C184.526 202.901 183.534 202.34 182.591 201.64C165.381 185.54 156.224 176.251 155.121 173.772C154.834 173.128 154.568 172.495 154.323 171.875L155.147 191.491C155.424 198.084 160.538 203.454 167.11 204.053C170.041 204.32 173.256 204.453 176.755 204.453C178.656 204.453 181.291 204.145 184.659 203.53C184.967 203.473 185.27 203.404 185.567 203.322H185.567Z" fill="#444444"/>
<path d="M204.698 164.607C206.081 166.698 207.537 168.73 211.072 173.566C214.619 178.418 216.079 180.456 217.475 182.567C217.646 182.826 217.575 183.173 217.317 183.344C217.059 183.515 216.711 183.444 216.54 183.185C215.158 181.094 213.702 179.063 210.167 174.227C206.62 169.375 205.16 167.337 203.764 165.225C203.593 164.967 203.664 164.619 203.922 164.449C204.18 164.278 204.528 164.349 204.698 164.607Z" fill="#482D1F"/>
<path d="M242.009 104.085C241.661 103.182 241.174 102.227 240.549 101.22C237.492 95.5287 235.209 93.3708 232.346 92.423C229.527 91.4895 226.334 91.0227 222.769 91.0227C214.617 91.0227 208.896 98.5758 209.16 107.117L212.152 142.828C225.28 143.71 235.898 143.534 244.006 142.298C252.114 141.062 255.319 138.692 253.62 135.188L245.603 112.037C244.271 108.924 243.089 106.3 242.009 104.085L242.009 104.085Z" fill="#3ABF7C"/>
<path d="M216.158 190.362C214.317 192.442 211.144 195.11 205.865 198.574C202.617 200.706 199.584 202.236 196.766 203.163L213.334 221.766L230.453 209.241L216.158 190.362ZM185.818 203.382C185.706 203.34 185.594 203.296 185.483 203.25C185.225 203.317 184.962 203.375 184.696 203.423C181.328 204.031 178.693 204.335 176.791 204.335C173.29 204.335 170.074 204.203 167.141 203.939C165.542 203.795 164.028 203.369 162.65 202.711L164.145 226.845H185.216L185.818 203.382ZM227.808 80.8003C228.804 80.0231 229.507 78.7005 229.304 77.1952C229.122 75.744 228.185 74.1219 226.906 73.6876C225.606 73.2456 223.819 74.1747 223.943 73.5131L225.42 66.4926C225.494 66.0494 225.221 65.6126 224.784 65.5117C223.795 65.3121 222.822 65.289 221.842 64.8037C221.732 64.7785 221.63 64.726 221.52 64.7008C220.617 64.3773 215.588 62.4972 211.906 65.6155C211.591 65.8591 211.284 66.1909 210.971 66.55C210.232 67.3858 209.761 68.4274 209.564 69.5321L208.654 74.4694C208.595 74.9734 208.509 75.4711 208.505 75.9877C208.313 82.2986 210.024 87.0933 212.28 87.7866C212.546 87.8769 214.014 88.2446 215.841 88.1776C216.018 88.1608 215.862 88.2112 218.37 87.8124C218.838 87.7455 219.261 87.6802 219.642 87.6171L219.808 91.4863C220.705 91.2849 221.647 91.1658 222.631 91.1376C224.519 91.1376 226.309 91.2599 228.001 91.5045L227.808 80.8003ZM210.993 128.434C211.119 128.518 211.244 128.602 211.37 128.685C214.655 130.867 216.256 131.514 217.641 131.603C223.579 131.992 226.316 126.937 230.972 120.53C232.468 118.472 233.736 116.673 234.778 115.135C234.773 115.135 234.769 115.136 234.764 115.136C231.778 114.553 228.758 112.364 225.704 108.569C224.167 106.659 222.964 104.727 222.098 102.772C218.408 108.544 216.455 111.562 216.24 111.827C210.971 109.287 190.535 97.2821 180.984 90.3786C180.485 89.8232 176.292 86.1446 168.405 79.3427C166.205 81.8465 170.37 86.2255 172.286 88.0251C172.745 88.7735 169.864 92.6741 170.322 93.4226C170.03 95.9971 179.686 103.326 182.744 106.065C183.685 106.902 184.243 107.413 185.576 108.515C192.825 114.619 199.031 119.996 206.671 125.448L204.78 130.354L185.325 132.364C180.012 131.348 176.268 130.934 174.091 131.121C170.369 131.442 160.989 134.826 164.053 137.005C166.095 138.457 170.564 140.297 177.46 142.525C198.192 142.923 209.757 143.037 212.153 142.866L210.993 128.434V128.434Z" fill="#F5BCA3"/>
<path d="M221.596 76.9781L221.967 76.2942C221.967 76.2942 222.48 75.4609 223.493 74.896C223.584 74.8522 224.226 74.5179 224.983 74.5677C226.33 74.6438 227.569 75.8932 227.878 77.323C228.234 78.816 227.583 80.2242 226.614 81.0783C226.007 81.6138 225.33 81.8504 224.818 81.9604C225.624 82.8621 226.614 83.9325 227.789 85.1714L227.873 90.0138C230.717 90.5099 232.99 89.9871 234.693 88.4454C237.456 85.9442 236.315 83.009 234.842 81.5679C234.505 81.2387 233.921 80.7136 233.2 80.1119C233.736 79.3884 234.248 78.5155 234.646 77.4799C234.995 76.4676 236.272 73.0529 234.617 69.8816C234.046 68.7433 233.252 68.0712 232.914 67.7918C231.051 66.269 229.315 66.4432 225.184 65.4032C224.316 65.1743 223.04 64.8507 221.549 64.3339C221.433 64.336 221.33 64.2835 221.221 64.2583C220.318 63.9348 215.379 62.5357 211.892 65.5553C211.879 65.6099 211.348 65.9186 211.356 66.0068C211.356 66.0068 212.056 70.6427 220.293 71.7104C220.293 71.7104 220.884 74.7098 221.596 76.9781ZM208.457 72.4861C208.96 72.679 209.82 72.9477 210.645 72.8367C211.933 72.7094 210.839 71.7894 209.704 71.6054C209.15 71.5163 208.681 71.703 208.387 71.8698C208.155 72.0209 208.195 72.3731 208.457 72.4861ZM213.431 73.6641C213.962 73.8628 214.821 74.1315 215.675 74.0263C216.956 73.9264 215.869 72.9791 214.733 72.795C214.152 72.7001 213.682 72.8868 213.389 73.0536C213.129 73.1989 213.169 73.551 213.431 73.6641Z" fill="#DE6903"/>
<path d="M219.701 89.9183L222.864 86.7826L219.586 87.4934L219.701 89.9183Z" fill="#482D1F"/>
<path d="M210.092 75.0819C210.131 74.7432 209.931 74.4236 209.608 74.3309C209.393 74.2691 209.173 74.3228 208.984 74.6767C208.548 75.4845 209.028 76.9629 209.517 76.5785C209.879 76.3325 210.015 75.5552 210.092 75.0819ZM214.623 76.1618C214.662 75.8232 214.462 75.5036 214.139 75.4109C213.924 75.3491 213.704 75.4028 213.515 75.7567C213.08 76.5645 213.559 78.0429 214.048 77.6584C214.411 77.4125 214.573 76.6429 214.623 76.1618Z" fill="#482D1F"/>
<path d="M211.955 81.8741C212.158 81.8601 212.659 81.7947 212.806 81.5107C212.817 81.4559 212.862 81.3795 212.846 81.3189C212.772 81.1311 212.398 81.1376 211.893 81.0876C210.998 80.9834 210.303 80.7497 210.303 80.7497C210.303 80.7497 210.406 81.3444 210.514 81.5106C210.695 82.0073 211.636 81.8923 211.955 81.8741Z" fill="#482D1F"/>
<path d="M210.706 76.2674L210.716 76.2279L210.709 76.2473L210.706 76.2674ZM209.763 79.0906L209.755 79.1207C209.692 79.4198 209.837 79.7411 210.125 79.8543C210.179 79.8712 210.209 79.8799 210.239 79.8884C210.525 79.9689 210.732 80.0159 211.479 80.1746C211.63 80.2068 211.779 80.1102 211.811 79.9588C211.843 79.8075 211.747 79.6587 211.595 79.6265C210.862 79.4706 210.66 79.4248 210.391 79.349C210.363 79.3411 210.335 79.333 210.307 79.3247C210.313 79.3261 210.297 79.2894 210.301 79.2482L211.247 76.4048L211.257 76.3653L211.546 74.7366C211.573 74.5843 211.472 74.4388 211.319 74.4118C211.167 74.3848 211.021 74.4864 210.994 74.6388L210.709 76.2473L209.763 79.0906Z" fill="#482D1F"/>
<path opacity="0.2" d="M210.937 128.146C209.467 127.172 208.057 126.206 206.692 125.242L204.779 130.239L185.324 132.249C180.013 131.235 176.269 130.821 174.09 131.007C170.364 131.324 160.984 134.735 164.052 136.89C166.096 138.327 170.586 140.171 177.519 142.422C200.652 142.897 212.196 142.996 212.152 142.719C212.149 142.701 212.146 142.666 212.143 142.614C212.133 142.613 212.123 142.612 212.113 142.612L210.937 128.146Z" fill="#F5BCA3"/>
<path d="M234.465 114.848C236.169 112.793 237.582 110.995 238.706 109.454C238.842 109.267 239.105 109.226 239.293 109.362C239.48 109.499 239.522 109.762 239.385 109.95C238.25 111.506 236.826 113.317 235.112 115.384C234.964 115.563 234.699 115.588 234.52 115.44C234.341 115.291 234.317 115.026 234.465 114.848Z" fill="#482D1F"/>
</g>
<g clip-path="url(#clip3_388_2472)">
<path d="M71.7363 143.173V238.966C71.7363 240.002 70.8975 240.842 69.8629 240.842C68.8282 240.842 67.9895 240.002 67.9895 238.966L67.9895 141.431C67.9895 140.529 68.6263 139.775 69.4746 139.596C69.7146 139.484 69.9822 139.422 70.2643 139.422H229.501C230.536 139.422 231.375 140.261 231.375 141.297C231.375 142.333 230.536 143.173 229.501 143.173H71.7363Z" fill="#D8DEED"/>
</g>
<g clip-path="url(#clip4_388_2472)">
<path d="M131.003 138.517C131.282 139.01 131.812 139.344 132.418 139.344H172.682C173.579 139.344 174.279 138.615 174.279 137.718C174.279 136.822 173.551 136.093 172.682 136.093H133.518L119.866 99.3602C119.558 98.5196 118.633 98.0994 117.792 98.4076C116.952 98.7158 116.532 99.6404 116.84 100.481L130.877 138.251C130.912 138.345 130.954 138.434 131.003 138.517Z" fill="#474961"/>
</g>
<defs>
<clipPath id="clip0_388_2472">
<rect width="145.419" height="108.995" fill="white" transform="translate(20.655)"/>
</clipPath>
<clipPath id="clip1_388_2472">
<rect width="92.0871" height="142.003" fill="white" transform="translate(179.871 102.415)"/>
</clipPath>
<clipPath id="clip2_388_2472">
<rect width="146.26" height="211.825" fill="white" transform="translate(128.047 34.9849)"/>
</clipPath>
<clipPath id="clip3_388_2472">
<rect width="163.519" height="101.554" fill="white" transform="translate(67.9895 139.422)"/>
</clipPath>
<clipPath id="clip4_388_2472">
<rect width="99.1878" height="74.531" fill="white" transform="translate(95.8254 64.9639)"/>
</clipPath>
</defs>
</svg>
