<svg width="14" height="11" viewBox="0 0 14 11" fill="none" xmlns="http://www.w3.org/2000/svg">
<path d="M11.776 9.58667C11.7634 9.65956 11.7357 9.72902 11.6948 9.79062C11.6538 9.85223 11.6005 9.90462 11.5381 9.94446C11.4758 9.98431 11.4059 10.0107 11.3328 10.022C11.2597 10.0333 11.185 10.0293 11.1135 10.0101C11.0421 9.991 10.9754 9.95718 10.9177 9.91083C10.8601 9.86448 10.8127 9.80663 10.7786 9.74096C10.7446 9.67529 10.7246 9.60324 10.7199 9.52941C10.7152 9.45558 10.726 9.38159 10.7515 9.31215L12.1499 4.08116L1.19638 10.4052C1.07452 10.4672 0.933514 10.48 0.802429 10.4412C0.671344 10.4023 0.560165 10.3146 0.491801 10.1962C0.423437 10.0778 0.403097 9.93767 0.434973 9.80471C0.466848 9.67175 0.548511 9.55608 0.663132 9.48154L11.6166 3.15754L6.38433 1.75995C6.25028 1.72069 6.13652 1.63129 6.06668 1.51033C5.99684 1.38937 5.9763 1.24614 6.00933 1.11043C6.02726 1.0431 6.0583 0.97997 6.10067 0.924661C6.14304 0.86935 6.19591 0.822947 6.25625 0.788109C6.31659 0.753272 6.38321 0.730686 6.4523 0.721646C6.52138 0.712606 6.59158 0.717288 6.65885 0.735427L13.1338 2.47039C13.2018 2.48722 13.2657 2.51759 13.3216 2.55968C13.3776 2.60178 13.4245 2.65474 13.4595 2.71538C13.4945 2.77602 13.5169 2.8431 13.5254 2.91261C13.5339 2.98212 13.5282 3.05263 13.5088 3.1199L11.776 9.58667Z" fill="url(#paint0_linear_1750_923)"/>
<defs>
<linearGradient id="paint0_linear_1750_923" x1="1.41033" y1="11.7871" x2="13.6789" y2="2.67858" gradientUnits="userSpaceOnUse">
<stop stop-color="#183DFF"/>
<stop offset="0.390625" stop-color="#6D49D2"/>
<stop offset="1" stop-color="#F74B35"/>
</linearGradient>
</defs>
</svg>
