<svg width="16" height="22" viewBox="0 0 16 22" fill="none" xmlns="http://www.w3.org/2000/svg">
<path d="M11.4802 0.200195H4.52022C2.48022 0.200195 0.824219 1.8562 0.824219 3.89619V20.5762C0.824219 21.0802 1.11222 21.5122 1.56822 21.7042C1.71222 21.7762 1.88022 21.8002 2.02422 21.8002C2.33622 21.8002 2.64822 21.6802 2.88822 21.4402L8.00022 16.3522L13.1122 21.4402C13.4722 21.8002 13.9762 21.8962 14.4322 21.7042C14.8882 21.5122 15.1762 21.0802 15.1762 20.5762V3.89619C15.1762 1.8562 13.5202 0.200195 11.4802 0.200195ZM13.7362 20.0482L8.86422 15.1762C8.62422 14.9362 8.33622 14.8162 8.00022 14.8162C7.66422 14.8162 7.37622 14.9362 7.13622 15.1762L2.26422 20.0482V3.89619C2.26422 2.6482 3.27222 1.6402 4.52022 1.6402H11.4802C12.7282 1.6402 13.7362 2.6482 13.7362 3.89619V20.0482Z" fill="#DD5252"/>
</svg>
