<svg width="19" height="19" viewBox="0 0 19 19" fill="none" xmlns="http://www.w3.org/2000/svg">
<path d="M9.50002 0C7.62175 2.3794e-06 5.78562 0.556345 4.22368 1.59872C2.66174 2.6411 1.4441 4.12272 0.724624 5.85636C0.00514901 7.59 -0.183864 9.49783 0.181471 11.3388C0.546806 13.1797 1.45009 14.8711 2.77718 16.1993C4.10426 17.5274 5.79559 18.4327 7.63741 18.8006C9.47923 19.1686 11.3889 18.9828 13.125 18.2666C14.8612 17.5505 16.3459 16.3362 17.3916 14.7772C18.4373 13.2181 18.997 11.3843 19 9.50756C19.002 8.25972 18.7578 7.02374 18.2812 5.87032C17.8047 4.71689 17.1052 3.66867 16.2229 2.78561C15.3405 1.90256 14.2926 1.202 13.139 0.724013C11.9854 0.246028 10.7489 -1.582e-06 9.50002 0Z" fill="#188AF3" fill-opacity="0.2"/>
<path d="M10.4984 12.3341H8.62262V14.1329H10.4984V12.3341Z" fill="#EAA7A7"/>
<path d="M11.7389 5.53222C11.0524 5.06959 10.2367 4.83671 9.40925 4.86715C8.76973 4.84662 8.13834 5.01486 7.59396 5.35084C6.80734 5.8567 6.39386 6.69308 6.35352 7.85999H8.1688C8.17238 7.50543 8.27736 7.15928 8.47135 6.86237C8.58441 6.69777 8.73929 6.56621 8.92007 6.48121C9.10085 6.3962 9.30102 6.36082 9.50001 6.37868C9.98409 6.37868 10.3169 6.50867 10.4984 6.77168C10.6823 7.02647 10.7779 7.33431 10.7707 7.64837C10.7738 7.91979 10.6889 8.18492 10.5287 8.40414C10.4281 8.5439 10.3055 8.66642 10.1656 8.76691L9.7118 9.12968C9.3552 9.3661 9.06388 9.68838 8.86466 10.0668C8.72185 10.5372 8.65046 11.0264 8.65288 11.5179H10.3471C10.3439 11.273 10.3745 11.0289 10.4379 10.7924C10.514 10.5237 10.6728 10.2857 10.8917 10.1122L11.3456 9.77964C11.684 9.53857 11.9892 9.25396 12.2532 8.93318C12.5263 8.5333 12.6641 8.05658 12.6465 7.5728C12.6814 7.18361 12.6163 6.79198 12.4575 6.43492C12.2987 6.07786 12.0513 5.76717 11.7389 5.53222Z" fill="#EAA7A7"/>
<path d="M9.5 0.0151215C7.62108 0.0151215 5.78435 0.571843 4.22209 1.61489C2.65982 2.65793 1.44218 4.14045 0.723149 5.87496C0.0041162 7.60948 -0.184015 9.51809 0.182544 11.3594C0.549104 13.2008 1.45389 14.8922 2.78249 16.2197C4.11109 17.5473 5.80383 18.4513 7.64665 18.8176C9.48947 19.1839 11.3996 18.9959 13.1355 18.2774C14.8714 17.559 16.3551 16.3423 17.399 14.7813C18.4428 13.2203 19 11.385 19 9.50756C19 6.99001 17.9991 4.57557 16.2175 2.79539C14.4359 1.01521 12.0196 0.0151215 9.5 0.0151215ZM9.5 17.7605C7.86044 17.7605 6.25768 17.2747 4.89443 16.3646C3.53118 15.4544 2.46866 14.1607 1.84122 12.6472C1.21378 11.1336 1.04962 9.46814 1.36948 7.86136C1.68935 6.25457 2.47887 4.77864 3.63822 3.62022C4.79757 2.46179 6.27468 1.67289 7.88274 1.35328C9.49081 1.03367 11.1576 1.1977 12.6724 1.82464C14.1871 2.45158 15.4818 3.51326 16.3927 4.87543C17.3036 6.23759 17.7898 7.83907 17.7898 9.47733V9.50756C17.7898 10.5953 17.5754 11.6724 17.1588 12.6774C16.7422 13.6824 16.1316 14.5955 15.3618 15.3647C14.592 16.1338 13.6781 16.744 12.6724 17.1603C11.6666 17.5765 10.5886 17.7908 9.5 17.7908V17.7605Z" fill="#188AF3"/>
<path d="M10.4984 12.3492H8.62262V14.148H10.4984V12.3492Z" fill="#188AF3"/>
<path d="M11.7389 5.54733C11.0524 5.0847 10.2367 4.85181 9.40925 4.88225C8.76973 4.86173 8.13834 5.02996 7.59396 5.36594C6.80734 5.87181 6.39386 6.70819 6.35352 7.87509H8.1688C8.17238 7.52053 8.27736 7.17439 8.47135 6.87748C8.58441 6.71288 8.73929 6.58132 8.92007 6.49632C9.10085 6.41131 9.30102 6.37592 9.50001 6.39379C9.98409 6.39379 10.3169 6.52378 10.4984 6.78679C10.6823 7.04158 10.7779 7.34941 10.7707 7.66348C10.7738 7.9349 10.6889 8.20003 10.5287 8.41925C10.4281 8.55901 10.3055 8.68152 10.1656 8.78201L9.7118 9.14478C9.3552 9.38121 9.06388 9.70348 8.86466 10.0819C8.72185 10.5523 8.65046 11.0415 8.65288 11.533H10.3471C10.3439 11.2881 10.3745 11.044 10.4379 10.8075C10.5111 10.5333 10.6701 10.2896 10.8917 10.1122L11.3456 9.77963C11.684 9.53856 11.9892 9.25395 12.2532 8.93317C12.5263 8.53329 12.6641 8.05657 12.6465 7.57279C12.6787 7.18606 12.6124 6.79748 12.4537 6.4433C12.2949 6.08912 12.049 5.78087 11.7389 5.54733Z" fill="#188AF3"/>
</svg>
