<svg width="18" height="20" viewBox="0 0 18 20" fill="none" xmlns="http://www.w3.org/2000/svg">
<path d="M9.72717 1.48374C9.5107 1.33991 9.25658 1.26318 8.99667 1.26318C8.73677 1.26318 8.48265 1.33991 8.26617 1.48374L8.21817 1.51974L1.20117 6.64374V16.2437C1.20117 16.7211 1.39081 17.179 1.72838 17.5165C2.06594 17.8541 2.52378 18.0437 3.00117 18.0437H15.0012C15.4786 18.0437 15.9364 17.8541 16.274 17.5165C16.6115 17.179 16.8012 16.7211 16.8012 16.2437V6.64374L9.72717 1.48374Z" fill="#FA784F" fill-opacity="0.2"/>
<path d="M10.482 0.547787L10.401 0.493787C9.98545 0.214555 9.49615 0.0654297 8.9955 0.0654297C8.49485 0.0654297 8.00555 0.214555 7.59 0.493787L0.99 5.29379L0 6.04379V16.2438C0 16.6378 0.077597 17.0279 0.228361 17.3918C0.379125 17.7558 0.600104 18.0865 0.87868 18.3651C1.15726 18.6437 1.48797 18.8647 1.85195 19.0154C2.21593 19.1662 2.60603 19.2438 3 19.2438H15C15.394 19.2438 15.7841 19.1662 16.1481 19.0154C16.512 18.8647 16.8427 18.6437 17.1213 18.3651C17.3999 18.0865 17.6209 17.7558 17.7716 17.3918C17.9224 17.0279 18 16.6378 18 16.2438V6.04379L10.482 0.547787ZM16.8 16.2438C16.8 16.7212 16.6104 17.179 16.2728 17.5166C15.9352 17.8541 15.4774 18.0438 15 18.0438H3C2.52261 18.0438 2.06477 17.8541 1.72721 17.5166C1.38964 17.179 1.2 16.7212 1.2 16.2438V6.64379L8.217 1.52579L8.265 1.48979C8.48148 1.34595 8.7356 1.26923 8.9955 1.26923C9.2554 1.26923 9.50952 1.34595 9.726 1.48979L16.8 6.64379V16.2438Z" fill="#FA784F"/>
<path d="M13.5 12.9434H4.5V14.7434H13.5V12.9434Z" fill="#FA784F"/>
</svg>
