<svg width="21" height="20" viewBox="0 0 21 20" fill="none" xmlns="http://www.w3.org/2000/svg">
<path fill-rule="evenodd" clip-rule="evenodd" d="M19.8067 10.4734L15.8067 14.4734C15.6811 14.5989 15.5109 14.6694 15.3333 14.6694C15.1558 14.6694 14.9855 14.5989 14.86 14.4734C14.7345 14.3478 14.6639 14.1776 14.6639 14C14.6639 13.8225 14.7345 13.6522 14.86 13.5267L17.7267 10.6667H12V9.33335H17.7267L14.86 6.47336C14.7978 6.4112 14.7485 6.3374 14.7149 6.25619C14.6813 6.17497 14.6639 6.08793 14.6639 6.00002C14.6639 5.82249 14.7345 5.65222 14.86 5.52669C14.9855 5.40115 15.1558 5.33063 15.3333 5.33063C15.4212 5.33063 15.5083 5.34794 15.5895 5.38158C15.6707 5.41522 15.7445 5.46453 15.8067 5.52669L19.8067 9.52669C19.8692 9.58866 19.9187 9.6624 19.9526 9.74364C19.9864 9.82488 20.0039 9.91201 20.0039 10C20.0039 10.088 19.9864 10.1752 19.9526 10.2564C19.9187 10.3376 19.8692 10.4114 19.8067 10.4734Z" fill="#606060"/>
<path fill-rule="evenodd" clip-rule="evenodd" d="M12 2V9.33333H6C5.82319 9.33333 5.65362 9.40357 5.5286 9.5286C5.40357 9.65362 5.33333 9.82319 5.33333 10C5.33333 10.1768 5.40357 10.3464 5.5286 10.4714C5.65362 10.5964 5.82319 10.6667 6 10.6667H12V18C12 18.5304 11.7893 19.0391 11.4142 19.4142C11.0391 19.7893 10.5304 20 10 20H2C1.46957 20 0.960859 19.7893 0.585786 19.4142C0.210714 19.0391 0 18.5304 0 18V2C0 1.46957 0.210714 0.960859 0.585786 0.585786C0.960859 0.210714 1.46957 0 2 0H10C10.5304 0 11.0391 0.210714 11.4142 0.585786C11.7893 0.960859 12 1.46957 12 2Z" fill="#4D4AEA" fill-opacity="0.2"/>
<path fill-rule="evenodd" clip-rule="evenodd" d="M17.7267 9.33335H6.00001C5.8232 9.33335 5.65363 9.40359 5.52861 9.52862C5.40358 9.65364 5.33334 9.82321 5.33334 10C5.33334 10.1768 5.40358 10.3464 5.52861 10.4714C5.65363 10.5965 5.8232 10.6667 6.00001 10.6667H17.7267L14.86 13.5267C14.7345 13.6522 14.6639 13.8225 14.6639 14C14.6639 14.1776 14.7345 14.3478 14.86 14.4734C14.9855 14.5989 15.1558 14.6694 15.3333 14.6694C15.5109 14.6694 15.6811 14.5989 15.8067 14.4734L19.8067 10.4734C19.8692 10.4114 19.9188 10.3376 19.9526 10.2564C19.9865 10.1752 20.0039 10.088 20.0039 10C20.0039 9.91201 19.9865 9.82488 19.9526 9.74364C19.9188 9.6624 19.8692 9.58866 19.8067 9.52669L15.8067 5.52669C15.7445 5.46453 15.6707 5.41522 15.5895 5.38158C15.5083 5.34794 15.4213 5.33063 15.3333 5.33063C15.1558 5.33063 14.9855 5.40115 14.86 5.52669C14.7979 5.58885 14.7485 5.66264 14.7149 5.74386C14.6813 5.82507 14.6639 5.91212 14.6639 6.00002C14.6639 6.17756 14.7345 6.34782 14.86 6.47336L17.7267 9.33335Z" fill="#4D4AEA"/>
<path fill-rule="evenodd" clip-rule="evenodd" d="M12 4.66667V2C12 1.46957 11.7893 0.960859 11.4142 0.585786C11.0391 0.210714 10.5304 0 10 0H2C1.46957 0 0.960859 0.210714 0.585786 0.585786C0.210714 0.960859 0 1.46957 0 2V18C0 18.5304 0.210714 19.0391 0.585786 19.4142C0.960859 19.7893 1.46957 20 2 20H10C10.5304 20 11.0391 19.7893 11.4142 19.4142C11.7893 19.0391 12 18.5304 12 18V15.3333C12 15.1565 11.9298 14.987 11.8047 14.8619C11.6797 14.7369 11.5101 14.6667 11.3333 14.6667C11.1565 14.6667 10.987 14.7369 10.8619 14.8619C10.7369 14.987 10.6667 15.1565 10.6667 15.3333V18C10.6667 18.1768 10.5964 18.3464 10.4714 18.4714C10.3464 18.5964 10.1768 18.6667 10 18.6667H2C1.82319 18.6667 1.65362 18.5964 1.5286 18.4714C1.40357 18.3464 1.33333 18.1768 1.33333 18V2C1.33333 1.82319 1.40357 1.65362 1.5286 1.5286C1.65362 1.40357 1.82319 1.33333 2 1.33333H10C10.1768 1.33333 10.3464 1.40357 10.4714 1.5286C10.5964 1.65362 10.6667 1.82319 10.6667 2V4.66667C10.6667 4.84348 10.7369 5.01305 10.8619 5.13807C10.987 5.2631 11.1565 5.33333 11.3333 5.33333C11.5101 5.33333 11.6797 5.2631 11.8047 5.13807C11.9298 5.01305 12 4.84348 12 4.66667Z" fill="#4D4AEA"/>
</svg>
