<svg width="20" height="19" viewBox="0 0 20 19" fill="none" xmlns="http://www.w3.org/2000/svg">
<path d="M6.85 0H2C1.46957 0 0.960859 0.210714 0.585786 0.585786C0.210714 0.960859 0 1.46957 0 2V6.85C0 7.38043 0.210714 7.88914 0.585786 8.26421C0.960859 8.63929 1.46957 8.85 2 8.85H6.85C7.38043 8.85 7.88914 8.63929 8.26421 8.26421C8.63929 7.88914 8.85 7.38043 8.85 6.85V2C8.85 1.46957 8.63929 0.960859 8.26421 0.585786C7.88914 0.210714 7.38043 0 6.85 0ZM6.85 10.15H2C1.46957 10.15 0.960859 10.3607 0.585786 10.7358C0.210714 11.1109 0 11.6196 0 12.15V17C0 17.5304 0.210714 18.0391 0.585786 18.4142C0.960859 18.7893 1.46957 19 2 19H6.85C7.38043 19 7.88914 18.7893 8.26421 18.4142C8.63929 18.0391 8.85 17.5304 8.85 17V12.15C8.85 11.6196 8.63929 11.1109 8.26421 10.7358C7.88914 10.3607 7.38043 10.15 6.85 10.15ZM17 10.15H12.15C11.6196 10.15 11.1109 10.3607 10.7358 10.7358C10.3607 11.1109 10.15 11.6196 10.15 12.15V17C10.15 17.5304 10.3607 18.0391 10.7358 18.4142C11.1109 18.7893 11.6196 19 12.15 19H17C17.5304 19 18.0391 18.7893 18.4142 18.4142C18.7893 18.0391 19 17.5304 19 17V12.15C19 11.6196 18.7893 11.1109 18.4142 10.7358C18.0391 10.3607 17.5304 10.15 17 10.15ZM11.26 8.24H11.33L13.94 7.88C14.0475 7.86015 14.1476 7.8118 14.23 7.74L18.56 3.42C18.7003 3.28141 18.8117 3.11635 18.8877 2.9344C18.9637 2.75244 19.0029 2.5572 19.0029 2.36C19.0029 2.1628 18.9637 1.96756 18.8877 1.7856C18.8117 1.60365 18.7003 1.43859 18.56 1.3L17.71 0.44C17.4275 0.16152 17.0467 0.00540686 16.65 0.00540686C16.2533 0.00540686 15.8725 0.16152 15.59 0.44L11.26 4.76C11.1813 4.83887 11.1289 4.94017 11.11 5.05L10.76 7.68C10.7503 7.75603 10.7578 7.83327 10.7821 7.90598C10.8063 7.9787 10.8466 8.04501 10.9 8.1C10.9976 8.19116 11.1265 8.24129 11.26 8.24Z" fill="#F38F18" fill-opacity="0.2"/>
<path d="M6.85 0H2C1.46957 0 0.960859 0.210714 0.585786 0.585786C0.210714 0.960859 0 1.46957 0 2V6.85C0 7.38043 0.210714 7.88914 0.585786 8.26421C0.960859 8.63929 1.46957 8.85 2 8.85H6.85C7.38043 8.85 7.88914 8.63929 8.26421 8.26421C8.63929 7.88914 8.85 7.38043 8.85 6.85V2C8.85 1.46957 8.63929 0.960859 8.26421 0.585786C7.88914 0.210714 7.38043 0 6.85 0ZM7.85 6.85C7.85 7.11522 7.74464 7.36957 7.55711 7.55711C7.36957 7.74464 7.11522 7.85 6.85 7.85H2C1.73478 7.85 1.48043 7.74464 1.29289 7.55711C1.10536 7.36957 1 7.11522 1 6.85V2C1 1.73478 1.10536 1.48043 1.29289 1.29289C1.48043 1.10536 1.73478 1 2 1H6.85C7.11522 1 7.36957 1.10536 7.55711 1.29289C7.74464 1.48043 7.85 1.73478 7.85 2V6.85ZM6.85 10.15H2C1.46957 10.15 0.960859 10.3607 0.585786 10.7358C0.210714 11.1109 0 11.6196 0 12.15V17C0 17.5304 0.210714 18.0391 0.585786 18.4142C0.960859 18.7893 1.46957 19 2 19H6.85C7.38043 19 7.88914 18.7893 8.26421 18.4142C8.63929 18.0391 8.85 17.5304 8.85 17V12.15C8.85 11.6196 8.63929 11.1109 8.26421 10.7358C7.88914 10.3607 7.38043 10.15 6.85 10.15ZM7.85 17C7.85 17.2652 7.74464 17.5196 7.55711 17.7071C7.36957 17.8946 7.11522 18 6.85 18H2C1.73478 18 1.48043 17.8946 1.29289 17.7071C1.10536 17.5196 1 17.2652 1 17V12.15C1 11.8848 1.10536 11.6304 1.29289 11.4429C1.48043 11.2554 1.73478 11.15 2 11.15H6.85C7.11522 11.15 7.36957 11.2554 7.55711 11.4429C7.74464 11.6304 7.85 11.8848 7.85 12.15V17ZM17 10.15H12.15C11.6196 10.15 11.1109 10.3607 10.7358 10.7358C10.3607 11.1109 10.15 11.6196 10.15 12.15V17C10.15 17.5304 10.3607 18.0391 10.7358 18.4142C11.1109 18.7893 11.6196 19 12.15 19H17C17.5304 19 18.0391 18.7893 18.4142 18.4142C18.7893 18.0391 19 17.5304 19 17V12.15C19 11.6196 18.7893 11.1109 18.4142 10.7358C18.0391 10.3607 17.5304 10.15 17 10.15ZM18 17C18 17.2652 17.8946 17.5196 17.7071 17.7071C17.5196 17.8946 17.2652 18 17 18H12.15C11.8848 18 11.6304 17.8946 11.4429 17.7071C11.2554 17.5196 11.15 17.2652 11.15 17V12.15C11.15 11.8848 11.2554 11.6304 11.4429 11.4429C11.6304 11.2554 11.8848 11.15 12.15 11.15H17C17.2652 11.15 17.5196 11.2554 17.7071 11.4429C17.8946 11.6304 18 11.8848 18 12.15V17ZM11.26 8.24H11.32L13.94 7.88C14.0475 7.86015 14.1476 7.8118 14.23 7.74L18.56 3.42C18.7003 3.28141 18.8117 3.11635 18.8877 2.9344C18.9637 2.75244 19.0029 2.5572 19.0029 2.36C19.0029 2.1628 18.9637 1.96756 18.8877 1.7856C18.8117 1.60365 18.7003 1.43859 18.56 1.3L17.71 0.44C17.4275 0.16152 17.0467 0.00540686 16.65 0.00540686C16.2533 0.00540686 15.8725 0.16152 15.59 0.44L11.25 4.76C11.1782 4.84238 11.1298 4.94254 11.11 5.05L10.76 7.68C10.7503 7.75603 10.7578 7.83327 10.7821 7.90598C10.8063 7.9787 10.8466 8.04501 10.9 8.1C10.9976 8.19116 11.1265 8.24129 11.26 8.24ZM12.08 5.35L16.3 1.15C16.3935 1.05839 16.5191 1.00707 16.65 1.00707C16.7809 1.00707 16.9065 1.05839 17 1.15L17.85 2C17.8969 2.04648 17.9341 2.10178 17.9594 2.16271C17.9848 2.22364 17.9979 2.28899 17.9979 2.355C17.9979 2.42101 17.9848 2.48636 17.9594 2.54729C17.9341 2.60822 17.8969 2.66352 17.85 2.71L13.64 6.91L11.84 7.16L12.08 5.35Z" fill="#F38F18"/>
</svg>
