<svg width="16" height="16" viewBox="0 0 16 16" fill="none" xmlns="http://www.w3.org/2000/svg">
<path d="M1.334 0H14.666C15.0195 0.00105515 15.3582 0.14194 15.6081 0.391885C15.8581 0.64183 15.9989 0.980526 16 1.334V14.666C15.9989 15.0195 15.8581 15.3582 15.6081 15.6081C15.3582 15.8581 15.0195 15.9989 14.666 16H1.334C0.980525 15.9989 0.64183 15.8581 0.391885 15.6081C0.141939 15.3582 0.00105476 15.0195 0 14.666V1.334C0.00105476 0.980526 0.141939 0.64183 0.391885 0.391885C0.64183 0.14194 0.980525 0.00105515 1.334 0ZM11 15H15V11H11V15ZM11 10H15V6H11V10ZM6 15H10V11H6V15ZM6 10H10V6H6V10ZM1 15H5V11H1V15ZM1 10H5V6H1V10ZM1 5H15V1H1V5Z" fill="#8649BB"/>
<path d="M11 6H15L15 10H11L11 6Z" fill="#8649BB" fill-opacity="0.2"/>
<path d="M11 11H15V15H11V11Z" fill="#8649BB" fill-opacity="0.2"/>
<path d="M6 6H10V10H6V6Z" fill="#8649BB" fill-opacity="0.2"/>
<path d="M6 11H10V15H6V11Z" fill="#8649BB" fill-opacity="0.2"/>
<path d="M1 1H15V5H1V1Z" fill="#8649BB" fill-opacity="0.2"/>
<path d="M1 6H5V10H1V6Z" fill="#8649BB" fill-opacity="0.2"/>
<path d="M1 11H5V15H1V11Z" fill="#8649BB" fill-opacity="0.2"/>
</svg>
