<svg width="26" height="26" viewBox="0 0 26 26" fill="none" xmlns="http://www.w3.org/2000/svg">
<path d="M20.0734 18.8286H5.19922V10.2594C5.19922 6.15356 8.52505 2.81689 12.6417 2.81689C16.7476 2.81689 20.0842 6.14273 20.0842 10.2594V18.8286H20.0734Z" fill="#4063BD" fill-opacity="0.2"/>
<path d="M14.82 20.9844C14.82 22.1869 13.845 23.1727 12.6317 23.1727C11.4184 23.1727 10.4434 22.1977 10.4434 20.9844" fill="#4063BD" fill-opacity="0.2"/>
<path d="M20.0734 18.8286H5.19922V10.2594C5.19922 6.15356 8.52505 2.81689 12.6417 2.81689C16.7475 2.81689 20.0842 6.14273 20.0842 10.2594V18.8286H20.0734Z" stroke="#6285DE" stroke-width="1.5" stroke-miterlimit="10" stroke-linecap="round" stroke-linejoin="round"/>
<path d="M2.81641 18.8286H22.4573" stroke="#6285DE" stroke-width="1.5" stroke-miterlimit="10" stroke-linecap="round" stroke-linejoin="round"/>
<path d="M14.82 20.9844C14.82 22.1869 13.845 23.1727 12.6317 23.1727C11.4184 23.1727 10.4434 22.1977 10.4434 20.9844" stroke="#6285DE" stroke-width="1.5" stroke-miterlimit="10" stroke-linecap="round" stroke-linejoin="round"/>
</svg>
