<svg width="21" height="18" viewBox="0 0 21 18" fill="none" xmlns="http://www.w3.org/2000/svg">
<g clip-path="url(#clip0_1744_446)">
<path d="M15.0308 0.52151C14.9623 0.488959 14.8859 0.475318 14.81 0.482093C14.734 0.488868 14.6615 0.515796 14.6004 0.559904L8.17753 5.21828H3.00616C2.35593 5.2411 1.7402 5.50676 1.28854 5.95937C0.836885 6.41199 0.584503 7.01626 0.584503 7.64504C0.584503 8.27383 0.836885 8.8781 1.28854 9.33071C1.7402 9.78333 2.35593 10.049 3.00616 10.0718H3.2975V15.4309C3.2975 15.985 3.52527 16.5164 3.93071 16.9082C4.33615 17.3 4.88604 17.5201 5.45941 17.5201C6.03279 17.5201 6.58268 17.3 6.98811 16.9082C7.39355 16.5164 7.62132 15.985 7.62132 15.4309V10.0718H8.17753L14.6004 14.7334C14.6722 14.7849 14.7592 14.8129 14.8487 14.8134C14.9121 14.8121 14.9744 14.7968 15.0308 14.7686C15.0986 14.7362 15.1557 14.686 15.1955 14.6238C15.2353 14.5616 15.2563 14.4898 15.2559 14.4166V0.876647C15.2561 0.803103 15.2352 0.730947 15.1954 0.668235C15.1557 0.605522 15.0987 0.554724 15.0308 0.52151Z" fill="#74C4BA" fill-opacity="0.2"/>
<path d="M5.44948 18C4.74703 18 4.07335 17.7303 3.57664 17.2503C3.07994 16.7703 2.80089 16.1193 2.80089 15.4405V10.5453C2.0293 10.4853 1.31133 10.1402 0.796185 9.58184C0.281043 9.02348 0.00834884 8.29476 0.0347761 7.54714C0.0612033 6.79951 0.384719 6.09048 0.938089 5.56739C1.49146 5.0443 2.23212 4.74739 3.00615 4.73836H8.01199L14.3024 0.175968C14.4368 0.0774944 14.5971 0.0174862 14.7651 0.00277907C14.9331 -0.011928 15.102 0.0192573 15.2526 0.0927823C15.4034 0.165187 15.5302 0.277022 15.6186 0.415583C15.707 0.554145 15.7534 0.71388 15.7525 0.876643V14.4166C15.7526 14.5792 15.7059 14.7387 15.6176 14.8771C15.5293 15.0155 15.4029 15.1275 15.2526 15.2005C15.1011 15.2705 14.9329 15.2997 14.7657 15.285C14.5984 15.2704 14.4384 15.2125 14.3024 15.1173L8.11793 10.6381V15.4373C8.11838 15.7753 8.04954 16.11 7.91539 16.4222C7.78124 16.7344 7.58444 17.0177 7.33634 17.256C7.08825 17.4943 6.79377 17.6827 6.46992 17.8104C6.14606 17.9381 5.79924 18.0025 5.44948 18ZM3.00615 5.69818C2.48598 5.71857 1.99413 5.9326 1.63355 6.29547C1.27297 6.65835 1.0716 7.14194 1.0716 7.64504C1.0716 8.14813 1.27297 8.63173 1.63355 8.99461C1.99413 9.35748 2.48598 9.57151 3.00615 9.59189H3.79411V15.4309C3.79411 15.6422 3.83718 15.8515 3.92087 16.0467C4.00456 16.242 4.12723 16.4194 4.28186 16.5688C4.4365 16.7182 4.62008 16.8368 4.82213 16.9177C5.02417 16.9985 5.24072 17.0402 5.45941 17.0402C5.6781 17.0402 5.89465 16.9985 6.09669 16.9177C6.29874 16.8368 6.48232 16.7182 6.63695 16.5688C6.79159 16.4194 6.91426 16.242 6.99795 16.0467C7.08164 15.8515 7.12471 15.6422 7.12471 15.4309V9.59189H8.34637L14.7593 14.2471V1.04301L8.34637 5.69818H3.00615Z" fill="#58C5B7"/>
<path d="M20.5895 7.24991H17.3085C17.1997 7.24991 17.0952 7.29171 17.0183 7.36611C16.9413 7.44051 16.898 7.54142 16.898 7.64664C16.898 7.75186 16.9413 7.85277 17.0183 7.92717C17.0952 8.00157 17.1997 8.04337 17.3085 8.04337H20.5895C20.6984 8.04337 20.8028 8.00157 20.8798 7.92717C20.9568 7.85277 21 7.75186 21 7.64664C21 7.54142 20.9568 7.44051 20.8798 7.36611C20.8028 7.29171 20.6984 7.24991 20.5895 7.24991Z" fill="#74C4BA"/>
<path d="M17.3085 4.07928C17.4165 4.07897 17.5199 4.03759 17.5966 3.9641L20.0564 1.58692C20.1253 1.51121 20.1618 1.413 20.1584 1.31224C20.1551 1.21149 20.1121 1.11575 20.0384 1.04447C19.9646 0.973188 19.8655 0.931714 19.7613 0.928474C19.657 0.925233 19.5554 0.960468 19.4771 1.02702L17.0172 3.4042C16.9605 3.45985 16.922 3.53045 16.9067 3.60713C16.8913 3.68381 16.8997 3.76317 16.9308 3.83526C16.9619 3.90735 17.0144 3.96896 17.0815 4.01237C17.1487 4.05578 17.2277 4.07905 17.3085 4.07928Z" fill="#74C4BA"/>
<path d="M19.7684 14.3814C19.849 14.3806 19.9275 14.3569 19.9942 14.3132C20.0608 14.2696 20.1128 14.2079 20.1435 14.136C20.1742 14.064 20.1823 13.9849 20.1668 13.9085C20.1514 13.8321 20.113 13.7618 20.0565 13.7064L17.5966 11.3292C17.5587 11.2921 17.5136 11.2627 17.4639 11.2426C17.4141 11.2226 17.3608 11.2122 17.3069 11.2122C17.253 11.2122 17.1996 11.2226 17.1499 11.2426C17.1002 11.2627 17.0551 11.2921 17.0172 11.3292C16.9406 11.4035 16.8976 11.5042 16.8976 11.6091C16.8976 11.7141 16.9406 11.8147 17.0172 11.8891L19.4771 14.2663C19.5154 14.303 19.5609 14.3321 19.6109 14.3519C19.6609 14.3717 19.7144 14.3817 19.7684 14.3814Z" fill="#74C4BA"/>
</g>
<defs>
<clipPath id="clip0_1744_446">
<rect width="21" height="18" fill="white"/>
</clipPath>
</defs>
</svg>
