<svg width="10" height="10" viewBox="0 0 10 10" fill="none" xmlns="http://www.w3.org/2000/svg">
<path d="M6.73401 9.092C6.70242 9.13745 6.66329 9.1745 6.61911 9.2008C6.57492 9.2271 6.52666 9.24206 6.47739 9.24473C6.42812 9.2474 6.37893 9.23772 6.33295 9.21632C6.28698 9.19491 6.24522 9.16224 6.21035 9.12039C6.17547 9.07854 6.14825 9.02843 6.13041 8.97326C6.11257 8.91809 6.1045 8.85906 6.10673 8.79993C6.10896 8.74081 6.12142 8.6829 6.14334 8.62988C6.16525 8.57686 6.19613 8.5299 6.23401 8.492L8.78501 5.4272H0.353008C0.261984 5.4214 0.17628 5.37393 0.113557 5.29456C0.0508333 5.2152 0.0158691 5.10998 0.0158691 5.0006C0.0158691 4.89122 0.0508333 4.786 0.113557 4.70663C0.17628 4.62727 0.261984 4.57979 0.353008 4.574H8.78501L6.23001 1.5128C6.1657 1.43199 6.12982 1.32454 6.12982 1.2128C6.12982 1.10106 6.1657 0.993615 6.23001 0.912801C6.2628 0.873324 6.30176 0.842004 6.34466 0.820633C6.38756 0.799261 6.43356 0.78826 6.48001 0.78826C6.52646 0.78826 6.57245 0.799261 6.61535 0.820633C6.65825 0.842004 6.69721 0.873324 6.73001 0.912801L9.89001 4.7048C9.92364 4.74365 9.95039 4.79024 9.96867 4.84179C9.98695 4.89334 9.99636 4.94878 9.99636 5.0048C9.99636 5.06082 9.98695 5.11626 9.96867 5.16781C9.95039 5.21936 9.92364 5.26595 9.89001 5.3048L6.73401 9.092Z" fill="#E54F6D"/>
</svg>
