<svg width="21" height="20" viewBox="0 0 21 20" fill="none" xmlns="http://www.w3.org/2000/svg">
<path d="M1.91654 8.5521C2.00767 8.49741 2.87214 7.97397 3.41373 7.70314L3.77566 6.83335C3.59599 6.27345 3.36165 5.33335 3.3252 5.17189C3.27857 4.98015 3.28237 4.7796 3.33621 4.58976C3.39005 4.39993 3.49211 4.22726 3.63245 4.08856L4.46306 3.25783C4.60174 3.11747 4.77439 3.0154 4.9642 2.96155C5.15401 2.9077 5.35453 2.90391 5.54625 2.95054C5.56447 2.95054 6.61121 3.21095 7.20748 3.40106L8.07194 3.03908C8.33232 2.49741 8.85308 1.66929 8.92078 1.54168C9.02346 1.37525 9.16719 1.23802 9.33819 1.14316C9.50918 1.04831 9.70168 0.999013 9.89721 1.00001H11.0689C11.2645 0.999013 11.457 1.04831 11.628 1.14316C11.7989 1.23802 11.9427 1.37525 12.0454 1.54168C12.1157 1.63283 12.6416 2.49741 12.9124 3.03908L13.7769 3.40106C14.3367 3.22137 15.2767 2.98699 15.4381 2.95054C15.6298 2.90391 15.8304 2.9077 16.0202 2.96155C16.21 3.0154 16.3826 3.11747 16.5213 3.25783L17.3519 4.08856C17.4923 4.22726 17.5943 4.39993 17.6482 4.58976C17.702 4.7796 17.7058 4.98015 17.6592 5.17189C17.6592 5.19012 17.3988 6.21356 17.2087 6.83335L17.568 7.70314C18.0888 7.96356 18.9402 8.48439 19.0678 8.5521C19.2342 8.65479 19.3714 8.79854 19.4663 8.96956C19.5611 9.14057 19.6104 9.3331 19.6094 9.52866V10.7005C19.6104 10.8961 19.5611 11.0886 19.4663 11.2596C19.3714 11.4307 19.2342 11.5744 19.0678 11.6771C18.9767 11.7318 18.1096 12.2552 17.568 12.5261L17.2035 13.3906C17.3832 13.9505 17.6175 14.8906 17.654 15.0521C17.7006 15.2438 17.6968 15.4444 17.6429 15.6342C17.5891 15.8241 17.4871 15.9967 17.3467 16.1354L16.5161 16.9662C16.3774 17.1065 16.2048 17.2086 16.015 17.2624C15.8251 17.3163 15.6246 17.3201 15.4329 17.2735C15.4147 17.2735 14.3914 17.013 13.7717 16.8229L12.9072 17.1849C12.6468 17.7057 12.1261 18.5547 12.0584 18.6823C11.9553 18.8484 11.8115 18.9853 11.6406 19.0802C11.4697 19.175 11.2774 19.2245 11.0819 19.224H9.91284C9.71804 19.2223 9.52699 19.1702 9.35822 19.0729C9.18699 18.9778 9.04274 18.8407 8.93901 18.6745C8.87131 18.5912 8.35055 17.7266 8.09017 17.1849L7.2231 16.8229C6.66588 17.0026 5.72591 17.237 5.56447 17.2735C5.37277 17.3203 5.17218 17.3167 4.98232 17.2628C4.79246 17.209 4.61982 17.1067 4.48129 16.9662L3.65067 16.1354C3.51033 15.9967 3.40828 15.8241 3.35443 15.6342C3.30059 15.4444 3.2968 15.2438 3.34342 15.0521C3.34342 15.0339 3.60381 13.987 3.79388 13.3906L3.43195 12.5261C2.91119 12.2656 2.05975 11.7448 1.93476 11.6771C1.76836 11.5744 1.63114 11.4307 1.5363 11.2596C1.44146 11.0886 1.39217 10.8961 1.39317 10.7005V9.52866C1.38873 9.33455 1.4346 9.1426 1.52631 8.97147C1.61802 8.80034 1.75246 8.65587 1.91654 8.5521ZM1.78374 10.7005C1.78194 10.8271 1.8123 10.952 1.87196 11.0636C1.93162 11.1752 2.01863 11.2698 2.12484 11.3386L2.30971 11.4453C2.60134 11.6172 3.21323 11.9662 3.61162 12.1797L3.7366 12.2448L4.20789 13.3698L4.16623 13.5052C4.01 14.0261 3.78086 14.9063 3.73399 15.0964V15.1406C3.70022 15.2666 3.69999 15.3992 3.73334 15.5253C3.76668 15.6514 3.83244 15.7666 3.92407 15.8594L4.75469 16.6927C4.84696 16.7862 4.96208 16.8539 5.08862 16.889C5.21515 16.9242 5.34868 16.9257 5.47594 16.8932C5.6504 16.8542 6.56694 16.6328 7.10072 16.4531L7.23612 16.4089L8.37138 16.8828L8.43648 17.0104C8.59531 17.3307 8.88693 17.8438 9.25667 18.4583V18.474C9.32734 18.5828 9.42398 18.6723 9.53789 18.7344C9.65095 18.7944 9.77703 18.8257 9.90502 18.8255H11.0767C11.2022 18.8272 11.3261 18.797 11.4367 18.7378C11.5474 18.6786 11.6412 18.5923 11.7095 18.487L11.8475 18.25C12.0271 17.9453 12.3682 17.3776 12.5557 17L12.6208 16.8724L13.7482 16.4011L13.8862 16.4453C14.407 16.6146 15.2793 16.8333 15.4694 16.875H15.5136C15.6411 16.9074 15.7748 16.9057 15.9014 16.87C16.028 16.8344 16.143 16.766 16.2349 16.6719L17.0655 15.8412C17.159 15.7494 17.2269 15.6348 17.2625 15.5088C17.2981 15.3827 17.3002 15.2495 17.2686 15.1224C17.2269 14.9453 17.0082 14.0287 16.8259 13.4922L16.7817 13.3568L17.253 12.224L17.3832 12.1589C17.7243 12.0182 18.245 11.7162 18.8595 11.3464C18.9703 11.2791 19.0616 11.1842 19.1246 11.071C19.1876 10.9578 19.2201 10.8301 19.2188 10.7005V9.52866C19.2205 9.40287 19.19 9.27875 19.1304 9.16801C19.0707 9.05728 18.9837 8.96361 18.8778 8.89585L18.646 8.76043C18.3388 8.58074 17.7685 8.2396 17.3884 8.0521L17.2608 7.98699L16.7921 6.85679L16.8364 6.72137C17.0056 6.20054 17.2243 5.32554 17.2686 5.13804V5.09116C17.3002 4.96404 17.2981 4.83087 17.2625 4.70481C17.2269 4.57875 17.159 4.46418 17.0655 4.37241L16.2349 3.54168C16.1433 3.44709 16.0284 3.37846 15.9017 3.34278C15.775 3.3071 15.6411 3.30564 15.5136 3.33856C15.3392 3.37762 14.42 3.59897 13.8862 3.77866L13.7482 3.82293L12.6182 3.34897L12.5531 3.22137C12.2927 2.70054 11.7928 1.88022 11.7251 1.78647L11.7043 1.75522C11.6364 1.645 11.5414 1.55406 11.4283 1.49113C11.3153 1.4282 11.1879 1.39539 11.0585 1.39585H9.8868C9.7598 1.39461 9.63458 1.42576 9.52296 1.48636C9.41134 1.54696 9.31701 1.63501 9.24886 1.7422L9.15513 1.90106C8.98067 2.19272 8.62135 2.79949 8.41044 3.22137L8.34534 3.34897L7.21789 3.82293L7.08249 3.78126C6.56173 3.62501 5.68164 3.39324 5.49157 3.34637H5.4473C5.32025 3.31367 5.18681 3.31525 5.06057 3.35093C4.93432 3.38661 4.81979 3.45513 4.72865 3.54949L3.89804 4.38022C3.80413 4.47169 3.73593 4.58625 3.70028 4.71241C3.66463 4.83856 3.66279 4.97188 3.69494 5.09897C3.734 5.27345 3.95532 6.18751 4.13759 6.72918L4.18185 6.8646L3.70796 7.99741L3.57777 8.06251C3.25489 8.22397 2.73674 8.51564 2.12484 8.88543C2.01678 8.95416 1.92848 9.04986 1.86867 9.16311C1.80886 9.27637 1.77958 9.40325 1.78374 9.53127V10.7005ZM10.4909 6.60939C11.1863 6.60887 11.8663 6.81469 12.4448 7.20079C13.0232 7.5869 13.4742 8.13594 13.7406 8.77844C14.0069 9.42094 14.0768 10.128 13.9412 10.8102C13.8057 11.4924 13.4708 12.1191 12.9791 12.6109C12.4873 13.1028 11.8607 13.4376 11.1786 13.5732C10.4965 13.7088 9.78951 13.6389 9.14709 13.3725C8.50468 13.1061 7.95572 12.6551 7.56966 12.0766C7.18361 11.498 6.97783 10.818 6.97834 10.1224C6.98041 9.19133 7.35114 8.29898 8.00942 7.64061C8.6677 6.98224 9.55993 6.61145 10.4909 6.60939ZM10.4909 13.2474C11.1089 13.2474 11.713 13.0641 12.2268 12.7208C12.7406 12.3774 13.1411 11.8893 13.3776 11.3183C13.6141 10.7473 13.676 10.1189 13.5554 9.51275C13.4349 8.90656 13.1373 8.34974 12.7003 7.9127C12.2633 7.47566 11.7066 7.17804 11.1005 7.05746C10.4943 6.93688 9.8661 6.99876 9.29516 7.23529C8.72422 7.47181 8.23623 7.87235 7.89289 8.38625C7.54956 8.90016 7.36631 9.50434 7.36631 10.1224C7.36631 10.9512 7.6955 11.7461 8.28148 12.3321C8.86745 12.9182 9.66219 13.2474 10.4909 13.2474Z" fill="#F8EED4"/>
<path d="M10.4909 6.00521C11.1863 6.0047 11.8663 6.21051 12.4448 6.59662C13.0232 6.98272 13.4742 7.53176 13.7406 8.17426C14.0069 8.81676 14.0768 9.52385 13.9412 10.2061C13.8057 10.8883 13.4708 11.5149 12.9791 12.0068C12.4873 12.4986 11.8607 12.8335 11.1786 12.969C10.4965 13.1046 9.78951 13.0348 9.14709 12.7683C8.50468 12.5019 7.95571 12.0509 7.56966 11.4724C7.18361 10.8938 6.97782 10.2138 6.97834 9.51823C6.9804 8.58715 7.35113 7.6948 8.00942 7.03643C8.6677 6.37806 9.55993 6.00727 10.4909 6.00521ZM10.4909 12.2552C11.0317 12.2557 11.5606 12.0958 12.0105 11.7957C12.4605 11.4955 12.8113 11.0686 13.0186 10.569C13.2259 10.0694 13.2805 9.51957 13.1753 8.98898C13.0701 8.4584 12.8099 7.97093 12.4276 7.58826C12.0454 7.20559 11.5582 6.94491 11.0278 6.83919C10.4974 6.73348 9.94755 6.78747 9.44783 6.99435C8.9481 7.20124 8.52096 7.55171 8.22042 8.00143C7.91989 8.45115 7.75948 8.97992 7.75948 9.52083C7.76086 10.2449 8.04907 10.939 8.56101 11.451C9.07295 11.963 9.76689 12.2512 10.4909 12.2526V12.2552ZM10.4909 6.00521C11.1863 6.0047 11.8663 6.21051 12.4448 6.59662C13.0232 6.98272 13.4742 7.53176 13.7406 8.17426C14.0069 8.81676 14.0768 9.52385 13.9412 10.2061C13.8057 10.8883 13.4708 11.5149 12.9791 12.0068C12.4873 12.4986 11.8607 12.8335 11.1786 12.969C10.4965 13.1046 9.78951 13.0348 9.14709 12.7683C8.50468 12.5019 7.95571 12.0509 7.56966 11.4724C7.18361 10.8938 6.97782 10.2138 6.97834 9.51823C6.9804 8.58715 7.35113 7.6948 8.00942 7.03643C8.6677 6.37806 9.55993 6.00727 10.4909 6.00521ZM10.4909 12.2552C11.0317 12.2557 11.5606 12.0958 12.0105 11.7957C12.4605 11.4955 12.8113 11.0686 13.0186 10.569C13.2259 10.0694 13.2805 9.51957 13.1753 8.98898C13.0701 8.4584 12.8099 7.97093 12.4276 7.58826C12.0454 7.20559 11.5582 6.94491 11.0278 6.83919C10.4974 6.73348 9.94755 6.78747 9.44783 6.99435C8.9481 7.20124 8.52096 7.55171 8.22042 8.00143C7.91989 8.45115 7.75948 8.97992 7.75948 9.52083C7.76086 10.2449 8.04907 10.939 8.56101 11.451C9.07295 11.963 9.76689 12.2512 10.4909 12.2526V12.2552ZM1.70041 7.6224L1.73166 7.60417C2.06495 7.40365 2.65601 7.05209 3.10908 6.82292L3.36946 6.22136C3.19761 5.65365 2.9919 4.83073 2.95545 4.65886C2.89225 4.40257 2.89696 4.13423 2.9691 3.88032C3.04125 3.6264 3.17834 3.39569 3.36685 3.21094L4.18445 2.38282C4.36936 2.19536 4.59963 2.05895 4.85286 1.98685C5.10609 1.91475 5.37366 1.90941 5.62956 1.97136C5.9264 2.03125 6.82471 2.28386 7.19185 2.38542L7.79593 2.125C8.02246 1.69532 8.34013 1.15886 8.50157 0.885419L8.59791 0.726565C8.73503 0.504541 8.92661 0.321249 9.15446 0.194089C9.38232 0.0669288 9.63888 0.000119505 9.89981 2.79676e-06H11.0715C11.3314 -0.000493017 11.5871 0.0649429 11.8148 0.190189C12.0425 0.315435 12.2347 0.496398 12.3734 0.716149C12.4906 0.880211 12.9254 1.60157 13.1988 2.125L13.8003 2.38542C14.3888 2.20573 15.2168 2 15.3626 1.96875C15.6189 1.90685 15.8869 1.9122 16.1405 1.98429C16.3941 2.05637 16.6249 2.19275 16.8103 2.38021L17.6409 3.21094C17.8274 3.39851 17.9621 3.63119 18.0319 3.88631C18.1017 4.14142 18.1043 4.41027 18.0393 4.66667C17.9846 4.95313 17.7529 5.79948 17.6253 6.22917L17.8857 6.83334C18.2711 7.03907 18.771 7.33073 19.0522 7.49479L19.2865 7.63021C19.5074 7.7684 19.6896 7.9603 19.8162 8.188C19.9428 8.4157 20.0096 8.67177 20.0104 8.93229V10.1042C20.0087 10.3701 19.9391 10.6311 19.8084 10.8626C19.6776 11.0941 19.4899 11.2884 19.2631 11.4271C18.9324 11.625 18.3362 11.9766 17.8831 12.2083L17.6227 12.8099C17.8024 13.3984 18.0081 14.2266 18.0393 14.3724C18.1012 14.6287 18.0959 14.8967 18.0238 15.1504C17.9517 15.4041 17.8154 15.6348 17.6279 15.8203L16.7973 16.6458C16.6118 16.8333 16.3811 16.9697 16.1275 17.0418C15.8739 17.1138 15.6059 17.1192 15.3496 17.0573C15.0606 17 14.2169 16.7708 13.7873 16.6432L13.1806 16.9036C12.9775 17.2865 12.6963 17.7656 12.5218 18.0651L12.3812 18.3047C12.2429 18.5252 12.051 18.7071 11.8233 18.8333C11.5956 18.9594 11.3396 19.0257 11.0793 19.026H9.91283C9.65239 19.0277 9.39591 18.9623 9.16814 18.8359C8.93865 18.7009 8.74699 18.5101 8.61093 18.2813V18.2552C8.27243 17.6927 8.00424 17.2135 7.82978 16.888L7.2257 16.6276C6.63984 16.8073 5.81183 17.013 5.66341 17.0443C5.4066 17.1084 5.13761 17.1055 4.88226 17.0357C4.62692 16.9659 4.3938 16.8317 4.20528 16.6458L3.37466 15.8151C3.1868 15.6299 3.05015 15.3992 2.97805 15.1454C2.90594 14.8916 2.90085 14.6235 2.96326 14.3672C3.02315 14.0703 3.27572 13.1719 3.37727 12.8047L3.11689 12.1953C2.7133 11.9792 2.19774 11.6745 1.90611 11.5052L1.71864 11.3958C1.49747 11.258 1.31499 11.0662 1.18836 10.8384C1.06173 10.6106 0.995115 10.3544 0.994781 10.0938V8.94271C0.987268 8.68024 1.04842 8.42035 1.17218 8.18878C1.29595 7.95721 1.47803 7.76197 1.70041 7.6224ZM1.78374 10.0964C1.78194 10.2229 1.81229 10.3478 1.87195 10.4594C1.93161 10.571 2.01862 10.6656 2.12483 10.7344L2.30971 10.8411C2.60133 11.013 3.21323 11.362 3.61161 11.5755L3.73659 11.6406L4.20788 12.7656L4.16622 12.901C4.00999 13.4219 3.78086 14.3021 3.73399 14.4922V14.5365C3.70021 14.6624 3.69999 14.7951 3.73333 14.9211C3.76668 15.0472 3.83243 15.1624 3.92407 15.2552L4.75468 16.0885C4.84696 16.182 4.96208 16.2497 5.08861 16.2849C5.21514 16.32 5.34867 16.3215 5.47594 16.2891C5.65039 16.25 6.56694 16.0286 7.10072 15.849L7.23611 15.8047L8.37138 16.2786L8.43647 16.4063C8.5953 16.7266 8.88693 17.2396 9.25667 17.8542V17.8698C9.32733 17.9786 9.42398 18.0681 9.53788 18.1302C9.65095 18.1902 9.77702 18.2215 9.90502 18.2214H11.0767C11.2022 18.223 11.3261 18.1929 11.4367 18.1337C11.5474 18.0745 11.6412 17.9881 11.7095 17.8828L11.8475 17.6458C12.0271 17.3411 12.3682 16.7734 12.5557 16.3958L12.6208 16.2682L13.7482 15.7969L13.8862 15.8411C14.407 16.0104 15.2793 16.2292 15.4694 16.2708H15.5136C15.6411 16.3032 15.7748 16.3015 15.9014 16.2658C16.028 16.2302 16.143 16.1618 16.2349 16.0677L17.0655 15.237C17.159 15.1452 17.2269 15.0306 17.2625 14.9046C17.2981 14.7785 17.3002 14.6454 17.2686 14.5182C17.2269 14.3411 17.0082 13.4245 16.8259 12.888L16.7817 12.7526L17.253 11.6198L17.3832 11.5547C17.7243 11.4141 18.245 11.112 18.8595 10.7422C18.9703 10.6749 19.0616 10.58 19.1246 10.4668C19.1876 10.3536 19.2201 10.2259 19.2188 10.0964V8.92448C19.2205 8.79869 19.19 8.67457 19.1303 8.56384C19.0707 8.4531 18.9837 8.35943 18.8777 8.29167L18.646 8.15625C18.3388 7.97657 17.7685 7.63542 17.3884 7.44792L17.2608 7.38282L16.7921 6.25261L16.8364 6.11719C17.0056 5.59636 17.2243 4.72136 17.2686 4.53386V4.48698C17.3002 4.35986 17.2981 4.22669 17.2625 4.10063C17.2269 3.97457 17.159 3.86 17.0655 3.76823L16.2349 2.9375C16.1433 2.84292 16.0284 2.77429 15.9017 2.7386C15.775 2.70292 15.6411 2.70146 15.5136 2.73438C15.3392 2.77344 14.42 2.99479 13.8862 3.17448L13.7482 3.21875L12.6182 2.74479L12.5531 2.61719C12.2927 2.09636 11.7928 1.27604 11.7251 1.18229L11.7043 1.15104C11.6364 1.04082 11.5414 0.949884 11.4283 0.886953C11.3153 0.824022 11.1879 0.791212 11.0585 0.79167H9.88679C9.75979 0.790427 9.63457 0.821577 9.52295 0.882178C9.41134 0.94278 9.317 1.03083 9.24886 1.13802L9.15512 1.29688C8.98067 1.58854 8.62134 2.19531 8.41043 2.61719L8.34534 2.74479L7.21789 3.21875L7.08249 3.17709C6.56173 3.02084 5.68164 2.78907 5.49156 2.74219H5.4473C5.32025 2.7095 5.1868 2.71107 5.06056 2.74675C4.93432 2.78243 4.81979 2.85095 4.72864 2.94531L3.89803 3.77604C3.80412 3.86751 3.73592 3.98207 3.70027 4.10823C3.66463 4.23438 3.66278 4.3677 3.69493 4.49479C3.73399 4.66927 3.95531 5.58334 4.13758 6.125L4.18184 6.26042L3.70795 7.39323L3.57776 7.45834C3.25489 7.61979 2.73673 7.91146 2.12483 8.28125C2.01677 8.34998 1.92848 8.44568 1.86866 8.55893C1.80885 8.67219 1.77958 8.79907 1.78374 8.92709V10.0964ZM10.4909 6.00521C11.1863 6.0047 11.8663 6.21051 12.4448 6.59662C13.0232 6.98272 13.4742 7.53176 13.7406 8.17426C14.0069 8.81676 14.0768 9.52385 13.9412 10.2061C13.8057 10.8883 13.4708 11.5149 12.9791 12.0068C12.4873 12.4986 11.8607 12.8335 11.1786 12.969C10.4965 13.1046 9.78951 13.0348 9.14709 12.7683C8.50468 12.5019 7.95571 12.0509 7.56966 11.4724C7.18361 10.8938 6.97782 10.2138 6.97834 9.51823C6.9804 8.58715 7.35113 7.6948 8.00942 7.03643C8.6677 6.37806 9.55993 6.00727 10.4909 6.00521ZM10.4909 12.2552C11.0317 12.2557 11.5606 12.0958 12.0105 11.7957C12.4605 11.4955 12.8113 11.0686 13.0186 10.569C13.2259 10.0694 13.2805 9.51957 13.1753 8.98898C13.0701 8.4584 12.8099 7.97093 12.4276 7.58826C12.0454 7.20559 11.5582 6.94491 11.0278 6.83919C10.4974 6.73348 9.94755 6.78747 9.44783 6.99435C8.9481 7.20124 8.52096 7.55171 8.22042 8.00143C7.91989 8.45115 7.75948 8.97992 7.75948 9.52083C7.76086 10.2449 8.04907 10.939 8.56101 11.451C9.07295 11.963 9.76689 12.2512 10.4909 12.2526V12.2552Z" fill="#385BD7"/>
<path d="M2.12484 8.48701C2.73674 8.11722 3.2549 7.82556 3.57777 7.6641L3.70796 7.59899L4.18446 6.46097L4.14019 6.32556C3.96574 5.78389 3.7366 4.86983 3.69754 4.69535C3.66539 4.56825 3.66724 4.43494 3.70288 4.30878C3.73853 4.18262 3.80673 4.06806 3.90064 3.9766L4.73126 3.14587C4.8224 3.0515 4.93693 2.98299 5.06317 2.94731C5.18941 2.91162 5.32286 2.91005 5.44991 2.94274H5.49417C5.68425 2.98962 6.56434 3.22139 7.0851 3.37764L7.2205 3.41931L8.35055 2.95316L8.41565 2.82556C8.62655 2.40368 8.98588 1.79691 9.16034 1.50524L9.25407 1.34639C9.32222 1.2392 9.41655 1.15115 9.52817 1.09054C9.63979 1.02994 9.76501 0.998793 9.892 1.00004H11.0637C11.1931 0.999578 11.3205 1.03239 11.4336 1.09532C11.5466 1.15825 11.6416 1.24919 11.7095 1.35941L11.7303 1.39066C11.798 1.48441 12.2953 2.30212 12.5583 2.82556L12.6234 2.95316L13.7535 3.42712L13.8915 3.38285C14.4252 3.21097 15.3444 2.98181 15.5188 2.94274C15.6463 2.90983 15.7802 2.91129 15.9069 2.94697C16.0336 2.98265 16.1485 3.05128 16.2401 3.14587L17.0707 3.9766C17.1642 4.06836 17.2321 4.18294 17.2677 4.309C17.3033 4.43505 17.3054 4.56823 17.2738 4.69535V4.74222C17.2295 4.92972 17.0134 5.78389 16.8416 6.32556L16.7973 6.46097L17.266 7.59118L17.3936 7.65629C17.7737 7.8516 18.344 8.17712 18.6512 8.36462L18.883 8.50004C18.9889 8.5678 19.0759 8.66147 19.1356 8.7722C19.1952 8.88293 19.2257 9.00706 19.2241 9.13285V10.3047C19.2253 10.4343 19.1928 10.5619 19.1298 10.6752C19.0668 10.7884 18.9755 10.8833 18.8647 10.9506C18.2502 11.3203 17.7191 11.6224 17.3988 11.7813L17.2686 11.8464L16.7973 12.9792L16.8416 13.1146C17.0134 13.6511 17.2426 14.5677 17.2842 14.7448C17.3158 14.872 17.3137 15.0051 17.2781 15.1312C17.2425 15.2572 17.1746 15.3718 17.0811 15.4636L16.2505 16.2943C16.1587 16.3884 16.0437 16.4568 15.9171 16.4924C15.7905 16.5281 15.6567 16.5298 15.5293 16.4974H15.485C15.2949 16.4558 14.4278 16.237 13.9019 16.0677L13.7639 16.0235L12.6364 16.4948L12.5713 16.6224C12.3734 17 12.0506 17.5677 11.8631 17.8724L11.7251 18.1094C11.6568 18.2147 11.563 18.3011 11.4524 18.3603C11.3417 18.4195 11.2178 18.4496 11.0924 18.448H9.91284C9.78484 18.4481 9.65876 18.4168 9.5457 18.3568C9.43179 18.2947 9.33515 18.2052 9.26449 18.0964V18.0808C8.89475 17.4662 8.60312 16.9532 8.44429 16.6328L8.37919 16.5052L7.24393 16.0313L7.10853 16.0756C6.57475 16.2474 5.65821 16.4766 5.48376 16.5157C5.35649 16.5481 5.22296 16.5466 5.09643 16.5115C4.9699 16.4763 4.85477 16.4086 4.7625 16.3151L3.92408 15.4636C3.83017 15.3721 3.76197 15.2576 3.72632 15.1314C3.69067 15.0052 3.68883 14.8719 3.72098 14.7448V14.7006C3.76785 14.5105 3.99698 13.6276 4.15321 13.1094L4.19487 12.974L3.72358 11.849L3.5986 11.7839C3.20022 11.5782 2.58832 11.2214 2.29669 11.0495L2.11182 10.9427C2.00561 10.874 1.9186 10.7794 1.85894 10.6678C1.79928 10.5562 1.76893 10.4313 1.77073 10.3047V9.13285C1.76792 9.00359 1.79917 8.87587 1.86132 8.76251C1.92348 8.64915 2.01436 8.55414 2.12484 8.48701ZM10.4909 13.2422C11.1862 13.2427 11.8661 13.037 12.4445 12.651C13.0229 12.265 13.4739 11.7161 13.7403 11.0738C14.0068 10.4314 14.0767 9.72447 13.9414 9.04233C13.8061 8.3602 13.4715 7.73353 12.98 7.2416C12.4885 6.74967 11.8622 6.41458 11.1802 6.27872C10.4983 6.14286 9.79136 6.21232 9.1489 6.47834C8.50644 6.74435 7.9573 7.19495 7.57093 7.77315C7.18457 8.35135 6.97834 9.03116 6.97834 9.7266C6.97903 10.6583 7.34924 11.5518 8.00774 12.2108C8.66625 12.8699 9.55927 13.2408 10.4909 13.2422Z" fill="#D2D9F1"/>
</svg>
