<svg width="18" height="18" viewBox="0 0 18 18" fill="none" xmlns="http://www.w3.org/2000/svg">
<path d="M10.6186 3.35789C10.6186 2.96753 10.448 2.59315 10.1444 2.31712C9.84074 2.0411 9.42893 1.88603 8.99953 1.88603C8.57014 1.88603 8.15833 2.0411 7.8547 2.31712C7.55106 2.59315 7.38049 2.96753 7.38049 3.35789H6.30112C6.30112 2.70728 6.58542 2.08333 7.09147 1.62328C7.59752 1.16324 8.28387 0.904785 8.99953 0.904785C9.7152 0.904785 10.4016 1.16324 10.9076 1.62328C11.4137 2.08333 11.6979 2.70728 11.6979 3.35789H16.5551C16.6982 3.35789 16.8355 3.40958 16.9367 3.50159C17.0379 3.5936 17.0948 3.71839 17.0948 3.84851C17.0948 3.97863 17.0379 4.10342 16.9367 4.19543C16.8355 4.28744 16.6982 4.33913 16.5551 4.33913H15.9571L14.5583 15.3585C14.4974 15.8367 14.2452 16.2779 13.8497 16.5982C13.4543 16.9184 12.9432 17.0953 12.4136 17.0953H5.5855C5.05591 17.0953 4.54477 16.9184 4.14932 16.5982C3.75387 16.2779 3.50171 15.8367 3.4408 15.3585L2.04087 4.33913H1.44398C1.31767 4.33917 1.19534 4.29893 1.0983 4.22541C1.00127 4.1519 0.935668 4.04977 0.912932 3.93682L0.904297 3.84851C0.904297 3.71839 0.961156 3.5936 1.06237 3.50159C1.16358 3.40958 1.30085 3.35789 1.44398 3.35789H10.6186ZM14.8691 4.33913H3.12887L4.51261 15.2456C4.54308 15.4848 4.66923 15.7055 4.86707 15.8656C5.06491 16.0258 5.32061 16.1142 5.5855 16.114H12.4136C12.6783 16.1139 12.9337 16.0254 13.1313 15.8653C13.3289 15.7052 13.4549 15.4847 13.4854 15.2456L14.8691 4.33913ZM7.38049 6.79223C7.64493 6.79223 7.8662 6.94432 7.91153 7.1445L7.92017 7.22201V13.2321C7.92017 13.4686 7.67839 13.6609 7.38049 13.6609C7.11604 13.6609 6.89477 13.5088 6.84944 13.3087L6.8408 13.2311V7.223C6.8408 6.98554 7.08258 6.79321 7.38049 6.79321V6.79223ZM10.6186 6.79223C10.883 6.79223 11.1043 6.94432 11.1496 7.1445L11.1583 7.22201V13.2321C11.1583 13.4686 10.9165 13.6609 10.6186 13.6609C10.3541 13.6609 10.1329 13.5088 10.0875 13.3087L10.0789 13.2311V7.223C10.0789 6.98554 10.3207 6.79321 10.6186 6.79321V6.79223Z" fill="#B72525"/>
</svg>
