<svg width="65" height="65" viewBox="0 0 65 65" fill="none" xmlns="http://www.w3.org/2000/svg">
<path d="M60.8191 22.8684L62.5288 44.2396C58.0409 56.3144 46.2867 64.8629 32.6091 64.8629C14.871 64.8629 0.552246 50.5441 0.552246 32.806C0.552246 15.0679 14.871 0.749146 32.6091 0.749146C39.0205 0.749146 45.0044 2.67256 50.0267 5.87824L60.8191 22.8684Z" fill="#008DB3"/>
<path d="M50.026 5.87806C50.3466 6.94663 50.6672 8.12206 49.5986 7.58777C47.782 6.62606 45.4312 5.55749 46.1792 6.30549C46.9272 7.05349 47.2478 7.90834 46.0723 7.80149C44.8969 7.69463 42.7597 7.37406 41.798 8.7632C40.8363 10.1523 39.554 9.83177 39.2335 10.3661C38.9129 10.9003 38.3786 13.1443 37.4169 12.3963C36.4552 11.7552 34.5318 9.29749 36.1346 9.93863C37.7375 10.5798 39.554 9.83177 38.058 8.12206C36.562 6.41234 35.066 7.05349 34.4249 6.09177C33.7838 5.13006 31.6466 3.95463 30.0438 6.30549C28.5478 8.65634 27.1586 11.7552 26.3038 12.3963C25.4489 13.0375 23.6323 14.2129 23.9529 15.1746C24.1666 16.1363 24.2735 18.3803 25.2352 17.7392C26.1969 17.0981 26.7312 16.7775 27.1586 17.4186C27.4792 18.0598 27.3723 19.3421 28.1203 19.3421C28.1203 19.3421 29.6163 18.2735 29.7232 17.3118C29.83 16.3501 28.6546 15.8158 29.5095 14.4266C30.3643 13.0375 32.2878 10.3661 31.8603 11.7552C31.4329 13.0375 30.4712 14.9609 31.2192 15.8158C31.8603 16.6706 35.6003 15.6021 33.8906 16.4569C32.1809 17.3118 31.326 17.9529 31.0055 19.0215C30.6849 20.0901 30.3643 20.9449 29.5095 20.5175C28.6546 20.0901 27.586 20.3038 27.1586 20.3038C26.7312 20.3038 26.5175 18.3803 25.7695 18.8078C25.1283 19.2352 25.9832 20.6243 25.2352 20.7312C24.4872 20.8381 24.3803 21.6929 23.5255 22.3341C22.6706 22.9752 21.4952 24.2575 20.7472 24.3643C19.9992 24.4712 21.9226 25.4329 21.602 26.2878C21.2815 27.2495 19.5718 27.1426 18.9306 27.2495C18.2895 27.3563 18.8238 28.6386 18.5032 29.3866C18.1826 30.1346 18.8238 30.8826 19.8923 30.8826C20.9609 30.8826 22.0295 30.6689 22.1363 29.7072C22.2432 28.7455 23.2049 27.1426 23.9529 27.4632C24.594 27.7838 26.1969 26.8221 26.5175 27.3563C26.838 27.8906 28.8683 29.7072 28.6546 29.9209C28.4409 30.1346 27.2655 30.6689 27.6929 30.8826C27.6929 30.8826 28.0135 31.4169 28.2272 31.3101C28.4409 31.2032 28.9752 29.8141 29.2958 29.6003C29.6163 29.3866 29.6163 28.6386 29.1889 28.3181C28.6546 27.9975 26.838 26.7152 27.2655 26.0741C27.6929 25.4329 28.6546 26.8221 29.082 27.2495C29.5095 27.6769 30.1506 28.2112 30.1506 29.1729C30.1506 30.1346 30.7918 30.1346 30.7918 30.5621C30.8986 31.0963 31.1123 31.2032 31.6466 31.2032C32.1809 31.0963 32.3946 29.9209 32.1809 29.6003C31.8603 29.2798 31.8603 28.6386 32.5015 28.6386C33.1426 28.6386 33.8906 28.1043 33.8906 27.7838C33.8906 27.4632 34.5318 25.5398 34.9592 25.5398C35.3866 25.5398 35.7072 26.2878 35.814 26.7152C36.0278 27.1426 37.0963 26.3946 36.8826 25.9672C36.6689 25.5398 36.9895 25.4329 37.31 25.4329C37.6306 25.4329 37.4169 26.2878 37.6306 26.5015C37.9512 26.7152 39.4472 27.6769 38.9129 28.2112C38.3786 28.7455 37.6306 28.4249 37.0963 27.9975C36.562 27.5701 35.1729 27.7838 34.7455 28.2112C34.4249 28.6386 34.1043 28.8523 33.4632 28.8523C32.822 28.8523 32.9289 30.0278 33.4632 30.4552C33.9975 30.9895 34.7455 30.5621 35.2798 30.8826C35.814 31.2032 36.6689 30.4552 36.7758 30.9895C36.8826 31.5238 36.6689 33.1266 36.1346 33.2335C35.6003 33.3403 33.8906 33.6609 32.7152 33.1266C31.4329 32.5923 30.2575 32.3786 30.1506 32.9129C30.0438 33.5541 30.0438 33.9815 29.1889 33.4472C28.334 32.9129 27.586 32.5923 27.0518 32.5923C26.5175 32.5923 26.5175 31.6306 26.6243 30.8826C26.7312 30.1346 25.342 30.3483 24.4872 30.5621C23.6323 30.7758 21.9226 31.3101 20.854 31.3101C19.7855 31.3101 19.358 31.5238 19.1443 31.9512C18.9306 32.3786 17.9689 32.3786 17.9689 33.2335C17.9689 34.0883 18.0758 34.3021 17.2209 34.7295C16.2592 35.0501 16.0455 36.7598 15.618 37.1872C15.1906 37.6146 16.0455 38.6832 15.618 39.3243C15.1906 39.8586 14.7632 41.3546 15.5112 41.6752C16.2592 41.9958 17.0072 43.4918 17.3278 44.0261C17.6483 44.5603 18.8238 45.0946 19.9992 44.8809C21.1746 44.6672 23.3118 44.0261 24.4872 44.5603C25.6626 45.0946 26.838 44.9878 26.3038 46.0563C25.6626 47.1249 26.6243 48.5141 27.3723 49.2621C28.1203 50.0101 27.9066 51.9335 27.4792 52.4678C27.0518 53.1089 27.1586 54.1775 27.586 54.7118C28.0135 55.2461 28.2272 56.5283 28.2272 56.9558C28.2272 57.4901 29.082 58.4518 29.1889 59.4135C29.2958 60.4821 28.5478 61.6575 29.5095 61.6575C30.4712 61.6575 32.9289 61.7643 33.1426 61.3369C33.3563 60.9095 35.2798 59.1998 35.814 58.4518C36.3483 57.7038 37.4169 56.4215 37.0963 55.6735C36.4552 55.1392 36.8826 54.6049 37.9512 54.1775C39.0198 53.7501 39.0198 50.7581 38.4855 50.0101C37.9512 49.2621 38.9129 47.4455 40.0883 46.9112C41.2638 46.3769 44.042 41.4615 43.1872 41.8889C42.2255 42.3163 40.4089 42.6369 39.7678 42.2095C39.1266 41.7821 35.3866 35.3706 35.9209 34.9432C36.4552 34.5158 39.4472 40.8203 39.9815 41.5683C40.5158 42.4232 45.538 39.3243 46.1792 38.5763C46.7135 37.8283 45.8586 37.0803 45.538 37.0803C45.2175 37.0803 44.042 36.3323 43.7215 36.7598C43.4009 37.1872 41.2638 33.6609 42.0118 33.9815C42.7598 34.3021 44.3626 35.3706 45.8586 36.2255C47.3546 37.0803 49.0643 35.6912 50.026 37.2941C51.0946 38.8969 51.7358 37.8283 51.6289 38.5763C51.522 39.3243 52.9112 42.4232 53.4455 43.3849C53.8729 44.3466 54.8346 42.9575 54.9415 41.8889C55.0483 40.7135 57.2923 38.8969 58.1472 38.2558C58.8952 37.6146 60.3912 38.5763 60.6049 39.8586C60.8186 41.1409 61.8872 39.6449 61.8872 40.6066C61.8872 41.6752 61.6735 43.0643 62.4215 44.3466C63.9175 40.6066 64.6655 36.8666 64.6655 32.8061C64.6655 21.4792 58.7883 11.5415 50.026 5.87806" fill="#FFC942"/>
<path d="M15.9384 9.93856C15.2972 10.1523 14.6561 10.9003 13.8012 10.4728C12.9464 10.0454 11.1298 10.6866 12.3052 11.6483C13.3738 12.7168 12.9464 13.358 14.015 13.4648C15.0835 13.5717 15.7247 12.0757 16.4727 12.1826C17.2207 12.2894 16.6864 9.72485 15.9384 9.93856Z" fill="#FFC942"/>
<path d="M41.9041 51.7197C41.1561 51.8266 41.3699 53.3226 40.515 53.5363C39.767 53.75 40.4081 54.3912 39.9807 54.9255C39.6601 55.4597 39.4464 56.742 39.9807 57.3832C40.515 58.1312 40.7287 58.1312 41.3698 56.9557C42.011 55.8872 43.507 51.6129 41.9041 51.7197Z" fill="#FFC942"/>
<path d="M20.4261 17.098C20.1055 17.098 19.785 17.3117 19.4644 17.3117C19.1438 17.4186 18.9301 17.846 18.9301 18.2735C18.9301 18.8077 19.785 18.9146 19.4644 19.2352C19.1438 19.5557 17.4341 19.8763 17.6478 20.4106C17.8615 20.9449 18.1821 21.3723 17.8615 21.9066C17.541 22.4409 18.1821 22.5477 18.8232 22.334C19.4644 22.1203 19.8918 21.3723 19.785 20.9449C19.6781 20.4106 20.7467 20.3037 20.4261 20.7312C20.1055 21.1586 19.5712 22.2272 19.8918 22.5477C20.2124 22.8683 19.037 23.4026 19.4644 23.6163C19.8918 23.83 21.0672 22.7615 21.7084 22.9752C22.3495 23.1889 22.5632 22.7615 22.6701 22.2272C22.777 21.586 21.8152 20.838 21.4947 20.09C21.1741 19.2352 21.3878 17.098 20.4261 17.098" fill="#FFC942"/>
</svg>
