<svg width="69" height="69" viewBox="0 0 69 69" fill="none" xmlns="http://www.w3.org/2000/svg">
<path d="M68.4217 65.4595C68.4217 67.363 66.8786 68.906 64.9752 68.906H4.01339C2.10996 68.906 0.566895 67.363 0.566895 65.4595V3.52963C0.566895 1.6262 2.10996 0.0831299 4.01339 0.0831299H64.9752C66.8786 0.0831299 68.4217 1.6262 68.4217 3.52963V65.4595V65.4595Z" fill="#83D8F6"/>
<path d="M22.2934 54.4017L33.2735 15.026C33.5948 13.874 35.228 13.874 35.5493 15.026L46.5293 54.4017C46.5856 54.6034 46.5872 54.8164 46.534 55.0189C46.4809 55.2215 46.3748 55.4062 46.2268 55.5543L35.2467 66.5343C35.0251 66.7558 34.7247 66.8803 34.4114 66.8803C34.0981 66.8803 33.7976 66.7558 33.576 66.5343L22.596 55.5543C22.4479 55.4062 22.3419 55.2215 22.2887 55.0189C22.2355 54.8164 22.2372 54.6034 22.2934 54.4017V54.4017Z" fill="#A47FD6"/>
<path d="M31.085 23.1605L33.5273 25.351C33.6434 25.4671 33.7812 25.5592 33.9328 25.622C34.0845 25.6848 34.247 25.7171 34.4112 25.7171C34.5753 25.7171 34.7379 25.6848 34.8895 25.622C35.0412 25.5592 35.179 25.4671 35.295 25.351L37.7374 23.1605L35.4476 14.9488C35.1549 13.8995 33.6673 13.8995 33.3749 14.9488L31.085 23.1605Z" fill="#8866B9"/>
<path d="M25.4739 14.8226L33.4849 4.77054C33.9964 4.2591 34.8256 4.2591 35.337 4.77054L43.348 14.8226C43.8594 15.334 43.8594 16.1632 43.348 16.6747L35.337 23.8598C34.8256 24.3713 33.9964 24.3713 33.4849 23.8598L25.4739 16.6747C24.9625 16.1632 24.9625 15.334 25.4739 14.8226Z" fill="#A47FD6"/>
<path d="M64.9749 0.083374H53.2254L34.4943 5.8L15.7631 0.083374H4.01353C2.10996 0.083374 0.566895 1.62644 0.566895 3.53V5.00475C0.566895 6.60468 16.0109 26.0364 17.3006 26.0364C18.3952 26.0364 30.0152 12.9234 33.5073 8.95459C34.0312 8.35906 34.9572 8.35906 35.4812 8.95459C38.9732 12.9234 50.593 26.0364 51.6877 26.0364C52.9775 26.0364 68.4214 6.60482 68.4214 5.00475V3.53C68.4215 1.62644 66.8785 0.083374 64.9749 0.083374Z" fill="#00ADE1"/>
<path d="M61.9274 0.083374C61.9274 1.28521 49.6456 6.41116 34.4952 6.41116C19.3449 6.41116 7.06299 1.28508 7.06299 0.083374" fill="#0074A8"/>
</svg>
