<svg width="69" height="69" viewBox="0 0 69 69" fill="none" xmlns="http://www.w3.org/2000/svg">
<path d="M52.9626 68.4062H5.06865C3.46103 68.4062 2.15771 67.1029 2.15771 65.4953V5.90666C2.15771 4.29905 3.46103 2.99573 5.06865 2.99573H52.9626C54.5702 2.99573 55.8735 4.29905 55.8735 5.90666V65.4953C55.8735 67.1029 54.5702 68.4062 52.9626 68.4062V68.4062Z" fill="#DCE2E2"/>
<path d="M45.0203 20.0023H10.5332C9.52839 20.0023 8.71387 19.1878 8.71387 18.183C8.71387 17.1782 9.52839 16.3636 10.5332 16.3636H45.0203C46.0251 16.3636 46.8396 17.1782 46.8396 18.183C46.8396 19.1878 46.0252 20.0023 45.0203 20.0023V20.0023ZM46.8396 26.4401C46.8396 25.4353 46.0251 24.6207 45.0203 24.6207H10.5332C9.52839 24.6207 8.71387 25.4353 8.71387 26.4401C8.71387 27.4449 9.52839 28.2594 10.5332 28.2594H45.0203C46.0252 28.2594 46.8396 27.4449 46.8396 26.4401V26.4401ZM23.5506 34.6973C23.5506 33.6925 22.7361 32.878 21.7313 32.878H10.5332C9.52839 32.878 8.71387 33.6925 8.71387 34.6973C8.71387 35.7021 9.52839 36.5166 10.5332 36.5166H21.7313C22.7361 36.5166 23.5506 35.7021 23.5506 34.6973V34.6973ZM46.8396 42.9544C46.8396 41.9496 46.0251 41.1351 45.0203 41.1351H10.5332C9.52839 41.1351 8.71387 41.9496 8.71387 42.9544C8.71387 43.9592 9.52839 44.7737 10.5332 44.7737H45.0203C46.0252 44.7737 46.8396 43.9592 46.8396 42.9544V42.9544ZM23.5506 58.9509C23.5506 57.9461 22.7361 57.1316 21.7313 57.1316H10.5332C9.52839 57.1316 8.71387 57.9461 8.71387 58.9509C8.71387 59.9558 9.52839 60.7703 10.5332 60.7703H21.7313C22.7361 60.7703 23.5506 59.9558 23.5506 58.9509Z" fill="#96A9B2"/>
<path d="M63.535 18.9371C60.8937 16.2958 57.8805 15.0269 56.8048 16.1027L49.5303 23.3772L59.095 32.942L66.3695 25.6675C67.4453 24.5916 66.1763 21.5784 63.535 18.9371V18.9371Z" fill="#FF6E83"/>
<path d="M58.9234 23.5484C55.9099 20.5349 52.472 19.0871 51.2447 20.3145L43.7954 27.7638L54.7081 38.6765L62.1574 31.2272C63.3847 29.9997 61.9367 26.5617 58.9234 23.5484V23.5484Z" fill="#BFBCAF"/>
<path d="M30.197 57.223L23.6358 60.0768C23.5223 60.1262 23.4001 60.1527 23.2763 60.1549C23.1525 60.1571 23.0295 60.1349 22.9143 60.0895C22.7991 60.0441 22.694 59.9765 22.6049 59.8905C22.5158 59.8045 22.4446 59.7018 22.3952 59.5883C22.3439 59.4696 22.3174 59.3416 22.3174 59.2122C22.3174 59.0829 22.3439 58.9549 22.3952 58.8362L25.249 52.275C26.0772 50.3706 28.2927 49.4983 30.197 50.3265C32.1014 51.1548 32.9737 53.3702 32.1455 55.2746C31.7514 56.1805 31.0359 56.8562 30.197 57.223Z" fill="#2B2622"/>
<path d="M57.8532 35.5082C57.8601 35.4983 57.8673 35.4884 57.8737 35.4783C58.8202 34.1222 57.3721 30.8573 54.4933 27.9785C51.6144 25.0996 48.3497 23.6516 46.9936 24.5979C46.9833 24.6045 46.9735 24.6115 46.9635 24.6185C46.9512 24.6275 46.9387 24.636 46.9268 24.6454C46.8934 24.6712 46.8608 24.6984 46.8301 24.729L29.5181 42.041C29.5181 42.041 24.6206 54.1606 26.4659 56.0058C28.3111 57.851 40.4307 52.9536 40.4307 52.9536L57.7427 35.6416C57.7733 35.6111 57.8007 35.5784 57.8263 35.5449C57.8356 35.5332 57.8442 35.5205 57.8532 35.5082V35.5082Z" fill="#FFD469"/>
<path d="M29.5182 42.0413L29.1337 44.4373C29.0771 44.7897 29.3824 45.094 29.7345 45.0364L31.4516 44.756C31.7906 44.7006 32.0902 44.9817 32.0565 45.3236L31.8653 47.2618C31.8575 47.3412 31.8679 47.4214 31.8958 47.4962C31.9238 47.571 31.9684 47.6383 32.0264 47.6932C32.0844 47.748 32.1542 47.7889 32.2304 47.8126C32.3066 47.8364 32.3872 47.8423 32.4661 47.8301L34.2014 47.561C34.5563 47.506 34.8598 47.8165 34.7966 48.17L34.4997 49.8303C34.4385 50.1722 34.7215 50.4777 35.0672 50.4428L37.0203 50.2458C37.0976 50.238 37.1756 50.2475 37.2487 50.2736C37.3218 50.2996 37.3882 50.3417 37.443 50.3966C37.4979 50.4515 37.5398 50.518 37.5658 50.5911C37.5918 50.6643 37.6011 50.7423 37.5932 50.8195L37.3919 52.7899C37.3573 53.129 37.6509 53.4101 37.9881 53.3606L40.4736 52.9965L26.4662 58.8576C27.5836 57.7401 24.6902 54.8468 23.5728 55.9642L29.5182 42.0413V42.0413Z" fill="#E5AA6E"/>
<path d="M33.1117 42.6743C32.9827 42.6743 32.8566 42.636 32.7493 42.5643C32.6421 42.4926 32.5585 42.3907 32.5091 42.2715C32.4598 42.1523 32.4468 42.0212 32.472 41.8947C32.4971 41.7681 32.5592 41.6519 32.6504 41.5606L47.0952 27.1156C47.2184 26.9977 47.383 26.9326 47.5536 26.9345C47.7242 26.9363 47.8872 27.0049 48.0079 27.1256C48.1285 27.2462 48.1971 27.4093 48.199 27.5799C48.2008 27.7505 48.1358 27.915 48.0178 28.0382L33.5728 42.4832C33.5123 42.5439 33.4405 42.592 33.3613 42.6248C33.2822 42.6576 33.1973 42.6745 33.1117 42.6743V42.6743ZM37.263 46.1734L51.708 31.7284C51.8259 31.6052 51.891 31.4406 51.8891 31.27C51.8873 31.0994 51.8187 30.9364 51.698 30.8157C51.5774 30.6951 51.4143 30.6265 51.2437 30.6246C51.0731 30.6228 50.9086 30.6878 50.7854 30.8058L36.3404 45.2508C36.2224 45.374 36.1574 45.5385 36.1592 45.7091C36.1611 45.8797 36.2297 46.0428 36.3503 46.1635C36.4709 46.2841 36.634 46.3527 36.8046 46.3545C36.9752 46.3564 37.1397 46.2914 37.263 46.1734ZM40.953 49.8634L55.398 35.4184C55.516 35.2952 55.581 35.1306 55.5791 34.9601C55.5773 34.7895 55.5087 34.6264 55.388 34.5057C55.2674 34.3851 55.1043 34.3165 54.9337 34.3147C54.7631 34.3128 54.5986 34.3778 54.4754 34.4958L40.0304 48.9408C39.9124 49.064 39.8474 49.2286 39.8492 49.3992C39.8511 49.5698 39.9197 49.7328 40.0403 49.8535C40.161 49.9741 40.324 50.0427 40.4946 50.0446C40.6652 50.0464 40.8298 49.9814 40.953 49.8634Z" fill="#FFB636"/>
<path d="M39.2982 7.45489H18.2436C17.1588 7.45489 16.2793 6.57541 16.2793 5.49055V2.4652C16.2793 1.38033 17.1588 0.500854 18.2436 0.500854H39.2982C40.3831 0.500854 41.2625 1.38033 41.2625 2.4652V5.49055C41.2625 6.57541 40.3831 7.45489 39.2982 7.45489Z" fill="#B9C5C6"/>
</svg>
