<svg width="69" height="69" viewBox="0 0 69 69" fill="none" xmlns="http://www.w3.org/2000/svg">
<path d="M4.02788 17.7772L34.0179 2.82011C34.157 2.75071 34.3103 2.71455 34.4658 2.71448C34.6212 2.71441 34.7746 2.75043 34.9137 2.8197L64.9638 17.7768C65.9135 18.2496 65.5771 19.6804 64.5162 19.6804H4.47611C3.41563 19.6804 3.07886 18.2505 4.02788 17.7772V17.7772ZM65.0648 20.7902H3.93516C3.67781 20.7902 3.43101 20.8924 3.24904 21.0744C3.06707 21.2563 2.96484 21.5031 2.96484 21.7605V29.6666C2.96484 29.924 3.06707 30.1708 3.24904 30.3527C3.43101 30.5347 3.67781 30.6369 3.93516 30.6369H5.99707V60.2071C5.99707 61.2789 6.8659 62.1477 7.9377 62.1477H61.0623C62.1341 62.1477 63.0029 61.2789 63.0029 60.2071V30.6369H65.0648C65.3222 30.6369 65.569 30.5347 65.751 30.3527C65.9329 30.1708 66.0352 29.924 66.0352 29.6666V21.7605C66.0352 21.5031 65.9329 21.2563 65.751 21.0744C65.569 20.8924 65.3222 20.7902 65.0648 20.7902Z" fill="#DADBDC"/>
<path d="M18.7317 60.2071H12.6162V27.627H18.7317V60.2071ZM56.3231 27.627H50.2076V60.2071H56.3231V27.627Z" fill="#767777"/>
<path d="M65.9848 18.2792L34.9916 2.85268C34.8278 2.77111 34.6472 2.72869 34.4642 2.72876C34.2811 2.72883 34.1006 2.77139 33.9368 2.85308L3.00569 18.2796C1.88834 18.8368 2.28496 20.5205 3.53356 20.5205H3.83409C4.01674 20.5204 4.19691 20.4781 4.36048 20.3969L33.9763 5.67696C34.1392 5.596 34.3185 5.5537 34.5004 5.55335C34.6823 5.553 34.8617 5.59461 35.0249 5.67494L64.9355 20.3989C65.098 20.4789 65.2767 20.5205 65.4578 20.5205C66.7068 20.5206 67.1029 18.8357 65.9848 18.2792V18.2792Z" fill="#767777"/>
<path d="M66.8842 18.4783H2.11582C1.85848 18.4783 1.61167 18.5805 1.42971 18.7625C1.24774 18.9444 1.14551 19.1912 1.14551 19.4486V22.1316C1.14551 22.389 1.24774 22.6358 1.42971 22.8177C1.61167 22.9997 1.85848 23.1019 2.11582 23.1019H66.8842C67.1415 23.1019 67.3883 22.9997 67.5703 22.8177C67.7523 22.6358 67.8545 22.389 67.8545 22.1316V19.4486C67.8545 19.1912 67.7523 18.9444 67.5703 18.7625C67.3883 18.5805 67.1415 18.4783 66.8842 18.4783Z" fill="#999999"/>
<path d="M66.8842 27.5284H2.11582C1.85848 27.5284 1.61167 27.6307 1.42971 27.8126C1.24774 27.9946 1.14551 28.2414 1.14551 28.4988V31.1818C1.14551 31.4391 1.24774 31.686 1.42971 31.8679C1.61167 32.0499 1.85848 32.1521 2.11582 32.1521H24.1566V60.2071H5.64021C5.00358 60.2071 4.41384 60.542 4.08758 61.0887L1.63147 65.2052C0.912363 66.4104 1.78079 67.9396 3.18411 67.9396H65.8159C67.2192 67.9396 68.0876 66.4104 67.3685 65.2052L64.9124 61.0887C64.7521 60.82 64.5247 60.5974 64.2525 60.4429C63.9804 60.2884 63.6728 60.2071 63.3598 60.2071H44.7823V32.1521H66.8842C67.1415 32.1521 67.3883 32.0499 67.5703 31.8679C67.7523 31.686 67.8545 31.4391 67.8545 31.1818V28.4988C67.8545 28.2414 67.7523 27.9946 67.5703 27.8126C67.3883 27.6307 67.1415 27.5284 66.8842 27.5284V27.5284Z" fill="#999999"/>
<path d="M24.1543 60.2218L44.7734 60.1949L44.78 65.2298L24.1609 65.2566L24.1543 60.2218Z" fill="#C8CACB"/>
<path d="M47.811 67.9396H21.1274V65.1544C21.1274 64.897 21.2297 64.6502 21.4116 64.4683C21.5936 64.2863 21.8404 64.1841 22.0978 64.1841H46.8407C47.0981 64.1841 47.3449 64.2863 47.5268 64.4683C47.7088 64.6502 47.811 64.897 47.811 65.1544V67.9396V67.9396Z" fill="#EBECED"/>
<path d="M41.7187 60.207H27.2202V46.9577C27.2202 42.5061 30.4658 38.8973 34.4695 38.8973C38.4731 38.8973 41.7188 42.5061 41.7188 46.9577V60.207H41.7187Z" fill="#2B3B47"/>
</svg>
