<svg width="69" height="69" viewBox="0 0 69 69" fill="none" xmlns="http://www.w3.org/2000/svg">
<g clip-path="url(#clip0)">
<path d="M4.60786 13.571H62.3503C64.7145 13.571 66.6245 15.4811 66.6245 17.8453V59.3589C66.6245 61.7231 64.7145 63.6332 62.3503 63.6332H6.74499C4.38079 63.6332 2.47074 61.7231 2.47074 59.3589V17.8453C2.47074 15.4811 2.24367 13.571 4.60786 13.571Z" fill="#597B91"/>
<path d="M64.4878 13.5709H45.2403V10.2316C45.2403 7.86745 43.3302 5.9574 40.9661 5.9574H28.13C25.7658 5.9574 23.8557 7.86745 23.8557 10.2316V13.5575H4.60823C2.24404 13.5575 0.333984 15.4676 0.333984 17.8318V33.6866C0.333984 36.0508 2.24404 37.9608 4.60823 37.9608H64.4878C66.852 37.9608 68.762 36.0508 68.762 33.6866V17.8451C68.7754 15.481 66.852 13.5709 64.4878 13.5709V13.5709ZM28.13 12.3821C28.13 11.2067 29.0917 10.245 30.2671 10.245H38.8156C40.0043 10.245 40.9527 11.2067 40.9527 12.3821V13.5709H28.1166V12.3821H28.13Z" fill="#2B3B47"/>
<path d="M13.1704 51.4916C13.1704 51.7454 13.2238 51.9992 13.3173 52.2263C13.7581 53.2547 15.1072 56.1399 16.4429 56.1399C17.7519 56.1399 19.0341 53.228 19.4482 52.2129C19.5417 51.9858 19.5818 51.7454 19.5818 51.505V14.3992C19.5818 13.3573 18.7269 12.5025 17.6851 12.5025H15.0671C14.0253 12.5025 13.1704 13.3573 13.1704 14.3992V51.4916V51.4916ZM49.5282 14.3992V51.505C49.5282 51.7588 49.5817 52.0125 49.6752 52.2396C50.1159 53.2681 51.465 56.1532 52.8007 56.1532C54.1097 56.1532 55.392 53.2414 55.806 52.2263C55.8995 51.9992 55.9396 51.7588 55.9396 51.5183V14.3992C55.9396 13.3573 55.0848 12.5025 54.0429 12.5025H51.4249C50.3697 12.4891 49.5282 13.344 49.5282 14.3992V14.3992Z" fill="#FFD469"/>
<path d="M13.1303 48.6599H19.6218C20.7838 48.6599 21.7188 47.7249 21.7188 46.5628V44.3456C21.7188 43.1835 20.7838 42.2485 19.6218 42.2485H13.1303C11.9682 42.2485 11.0332 43.1835 11.0332 44.3456V46.5628C11.0332 47.7249 11.9682 48.6599 13.1303 48.6599ZM47.391 44.3456V46.5628C47.391 47.7249 48.326 48.6599 49.4881 48.6599H55.9796C57.1416 48.6599 58.0766 47.7249 58.0766 46.5628V44.3456C58.0766 43.1835 57.1416 42.2485 55.9796 42.2485H49.4881C48.326 42.2485 47.391 43.1835 47.391 44.3456Z" fill="#EDECE6"/>
</g>
<defs>
<clipPath id="clip0">
<rect width="68.388" height="68.388" fill="white" transform="translate(0.333984 0.133789)"/>
</clipPath>
</defs>
</svg>
