<svg width="65" height="65" viewBox="0 0 65 65" fill="none" xmlns="http://www.w3.org/2000/svg">
<path d="M15.3061 38.6447V38.6699C9.7326 39.0302 5.32275 43.6624 5.32275 49.3269C5.32275 54.9914 9.7326 59.6235 15.3061 59.9838V60.0091H25.6512V38.6447H15.3061V38.6447Z" fill="#D32A2A"/>
<path d="M7.24161 22.0289V22.0486C3.38554 22.3288 0.334473 25.9313 0.334473 30.3369C0.334473 34.7424 3.38541 38.3448 7.24161 38.6251V38.6448H14.3991V22.0289H7.24161Z" fill="#132028"/>
<path d="M18.4432 3.40344V3.42541C14.1207 3.73949 10.7007 7.77774 10.7007 12.7161C10.7007 17.6544 14.1207 21.6927 18.4432 22.0068V22.0287H27.8872V3.40344H18.4432V3.40344Z" fill="#005877"/>
<path d="M58.2298 18.0364V7.396C58.2298 7.12798 58.3363 6.87095 58.5258 6.68143C58.7153 6.49192 58.9724 6.38545 59.2404 6.38545H61.362C61.63 6.38545 61.8871 6.27898 62.0766 6.08947C62.2661 5.89995 62.3726 5.64292 62.3726 5.3749V4.41387C62.3726 4.14585 62.2661 3.88882 62.0766 3.6993C61.8871 3.50979 61.63 3.40332 61.362 3.40332H28.8899C28.6219 3.40332 28.3649 3.50979 28.1754 3.6993C27.9859 3.88882 27.8794 4.14585 27.8794 4.41387V21.0183C27.8794 21.2863 27.9859 21.5434 28.1754 21.7329C28.3649 21.9224 28.6219 22.0289 28.8899 22.0289H61.362C61.63 22.0289 61.8871 21.9224 62.0766 21.7329C62.2661 21.5434 62.3726 21.2863 62.3726 21.0183V20.0573C62.3726 19.7893 62.2661 19.5322 62.0766 19.3427C61.8871 19.1532 61.63 19.0467 61.362 19.0467H59.2404C59.1077 19.0468 58.9763 19.0207 58.8537 18.9699C58.7311 18.9191 58.6197 18.8447 58.5258 18.7509C58.432 18.6571 58.3575 18.5457 58.3068 18.4231C58.256 18.3005 58.2298 18.1691 58.2298 18.0364V18.0364Z" fill="#00B1FF"/>
<path d="M53.0414 25.1192H59.4543C60.2128 25.1192 60.8278 24.6452 60.8278 24.0603V23.0877C60.8278 22.503 60.2128 22.0288 59.4543 22.0288H14.1191V22.0539C10.344 22.3698 7.3667 25.956 7.3667 30.3366C7.3667 34.7173 10.344 38.3034 14.1191 38.6193V38.6444H59.4543C60.2128 38.6444 60.8278 38.1704 60.8278 37.5855V36.5237C60.8278 35.9389 60.2128 35.4648 59.4543 35.4648H53.0414C52.2828 35.4648 51.6679 34.9907 51.6679 34.4058V26.1778C51.6679 25.5933 52.2828 25.1192 53.0414 25.1192Z" fill="#445056"/>
<path d="M57.6782 35.465L57.4097 35.2168C57.3794 35.1865 57.3553 35.1506 57.3389 35.111C57.3225 35.0714 57.3141 35.029 57.3141 34.9861C57.3141 34.9433 57.3225 34.9008 57.3389 34.8612C57.3553 34.8216 57.3794 34.7857 57.4097 34.7554L57.7009 34.4641C57.7312 34.4338 57.7553 34.3979 57.7717 34.3583C57.7881 34.3187 57.7965 34.2763 57.7965 34.2334C57.7965 34.1905 57.7881 34.1481 57.7717 34.1085C57.7553 34.0689 57.7312 34.033 57.7009 34.0027L57.4097 33.7114C57.3794 33.6811 57.3553 33.6452 57.3389 33.6056C57.3225 33.566 57.3141 33.5235 57.3141 33.4807C57.3141 33.4378 57.3225 33.3954 57.3389 33.3558C57.3553 33.3162 57.3794 33.2803 57.4097 33.25L57.7009 32.9587C57.7312 32.9284 57.7553 32.8925 57.7717 32.8529C57.7881 32.8133 57.7965 32.7708 57.7965 32.728C57.7965 32.6851 57.7881 32.6427 57.7717 32.6031C57.7553 32.5635 57.7312 32.5276 57.7009 32.4973L57.4097 32.206C57.3794 32.1757 57.3553 32.1398 57.3389 32.1002C57.3225 32.0606 57.3141 32.0181 57.3141 31.9753C57.3141 31.9324 57.3225 31.89 57.3389 31.8504C57.3553 31.8108 57.3794 31.7748 57.4097 31.7445L57.7009 31.4533C57.7312 31.423 57.7553 31.387 57.7717 31.3475C57.7881 31.3079 57.7965 31.2654 57.7965 31.2226C57.7965 31.1797 57.7881 31.1373 57.7717 31.0977C57.7553 31.0581 57.7312 31.0221 57.7009 30.9918L57.4097 30.7006C57.3794 30.6703 57.3553 30.6343 57.3389 30.5948C57.3225 30.5552 57.3141 30.5127 57.3141 30.4699C57.3141 30.427 57.3225 30.3846 57.3389 30.345C57.3553 30.3054 57.3794 30.2694 57.4097 30.2391L57.7009 29.9479C57.7312 29.9176 57.7553 29.8816 57.7717 29.842C57.7881 29.8025 57.7965 29.76 57.7965 29.7172C57.7965 29.6743 57.7881 29.6319 57.7717 29.5923C57.7553 29.5527 57.7312 29.5167 57.7009 29.4864L57.4097 29.1952C57.3794 29.1649 57.3553 29.1289 57.3389 29.0893C57.3225 29.0498 57.3141 29.0073 57.3141 28.9645C57.3141 28.9216 57.3225 28.8792 57.3389 28.8396C57.3553 28.8 57.3794 28.764 57.4097 28.7337L57.7009 28.4425C57.7312 28.4122 57.7553 28.3762 57.7717 28.3366C57.7881 28.297 57.7965 28.2546 57.7965 28.2118C57.7965 28.1689 57.7881 28.1265 57.7717 28.0869C57.7553 28.0473 57.7312 28.0113 57.7009 27.981L57.4097 27.6898C57.3794 27.6595 57.3553 27.6235 57.3389 27.5839C57.3225 27.5443 57.3141 27.5019 57.3141 27.4591C57.3141 27.4162 57.3225 27.3738 57.3389 27.3342C57.3553 27.2946 57.3794 27.2586 57.4097 27.2283L57.7009 26.9371C57.7312 26.9068 57.7553 26.8708 57.7717 26.8312C57.7881 26.7916 57.7965 26.7492 57.7965 26.7063C57.7965 26.6635 57.7881 26.6211 57.7717 26.5815C57.7553 26.5419 57.7312 26.5059 57.7009 26.4756L57.4097 26.1844C57.3794 26.1541 57.3553 26.1181 57.3389 26.0785C57.3225 26.0389 57.3141 25.9965 57.3141 25.9536C57.3141 25.9108 57.3225 25.8684 57.3389 25.8288C57.3553 25.7892 57.3794 25.7532 57.4097 25.7229L57.7009 25.4317C57.8284 25.3042 57.8284 25.2411 57.7009 25.1138L57.179 25.1184H15.9825C15.6035 24.9935 15.2071 24.9297 14.8082 24.9293C12.3743 24.9293 10.4014 27.2684 10.4014 30.154C10.4014 33.0395 12.3743 35.3786 14.8082 35.3786V35.4847H57.1791" fill="#DCE2E2"/>
<path d="M27.8795 3.40344C22.7363 3.40344 18.5669 7.57284 18.5669 12.7161C18.5669 17.8593 22.7363 22.0287 27.8795 22.0287H32.5359V3.40344H27.8795V3.40344Z" fill="#0074A8"/>
<path d="M60.8073 8.49355C60.8376 8.46326 60.8616 8.42729 60.878 8.3877C60.8944 8.3481 60.9029 8.30567 60.9029 8.26282C60.9029 8.21996 60.8944 8.17753 60.878 8.13794C60.8616 8.09835 60.8376 8.06238 60.8073 8.03208L60.5161 7.74085C60.4858 7.71055 60.4617 7.67458 60.4453 7.63499C60.4289 7.5954 60.4205 7.55297 60.4205 7.51011C60.4205 7.46726 60.4289 7.42483 60.4453 7.38524C60.4617 7.34564 60.4858 7.30967 60.5161 7.27938L60.8073 6.98814C60.9348 6.86068 60.9552 6.51296 60.8279 6.3855H28.3175C24.8212 6.3855 21.9868 9.21985 21.9868 12.7161C21.9868 16.2124 24.8212 19.0468 28.3175 19.0468H60.8087C60.9362 18.9193 60.9349 18.6972 60.8074 18.5697L60.5162 18.2785C60.4859 18.2482 60.4619 18.2122 60.4454 18.1726C60.429 18.133 60.4206 18.0906 60.4206 18.0477C60.4206 18.0049 60.429 17.9624 60.4454 17.9229C60.4619 17.8833 60.4859 17.8473 60.5162 17.817L60.8074 17.5258C60.8377 17.4955 60.8618 17.4595 60.8782 17.4199C60.8946 17.3803 60.903 17.3379 60.903 17.295C60.903 17.2522 60.8946 17.2097 60.8782 17.1701C60.8618 17.1306 60.8377 17.0946 60.8074 17.0643L60.5162 16.7731C60.4859 16.7428 60.4619 16.7068 60.4454 16.6672C60.429 16.6276 60.4206 16.5852 60.4206 16.5423C60.4206 16.4995 60.429 16.457 60.4454 16.4174C60.4619 16.3779 60.4859 16.3419 60.5162 16.3116L60.8074 16.0204C60.8377 15.9901 60.8618 15.9541 60.8782 15.9145C60.8946 15.8749 60.903 15.8325 60.903 15.7896C60.903 15.7468 60.8946 15.7043 60.8782 15.6647C60.8618 15.6251 60.8377 15.5892 60.8074 15.5589L60.5162 15.2676C60.4859 15.2373 60.4619 15.2014 60.4454 15.1618C60.429 15.1222 60.4206 15.0798 60.4206 15.0369C60.4206 14.9941 60.429 14.9516 60.4454 14.912C60.4619 14.8724 60.4859 14.8365 60.5162 14.8062L60.8074 14.5149C60.8377 14.4846 60.8618 14.4487 60.8782 14.4091C60.8946 14.3695 60.903 14.3271 60.903 14.2842C60.903 14.2414 60.8946 14.1989 60.8782 14.1593C60.8618 14.1197 60.8377 14.0838 60.8074 14.0535L60.5162 13.7622C60.4859 13.7319 60.4619 13.696 60.4454 13.6564C60.429 13.6168 60.4206 13.5744 60.4206 13.5315C60.4206 13.4886 60.429 13.4462 60.4454 13.4066C60.4619 13.367 60.4859 13.3311 60.5162 13.3008L60.8074 13.0095C60.8377 12.9792 60.8618 12.9433 60.8782 12.9037C60.8946 12.8641 60.903 12.8216 60.903 12.7788C60.903 12.7359 60.8946 12.6935 60.8782 12.6539C60.8618 12.6143 60.8377 12.5784 60.8074 12.5481L60.5162 12.2568C60.4859 12.2265 60.4619 12.1906 60.4454 12.151C60.429 12.1114 60.4206 12.0689 60.4206 12.0261C60.4206 11.9832 60.429 11.9408 60.4454 11.9012C60.4619 11.8616 60.4859 11.8256 60.5162 11.7954L60.8074 11.5041C60.8377 11.4738 60.8618 11.4379 60.8782 11.3983C60.8946 11.3587 60.903 11.3162 60.903 11.2734C60.903 11.2305 60.8946 11.1881 60.8782 11.1485C60.8618 11.1089 60.8377 11.0729 60.8074 11.0426L60.5162 10.7514C60.4859 10.7211 60.4619 10.6851 60.4454 10.6456C60.429 10.606 60.4206 10.5635 60.4206 10.5207C60.4206 10.4778 60.429 10.4354 60.4454 10.3958C60.4619 10.3562 60.4859 10.3202 60.5162 10.2899L60.8074 9.99871C60.8377 9.96841 60.8618 9.93244 60.8782 9.89285C60.8946 9.85326 60.903 9.81083 60.903 9.76797C60.903 9.72512 60.8946 9.68269 60.8782 9.6431C60.8618 9.60351 60.8377 9.56753 60.8074 9.53724L60.5162 9.24601C60.4859 9.21571 60.4619 9.17974 60.4454 9.14015C60.429 9.10056 60.4206 9.05812 60.4206 9.01527C60.4206 8.97241 60.429 8.92998 60.4454 8.89039C60.4619 8.8508 60.4859 8.81483 60.5162 8.78453L60.8073 8.49355V8.49355Z" fill="#DCE2E2"/>
<path d="M60.7866 42.0652H63.2203C63.5277 42.0652 63.8225 41.943 64.0398 41.7257C64.2572 41.5083 64.3793 41.2135 64.3793 40.9061V39.8037C64.3793 39.4963 64.2572 39.2015 64.0398 38.9841C63.8225 38.7668 63.5277 38.6447 63.2203 38.6447H24.4635C24.3654 38.645 24.2678 38.6578 24.173 38.6829C23.8841 38.6585 23.5943 38.6457 23.3043 38.6447C17.4046 38.6447 12.6221 43.4272 12.6221 49.3269C12.6221 55.2265 17.4046 60.0091 23.3043 60.0091C23.5943 60.008 23.8841 59.9953 24.173 59.9709C24.2678 59.9958 24.3654 60.0087 24.4635 60.0091H63.2201C63.5275 60.0091 63.8224 59.887 64.0397 59.6696C64.2571 59.4522 64.3792 59.1574 64.3792 58.85V57.7477C64.3792 57.4403 64.2571 57.1455 64.0397 56.9281C63.8224 56.7107 63.5275 56.5886 63.2201 56.5886H60.7864C60.479 56.5886 60.1842 56.4665 59.9668 56.2491C59.7495 56.0317 59.6274 55.7369 59.6274 55.4295V43.2244C59.6275 42.5841 60.1465 42.0652 60.7866 42.0652V42.0652Z" fill="#FF473E"/>
<path d="M62.6273 44.548C62.6946 44.4807 62.7324 44.3894 62.7324 44.2942C62.7324 44.199 62.6946 44.1076 62.6273 44.0403L62.307 43.72C62.2396 43.6527 62.2018 43.5614 62.2018 43.4662C62.2018 43.371 62.2396 43.2797 62.307 43.2123L62.6273 42.892C62.6946 42.8247 62.7324 42.7334 62.7324 42.6382C62.7324 42.543 62.6946 42.4517 62.6273 42.3843L62.3162 42.0653H23.8065C19.7961 42.0653 16.5449 45.3165 16.5449 49.3269C16.5449 53.3374 19.7961 56.5885 23.8065 56.5885H62.18L62.6273 56.1412C62.6946 56.0739 62.7324 55.9826 62.7324 55.8874C62.7324 55.7922 62.6946 55.7009 62.6273 55.6336L62.307 55.3133C62.2396 55.2459 62.2018 55.1546 62.2018 55.0594C62.2018 54.9642 62.2396 54.8729 62.307 54.8056L62.6273 54.4853C62.6945 54.4179 62.7323 54.3266 62.7323 54.2314C62.7323 54.1361 62.6945 54.0448 62.6273 53.9775L62.307 53.6572C62.2396 53.5898 62.2018 53.4985 62.2018 53.4033C62.2018 53.3081 62.2396 53.2168 62.307 53.1495L62.6273 52.8292C62.6946 52.7618 62.7324 52.6705 62.7324 52.5753C62.7324 52.4801 62.6946 52.3888 62.6273 52.3215L62.307 52.0012C62.2397 51.9338 62.2019 51.8425 62.2019 51.7473C62.2019 51.6521 62.2397 51.5607 62.307 51.4934L62.6273 51.1731C62.6946 51.1057 62.7324 51.0144 62.7324 50.9192C62.7324 50.824 62.6946 50.7327 62.6273 50.6654L62.307 50.3451C62.2396 50.2777 62.2018 50.1864 62.2018 50.0912C62.2018 49.996 62.2396 49.9047 62.307 49.8374L62.6273 49.5171C62.6945 49.4497 62.7323 49.3584 62.7323 49.2632C62.7323 49.168 62.6945 49.0766 62.6273 49.0093L62.307 48.689C62.2396 48.6216 62.2018 48.5303 62.2018 48.4351C62.2018 48.3399 62.2396 48.2486 62.307 48.1813L62.6273 47.861C62.6946 47.7936 62.7324 47.7023 62.7324 47.6071C62.7324 47.5119 62.6946 47.4206 62.6273 47.3533L62.307 47.033C62.2396 46.9657 62.2018 46.8743 62.2018 46.7791C62.2018 46.6839 62.2396 46.5926 62.307 46.5253L62.6273 46.205C62.6946 46.1377 62.7324 46.0464 62.7324 45.9512C62.7324 45.8559 62.6946 45.7646 62.6273 45.6973L62.307 45.377C62.2396 45.3097 62.2018 45.2184 62.2018 45.1232C62.2018 45.028 62.2396 44.9367 62.307 44.8693L62.6273 44.548V44.548Z" fill="#DCE2E2"/>
</svg>
