<svg width="69" height="67" viewBox="0 0 69 67" fill="none" xmlns="http://www.w3.org/2000/svg">
<g clip-path="url(#clip0)">
<path d="M9.19141 50.2814H20.4309V52.3699H9.19141V50.2814Z" fill="white"/>
<path d="M1.34766 1.30859H67.6523V45.4501H1.34766V1.30859Z" fill="#26A69A"/>
<path d="M66.3047 2.61719V44.1415H2.69531V2.61719H66.3047ZM69 0H0V46.7587H69V0Z" fill="#5D4037"/>
<path d="M8.66848 59.3944C5.15918 47.7008 5.15918 23.7222 5.15918 23.7222L50.4404 23.5494C50.4404 23.5494 50.4404 45.2669 47.8098 59.2426L8.66848 59.3944V59.3944Z" fill="#312D2D"/>
<path d="M27.7998 44.7801C40.3039 44.7801 50.4404 35.5233 50.4404 24.1044C50.4404 12.6854 40.3039 3.42859 27.7998 3.42859C15.2957 3.42859 5.15918 12.6854 5.15918 24.1044C5.15918 35.5233 15.2957 44.7801 27.7998 44.7801Z" fill="#312D2D"/>
<path d="M4.3125 61.7813V67H51.2864V61.7813C51.2864 53.8407 39.7559 49.8103 27.9773 49.826C16.2743 49.8364 4.3125 53.3696 4.3125 61.7813Z" fill="#546E7A"/>
<path d="M27.7726 47.2036H22.8779V52.2234C22.8779 54.4951 24.8725 56.3376 27.3306 56.3376H28.22C30.6782 56.3376 32.6727 54.4951 32.6727 52.2234V47.2036H27.7726V47.2036Z" fill="#DBA689"/>
<path d="M27.7397 7.07166C14.6135 7.07166 11.1797 16.9489 11.1797 30.8305C11.1797 44.7068 21.3626 48.9414 27.7397 48.9414C34.1168 48.9414 44.2997 44.7068 44.2997 30.8305C44.2997 16.9489 40.8659 7.07166 27.7397 7.07166V7.07166Z" fill="#FADCBC"/>
<path d="M32.7753 40.8544H27.7997H22.8242C22.2528 40.8544 22.0102 41.226 22.3876 41.7861C22.9158 42.566 24.8726 44.0683 27.7997 44.0683C30.7269 44.0683 32.6837 42.566 33.2119 41.7861C33.5893 41.226 33.3467 40.8544 32.7753 40.8544V40.8544Z" fill="#262626"/>
<path d="M22.1392 31.7517C22.1392 33.2383 21.115 34.4474 19.8428 34.4474C18.576 34.4474 17.541 33.2435 17.541 31.7517C17.541 30.2599 18.5706 29.056 19.8428 29.056C21.115 29.056 22.1392 30.2599 22.1392 31.7517" fill="#262626"/>
<path d="M33.46 31.7517C33.46 33.2383 34.4842 34.4474 35.7618 34.4474C37.0285 34.4474 38.0582 33.2435 38.0582 31.7517C38.0582 30.2599 37.0285 29.056 35.7618 29.056C34.4842 29.056 33.46 30.2599 33.46 31.7517" fill="#262626"/>
<path d="M30.1762 36.7453C29.3299 36.9756 28.4512 37.0908 27.772 37.0908C27.0928 37.0908 26.2141 36.9756 25.3678 36.7453C25.0066 36.6458 24.8611 36.9808 24.9958 37.2007C25.2654 37.6613 26.3435 38.5826 27.772 38.5826C29.2005 38.5826 30.2786 37.6561 30.5482 37.2007C30.6775 36.9808 30.5374 36.6458 30.1762 36.7453Z" fill="#DBA689"/>
<path d="M32.6883 17.9853C30.9471 19.6132 22.2898 27.1874 10.3604 29.1607V13.6356C10.3604 13.6356 15.5084 3.71643 27.8637 3.71643C40.219 3.71643 45.3671 13.8868 45.3671 13.8868V29.166C45.3671 29.166 37.2703 26.151 33.2058 18.0848C33.1851 18.0387 33.1531 17.9981 33.1127 17.9666C33.0723 17.9351 33.0247 17.9135 32.9738 17.9038C32.923 17.894 32.8705 17.8963 32.8208 17.9105C32.771 17.9247 32.7256 17.9504 32.6883 17.9853V17.9853Z" fill="#312D2D"/>
<path d="M24.1445 55.0709H31.5027L27.7401 70.4286L24.1445 55.0709Z" fill="#455A64"/>
<path d="M16.9531 59.9283L21.1632 56.6935L16.1445 54.7568L22.8181 49.6323L27.7398 70.4285L16.9531 59.9283Z" fill="#E0E0E0"/>
<path d="M34.403 56.6307L38.6994 59.9283L27.7402 70.4285L32.8344 49.6323L39.508 54.7568L34.403 56.6307Z" fill="#E0E0E0"/>
<path d="M21.8646 26.7843H15.4767C15.2934 26.7843 15.1101 26.8 14.9322 26.8209C15.3527 26.889 15.7139 27.1088 15.9511 27.4124H21.8592C23.7189 27.4124 25.2337 28.7734 25.2337 30.4484V33.4267C25.2337 35.1017 23.7189 36.4627 21.8592 36.4627H15.4767C13.6169 36.4627 12.1021 35.1017 12.1021 33.4267V30.8671H11.6278C11.5523 30.8671 11.4768 30.8566 11.4014 30.8462V33.4267C11.4014 35.4472 13.2288 37.0908 15.4713 37.0908H21.8592C24.1017 37.0908 25.9291 35.4472 25.9291 33.4267V30.4484C25.9345 28.4279 24.1071 26.7843 21.8646 26.7843Z" fill="#231F20" stroke="#231F20" stroke-width="0.481" stroke-miterlimit="10"/>
<path d="M14.9319 26.821C14.8348 26.8053 14.7378 26.7948 14.6408 26.7948H11.6274C10.7434 26.7948 10.0156 27.4439 10.0156 28.2447V29.4225C10.0156 30.15 10.6194 30.752 11.401 30.8514V30.4536C11.401 28.5954 12.9427 27.0618 14.9319 26.821V26.821Z" fill="black"/>
<path d="M12.1016 30.8672V30.4485C12.1016 28.7735 13.6164 27.4125 15.4762 27.4125H15.9559C15.7188 27.1089 15.3576 26.8891 14.9371 26.821C12.948 27.0618 11.4062 28.5955 11.4062 30.4485V30.8463C11.4817 30.8567 11.5518 30.8672 11.6327 30.8672H12.1016V30.8672Z" fill="black" stroke="black" stroke-width="0.481" stroke-miterlimit="10"/>
<path d="M33.5299 26.7843H39.9178C40.1011 26.7843 40.2843 26.8 40.4622 26.8209C40.0418 26.889 39.6806 27.1088 39.4434 27.4124H33.5299C31.6701 27.4124 30.1553 28.7734 30.1553 30.4484V33.4267C30.1553 35.1017 31.6701 36.4627 33.5299 36.4627H39.9178C41.7775 36.4627 43.2923 35.1017 43.2923 33.4267V30.8671H43.7667C43.8421 30.8671 43.9176 30.8566 43.9931 30.8462V33.4267C43.9931 35.4472 42.1657 37.0908 39.9232 37.0908H33.5299C31.2874 37.0908 29.46 35.4472 29.46 33.4267V30.4484C29.46 28.4279 31.282 26.7843 33.5299 26.7843Z" fill="#231F20" stroke="#231F20" stroke-width="0.481" stroke-miterlimit="10"/>
<path d="M40.4624 26.8209C40.5594 26.8051 40.6565 26.7947 40.7535 26.7947H43.7669C44.6509 26.7947 45.3786 27.4437 45.3786 28.2446V29.4223C45.3786 30.1499 44.7749 30.7519 43.9933 30.8513V30.4535C43.9879 28.5953 42.4515 27.0616 40.4624 26.8209V26.8209Z" fill="black"/>
<path d="M43.2928 30.8666V30.4479C43.2928 28.7729 41.778 27.4119 39.9182 27.4119H39.4385C39.6757 27.1083 40.0368 26.8885 40.4573 26.8204C42.4464 27.0612 43.9882 28.5949 43.9882 30.4479V30.8457C43.9127 30.8561 43.8426 30.8666 43.7618 30.8666H43.2928V30.8666Z" fill="black" stroke="black" stroke-width="0.481" stroke-miterlimit="10"/>
<path d="M29.8482 30.8672H25.4494L24.8564 28.1191H30.495L29.8482 30.8672Z" fill="#231F20"/>
<path d="M58.1109 60.7973L56.3535 60.4675L64.0891 24.9628H64.7629L58.1109 60.7973Z" fill="#EF4136"/>
<path d="M55.8414 56.8191C56.5854 56.9971 57.0651 57.5101 57.4047 58.1487C58.2349 58.0021 59.6742 57.8555 60.0893 57.866C60.5798 57.8817 61.2375 57.934 61.3453 58.9181C61.4154 59.5567 61.1674 60.0854 60.3211 60.1587C60.0084 60.1848 59.6796 60.2058 59.3615 60.2215L59.4747 60.5774C59.7658 60.5722 60.0354 60.5669 60.2348 60.5617C61.0919 60.5512 61.5717 60.9909 61.5717 61.8703C61.5717 62.6397 60.8871 63.0009 60.3911 63.0323C60.127 63.048 59.3885 63.0062 58.6607 62.9433L58.5853 63.0951L58.5529 63.1422C59.0111 63.2103 59.4532 63.2836 59.7604 63.3359C60.596 63.4772 60.9895 64.0164 60.8979 64.655C60.7847 65.4297 60.0677 65.6443 59.5772 65.6286C59.2106 65.6181 57.9114 65.4244 57.0436 65.2412L56.8765 65.4768C56.9357 65.4872 57.0004 65.4977 57.0705 65.5082C57.0813 65.5082 57.0921 65.5134 57.1029 65.5134C57.1622 65.5239 57.2215 65.5291 57.2807 65.5396C57.2915 65.5396 57.3077 65.5448 57.3185 65.5448L57.5287 65.5762H57.5395C57.615 65.5867 57.6904 65.6024 57.7605 65.6129C57.7767 65.6129 57.7875 65.6181 57.8036 65.6181L57.9761 65.6495C57.9977 65.6547 58.0247 65.66 58.0462 65.66C58.0947 65.6705 58.1432 65.6757 58.1918 65.6862L58.2672 65.7019C58.3157 65.7123 58.3643 65.7176 58.4074 65.728C58.4289 65.7333 58.4505 65.7385 58.4775 65.7385C58.5422 65.749 58.6122 65.7647 58.6769 65.7751C59.437 65.9269 59.7281 66.2672 59.6364 66.8534C59.5071 67.6752 58.65 67.8584 58.2025 67.8165C57.7497 67.7747 56.2242 67.4711 55.7229 67.2617C55.6905 67.246 55.6582 67.2303 55.6312 67.2146L55.4587 67.4606C53.2162 67.314 51.6044 66.4085 51.6044 66.4085C50.2891 65.6914 50.0681 65.1365 49.8471 64.2624C49.5991 63.2679 49.6584 62.0849 49.6692 61.8965C49.75 59.9126 50.2029 58.6302 51.8524 57.5624C52.2513 57.3059 52.8335 56.8558 54.1272 56.7092C54.6286 56.6621 55.3455 56.6987 55.8414 56.8191V56.8191Z" fill="#FADCBC"/>
<path d="M57.7118 60.1116C57.7118 60.1116 57.7334 59.1119 57.4046 58.1487L57.7657 58.0859C57.7657 58.0859 58.0191 58.7716 58.1107 59.7923C58.1269 59.9598 58.1323 60.1064 58.1323 60.253L58.4503 60.232L60.5904 60.1169C60.5904 60.1169 60.4287 60.1483 60.4287 60.3786C60.4287 60.4728 60.488 60.5409 60.5365 60.5775C60.4449 60.567 60.3478 60.5618 60.2454 60.5618L58.1215 60.6141C58.1161 60.6717 58.1161 60.7293 58.1107 60.7921C58.0622 61.6348 57.8574 62.4462 57.3722 62.755C58.9786 62.9382 60.4017 63.0324 60.4017 63.0324C60.1214 63.1423 60.24 63.4721 60.24 63.4721C59.1619 63.1842 56.5367 63.0377 56.5367 63.0377C55.4316 62.9434 55.2806 63.671 55.2806 63.671C55.0758 64.5452 56.0623 64.9482 56.0623 64.9482C56.1917 65.0215 57.3668 65.2466 58.197 65.4036L59.0325 65.5554L59.2697 65.5973C59.2428 65.592 59.1457 65.5868 59.108 65.7491C59.0918 65.8276 59.108 65.8799 59.1242 65.9166C59.0002 65.8642 58.8492 65.8171 58.6767 65.7805C58.2832 65.7019 57.0919 65.5135 57.0003 65.4978L56.7038 65.4559C55.7173 65.3303 55.4747 65.503 55.4747 65.503C54.9249 65.7857 55.0812 66.4609 55.0812 66.4609C55.1998 67.11 55.9437 67.3194 55.9437 67.3194C56.2294 67.4031 57.7334 67.7538 57.7334 67.7538L55.4531 67.4659C55.2914 67.4136 55.2321 67.3455 55.1459 67.2775C54.3427 66.6389 54.6823 65.77 54.6823 65.77C54.8063 65.435 55.065 65.2884 55.065 65.2884C55.2214 65.1942 55.3992 65.1471 55.5825 65.1262C54.6499 64.6446 54.8009 63.6815 54.8009 63.6815C54.9195 63.0848 55.3615 62.8335 55.7173 62.7288C55.6849 62.7027 55.6526 62.6817 55.6203 62.6503C55.6203 62.6503 55.0219 62.2682 55.2429 60.6246C55.3184 60.075 55.3076 59.9965 55.2483 59.651C55.2483 59.651 55.0327 58.9077 54.3966 59.1433C54.3966 59.1433 54.181 59.1956 53.8467 59.4521C53.8467 59.4521 53.5772 59.6562 53.5826 59.337C53.5826 59.2427 53.6527 59.07 53.7874 58.913C53.7874 58.913 53.9276 58.7507 54.2672 58.6617C54.2672 58.6617 55.1567 58.3162 55.6041 59.1852C55.8359 59.6405 55.7928 59.9441 55.7227 60.4048C55.7227 60.4048 55.5825 61.8704 55.9814 62.3415C55.9814 62.3415 56.3696 62.7759 56.9949 62.509C56.9895 62.5037 57.8358 62.0536 57.7118 60.1116V60.1116Z" fill="#DBA689"/>
</g>
<defs>
<clipPath id="clip0">
<rect width="69" height="67" fill="white"/>
</clipPath>
</defs>
</svg>
