<svg width="69" height="69" viewBox="0 0 69 69" fill="none" xmlns="http://www.w3.org/2000/svg">
<path d="M66.8904 32.12H2.10908C1.03729 32.12 0.168457 32.9888 0.168457 34.0606V66.9246C0.168457 67.9964 1.03729 68.8652 2.10908 68.8652H66.8904C67.9622 68.8652 68.831 67.9964 68.831 66.9246V34.0606C68.831 32.9888 67.9622 32.12 66.8904 32.12Z" fill="#FFB636"/>
<path d="M59.3197 46.697H56.9464C56.689 46.697 56.4422 46.5948 56.2603 46.4128C56.0783 46.2308 55.9761 45.984 55.9761 45.7267V39.4159C55.9761 39.1585 56.0783 38.9117 56.2603 38.7298C56.4422 38.5478 56.689 38.4456 56.9464 38.4456H59.3197C59.5771 38.4456 59.8239 38.5478 60.0059 38.7298C60.1878 38.9117 60.2901 39.1585 60.2901 39.4159V45.7267C60.2901 45.984 60.1878 46.2308 60.0059 46.4128C59.8239 46.5948 59.5771 46.697 59.3197 46.697ZM66.5088 45.7267V39.4159C66.5088 39.1585 66.4066 38.9117 66.2246 38.7298C66.0427 38.5478 65.7958 38.4456 65.5385 38.4456H63.1651C62.9078 38.4456 62.661 38.5478 62.479 38.7298C62.2971 38.9117 62.1948 39.1585 62.1948 39.4159V45.7267C62.1948 45.984 62.2971 46.2308 62.479 46.4128C62.661 46.5948 62.9078 46.697 63.1651 46.697H65.5385C65.7958 46.697 66.0427 46.5948 66.2246 46.4128C66.4066 46.2308 66.5088 45.984 66.5088 45.7267ZM7.1924 45.7267V39.4159C7.1924 39.1585 7.09017 38.9117 6.9082 38.7298C6.72623 38.5478 6.47943 38.4456 6.22209 38.4456H3.84873C3.59139 38.4456 3.34458 38.5478 3.16262 38.7298C2.98065 38.9117 2.87842 39.1585 2.87842 39.4159V45.7267C2.87842 45.984 2.98065 46.2308 3.16262 46.4128C3.34458 46.5948 3.59139 46.697 3.84873 46.697H6.22209C6.34951 46.697 6.47569 46.6719 6.59341 46.6231C6.71113 46.5744 6.8181 46.5029 6.9082 46.4128C6.9983 46.3227 7.06978 46.2157 7.11854 46.098C7.1673 45.9803 7.1924 45.8541 7.1924 45.7267V45.7267ZM13.4112 45.7267V39.4159C13.4112 39.1585 13.3089 38.9117 13.127 38.7298C12.945 38.5478 12.6982 38.4456 12.4408 38.4456H10.0676C9.81028 38.4456 9.56348 38.5478 9.38151 38.7298C9.19954 38.9117 9.09731 39.1585 9.09731 39.4159V45.7267C9.09731 45.984 9.19954 46.2308 9.38151 46.4128C9.56348 46.5948 9.81028 46.697 10.0676 46.697H12.441C12.6983 46.6969 12.9451 46.5947 13.127 46.4127C13.3089 46.2308 13.4112 45.984 13.4112 45.7267V45.7267ZM7.1924 53.233V51.125C7.1924 50.9976 7.1673 50.8714 7.11854 50.7537C7.06978 50.6359 6.9983 50.529 6.9082 50.4389C6.8181 50.3488 6.71113 50.2773 6.59341 50.2285C6.47569 50.1798 6.34951 50.1547 6.22209 50.1547H3.84873C3.59139 50.1547 3.34458 50.2569 3.16262 50.4389C2.98065 50.6208 2.87842 50.8676 2.87842 51.125V53.233C2.87842 53.4903 2.98065 53.7371 3.16262 53.9191C3.34458 54.1011 3.59139 54.2033 3.84873 54.2033H6.22209C6.34951 54.2033 6.47569 54.1782 6.59341 54.1294C6.71113 54.0807 6.8181 54.0092 6.9082 53.9191C6.9983 53.829 7.06978 53.722 7.11854 53.6043C7.1673 53.4866 7.1924 53.3604 7.1924 53.233V53.233ZM13.4112 53.233V51.125C13.4112 50.8676 13.3089 50.6208 13.127 50.4389C12.945 50.2569 12.6982 50.1547 12.4408 50.1547H10.0676C9.81028 50.1547 9.56348 50.2569 9.38151 50.4389C9.19954 50.6208 9.09731 50.8676 9.09731 51.125V53.233C9.09731 53.4903 9.19954 53.7371 9.38151 53.9191C9.56348 54.1011 9.81028 54.2033 10.0676 54.2033H12.441C12.6983 54.2033 12.9451 54.101 13.127 53.919C13.3089 53.7371 13.4112 53.4903 13.4112 53.233V53.233ZM7.1924 60.515V58.407C7.1924 58.2796 7.1673 58.1534 7.11854 58.0357C7.06978 57.918 6.9983 57.811 6.9082 57.7209C6.8181 57.6308 6.71113 57.5593 6.59341 57.5106C6.47569 57.4618 6.34951 57.4367 6.22209 57.4367H3.84873C3.59139 57.4367 3.34458 57.5389 3.16262 57.7209C2.98065 57.9029 2.87842 58.1497 2.87842 58.407V60.515C2.87842 60.7724 2.98065 61.0192 3.16262 61.2011C3.34458 61.3831 3.59139 61.4854 3.84873 61.4854H6.22209C6.34951 61.4854 6.47569 61.4602 6.59341 61.4115C6.71113 61.3627 6.8181 61.2913 6.9082 61.2011C6.9983 61.111 7.06978 61.0041 7.11854 60.8864C7.1673 60.7686 7.1924 60.6425 7.1924 60.515V60.515ZM13.4112 60.515V58.407C13.4112 58.1497 13.3089 57.9029 13.127 57.7209C12.945 57.5389 12.6982 57.4367 12.4408 57.4367H10.0676C9.81028 57.4367 9.56348 57.5389 9.38151 57.7209C9.19954 57.9029 9.09731 58.1497 9.09731 58.407V60.515C9.09731 60.7724 9.19954 61.0192 9.38151 61.2011C9.56348 61.3831 9.81028 61.4854 10.0676 61.4854H12.441C12.6983 61.4853 12.9451 61.3831 13.127 61.2011C13.3089 61.0191 13.4112 60.7724 13.4112 60.515V60.515ZM60.2901 53.233V51.125C60.2901 50.8676 60.1878 50.6208 60.0059 50.4389C59.8239 50.2569 59.5771 50.1547 59.3197 50.1547H56.9464C56.689 50.1547 56.4422 50.2569 56.2603 50.4389C56.0783 50.6208 55.9761 50.8676 55.9761 51.125V53.233C55.9761 53.4903 56.0783 53.7371 56.2603 53.9191C56.4422 54.1011 56.689 54.2033 56.9464 54.2033H59.3197C59.5771 54.2033 59.8239 54.1011 60.0059 53.9191C60.1878 53.7371 60.2901 53.4903 60.2901 53.233ZM66.5088 53.233V51.125C66.5088 50.8676 66.4066 50.6208 66.2246 50.4389C66.0427 50.2569 65.7958 50.1547 65.5385 50.1547H63.1651C62.9078 50.1547 62.661 50.2569 62.479 50.4389C62.2971 50.6208 62.1948 50.8676 62.1948 51.125V53.233C62.1948 53.4903 62.2971 53.7371 62.479 53.9191C62.661 54.1011 62.9078 54.2033 63.1651 54.2033H65.5385C65.7958 54.2033 66.0427 54.1011 66.2246 53.9191C66.4066 53.7371 66.5088 53.4903 66.5088 53.233ZM60.2901 60.515V58.407C60.2901 58.1497 60.1878 57.9029 60.0059 57.7209C59.8239 57.5389 59.5771 57.4367 59.3197 57.4367H56.9464C56.689 57.4367 56.4422 57.5389 56.2603 57.7209C56.0783 57.9029 55.9761 58.1497 55.9761 58.407V60.515C55.9761 60.7724 56.0783 61.0192 56.2603 61.2011C56.4422 61.3831 56.689 61.4854 56.9464 61.4854H59.3197C59.5771 61.4854 59.8239 61.3831 60.0059 61.2011C60.1878 61.0192 60.2901 60.7724 60.2901 60.515ZM66.5088 60.515V58.407C66.5088 58.1497 66.4066 57.9029 66.2246 57.7209C66.0427 57.5389 65.7958 57.4367 65.5385 57.4367H63.1651C62.9078 57.4367 62.661 57.5389 62.479 57.7209C62.2971 57.9029 62.1948 58.1497 62.1948 58.407V60.515C62.1948 60.7724 62.2971 61.0192 62.479 61.2011C62.661 61.3831 62.9078 61.4854 63.1651 61.4854H65.5385C65.7958 61.4854 66.0427 61.3831 66.2246 61.2011C66.4066 61.0192 66.5088 60.7724 66.5088 60.515Z" fill="#D38E3C"/>
<path d="M52.2348 9.60474H17.6932C17.1354 9.60474 16.6831 10.2565 16.6831 11.0603V67.4095C16.6831 68.2134 17.1354 68.8651 17.6932 68.8651H52.2348C52.7926 68.8651 53.2449 68.2134 53.2449 67.4095V11.0605C53.2449 10.2565 52.7927 9.60474 52.2348 9.60474V9.60474Z" fill="#FFE1AB"/>
<path d="M23.4932 42.5644H20.5294C20.2721 42.5644 20.0252 42.4621 19.8433 42.2802C19.6613 42.0982 19.5591 41.8514 19.5591 41.594V34.1539C19.5591 33.8966 19.6613 33.6498 19.8433 33.4678C20.0252 33.2858 20.2721 33.1836 20.5294 33.1836H23.4932C23.7505 33.1836 23.9973 33.2858 24.1793 33.4678C24.3612 33.6498 24.4635 33.8966 24.4635 34.1539V41.594C24.4635 41.8514 24.3612 42.0982 24.1793 42.2802C23.9973 42.4621 23.7505 42.5644 23.4932 42.5644ZM31.5333 41.594V34.1539C31.5333 33.8966 31.431 33.6498 31.2491 33.4678C31.0671 33.2858 30.8203 33.1836 30.563 33.1836H27.5992C27.3419 33.1836 27.0951 33.2858 26.9131 33.4678C26.7311 33.6498 26.6289 33.8966 26.6289 34.1539V41.594C26.6289 41.8514 26.7311 42.0982 26.9131 42.2802C27.0951 42.4621 27.3419 42.5644 27.5992 42.5644H30.563C30.8203 42.5644 31.0671 42.4621 31.2491 42.2802C31.431 42.0982 31.5333 41.8514 31.5333 41.594V41.594ZM43.1261 41.594V34.1539C43.1261 33.8966 43.0239 33.6498 42.8419 33.4678C42.6599 33.2858 42.4131 33.1836 42.1558 33.1836H39.1921C38.9348 33.1836 38.688 33.2858 38.506 33.4678C38.3241 33.6498 38.2218 33.8966 38.2218 34.1539V41.594C38.2218 41.8514 38.3241 42.0982 38.506 42.2802C38.688 42.4621 38.9348 42.5644 39.1921 42.5644H42.1558C42.4131 42.5644 42.6599 42.4621 42.8419 42.2802C43.0239 42.0982 43.1261 41.8514 43.1261 41.594ZM50.196 41.594V34.1539C50.196 33.8966 50.0938 33.6498 49.9118 33.4678C49.7299 33.2858 49.4831 33.1836 49.2257 33.1836H46.2619C46.0046 33.1836 45.7578 33.2858 45.5758 33.4678C45.3939 33.6498 45.2916 33.8966 45.2916 34.1539V41.594C45.2916 41.8514 45.3939 42.0982 45.5758 42.2802C45.7578 42.4621 46.0046 42.5644 46.2619 42.5644H49.2257C49.4831 42.5644 49.7299 42.4621 49.9118 42.2802C50.0938 42.0982 50.196 41.8514 50.196 41.594V41.594ZM24.4635 49.5168V47.4088C24.4635 47.1514 24.3612 46.9046 24.1793 46.7227C23.9973 46.5407 23.7505 46.4385 23.4932 46.4385H20.5294C20.2721 46.4385 20.0252 46.5407 19.8433 46.7227C19.6613 46.9046 19.5591 47.1514 19.5591 47.4088V49.5168C19.5591 49.7741 19.6613 50.0209 19.8433 50.2029C20.0252 50.3849 20.2721 50.4871 20.5294 50.4871H23.4932C23.7505 50.4871 23.9973 50.3849 24.1793 50.2029C24.3612 50.0209 24.4635 49.7741 24.4635 49.5168V49.5168ZM31.5333 49.5168V47.4088C31.5333 47.1514 31.431 46.9046 31.2491 46.7227C31.0671 46.5407 30.8203 46.4385 30.563 46.4385H27.5992C27.3419 46.4385 27.0951 46.5407 26.9131 46.7227C26.7311 46.9046 26.6289 47.1514 26.6289 47.4088V49.5168C26.6289 49.7741 26.7311 50.0209 26.9131 50.2029C27.0951 50.3849 27.3419 50.4871 27.5992 50.4871H30.563C30.8203 50.4871 31.0671 50.3849 31.2491 50.2029C31.431 50.0209 31.5333 49.7741 31.5333 49.5168V49.5168ZM43.1261 49.5168V47.4088C43.1261 47.1514 43.0239 46.9046 42.8419 46.7227C42.6599 46.5407 42.4131 46.4385 42.1558 46.4385H39.1921C38.9348 46.4385 38.688 46.5407 38.506 46.7227C38.3241 46.9046 38.2218 47.1514 38.2218 47.4088V49.5168C38.2218 49.7741 38.3241 50.0209 38.506 50.2029C38.688 50.3849 38.9348 50.4871 39.1921 50.4871H42.1558C42.4131 50.4871 42.6599 50.3849 42.8419 50.2029C43.0239 50.0209 43.1261 49.7741 43.1261 49.5168ZM50.196 49.5168V47.4088C50.196 47.1514 50.0938 46.9046 49.9118 46.7227C49.7299 46.5407 49.4831 46.4385 49.2257 46.4385H46.2619C46.0046 46.4385 45.7578 46.5407 45.5758 46.7227C45.3939 46.9046 45.2916 47.1514 45.2916 47.4088V49.5168C45.2916 49.7741 45.3939 50.0209 45.5758 50.2029C45.7578 50.3849 46.0046 50.4871 46.2619 50.4871H49.2257C49.4831 50.4871 49.7299 50.3849 49.9118 50.2029C50.0938 50.0209 50.196 49.7741 50.196 49.5168V49.5168ZM24.4635 57.3274V55.2194C24.4635 54.962 24.3612 54.7152 24.1793 54.5333C23.9973 54.3513 23.7505 54.2491 23.4932 54.2491H20.5294C20.2721 54.2491 20.0252 54.3513 19.8433 54.5333C19.6613 54.7152 19.5591 54.962 19.5591 55.2194V57.3274C19.5591 57.5847 19.6613 57.8315 19.8433 58.0135C20.0252 58.1955 20.2721 58.2977 20.5294 58.2977H23.4932C23.7505 58.2977 23.9973 58.1955 24.1793 58.0135C24.3612 57.8315 24.4635 57.5847 24.4635 57.3274V57.3274ZM50.196 57.3274V55.2194C50.196 54.962 50.0938 54.7152 49.9118 54.5333C49.7299 54.3513 49.4831 54.2491 49.2257 54.2491H46.2619C46.0046 54.2491 45.7578 54.3513 45.5758 54.5333C45.3939 54.7152 45.2916 54.962 45.2916 55.2194V57.3274C45.2916 57.5847 45.3939 57.8315 45.5758 58.0135C45.7578 58.1955 46.0046 58.2977 46.2619 58.2977H49.2257C49.4831 58.2977 49.7299 58.1955 49.9118 58.0135C50.0938 57.8315 50.196 57.5847 50.196 57.3274V57.3274ZM24.4635 64.407V62.299C24.4635 62.0417 24.3612 61.7949 24.1793 61.6129C23.9973 61.4309 23.7505 61.3287 23.4932 61.3287H20.5294C20.2721 61.3287 20.0252 61.4309 19.8433 61.6129C19.6613 61.7949 19.5591 62.0417 19.5591 62.299V64.407C19.5591 64.6644 19.6613 64.9112 19.8433 65.0931C20.0252 65.2751 20.2721 65.3773 20.5294 65.3773H23.4932C23.7505 65.3773 23.9973 65.2751 24.1793 65.0931C24.3612 64.9112 24.4635 64.6644 24.4635 64.407V64.407ZM50.196 64.407V62.299C50.196 62.0417 50.0938 61.7949 49.9118 61.6129C49.7299 61.4309 49.4831 61.3287 49.2257 61.3287H46.2619C46.0046 61.3287 45.7578 61.4309 45.5758 61.6129C45.3939 61.7949 45.2916 62.0417 45.2916 62.299V64.407C45.2916 64.6644 45.3939 64.9112 45.5758 65.0931C45.7578 65.2751 46.0046 65.3773 46.2619 65.3773H49.2257C49.4831 65.3773 49.7299 65.2751 49.9118 65.0931C50.0938 64.9112 50.196 64.6644 50.196 64.407V64.407Z" fill="#E2A042"/>
<path d="M27.9312 54.5139H41.9961V68.8652H27.9312V54.5139Z" fill="#2B3B47"/>
<path d="M34.9638 30.0441C39.2341 30.0441 42.6957 26.5824 42.6957 22.3122C42.6957 18.042 39.2341 14.5803 34.9638 14.5803C30.6936 14.5803 27.2319 18.042 27.2319 22.3122C27.2319 26.5824 30.6936 30.0441 34.9638 30.0441Z" fill="#FF473E"/>
<path d="M34.9634 28.2707C38.2542 28.2707 40.9219 25.603 40.9219 22.3122C40.9219 19.0214 38.2542 16.3536 34.9634 16.3536C31.6726 16.3536 29.0049 19.0214 29.0049 22.3122C29.0049 25.603 31.6726 28.2707 34.9634 28.2707Z" fill="#F4F3EF"/>
<path d="M43.0896 53.7311V55.2967C43.0896 55.554 42.9874 55.8008 42.8054 55.9828C42.6235 56.1648 42.3767 56.267 42.1193 56.267H35.3922V68.8401H34.5347V56.267H27.8077C27.5504 56.267 27.3036 56.1648 27.1216 55.9828C26.9397 55.8008 26.8374 55.554 26.8374 55.2967V53.7311C26.8374 53.4738 26.9397 53.227 27.1216 53.045C27.3036 52.863 27.5504 52.7608 27.8077 52.7608H42.1193C42.3767 52.7608 42.6235 52.863 42.8054 53.045C42.9874 53.227 43.0896 53.4738 43.0896 53.7311V53.7311ZM54.1614 11.2948V9.57395C54.1614 9.31661 54.0592 9.0698 53.8772 8.88784C53.6953 8.70587 53.4485 8.60364 53.1911 8.60364H16.7359C16.4786 8.60364 16.2318 8.70587 16.0498 8.88784C15.8679 9.0698 15.7656 9.31661 15.7656 9.57395V11.2948C15.7656 11.5521 15.8679 11.7989 16.0498 11.9809C16.2318 12.1629 16.4786 12.2651 16.7359 12.2651H53.1911C53.4485 12.2651 53.6953 12.1629 53.8772 11.9809C54.0592 11.7989 54.1614 11.5521 54.1614 11.2948V11.2948ZM39.6592 22.8818C39.6592 22.7094 39.5907 22.5441 39.4688 22.4222C39.3469 22.3003 39.1816 22.2318 39.0092 22.2318H35.5095V18.4617C35.5095 18.2894 35.441 18.124 35.3191 18.0021C35.1972 17.8802 35.0319 17.8118 34.8595 17.8118C34.6871 17.8118 34.5218 17.8802 34.3999 18.0021C34.278 18.124 34.2095 18.2894 34.2095 18.4617V22.8818C34.2095 23.0542 34.278 23.2195 34.3999 23.3414C34.5218 23.4633 34.6871 23.5318 34.8595 23.5318H39.0092C39.1816 23.5318 39.3469 23.4633 39.4688 23.3414C39.5907 23.2195 39.6592 23.0542 39.6592 22.8818Z" fill="#597B91"/>
</svg>
