<svg width="60" height="50" viewBox="0 0 60 50" fill="none" xmlns="http://www.w3.org/2000/svg">
<path d="M8.96395 0.571533H51.0354C53.2886 0.571386 55.4565 1.43347 57.0943 2.98093C58.7321 4.52839 59.7157 6.64392 59.8432 8.89353L59.8568 9.39296V40.6073C59.8569 42.8605 58.9949 45.0284 57.4474 46.6662C55.8999 48.304 53.7844 49.2875 51.5348 49.4151L51.0354 49.4287H8.96395C6.71071 49.4288 4.54284 48.5667 2.90503 47.0193C1.26723 45.4718 0.283656 43.3563 0.156089 41.1067L0.142517 40.6073V9.39296C0.14237 7.13973 1.00445 4.97186 2.55191 3.33405C4.09937 1.69624 6.2149 0.712672 8.46452 0.585105L8.96395 0.571533H51.0354H8.96395ZM55.7854 16.5994L30.9388 29.5194C30.6981 29.6445 30.4349 29.7202 30.1645 29.7421C29.8942 29.764 29.6222 29.7316 29.3645 29.647L29.0605 29.5194L4.21395 16.5994V40.6073C4.21399 41.7993 4.66227 42.9478 5.46979 43.8247C6.27731 44.7017 7.38504 45.2429 8.57309 45.341L8.96395 45.3573H51.0354C52.2279 45.3572 53.3767 44.9085 54.2537 44.1004C55.1307 43.2923 55.6716 42.1839 55.7691 40.9954L55.7854 40.6073V16.5994ZM51.0354 4.64296H8.96395C7.77186 4.64301 6.62337 5.09128 5.74646 5.89881C4.86954 6.70633 4.32832 7.81406 4.23023 9.0021L4.21395 9.39296V12.0095L29.9997 25.4181L55.7854 12.0095V9.39296C55.7853 8.20044 55.3366 7.05159 54.5285 6.17461C53.7204 5.29763 52.612 4.75669 51.4235 4.65925L51.0354 4.64296Z" fill="url(#paint0_linear_2200_181)"/>
<defs>
<linearGradient id="paint0_linear_2200_181" x1="0.142517" y1="16.6028" x2="60.8923" y2="22.661" gradientUnits="userSpaceOnUse">
<stop stop-color="#183DFF"/>
<stop offset="0.390625" stop-color="#6D49D2"/>
<stop offset="1" stop-color="#F74B35"/>
</linearGradient>
</defs>
</svg>
