<svg width="377" height="270" viewBox="0 0 377 270" fill="none" xmlns="http://www.w3.org/2000/svg">
<g filter="url(#filter0_d_8762_2453)">
<rect x="28" y="28" width="303" height="214" rx="15" fill="white"/>
</g>
<path d="M28 43C28 34.7157 34.7157 28 43 28H316C324.284 28 331 34.7157 331 43V62H28V43Z" fill="url(#paint0_linear_8762_2453)"/>
<g clip-path="url(#clip0_8762_2453)">
<path d="M78.5 175.655C95.897 175.655 110 161.182 110 143.328C110 125.474 95.897 111 78.5 111C61.103 111 47 125.474 47 143.328C47 161.182 61.103 175.655 78.5 175.655Z" fill="#F7D8BA"/>
<path d="M68.294 146.431C68.294 146.431 65.7693 146.404 63.7236 149.291C61.6779 152.179 58.7012 172.615 58.7012 172.615L71.8124 174.922L68.294 146.431Z" fill="#D6D6D6"/>
<path d="M99.1719 128.284C98.9257 131.882 96.1996 134.661 93.0796 134.445C89.9596 134.229 87.6274 131.135 87.8915 127.519C88.1556 123.903 90.8638 121.142 93.9838 121.358C97.1038 121.574 99.4136 124.686 99.1719 128.284Z" fill="#1C2238"/>
<path d="M71.5215 118.668C71.5215 118.668 85.4563 117.845 88.7285 124.515C91.3248 129.804 88.0571 137.985 81.2754 140.054C74.8161 142.023 78.2808 121.699 78.2808 121.699L71.5215 118.668Z" fill="#1C2238"/>
<path d="M78.1507 119.455C78.1507 119.455 66.1362 116.199 64.6143 122.855C63.4504 127.892 72.6717 129.939 72.6717 129.939L78.1507 119.455Z" fill="#1C2238"/>
<path d="M72.345 131.738C72.3459 132.347 72.1669 132.943 71.8307 133.45C71.4945 133.957 71.0162 134.353 70.4563 134.587C69.8963 134.821 69.2799 134.883 68.6849 134.765C68.0899 134.647 67.5431 134.354 67.1137 133.924C66.6842 133.494 66.3914 132.945 66.2722 132.348C66.153 131.75 66.2128 131.131 66.4441 130.567C66.6754 130.004 67.0677 129.522 67.5714 129.183C68.0752 128.844 68.6678 128.662 69.2742 128.662C69.6771 128.66 70.0762 128.739 70.4487 128.893C70.8212 129.047 71.1598 129.274 71.445 129.559C71.7303 129.845 71.9566 130.185 72.1111 130.558C72.2655 130.932 72.345 131.333 72.345 131.738Z" fill="#D69C79"/>
<path d="M73.0119 140.427L72.9089 148.207C72.9089 150.564 74.3324 151.832 76.6422 151.832C78.6163 151.832 80.465 150.802 80.7067 148.837L80.3218 137.202L73.0119 140.427Z" fill="#EDB994"/>
<path d="M72.9448 144.304L81.2261 138.907L73.003 139.743L72.9448 144.304Z" fill="#D69C79"/>
<path d="M74.9637 141.655C71.029 141.398 67.9941 138.057 68.097 134.827L68.379 127.182C68.4406 125.232 69.2538 123.383 70.6469 122.024C72.04 120.666 73.9041 119.904 75.8456 119.9C79.9772 119.9 84.0597 123.256 84.0641 127.407L83.7687 133.541C83.5404 138.299 79.6907 141.646 74.9637 141.655Z" fill="#EDB994"/>
<path d="M79.3863 124.987C77.7435 130.285 82.2153 132.52 82.2153 132.52L86.6917 127.946C86.6917 127.946 79.919 123.215 79.3863 124.987Z" fill="#1C2238"/>
<path d="M86.602 135.12C87.7995 133.916 87.7995 131.966 86.602 130.763C85.4045 129.56 83.4631 129.56 82.2656 130.763C81.0681 131.966 81.0681 133.916 82.2656 135.12C83.4631 136.323 85.4045 136.323 86.602 135.12Z" fill="#EDB994"/>
<path d="M83.3613 133.861C83.3613 133.861 83.3613 131.612 85.4831 131.972" stroke="#3E2216" stroke-width="1.05" stroke-linecap="round" stroke-linejoin="round"/>
<path d="M80.6889 125.675C80.6889 125.675 74.9727 120.854 68.1194 124.218C68.1194 124.218 69.9726 116.955 81.4678 120.503C92.9631 124.052 85.0981 128.378 85.0981 128.378L80.6889 125.675Z" fill="#1C2238"/>
<path d="M71.4274 131.216C71.3863 131.342 71.3089 131.453 71.205 131.535C71.1011 131.616 70.9755 131.665 70.8439 131.675C70.7124 131.685 70.5808 131.656 70.4659 131.591C70.351 131.525 70.2579 131.428 70.1984 131.309C70.1389 131.191 70.1156 131.058 70.1316 130.926C70.1476 130.794 70.202 130.671 70.288 130.57C70.3741 130.47 70.4879 130.397 70.615 130.361C70.7421 130.326 70.8768 130.329 71.0021 130.37C71.1701 130.426 71.3092 130.546 71.389 130.705C71.4687 130.863 71.4825 131.047 71.4274 131.216Z" fill="#221914"/>
<path d="M77.3048 131.72C77.2799 131.818 77.2353 131.911 77.1735 131.991C77.1118 132.072 77.0344 132.139 76.946 132.188C76.8575 132.238 76.76 132.269 76.6593 132.279C76.5586 132.289 76.4569 132.278 76.3604 132.248C76.264 132.217 76.1747 132.167 76.0982 132.1C76.0217 132.034 75.9595 131.952 75.9155 131.861C75.8715 131.769 75.8466 131.67 75.8422 131.568C75.8379 131.466 75.8543 131.365 75.8903 131.27C75.9152 131.171 75.9599 131.079 76.0216 130.998C76.0833 130.918 76.1608 130.851 76.2492 130.801C76.3376 130.752 76.4352 130.721 76.5359 130.711C76.6365 130.701 76.7382 130.711 76.8347 130.742C76.9312 130.773 77.0204 130.823 77.0969 130.889C77.1734 130.956 77.2356 131.037 77.2796 131.129C77.3236 131.221 77.3486 131.32 77.3529 131.422C77.3573 131.523 77.3409 131.625 77.3048 131.72Z" fill="#221914"/>
<path d="M71.4902 132.678L71.0829 133.901C71.065 133.948 71.0567 133.998 71.0583 134.048C71.0599 134.098 71.0715 134.148 71.0923 134.193C71.1132 134.239 71.1429 134.28 71.1797 134.314C71.2165 134.348 71.2596 134.374 71.3067 134.391L71.9871 134.621" stroke="black" stroke-width="0.78" stroke-linecap="round" stroke-linejoin="round"/>
<path d="M76.3961 127.614C76.3961 127.614 74.3325 127.092 74.158 128.216C74.158 128.216 74.0684 128.976 75.8724 129.386C77.6764 129.795 78.406 129.768 78.6612 129.075C78.9163 128.383 77.3764 127.758 76.3961 127.614Z" fill="#221914"/>
<path d="M69.019 127.168C69.019 127.168 70.9886 126.939 71.0558 128.068C71.0558 128.068 71.0871 128.832 69.3637 128.967C68.1104 129.071 67.7075 128.778 67.6761 128.266C67.6448 127.659 68.2894 127.186 69.019 127.168Z" fill="#221914"/>
<path d="M74.91 135.214C74.91 135.214 73.7909 136.761 71.5393 136.015" stroke="black" stroke-width="0.78" stroke-linecap="round" stroke-linejoin="round"/>
<path d="M93.7643 163.13C93.2195 163.912 92.7217 164.726 92.2737 165.567C91.3381 167.299 90.0624 172.844 89.4849 175.655L67.3405 177.004L68.0477 167.618C68.0477 167.618 65.3619 164.866 64.019 159.644C63.5814 157.257 63.7454 154.798 64.496 152.491C65.2465 150.184 66.5599 148.102 68.3163 146.435L75.6799 147.515H90.5771V147.573L93.7643 163.13Z" fill="white"/>
<path d="M68.294 146.431L75.6978 147.128L85.3309 147.51C85.3309 147.51 83.5001 153.892 75.7963 153.807C68.0925 153.721 68.294 146.431 68.294 146.431Z" fill="#EDB994"/>
<path d="M106.365 172.615H96.5397L92.2738 165.568L86.0069 155.223C85.4239 153.946 85.3566 152.492 85.8191 151.166C86.2816 149.839 87.2378 148.745 88.4868 148.113C89.1366 147.788 89.844 147.595 90.5683 147.546C90.6802 147.546 90.7921 147.546 90.904 147.546C92.0045 147.545 93.0788 147.883 93.983 148.513C94.8871 149.143 95.5778 150.036 95.9623 151.072C98.2318 157.148 103.8 165.514 106.365 172.615Z" fill="white"/>
</g>
<g filter="url(#filter1_d_8762_2453)">
<rect x="125" y="118" width="224" height="50" rx="10" fill="white"/>
</g>
<g filter="url(#filter2_d_8762_2453)">
<rect x="125" y="118" width="224" height="50" rx="10" fill="white"/>
</g>
<g filter="url(#filter3_d_8762_2453)">
<rect x="273" y="37" width="47" height="50" rx="10" fill="#E891AD"/>
</g>
<rect opacity="0.7" x="142" y="129" width="110" height="8" rx="4" fill="url(#paint1_linear_8762_2453)"/>
<rect opacity="0.5" x="273" y="133" width="40" height="17" rx="8.5" fill="url(#paint2_linear_8762_2453)"/>
<rect opacity="0.4" x="143" y="142" width="53" height="4" rx="2" fill="url(#paint3_linear_8762_2453)"/>
<rect opacity="0.4" x="143" y="151" width="82" height="4" rx="2" fill="url(#paint4_linear_8762_2453)"/>
<path d="M288 59.7619V72.2875C288 73.6793 305 73.6793 305 72.2875V59.7619H288Z" fill="white"/>
<path d="M296.499 66.5947C297.658 66.5947 298.598 65.6535 298.598 64.4926C298.598 63.3316 297.658 62.3904 296.499 62.3904C295.341 62.3904 294.401 63.3316 294.401 64.4926C294.401 65.6535 295.341 66.5947 296.499 66.5947Z" fill="#E891AD"/>
<path d="M296.501 70.8208C296.273 70.8208 296.054 70.73 295.893 70.5684C295.731 70.4068 295.641 70.1876 295.641 69.9591V65.1364H297.361V69.9591C297.361 70.0722 297.339 70.1843 297.295 70.2888C297.252 70.3934 297.189 70.4884 297.109 70.5684C297.029 70.6484 296.934 70.7119 296.83 70.7552C296.725 70.7985 296.614 70.8208 296.501 70.8208Z" fill="#E891AD"/>
<path d="M303.511 58.87H301.79V58.0228C301.79 56.6173 301.233 55.2694 300.241 54.2755C299.249 53.2817 297.904 52.7233 296.501 52.7233C295.098 52.7233 293.752 53.2817 292.76 54.2755C291.768 55.2694 291.211 56.6173 291.211 58.0228V58.87H289.491V58.0228C289.491 56.1603 290.229 54.374 291.544 53.0569C292.859 51.7399 294.642 51 296.501 51C298.36 51 300.143 51.7399 301.457 53.0569C302.772 54.374 303.511 56.1603 303.511 58.0228V58.87Z" fill="white"/>
<defs>
<filter id="filter0_d_8762_2453" x="0" y="0" width="359" height="270" filterUnits="userSpaceOnUse" color-interpolation-filters="sRGB">
<feFlood flood-opacity="0" result="BackgroundImageFix"/>
<feColorMatrix in="SourceAlpha" type="matrix" values="0 0 0 0 0 0 0 0 0 0 0 0 0 0 0 0 0 0 127 0" result="hardAlpha"/>
<feMorphology radius="4" operator="dilate" in="SourceAlpha" result="effect1_dropShadow_8762_2453"/>
<feOffset/>
<feGaussianBlur stdDeviation="12"/>
<feComposite in2="hardAlpha" operator="out"/>
<feColorMatrix type="matrix" values="0 0 0 0 0.282353 0 0 0 0 0.290196 0 0 0 0 0.619608 0 0 0 0.06 0"/>
<feBlend mode="normal" in2="BackgroundImageFix" result="effect1_dropShadow_8762_2453"/>
<feBlend mode="normal" in="SourceGraphic" in2="effect1_dropShadow_8762_2453" result="shape"/>
</filter>
<filter id="filter1_d_8762_2453" x="97" y="90" width="280" height="106" filterUnits="userSpaceOnUse" color-interpolation-filters="sRGB">
<feFlood flood-opacity="0" result="BackgroundImageFix"/>
<feColorMatrix in="SourceAlpha" type="matrix" values="0 0 0 0 0 0 0 0 0 0 0 0 0 0 0 0 0 0 127 0" result="hardAlpha"/>
<feMorphology radius="4" operator="dilate" in="SourceAlpha" result="effect1_dropShadow_8762_2453"/>
<feOffset/>
<feGaussianBlur stdDeviation="12"/>
<feComposite in2="hardAlpha" operator="out"/>
<feColorMatrix type="matrix" values="0 0 0 0 0.282353 0 0 0 0 0.290196 0 0 0 0 0.619608 0 0 0 0.08 0"/>
<feBlend mode="normal" in2="BackgroundImageFix" result="effect1_dropShadow_8762_2453"/>
<feBlend mode="normal" in="SourceGraphic" in2="effect1_dropShadow_8762_2453" result="shape"/>
</filter>
<filter id="filter2_d_8762_2453" x="97" y="90" width="280" height="106" filterUnits="userSpaceOnUse" color-interpolation-filters="sRGB">
<feFlood flood-opacity="0" result="BackgroundImageFix"/>
<feColorMatrix in="SourceAlpha" type="matrix" values="0 0 0 0 0 0 0 0 0 0 0 0 0 0 0 0 0 0 127 0" result="hardAlpha"/>
<feMorphology radius="4" operator="dilate" in="SourceAlpha" result="effect1_dropShadow_8762_2453"/>
<feOffset/>
<feGaussianBlur stdDeviation="12"/>
<feComposite in2="hardAlpha" operator="out"/>
<feColorMatrix type="matrix" values="0 0 0 0 0.282353 0 0 0 0 0.290196 0 0 0 0 0.619608 0 0 0 0.08 0"/>
<feBlend mode="normal" in2="BackgroundImageFix" result="effect1_dropShadow_8762_2453"/>
<feBlend mode="normal" in="SourceGraphic" in2="effect1_dropShadow_8762_2453" result="shape"/>
</filter>
<filter id="filter3_d_8762_2453" x="245" y="9" width="103" height="106" filterUnits="userSpaceOnUse" color-interpolation-filters="sRGB">
<feFlood flood-opacity="0" result="BackgroundImageFix"/>
<feColorMatrix in="SourceAlpha" type="matrix" values="0 0 0 0 0 0 0 0 0 0 0 0 0 0 0 0 0 0 127 0" result="hardAlpha"/>
<feMorphology radius="4" operator="dilate" in="SourceAlpha" result="effect1_dropShadow_8762_2453"/>
<feOffset/>
<feGaussianBlur stdDeviation="12"/>
<feComposite in2="hardAlpha" operator="out"/>
<feColorMatrix type="matrix" values="0 0 0 0 0.282353 0 0 0 0 0.290196 0 0 0 0 0.619608 0 0 0 0.08 0"/>
<feBlend mode="normal" in2="BackgroundImageFix" result="effect1_dropShadow_8762_2453"/>
<feBlend mode="normal" in="SourceGraphic" in2="effect1_dropShadow_8762_2453" result="shape"/>
</filter>
<linearGradient id="paint0_linear_8762_2453" x1="28" y1="39.1563" x2="231.647" y2="187.235" gradientUnits="userSpaceOnUse">
<stop stop-color="#667EEA"/>
<stop offset="1" stop-color="#FA709A"/>
</linearGradient>
<linearGradient id="paint1_linear_8762_2453" x1="142" y1="133" x2="252" y2="133" gradientUnits="userSpaceOnUse">
<stop stop-color="#DD5E89"/>
<stop offset="1" stop-color="#F7BB97"/>
</linearGradient>
<linearGradient id="paint2_linear_8762_2453" x1="273" y1="141.5" x2="313" y2="141.5" gradientUnits="userSpaceOnUse">
<stop stop-color="#DD5E89"/>
<stop offset="1" stop-color="#F7BB97"/>
</linearGradient>
<linearGradient id="paint3_linear_8762_2453" x1="143" y1="144" x2="196" y2="144" gradientUnits="userSpaceOnUse">
<stop stop-color="#DD5E89"/>
<stop offset="1" stop-color="#F7BB97"/>
</linearGradient>
<linearGradient id="paint4_linear_8762_2453" x1="143" y1="153" x2="225" y2="153" gradientUnits="userSpaceOnUse">
<stop stop-color="#DD5E89"/>
<stop offset="1" stop-color="#F7BB97"/>
</linearGradient>
<clipPath id="clip0_8762_2453">
<rect width="63" height="66" fill="white" transform="translate(47 111)"/>
</clipPath>
</defs>
</svg>
