<svg width="484" height="305" viewBox="0 0 484 305" fill="none" xmlns="http://www.w3.org/2000/svg">
<g filter="url(#filter0_d_8513_2194)">
<rect x="49" y="28" width="386" height="249" rx="15" fill="white"/>
</g>
<g clip-path="url(#clip0_8513_2194)">
<path d="M410.03 113.505C410.03 99.9713 399.059 89 385.525 89C371.991 89 361.02 99.9713 361.02 113.505C361.02 127.039 371.991 138.01 385.525 138.01C399.059 138.01 410.03 127.039 410.03 113.505Z" fill="url(#paint0_linear_8513_2194)"/>
<path d="M370.495 127.391C369.297 129.678 368.698 138.01 368.698 138.01H402.352C402.352 138.01 401.752 129.678 400.555 127.391C398.757 123.96 385.525 119.549 385.525 119.549C385.525 119.549 372.292 123.96 370.495 127.391Z" fill="url(#paint1_linear_8513_2194)"/>
<path d="M386.178 134.089C386.178 133.96 386.14 133.834 386.068 133.726C385.996 133.619 385.894 133.535 385.775 133.485C385.655 133.436 385.524 133.423 385.397 133.448C385.271 133.473 385.154 133.536 385.063 133.627C384.971 133.718 384.909 133.835 384.884 133.962C384.859 134.088 384.872 134.22 384.921 134.339C384.97 134.459 385.054 134.561 385.162 134.632C385.269 134.704 385.396 134.743 385.525 134.743C385.698 134.743 385.864 134.674 385.987 134.551C386.109 134.429 386.178 134.262 386.178 134.089ZM386.178 130.822C386.178 130.693 386.14 130.566 386.068 130.459C385.996 130.351 385.894 130.268 385.775 130.218C385.655 130.169 385.524 130.156 385.397 130.181C385.271 130.206 385.154 130.268 385.063 130.36C384.971 130.451 384.909 130.568 384.884 130.694C384.859 130.821 384.872 130.952 384.921 131.072C384.97 131.191 385.054 131.293 385.162 131.365C385.269 131.437 385.396 131.475 385.525 131.475C385.698 131.475 385.864 131.406 385.987 131.284C386.109 131.161 386.178 130.995 386.178 130.822ZM386.178 127.554C386.178 127.425 386.14 127.299 386.068 127.191C385.996 127.084 385.894 127 385.775 126.951C385.655 126.901 385.524 126.888 385.397 126.914C385.271 126.939 385.154 127.001 385.063 127.092C384.971 127.184 384.909 127.3 384.884 127.427C384.859 127.554 384.872 127.685 384.921 127.805C384.97 127.924 385.054 128.026 385.162 128.098C385.269 128.17 385.396 128.208 385.525 128.208C385.698 128.208 385.864 128.139 385.987 128.017C386.109 127.894 386.178 127.728 386.178 127.554Z" fill="white"/>
<path d="M371.562 117.656L398.102 114.449C399.41 107.503 397.858 103.126 393.446 101.32C391.406 94.6361 383.467 95.1798 381.216 95.7246C373.559 97.5789 370.34 104.889 371.562 117.656Z" fill="url(#paint2_linear_8513_2194)"/>
<path d="M389.446 121.51V111.708C393.533 111.647 392.736 104.564 388.629 106.725C387.894 107.052 386.015 106.153 386.668 103.948C382.258 107.215 376.111 101.481 375.723 105.01C374.959 111.955 376.437 117.663 380.356 117.663C380.773 117.679 381.191 117.654 381.604 117.589V121.51C382.883 122.272 384.162 122.653 385.442 122.653C386.721 122.653 388.055 122.272 389.446 121.51Z" fill="#FFDBC9"/>
<path d="M381.604 117.589V118.896C384.054 118.896 385.96 117.725 387.322 115.384C385.688 116.473 383.782 117.208 381.604 117.589Z" fill="#FFBC9E"/>
<path d="M385.53 122.486C384.413 122.433 381.604 121.854 381.604 120.605V119.549C381.304 119.549 380.447 120.257 380.005 120.856C378.261 123.225 380.196 125.349 381.774 125.349C383.764 125.349 385.084 123.686 385.525 122.885C385.966 123.686 387.285 125.349 389.276 125.349C390.854 125.349 392.788 123.225 391.044 120.856C390.603 120.257 389.745 119.549 389.446 119.549V120.605C389.446 121.854 386.711 122.433 385.53 122.486Z" fill="white"/>
</g>
<g clip-path="url(#clip1_8513_2194)">
<path d="M223.007 113.503C223.007 99.9705 233.977 89 247.51 89C261.043 89 272.013 99.9705 272.013 113.503C272.013 127.036 261.043 138.007 247.51 138.007C233.977 138.007 223.007 127.036 223.007 113.503Z" fill="url(#paint3_linear_8513_2194)"/>
<path d="M259.353 115.055C260.678 110.654 261.495 103.13 255.923 97.9845C251.664 94.0519 240.159 93.6556 236.157 102.232C235.489 103.663 236.402 105.907 238.199 105.826C238.905 105.793 239.342 108.031 239.75 109.419C239.179 115.055 234.085 115.159 231.501 119.466C228.316 124.775 232.236 132.616 241.629 132.616C251.022 132.616 256.406 124.841 259.353 115.055Z" fill="url(#paint4_linear_8513_2194)"/>
<path d="M262.539 127.948C263.737 130.255 264.336 138.66 264.336 138.66H230.684C230.684 138.66 231.283 130.255 232.481 127.948C234.278 124.487 247.51 120.037 247.51 120.037C247.51 120.037 260.742 124.487 262.539 127.948Z" fill="url(#paint5_linear_8513_2194)"/>
<path d="M251.43 121.998C251.43 121.998 249.345 123.141 247.427 123.141C245.508 123.141 243.589 121.998 243.589 121.998V118.404C243.177 118.469 242.759 118.494 242.341 118.478C238.422 118.478 236.945 112.77 237.709 105.826C238.199 105.826 239.342 105.826 240.976 103.539C240.567 106.724 245.305 106.234 247.102 103.702C246.203 106.724 248.572 108.766 250.614 107.541C254.618 105.138 255.518 112.462 251.43 112.523V121.998Z" fill="url(#paint6_linear_8513_2194)"/>
<g style="mix-blend-mode:multiply" opacity="0.782">
<path d="M243.589 118.404C245.616 118.031 247.555 117.283 249.307 116.199C249.307 116.199 247.265 119.711 243.589 119.711V118.404Z" fill="#FFD7B8"/>
</g>
<path d="M247.515 122.974C248.696 122.92 251.43 122.342 251.43 121.093V120.037C251.73 120.037 252.588 120.745 253.029 121.344C254.773 123.713 252.838 125.837 251.261 125.837C249.27 125.837 247.951 124.173 247.51 123.373C247.069 124.174 245.749 125.837 243.759 125.837C242.181 125.837 240.247 123.713 241.991 121.344C242.432 120.745 243.29 120.037 243.589 120.037V121.093C243.589 122.342 246.398 122.92 247.515 122.974Z" fill="white"/>
<path d="M246.856 134.086C246.856 133.957 246.895 133.831 246.967 133.723C247.038 133.616 247.14 133.532 247.26 133.482C247.379 133.433 247.511 133.42 247.637 133.445C247.764 133.47 247.881 133.533 247.972 133.624C248.063 133.715 248.126 133.832 248.151 133.959C248.176 134.085 248.163 134.217 248.114 134.336C248.064 134.456 247.98 134.558 247.873 134.629C247.765 134.701 247.639 134.739 247.51 134.739C247.337 134.739 247.17 134.671 247.048 134.548C246.925 134.426 246.856 134.259 246.856 134.086ZM246.856 130.819C246.856 130.69 246.895 130.563 246.967 130.456C247.038 130.348 247.14 130.265 247.26 130.215C247.379 130.166 247.511 130.153 247.637 130.178C247.764 130.203 247.881 130.266 247.972 130.357C248.063 130.448 248.126 130.565 248.151 130.691C248.176 130.818 248.163 130.95 248.114 131.069C248.064 131.188 247.98 131.29 247.873 131.362C247.765 131.434 247.639 131.472 247.51 131.472C247.337 131.472 247.17 131.404 247.048 131.281C246.925 131.158 246.856 130.992 246.856 130.819ZM246.856 127.552C246.856 127.423 246.895 127.296 246.967 127.189C247.038 127.081 247.14 126.998 247.26 126.948C247.379 126.899 247.511 126.886 247.637 126.911C247.764 126.936 247.881 126.998 247.972 127.09C248.063 127.181 248.126 127.298 248.151 127.424C248.176 127.551 248.163 127.683 248.114 127.802C248.064 127.921 247.98 128.023 247.873 128.095C247.765 128.167 247.639 128.205 247.51 128.205C247.337 128.205 247.17 128.136 247.048 128.014C246.925 127.891 246.856 127.725 246.856 127.552Z" fill="url(#paint7_linear_8513_2194)"/>
</g>
<g clip-path="url(#clip2_8513_2194)">
<path d="M292.013 113.503C292.013 99.9705 302.984 89 316.516 89C330.049 89 341.02 99.9705 341.02 113.503C341.02 127.036 330.049 138.007 316.516 138.007C302.984 138.007 292.013 127.036 292.013 113.503Z" fill="url(#paint8_linear_8513_2194)"/>
<path d="M321.581 117.424V119.384C321.581 121.998 325.338 123.141 325.338 123.141C325.338 123.141 321.009 126.408 316.517 126.408C312.024 126.408 307.695 123.141 307.695 123.141C307.695 123.141 311.482 121.998 311.452 119.384C311.423 116.77 311.443 115.235 311.423 110.757C309.082 107.722 309.232 105.686 310.512 104.253C314.801 99.4548 326.481 101.088 326.481 101.088C326.481 101.088 327.571 112.849 325.093 116.28C324.031 117.751 321.581 117.424 321.581 117.424Z" fill="url(#paint9_linear_8513_2194)"/>
<path d="M321.58 117.424C317.987 117.015 315.863 115.464 315.863 115.464C317.204 117.447 319.247 118.848 321.58 119.384V117.424Z" fill="#DB6F3D"/>
<path d="M333.669 128.092C335.224 131.254 336.119 138.547 336.119 138.547H296.914C296.914 138.547 297.809 131.254 299.364 128.092C300.919 124.931 309.999 121.999 309.999 121.999C311.749 125.592 321.353 125.592 323.03 121.998C323.03 121.998 332.114 124.93 333.669 128.092Z" fill="url(#paint10_linear_8513_2194)"/>
<path d="M313.438 105.86C312.919 105.414 312.287 105.113 311.395 105.577C309.28 106.675 310.881 110.89 312.759 110.89C313.249 110.89 313.493 112.429 311.311 113.503C311.311 111.788 308.698 107.541 308.469 103.674C305.839 102.695 306.492 98.7762 308.298 98.7762C308.01 95.1843 313.762 93.3289 315.989 95.3903C318.254 92.6755 323.971 94.064 324.316 96.4193C328.248 94.3207 330.832 100.353 327.151 102.695C325.636 103.659 322.093 104.026 316.978 104.026C316.205 104.026 315.773 104.217 315.989 105.172C316.407 107.022 315.436 108.188 313.438 105.86Z" fill="url(#paint11_linear_8513_2194)"/>
</g>
<g clip-path="url(#clip3_8513_2194)">
<path d="M154 113.503C154 99.9705 164.971 89 178.503 89C192.036 89 203.007 99.9705 203.007 113.503C203.007 127.036 192.036 138.007 178.503 138.007C164.971 138.007 154 127.036 154 113.503Z" fill="url(#paint12_linear_8513_2194)"/>
<path d="M183.567 117.424V119.384C183.567 121.998 187.325 123.141 187.325 123.141C187.325 123.141 182.996 126.408 178.503 126.408C174.011 126.408 169.682 123.141 169.682 123.141C169.682 123.141 173.469 121.998 173.439 119.384C173.41 116.77 173.43 115.235 173.41 110.757C171.069 107.722 171.219 105.686 172.499 104.253C176.788 99.4548 188.468 101.088 188.468 101.088C188.468 101.088 189.558 112.849 187.079 116.28C186.018 117.751 183.567 117.424 183.567 117.424Z" fill="url(#paint13_linear_8513_2194)"/>
<g style="mix-blend-mode:multiply">
<path d="M183.567 117.424C179.973 117.015 177.85 115.464 177.85 115.464C179.191 117.447 181.234 118.848 183.567 119.384V117.424Z" fill="#FFDBC9"/>
</g>
<path d="M195.656 128.092C197.211 131.254 198.106 138.547 198.106 138.547H158.901C158.901 138.547 159.796 131.254 161.351 128.092C162.906 124.931 171.985 121.999 171.985 121.999C173.735 125.592 183.34 125.592 185.016 121.998C185.016 121.998 194.1 124.93 195.656 128.092Z" fill="url(#paint14_linear_8513_2194)"/>
<path d="M177.85 134.413C177.85 134.284 177.888 134.157 177.96 134.05C178.032 133.942 178.134 133.859 178.253 133.809C178.373 133.76 178.504 133.747 178.631 133.772C178.758 133.797 178.874 133.859 178.965 133.951C179.057 134.042 179.119 134.159 179.144 134.285C179.169 134.412 179.156 134.544 179.107 134.663C179.058 134.782 178.974 134.884 178.866 134.956C178.759 135.028 178.633 135.066 178.503 135.066C178.33 135.066 178.164 134.997 178.041 134.875C177.919 134.752 177.85 134.586 177.85 134.413ZM177.85 131.146C177.85 131.017 177.888 130.89 177.96 130.783C178.032 130.675 178.134 130.592 178.253 130.542C178.373 130.493 178.504 130.48 178.631 130.505C178.758 130.53 178.874 130.592 178.965 130.684C179.057 130.775 179.119 130.892 179.144 131.018C179.169 131.145 179.156 131.276 179.107 131.396C179.058 131.515 178.974 131.617 178.866 131.689C178.759 131.761 178.633 131.799 178.503 131.799C178.33 131.799 178.164 131.73 178.041 131.608C177.919 131.485 177.85 131.319 177.85 131.146ZM177.85 127.879C177.85 127.749 177.888 127.623 177.96 127.516C178.032 127.408 178.134 127.324 178.253 127.275C178.373 127.226 178.504 127.213 178.631 127.238C178.758 127.263 178.874 127.325 178.965 127.417C179.057 127.508 179.119 127.624 179.144 127.751C179.169 127.878 179.156 128.009 179.107 128.129C179.058 128.248 178.974 128.35 178.866 128.422C178.759 128.494 178.633 128.532 178.503 128.532C178.33 128.532 178.164 128.463 178.041 128.341C177.919 128.218 177.85 128.052 177.85 127.879Z" fill="white"/>
<path d="M175.425 105.86C174.905 105.414 174.274 105.113 173.382 105.577C171.267 106.675 172.868 110.89 174.746 110.89C175.236 110.89 175.48 112.429 173.298 113.503C173.298 111.788 170.684 107.541 170.456 103.674C167.826 102.695 168.479 98.7762 170.285 98.7762C169.996 95.1843 175.748 93.3289 177.976 95.3903C180.241 92.6755 185.958 94.064 186.303 96.4193C190.235 94.3207 192.819 100.353 189.138 102.695C187.623 103.659 184.079 104.026 178.964 104.026C178.192 104.026 177.76 104.217 177.976 105.172C178.394 107.022 177.423 108.188 175.425 105.86Z" fill="url(#paint15_linear_8513_2194)"/>
</g>
<g clip-path="url(#clip4_8513_2194)">
<path d="M86 113C86 99.7452 96.7452 89 110 89C123.255 89 134 99.7452 134 113V114C134 127.255 123.255 138 110 138C96.7452 138 86 127.255 86 114V113Z" fill="url(#paint16_linear_8513_2194)"/>
<path d="M115.12 117.747V121.422C115.12 122.129 104.88 121.891 104.88 120.871C104.88 119.911 104.899 115.558 104.88 111.081C102.587 108.046 102.587 106.15 104.4 104.19C106.213 102.23 119.12 101.25 119.12 101.25C119.12 101.25 120.088 110.758 120.24 113.337C120.301 114.374 120.96 117.747 118.4 117.747H115.12Z" fill="url(#paint17_linear_8513_2194)"/>
<g style="mix-blend-mode:multiply">
<path d="M115.116 117.433C113.031 117.201 111.017 116.529 109.2 115.46C109.2 115.46 110.48 118.563 115.116 119.405V117.433Z" fill="#FFD7B8"/>
</g>
<path d="M126.8 128.74C127.816 130.848 128.616 134.332 129.2 139.193H90.8C91.3848 134.332 92.1848 130.847 93.2 128.74C94.2119 126.64 103.6 122.597 103.6 122.597C103.6 122.597 103.787 120.749 104.24 120.485C104.693 120.22 115.22 120.22 115.76 120.485C116.3 120.749 116.4 122.596 116.4 122.596C116.4 122.596 125.79 126.644 126.8 128.74Z" fill="url(#paint18_linear_8513_2194)"/>
<path d="M106.963 106.184C106.455 105.738 105.836 105.437 104.962 105.901C102.891 106.999 104.266 111.235 106.584 111.153C107.384 111.124 107.017 112.752 104.88 113.827C104.88 112.112 102.32 107.865 102.096 103.999C99.5201 103.019 100.16 99.1015 101.929 99.1015C101.646 95.5096 107.28 93.6545 109.462 95.7156C111.68 93.0011 117.28 94.3895 117.618 96.7444C121.469 94.6461 124 100.678 120.395 103.019C118.911 103.983 115.44 104.35 110.43 104.35C108.026 104.35 109.408 110.094 110.16 111.948C111.12 114.317 116.48 114.643 118.16 114.398C119.472 114.207 120.16 113.663 120.24 113.337C121.44 116.603 119.92 118.563 117.52 118.563C113.44 118.563 109.36 117.338 108.72 114.317C108.211 111.912 108.239 108.031 106.963 106.184Z" fill="url(#paint19_linear_8513_2194)"/>
</g>
<g filter="url(#filter1_d_8513_2194)">
<rect x="28" y="160" width="206" height="50" rx="10" fill="white"/>
</g>
<rect opacity="0.7" x="45" y="171" width="110" height="8" rx="4" fill="url(#paint20_linear_8513_2194)"/>
<rect opacity="0.5" x="176" y="175" width="40" height="17" rx="8.5" fill="url(#paint21_linear_8513_2194)"/>
<rect opacity="0.4" x="46" y="184" width="53" height="4" rx="2" fill="url(#paint22_linear_8513_2194)"/>
<rect opacity="0.4" x="46" y="193" width="82" height="4" rx="2" fill="url(#paint23_linear_8513_2194)"/>
<g filter="url(#filter2_d_8513_2194)">
<rect x="250" y="204" width="206" height="50" rx="10" fill="white"/>
</g>
<rect opacity="0.7" x="267" y="215" width="110" height="8" rx="4" fill="url(#paint24_linear_8513_2194)"/>
<rect opacity="0.5" x="398" y="219" width="40" height="17" rx="8.5" fill="url(#paint25_linear_8513_2194)"/>
<rect opacity="0.4" x="268" y="228" width="53" height="4" rx="2" fill="url(#paint26_linear_8513_2194)"/>
<rect opacity="0.4" x="268" y="237" width="82" height="4" rx="2" fill="url(#paint27_linear_8513_2194)"/>
<path d="M49 43C49 34.7157 55.7157 28 64 28H420C428.284 28 435 34.7157 435 43V56H49V43Z" fill="url(#paint28_linear_8513_2194)"/>
<path d="M275.278 78.5994H404.778" stroke="white"/>
<defs>
<filter id="filter0_d_8513_2194" x="21" y="0" width="442" height="305" filterUnits="userSpaceOnUse" color-interpolation-filters="sRGB">
<feFlood flood-opacity="0" result="BackgroundImageFix"/>
<feColorMatrix in="SourceAlpha" type="matrix" values="0 0 0 0 0 0 0 0 0 0 0 0 0 0 0 0 0 0 127 0" result="hardAlpha"/>
<feMorphology radius="4" operator="dilate" in="SourceAlpha" result="effect1_dropShadow_8513_2194"/>
<feOffset/>
<feGaussianBlur stdDeviation="12"/>
<feComposite in2="hardAlpha" operator="out"/>
<feColorMatrix type="matrix" values="0 0 0 0 0.282353 0 0 0 0 0.290196 0 0 0 0 0.619608 0 0 0 0.06 0"/>
<feBlend mode="normal" in2="BackgroundImageFix" result="effect1_dropShadow_8513_2194"/>
<feBlend mode="normal" in="SourceGraphic" in2="effect1_dropShadow_8513_2194" result="shape"/>
</filter>
<filter id="filter1_d_8513_2194" x="0" y="132" width="262" height="106" filterUnits="userSpaceOnUse" color-interpolation-filters="sRGB">
<feFlood flood-opacity="0" result="BackgroundImageFix"/>
<feColorMatrix in="SourceAlpha" type="matrix" values="0 0 0 0 0 0 0 0 0 0 0 0 0 0 0 0 0 0 127 0" result="hardAlpha"/>
<feMorphology radius="4" operator="dilate" in="SourceAlpha" result="effect1_dropShadow_8513_2194"/>
<feOffset/>
<feGaussianBlur stdDeviation="12"/>
<feComposite in2="hardAlpha" operator="out"/>
<feColorMatrix type="matrix" values="0 0 0 0 0.282353 0 0 0 0 0.290196 0 0 0 0 0.619608 0 0 0 0.08 0"/>
<feBlend mode="normal" in2="BackgroundImageFix" result="effect1_dropShadow_8513_2194"/>
<feBlend mode="normal" in="SourceGraphic" in2="effect1_dropShadow_8513_2194" result="shape"/>
</filter>
<filter id="filter2_d_8513_2194" x="222" y="176" width="262" height="106" filterUnits="userSpaceOnUse" color-interpolation-filters="sRGB">
<feFlood flood-opacity="0" result="BackgroundImageFix"/>
<feColorMatrix in="SourceAlpha" type="matrix" values="0 0 0 0 0 0 0 0 0 0 0 0 0 0 0 0 0 0 127 0" result="hardAlpha"/>
<feMorphology radius="4" operator="dilate" in="SourceAlpha" result="effect1_dropShadow_8513_2194"/>
<feOffset/>
<feGaussianBlur stdDeviation="12"/>
<feComposite in2="hardAlpha" operator="out"/>
<feColorMatrix type="matrix" values="0 0 0 0 0.282353 0 0 0 0 0.290196 0 0 0 0 0.619608 0 0 0 0.08 0"/>
<feBlend mode="normal" in2="BackgroundImageFix" result="effect1_dropShadow_8513_2194"/>
<feBlend mode="normal" in="SourceGraphic" in2="effect1_dropShadow_8513_2194" result="shape"/>
</filter>
<linearGradient id="paint0_linear_8513_2194" x1="385.525" y1="89" x2="385.525" y2="138.01" gradientUnits="userSpaceOnUse">
<stop stop-color="#EAEAEA"/>
<stop offset="1" stop-color="#ECECEC"/>
</linearGradient>
<linearGradient id="paint1_linear_8513_2194" x1="402.352" y1="128.78" x2="368.698" y2="128.78" gradientUnits="userSpaceOnUse">
<stop stop-color="#606C88"/>
<stop offset="1" stop-color="#3F4C6B"/>
</linearGradient>
<linearGradient id="paint2_linear_8513_2194" x1="384.93" y1="117.656" x2="384.93" y2="95.4257" gradientUnits="userSpaceOnUse">
<stop/>
<stop offset="1"/>
</linearGradient>
<linearGradient id="paint3_linear_8513_2194" x1="247.51" y1="89" x2="247.51" y2="138.007" gradientUnits="userSpaceOnUse">
<stop stop-color="#EAEAEA"/>
<stop offset="1" stop-color="#ECECEC"/>
</linearGradient>
<linearGradient id="paint4_linear_8513_2194" x1="245.367" y1="132.616" x2="245.367" y2="95.3036" gradientUnits="userSpaceOnUse">
<stop/>
<stop offset="1"/>
</linearGradient>
<linearGradient id="paint5_linear_8513_2194" x1="230.684" y1="129.349" x2="264.336" y2="129.349" gradientUnits="userSpaceOnUse">
<stop stop-color="#606C88"/>
<stop offset="1" stop-color="#3F4C6B"/>
</linearGradient>
<linearGradient id="paint6_linear_8513_2194" x1="245.802" y1="103.539" x2="245.802" y2="123.141" gradientUnits="userSpaceOnUse">
<stop stop-color="#FFE0CC"/>
<stop offset="1" stop-color="#FFEADB"/>
</linearGradient>
<linearGradient id="paint7_linear_8513_2194" x1="247.51" y1="126.898" x2="247.51" y2="134.739" gradientUnits="userSpaceOnUse">
<stop stop-color="#130027"/>
<stop offset="1" stop-color="#130017"/>
</linearGradient>
<linearGradient id="paint8_linear_8513_2194" x1="316.516" y1="89" x2="316.516" y2="138.007" gradientUnits="userSpaceOnUse">
<stop stop-color="#EAEAEA"/>
<stop offset="1" stop-color="#ECECEC"/>
</linearGradient>
<linearGradient id="paint9_linear_8513_2194" x1="317.208" y1="100.82" x2="317.208" y2="126.408" gradientUnits="userSpaceOnUse">
<stop stop-color="#FFD4B3"/>
<stop offset="1" stop-color="#FFDCC2"/>
</linearGradient>
<linearGradient id="paint10_linear_8513_2194" x1="296.914" y1="130.272" x2="336.119" y2="130.272" gradientUnits="userSpaceOnUse">
<stop stop-color="#606C88"/>
<stop offset="1" stop-color="#3F4C6B"/>
</linearGradient>
<linearGradient id="paint11_linear_8513_2194" x1="317.821" y1="113.503" x2="317.821" y2="93.9003" gradientUnits="userSpaceOnUse">
<stop/>
<stop offset="1"/>
</linearGradient>
<linearGradient id="paint12_linear_8513_2194" x1="178.503" y1="89" x2="178.503" y2="138.007" gradientUnits="userSpaceOnUse">
<stop stop-color="#EAEAEA"/>
<stop offset="1" stop-color="#ECECEC"/>
</linearGradient>
<linearGradient id="paint13_linear_8513_2194" x1="179.194" y1="100.82" x2="179.194" y2="126.408" gradientUnits="userSpaceOnUse">
<stop stop-color="#FFD4B3"/>
<stop offset="1" stop-color="#FFDCC2"/>
</linearGradient>
<linearGradient id="paint14_linear_8513_2194" x1="158.901" y1="130.272" x2="198.106" y2="130.272" gradientUnits="userSpaceOnUse">
<stop stop-color="#606C88"/>
<stop offset="1" stop-color="#3F4C6B"/>
</linearGradient>
<linearGradient id="paint15_linear_8513_2194" x1="179.807" y1="113.503" x2="179.807" y2="93.9003" gradientUnits="userSpaceOnUse">
<stop/>
<stop offset="1"/>
</linearGradient>
<linearGradient id="paint16_linear_8513_2194" x1="110" y1="89" x2="110" y2="138" gradientUnits="userSpaceOnUse">
<stop stop-color="#EAEAEA"/>
<stop offset="1" stop-color="#ECECEC"/>
</linearGradient>
<linearGradient id="paint17_linear_8513_2194" x1="111.728" y1="101.25" x2="111.728" y2="121.828" gradientUnits="userSpaceOnUse">
<stop stop-color="#FFD4B3"/>
<stop offset="1" stop-color="#FFDCC2"/>
</linearGradient>
<linearGradient id="paint18_linear_8513_2194" x1="90.8" y1="129.74" x2="129.2" y2="129.74" gradientUnits="userSpaceOnUse">
<stop stop-color="#606C88"/>
<stop offset="1" stop-color="#3F4C6B"/>
</linearGradient>
<linearGradient id="paint19_linear_8513_2194" x1="111.256" y1="118.563" x2="111.256" y2="94.2257" gradientUnits="userSpaceOnUse">
<stop/>
<stop offset="1"/>
</linearGradient>
<linearGradient id="paint20_linear_8513_2194" x1="45" y1="175" x2="155" y2="175" gradientUnits="userSpaceOnUse">
<stop stop-color="#DD5E89"/>
<stop offset="1" stop-color="#F7BB97"/>
</linearGradient>
<linearGradient id="paint21_linear_8513_2194" x1="176" y1="183.5" x2="216" y2="183.5" gradientUnits="userSpaceOnUse">
<stop stop-color="#DD5E89"/>
<stop offset="1" stop-color="#F7BB97"/>
</linearGradient>
<linearGradient id="paint22_linear_8513_2194" x1="46" y1="186" x2="99" y2="186" gradientUnits="userSpaceOnUse">
<stop stop-color="#DD5E89"/>
<stop offset="1" stop-color="#F7BB97"/>
</linearGradient>
<linearGradient id="paint23_linear_8513_2194" x1="46" y1="195" x2="128" y2="195" gradientUnits="userSpaceOnUse">
<stop stop-color="#DD5E89"/>
<stop offset="1" stop-color="#F7BB97"/>
</linearGradient>
<linearGradient id="paint24_linear_8513_2194" x1="267" y1="219" x2="377" y2="219" gradientUnits="userSpaceOnUse">
<stop stop-color="#DD5E89"/>
<stop offset="1" stop-color="#F7BB97"/>
</linearGradient>
<linearGradient id="paint25_linear_8513_2194" x1="398" y1="227.5" x2="438" y2="227.5" gradientUnits="userSpaceOnUse">
<stop stop-color="#DD5E89"/>
<stop offset="1" stop-color="#F7BB97"/>
</linearGradient>
<linearGradient id="paint26_linear_8513_2194" x1="268" y1="230" x2="321" y2="230" gradientUnits="userSpaceOnUse">
<stop stop-color="#DD5E89"/>
<stop offset="1" stop-color="#F7BB97"/>
</linearGradient>
<linearGradient id="paint27_linear_8513_2194" x1="268" y1="239" x2="350" y2="239" gradientUnits="userSpaceOnUse">
<stop stop-color="#DD5E89"/>
<stop offset="1" stop-color="#F7BB97"/>
</linearGradient>
<linearGradient id="paint28_linear_8513_2194" x1="49" y1="37.1875" x2="224.083" y2="234.123" gradientUnits="userSpaceOnUse">
<stop stop-color="#667EEA"/>
<stop offset="1" stop-color="#FA709A"/>
</linearGradient>
<clipPath id="clip0_8513_2194">
<path d="M410.03 113.505C410.03 99.9713 399.059 89 385.525 89C371.991 89 361.02 99.9713 361.02 113.505C361.02 127.039 371.991 138.01 385.525 138.01C399.059 138.01 410.03 127.039 410.03 113.505Z" fill="white"/>
</clipPath>
<clipPath id="clip1_8513_2194">
<path d="M223.007 113.503C223.007 99.9705 233.977 89 247.51 89C261.043 89 272.013 99.9705 272.013 113.503C272.013 127.036 261.043 138.007 247.51 138.007C233.977 138.007 223.007 127.036 223.007 113.503Z" fill="white"/>
</clipPath>
<clipPath id="clip2_8513_2194">
<path d="M292.013 113.503C292.013 99.9705 302.984 89 316.516 89C330.049 89 341.02 99.9705 341.02 113.503C341.02 127.036 330.049 138.007 316.516 138.007C302.984 138.007 292.013 127.036 292.013 113.503Z" fill="white"/>
</clipPath>
<clipPath id="clip3_8513_2194">
<path d="M154 113.503C154 99.9705 164.971 89 178.503 89C192.036 89 203.007 99.9705 203.007 113.503C203.007 127.036 192.036 138.007 178.503 138.007C164.971 138.007 154 127.036 154 113.503Z" fill="white"/>
</clipPath>
<clipPath id="clip4_8513_2194">
<path d="M86 113C86 99.7452 96.7452 89 110 89C123.255 89 134 99.7452 134 113V114C134 127.255 123.255 138 110 138C96.7452 138 86 127.255 86 114V113Z" fill="white"/>
</clipPath>
</defs>
</svg>
