<svg width="36" height="36" viewBox="0 0 36 36" fill="none" xmlns="http://www.w3.org/2000/svg">
<circle cx="18" cy="18" r="17" stroke="#D6D6D6" stroke-width="2"/>
<path d="M23.5526 12.288H21.9895V11.6685C21.9895 11.2935 21.7053 11 21.3421 11C20.9789 11 20.7105 11.2935 20.7105 11.6685V12.288H16.2895V11.6685C16.2895 11.2935 16.0053 11 15.6579 11C15.3105 11 15.0105 11.2935 15.0105 11.6685V12.288H13.4474C12.1053 12.288 11 13.4293 11 14.8315V23.4891C11 24.8587 12.1053 26 13.4474 26H23.5526C24.8947 26 26 24.8587 26 23.4728V14.8152C26 13.413 24.8947 12.288 23.5526 12.288ZM20.6789 20.3261L18.4368 22.8043C18.3105 22.9348 18.1526 23.0163 17.9632 23.0163C17.7737 23.0163 17.6158 22.9348 17.4895 22.8043L16.3053 21.5C16.0684 21.2391 16.0842 20.8152 16.3368 20.5707C16.6053 20.3261 17 20.3424 17.2526 20.6033L17.9632 21.3859L19.7158 19.4293C19.9526 19.1685 20.3632 19.1522 20.6316 19.3967C20.9 19.6576 20.9158 20.0652 20.6789 20.3261ZM24.7211 16.1196H12.2789V14.8315C12.2789 14.163 12.8 13.6087 13.4474 13.6087H15.0105V14.2283C15.0105 14.6033 15.2947 14.8967 15.6579 14.8967C16.0053 14.8967 16.3053 14.6033 16.3053 14.2283V13.6087H20.7263V14.2283C20.7263 14.6033 21.0105 14.8967 21.3737 14.8967C21.7368 14.8967 22.0211 14.6033 22.0211 14.2283V13.6087H23.5526C24.2 13.6087 24.7211 14.1467 24.7211 14.8315V16.1196Z" fill="#D6D6D6"/>
</svg>
