<svg width="27" height="27" viewBox="0 0 27 27" fill="none" xmlns="http://www.w3.org/2000/svg">
<circle cx="13.5" cy="13.5" r="13.5" fill="#E7E7E7"/>
<g clip-path="url(#clip0_4506_1598)">
<path d="M18.0193 16.1658C17.6731 16.4968 17.0996 16.4968 16.7534 16.1658L13.41 12.9696L10.0775 16.1658C9.73122 16.4968 9.15776 16.4968 8.81152 16.1658C8.46528 15.8348 8.46528 15.2866 8.81152 14.9556L12.1441 11.7594L8.8007 8.57351C8.45446 8.24251 8.45446 7.69429 8.8007 7.36329C8.97382 7.19779 9.20104 7.11504 9.43908 7.11504C9.67712 7.11504 9.90434 7.19779 10.0775 7.36329L13.41 10.5492L16.7426 7.36329C16.9157 7.19779 17.1429 7.11504 17.381 7.11504C17.6082 7.11504 17.8462 7.19779 18.0193 7.36329C18.3656 7.69429 18.3656 8.24251 18.0193 8.57351L14.676 11.7594L18.0085 14.9453C18.3656 15.2866 18.3656 15.8245 18.0193 16.1658Z" fill="#393939"/>
</g>
<defs>
<clipPath id="clip0_4506_1598">
<rect width="10.82" height="10.3437" fill="white" transform="matrix(1 0 0 -1 8 16.9316)"/>
</clipPath>
</defs>
</svg>
