<svg width="12" height="12" viewBox="0 0 12 12" fill="none" xmlns="http://www.w3.org/2000/svg">
<path d="M7.2 1.81818C7.2 1.52885 7.07357 1.25138 6.84853 1.04679C6.62349 0.842208 6.31826 0.727273 6 0.727273C5.68174 0.727273 5.37652 0.842208 5.15147 1.04679C4.92643 1.25138 4.8 1.52885 4.8 1.81818H4C4 1.33597 4.21071 0.873508 4.58579 0.532533C4.96086 0.191558 5.46957 0 6 0C6.53043 0 7.03914 0.191558 7.41421 0.532533C7.78929 0.873508 8 1.33597 8 1.81818H11.6C11.7061 1.81818 11.8078 1.85649 11.8828 1.92469C11.9579 1.99288 12 2.08538 12 2.18182C12 2.27826 11.9579 2.37075 11.8828 2.43895C11.8078 2.50714 11.7061 2.54545 11.6 2.54545H11.1568L10.12 10.7127C10.0749 11.0672 9.88796 11.3942 9.59487 11.6316C9.30177 11.8689 8.92292 12 8.5304 12H3.4696C3.07708 12 2.69823 11.8689 2.40513 11.6316C2.11204 11.3942 1.92514 11.0672 1.88 10.7127L0.8424 2.54545H0.4C0.30638 2.54548 0.215714 2.51566 0.143793 2.46117C0.0718717 2.40669 0.0232516 2.33099 0.00639992 2.24727L0 2.18182C0 2.08538 0.0421428 1.99288 0.117157 1.92469C0.192172 1.85649 0.293913 1.81818 0.4 1.81818H7.2ZM10.3504 2.54545H1.6488L2.6744 10.6291C2.69698 10.8064 2.79048 10.9699 2.93712 11.0886C3.08375 11.2073 3.27327 11.2728 3.4696 11.2727H8.5304C8.72659 11.2727 8.91592 11.2071 9.06238 11.0884C9.20885 10.9697 9.30224 10.8063 9.3248 10.6291L10.3504 2.54545ZM4.8 4.36364C4.996 4.36364 5.16 4.47636 5.1936 4.62473L5.2 4.68218V9.13673C5.2 9.312 5.0208 9.45455 4.8 9.45455C4.604 9.45455 4.44 9.34182 4.4064 9.19346L4.4 9.136V4.68291C4.4 4.50691 4.5792 4.36436 4.8 4.36436V4.36364ZM7.2 4.36364C7.396 4.36364 7.56 4.47636 7.5936 4.62473L7.6 4.68218V9.13673C7.6 9.312 7.4208 9.45455 7.2 9.45455C7.004 9.45455 6.84 9.34182 6.8064 9.19346L6.8 9.136V4.68291C6.8 4.50691 6.9792 4.36436 7.2 4.36436V4.36364Z" fill="black"/>
</svg>
