<svg width="145" height="83" viewBox="0 0 145 83" fill="none" xmlns="http://www.w3.org/2000/svg">
<g clip-path="url(#clip0_4472_501)">
<path d="M86.185 33.4772V78.6051C86.185 78.6599 86.1825 78.7147 86.18 78.7737C86.18 78.7998 86.1774 78.826 86.1749 78.8521C86.1745 78.8774 86.1726 78.9028 86.1694 78.9279C86.1694 78.9385 86.1669 78.9486 86.1669 78.9591C86.1644 78.9777 86.1618 78.9933 86.1593 79.0088C86.1564 79.048 86.1488 79.0872 86.1433 79.1264C86.1378 79.1656 86.1302 79.2023 86.1227 79.2389C86.1193 79.2574 86.1149 79.2757 86.1096 79.2937C86.1093 79.3081 86.1066 79.3224 86.1016 79.3359C86.0984 79.3544 86.094 79.3727 86.0885 79.3906C86.0805 79.4248 86.07 79.4585 86.0624 79.4901C86.0619 79.4964 86.0602 79.5026 86.0573 79.5082C86.0388 79.5659 86.0232 79.6233 86.0021 79.6768C86.0023 79.6782 86.0022 79.6797 86.0017 79.6811C86.0013 79.6824 86.0006 79.6837 85.9996 79.6848C85.9891 79.7134 85.979 79.7421 85.9684 79.7691C85.9579 79.796 85.9473 79.8184 85.9393 79.842C85.9361 79.8487 85.9336 79.8558 85.9318 79.863C85.9002 79.9334 85.869 80.0067 85.8323 80.0737C85.8218 80.0948 85.8087 80.1209 85.7956 80.1445C85.7826 80.1681 85.7695 80.1888 85.7564 80.2124C85.7434 80.236 85.7328 80.2571 85.7173 80.2777C85.6911 80.3224 85.6625 80.3666 85.633 80.4083C85.6144 80.4374 85.5963 80.4606 85.5803 80.4872C85.5361 80.5445 85.496 80.6018 85.4471 80.6557C85.413 80.6979 85.3793 80.7366 85.3452 80.7733C85.311 80.8099 85.2748 80.8491 85.2381 80.8858C85.2225 80.9039 85.204 80.9195 85.1859 80.9381C85.1703 80.9533 85.1537 80.9674 85.1361 80.9802C85.1176 80.9987 85.0969 81.0169 85.0759 81.0354C85.0708 81.0405 85.0628 81.0455 85.0578 81.051C85.008 81.0931 84.9558 81.1353 84.9035 81.1774C84.8977 81.181 84.8925 81.1854 84.8879 81.1905C84.8458 81.2196 84.8036 81.2507 84.7615 81.2794C84.7455 81.2899 84.7324 81.3005 84.7194 81.3085C84.6958 81.3241 84.6726 81.3397 84.649 81.3506C84.6306 81.3635 84.6114 81.3749 84.5913 81.3847C84.5706 81.3978 84.5491 81.4109 84.5285 81.4214C84.3815 81.5049 84.2275 81.5754 84.0683 81.6321C84.0582 81.6346 84.0502 81.6401 84.0396 81.6427C84.0291 81.6452 84.016 81.6507 84.0059 81.6532C83.9693 81.6663 83.9326 81.6793 83.8934 81.6898C83.8281 81.7105 83.7628 81.7261 83.6974 81.7421L83.5955 81.7657C83.5739 81.7703 83.5521 81.7737 83.5302 81.7758C83.504 81.7813 83.4749 81.7864 83.4488 81.7914C83.4437 81.7914 83.4412 81.7914 83.4387 81.7944L83.373 81.8019C83.3628 81.8019 83.3523 81.8049 83.3418 81.8049L83.284 81.8125C83.2739 81.8125 83.2634 81.815 83.2503 81.815L83.1298 81.823C83.0725 81.8255 83.0152 81.8281 82.9575 81.8281H3.22716C3.16985 81.8281 3.11211 81.8255 3.0548 81.823L2.93428 81.815C2.88962 81.8125 2.84515 81.8073 2.80111 81.7994C2.77563 81.7975 2.7503 81.794 2.72526 81.7889C2.66247 81.7813 2.59884 81.7682 2.53984 81.7552C2.52201 81.752 2.50441 81.7476 2.48716 81.7421C2.42185 81.7261 2.35653 81.7105 2.29121 81.6898C2.25202 81.6768 2.21535 81.6663 2.17869 81.6532C2.00454 81.5924 1.83545 81.518 1.673 81.4307L1.55543 81.3603C1.51076 81.3342 1.46651 81.3055 1.42437 81.276C1.16656 81.1018 0.935093 80.8915 0.737048 80.6515C0.689748 80.5962 0.645303 80.5385 0.603884 80.4787C0.459063 80.2795 0.338795 80.0636 0.245686 79.8356C0.224615 79.7834 0.203545 79.7261 0.182896 79.6709C0.162247 79.6157 0.146234 79.5588 0.127692 79.5023C0.10915 79.4458 0.0965078 79.3873 0.0834441 79.33C0.0703804 79.2726 0.0598453 79.2225 0.04931 79.1677C0.0467816 79.1597 0.0467792 79.1496 0.0442508 79.1416C0.036244 79.0893 0.0286586 79.0345 0.0231803 78.9823C0.0208868 78.9782 0.0199988 78.9735 0.0206519 78.9688C0.015595 78.9267 0.0126451 78.8879 0.0101167 78.8462C0.00253131 78.7653 3.25932e-06 78.6839 3.25932e-06 78.6005V33.4772C-0.000674913 33.0008 0.104487 32.5301 0.307889 32.0992C0.511291 31.6684 0.807857 31.2881 1.17616 30.9858C1.18271 30.9799 1.18976 30.9745 1.19723 30.9698L1.36579 30.8434C1.90931 30.4566 2.56005 30.2492 3.22716 30.2501H82.9579C83.0347 30.2495 83.1115 30.253 83.188 30.2606C83.202 30.2589 83.2163 30.2597 83.2301 30.2631C83.3034 30.2682 83.3793 30.2762 83.4497 30.2867C83.4652 30.2893 83.4838 30.2918 83.4994 30.2947C83.5622 30.3048 83.6258 30.3179 83.6852 30.3339C83.7011 30.336 83.7168 30.3395 83.732 30.3444C83.8079 30.3626 83.8812 30.3832 83.9545 30.4068C84.0278 30.4304 84.0927 30.454 84.1585 30.4801C84.2523 30.517 84.3439 30.5592 84.4328 30.6066C84.4829 30.6301 84.5317 30.6563 84.579 30.685C84.6627 30.7318 84.743 30.7841 84.8197 30.8417C84.8222 30.8392 84.8222 30.8417 84.8222 30.8417L84.9908 30.9681C84.9983 30.9727 85.0054 30.9781 85.0118 30.9841C85.054 31.0179 85.0961 31.0545 85.1349 31.0912C85.1661 31.1173 85.1947 31.146 85.2234 31.1755C85.3137 31.2622 85.3982 31.3548 85.4762 31.4528C85.5129 31.4974 85.5466 31.5417 85.5782 31.5859C85.7147 31.7728 85.8296 31.9746 85.9208 32.1873C85.9469 32.245 85.9701 32.3048 85.9937 32.3651C85.9937 32.3676 85.9962 32.3706 85.9962 32.3731C86.032 32.4697 86.0627 32.5682 86.0881 32.6681C86.1012 32.7178 86.1113 32.7646 86.1218 32.8143C86.1298 32.8535 86.1374 32.8902 86.1429 32.9294C86.1484 32.9686 86.156 33.0078 86.161 33.047C86.1688 33.0937 86.1742 33.1408 86.177 33.1881C86.1821 33.2281 86.1846 33.2684 86.1846 33.3086C86.1825 33.3647 86.185 33.422 86.185 33.4772Z" fill="#DFE5EA"/>
<path d="M85.9919 32.372H0.192871C0.39034 31.8297 0.729718 31.3503 1.1756 30.9839C1.18215 30.9779 1.1892 30.9726 1.19667 30.9679L1.36523 30.8414L41.1155 0.668503C41.6842 0.236086 42.3788 0.00195312 43.0932 0.00195312C43.8076 0.00195312 44.5023 0.236086 45.0709 0.668503L84.8187 30.8414C84.8212 30.8389 84.8212 30.8414 84.8212 30.8414L84.9898 30.9679C84.9973 30.9725 85.0044 30.9778 85.0108 30.9839C85.053 31.0176 85.0951 31.0542 85.1339 31.0909C85.1651 31.117 85.1937 31.1457 85.2224 31.1752C85.3127 31.2619 85.3972 31.3545 85.4752 31.4525C85.5119 31.4972 85.5456 31.5414 85.5772 31.5856C85.7137 31.7726 85.8286 31.9743 85.9198 32.187C85.9459 32.2447 85.9691 32.3046 85.9927 32.3648C85.9889 32.3665 85.9919 32.3695 85.9919 32.372Z" fill="#F0F0F0"/>
<path d="M10.9037 5.76758H74.2179C75.7507 5.76758 77.2207 6.37644 78.3046 7.46024C79.3885 8.54404 79.9975 10.014 79.9976 11.5468V79.4835H5.12402V11.5468C5.12414 10.014 5.73311 8.54404 6.81699 7.46024C7.90087 6.37644 9.37088 5.76758 10.9037 5.76758Z" fill="#FBFBFB"/>
<path d="M15.0521 18.6797H70.0688C70.2529 18.6796 70.4352 18.7158 70.6053 18.7863C70.7754 18.8567 70.93 18.9599 71.0602 19.0901C71.1903 19.2202 71.2936 19.3747 71.3641 19.5448C71.4346 19.7149 71.4708 19.8972 71.4708 20.0813V20.6771C71.4708 21.0488 71.3232 21.4051 71.0604 21.6679C70.7976 21.9307 70.4413 22.0783 70.0696 22.0783H15.0521C14.6804 22.0783 14.3241 21.9307 14.0613 21.6679C13.7985 21.4051 13.6509 21.0488 13.6509 20.6771V20.0809C13.6509 19.7092 13.7985 19.3529 14.0613 19.0901C14.3241 18.8273 14.6804 18.6797 15.0521 18.6797Z" fill="#E4ECF9"/>
<path d="M15.0521 25.9395H70.0688C70.2529 25.9394 70.4352 25.9756 70.6053 26.046C70.7754 26.1164 70.93 26.2197 71.0602 26.3498C71.1903 26.48 71.2936 26.6345 71.3641 26.8046C71.4346 26.9747 71.4708 27.157 71.4708 27.3411V27.9382C71.4708 28.3099 71.3232 28.6664 71.0603 28.9293C70.7975 29.1921 70.4409 29.3398 70.0692 29.3398H15.0521C14.868 29.3398 14.6858 29.3036 14.5158 29.2331C14.3457 29.1627 14.1912 29.0594 14.0611 28.9293C13.931 28.7991 13.8278 28.6446 13.7574 28.4745C13.687 28.3045 13.6508 28.1222 13.6509 27.9382V27.3411C13.6508 27.157 13.687 26.9748 13.7574 26.8047C13.8278 26.6347 13.931 26.4802 14.0611 26.35C14.1912 26.2198 14.3457 26.1166 14.5158 26.0462C14.6858 25.9757 14.868 25.9395 15.0521 25.9395Z" fill="#E4ECF9"/>
<path d="M15.0521 33.2012H70.0688C70.2529 33.2011 70.4352 33.2373 70.6053 33.3077C70.7754 33.3782 70.93 33.4814 71.0602 33.6115C71.1903 33.7417 71.2936 33.8962 71.3641 34.0663C71.4346 34.2364 71.4708 34.4187 71.4708 34.6028V35.1987C71.4708 35.5703 71.3232 35.9267 71.0604 36.1894C70.7977 36.4522 70.4413 36.5998 70.0696 36.5998H15.0521C14.6804 36.5998 14.3241 36.4522 14.0613 36.1894C13.7985 35.9267 13.6509 35.5703 13.6509 35.1987V34.6028C13.6508 34.4187 13.687 34.2365 13.7574 34.0664C13.8278 33.8964 13.931 33.7419 14.0611 33.6117C14.1912 33.4816 14.3457 33.3783 14.5158 33.3079C14.6858 33.2374 14.868 33.2012 15.0521 33.2012Z" fill="#E4ECF9"/>
<path d="M15.0521 40.4609H70.0688C70.2529 40.4609 70.4351 40.4971 70.6052 40.5675C70.7753 40.6378 70.9298 40.741 71.06 40.8712C71.1902 41.0013 71.2935 41.1557 71.364 41.3258C71.4345 41.4958 71.4708 41.678 71.4708 41.8621V42.4579C71.4708 42.8296 71.3232 43.1859 71.0604 43.4487C70.7976 43.7115 70.4413 43.8591 70.0696 43.8591H15.0521C14.6804 43.8591 14.3241 43.7115 14.0613 43.4487C13.7985 43.1859 13.6509 42.8296 13.6509 42.4579V41.8621C13.651 41.4905 13.7987 41.1342 14.0614 40.8714C14.3242 40.6087 14.6805 40.461 15.0521 40.4609Z" fill="#E4ECF9"/>
<path d="M70.0692 47.7227H15.0521C14.2782 47.7227 13.6509 48.35 13.6509 49.1238V49.7201C13.6509 50.494 14.2782 51.1213 15.0521 51.1213H70.0692C70.8431 51.1213 71.4704 50.494 71.4704 49.7201V49.1238C71.4704 48.35 70.8431 47.7227 70.0692 47.7227Z" fill="#E4ECF9"/>
<path d="M43.0925 57.2514V57.2539C42.9618 57.3958 42.8122 57.519 42.6479 57.6201L3.40626 81.8335H3.22716C2.91 81.8347 2.59448 81.7881 2.29121 81.6953L2.16858 81.6561C1.6583 81.48 1.20091 81.1776 0.839031 80.777C0.804897 80.7404 0.771183 80.7012 0.737049 80.6594C0.637582 80.5402 0.547552 80.4134 0.46777 80.2802C0.439114 80.238 0.415513 80.1913 0.389385 80.147C0.363258 80.1028 0.339659 80.0526 0.318589 80.0058C0.108478 79.5695 -0.000423841 79.0914 3.25932e-06 78.6072V33.4772C-0.000674913 33.0007 0.104487 32.53 0.307889 32.0992C0.511291 31.6683 0.807857 31.288 1.17616 30.9858C1.18271 30.9798 1.18976 30.9745 1.19723 30.9698L1.36579 30.8434C1.90931 30.4565 2.56005 30.2491 3.22716 30.25H3.9642L7.41007 32.3756L39.1734 51.9732L40.3681 52.7103L42.6475 54.117C42.8117 54.2175 42.9614 54.34 43.0925 54.4811V54.4836C43.4352 54.8631 43.6249 55.3562 43.6249 55.8675C43.6249 56.3788 43.4352 56.8719 43.0925 57.2514Z" fill="#F0F0F0"/>
<path d="M86.1852 33.4767V78.6046C86.1852 78.6594 86.1826 78.7142 86.1801 78.7732C86.1801 78.7993 86.1776 78.8254 86.1751 78.8516C86.1746 78.8769 86.1728 78.9022 86.1696 78.9274C86.1696 78.9379 86.167 78.9481 86.167 78.9586C86.1645 78.9771 86.162 78.9927 86.1595 79.0083C86.1565 79.0475 86.1489 79.0867 86.1435 79.1259C86.138 79.1651 86.1304 79.2017 86.1228 79.2384C86.1228 79.2435 86.1199 79.2515 86.1199 79.2565C86.1173 79.269 86.114 79.2812 86.1097 79.2932C86.1095 79.3076 86.1068 79.3218 86.1017 79.3353C86.0985 79.3538 86.0942 79.3721 86.0887 79.3901C86.0807 79.4242 86.0731 79.4554 86.0625 79.4896C86.062 79.4959 86.0603 79.502 86.0575 79.5077C86.0415 79.5654 86.0233 79.6227 86.0023 79.6762C86.0025 79.6777 86.0023 79.6791 86.0019 79.6805C86.0014 79.6819 86.0007 79.6832 85.9997 79.6843C85.9892 79.7129 85.9816 79.739 85.9686 79.7685C85.9555 79.798 85.95 79.8153 85.9395 79.8414C85.9366 79.8483 85.934 79.8553 85.9319 79.8625C85.9003 79.9329 85.8691 80.0062 85.8324 80.0732C85.8219 80.0943 85.8089 80.1204 85.7958 80.144C85.7827 80.1676 85.7697 80.1883 85.7566 80.2119C85.7435 80.2355 85.733 80.2565 85.7174 80.2772C85.6913 80.3218 85.6626 80.3661 85.6331 80.4078C85.6146 80.4369 85.5965 80.4601 85.5804 80.4866C85.5362 80.5465 85.492 80.6012 85.4473 80.6552C85.4132 80.6973 85.3794 80.7361 85.3453 80.7728C85.3112 80.8094 85.2749 80.8486 85.2383 80.8853C85.2227 80.9034 85.2041 80.919 85.186 80.9375C85.1705 80.9528 85.1539 80.9668 85.1363 80.9797C85.1177 80.9982 85.0971 81.0163 85.076 81.0349C85.071 81.0399 85.063 81.045 85.0579 81.0505C85.0082 81.0926 84.9559 81.1347 84.9037 81.1769C84.8979 81.1805 84.8926 81.1849 84.8881 81.19C84.8459 81.219 84.8038 81.2502 84.7617 81.2789C84.7456 81.2894 84.7326 81.2999 84.7195 81.3079C84.6959 81.3235 84.6727 81.3391 84.6491 81.3501C84.6308 81.3629 84.6115 81.3743 84.5914 81.3842C84.5708 81.3973 84.5493 81.4103 84.5286 81.4209C84.3816 81.5043 84.2276 81.5748 84.0684 81.6316C84.0583 81.6341 84.0478 81.6396 84.0398 81.6421C84.0318 81.6446 84.0162 81.6501 84.0061 81.6527C83.9694 81.6657 83.9327 81.6788 83.8935 81.6893C83.8282 81.71 83.7629 81.7256 83.6976 81.7416L83.5956 81.7652C83.574 81.7697 83.5522 81.7731 83.5303 81.7753C83.5042 81.7808 83.4751 81.7858 83.449 81.7909H83.4414C83.4178 81.7938 83.3942 81.7989 83.3731 81.8014C83.363 81.8014 83.3525 81.8044 83.3419 81.8044L83.2842 81.812C83.2741 81.812 83.2635 81.8145 83.2505 81.8145L83.13 81.8225C83.0726 81.825 83.0153 81.8275 82.9576 81.8275H82.7798L43.5368 57.6142C43.3728 57.5137 43.224 57.3904 43.0948 57.248V57.2455C42.7516 56.8666 42.5615 56.3736 42.5615 55.8624C42.5615 55.3512 42.7516 54.8582 43.0948 54.4793V54.4806C43.2241 54.3384 43.3729 54.2153 43.5368 54.1148L45.8124 52.7081L47.0071 51.9711L78.7734 32.3717L82.2193 30.2461H82.958C83.0348 30.2456 83.1116 30.2491 83.1881 30.2567C83.2022 30.2549 83.2165 30.2558 83.2302 30.2592C83.3036 30.2643 83.3794 30.2723 83.4498 30.2828C83.4654 30.2853 83.4839 30.2879 83.4995 30.2908C83.5623 30.3009 83.6259 30.314 83.6854 30.33C83.7012 30.3321 83.7169 30.3356 83.7321 30.3405C83.808 30.3587 83.8813 30.3793 83.9546 30.4029C84.028 30.4265 84.0929 30.4501 84.1586 30.4762C84.2524 30.5131 84.344 30.5553 84.4329 30.6027C84.483 30.6262 84.5318 30.6524 84.5792 30.681C84.6628 30.7279 84.7432 30.7802 84.8198 30.8378C84.8223 30.8353 84.8223 30.8378 84.8223 30.8378L84.9909 30.9642C84.9984 30.9688 85.0055 30.9742 85.012 30.9803C85.0541 31.014 85.0962 31.0506 85.135 31.0873C85.1662 31.1134 85.1949 31.1421 85.2235 31.1716C85.3139 31.2583 85.3983 31.3509 85.4764 31.4489C85.513 31.4935 85.5467 31.5378 85.5783 31.582C85.7148 31.769 85.8297 31.9707 85.9209 32.1834C85.9471 32.2411 85.9703 32.3009 85.9939 32.3612C85.9939 32.3637 85.9964 32.3667 85.9964 32.3692C86.0322 32.4659 86.0629 32.5643 86.0882 32.6642C86.1013 32.7139 86.1114 32.7607 86.122 32.8104C86.13 32.8496 86.1376 32.8863 86.143 32.9255C86.1485 32.9647 86.1561 33.0039 86.1612 33.043C86.169 33.0898 86.1743 33.1369 86.1772 33.1842C86.1822 33.2242 86.1847 33.2644 86.1848 33.3047C86.1826 33.3642 86.1852 33.4215 86.1852 33.4767Z" fill="#F0F0F0"/>
<path opacity="0.29" d="M86.1853 77.9954V78.4649C86.1853 80.3258 84.7399 81.8361 82.9569 81.8361H3.22744C1.44446 81.8361 -0.000976562 80.3271 -0.000976562 78.4649V77.9954L41.0068 51.0151C41.6244 50.6053 42.3491 50.3867 43.0903 50.3867C43.8314 50.3867 44.5561 50.6053 45.1737 51.0151L86.1853 77.9954Z" fill="#474747"/>
<path d="M86.1853 78.1546V78.6043C86.1853 79.4605 85.8452 80.2816 85.2397 80.8871C84.6343 81.4925 83.8131 81.8327 82.9569 81.8327H3.22744C2.37121 81.8327 1.55005 81.4925 0.944605 80.8871C0.339159 80.2816 -0.000976563 79.4605 -0.000976562 78.6043V78.1546L41.0068 52.3072C41.6305 51.9138 42.3529 51.7051 43.0903 51.7051C43.8277 51.7051 44.55 51.9138 45.1737 52.3072L86.1853 78.1546Z" fill="#F0F0F0"/>
<path d="M15.0521 11.4199H39.0459C39.4176 11.4199 39.7741 11.5676 40.037 11.8304C40.2998 12.0933 40.4475 12.4498 40.4475 12.8215V13.4174C40.4475 13.789 40.2999 14.1454 40.0371 14.4082C39.7743 14.671 39.4179 14.8186 39.0463 14.8186H15.0521C14.6804 14.8186 14.3241 14.671 14.0613 14.4082C13.7985 14.1454 13.6509 13.789 13.6509 13.4174V12.8207C13.651 12.4491 13.7987 12.0929 14.0614 11.8302C14.3242 11.5675 14.6805 11.4199 15.0521 11.4199Z" fill="#3B82F4"/>
</g>
<g clip-path="url(#clip1_4472_501)">
<path opacity="0.1" d="M140.119 43.0068C140.084 42.4687 139.843 41.9664 139.447 41.61C139.05 41.2536 138.532 41.0722 138.005 41.1054L61.2462 46.0898C60.7196 46.1251 60.2281 46.372 59.8793 46.7767C59.5306 47.1813 59.3531 47.7106 59.3856 48.2486L61.3677 80.0989C61.402 80.637 61.6437 81.1392 62.0398 81.4956C62.436 81.852 62.9543 82.0335 63.4812 82.0002L140.239 77.0158C140.766 76.9808 141.258 76.7339 141.607 76.3293C141.956 75.9246 142.133 75.3952 142.101 74.857L140.119 43.0068Z" fill="#232323"/>
<path d="M142.18 74.0853L65.426 79.0688C64.8991 79.102 64.3808 78.9206 63.9847 78.5642C63.5885 78.2078 63.3468 77.7055 63.3125 77.1674L61.3305 45.32C61.2979 44.7819 61.4754 44.2526 61.8241 43.848C62.1729 43.4434 62.6644 43.1964 63.191 43.1612L139.95 38.1777C140.477 38.1445 140.995 38.3258 141.391 38.682C141.787 39.0382 142.029 39.5402 142.063 40.0781L144.046 71.9265C144.078 72.4653 143.9 72.9953 143.55 73.4C143.201 73.8048 142.708 74.0512 142.18 74.0853Z" fill="white"/>
<path d="M134.063 47.7525L100.567 49.9279C100.151 49.9533 99.7411 49.8095 99.4281 49.5277C99.115 49.2459 98.9237 48.8492 98.896 48.4239L98.8906 48.3443C98.8654 47.9188 99.0061 47.5005 99.2818 47.1806C99.5574 46.8607 99.9458 46.6651 100.362 46.6365L133.859 44.462C134.275 44.4361 134.685 44.5796 134.998 44.8613C135.311 45.143 135.502 45.5398 135.53 45.9651L135.535 46.0456C135.56 46.471 135.42 46.8892 135.144 47.209C134.868 47.5288 134.48 47.7241 134.063 47.7525Z" fill="#E4E4E4"/>
<path d="M134.505 54.9311L101.009 57.1056C100.593 57.132 100.183 56.9887 99.869 56.707C99.5555 56.4253 99.364 56.0281 99.3365 55.6025L99.331 55.5219C99.3057 55.0965 99.4463 54.6782 99.722 54.3584C99.9978 54.0385 100.386 53.8432 100.803 53.8151L134.298 51.6396C134.715 51.614 135.124 51.7576 135.437 52.0392C135.751 52.3208 135.942 52.7175 135.97 53.1427V53.2233C135.996 53.6478 135.856 54.0655 135.582 54.3853C135.307 54.7052 134.92 54.9014 134.505 54.9311Z" fill="#F9F9F9"/>
<path d="M134.952 62.1098L101.456 64.2853C101.04 64.311 100.63 64.1673 100.317 63.8857C100.004 63.6041 99.8123 63.2075 99.7843 62.7822L99.7798 62.7016C99.7544 62.2761 99.895 61.8577 100.171 61.5377C100.446 61.2177 100.835 61.0222 101.251 60.9939L134.747 58.8193C135.163 58.7937 135.573 58.9373 135.886 59.2189C136.199 59.5005 136.391 59.8972 136.419 60.3224L136.423 60.403C136.449 60.8284 136.308 61.2467 136.032 61.5666C135.757 61.8864 135.368 62.0817 134.952 62.1098Z" fill="#F9F9F9"/>
<path d="M135.399 69.2877L101.903 71.4622C101.487 71.4879 101.077 71.3442 100.764 71.0626C100.451 70.781 100.26 70.3843 100.232 69.9591L100.226 69.8785C100.201 69.453 100.342 69.0347 100.618 68.7149C100.894 68.3951 101.283 68.1998 101.699 68.1717L135.194 65.9972C135.612 65.971 136.022 66.115 136.335 66.3975C136.648 66.68 136.839 67.078 136.866 67.504L136.871 67.5845C136.895 68.0093 136.754 68.4265 136.478 68.7455C136.203 69.0645 135.815 69.2593 135.399 69.2877Z" fill="#F9F9F9"/>
<path d="M90.9091 70.744C96.6825 64.8469 96.6825 55.2859 90.9091 49.3888C85.1357 43.4917 75.775 43.4917 70.0016 49.3888C64.2282 55.2859 64.2281 64.8469 70.0016 70.744C75.775 76.6411 85.1356 76.6411 90.9091 70.744Z" fill="#F9F9F9"/>
</g>
<defs>
<clipPath id="clip0_4472_501">
<rect width="86.1854" height="81.8327" fill="white"/>
</clipPath>
<clipPath id="clip1_4472_501">
<rect width="84.6645" height="43.8278" fill="white" transform="translate(59.3809 38.1738)"/>
</clipPath>
</defs>
</svg>
