<svg width="21" height="20" viewBox="0 0 21 20" fill="none" xmlns="http://www.w3.org/2000/svg">
<path d="M19.6985 4.08513L16.1113 0.479576C15.8742 0.243727 15.5534 0.111328 15.219 0.111328C14.8847 0.111328 14.5639 0.243727 14.3268 0.479576L1.6096 13.1785L0.44849 18.1896C0.408436 18.3728 0.409809 18.5626 0.452509 18.7452C0.495209 18.9278 0.578158 19.0985 0.695296 19.2449C0.812433 19.3913 0.960801 19.5097 1.12956 19.5915C1.29832 19.6732 1.4832 19.7162 1.67071 19.7174C1.75808 19.7262 1.84612 19.7262 1.93349 19.7174L6.9996 18.5562L19.6985 5.86958C19.9343 5.63253 20.0667 5.31174 20.0667 4.97735C20.0667 4.64297 19.9343 4.32218 19.6985 4.08513ZM6.38849 17.4562L1.64016 18.4524L2.72182 13.7957L12.2368 4.31735L15.9035 7.98402L6.38849 17.4562ZM16.7224 7.09791L13.0557 3.43124L15.1824 1.3168L18.7879 4.98347L16.7224 7.09791Z" fill="black"/>
</svg>
