<svg width="36" height="36" viewBox="0 0 36 36" fill="none" xmlns="http://www.w3.org/2000/svg">
<circle cx="18" cy="18" r="17" stroke="#D6D6D6" stroke-width="2"/>
<path d="M18 10C16.4178 10 14.871 10.4692 13.5554 11.3482C12.2398 12.2273 11.2145 13.4767 10.609 14.9385C10.0035 16.4003 9.84504 18.0089 10.1537 19.5607C10.4624 21.1126 11.2243 22.538 12.3431 23.6569C13.462 24.7757 14.8874 25.5376 16.4393 25.8463C17.9911 26.155 19.5997 25.9965 21.0615 25.391C22.5233 24.7855 23.7727 23.7602 24.6518 22.4446C25.5308 21.129 26 19.5822 26 18C26 15.8783 25.1571 13.8434 23.6569 12.3431C22.1566 10.8429 20.1217 10 18 10ZM18.6933 19.2089V21.9822H17.3067V19.2089H16.2044L18 17.0133L19.7956 19.2089H18.6933ZM22.208 15.7813V16.848H21.1556V15.7813H14.8444V16.848H13.792V14.7289H22.208V15.7813Z" fill="#D6D6D6"/>
</svg>
