<svg height='100px' width='100px'  fill="#1A1A1A" xmlns="http://www.w3.org/2000/svg" xmlns:xlink="http://www.w3.org/1999/xlink" version="1.1" x="0px" y="0px" viewBox="0 0 100 100" enable-background="new 0 0 100 100" xml:space="preserve"><path d="M49.3,38.8v-6.3c-6.9,0.1-12.8,4.4-15.4,10.4c-1,2.3-1.4,4.8-1.3,7.4c0.2,3.6,1.5,7,3.7,9.7c1.2,1.4,0.9,3.5-0.6,4.6  c-1.4,1-3.4,0.7-4.5-0.6c-2.7-3.3-4.4-7.4-4.9-11.8c-0.4-3.2-0.1-6.4,0.8-9.3c2.8-9.6,11.7-16.7,22.2-16.8v-6.3  c0-0.3,0.4-0.5,0.7-0.3l13,9.5c0.2,0.2,0.2,0.5,0,0.6l-13,9.5C49.7,39.3,49.3,39.1,49.3,38.8z M50,80.6c0.3,0.2,0.7,0,0.7-0.3V74  c10.5-0.1,19.4-7.2,22.2-16.8c0.8-2.9,1.2-6,0.8-9.3c-0.5-4.4-2.3-8.5-4.9-11.8c-1.1-1.4-3.1-1.7-4.5-0.6c-1.5,1.1-1.8,3.2-0.6,4.6  c2.2,2.7,3.5,6,3.7,9.7c0.1,2.6-0.4,5.2-1.3,7.4c-2.5,6-8.4,10.3-15.4,10.4v-6.3c0-0.3-0.4-0.5-0.7-0.3l-13,9.5  c-0.2,0.2-0.2,0.5,0,0.6L50,80.6z"></path></svg>