<svg width="24" height="13" viewBox="0 0 24 13" fill="none" xmlns="http://www.w3.org/2000/svg">
<path d="M0 11.903V3.44411C0.00443673 2.52664 0.372951 1.64847 1.02456 1.00258C1.67616 0.356688 2.55755 -0.00407314 3.47502 -0.000426292H15.8053C15.9719 -0.00123787 16.1321 0.0640955 16.2507 0.181243C16.3693 0.29839 16.4366 0.457788 16.4378 0.624468V9.08339C16.4333 10.0009 16.0648 10.879 15.4132 11.5249C14.7616 12.1708 13.8802 12.5316 12.9627 12.5279H0.636325C0.55347 12.5288 0.471252 12.5134 0.394387 12.4824C0.317522 12.4515 0.247522 12.4057 0.188403 12.3476C0.129283 12.2896 0.0822081 12.2204 0.0498774 12.1441C0.0175468 12.0678 0.000596944 11.9859 0 11.903ZM17.2227 8.60329L22.3133 12.3222C22.7553 12.6887 23.0982 12.5965 23.0982 11.9335V0.593986C23.0982 -0.160459 22.6791 -0.0690107 22.3133 0.206095L17.2227 3.91659V8.60329Z" fill="black"/>
</svg>
