<svg width="36" height="36" viewBox="0 0 36 36" fill="none" xmlns="http://www.w3.org/2000/svg">
<circle cx="18" cy="18" r="17" stroke="#D6D6D6" stroke-width="2"/>
<path d="M21.9615 19.9172V21.8077C21.9615 22.7636 21.1866 23.5385 20.2308 23.5385H12.7308C11.7749 23.5385 11 22.7636 11 21.8077V13.7308C11 12.7749 11.7749 12 12.7308 12H20.2308C21.1866 12 21.9615 12.7749 21.9615 13.7308V15.1635L25.1958 13.7774C25.5765 13.6143 26 13.8935 26 14.3077V21.2308C26 21.6737 25.5215 21.9515 25.1368 21.7317L21.9615 19.9172ZM13.8846 15.4615C14.2032 15.4615 14.4615 15.2032 14.4615 14.8846C14.4615 14.566 14.2032 14.3077 13.8846 14.3077C13.566 14.3077 13.3077 14.566 13.3077 14.8846C13.3077 15.2032 13.566 15.4615 13.8846 15.4615Z" fill="#D6D6D6"/>
</svg>
