<svg width="25" height="25" viewBox="0 0 25 25" fill="none" xmlns="http://www.w3.org/2000/svg">
<path d="M16.8454 19.3044C14.3305 17.2833 13.6274 18.2766 12.486 19.4176C11.6895 20.2145 9.67351 18.5505 7.93288 16.8094C6.19226 15.0684 4.52819 13.0528 5.32468 12.2559C6.46569 11.1149 7.45905 10.4114 5.43718 7.89733C3.41608 5.3821 2.06882 7.31296 0.963741 8.41843C-0.312431 9.69421 0.896553 14.4481 5.59499 19.1473C10.2942 23.8458 15.0481 25.054 16.3235 23.7786C17.429 22.6735 19.3602 21.3266 16.8454 19.3044Z" fill="black"/>
<path d="M11.2179 15.221C10.7796 15.221 10.3667 15.0202 10.0906 14.6577C9.74605 14.2054 9.70112 13.6136 9.97378 13.114C10.1378 12.814 10.2722 12.4979 10.3683 12.1913C8.58237 10.9647 7.53198 9.14717 7.53198 7.23818C7.53198 3.65811 11.1246 0.745605 15.5402 0.745605C19.9562 0.745605 23.5484 3.65811 23.5484 7.23818C23.5484 10.8183 19.9562 13.7304 15.5406 13.7304C15.2492 13.7304 14.9468 13.7147 14.6246 13.6831C13.8359 14.3839 12.805 14.887 11.5539 15.1815C11.4417 15.2081 11.3289 15.221 11.2179 15.221ZM15.5406 2.22725C11.9417 2.22725 9.0144 4.4749 9.0144 7.23779C9.0144 8.80146 9.95347 10.2503 11.591 11.2136L12.0371 11.4761L11.9445 11.9854C11.8414 12.5491 11.6316 13.1433 11.3355 13.7101C12.3996 13.4425 13.2402 12.9987 13.8351 12.3897L14.0933 12.1257L14.4593 12.1729C14.855 12.2237 15.2085 12.2487 15.5406 12.2487C19.1394 12.2487 22.0671 10.0011 22.0671 7.23818C22.0671 4.47529 19.1394 2.22725 15.5406 2.22725Z" fill="black"/>
<path d="M11.8664 8.50274C12.5947 8.50274 13.1851 7.91231 13.1851 7.18399C13.1851 6.45566 12.5947 5.86523 11.8664 5.86523C11.138 5.86523 10.5476 6.45566 10.5476 7.18399C10.5476 7.91231 11.138 8.50274 11.8664 8.50274Z" fill="black"/>
<path d="M15.5407 8.50274C16.269 8.50274 16.8594 7.91231 16.8594 7.18399C16.8594 6.45566 16.269 5.86523 15.5407 5.86523C14.8123 5.86523 14.2219 6.45566 14.2219 7.18399C14.2219 7.91231 14.8123 8.50274 15.5407 8.50274Z" fill="black"/>
<path d="M19.2147 8.50274C19.9431 8.50274 20.5335 7.91231 20.5335 7.18399C20.5335 6.45566 19.9431 5.86523 19.2147 5.86523C18.4864 5.86523 17.896 6.45566 17.896 7.18399C17.896 7.91231 18.4864 8.50274 19.2147 8.50274Z" fill="black"/>
</svg>
