<svg width="30" height="30" viewBox="0 0 30 30" fill="none" xmlns="http://www.w3.org/2000/svg">
<path d="M23.9401 9.09031C23.9401 6.87031 22.1401 5.07031 19.9201 5.07031H10.0801C7.86006 5.07031 6.06006 6.87031 6.06006 9.09031V16.9203C6.06006 18.9003 7.50006 20.5503 9.39006 20.8803V24.2703C9.39006 24.5103 9.54006 24.7503 9.75006 24.8703C9.84006 24.9303 9.96006 24.9303 10.0501 24.9303C10.2001 24.9303 10.3201 24.9003 10.4401 24.8103L12.4501 23.3403C14.6401 21.7503 17.2201 20.9103 19.9201 20.9103C22.1401 20.9103 23.9401 19.1103 23.9401 16.8903V9.09031ZM22.6201 16.9203C22.6201 18.3903 21.4201 19.5903 19.9501 19.5903C16.9801 19.5903 14.1301 20.5203 11.7001 22.2603L10.7401 22.9503V20.2503C10.7401 19.8903 10.4401 19.5903 10.0801 19.5903C8.61006 19.5903 7.41006 18.3903 7.41006 16.9203V9.09031C7.41006 7.62031 8.61006 6.42031 10.0801 6.42031H19.9501C21.4201 6.42031 22.6201 7.62031 22.6201 9.09031V16.9203Z" fill="black"/>
<path d="M15.0001 9.2998C13.8901 9.2998 12.8101 10.0198 12.8101 11.3998C12.8101 11.7598 13.1101 12.0598 13.4701 12.0598C13.8301 12.0598 14.1301 11.7598 14.1301 11.3998C14.1301 10.6798 14.9101 10.6498 15.0001 10.6498C15.0901 10.6498 15.8701 10.6798 15.8701 11.3998V11.5498C15.8701 11.8498 15.7201 12.0898 15.4501 12.2398L14.8501 12.5698C14.5201 12.7498 14.3401 13.0798 14.3401 13.4398V13.9798C14.3401 14.3398 14.6401 14.6398 15.0001 14.6398C15.3601 14.6398 15.6601 14.3398 15.6601 13.9798V13.6498L16.0801 13.4398C16.7701 13.0798 17.1901 12.3598 17.1901 11.5798V11.3998C17.1901 10.0198 16.0801 9.2998 15.0001 9.2998Z" fill="black"/>
<path d="M14.9999 15.3901C13.9199 15.3901 13.9199 17.0701 14.9999 17.0701C16.0799 17.0701 16.0799 15.3901 14.9999 15.3901Z" fill="black"/>
</svg>
