<svg width="20" height="24" viewBox="0 0 20 24" fill="none" xmlns="http://www.w3.org/2000/svg">
<mask id="path-1-inside-1_7119_1921" fill="white">
<path fill-rule="evenodd" clip-rule="evenodd" d="M5 0C2.23858 0 0 2.23858 0 5V15C0 17.7614 2.23858 20 5 20H7.68004L10.563 23.6253L13.435 20H15C17.7614 20 20 17.7614 20 15V5C20 2.23858 17.7614 0 15 0H5Z"/>
</mask>
<path d="M7.68004 20L8.85405 19.0664L8.40366 18.5H7.68004V20ZM10.563 23.6253L9.38901 24.5589L10.5653 26.038L11.7388 24.5567L10.563 23.6253ZM13.435 20V18.5H12.7097L12.2593 19.0685L13.435 20ZM1.5 5C1.5 3.067 3.067 1.5 5 1.5V-1.5C1.41015 -1.5 -1.5 1.41015 -1.5 5H1.5ZM1.5 15V5H-1.5V15H1.5ZM5 18.5C3.067 18.5 1.5 16.933 1.5 15H-1.5C-1.5 18.5898 1.41015 21.5 5 21.5V18.5ZM7.68004 18.5H5V21.5H7.68004V18.5ZM11.737 22.6916L8.85405 19.0664L6.50602 20.9336L9.38901 24.5589L11.737 22.6916ZM12.2593 19.0685L9.38728 22.6938L11.7388 24.5567L14.6108 20.9315L12.2593 19.0685ZM15 18.5H13.435V21.5H15V18.5ZM18.5 15C18.5 16.933 16.933 18.5 15 18.5V21.5C18.5898 21.5 21.5 18.5898 21.5 15H18.5ZM18.5 5V15H21.5V5H18.5ZM15 1.5C16.933 1.5 18.5 3.067 18.5 5H21.5C21.5 1.41015 18.5898 -1.5 15 -1.5V1.5ZM5 1.5H15V-1.5H5V1.5Z" fill="black" mask="url(#path-1-inside-1_7119_1921)"/>
<path d="M10 6.4966L10.8758 8.96745L10.9938 9.30041H11.3471H14.0536L11.9025 10.733L11.5782 10.949L11.7084 11.3162L12.5536 13.7007L10.2772 12.1847L10 12.0001L9.72284 12.1847L7.44644 13.7007L8.29164 11.3162L8.42181 10.949L8.09753 10.733L5.94643 9.30041H8.65292H9.00617L9.12419 8.96745L10 6.4966Z" stroke="black"/>
</svg>
