<svg width="26" height="26" viewBox="0 0 26 26" fill="none" xmlns="http://www.w3.org/2000/svg">
<path d="M12.9999 1.44531C10.7144 1.44531 8.48027 2.12303 6.57997 3.39277C4.67967 4.66252 3.19857 6.46725 2.32396 8.57875C1.44934 10.6903 1.2205 13.0137 1.66638 15.2552C2.11225 17.4968 3.21281 19.5558 4.82888 21.1719C6.44496 22.788 8.50396 23.8885 10.7455 24.3344C12.9871 24.7803 15.3105 24.5514 17.422 23.6768C19.5335 22.8022 21.3382 21.3211 22.608 19.4208C23.8777 17.5205 24.5555 15.2863 24.5555 13.0009C24.5523 9.93712 23.3338 6.99977 21.1674 4.83338C19.001 2.66698 16.0636 1.4485 12.9999 1.44531ZM12.9999 23.112C11.0001 23.112 9.04523 22.519 7.38246 21.408C5.7197 20.2969 4.42373 18.7178 3.65845 16.8702C2.89316 15.0227 2.69293 12.9897 3.08307 11.0283C3.47321 9.06693 4.4362 7.2653 5.85026 5.85123C7.26433 4.43717 9.06595 3.47418 11.0273 3.08404C12.9887 2.6939 15.0217 2.89413 16.8693 3.65942C18.7168 4.42471 20.296 5.72067 21.407 7.38344C22.518 9.0462 23.111 11.0011 23.111 13.0009C23.111 15.6825 22.0457 18.2543 20.1495 20.1505C18.2533 22.0467 15.6815 23.112 12.9999 23.112Z" fill="black"/>
<path d="M18.0941 6.96725L10.4337 10.0319H10.412C10.3848 10.0449 10.3583 10.0593 10.3326 10.0752C10.2314 10.1314 10.148 10.2148 10.0918 10.3159C10.076 10.3416 10.0615 10.3681 10.0485 10.3954C10.0485 10.3954 10.0485 10.4098 10.0485 10.4171L6.96703 18.0943C6.92337 18.2039 6.90723 18.3225 6.92003 18.4398C6.93283 18.5571 6.97417 18.6695 7.04045 18.7671C7.10672 18.8648 7.1959 18.9447 7.30019 18.9999C7.40448 19.055 7.5207 19.0838 7.63869 19.0837C7.73012 19.0835 7.82072 19.0664 7.90592 19.0332L15.5663 15.9685H15.588C15.6152 15.9555 15.6417 15.9411 15.6674 15.9252C15.6937 15.9115 15.7187 15.8954 15.742 15.8771C15.7637 15.8602 15.783 15.8385 15.8046 15.8193C15.8266 15.7986 15.8467 15.776 15.8648 15.7519C15.8822 15.7296 15.8983 15.7063 15.913 15.6821C15.9288 15.6556 15.9433 15.6282 15.9563 15.6002C15.9563 15.6002 15.9563 15.5858 15.9563 15.5785L19.033 7.90614C19.0855 7.77489 19.0984 7.63111 19.0699 7.49262C19.0415 7.35413 18.9731 7.22703 18.8731 7.12706C18.7732 7.0271 18.6461 6.95867 18.5076 6.93026C18.3691 6.90185 18.2253 6.91471 18.0941 6.96725ZM8.94592 17.0784L10.9778 11.9987L14.0135 15.0345L8.94592 17.0784ZM15.0343 14.0137L11.9865 10.9659L17.0661 8.9341L15.0343 14.0137Z" fill="black"/>
</svg>
