<svg width="20" height="20" viewBox="0 0 20 20" fill="none" xmlns="http://www.w3.org/2000/svg">
<path d="M1.09969 7.93933C1.05395 7.91295 1.01595 7.87499 0.98954 7.82926C0.963126 7.78353 0.949219 7.73166 0.949219 7.67885C0.949219 7.62604 0.963126 7.57416 0.98954 7.52844C1.01595 7.48271 1.05395 7.44474 1.09969 7.41836L1.07469 7.37506L1.07471 7.37505L9.82509 2.32313L9.8251 2.32312C9.87842 2.29236 9.93888 2.27617 10.0004 2.27617C10.062 2.27617 10.1224 2.29236 10.1757 2.32312L10.1758 2.32313L18.8956 7.35784L18.9254 7.37503C18.9787 7.4058 19.023 7.45008 19.0538 7.50341C19.0846 7.55674 19.1009 7.61724 19.1009 7.67883C19.1009 7.74042 19.0846 7.80092 19.0538 7.85425C19.023 7.90758 18.9787 7.95185 18.9254 7.98262C18.9254 7.98263 18.9254 7.98263 18.9254 7.98263L16.1273 9.59781V12.1294C16.1273 13.1728 15.4442 14.0955 14.3422 14.7548C13.2396 15.4144 11.7109 15.8153 9.99962 15.8153C8.90007 15.8153 7.87917 15.6473 6.99584 15.354L7.38427 16.2159L7.38431 16.216C7.39219 16.2336 7.39862 16.2518 7.40354 16.2704C7.44707 16.3687 7.47009 16.4749 7.47119 16.5824L7.4712 16.5829C7.47119 16.9104 7.2747 17.1968 6.96528 17.3991C6.65572 17.6014 6.22882 17.7231 5.7532 17.7231C5.27758 17.7231 4.85068 17.6014 4.54112 17.3991C4.2317 17.1968 4.03521 16.9104 4.03521 16.5829V16.5824C4.0363 16.4744 4.0595 16.3678 4.10337 16.2691C4.10813 16.2509 4.1144 16.2331 4.12211 16.216L4.12213 16.2159L4.99481 14.2795C4.29054 13.681 3.87205 12.9424 3.87205 12.1294V9.59758L1.07471 7.98265L1.07469 7.98264L1.09969 7.93933ZM1.09969 7.93933L3.92205 9.56871L1.09969 7.93933ZM9.99983 8.66075C10.4051 8.66072 10.7639 8.55862 11.0229 8.38549C11.2822 8.21214 11.4442 7.96507 11.4442 7.67855C11.4442 7.39204 11.2822 7.14497 11.0229 6.97162C10.7638 6.79846 10.405 6.69635 9.99964 6.69635C9.59425 6.69635 9.23544 6.79846 8.97641 6.97162C8.71711 7.14497 8.55508 7.39204 8.55508 7.67855L8.55509 7.67932C8.55726 7.82129 8.59915 7.95943 8.67548 8.07831L5.74804 9.87054L1.95165 7.67883L10.0004 3.03192L18.0484 7.67883L9.99964 12.3251L6.43949 10.2697L9.27593 8.53318C9.5074 8.61935 9.75271 8.6626 9.99983 8.66075ZM9.99983 8.66075C9.99976 8.66075 9.9997 8.66075 9.99964 8.66075V8.61075L10 8.66075C9.99995 8.66075 9.99989 8.66075 9.99983 8.66075ZM4.75833 16.5235L4.75845 16.5236L4.76014 16.5203C4.77213 16.4969 4.78136 16.4723 4.78763 16.4468L5.7532 14.3043L6.71791 16.4451C6.72449 16.4711 6.73399 16.4963 6.74623 16.5202L6.74611 16.5203L6.74807 16.5235C6.75959 16.5424 6.76691 16.5635 6.76955 16.5854C6.76869 16.6179 6.75086 16.661 6.70717 16.71C6.66301 16.7596 6.59601 16.811 6.50728 16.8576C6.33006 16.9506 6.0716 17.0214 5.7532 17.0214C5.4348 17.0214 5.17634 16.9506 4.99912 16.8576C4.91039 16.811 4.84339 16.7596 4.79923 16.71C4.75554 16.661 4.73772 16.6179 4.73685 16.5854C4.73949 16.5635 4.74681 16.5424 4.75833 16.5235ZM4.57367 12.1294V10.0026L5.40239 10.4811V13.3751L5.29807 13.6066C4.837 13.1672 4.57367 12.6636 4.57367 12.1294ZM15.4257 12.1294C15.4257 12.9394 14.8304 13.6846 13.8458 14.2302C12.8629 14.7748 11.5025 15.1136 9.99962 15.1136C8.70251 15.1136 7.51678 14.8576 6.58292 14.4378L6.10401 13.3751V10.8861L9.82427 13.0339C9.82428 13.0339 9.82428 13.0339 9.82429 13.0339C9.87759 13.0647 9.93806 13.0809 9.99963 13.0809C10.0612 13.0809 10.1217 13.0647 10.175 13.0339C10.175 13.0339 10.175 13.0339 10.175 13.0339L15.4257 10.0028V12.1294ZM9.25667 7.67857C9.25667 7.66923 9.26424 7.6461 9.29702 7.61283C9.32811 7.58126 9.37619 7.54657 9.44097 7.51433C9.5702 7.44999 9.76072 7.39798 9.99961 7.39798C10.2385 7.39798 10.429 7.44999 10.5582 7.51433C10.623 7.54657 10.6711 7.58126 10.7022 7.61283C10.735 7.6461 10.7426 7.66923 10.7426 7.67857C10.7426 7.68791 10.735 7.71103 10.7022 7.7443C10.6711 7.77587 10.623 7.81056 10.5582 7.8428C10.429 7.90714 10.2385 7.95915 9.99961 7.95915C9.76072 7.95915 9.5702 7.90714 9.44097 7.8428C9.37619 7.81056 9.32811 7.77587 9.29702 7.7443C9.26424 7.71103 9.25667 7.68791 9.25667 7.67857Z" fill="black" stroke="black" stroke-width="0.1"/>
</svg>
