<svg width="20" height="16" viewBox="0 0 20 16" fill="none" xmlns="http://www.w3.org/2000/svg">
<path d="M18.9254 5.98263C18.9787 5.95186 19.023 5.90759 19.0538 5.85425C19.0846 5.80092 19.1009 5.74042 19.1009 5.67883C19.1009 5.61724 19.0846 5.55674 19.0538 5.50341C19.023 5.45008 18.9787 5.4058 18.9254 5.37503L18.8958 5.35798L10.1758 0.323128L10.1758 0.323119C10.1224 0.292363 10.062 0.276172 10.0004 0.276172C9.93888 0.276172 9.87842 0.292363 9.8251 0.323119L9.82509 0.323127L1.07471 5.37505L16.0773 7.56894M18.9254 5.98263L18.9004 5.93932L18.9254 5.98262L18.9254 5.98263ZM18.9254 5.98263L16.1273 7.59781M16.1273 7.59781V7.56894H16.0773M16.1273 7.59781V10.1294C16.1273 11.1728 15.4442 12.0955 14.3422 12.7548C13.2396 13.4144 11.7109 13.8153 9.99962 13.8153C8.90007 13.8153 7.87917 13.6473 6.99584 13.354M16.1273 7.59781L16.1023 7.61225L16.0773 7.56894M16.0773 7.56894L6.99584 13.354M6.99584 13.354L7.38427 14.2159L7.38431 14.216C7.39219 14.2336 7.39862 14.2518 7.40354 14.2704C7.44707 14.3687 7.4701 14.4749 7.47119 14.5824L7.4712 14.5829C7.47119 14.9104 7.2747 15.1968 6.96528 15.3991C6.65572 15.6014 6.22882 15.7231 5.7532 15.7231C5.27758 15.7231 4.85068 15.6014 4.54112 15.3991C4.2317 15.1968 4.03521 14.9104 4.03521 14.5829V14.5824C4.0363 14.4744 4.0595 14.3678 4.10337 14.2691C4.10813 14.2509 4.1144 14.2331 4.12211 14.216L4.12213 14.2159L4.99481 12.2795C4.29054 11.681 3.87205 10.9424 3.87205 10.1294V7.59758L1.07471 5.98265L1.07469 5.98264L1.09969 5.93933C1.05395 5.91295 1.01595 5.87499 0.98954 5.82926C0.963126 5.78353 0.949219 5.73166 0.949219 5.67885C0.949219 5.62604 0.963126 5.57416 0.98954 5.52844C1.01595 5.48271 1.05395 5.44474 1.09969 5.41836L6.99584 13.354ZM9.99983 6.66075C10.4051 6.66072 10.7639 6.55862 11.0229 6.38549C11.2822 6.21214 11.4442 5.96507 11.4442 5.67855C11.4442 5.39204 11.2822 5.14497 11.0229 4.97162C10.7638 4.79846 10.405 4.69635 9.99964 4.69635C9.59425 4.69635 9.23544 4.79846 8.97641 4.97162C8.71711 5.14497 8.55508 5.39204 8.55508 5.67855L8.55509 5.67932C8.55726 5.82129 8.59915 5.95943 8.67548 6.07831L5.74804 7.87054L1.95165 5.67883L10.0004 1.03192L18.0484 5.67883L9.99964 10.3251L6.43949 8.26974L9.27593 6.53318C9.5074 6.61934 9.75271 6.6626 9.99983 6.66075ZM9.99983 6.66075C9.99976 6.66075 9.9997 6.66075 9.99964 6.66075V6.61075L10 6.66075C9.99995 6.66075 9.99989 6.66075 9.99983 6.66075ZM13.8458 12.2302C14.8304 11.6846 15.4257 10.9394 15.4257 10.1294V8.00284L10.175 11.0339L10.175 11.0339L10.15 10.9906C10.1043 11.017 10.0524 11.0309 9.99963 11.0309C9.94684 11.0309 9.89499 11.017 9.84929 10.9906L13.8458 12.2302ZM13.8458 12.2302C12.8629 12.7748 11.5025 13.1136 9.99962 13.1136C8.70251 13.1136 7.51678 12.8576 6.58292 12.4378L6.10401 11.3751V8.88613L9.82427 11.0339L13.8458 12.2302ZM4.75833 14.5235L4.75845 14.5236L4.76014 14.5203C4.77213 14.4969 4.78136 14.4723 4.78763 14.4468L5.7532 12.3043L6.71791 14.4451C6.72449 14.4711 6.73399 14.4963 6.74623 14.5202L6.74611 14.5203L6.74807 14.5235C6.75959 14.5424 6.76691 14.5635 6.76955 14.5854C6.76869 14.6179 6.75086 14.661 6.70717 14.71C6.66301 14.7596 6.59601 14.811 6.50728 14.8576C6.33006 14.9506 6.0716 15.0214 5.7532 15.0214C5.4348 15.0214 5.17634 14.9506 4.99912 14.8576C4.91039 14.811 4.84339 14.7596 4.79923 14.71C4.75554 14.661 4.73771 14.6179 4.73685 14.5854C4.73949 14.5635 4.74681 14.5424 4.75833 14.5235ZM4.57367 10.1294V8.00262L5.40239 8.48107V11.3751L5.29807 11.6066C4.837 11.1672 4.57367 10.6636 4.57367 10.1294ZM9.25667 5.67857C9.25667 5.66923 9.26424 5.6461 9.29702 5.61283C9.32811 5.58126 9.37619 5.54657 9.44097 5.51433C9.57021 5.44999 9.76072 5.39798 9.99961 5.39798C10.2385 5.39798 10.429 5.44999 10.5582 5.51433C10.623 5.54657 10.6711 5.58126 10.7022 5.61283C10.735 5.6461 10.7426 5.66923 10.7426 5.67857C10.7426 5.68791 10.735 5.71103 10.7022 5.7443C10.6711 5.77587 10.623 5.81056 10.5582 5.8428C10.429 5.90714 10.2385 5.95915 9.99961 5.95915C9.76072 5.95915 9.57021 5.90714 9.44097 5.84281C9.37619 5.81056 9.32811 5.77587 9.29702 5.7443C9.26424 5.71103 9.25667 5.68791 9.25667 5.67857Z" fill="#484A9E" stroke="#484A9E" stroke-width="0.1"/>
</svg>
