<svg width="24" height="24" viewBox="0 0 24 24" fill="none" xmlns="http://www.w3.org/2000/svg">
<path d="M20.5312 5.60156H16.1016V4.78253C16.101 4.30373 15.9105 3.8447 15.572 3.50614C15.2334 3.16758 14.7744 2.97713 14.2956 2.97656H9.70457C9.22574 2.97709 8.76668 3.16753 8.42808 3.50609C8.08949 3.84466 7.89901 4.3037 7.89844 4.78253V5.60156H3.46875C2.90329 5.60222 2.36118 5.82713 1.96135 6.22697C1.56151 6.62681 1.33659 7.16892 1.33594 7.73438V18.8906C1.33659 19.4561 1.56151 19.9982 1.96135 20.398C2.36118 20.7979 2.90329 21.0228 3.46875 21.0234H20.5312C21.0967 21.0228 21.6388 20.7979 22.0387 20.398C22.4385 19.9982 22.6634 19.4561 22.6641 18.8906V7.73438C22.6634 7.16892 22.4385 6.62681 22.0387 6.22697C21.6388 5.82713 21.0967 5.60222 20.5312 5.60156ZM8.88281 4.78253C8.88307 4.56468 8.96974 4.35583 9.1238 4.20181C9.27785 4.04778 9.48672 3.96115 9.70457 3.96094H14.2956C14.5134 3.96116 14.7223 4.04779 14.8763 4.20182C15.0303 4.35585 15.117 4.5647 15.1172 4.78253V5.60156H8.88281V4.78253ZM21.6797 18.8906C21.6793 19.1951 21.5582 19.487 21.3429 19.7023C21.1276 19.9176 20.8357 20.0387 20.5312 20.0391H3.46875C3.16428 20.0387 2.87239 19.9176 2.65709 19.7023C2.4418 19.487 2.32068 19.1951 2.32031 18.8906V15.1068C2.6626 15.3278 3.06135 15.4453 3.46875 15.4453H8.55469V16.2656C8.55468 16.3303 8.5674 16.3943 8.59213 16.454C8.61686 16.5137 8.65312 16.568 8.69882 16.6137C8.74453 16.6594 8.79879 16.6956 8.85851 16.7204C8.91823 16.7451 8.98224 16.7578 9.04688 16.7578H14.9531C15.0178 16.7578 15.0818 16.7451 15.1415 16.7204C15.2012 16.6956 15.2555 16.6594 15.3012 16.6137C15.3469 16.568 15.3831 16.5137 15.4079 16.454C15.4326 16.3943 15.4453 16.3303 15.4453 16.2656V15.4453H20.5312C20.9387 15.4453 21.3374 15.3278 21.6797 15.1068V18.8906ZM9.53906 15.7734V14.1328H14.4609V15.7734H9.53906ZM21.6797 13.3125C21.6793 13.617 21.5582 13.9089 21.3429 14.1242C21.1276 14.3394 20.8357 14.4606 20.5312 14.4609H15.4453V13.6406C15.4453 13.576 15.4326 13.512 15.4079 13.4523C15.3831 13.3925 15.3469 13.3383 15.3012 13.2926C15.2555 13.2469 15.2012 13.2106 15.1415 13.1859C15.0818 13.1611 15.0178 13.1484 14.9531 13.1484H9.04688C8.98224 13.1484 8.91823 13.1611 8.85851 13.1859C8.79879 13.2106 8.74453 13.2469 8.69882 13.2926C8.65312 13.3383 8.61686 13.3925 8.59213 13.4523C8.5674 13.512 8.55468 13.576 8.55469 13.6406V14.4609H3.46875C3.16428 14.4606 2.87239 14.3394 2.65709 14.1242C2.4418 13.9089 2.32068 13.617 2.32031 13.3125V7.73438C2.32068 7.4299 2.4418 7.13801 2.65709 6.92272C2.87239 6.70742 3.16428 6.58631 3.46875 6.58594H20.5312C20.8357 6.58631 21.1276 6.70742 21.3429 6.92272C21.5582 7.13801 21.6793 7.4299 21.6797 7.73438V13.3125Z" fill="black"/>
</svg>
