<svg width="20" height="18" viewBox="0 0 20 18" fill="none" xmlns="http://www.w3.org/2000/svg">
<path d="M17.8203 3.13477H13.7598V2.38399C13.7592 1.94509 13.5847 1.52431 13.2743 1.21396C12.964 0.903614 12.5432 0.729033 12.1043 0.728516H7.89585C7.45693 0.729001 7.03612 0.903567 6.72574 1.21392C6.41536 1.52427 6.24076 1.94506 6.24023 2.38399V3.13477H2.17969C1.66135 3.13537 1.16442 3.34154 0.7979 3.70806C0.431382 4.07457 0.225209 4.57151 0.224609 5.08984V15.3164C0.225209 15.8347 0.431382 16.3317 0.7979 16.6982C1.16442 17.0647 1.66135 17.2709 2.17969 17.2715H17.8203C18.3386 17.2709 18.8356 17.0647 19.2021 16.6982C19.5686 16.3317 19.7748 15.8347 19.7754 15.3164V5.08984C19.7748 4.57151 19.5686 4.07457 19.2021 3.70806C18.8356 3.34154 18.3386 3.13537 17.8203 3.13477ZM7.14258 2.38399C7.14282 2.18429 7.22226 1.99285 7.36348 1.85166C7.5047 1.71046 7.69616 1.63106 7.89585 1.63086H12.1043C12.304 1.63106 12.4954 1.71048 12.6366 1.85167C12.7778 1.99287 12.8572 2.18431 12.8574 2.38399V3.13477H7.14258V2.38399ZM18.873 15.3164C18.8727 15.5955 18.7617 15.8631 18.5643 16.0604C18.367 16.2578 18.0994 16.3688 17.8203 16.3691H2.17969C1.90059 16.3688 1.63302 16.2578 1.43567 16.0604C1.23832 15.8631 1.12729 15.5955 1.12695 15.3164V11.8479C1.44072 12.0505 1.80624 12.1582 2.17969 12.1582H6.8418V12.9102C6.84179 12.9694 6.85345 13.0281 6.87612 13.0828C6.89879 13.1376 6.93202 13.1873 6.97392 13.2292C7.01582 13.2711 7.06556 13.3043 7.1203 13.327C7.17504 13.3497 7.23372 13.3613 7.29297 13.3613H12.707C12.7663 13.3613 12.825 13.3497 12.8797 13.327C12.9344 13.3043 12.9842 13.2711 13.0261 13.2292C13.068 13.1873 13.1012 13.1376 13.1239 13.0828C13.1466 13.0281 13.1582 12.9694 13.1582 12.9102V12.1582H17.8203C18.1938 12.1582 18.5593 12.0505 18.873 11.8479V15.3164ZM7.74414 12.459V10.9551H12.2559V12.459H7.74414ZM18.873 10.2031C18.8727 10.4822 18.7617 10.7498 18.5643 10.9471C18.367 11.1445 18.0994 11.2555 17.8203 11.2559H13.1582V10.5039C13.1582 10.4447 13.1466 10.386 13.1239 10.3312C13.1012 10.2765 13.068 10.2268 13.0261 10.1849C12.9842 10.143 12.9344 10.1097 12.8797 10.0871C12.825 10.0644 12.7663 10.0527 12.707 10.0527H7.29297C7.23372 10.0527 7.17504 10.0644 7.1203 10.0871C7.06556 10.1097 7.01582 10.143 6.97392 10.1849C6.93202 10.2268 6.89879 10.2765 6.87612 10.3312C6.85345 10.386 6.84179 10.4447 6.8418 10.5039V11.2559H2.17969C1.90059 11.2555 1.63302 11.1445 1.43567 10.9471C1.23832 10.7498 1.12729 10.4822 1.12695 10.2031V5.08984C1.12729 4.81075 1.23832 4.54318 1.43567 4.34582C1.63302 4.14847 1.90059 4.03745 2.17969 4.03711H17.8203C18.0994 4.03745 18.367 4.14847 18.5643 4.34582C18.7617 4.54318 18.8727 4.81075 18.873 5.08984V10.2031Z" fill="#333333"/>
<path d="M17.8203 3.13477H13.7598V2.38399C13.7592 1.94509 13.5847 1.52431 13.2743 1.21396C12.964 0.903614 12.5432 0.729033 12.1043 0.728516H7.89585C7.45693 0.729001 7.03612 0.903567 6.72574 1.21392C6.41536 1.52427 6.24076 1.94506 6.24023 2.38399V3.13477H2.17969C1.66135 3.13537 1.16442 3.34154 0.7979 3.70806C0.431382 4.07457 0.225209 4.57151 0.224609 5.08984V15.3164C0.225209 15.8347 0.431382 16.3317 0.7979 16.6982C1.16442 17.0647 1.66135 17.2709 2.17969 17.2715H17.8203C18.3386 17.2709 18.8356 17.0647 19.2021 16.6982C19.5686 16.3317 19.7748 15.8347 19.7754 15.3164V5.08984C19.7748 4.57151 19.5686 4.07457 19.2021 3.70806C18.8356 3.34154 18.3386 3.13537 17.8203 3.13477ZM7.14258 2.38399C7.14282 2.18429 7.22226 1.99285 7.36348 1.85166C7.5047 1.71046 7.69616 1.63106 7.89585 1.63086H12.1043C12.304 1.63106 12.4954 1.71048 12.6366 1.85167C12.7778 1.99287 12.8572 2.18431 12.8574 2.38399V3.13477H7.14258V2.38399ZM18.873 15.3164C18.8727 15.5955 18.7617 15.8631 18.5643 16.0604C18.367 16.2578 18.0994 16.3688 17.8203 16.3691H2.17969C1.90059 16.3688 1.63302 16.2578 1.43567 16.0604C1.23832 15.8631 1.12729 15.5955 1.12695 15.3164V11.8479C1.44072 12.0505 1.80624 12.1582 2.17969 12.1582H6.8418V12.9102C6.84179 12.9694 6.85345 13.0281 6.87612 13.0828C6.89879 13.1376 6.93202 13.1873 6.97392 13.2292C7.01582 13.2711 7.06556 13.3043 7.1203 13.327C7.17504 13.3497 7.23372 13.3613 7.29297 13.3613H12.707C12.7663 13.3613 12.825 13.3497 12.8797 13.327C12.9344 13.3043 12.9842 13.2711 13.0261 13.2292C13.068 13.1873 13.1012 13.1376 13.1239 13.0828C13.1466 13.0281 13.1582 12.9694 13.1582 12.9102V12.1582H17.8203C18.1938 12.1582 18.5593 12.0505 18.873 11.8479V15.3164ZM7.74414 12.459V10.9551H12.2559V12.459H7.74414ZM18.873 10.2031C18.8727 10.4822 18.7617 10.7498 18.5643 10.9471C18.367 11.1445 18.0994 11.2555 17.8203 11.2559H13.1582V10.5039C13.1582 10.4447 13.1466 10.386 13.1239 10.3312C13.1012 10.2765 13.068 10.2268 13.0261 10.1849C12.9842 10.143 12.9344 10.1097 12.8797 10.0871C12.825 10.0644 12.7663 10.0527 12.707 10.0527H7.29297C7.23372 10.0527 7.17504 10.0644 7.1203 10.0871C7.06556 10.1097 7.01582 10.143 6.97392 10.1849C6.93202 10.2268 6.89879 10.2765 6.87612 10.3312C6.85345 10.386 6.84179 10.4447 6.8418 10.5039V11.2559H2.17969C1.90059 11.2555 1.63302 11.1445 1.43567 10.9471C1.23832 10.7498 1.12729 10.4822 1.12695 10.2031V5.08984C1.12729 4.81075 1.23832 4.54318 1.43567 4.34582C1.63302 4.14847 1.90059 4.03745 2.17969 4.03711H17.8203C18.0994 4.03745 18.367 4.14847 18.5643 4.34582C18.7617 4.54318 18.8727 4.81075 18.873 5.08984V10.2031Z" fill="#484A9E"/>
</svg>
