<svg width="22" height="20" viewBox="0 0 22 20" fill="none" xmlns="http://www.w3.org/2000/svg">
<path d="M11.9586 18.5945C12.05 18.5359 14.2016 17.1508 16.3789 15.1422M11.9586 18.5945L1.82647 4.84454C2.11391 4.17675 2.52959 3.57186 3.04996 3.06414L3.05064 3.06348C3.57455 2.55035 4.18401 2.14766 4.86079 1.86746L4.86134 1.86723C5.56146 1.57641 6.30246 1.4297 7.06953 1.4297C8.13355 1.4297 9.17074 1.72101 10.0716 2.27061L10.0717 2.27062C10.2872 2.4021 10.4916 2.54628 10.685 2.70318L11 2.95866L11.315 2.70318C11.5084 2.54628 11.7128 2.4021 11.9284 2.27062L11.9284 2.27061C12.8293 1.72101 13.8665 1.4297 14.9305 1.42971L14.9316 1.4297C15.689 1.42796 16.4392 1.57668 17.1387 1.86723L17.1393 1.8675C17.8136 2.14651 18.4281 2.55247 18.9492 3.06333L18.9496 3.06371C19.4695 3.57224 19.8853 4.17725 20.1737 4.84489M11.9586 18.5945L11.4031 18.9508L11.9586 18.5945ZM16.3789 15.1422C17.6914 13.9305 18.7484 12.7352 19.5172 11.5891M16.3789 15.1422L16.0399 14.7747C16.0398 14.7747 16.0398 14.7748 16.0397 14.7748M16.3789 15.1422L16.0397 14.7748M19.5172 11.5891C20.0023 10.8649 20.3844 10.1477 20.6469 9.45626C20.9633 8.62892 21.1227 7.81564 21.1227 7.03517C21.125 6.20783 20.9586 5.40392 20.6328 4.64689L20.1735 4.84454C20.1736 4.84465 20.1736 4.84477 20.1737 4.84489M19.5172 11.5891L19.102 11.3106C19.1019 11.3106 19.1018 11.3107 19.1018 11.3108M19.5172 11.5891L19.1018 11.3108M20.1737 4.84489C20.4726 5.53956 20.6248 6.27564 20.6227 7.03375V7.03517C20.6227 7.74718 20.4773 8.49998 20.1799 9.27766L20.1794 9.27879C19.9329 9.92808 19.5702 10.6116 19.1018 11.3108M20.1737 4.84489L11.1342 18.5293M19.1018 11.3108C18.3603 12.4162 17.3316 13.5822 16.0397 14.7748M16.0397 14.7748C13.8937 16.7545 11.7703 18.1214 11.6888 18.1736L11.6887 18.1737L11.1342 18.5293M11.1342 18.5293C11.1341 18.5293 11.134 18.5294 11.134 18.5294C11.052 18.5816 10.9457 18.5816 10.8637 18.5294C10.8636 18.5294 10.8636 18.5293 10.8635 18.5293L10.309 18.1737L10.309 18.1736L10.3011 18.1687L10.301 18.1687C10.3004 18.1683 10.2979 18.1667 10.2927 18.1634L10.2691 18.1483C10.2491 18.1354 10.2215 18.1175 10.1867 18.0946C10.1171 18.0488 10.0192 17.9837 9.89708 17.9005C9.65282 17.7342 9.3121 17.4963 8.90668 17.1978C8.09509 16.6004 7.02815 15.7632 5.95797 14.7749L5.95792 14.7748C4.66607 13.5822 3.63738 12.4162 2.89587 11.3108C2.42811 10.6125 2.06716 9.9286 1.81779 9.27766C1.52038 8.49998 1.375 7.74718 1.375 7.03517C1.375 6.27599 1.52747 5.53933 1.82645 4.84457L11.1342 18.5293Z" fill="#484A9E" stroke="#484A9E"/>
</svg>
