<svg width="24" height="24" viewBox="0 0 24 24" fill="none" xmlns="http://www.w3.org/2000/svg">
<path d="M12.9586 20.5945C13.05 20.5359 15.2016 19.1508 17.3789 17.1422M12.9586 20.5945L2.82647 6.84454C3.11391 6.17675 3.52959 5.57186 4.04996 5.06414L4.05064 5.06348C4.57455 4.55035 5.18401 4.14766 5.86079 3.86746L5.86134 3.86723C6.56146 3.57641 7.30246 3.4297 8.06953 3.4297C9.13355 3.4297 10.1707 3.72101 11.0716 4.27061L11.0717 4.27062C11.2872 4.4021 11.4916 4.54628 11.685 4.70318L12 4.95866L12.315 4.70318C12.5084 4.54628 12.7128 4.4021 12.9284 4.27062L12.9284 4.27061C13.8293 3.72101 14.8665 3.4297 15.9305 3.42971L15.9316 3.4297C16.689 3.42796 17.4392 3.57668 18.1387 3.86723L18.1393 3.8675C18.8136 4.14651 19.4281 4.55247 19.9492 5.06333L19.9496 5.06371C20.4695 5.57224 20.8853 6.17725 21.1737 6.84489M12.9586 20.5945L12.4031 20.9508L12.9586 20.5945ZM17.3789 17.1422C18.6914 15.9305 19.7484 14.7352 20.5172 13.5891M17.3789 17.1422L17.0399 16.7747C17.0398 16.7747 17.0398 16.7748 17.0397 16.7748M17.3789 17.1422L17.0397 16.7748M20.5172 13.5891C21.0023 12.8649 21.3844 12.1477 21.6469 11.4563C21.9633 10.6289 22.1227 9.81564 22.1227 9.03517C22.125 8.20783 21.9586 7.40392 21.6328 6.64689L21.1735 6.84454C21.1736 6.84465 21.1736 6.84477 21.1737 6.84489M20.5172 13.5891L20.102 13.3106C20.1019 13.3106 20.1018 13.3107 20.1018 13.3108M20.5172 13.5891L20.1018 13.3108M21.1737 6.84489C21.4726 7.53956 21.6248 8.27564 21.6227 9.03375V9.03517C21.6227 9.74718 21.4773 10.5 21.1799 11.2777L21.1794 11.2788C20.9329 11.9281 20.5702 12.6116 20.1018 13.3108M21.1737 6.84489L12.1342 20.5293M20.1018 13.3108C19.3603 14.4162 18.3316 15.5822 17.0397 16.7748M17.0397 16.7748C14.8937 18.7545 12.7703 20.1214 12.6888 20.1736L12.6887 20.1737L12.1342 20.5293M12.1342 20.5293C12.1341 20.5293 12.134 20.5294 12.134 20.5294C12.052 20.5816 11.9457 20.5816 11.8637 20.5294C11.8636 20.5294 11.8636 20.5293 11.8635 20.5293L11.309 20.1737L11.309 20.1736L11.3011 20.1687L11.301 20.1687C11.3004 20.1683 11.2979 20.1667 11.2927 20.1634L11.2691 20.1483C11.2491 20.1354 11.2215 20.1175 11.1867 20.0946C11.1171 20.0488 11.0192 19.9837 10.8971 19.9005C10.6528 19.7342 10.3121 19.4963 9.90668 19.1978C9.09509 18.6004 8.02815 17.7632 6.95797 16.7749L6.95792 16.7748C5.66607 15.5822 4.63738 14.4162 3.89587 13.3108C3.42811 12.6125 3.06716 11.9286 2.81779 11.2777C2.52038 10.5 2.375 9.74718 2.375 9.03517C2.375 8.27599 2.52747 7.53933 2.82645 6.84457L12.1342 20.5293Z" stroke="black"/>
</svg>
