<svg width="24" height="24" viewBox="0 0 24 24" fill="none" xmlns="http://www.w3.org/2000/svg">
<path d="M12.7776 23.9991H11.2224C10.9824 23.9991 10.7464 23.938 10.5365 23.8217C10.3266 23.7054 10.1497 23.5377 10.0224 23.3343C9.9096 23.1567 9.2208 22.0023 8.8704 21.3183L7.6272 20.8071C6.8688 21.0471 5.5032 21.3879 5.3856 21.4167C5.1511 21.4707 4.90675 21.4642 4.67545 21.3978C4.44414 21.3315 4.23348 21.2075 4.0632 21.0375L2.9616 19.9359C2.7914 19.7658 2.66728 19.5551 2.60095 19.3238C2.53461 19.0924 2.52823 18.848 2.5824 18.6135C2.6304 18.4071 2.9568 17.1039 3.192 16.3719L2.6808 15.1335C1.9608 14.7687 0.7608 14.0415 0.6648 13.9815C0.461387 13.8542 0.293663 13.6773 0.177376 13.4674C0.0610889 13.2575 5.32769e-05 13.0215 0 12.7815L0 11.2215C5.32769e-05 10.9815 0.0610889 10.7455 0.177376 10.5356C0.293663 10.3257 0.461387 10.1488 0.6648 10.0215C0.8424 9.90871 1.9968 9.21991 2.6808 8.86951L3.192 7.63111C2.952 6.87271 2.6112 5.50711 2.5824 5.38951C2.52846 5.15501 2.53495 4.91065 2.60128 4.67935C2.6676 4.44805 2.79159 4.23738 2.9616 4.06711L4.0632 2.96551C4.23335 2.7953 4.44401 2.67119 4.67535 2.60485C4.90669 2.53852 5.15111 2.53213 5.3856 2.58631C5.592 2.63431 6.8952 2.96071 7.6272 3.19591L8.8656 2.68471C9.2304 1.96471 9.9576 0.764706 10.0176 0.668706C10.1449 0.465294 10.3218 0.29757 10.5317 0.181282C10.7416 0.0649952 10.9776 0.00395953 11.2176 0.00390625H12.7728C13.0128 0.00395953 13.2488 0.0649952 13.4587 0.181282C13.6686 0.29757 13.8455 0.465294 13.9728 0.668706C14.0856 0.846306 14.7744 2.00071 15.1248 2.68471L16.3632 3.19591C17.1216 2.95591 18.4872 2.61511 18.6048 2.58631C18.8393 2.53236 19.0837 2.53886 19.315 2.60518C19.5463 2.67151 19.7569 2.79549 19.9272 2.96551L21.0288 4.06711C21.199 4.23726 21.3231 4.44791 21.3895 4.67926C21.4558 4.9106 21.4622 5.15502 21.408 5.38951C21.36 5.59591 21.0336 6.89911 20.7984 7.63111L21.3096 8.86951C22.0296 9.23431 23.2296 9.96151 23.3256 10.0215C23.529 10.1488 23.6967 10.3257 23.813 10.5356C23.9293 10.7455 23.9903 10.9815 23.9904 11.2215V12.7767C23.9903 13.0167 23.9293 13.2527 23.813 13.4626C23.6967 13.6725 23.529 13.8494 23.3256 13.9767C23.148 14.0895 21.9936 14.7783 21.3096 15.1287L20.808 16.3719C21.048 17.1303 21.3888 18.4959 21.4176 18.6135C21.4715 18.848 21.465 19.0924 21.3987 19.3237C21.3324 19.555 21.2084 19.7656 21.0384 19.9359L19.9368 21.0375C19.7665 21.2075 19.5559 21.3315 19.3246 21.3978C19.0933 21.4642 18.8489 21.4707 18.6144 21.4167C18.408 21.3687 17.1048 21.0423 16.3728 20.8071L15.1344 21.3183C14.7696 22.0383 14.0424 23.2383 13.9824 23.3343C13.8547 23.5384 13.677 23.7066 13.4662 23.8229C13.2554 23.9392 13.0184 23.9999 12.7776 23.9991ZM7.6632 19.3815L9.84 20.2863L9.948 20.5263C10.1688 21.0063 10.9656 22.3551 11.148 22.6311C11.1563 22.6446 11.168 22.6556 11.1819 22.6632C11.1958 22.6708 11.2114 22.6746 11.2272 22.6743H12.7824C12.7982 22.6746 12.8138 22.6708 12.8277 22.6632C12.8416 22.6556 12.8533 22.6446 12.8616 22.6311C13.0032 22.4055 13.8216 21.0375 14.0616 20.5263L14.1696 20.2863L16.3536 19.3815L16.5936 19.4703C17.0904 19.6527 18.6048 20.0415 18.924 20.1183C18.9388 20.1227 18.9546 20.1227 18.9695 20.1185C18.9844 20.1142 18.9977 20.1059 19.008 20.0943L20.1096 18.9927C20.1209 18.9823 20.1291 18.9689 20.1334 18.9541C20.1376 18.9393 20.1377 18.9236 20.1336 18.9087C20.0736 18.6519 19.6848 17.1039 19.4856 16.5783L19.3968 16.3383L20.2968 14.1591L20.5368 14.0511C21.0168 13.8303 22.3656 13.0335 22.6416 12.8511C22.6551 12.8428 22.6661 12.8311 22.6737 12.8172C22.6813 12.8033 22.6851 12.7877 22.6848 12.7719V11.2167C22.6851 11.2009 22.6813 11.1853 22.6737 11.1714C22.6661 11.1575 22.6551 11.1458 22.6416 11.1375C22.416 10.9959 21.048 10.1775 20.5368 9.93751L20.2968 9.82951L19.392 7.64551L19.4808 7.40551C19.6632 6.90871 20.052 5.39431 20.1288 5.07511C20.1321 5.06021 20.1317 5.04472 20.1275 5.03005C20.1233 5.01537 20.1155 5.00198 20.1048 4.99111L19.0032 3.88951C18.9927 3.87819 18.9794 3.86996 18.9646 3.86573C18.9498 3.86149 18.9341 3.86142 18.9192 3.86551C18.6624 3.92551 17.1192 4.31431 16.5888 4.51351L16.3488 4.60231L14.16 3.70231L14.052 3.46231C13.8312 2.98231 13.0344 1.63351 12.852 1.35751C12.8437 1.34406 12.832 1.333 12.8181 1.32543C12.8042 1.31785 12.7886 1.31402 12.7728 1.31431H11.2272C11.2114 1.31402 11.1958 1.31785 11.1819 1.32543C11.168 1.333 11.1563 1.34406 11.148 1.35751C11.0064 1.58311 10.188 2.95111 9.948 3.46231L9.84 3.70231L7.656 4.60711L7.416 4.51831C6.9192 4.33591 5.4048 3.94711 5.0856 3.87031C5.07076 3.86593 5.05499 3.86587 5.04012 3.87012C5.02525 3.87437 5.01189 3.88276 5.0016 3.89431L3.9 4.99591C3.88868 5.00636 3.88045 5.01973 3.87622 5.03454C3.87199 5.04936 3.87191 5.06505 3.876 5.07991C3.936 5.33671 4.3248 6.88471 4.524 7.41031L4.6128 7.65031L3.7128 9.83911L3.4728 9.94711C2.9928 10.1679 1.644 10.9647 1.368 11.1471C1.35455 11.1554 1.3435 11.1671 1.33592 11.181C1.32835 11.1949 1.32451 11.2105 1.3248 11.2263V12.7815C1.32451 12.7973 1.32835 12.8129 1.33592 12.8268C1.3435 12.8407 1.35455 12.8524 1.368 12.8607C1.5936 13.0023 2.9616 13.8207 3.4728 14.0607L3.7128 14.1687L4.6176 16.3527L4.5288 16.5927C4.3464 17.0895 3.9576 18.6039 3.8808 18.9231C3.87745 18.938 3.87789 18.9535 3.88209 18.9682C3.88628 18.9828 3.89409 18.9962 3.9048 19.0071L5.0064 20.1087C5.01685 20.12 5.03022 20.1283 5.04503 20.1325C5.05985 20.1367 5.07554 20.1368 5.0904 20.1327C5.3472 20.0727 6.8904 19.6839 7.4208 19.4847L7.6632 19.3815ZM12 17.6055C10.8912 17.6055 9.80722 17.2767 8.88525 16.6607C7.96328 16.0446 7.2447 15.169 6.82036 14.1446C6.39603 13.1201 6.285 11.9929 6.50133 10.9054C6.71765 9.81782 7.25161 8.81885 8.03568 8.03478C8.81975 7.25071 9.81871 6.71676 10.9062 6.50043C11.9938 6.28411 13.121 6.39513 14.1455 6.81947C15.1699 7.2438 16.0455 7.96239 16.6616 8.88436C17.2776 9.80633 17.6064 10.8903 17.6064 11.9991C17.6039 13.4852 17.0124 14.9098 15.9615 15.9606C14.9107 17.0115 13.4861 17.603 12 17.6055ZM12 7.71991C11.1537 7.71991 10.3263 7.97088 9.6226 8.44108C8.91889 8.91129 8.37042 9.57961 8.04654 10.3615C7.72265 11.1434 7.63791 12.0039 7.80302 12.8339C7.96814 13.664 8.37569 14.4265 8.97415 15.025C9.57261 15.6234 10.3351 16.031 11.1652 16.1961C11.9953 16.3612 12.8557 16.2765 13.6376 15.9526C14.4195 15.6287 15.0878 15.0802 15.558 14.3765C16.0282 13.6728 16.2792 12.8455 16.2792 11.9991C16.2779 10.8646 15.8267 9.77689 15.0244 8.97466C14.2222 8.17243 13.1345 7.72118 12 7.71991Z" fill="black"/>
</svg>
