<svg width="20" height="20" viewBox="0 0 20 20" fill="none" xmlns="http://www.w3.org/2000/svg">
<mask id="path-1-outside-1_6036_273" maskUnits="userSpaceOnUse" x="-0.283203" y="-0.28418" width="20" height="20" fill="black">
<rect fill="white" x="-0.283203" y="-0.28418" width="20" height="20"/>
<path d="M19.0168 7.96782L16.8168 7.84782C16.6929 7.45419 16.535 7.07208 16.3448 6.70582L17.8188 5.06182C17.8711 5.00558 17.9002 4.93162 17.9002 4.85482C17.9002 4.77802 17.8711 4.70407 17.8188 4.64782L15.3528 2.19982C15.2978 2.14615 15.2246 2.11528 15.1478 2.11342C15.071 2.11157 14.9963 2.13886 14.9388 2.18982L13.2948 3.66382C12.9283 3.4764 12.5462 3.32115 12.1528 3.19982L12.0328 0.999821C12.0287 0.923061 11.9953 0.850804 11.9395 0.797958C11.8836 0.745113 11.8097 0.715711 11.7328 0.715821H8.2688C8.19193 0.715711 8.11795 0.745113 8.06213 0.797958C8.00631 0.850804 7.9729 0.923061 7.9688 0.999821L7.8488 3.19982C7.45516 3.32373 7.07305 3.48166 6.7068 3.67182L5.0628 2.19782C5.0053 2.14686 4.93064 2.11957 4.85383 2.12142C4.77702 2.12328 4.70377 2.15415 4.6488 2.20782L2.2008 4.64782C2.14712 4.70279 2.11626 4.77605 2.1144 4.85285C2.11255 4.92966 2.13984 5.00432 2.1908 5.06182L3.6648 6.70582C3.47738 7.07235 3.32213 7.45445 3.2008 7.84782L1.0008 7.96782C0.924038 7.97192 0.85178 8.00533 0.798935 8.06115C0.746089 8.11697 0.716688 8.19095 0.716797 8.26782V11.7318C0.716688 11.8087 0.746089 11.8827 0.798935 11.9385C0.85178 11.9943 0.924038 12.0277 1.0008 12.0318L3.2008 12.1518C3.32471 12.5455 3.48264 12.9276 3.6728 13.2938L2.1988 14.9378C2.14677 14.9943 2.11806 15.0684 2.11843 15.1452C2.1188 15.222 2.14823 15.2958 2.2008 15.3518L4.6488 17.7998C4.70504 17.8521 4.779 17.8812 4.8558 17.8812C4.9326 17.8812 5.00655 17.8521 5.0628 17.7998L6.7068 16.3258C7.07305 16.516 7.45516 16.6739 7.8488 16.7978L7.9688 18.9978C7.9729 19.0746 8.00631 19.1468 8.06213 19.1997C8.11795 19.2525 8.19193 19.2819 8.2688 19.2818H11.7328C11.8097 19.2819 11.8836 19.2525 11.9395 19.1997C11.9953 19.1468 12.0287 19.0746 12.0328 18.9978L12.1528 16.7978C12.5464 16.6739 12.9285 16.516 13.2948 16.3258L14.9388 17.7998C14.995 17.8521 15.069 17.8812 15.1458 17.8812C15.2226 17.8812 15.2966 17.8521 15.3528 17.7998L17.8008 15.3518C17.8531 15.2956 17.8822 15.2216 17.8822 15.1448C17.8822 15.068 17.8531 14.9941 17.8008 14.9378L16.3268 13.2938C16.517 12.9276 16.6749 12.5455 16.7988 12.1518L18.9988 12.0318C19.0756 12.0277 19.1478 11.9943 19.2007 11.9385C19.2535 11.8827 19.2829 11.8087 19.2828 11.7318V8.26782C19.2833 8.19381 19.2564 8.12224 19.2073 8.06686C19.1582 8.01148 19.0903 7.97621 19.0168 7.96782ZM18.7008 11.4478L16.5688 11.5638C16.5063 11.5678 16.4465 11.5908 16.3975 11.6298C16.3485 11.6687 16.3127 11.7218 16.2948 11.7818C16.1563 12.2697 15.961 12.7396 15.7128 13.1818C15.6822 13.2366 15.6694 13.2995 15.6762 13.3619C15.683 13.4243 15.7091 13.4829 15.7508 13.5298L17.1768 15.1298L15.1288 17.1758L13.5288 15.7498C13.4837 15.7123 13.4287 15.6888 13.3705 15.682C13.3122 15.6753 13.2533 15.6856 13.2008 15.7118C12.7586 15.96 12.2887 16.1554 11.8008 16.2938C11.7408 16.3117 11.6877 16.3476 11.6487 16.3966C11.6098 16.4456 11.5867 16.5053 11.5828 16.5678L11.4488 18.6998H8.5528L8.4368 16.5678C8.43286 16.5053 8.40984 16.4456 8.37086 16.3966C8.33188 16.3476 8.2788 16.3117 8.2188 16.2938C7.73093 16.1554 7.26104 15.96 6.8188 15.7118C6.76403 15.6812 6.70109 15.6684 6.63873 15.6753C6.57637 15.6821 6.51767 15.7081 6.4708 15.7498L4.8708 17.1758L2.8248 15.1278L4.2508 13.5278C4.28829 13.4827 4.31185 13.4277 4.31859 13.3695C4.32534 13.3112 4.31499 13.2523 4.2888 13.1998C4.0406 12.7576 3.84526 12.2877 3.7068 11.7998C3.68892 11.7398 3.65306 11.6867 3.60406 11.6478C3.55506 11.6088 3.49529 11.5858 3.4328 11.5818L1.3008 11.4478V8.55182L3.4328 8.43582C3.49529 8.43188 3.55506 8.40887 3.60406 8.36988C3.65306 8.3309 3.68892 8.27783 3.7068 8.21782C3.84526 7.72996 4.0406 7.26007 4.2888 6.81782C4.31939 6.76305 4.33217 6.70012 4.32536 6.63775C4.31855 6.57539 4.29249 6.51669 4.2508 6.46982L2.8248 4.86982L4.8728 2.82382L6.4728 4.24982C6.51967 4.29152 6.57837 4.31758 6.64073 4.32439C6.70309 4.3312 6.76603 4.31842 6.8208 4.28782C7.26304 4.03962 7.73293 3.84428 8.2208 3.70582C8.2808 3.68794 8.33388 3.65208 8.37286 3.60308C8.41184 3.55409 8.43486 3.49431 8.4388 3.43182L8.5528 1.29982H11.4488L11.5648 3.43182C11.5687 3.49431 11.5918 3.55409 11.6307 3.60308C11.6697 3.65208 11.7228 3.68794 11.7828 3.70582C12.2707 3.84428 12.7406 4.03962 13.1828 4.28782C13.2376 4.31842 13.3005 4.3312 13.3629 4.32439C13.4252 4.31758 13.4839 4.29152 13.5308 4.24982L15.1308 2.82382L17.1768 4.87182L15.7508 6.47182C15.7091 6.51869 15.683 6.57739 15.6762 6.63975C15.6694 6.70212 15.6822 6.76505 15.7128 6.81982C15.961 7.26207 16.1563 7.73196 16.2948 8.21982C16.3127 8.27983 16.3485 8.3329 16.3975 8.37188C16.4465 8.41087 16.5063 8.43388 16.5688 8.43782L18.7008 8.55382V11.4478Z"/>
</mask>
<path d="M19.0168 7.96782L16.8168 7.84782C16.6929 7.45419 16.535 7.07208 16.3448 6.70582L17.8188 5.06182C17.8711 5.00558 17.9002 4.93162 17.9002 4.85482C17.9002 4.77802 17.8711 4.70407 17.8188 4.64782L15.3528 2.19982C15.2978 2.14615 15.2246 2.11528 15.1478 2.11342C15.071 2.11157 14.9963 2.13886 14.9388 2.18982L13.2948 3.66382C12.9283 3.4764 12.5462 3.32115 12.1528 3.19982L12.0328 0.999821C12.0287 0.923061 11.9953 0.850804 11.9395 0.797958C11.8836 0.745113 11.8097 0.715711 11.7328 0.715821H8.2688C8.19193 0.715711 8.11795 0.745113 8.06213 0.797958C8.00631 0.850804 7.9729 0.923061 7.9688 0.999821L7.8488 3.19982C7.45516 3.32373 7.07305 3.48166 6.7068 3.67182L5.0628 2.19782C5.0053 2.14686 4.93064 2.11957 4.85383 2.12142C4.77702 2.12328 4.70377 2.15415 4.6488 2.20782L2.2008 4.64782C2.14712 4.70279 2.11626 4.77605 2.1144 4.85285C2.11255 4.92966 2.13984 5.00432 2.1908 5.06182L3.6648 6.70582C3.47738 7.07235 3.32213 7.45445 3.2008 7.84782L1.0008 7.96782C0.924038 7.97192 0.85178 8.00533 0.798935 8.06115C0.746089 8.11697 0.716688 8.19095 0.716797 8.26782V11.7318C0.716688 11.8087 0.746089 11.8827 0.798935 11.9385C0.85178 11.9943 0.924038 12.0277 1.0008 12.0318L3.2008 12.1518C3.32471 12.5455 3.48264 12.9276 3.6728 13.2938L2.1988 14.9378C2.14677 14.9943 2.11806 15.0684 2.11843 15.1452C2.1188 15.222 2.14823 15.2958 2.2008 15.3518L4.6488 17.7998C4.70504 17.8521 4.779 17.8812 4.8558 17.8812C4.9326 17.8812 5.00655 17.8521 5.0628 17.7998L6.7068 16.3258C7.07305 16.516 7.45516 16.6739 7.8488 16.7978L7.9688 18.9978C7.9729 19.0746 8.00631 19.1468 8.06213 19.1997C8.11795 19.2525 8.19193 19.2819 8.2688 19.2818H11.7328C11.8097 19.2819 11.8836 19.2525 11.9395 19.1997C11.9953 19.1468 12.0287 19.0746 12.0328 18.9978L12.1528 16.7978C12.5464 16.6739 12.9285 16.516 13.2948 16.3258L14.9388 17.7998C14.995 17.8521 15.069 17.8812 15.1458 17.8812C15.2226 17.8812 15.2966 17.8521 15.3528 17.7998L17.8008 15.3518C17.8531 15.2956 17.8822 15.2216 17.8822 15.1448C17.8822 15.068 17.8531 14.9941 17.8008 14.9378L16.3268 13.2938C16.517 12.9276 16.6749 12.5455 16.7988 12.1518L18.9988 12.0318C19.0756 12.0277 19.1478 11.9943 19.2007 11.9385C19.2535 11.8827 19.2829 11.8087 19.2828 11.7318V8.26782C19.2833 8.19381 19.2564 8.12224 19.2073 8.06686C19.1582 8.01148 19.0903 7.97621 19.0168 7.96782ZM18.7008 11.4478L16.5688 11.5638C16.5063 11.5678 16.4465 11.5908 16.3975 11.6298C16.3485 11.6687 16.3127 11.7218 16.2948 11.7818C16.1563 12.2697 15.961 12.7396 15.7128 13.1818C15.6822 13.2366 15.6694 13.2995 15.6762 13.3619C15.683 13.4243 15.7091 13.4829 15.7508 13.5298L17.1768 15.1298L15.1288 17.1758L13.5288 15.7498C13.4837 15.7123 13.4287 15.6888 13.3705 15.682C13.3122 15.6753 13.2533 15.6856 13.2008 15.7118C12.7586 15.96 12.2887 16.1554 11.8008 16.2938C11.7408 16.3117 11.6877 16.3476 11.6487 16.3966C11.6098 16.4456 11.5867 16.5053 11.5828 16.5678L11.4488 18.6998H8.5528L8.4368 16.5678C8.43286 16.5053 8.40984 16.4456 8.37086 16.3966C8.33188 16.3476 8.2788 16.3117 8.2188 16.2938C7.73093 16.1554 7.26104 15.96 6.8188 15.7118C6.76403 15.6812 6.70109 15.6684 6.63873 15.6753C6.57637 15.6821 6.51767 15.7081 6.4708 15.7498L4.8708 17.1758L2.8248 15.1278L4.2508 13.5278C4.28829 13.4827 4.31185 13.4277 4.31859 13.3695C4.32534 13.3112 4.31499 13.2523 4.2888 13.1998C4.0406 12.7576 3.84526 12.2877 3.7068 11.7998C3.68892 11.7398 3.65306 11.6867 3.60406 11.6478C3.55506 11.6088 3.49529 11.5858 3.4328 11.5818L1.3008 11.4478V8.55182L3.4328 8.43582C3.49529 8.43188 3.55506 8.40887 3.60406 8.36988C3.65306 8.3309 3.68892 8.27783 3.7068 8.21782C3.84526 7.72996 4.0406 7.26007 4.2888 6.81782C4.31939 6.76305 4.33217 6.70012 4.32536 6.63775C4.31855 6.57539 4.29249 6.51669 4.2508 6.46982L2.8248 4.86982L4.8728 2.82382L6.4728 4.24982C6.51967 4.29152 6.57837 4.31758 6.64073 4.32439C6.70309 4.3312 6.76603 4.31842 6.8208 4.28782C7.26304 4.03962 7.73293 3.84428 8.2208 3.70582C8.2808 3.68794 8.33388 3.65208 8.37286 3.60308C8.41184 3.55409 8.43486 3.49431 8.4388 3.43182L8.5528 1.29982H11.4488L11.5648 3.43182C11.5687 3.49431 11.5918 3.55409 11.6307 3.60308C11.6697 3.65208 11.7228 3.68794 11.7828 3.70582C12.2707 3.84428 12.7406 4.03962 13.1828 4.28782C13.2376 4.31842 13.3005 4.3312 13.3629 4.32439C13.4252 4.31758 13.4839 4.29152 13.5308 4.24982L15.1308 2.82382L17.1768 4.87182L15.7508 6.47182C15.7091 6.51869 15.683 6.57739 15.6762 6.63975C15.6694 6.70212 15.6822 6.76505 15.7128 6.81982C15.961 7.26207 16.1563 7.73196 16.2948 8.21982C16.3127 8.27983 16.3485 8.3329 16.3975 8.37188C16.4465 8.41087 16.5063 8.43388 16.5688 8.43782L18.7008 8.55382V11.4478Z" fill="#484A9E"/>
<path d="M19.0168 7.96782L16.8168 7.84782C16.6929 7.45419 16.535 7.07208 16.3448 6.70582L17.8188 5.06182C17.8711 5.00558 17.9002 4.93162 17.9002 4.85482C17.9002 4.77802 17.8711 4.70407 17.8188 4.64782L15.3528 2.19982C15.2978 2.14615 15.2246 2.11528 15.1478 2.11342C15.071 2.11157 14.9963 2.13886 14.9388 2.18982L13.2948 3.66382C12.9283 3.4764 12.5462 3.32115 12.1528 3.19982L12.0328 0.999821C12.0287 0.923061 11.9953 0.850804 11.9395 0.797958C11.8836 0.745113 11.8097 0.715711 11.7328 0.715821H8.2688C8.19193 0.715711 8.11795 0.745113 8.06213 0.797958C8.00631 0.850804 7.9729 0.923061 7.9688 0.999821L7.8488 3.19982C7.45516 3.32373 7.07305 3.48166 6.7068 3.67182L5.0628 2.19782C5.0053 2.14686 4.93064 2.11957 4.85383 2.12142C4.77702 2.12328 4.70377 2.15415 4.6488 2.20782L2.2008 4.64782C2.14712 4.70279 2.11626 4.77605 2.1144 4.85285C2.11255 4.92966 2.13984 5.00432 2.1908 5.06182L3.6648 6.70582C3.47738 7.07235 3.32213 7.45445 3.2008 7.84782L1.0008 7.96782C0.924038 7.97192 0.85178 8.00533 0.798935 8.06115C0.746089 8.11697 0.716688 8.19095 0.716797 8.26782V11.7318C0.716688 11.8087 0.746089 11.8827 0.798935 11.9385C0.85178 11.9943 0.924038 12.0277 1.0008 12.0318L3.2008 12.1518C3.32471 12.5455 3.48264 12.9276 3.6728 13.2938L2.1988 14.9378C2.14677 14.9943 2.11806 15.0684 2.11843 15.1452C2.1188 15.222 2.14823 15.2958 2.2008 15.3518L4.6488 17.7998C4.70504 17.8521 4.779 17.8812 4.8558 17.8812C4.9326 17.8812 5.00655 17.8521 5.0628 17.7998L6.7068 16.3258C7.07305 16.516 7.45516 16.6739 7.8488 16.7978L7.9688 18.9978C7.9729 19.0746 8.00631 19.1468 8.06213 19.1997C8.11795 19.2525 8.19193 19.2819 8.2688 19.2818H11.7328C11.8097 19.2819 11.8836 19.2525 11.9395 19.1997C11.9953 19.1468 12.0287 19.0746 12.0328 18.9978L12.1528 16.7978C12.5464 16.6739 12.9285 16.516 13.2948 16.3258L14.9388 17.7998C14.995 17.8521 15.069 17.8812 15.1458 17.8812C15.2226 17.8812 15.2966 17.8521 15.3528 17.7998L17.8008 15.3518C17.8531 15.2956 17.8822 15.2216 17.8822 15.1448C17.8822 15.068 17.8531 14.9941 17.8008 14.9378L16.3268 13.2938C16.517 12.9276 16.6749 12.5455 16.7988 12.1518L18.9988 12.0318C19.0756 12.0277 19.1478 11.9943 19.2007 11.9385C19.2535 11.8827 19.2829 11.8087 19.2828 11.7318V8.26782C19.2833 8.19381 19.2564 8.12224 19.2073 8.06686C19.1582 8.01148 19.0903 7.97621 19.0168 7.96782ZM18.7008 11.4478L16.5688 11.5638C16.5063 11.5678 16.4465 11.5908 16.3975 11.6298C16.3485 11.6687 16.3127 11.7218 16.2948 11.7818C16.1563 12.2697 15.961 12.7396 15.7128 13.1818C15.6822 13.2366 15.6694 13.2995 15.6762 13.3619C15.683 13.4243 15.7091 13.4829 15.7508 13.5298L17.1768 15.1298L15.1288 17.1758L13.5288 15.7498C13.4837 15.7123 13.4287 15.6888 13.3705 15.682C13.3122 15.6753 13.2533 15.6856 13.2008 15.7118C12.7586 15.96 12.2887 16.1554 11.8008 16.2938C11.7408 16.3117 11.6877 16.3476 11.6487 16.3966C11.6098 16.4456 11.5867 16.5053 11.5828 16.5678L11.4488 18.6998H8.5528L8.4368 16.5678C8.43286 16.5053 8.40984 16.4456 8.37086 16.3966C8.33188 16.3476 8.2788 16.3117 8.2188 16.2938C7.73093 16.1554 7.26104 15.96 6.8188 15.7118C6.76403 15.6812 6.70109 15.6684 6.63873 15.6753C6.57637 15.6821 6.51767 15.7081 6.4708 15.7498L4.8708 17.1758L2.8248 15.1278L4.2508 13.5278C4.28829 13.4827 4.31185 13.4277 4.31859 13.3695C4.32534 13.3112 4.31499 13.2523 4.2888 13.1998C4.0406 12.7576 3.84526 12.2877 3.7068 11.7998C3.68892 11.7398 3.65306 11.6867 3.60406 11.6478C3.55506 11.6088 3.49529 11.5858 3.4328 11.5818L1.3008 11.4478V8.55182L3.4328 8.43582C3.49529 8.43188 3.55506 8.40887 3.60406 8.36988C3.65306 8.3309 3.68892 8.27783 3.7068 8.21782C3.84526 7.72996 4.0406 7.26007 4.2888 6.81782C4.31939 6.76305 4.33217 6.70012 4.32536 6.63775C4.31855 6.57539 4.29249 6.51669 4.2508 6.46982L2.8248 4.86982L4.8728 2.82382L6.4728 4.24982C6.51967 4.29152 6.57837 4.31758 6.64073 4.32439C6.70309 4.3312 6.76603 4.31842 6.8208 4.28782C7.26304 4.03962 7.73293 3.84428 8.2208 3.70582C8.2808 3.68794 8.33388 3.65208 8.37286 3.60308C8.41184 3.55409 8.43486 3.49431 8.4388 3.43182L8.5528 1.29982H11.4488L11.5648 3.43182C11.5687 3.49431 11.5918 3.55409 11.6307 3.60308C11.6697 3.65208 11.7228 3.68794 11.7828 3.70582C12.2707 3.84428 12.7406 4.03962 13.1828 4.28782C13.2376 4.31842 13.3005 4.3312 13.3629 4.32439C13.4252 4.31758 13.4839 4.29152 13.5308 4.24982L15.1308 2.82382L17.1768 4.87182L15.7508 6.47182C15.7091 6.51869 15.683 6.57739 15.6762 6.63975C15.6694 6.70212 15.6822 6.76505 15.7128 6.81982C15.961 7.26207 16.1563 7.73196 16.2948 8.21982C16.3127 8.27983 16.3485 8.3329 16.3975 8.37188C16.4465 8.41087 16.5063 8.43388 16.5688 8.43782L18.7008 8.55382V11.4478Z" stroke="#484A9E" stroke-width="0.2" mask="url(#path-1-outside-1_6036_273)"/>
</svg>
