<svg width="24" height="24" viewBox="0 0 24 24" fill="none" xmlns="http://www.w3.org/2000/svg">
<path d="M16.7683 6.90082C16.7683 9.52999 14.6286 11.6697 11.9995 11.6697C9.37027 11.6697 7.23047 9.52998 7.23047 6.90082C7.23047 4.27165 9.37028 2.13184 11.9995 2.13184C14.6286 2.13184 16.7683 4.27164 16.7683 6.90082Z" stroke="black"/>
<path d="M20.7033 20.7416L20.7033 20.7416C20.7524 21.0272 20.6741 21.3145 20.4906 21.5322C20.3107 21.7456 20.0482 21.8677 19.7689 21.8677H4.23003C3.95068 21.8677 3.68817 21.7456 3.5083 21.5322C3.32479 21.3145 3.24653 21.0272 3.29559 20.7416L3.29559 20.7416C4.02466 16.4967 7.68385 13.416 11.9994 13.416C16.315 13.416 19.9742 16.4967 20.7033 20.7416Z" stroke="black"/>
</svg>
