<svg width="24" height="24" viewBox="0 0 24 24" fill="none" xmlns="http://www.w3.org/2000/svg">
<path d="M11.9995 12.1697C14.9048 12.1697 17.2683 9.80613 17.2683 6.90082C17.2683 3.99551 14.9048 1.63184 11.9995 1.63184C9.09414 1.63184 6.73047 3.99551 6.73047 6.90082C6.73047 9.80613 9.09414 12.1697 11.9995 12.1697Z" fill="#484A9E"/>
<path d="M21.1961 20.657C20.4257 16.1715 16.5579 12.916 11.9994 12.916C7.44097 12.916 3.5732 16.1715 2.80281 20.657C2.72898 21.0867 2.84675 21.5232 3.12601 21.8545C3.40093 22.1806 3.80335 22.3677 4.23003 22.3677H19.7689C20.1955 22.3677 20.598 22.1806 20.8729 21.8545C21.1521 21.5232 21.2699 21.0867 21.1961 20.657Z" fill="#484A9E"/>
</svg>
