<svg width="332" height="241" viewBox="0 0 332 241" fill="none" xmlns="http://www.w3.org/2000/svg">
<g filter="url(#filter0_d_6775_1350)">
<rect x="28" y="28" width="275.662" height="185" rx="10" fill="white"/>
</g>
<g clip-path="url(#clip0_6775_1350)">
<path d="M241.179 143C241.179 140.239 243.417 138 246.179 138H285.185C287.947 138 290.185 140.239 290.185 143V182.007C290.185 184.768 287.947 187.007 285.185 187.007H246.179C243.417 187.007 241.179 184.768 241.179 182.007V143Z" fill="url(#paint0_linear_6775_1350)"/>
<path d="M280.711 176.388C281.909 178.675 282.508 187.007 282.508 187.007H248.856C248.856 187.007 249.455 178.675 250.653 176.388C252.45 172.958 265.682 168.547 265.682 168.547C265.682 168.547 278.914 172.958 280.711 176.388Z" fill="url(#paint1_linear_6775_1350)"/>
<path d="M265.029 183.086C265.029 182.957 265.067 182.831 265.139 182.723C265.211 182.616 265.313 182.532 265.432 182.482C265.552 182.433 265.683 182.42 265.81 182.445C265.936 182.47 266.053 182.533 266.144 182.624C266.236 182.715 266.298 182.832 266.323 182.959C266.348 183.085 266.335 183.217 266.286 183.336C266.236 183.456 266.153 183.558 266.045 183.629C265.938 183.701 265.811 183.739 265.682 183.739C265.509 183.739 265.343 183.671 265.22 183.548C265.098 183.426 265.029 183.259 265.029 183.086ZM265.029 179.819C265.029 179.69 265.067 179.563 265.139 179.456C265.211 179.348 265.313 179.265 265.432 179.215C265.552 179.166 265.683 179.153 265.81 179.178C265.936 179.203 266.053 179.266 266.144 179.357C266.236 179.448 266.298 179.565 266.323 179.691C266.348 179.818 266.335 179.95 266.286 180.069C266.236 180.188 266.153 180.29 266.045 180.362C265.938 180.434 265.811 180.472 265.682 180.472C265.509 180.472 265.343 180.404 265.22 180.281C265.098 180.158 265.029 179.992 265.029 179.819ZM265.029 176.552C265.029 176.423 265.067 176.296 265.139 176.189C265.211 176.081 265.313 175.998 265.432 175.948C265.552 175.899 265.683 175.886 265.81 175.911C265.936 175.936 266.053 175.998 266.144 176.09C266.236 176.181 266.298 176.298 266.323 176.424C266.348 176.551 266.335 176.683 266.286 176.802C266.236 176.921 266.153 177.023 266.045 177.095C265.938 177.167 265.811 177.205 265.682 177.205C265.509 177.205 265.343 177.136 265.22 177.014C265.098 176.891 265.029 176.725 265.029 176.552Z" fill="white"/>
<path d="M279.644 166.654L253.106 163.447C251.798 156.502 253.35 152.125 257.762 150.319C259.801 143.636 267.74 144.179 269.99 144.724C277.648 146.578 280.866 153.888 279.644 166.654Z" fill="url(#paint2_linear_6775_1350)"/>
<path d="M261.761 170.508V160.706C257.674 160.645 258.471 153.562 262.578 155.724C263.313 156.051 265.192 155.152 264.538 152.947C268.949 156.214 275.095 150.48 275.483 154.009C276.247 160.953 274.769 166.661 270.851 166.661C270.433 166.677 270.015 166.652 269.603 166.587V170.508C268.323 171.27 267.044 171.651 265.765 171.651C264.486 171.651 263.152 171.27 261.761 170.508Z" fill="#FFDBC9"/>
<path d="M269.603 166.587V167.894C267.152 167.894 265.247 166.723 263.885 164.382C265.519 165.471 267.425 166.206 269.603 166.587Z" fill="#FFBC9E"/>
<path d="M265.677 171.484C266.794 171.43 269.603 170.852 269.603 169.603V168.547C269.902 168.547 270.76 169.255 271.201 169.854C272.945 172.223 271.011 174.346 269.433 174.346C267.442 174.346 266.123 172.683 265.682 171.883C265.241 172.684 263.922 174.346 261.931 174.346C260.353 174.346 258.419 172.223 260.163 169.854C260.604 169.255 261.462 168.547 261.762 168.547V169.603C261.762 170.852 264.496 171.43 265.677 171.484Z" fill="white"/>
</g>
<g clip-path="url(#clip1_6775_1350)">
<path d="M175 143C175 140.239 177.239 138 180 138H219.007C221.768 138 224.007 140.239 224.007 143V182.007C224.007 184.768 221.768 187.007 219.007 187.007H180C177.239 187.007 175 184.768 175 182.007V143Z" fill="url(#paint3_linear_6775_1350)"/>
<path d="M214.532 176.388C215.73 178.675 216.329 187.007 216.329 187.007H182.678C182.678 187.007 183.277 178.675 184.475 176.388C186.272 172.958 199.503 168.547 199.503 168.547C199.503 168.547 212.735 172.958 214.532 176.388Z" fill="url(#paint4_linear_6775_1350)"/>
<path d="M198.85 183.086C198.85 182.957 198.888 182.831 198.96 182.723C199.032 182.616 199.134 182.532 199.253 182.482C199.373 182.433 199.504 182.42 199.631 182.445C199.758 182.47 199.874 182.533 199.966 182.624C200.057 182.715 200.119 182.832 200.144 182.959C200.17 183.085 200.157 183.217 200.107 183.336C200.058 183.456 199.974 183.558 199.867 183.629C199.759 183.701 199.633 183.739 199.504 183.739C199.33 183.739 199.164 183.671 199.041 183.548C198.919 183.426 198.85 183.259 198.85 183.086ZM198.85 179.819C198.85 179.69 198.888 179.563 198.96 179.456C199.032 179.348 199.134 179.265 199.253 179.215C199.373 179.166 199.504 179.153 199.631 179.178C199.758 179.203 199.874 179.266 199.966 179.357C200.057 179.448 200.119 179.565 200.144 179.691C200.17 179.818 200.157 179.95 200.107 180.069C200.058 180.188 199.974 180.29 199.867 180.362C199.759 180.434 199.633 180.472 199.504 180.472C199.33 180.472 199.164 180.404 199.041 180.281C198.919 180.158 198.85 179.992 198.85 179.819ZM198.85 176.552C198.85 176.423 198.888 176.296 198.96 176.189C199.032 176.081 199.134 175.998 199.253 175.948C199.373 175.899 199.504 175.886 199.631 175.911C199.758 175.936 199.874 175.998 199.966 176.09C200.057 176.181 200.119 176.298 200.144 176.424C200.17 176.551 200.157 176.683 200.107 176.802C200.058 176.921 199.974 177.023 199.867 177.095C199.759 177.167 199.633 177.205 199.504 177.205C199.33 177.205 199.164 177.136 199.041 177.014C198.919 176.891 198.85 176.725 198.85 176.552Z" fill="white"/>
<path d="M213.466 166.654L186.927 163.447C185.619 156.502 187.171 152.125 191.583 150.319C193.623 143.636 201.561 144.179 203.811 144.724C211.469 146.578 214.687 153.888 213.466 166.654Z" fill="url(#paint5_linear_6775_1350)"/>
<path d="M195.583 170.508V160.706C191.495 160.645 192.293 153.562 196.4 155.724C197.135 156.051 199.013 155.152 198.36 152.947C202.77 156.214 208.916 150.48 209.305 154.009C210.068 160.953 208.591 166.661 204.672 166.661C204.255 166.677 203.837 166.652 203.424 166.587V170.508C202.145 171.27 200.866 171.651 199.587 171.651C198.308 171.651 196.973 171.27 195.583 170.508Z" fill="#FFDBC9"/>
<path d="M203.424 166.587V167.894C200.974 167.894 199.068 166.723 197.707 164.382C199.34 165.471 201.246 166.206 203.424 166.587Z" fill="#FFBC9E"/>
<path d="M199.498 171.484C200.615 171.43 203.424 170.852 203.424 169.603V168.547C203.723 168.547 204.581 169.255 205.022 169.854C206.766 172.223 204.832 174.346 203.254 174.346C201.264 174.346 199.944 172.683 199.503 171.883C199.062 172.684 197.743 174.346 195.752 174.346C194.175 174.346 192.24 172.223 193.984 169.854C194.425 169.255 195.283 168.547 195.583 168.547V169.603C195.583 170.852 198.317 171.43 199.498 171.484Z" fill="white"/>
</g>
<g clip-path="url(#clip2_6775_1350)">
<path d="M108.861 75.8809C108.861 73.1194 111.099 70.8809 113.861 70.8809H152.867C155.629 70.8809 157.867 73.1194 157.867 75.8809V114.887C157.867 117.649 155.629 119.887 152.867 119.887H113.861C111.099 119.887 108.861 117.649 108.861 114.887V75.8809Z" fill="url(#paint6_linear_6775_1350)"/>
<path d="M145.207 96.9361C146.532 92.5352 147.349 85.0112 141.777 79.8655C137.518 75.9329 126.013 75.5366 122.011 84.1127C121.343 85.5444 122.256 87.7882 124.053 87.7066C124.759 87.6739 125.196 89.9119 125.605 91.3004C125.033 96.9361 119.939 97.0402 117.355 101.347C114.17 106.656 118.09 114.497 127.483 114.497C136.876 114.497 142.261 106.722 145.207 96.9361Z" fill="url(#paint7_linear_6775_1350)"/>
<path d="M148.393 109.829C149.591 112.136 150.19 120.541 150.19 120.541H116.539C116.539 120.541 117.138 112.136 118.335 109.829C120.132 106.368 133.364 101.918 133.364 101.918C133.364 101.918 146.596 106.368 148.393 109.829Z" fill="url(#paint8_linear_6775_1350)"/>
<path d="M137.285 103.879C137.285 103.879 135.199 105.022 133.281 105.022C131.362 105.022 129.444 103.879 129.444 103.879V100.285C129.031 100.35 128.613 100.375 128.195 100.359C124.277 100.359 122.799 94.6508 123.563 87.7064C124.053 87.7064 125.196 87.7064 126.83 85.4194C126.422 88.6049 131.159 88.1148 132.956 85.5828C132.057 88.6049 134.426 90.6468 136.468 89.4216C140.472 87.0192 141.372 94.3429 137.285 94.404V103.879Z" fill="url(#paint9_linear_6775_1350)"/>
<g style="mix-blend-mode:multiply" opacity="0.782">
<path d="M129.444 100.285C131.47 99.9118 133.409 99.1639 135.161 98.0796C135.161 98.0796 133.119 101.592 129.444 101.592V100.285Z" fill="#FFD7B8"/>
</g>
<path d="M133.37 104.855C134.55 104.801 137.285 104.223 137.285 102.974V101.918C137.584 101.918 138.442 102.626 138.883 103.225C140.627 105.594 138.693 107.718 137.115 107.718C135.125 107.718 133.805 106.054 133.364 105.254C132.923 106.055 131.604 107.718 129.613 107.718C128.036 107.718 126.101 105.594 127.845 103.225C128.286 102.626 129.144 101.918 129.444 101.918V102.974C129.444 104.223 132.252 104.801 133.37 104.855Z" fill="white"/>
<path d="M132.71 115.967C132.71 115.838 132.749 115.711 132.821 115.604C132.892 115.496 132.994 115.413 133.114 115.363C133.233 115.314 133.365 115.301 133.491 115.326C133.618 115.351 133.735 115.414 133.826 115.505C133.917 115.596 133.98 115.713 134.005 115.839C134.03 115.966 134.017 116.098 133.968 116.217C133.918 116.336 133.834 116.438 133.727 116.51C133.619 116.582 133.493 116.62 133.364 116.62C133.191 116.62 133.024 116.552 132.902 116.429C132.779 116.306 132.71 116.14 132.71 115.967ZM132.71 112.7C132.71 112.571 132.749 112.444 132.821 112.337C132.892 112.229 132.994 112.146 133.114 112.096C133.233 112.047 133.365 112.034 133.491 112.059C133.618 112.084 133.735 112.146 133.826 112.238C133.917 112.329 133.98 112.446 134.005 112.572C134.03 112.699 134.017 112.83 133.968 112.95C133.918 113.069 133.834 113.171 133.727 113.243C133.619 113.315 133.493 113.353 133.364 113.353C133.191 113.353 133.024 113.284 132.902 113.162C132.779 113.039 132.71 112.873 132.71 112.7ZM132.71 109.433C132.71 109.303 132.749 109.177 132.821 109.07C132.892 108.962 132.994 108.878 133.114 108.829C133.233 108.78 133.365 108.767 133.491 108.792C133.618 108.817 133.735 108.879 133.826 108.971C133.917 109.062 133.98 109.178 134.005 109.305C134.03 109.432 134.017 109.563 133.968 109.683C133.918 109.802 133.834 109.904 133.727 109.976C133.619 110.048 133.493 110.086 133.364 110.086C133.191 110.086 133.024 110.017 132.902 109.895C132.779 109.772 132.71 109.606 132.71 109.433Z" fill="url(#paint10_linear_6775_1350)"/>
</g>
<g clip-path="url(#clip3_6775_1350)">
<path d="M175.02 75.8809C175.02 73.1194 177.259 70.8809 180.02 70.8809H219.027C221.788 70.8809 224.027 73.1194 224.027 75.8809V114.887C224.027 117.649 221.788 119.887 219.027 119.887H180.02C177.259 119.887 175.02 117.649 175.02 114.887V75.8809Z" fill="url(#paint11_linear_6775_1350)"/>
<path d="M204.587 99.3047V101.265C204.587 103.879 208.345 105.022 208.345 105.022C208.345 105.022 204.016 108.289 199.523 108.289C195.031 108.289 190.702 105.022 190.702 105.022C190.702 105.022 194.489 103.879 194.459 101.265C194.43 98.6513 194.45 97.1158 194.43 92.6379C192.089 89.6032 192.239 87.5665 193.519 86.1342C197.808 81.3356 209.488 82.9692 209.488 82.9692C209.488 82.9692 210.578 94.7296 208.099 98.1613C207.038 99.6315 204.587 99.3047 204.587 99.3047Z" fill="url(#paint12_linear_6775_1350)"/>
<path d="M204.588 99.305C200.994 98.8966 198.87 97.3447 198.87 97.3447C200.211 99.3283 202.254 100.729 204.588 101.265V99.305Z" fill="#DB6F3D"/>
<path d="M216.676 109.973C218.231 113.135 219.126 120.428 219.126 120.428H179.921C179.921 120.428 180.816 113.135 182.371 109.973C183.926 106.812 193.006 103.88 193.006 103.88C194.756 107.473 204.36 107.473 206.037 103.879C206.037 103.879 215.121 106.811 216.676 109.973Z" fill="url(#paint13_linear_6775_1350)"/>
<path d="M196.445 87.7407C195.926 87.2946 195.295 86.9942 194.402 87.4578C192.287 88.5561 193.888 92.7706 195.766 92.7706C196.257 92.7706 196.5 94.3098 194.318 95.3843C194.318 93.6691 191.705 89.4218 191.476 85.5549C188.846 84.5756 189.499 80.6572 191.305 80.6572C191.017 77.0653 196.769 75.2099 198.996 77.2713C201.261 74.5565 206.978 75.945 207.324 78.3003C211.255 76.2017 213.839 82.2342 210.158 84.5761C208.643 85.5399 205.1 85.9066 199.985 85.9066C199.212 85.9066 198.78 86.0984 198.996 87.0532C199.414 88.9033 198.443 90.0687 196.445 87.7407Z" fill="url(#paint14_linear_6775_1350)"/>
</g>
<g clip-path="url(#clip4_6775_1350)">
<path d="M109 143C109 140.239 111.239 138 114 138H153.007C155.768 138 158.007 140.239 158.007 143V182.007C158.007 184.768 155.768 187.007 153.007 187.007H114C111.239 187.007 109 184.768 109 182.007V143Z" fill="url(#paint15_linear_6775_1350)"/>
<path d="M138.567 166.424V168.384C138.567 170.998 142.325 172.141 142.325 172.141C142.325 172.141 137.996 175.408 133.503 175.408C129.011 175.408 124.682 172.141 124.682 172.141C124.682 172.141 128.469 170.998 128.439 168.384C128.41 165.77 128.43 164.235 128.41 159.757C126.069 156.722 126.219 154.686 127.499 153.253C131.788 148.455 143.468 150.088 143.468 150.088C143.468 150.088 144.558 161.849 142.079 165.28C141.018 166.751 138.567 166.424 138.567 166.424Z" fill="url(#paint16_linear_6775_1350)"/>
<path d="M138.568 166.424C134.974 166.016 132.85 164.464 132.85 164.464C134.191 166.447 136.234 167.849 138.568 168.384V166.424Z" fill="#DB6F3D"/>
<path d="M150.656 177.093C152.211 180.255 153.106 187.547 153.106 187.547H113.901C113.901 187.547 114.796 180.254 116.351 177.093C117.906 173.931 126.986 170.999 126.986 170.999C128.736 174.592 138.34 174.592 140.017 170.998C140.017 170.998 149.101 173.93 150.656 177.093Z" fill="url(#paint17_linear_6775_1350)"/>
<path d="M130.425 154.86C129.906 154.414 129.274 154.113 128.382 154.577C126.267 155.675 127.868 159.89 129.746 159.89C130.236 159.89 130.48 161.429 128.298 162.503C128.298 160.788 125.685 156.541 125.456 152.674C122.826 151.695 123.479 147.776 125.285 147.776C124.997 144.184 130.749 142.329 132.976 144.39C135.241 141.676 140.958 143.064 141.303 145.419C145.235 143.321 147.819 149.353 144.138 151.695C142.623 152.659 139.08 153.026 133.965 153.026C133.192 153.026 132.76 153.218 132.976 154.172C133.394 156.022 132.423 157.188 130.425 154.86Z" fill="url(#paint18_linear_6775_1350)"/>
</g>
<g clip-path="url(#clip5_6775_1350)">
<path d="M42.7021 75.8809C42.7021 73.1194 44.9407 70.8809 47.7021 70.8809H86.7088C89.4702 70.8809 91.7088 73.1194 91.7088 75.8809V114.887C91.7088 117.649 89.4702 119.887 86.7088 119.887H47.7022C44.9407 119.887 42.7021 117.649 42.7021 114.887V75.8809Z" fill="url(#paint19_linear_6775_1350)"/>
<path d="M72.2695 99.3047V101.265C72.2695 103.879 76.0267 105.022 76.0267 105.022C76.0267 105.022 71.6977 108.289 67.2055 108.289C62.7132 108.289 58.3843 105.022 58.3843 105.022C58.3843 105.022 62.171 103.879 62.1415 101.265C62.1119 98.6513 62.1317 97.1158 62.1119 92.6379C59.7707 89.6032 59.921 87.5665 61.2012 86.1342C65.4902 81.3356 77.1701 82.9692 77.1701 82.9692C77.1701 82.9692 78.2601 94.7296 75.7816 98.1613C74.7198 99.6315 72.2695 99.3047 72.2695 99.3047Z" fill="url(#paint20_linear_6775_1350)"/>
<g style="mix-blend-mode:multiply">
<path d="M72.2697 99.305C68.6759 98.8966 66.5522 97.3447 66.5522 97.3447C67.893 99.3283 69.9363 100.729 72.2697 101.265V99.305Z" fill="#FFDBC9"/>
</g>
<path d="M84.358 109.973C85.9131 113.135 86.8083 120.428 86.8083 120.428H47.603C47.603 120.428 48.4985 113.135 50.0534 109.973C51.6082 106.812 60.6878 103.88 60.6878 103.88C62.4378 107.473 72.0423 107.473 73.7188 103.879C73.7188 103.879 82.8028 106.811 84.358 109.973Z" fill="url(#paint21_linear_6775_1350)"/>
<path d="M66.5522 116.294C66.5522 116.164 66.5906 116.038 66.6624 115.931C66.7342 115.823 66.8362 115.739 66.9556 115.69C67.075 115.64 67.2064 115.628 67.3331 115.653C67.4599 115.678 67.5763 115.74 67.6677 115.832C67.7591 115.923 67.8213 116.039 67.8465 116.166C67.8717 116.293 67.8588 116.424 67.8093 116.544C67.7599 116.663 67.6761 116.765 67.5687 116.837C67.4612 116.909 67.3349 116.947 67.2057 116.947C67.0324 116.947 66.8662 116.878 66.7436 116.756C66.6211 116.633 66.5522 116.467 66.5522 116.294ZM66.5522 113.026C66.5522 112.897 66.5906 112.771 66.6624 112.663C66.7342 112.556 66.8362 112.472 66.9556 112.423C67.075 112.373 67.2064 112.36 67.3331 112.386C67.4599 112.411 67.5763 112.473 67.6677 112.564C67.7591 112.656 67.8213 112.772 67.8465 112.899C67.8717 113.026 67.8588 113.157 67.8093 113.277C67.7599 113.396 67.6761 113.498 67.5687 113.57C67.4612 113.642 67.3349 113.68 67.2057 113.68C67.0324 113.68 66.8662 113.611 66.7436 113.489C66.6211 113.366 66.5522 113.2 66.5522 113.026ZM66.5522 109.759C66.5522 109.63 66.5906 109.504 66.6624 109.396C66.7342 109.289 66.8362 109.205 66.9556 109.156C67.075 109.106 67.2064 109.093 67.3331 109.119C67.4599 109.144 67.5763 109.206 67.6677 109.297C67.7591 109.389 67.8213 109.505 67.8465 109.632C67.8717 109.759 67.8588 109.89 67.8093 110.009C67.7599 110.129 67.6761 110.231 67.5687 110.303C67.4612 110.374 67.3349 110.413 67.2057 110.413C67.0324 110.413 66.8662 110.344 66.7436 110.221C66.6211 110.099 66.5522 109.933 66.5522 109.759Z" fill="white"/>
<path d="M64.1273 87.7407C63.6078 87.2946 62.9766 86.9942 62.0844 87.4578C59.9691 88.5561 61.57 92.7706 63.4486 92.7706C63.9386 92.7706 64.1824 94.3098 62.0004 95.3843C62.0004 93.6691 59.3867 89.4218 59.158 85.5549C56.528 84.5756 57.1814 80.6572 58.987 80.6572C58.6988 77.0653 64.4508 75.2099 66.6779 77.2713C68.943 74.5565 74.6605 75.945 75.0056 78.3003C78.9371 76.2017 81.5214 82.2342 77.8402 84.5761C76.3254 85.5399 72.7819 85.9066 67.6667 85.9066C66.8945 85.9066 66.462 86.0984 66.6779 87.0532C67.096 88.9033 66.1255 90.0687 64.1273 87.7407Z" fill="url(#paint22_linear_6775_1350)"/>
</g>
<path d="M28 38C28 32.4772 32.4772 28 38 28H293.662C299.185 28 303.662 32.4772 303.662 38V52.5033H28V38Z" fill="url(#paint23_linear_6775_1350)"/>
<path d="M189.722 64.1426H282.222" stroke="white"/>
<defs>
<filter id="filter0_d_6775_1350" x="0" y="0" width="331.662" height="241" filterUnits="userSpaceOnUse" color-interpolation-filters="sRGB">
<feFlood flood-opacity="0" result="BackgroundImageFix"/>
<feColorMatrix in="SourceAlpha" type="matrix" values="0 0 0 0 0 0 0 0 0 0 0 0 0 0 0 0 0 0 127 0" result="hardAlpha"/>
<feMorphology radius="4" operator="dilate" in="SourceAlpha" result="effect1_dropShadow_6775_1350"/>
<feOffset/>
<feGaussianBlur stdDeviation="12"/>
<feComposite in2="hardAlpha" operator="out"/>
<feColorMatrix type="matrix" values="0 0 0 0 0.282353 0 0 0 0 0.290196 0 0 0 0 0.619608 0 0 0 0.06 0"/>
<feBlend mode="normal" in2="BackgroundImageFix" result="effect1_dropShadow_6775_1350"/>
<feBlend mode="normal" in="SourceGraphic" in2="effect1_dropShadow_6775_1350" result="shape"/>
</filter>
<linearGradient id="paint0_linear_6775_1350" x1="265.682" y1="138" x2="265.682" y2="187.007" gradientUnits="userSpaceOnUse">
<stop stop-color="#EAEAEA"/>
<stop offset="1" stop-color="#ECECEC"/>
</linearGradient>
<linearGradient id="paint1_linear_6775_1350" x1="248.856" y1="177.777" x2="282.508" y2="177.777" gradientUnits="userSpaceOnUse">
<stop stop-color="#606C88"/>
<stop offset="1" stop-color="#3F4C6B"/>
</linearGradient>
<linearGradient id="paint2_linear_6775_1350" x1="266.277" y1="166.654" x2="266.277" y2="144.425" gradientUnits="userSpaceOnUse">
<stop/>
<stop offset="1"/>
</linearGradient>
<linearGradient id="paint3_linear_6775_1350" x1="199.503" y1="138" x2="199.503" y2="187.007" gradientUnits="userSpaceOnUse">
<stop stop-color="#EAEAEA"/>
<stop offset="1" stop-color="#ECECEC"/>
</linearGradient>
<linearGradient id="paint4_linear_6775_1350" x1="182.678" y1="177.777" x2="216.329" y2="177.777" gradientUnits="userSpaceOnUse">
<stop stop-color="#606C88"/>
<stop offset="1" stop-color="#3F4C6B"/>
</linearGradient>
<linearGradient id="paint5_linear_6775_1350" x1="200.098" y1="166.654" x2="200.098" y2="144.425" gradientUnits="userSpaceOnUse">
<stop/>
<stop offset="1"/>
</linearGradient>
<linearGradient id="paint6_linear_6775_1350" x1="133.364" y1="70.8809" x2="133.364" y2="119.887" gradientUnits="userSpaceOnUse">
<stop stop-color="#EAEAEA"/>
<stop offset="1" stop-color="#ECECEC"/>
</linearGradient>
<linearGradient id="paint7_linear_6775_1350" x1="131.221" y1="114.497" x2="131.221" y2="77.1846" gradientUnits="userSpaceOnUse">
<stop/>
<stop offset="1"/>
</linearGradient>
<linearGradient id="paint8_linear_6775_1350" x1="116.539" y1="111.23" x2="150.19" y2="111.23" gradientUnits="userSpaceOnUse">
<stop stop-color="#606C88"/>
<stop offset="1" stop-color="#3F4C6B"/>
</linearGradient>
<linearGradient id="paint9_linear_6775_1350" x1="131.657" y1="85.4194" x2="131.657" y2="105.022" gradientUnits="userSpaceOnUse">
<stop stop-color="#FFE0CC"/>
<stop offset="1" stop-color="#FFEADB"/>
</linearGradient>
<linearGradient id="paint10_linear_6775_1350" x1="133.364" y1="108.779" x2="133.364" y2="116.62" gradientUnits="userSpaceOnUse">
<stop stop-color="#130027"/>
<stop offset="1" stop-color="#130017"/>
</linearGradient>
<linearGradient id="paint11_linear_6775_1350" x1="199.523" y1="70.8809" x2="199.523" y2="119.887" gradientUnits="userSpaceOnUse">
<stop stop-color="#EAEAEA"/>
<stop offset="1" stop-color="#ECECEC"/>
</linearGradient>
<linearGradient id="paint12_linear_6775_1350" x1="200.214" y1="82.7012" x2="200.214" y2="108.289" gradientUnits="userSpaceOnUse">
<stop stop-color="#FFD4B3"/>
<stop offset="1" stop-color="#FFDCC2"/>
</linearGradient>
<linearGradient id="paint13_linear_6775_1350" x1="179.921" y1="112.154" x2="219.126" y2="112.154" gradientUnits="userSpaceOnUse">
<stop stop-color="#606C88"/>
<stop offset="1" stop-color="#3F4C6B"/>
</linearGradient>
<linearGradient id="paint14_linear_6775_1350" x1="200.828" y1="95.3843" x2="200.828" y2="75.7812" gradientUnits="userSpaceOnUse">
<stop/>
<stop offset="1"/>
</linearGradient>
<linearGradient id="paint15_linear_6775_1350" x1="133.503" y1="138" x2="133.503" y2="187.007" gradientUnits="userSpaceOnUse">
<stop stop-color="#EAEAEA"/>
<stop offset="1" stop-color="#ECECEC"/>
</linearGradient>
<linearGradient id="paint16_linear_6775_1350" x1="134.194" y1="149.82" x2="134.194" y2="175.408" gradientUnits="userSpaceOnUse">
<stop stop-color="#FFD4B3"/>
<stop offset="1" stop-color="#FFDCC2"/>
</linearGradient>
<linearGradient id="paint17_linear_6775_1350" x1="113.901" y1="179.273" x2="153.106" y2="179.273" gradientUnits="userSpaceOnUse">
<stop stop-color="#606C88"/>
<stop offset="1" stop-color="#3F4C6B"/>
</linearGradient>
<linearGradient id="paint18_linear_6775_1350" x1="134.808" y1="162.503" x2="134.808" y2="142.9" gradientUnits="userSpaceOnUse">
<stop/>
<stop offset="1"/>
</linearGradient>
<linearGradient id="paint19_linear_6775_1350" x1="67.2055" y1="70.8809" x2="67.2055" y2="119.887" gradientUnits="userSpaceOnUse">
<stop stop-color="#EAEAEA"/>
<stop offset="1" stop-color="#ECECEC"/>
</linearGradient>
<linearGradient id="paint20_linear_6775_1350" x1="67.8965" y1="82.7012" x2="67.8965" y2="108.289" gradientUnits="userSpaceOnUse">
<stop stop-color="#FFD4B3"/>
<stop offset="1" stop-color="#FFDCC2"/>
</linearGradient>
<linearGradient id="paint21_linear_6775_1350" x1="47.603" y1="112.154" x2="86.8083" y2="112.154" gradientUnits="userSpaceOnUse">
<stop stop-color="#606C88"/>
<stop offset="1" stop-color="#3F4C6B"/>
</linearGradient>
<linearGradient id="paint22_linear_6775_1350" x1="68.5099" y1="95.3843" x2="68.5099" y2="75.7812" gradientUnits="userSpaceOnUse">
<stop/>
<stop offset="1"/>
</linearGradient>
<linearGradient id="paint23_linear_6775_1350" x1="28" y1="40.2517" x2="303.662" y2="40.2517" gradientUnits="userSpaceOnUse">
<stop stop-color="#134E5E"/>
<stop offset="1" stop-color="#71B280"/>
</linearGradient>
<clipPath id="clip0_6775_1350">
<path d="M241.179 143C241.179 140.239 243.417 138 246.179 138H285.185C287.947 138 290.185 140.239 290.185 143V182.007C290.185 184.768 287.947 187.007 285.185 187.007H246.179C243.417 187.007 241.179 184.768 241.179 182.007V143Z" fill="white"/>
</clipPath>
<clipPath id="clip1_6775_1350">
<path d="M175 143C175 140.239 177.239 138 180 138H219.007C221.768 138 224.007 140.239 224.007 143V182.007C224.007 184.768 221.768 187.007 219.007 187.007H180C177.239 187.007 175 184.768 175 182.007V143Z" fill="white"/>
</clipPath>
<clipPath id="clip2_6775_1350">
<path d="M108.861 75.8809C108.861 73.1194 111.099 70.8809 113.861 70.8809H152.867C155.629 70.8809 157.867 73.1194 157.867 75.8809V114.887C157.867 117.649 155.629 119.887 152.867 119.887H113.861C111.099 119.887 108.861 117.649 108.861 114.887V75.8809Z" fill="white"/>
</clipPath>
<clipPath id="clip3_6775_1350">
<path d="M175.02 75.8809C175.02 73.1194 177.259 70.8809 180.02 70.8809H219.027C221.788 70.8809 224.027 73.1194 224.027 75.8809V114.887C224.027 117.649 221.788 119.887 219.027 119.887H180.02C177.259 119.887 175.02 117.649 175.02 114.887V75.8809Z" fill="white"/>
</clipPath>
<clipPath id="clip4_6775_1350">
<path d="M109 143C109 140.239 111.239 138 114 138H153.007C155.768 138 158.007 140.239 158.007 143V182.007C158.007 184.768 155.768 187.007 153.007 187.007H114C111.239 187.007 109 184.768 109 182.007V143Z" fill="white"/>
</clipPath>
<clipPath id="clip5_6775_1350">
<path d="M42.7021 75.8809C42.7021 73.1194 44.9407 70.8809 47.7021 70.8809H86.7088C89.4702 70.8809 91.7088 73.1194 91.7088 75.8809V114.887C91.7088 117.649 89.4702 119.887 86.7088 119.887H47.7022C44.9407 119.887 42.7021 117.649 42.7021 114.887V75.8809Z" fill="white"/>
</clipPath>
</defs>
</svg>
