<svg width="332" height="241" viewBox="0 0 332 241" fill="none" xmlns="http://www.w3.org/2000/svg">
<g filter="url(#filter0_d_6775_1342)">
<rect x="28" y="28" width="275.662" height="185" rx="10" fill="white"/>
</g>
<path d="M28 38C28 32.4772 32.4772 28 38 28H293.662C299.185 28 303.662 32.4772 303.662 38V52.5033H28V38Z" fill="url(#paint0_linear_6775_1342)"/>
<rect x="42.7021" y="68.4307" width="124.967" height="20.8278" rx="2" fill="url(#paint1_linear_6775_1342)"/>
<rect x="42.7021" y="97.8345" width="82.0861" height="15.9272" rx="2" fill="url(#paint2_linear_6775_1342)"/>
<rect x="186.046" y="68.4307" width="96.7881" height="94.3377" rx="2" fill="#F0F0F0"/>
<rect x="81.9072" y="170.119" width="56.3576" height="15.9272" rx="2" fill="url(#paint3_diamond_6775_1342)"/>
<path d="M189.722 64.1426H282.222" stroke="white"/>
<defs>
<filter id="filter0_d_6775_1342" x="0" y="0" width="331.662" height="241" filterUnits="userSpaceOnUse" color-interpolation-filters="sRGB">
<feFlood flood-opacity="0" result="BackgroundImageFix"/>
<feColorMatrix in="SourceAlpha" type="matrix" values="0 0 0 0 0 0 0 0 0 0 0 0 0 0 0 0 0 0 127 0" result="hardAlpha"/>
<feMorphology radius="4" operator="dilate" in="SourceAlpha" result="effect1_dropShadow_6775_1342"/>
<feOffset/>
<feGaussianBlur stdDeviation="12"/>
<feComposite in2="hardAlpha" operator="out"/>
<feColorMatrix type="matrix" values="0 0 0 0 0.282353 0 0 0 0 0.290196 0 0 0 0 0.619608 0 0 0 0.06 0"/>
<feBlend mode="normal" in2="BackgroundImageFix" result="effect1_dropShadow_6775_1342"/>
<feBlend mode="normal" in="SourceGraphic" in2="effect1_dropShadow_6775_1342" result="shape"/>
</filter>
<linearGradient id="paint0_linear_6775_1342" x1="28" y1="36.0402" x2="181.715" y2="177.138" gradientUnits="userSpaceOnUse">
<stop stop-color="#667EEA"/>
<stop offset="1" stop-color="#FA709A"/>
</linearGradient>
<linearGradient id="paint1_linear_6775_1342" x1="44.1469" y1="77.8683" x2="167.581" y2="85.4789" gradientUnits="userSpaceOnUse">
<stop stop-color="#F9F7C6"/>
<stop offset="1" stop-color="#E8FCDB"/>
</linearGradient>
<linearGradient id="paint2_linear_6775_1342" x1="43.6511" y1="105.051" x2="124.811" y2="109.35" gradientUnits="userSpaceOnUse">
<stop stop-color="#FFF4D9"/>
<stop offset="1" stop-color="#DEF9F2"/>
</linearGradient>
<radialGradient id="paint3_diamond_6775_1342" cx="0" cy="0" r="1" gradientUnits="userSpaceOnUse" gradientTransform="translate(138.265 183.392) rotate(-172.288) scale(56.872 199.851)">
<stop stop-color="#484A9E"/>
<stop offset="0.385417" stop-color="#6E6DE4"/>
<stop offset="1" stop-color="#484A9E"/>
</radialGradient>
</defs>
</svg>
