<svg width="205" height="229" viewBox="0 0 205 229" fill="none" xmlns="http://www.w3.org/2000/svg">
<g filter="url(#filter0_d_6775_1396)">
<rect x="28" y="28" width="149" height="173" rx="10" fill="white"/>
</g>
<g clip-path="url(#clip0_6775_1396)">
<path d="M110 135C110 132.239 112.239 130 115 130H154.007C156.768 130 159.007 132.239 159.007 135V174.007C159.007 176.768 156.768 179.007 154.007 179.007H115C112.239 179.007 110 176.768 110 174.007V135Z" fill="url(#paint0_linear_6775_1396)"/>
<path d="M149.532 168.388C150.73 170.675 151.329 179.007 151.329 179.007H117.678C117.678 179.007 118.277 170.675 119.475 168.388C121.272 164.958 134.503 160.547 134.503 160.547C134.503 160.547 147.735 164.958 149.532 168.388Z" fill="url(#paint1_linear_6775_1396)"/>
<path d="M133.85 175.086C133.85 174.957 133.888 174.831 133.96 174.723C134.032 174.616 134.134 174.532 134.253 174.482C134.373 174.433 134.504 174.42 134.631 174.445C134.758 174.47 134.874 174.533 134.966 174.624C135.057 174.715 135.119 174.832 135.144 174.959C135.17 175.085 135.157 175.217 135.107 175.336C135.058 175.456 134.974 175.558 134.867 175.629C134.759 175.701 134.633 175.739 134.504 175.739C134.33 175.739 134.164 175.671 134.041 175.548C133.919 175.426 133.85 175.259 133.85 175.086ZM133.85 171.819C133.85 171.69 133.888 171.563 133.96 171.456C134.032 171.348 134.134 171.265 134.253 171.215C134.373 171.166 134.504 171.153 134.631 171.178C134.758 171.203 134.874 171.266 134.966 171.357C135.057 171.448 135.119 171.565 135.144 171.691C135.17 171.818 135.157 171.95 135.107 172.069C135.058 172.188 134.974 172.29 134.867 172.362C134.759 172.434 134.633 172.472 134.504 172.472C134.33 172.472 134.164 172.404 134.041 172.281C133.919 172.158 133.85 171.992 133.85 171.819ZM133.85 168.552C133.85 168.423 133.888 168.296 133.96 168.189C134.032 168.081 134.134 167.998 134.253 167.948C134.373 167.899 134.504 167.886 134.631 167.911C134.758 167.936 134.874 167.998 134.966 168.09C135.057 168.181 135.119 168.298 135.144 168.424C135.17 168.551 135.157 168.683 135.107 168.802C135.058 168.921 134.974 169.023 134.867 169.095C134.759 169.167 134.633 169.205 134.504 169.205C134.33 169.205 134.164 169.136 134.041 169.014C133.919 168.891 133.85 168.725 133.85 168.552Z" fill="white"/>
<path d="M148.466 158.654L121.927 155.447C120.619 148.502 122.171 144.125 126.583 142.319C128.623 135.636 136.561 136.179 138.811 136.724C146.469 138.578 149.687 145.888 148.466 158.654Z" fill="url(#paint2_linear_6775_1396)"/>
<path d="M130.583 162.508V152.706C126.495 152.645 127.293 145.562 131.4 147.724C132.135 148.051 134.013 147.152 133.36 144.947C137.77 148.214 143.916 142.48 144.305 146.009C145.068 152.953 143.591 158.661 139.672 158.661C139.255 158.677 138.837 158.652 138.424 158.587V162.508C137.145 163.27 135.866 163.651 134.587 163.651C133.308 163.651 131.973 163.27 130.583 162.508Z" fill="#FFDBC9"/>
<path d="M138.424 158.587V159.894C135.974 159.894 134.068 158.723 132.707 156.382C134.34 157.471 136.246 158.206 138.424 158.587Z" fill="#FFBC9E"/>
<path d="M134.498 163.484C135.615 163.43 138.424 162.852 138.424 161.603V160.547C138.723 160.547 139.581 161.255 140.022 161.854C141.766 164.223 139.832 166.346 138.254 166.346C136.264 166.346 134.944 164.683 134.503 163.883C134.062 164.684 132.743 166.346 130.752 166.346C129.175 166.346 127.24 164.223 128.984 161.854C129.425 161.255 130.283 160.547 130.583 160.547V161.603C130.583 162.852 133.317 163.43 134.498 163.484Z" fill="white"/>
</g>
<g clip-path="url(#clip1_6775_1396)">
<path d="M43.8608 67.8809C43.8608 65.1194 46.0994 62.8809 48.8608 62.8809H87.8675C90.6289 62.8809 92.8675 65.1194 92.8675 67.8809V106.887C92.8675 109.649 90.6289 111.887 87.8675 111.887H48.8608C46.0994 111.887 43.8608 109.649 43.8608 106.887V67.8809Z" fill="url(#paint3_linear_6775_1396)"/>
<path d="M80.2073 88.9361C81.5325 84.5352 82.3493 77.0112 76.7769 71.8655C72.5182 67.9329 61.0131 67.5366 57.0109 76.1127C56.3427 77.5444 57.2559 79.7882 59.0528 79.7066C59.759 79.6739 60.1963 81.9119 60.6047 83.3004C60.0329 88.9361 54.9392 89.0402 52.3552 93.3467C49.1698 98.6558 53.0903 106.497 62.4833 106.497C71.8762 106.497 77.2607 98.7219 80.2073 88.9361Z" fill="url(#paint4_linear_6775_1396)"/>
<path d="M83.3929 101.829C84.5908 104.136 85.1898 112.541 85.1898 112.541H51.5386C51.5386 112.541 52.1376 104.136 53.3355 101.829C55.1324 98.3681 68.3642 93.9185 68.3642 93.9185C68.3642 93.9185 81.596 98.3681 83.3929 101.829Z" fill="url(#paint5_linear_6775_1396)"/>
<path d="M72.2847 95.8786C72.2847 95.8786 70.1993 97.0221 68.2809 97.0221C66.3624 97.0221 64.4436 95.8786 64.4436 95.8786V92.2848C64.0309 92.35 63.6128 92.3748 63.1953 92.3589C59.2767 92.3586 57.7992 86.6508 58.5628 79.7064C59.0529 79.7064 60.1964 79.7064 61.8299 77.4194C61.4216 80.6049 66.1589 80.1148 67.9558 77.5828C67.0573 80.6049 69.426 82.6468 71.4679 81.4216C75.4719 79.0192 76.372 86.3429 72.2847 86.404V95.8786Z" fill="url(#paint6_linear_6775_1396)"/>
<g style="mix-blend-mode:multiply" opacity="0.782">
<path d="M64.4438 92.2849C66.4702 91.9118 68.4092 91.1639 70.1613 90.0796C70.1613 90.0796 68.1193 93.5917 64.4438 93.5917V92.2849Z" fill="#FFD7B8"/>
</g>
<path d="M68.3696 96.8548C69.5502 96.8014 72.2847 96.2231 72.2847 94.9737V93.9185C72.5843 93.9185 73.4421 94.6261 73.8833 95.2253C75.6273 97.594 73.6929 99.7176 72.1152 99.7176C70.1245 99.7176 68.8053 98.0543 68.3642 97.2542C67.9232 98.0546 66.6039 99.7176 64.6133 99.7176C63.0356 99.7176 61.1011 97.594 62.8451 95.2253C63.2863 94.6261 64.1441 93.9185 64.4437 93.9185V94.9737C64.4437 96.2231 67.2521 96.8014 68.3696 96.8548Z" fill="white"/>
<path d="M67.7104 107.967C67.7104 107.838 67.7488 107.711 67.8206 107.604C67.8924 107.496 67.9944 107.413 68.1138 107.363C68.2332 107.314 68.3646 107.301 68.4913 107.326C68.6181 107.351 68.7345 107.414 68.8259 107.505C68.9173 107.596 68.9795 107.713 69.0047 107.839C69.0299 107.966 69.017 108.098 68.9675 108.217C68.9181 108.336 68.8343 108.438 68.7269 108.51C68.6194 108.582 68.4931 108.62 68.3639 108.62C68.1906 108.62 68.0244 108.552 67.9018 108.429C67.7793 108.306 67.7104 108.14 67.7104 107.967ZM67.7104 104.7C67.7104 104.571 67.7488 104.444 67.8206 104.337C67.8924 104.229 67.9944 104.146 68.1138 104.096C68.2332 104.047 68.3646 104.034 68.4913 104.059C68.6181 104.084 68.7345 104.146 68.8259 104.238C68.9173 104.329 68.9795 104.446 69.0047 104.572C69.0299 104.699 69.017 104.83 68.9675 104.95C68.9181 105.069 68.8343 105.171 68.7269 105.243C68.6194 105.315 68.4931 105.353 68.3639 105.353C68.1906 105.353 68.0244 105.284 67.9018 105.162C67.7793 105.039 67.7104 104.873 67.7104 104.7ZM67.7104 101.433C67.7104 101.303 67.7488 101.177 67.8206 101.07C67.8924 100.962 67.9944 100.878 68.1138 100.829C68.2332 100.78 68.3646 100.767 68.4913 100.792C68.6181 100.817 68.7345 100.879 68.8259 100.971C68.9173 101.062 68.9795 101.178 69.0047 101.305C69.0299 101.432 69.017 101.563 68.9675 101.683C68.9181 101.802 68.8343 101.904 68.7269 101.976C68.6194 102.048 68.4931 102.086 68.3639 102.086C68.1906 102.086 68.0244 102.017 67.9018 101.895C67.7793 101.772 67.7104 101.606 67.7104 101.433Z" fill="url(#paint7_linear_6775_1396)"/>
</g>
<g clip-path="url(#clip2_6775_1396)">
<path d="M110.02 67.8809C110.02 65.1194 112.259 62.8809 115.02 62.8809H154.027C156.788 62.8809 159.027 65.1194 159.027 67.8809V106.887C159.027 109.649 156.788 111.887 154.027 111.887H115.02C112.259 111.887 110.02 109.649 110.02 106.887V67.8809Z" fill="url(#paint8_linear_6775_1396)"/>
<path d="M139.587 91.3047V93.265C139.587 95.8787 143.345 97.0222 143.345 97.0222C143.345 97.0222 139.016 100.289 134.523 100.289C130.031 100.289 125.702 97.0222 125.702 97.0222C125.702 97.0222 129.489 95.8787 129.459 93.265C129.43 90.6513 129.45 89.1158 129.43 84.6379C127.089 81.6032 127.239 79.5665 128.519 78.1342C132.808 73.3356 144.488 74.9692 144.488 74.9692C144.488 74.9692 145.578 86.7296 143.099 90.1613C142.038 91.6315 139.587 91.3047 139.587 91.3047Z" fill="url(#paint9_linear_6775_1396)"/>
<path d="M139.588 91.305C135.994 90.8966 133.87 89.3447 133.87 89.3447C135.211 91.3283 137.254 92.7294 139.588 93.2653V91.305Z" fill="#DB6F3D"/>
<path d="M151.676 101.973C153.231 105.135 154.126 112.428 154.126 112.428H114.921C114.921 112.428 115.816 105.135 117.371 101.973C118.926 98.8121 128.006 95.88 128.006 95.88C129.756 99.4727 139.36 99.4727 141.037 95.8789C141.037 95.8789 150.121 98.8113 151.676 101.973Z" fill="url(#paint10_linear_6775_1396)"/>
<path d="M131.445 79.7407C130.926 79.2946 130.295 78.9942 129.402 79.4578C127.287 80.5561 128.888 84.7706 130.766 84.7706C131.257 84.7706 131.5 86.3098 129.318 87.3843C129.318 85.6691 126.705 81.4218 126.476 77.5549C123.846 76.5756 124.499 72.6572 126.305 72.6572C126.017 69.0653 131.769 67.2099 133.996 69.2713C136.261 66.5565 141.978 67.945 142.324 70.3003C146.255 68.2017 148.839 74.2342 145.158 76.5761C143.643 77.5399 140.1 77.9066 134.985 77.9066C134.212 77.9066 133.78 78.0984 133.996 79.0532C134.414 80.9033 133.443 82.0687 131.445 79.7407Z" fill="url(#paint11_linear_6775_1396)"/>
</g>
<g clip-path="url(#clip3_6775_1396)">
<path d="M44 135C44 132.239 46.2386 130 49 130H88.0066C90.768 130 93.0066 132.239 93.0066 135V174.007C93.0066 176.768 90.768 179.007 88.0066 179.007H49C46.2386 179.007 44 176.768 44 174.007V135Z" fill="url(#paint12_linear_6775_1396)"/>
<path d="M73.5673 158.424V160.384C73.5673 162.998 77.3245 164.141 77.3245 164.141C77.3245 164.141 72.9956 167.408 68.5033 167.408C64.011 167.408 59.6821 164.141 59.6821 164.141C59.6821 164.141 63.4689 162.998 63.4393 160.384C63.4097 157.77 63.4295 156.235 63.4097 151.757C61.0685 148.722 61.2188 146.686 62.499 145.253C66.7881 140.455 78.468 142.088 78.468 142.088C78.468 142.088 79.5579 153.849 77.0795 157.28C76.0177 158.751 73.5673 158.424 73.5673 158.424Z" fill="url(#paint13_linear_6775_1396)"/>
<path d="M73.5675 158.424C69.9737 158.016 67.8501 156.464 67.8501 156.464C69.1908 158.447 71.2341 159.849 73.5675 160.384V158.424Z" fill="#DB6F3D"/>
<path d="M85.6558 169.093C87.211 172.255 88.1062 179.547 88.1062 179.547H48.9009C48.9009 179.547 49.7964 172.254 51.3512 169.093C52.906 165.931 61.9856 162.999 61.9856 162.999C63.7357 166.592 73.3402 166.592 75.0167 162.998C75.0167 162.998 84.1007 165.93 85.6558 169.093Z" fill="url(#paint14_linear_6775_1396)"/>
<path d="M65.4252 146.86C64.9057 146.414 64.2745 146.113 63.3822 146.577C61.2669 147.675 62.8678 151.89 64.7464 151.89C65.2365 151.89 65.4802 153.429 63.2983 154.503C63.2983 152.788 60.6846 148.541 60.4559 144.674C57.8259 143.695 58.4793 139.776 60.2849 139.776C59.9967 136.184 65.7486 134.329 67.9758 136.39C70.2409 133.676 75.9583 135.064 76.3035 137.419C80.235 135.321 82.8192 141.353 79.138 143.695C77.6232 144.659 74.0797 145.026 68.9646 145.026C68.1924 145.026 67.7598 145.218 67.9758 146.172C68.3938 148.022 67.4233 149.188 65.4252 146.86Z" fill="url(#paint15_linear_6775_1396)"/>
</g>
<path d="M28 38C28 32.4772 32.4772 28 38 28H167C172.523 28 177 32.4772 177 38V53H28V38Z" fill="url(#paint16_linear_6775_1396)"/>
<defs>
<filter id="filter0_d_6775_1396" x="0" y="0" width="205" height="229" filterUnits="userSpaceOnUse" color-interpolation-filters="sRGB">
<feFlood flood-opacity="0" result="BackgroundImageFix"/>
<feColorMatrix in="SourceAlpha" type="matrix" values="0 0 0 0 0 0 0 0 0 0 0 0 0 0 0 0 0 0 127 0" result="hardAlpha"/>
<feMorphology radius="4" operator="dilate" in="SourceAlpha" result="effect1_dropShadow_6775_1396"/>
<feOffset/>
<feGaussianBlur stdDeviation="12"/>
<feComposite in2="hardAlpha" operator="out"/>
<feColorMatrix type="matrix" values="0 0 0 0 0.282353 0 0 0 0 0.290196 0 0 0 0 0.619608 0 0 0 0.06 0"/>
<feBlend mode="normal" in2="BackgroundImageFix" result="effect1_dropShadow_6775_1396"/>
<feBlend mode="normal" in="SourceGraphic" in2="effect1_dropShadow_6775_1396" result="shape"/>
</filter>
<linearGradient id="paint0_linear_6775_1396" x1="134.503" y1="130" x2="134.503" y2="179.007" gradientUnits="userSpaceOnUse">
<stop stop-color="#EAEAEA"/>
<stop offset="1" stop-color="#ECECEC"/>
</linearGradient>
<linearGradient id="paint1_linear_6775_1396" x1="117.678" y1="169.777" x2="151.329" y2="169.777" gradientUnits="userSpaceOnUse">
<stop stop-color="#606C88"/>
<stop offset="1" stop-color="#3F4C6B"/>
</linearGradient>
<linearGradient id="paint2_linear_6775_1396" x1="135.098" y1="158.654" x2="135.098" y2="136.425" gradientUnits="userSpaceOnUse">
<stop/>
<stop offset="1"/>
</linearGradient>
<linearGradient id="paint3_linear_6775_1396" x1="68.3642" y1="62.8809" x2="68.3642" y2="111.887" gradientUnits="userSpaceOnUse">
<stop stop-color="#EAEAEA"/>
<stop offset="1" stop-color="#ECECEC"/>
</linearGradient>
<linearGradient id="paint4_linear_6775_1396" x1="66.2212" y1="106.497" x2="66.2212" y2="69.1846" gradientUnits="userSpaceOnUse">
<stop/>
<stop offset="1"/>
</linearGradient>
<linearGradient id="paint5_linear_6775_1396" x1="51.5386" y1="103.23" x2="85.1898" y2="103.23" gradientUnits="userSpaceOnUse">
<stop stop-color="#606C88"/>
<stop offset="1" stop-color="#3F4C6B"/>
</linearGradient>
<linearGradient id="paint6_linear_6775_1396" x1="66.6565" y1="77.4194" x2="66.6565" y2="97.0221" gradientUnits="userSpaceOnUse">
<stop stop-color="#FFE0CC"/>
<stop offset="1" stop-color="#FFEADB"/>
</linearGradient>
<linearGradient id="paint7_linear_6775_1396" x1="68.3639" y1="100.779" x2="68.3639" y2="108.62" gradientUnits="userSpaceOnUse">
<stop stop-color="#130027"/>
<stop offset="1" stop-color="#130017"/>
</linearGradient>
<linearGradient id="paint8_linear_6775_1396" x1="134.523" y1="62.8809" x2="134.523" y2="111.887" gradientUnits="userSpaceOnUse">
<stop stop-color="#EAEAEA"/>
<stop offset="1" stop-color="#ECECEC"/>
</linearGradient>
<linearGradient id="paint9_linear_6775_1396" x1="135.214" y1="74.7012" x2="135.214" y2="100.289" gradientUnits="userSpaceOnUse">
<stop stop-color="#FFD4B3"/>
<stop offset="1" stop-color="#FFDCC2"/>
</linearGradient>
<linearGradient id="paint10_linear_6775_1396" x1="114.921" y1="104.154" x2="154.126" y2="104.154" gradientUnits="userSpaceOnUse">
<stop stop-color="#606C88"/>
<stop offset="1" stop-color="#3F4C6B"/>
</linearGradient>
<linearGradient id="paint11_linear_6775_1396" x1="135.828" y1="87.3843" x2="135.828" y2="67.7812" gradientUnits="userSpaceOnUse">
<stop/>
<stop offset="1"/>
</linearGradient>
<linearGradient id="paint12_linear_6775_1396" x1="68.5033" y1="130" x2="68.5033" y2="179.007" gradientUnits="userSpaceOnUse">
<stop stop-color="#EAEAEA"/>
<stop offset="1" stop-color="#ECECEC"/>
</linearGradient>
<linearGradient id="paint13_linear_6775_1396" x1="69.1944" y1="141.82" x2="69.1944" y2="167.408" gradientUnits="userSpaceOnUse">
<stop stop-color="#FFD4B3"/>
<stop offset="1" stop-color="#FFDCC2"/>
</linearGradient>
<linearGradient id="paint14_linear_6775_1396" x1="48.9009" y1="171.273" x2="88.1062" y2="171.273" gradientUnits="userSpaceOnUse">
<stop stop-color="#606C88"/>
<stop offset="1" stop-color="#3F4C6B"/>
</linearGradient>
<linearGradient id="paint15_linear_6775_1396" x1="69.8077" y1="154.503" x2="69.8077" y2="134.9" gradientUnits="userSpaceOnUse">
<stop/>
<stop offset="1"/>
</linearGradient>
<linearGradient id="paint16_linear_6775_1396" x1="28" y1="40.5" x2="177" y2="40.5" gradientUnits="userSpaceOnUse">
<stop stop-color="#134E5E"/>
<stop offset="1" stop-color="#71B280"/>
</linearGradient>
<clipPath id="clip0_6775_1396">
<path d="M110 135C110 132.239 112.239 130 115 130H154.007C156.768 130 159.007 132.239 159.007 135V174.007C159.007 176.768 156.768 179.007 154.007 179.007H115C112.239 179.007 110 176.768 110 174.007V135Z" fill="white"/>
</clipPath>
<clipPath id="clip1_6775_1396">
<path d="M43.8608 67.8809C43.8608 65.1194 46.0994 62.8809 48.8608 62.8809H87.8675C90.6289 62.8809 92.8675 65.1194 92.8675 67.8809V106.887C92.8675 109.649 90.6289 111.887 87.8675 111.887H48.8608C46.0994 111.887 43.8608 109.649 43.8608 106.887V67.8809Z" fill="white"/>
</clipPath>
<clipPath id="clip2_6775_1396">
<path d="M110.02 67.8809C110.02 65.1194 112.259 62.8809 115.02 62.8809H154.027C156.788 62.8809 159.027 65.1194 159.027 67.8809V106.887C159.027 109.649 156.788 111.887 154.027 111.887H115.02C112.259 111.887 110.02 109.649 110.02 106.887V67.8809Z" fill="white"/>
</clipPath>
<clipPath id="clip3_6775_1396">
<path d="M44 135C44 132.239 46.2386 130 49 130H88.0066C90.768 130 93.0066 132.239 93.0066 135V174.007C93.0066 176.768 90.768 179.007 88.0066 179.007H49C46.2386 179.007 44 176.768 44 174.007V135Z" fill="white"/>
</clipPath>
</defs>
</svg>
