<svg width="129" height="115" viewBox="0 0 129 115" fill="none" xmlns="http://www.w3.org/2000/svg">
<g clip-path="url(#clip0_234_1718)">
<path d="M59.1494 22.5788H125.646C127.222 22.5788 128.5 23.8566 128.5 25.4328V75.2339C128.5 76.8101 127.222 78.0878 125.646 78.0878H59.1494C57.5732 78.0878 56.2955 76.8101 56.2955 75.2339V25.4328C56.2955 23.8566 57.5732 22.5788 59.1494 22.5788Z" fill="#F2F6FB"/>
<path d="M83.3461 54.199V44.3554C83.3461 43.3767 82.5469 42.6509 81.5764 42.7324H81.5274C79.8148 42.8792 77.2132 43.7519 75.7615 44.6653L75.6229 44.755C75.3864 44.9018 74.9949 44.9018 74.7584 44.755L74.5545 44.6327C73.1028 43.7274 70.5094 42.8629 68.7967 42.7243C67.8262 42.6427 67.0352 43.3767 67.0352 44.3472V54.199C67.0352 54.982 67.6713 55.7159 68.4542 55.8138L68.6907 55.8464C70.4605 56.0829 73.1925 56.98 74.7584 57.8364L74.791 57.8527C75.0112 57.975 75.3619 57.975 75.5739 57.8527C77.1398 56.9882 79.88 56.0829 81.6579 55.8464L81.927 55.8138C82.71 55.7159 83.3461 54.982 83.3461 54.199Z" fill="#E1E5F0" stroke="#E1E5F0" stroke-width="2" stroke-linecap="round" stroke-linejoin="round"/>
<path opacity="0.5" d="M75.1909 45.0241V57.2573" stroke="#F2F6FB" stroke-width="2" stroke-linecap="round" stroke-linejoin="round"/>
<path d="M71.7246 47.4708H69.8896" stroke="#F2F6FB" stroke-width="2" stroke-linecap="round" stroke-linejoin="round"/>
<path d="M72.3363 49.9174H69.8896" stroke="#F2F6FB" stroke-width="2" stroke-linecap="round" stroke-linejoin="round"/>
<path d="M128.5 25.4334C128.5 23.8569 127.221 22.5788 125.647 22.5788H59.0056C57.43 22.5788 56.1528 23.857 56.1528 25.4334V28.8575H128.5V25.4334Z" fill="#E1E5F0"/>
<path d="M124.932 33.0951H122.878C122.72 33.0951 122.592 33.2229 122.592 33.3805V34.1243C122.592 34.2819 122.72 34.4097 122.878 34.4097H124.932C125.09 34.4097 125.218 34.2819 125.218 34.1243V33.3805C125.218 33.2229 125.09 33.0951 124.932 33.0951ZM69.138 33.0951H59.8627C59.7051 33.0951 59.5773 33.2229 59.5773 33.3805V34.1243C59.5773 34.2819 59.7051 34.4097 59.8627 34.4097H69.138C69.2956 34.4097 69.4234 34.2819 69.4234 34.1243V33.3805C69.4234 33.2229 69.2956 33.0951 69.138 33.0951ZM86.8609 33.0951H77.5856C77.428 33.0951 77.3002 33.2229 77.3002 33.3805V34.1243C77.3002 34.2819 77.428 34.4097 77.5856 34.4097H86.8609C87.0185 34.4097 87.1463 34.2819 87.1463 34.1243V33.3805C87.1463 33.2229 87.0185 33.0951 86.8609 33.0951ZM75.702 33.0951H71.0216C70.864 33.0951 70.7362 33.2229 70.7362 33.3805V34.1243C70.7362 34.2819 70.864 34.4097 71.0216 34.4097H75.702C75.8596 34.4097 75.9874 34.2819 75.9874 34.1243V33.3805C75.9874 33.2229 75.8596 33.0951 75.702 33.0951Z" fill="#D8DEED"/>
<path d="M121.651 42.6255H102.529C102.372 42.6255 102.244 42.7533 102.244 42.9109V44.9692C102.244 45.1268 102.372 45.2546 102.529 45.2546H121.651C121.808 45.2546 121.936 45.1268 121.936 44.9692V42.9109C121.936 42.7533 121.808 42.6255 121.651 42.6255ZM121.651 46.8978H105.811C105.654 46.8978 105.526 47.0256 105.526 47.1832V49.2415C105.526 49.3991 105.654 49.5269 105.811 49.5269H121.651C121.808 49.5269 121.936 49.3991 121.936 49.2415V47.1832C121.936 47.0256 121.808 46.8978 121.651 46.8978ZM121.651 55.4423H112.375C112.218 55.4423 112.09 55.5701 112.09 55.7277V57.786C112.09 57.9436 112.218 58.0714 112.375 58.0714H121.651C121.808 58.0714 121.936 57.9436 121.936 57.786V55.7277C121.936 55.5701 121.808 55.4423 121.651 55.4423ZM121.651 51.17H102.529C102.372 51.17 102.244 51.2978 102.244 51.4554V53.5137C102.244 53.6714 102.372 53.7991 102.529 53.7991H121.651C121.808 53.7991 121.936 53.6714 121.936 53.5137V51.4554C121.936 51.2978 121.808 51.17 121.651 51.17Z" fill="#E1E5F0"/>
<path d="M101.498 63.6582H83.9534C83.0344 63.6582 82.6826 63.7575 82.3337 63.9441C81.9849 64.1306 81.7112 64.4044 81.5246 64.7532C81.3381 65.102 81.2387 65.4538 81.2387 66.3728V67.5162C81.2387 68.4352 81.3381 68.787 81.5246 69.1359C81.7112 69.4847 81.9849 69.7584 82.3337 69.945C82.6826 70.1315 83.0344 70.2309 83.9534 70.2309H101.498C102.417 70.2309 102.769 70.1315 103.118 69.945C103.467 69.7584 103.74 69.4847 103.927 69.1359C104.114 68.787 104.213 68.4352 104.213 67.5162V66.3728C104.213 65.4538 104.114 65.102 103.927 64.7532C103.74 64.4044 103.467 64.1306 103.118 63.9441C102.769 63.7575 102.417 63.6582 101.498 63.6582Z" fill="#3ABF7C"/>
</g>
<path d="M46.4055 112.832C46.1095 112.832 45.8696 113.072 45.8696 113.368C45.8696 113.665 46.1095 113.905 46.4055 113.905H65.819C66.115 113.905 66.355 113.665 66.355 113.368C66.355 113.072 66.115 112.832 65.819 112.832H46.4055ZM8.53138 113.905H20.7392C21.0251 113.905 21.2752 113.698 21.2752 113.451V113.286C21.2752 113.038 21.037 112.832 20.7392 112.832H8.53138C8.24553 112.832 7.99542 113.038 7.99542 113.286V113.451C7.99542 113.698 8.23362 113.905 8.53138 113.905Z" fill="#FFCB3D"/>
<path d="M46.3429 112.836C46.3635 112.833 46.3844 112.832 46.4055 112.832H65.7347C65.7475 112.767 65.754 112.684 65.7521 112.578C65.7388 112.495 65.7371 112.399 65.7116 112.304C65.5587 111.735 65.3735 111.357 64.8316 111.021C64.2897 110.684 63.7365 110.384 63.1601 110.12C61.0342 109.12 60.3078 109.133 58.9101 108.215C58.3316 107.832 57.7997 107.388 57.303 106.908C56.9718 106.588 56.256 106.068 55.1554 105.348L46.2702 105.348L46.3429 112.836ZM8.46632 112.836C8.48773 112.833 8.50945 112.832 8.53138 112.832H20.6983L19.7356 106.752L11.2079 105.596L8.46632 112.836Z" fill="#474961"/>
<path d="M33.6136 65.7631C36.3229 74.7328 38.0146 80.918 40.868 90.2819C41.4584 91.9574 41.6762 93.2281 41.5214 94.094C41.2892 95.3928 40.1442 97.7217 39.5862 100.261C39.0282 102.801 44.7506 100.014 49.6169 99.079C54.4832 98.1438 59.4959 97.1895 59.3657 96.46C59.0505 94.726 54.1073 92.4583 53.7164 90.2819C53.3255 88.1055 53.0295 85.7355 52.9749 85.3454C50.471 70.4603 48.1213 59.0229 46.8481 52.8018C46.3109 50.1341 45.279 45.0974 41.5214 39.9416C41.2769 39.6154 41.0789 39.3616 40.9625 39.2046C40.6171 38.839 40.2303 38.5634 39.8351 38.356C39.8439 38.2826 39.8526 38.2094 39.8614 38.1364C38.9089 37.4283 38.2627 36.9164 34.4083 36.6225C34.313 36.6209 34.2061 36.6071 34.1108 36.6054C30.3739 36.409 27.2016 37.7736 24.8085 40.717C23.2812 42.992 22.0845 45.7902 21.2184 49.1117C20.4233 52.1604 17.3942 65.8278 12.1308 90.1138C11.894 90.8152 11.6645 91.3298 11.4423 91.6577C10.7023 92.7497 8.51809 94.2392 6.97618 96.332C5.43428 98.4248 11.7945 98.2085 16.6202 99.3349C21.4458 100.461 26.4131 101.63 26.5906 100.911C26.9207 99.5541 24.7342 96.7099 24.073 94.5187C26.077 89.0636 28.0453 83.3966 29.9543 77.5405C31.2512 73.5505 32.4689 69.6226 33.6136 65.7631Z" fill="#A339FF"/>
<path opacity="0.176986" d="M33.6501 65.79C36.3464 74.7199 38.0366 80.8968 40.8821 90.2351C41.4726 91.9105 41.6904 93.1812 41.5356 94.0471C41.3033 95.346 40.1583 97.6748 39.6003 100.214C39.0423 102.754 44.7648 99.9673 49.6311 99.0321C54.4973 98.097 59.5101 97.1426 59.3798 96.4132C59.0646 94.6791 54.1214 92.4115 53.7306 90.2351C53.3397 88.0586 53.0437 85.6887 52.9891 85.2986C50.4852 70.4134 48.1355 58.9761 46.8622 52.755C46.3251 50.0873 45.2932 45.0506 41.5356 39.8947C41.2911 39.5686 41.093 39.3148 40.9766 39.1578C40.6384 38.7998 40.2605 38.528 39.8738 38.3222C39.4317 42.0142 38.9365 46.2084 38.2163 49.5169C37.4876 52.8645 36.5168 56.0377 35.5057 59.3698C34.9094 61.4877 34.2912 63.6281 33.6501 65.79Z" fill="#444444"/>
<path d="M29.0448 19.7846C28.389 19.9746 27.768 20.2522 27.2296 20.597C24.9205 22.0761 23.561 24.8951 24.6162 27.6706C24.8361 28.2489 25.5743 28.9489 26.831 29.7709C26.9329 29.7823 27.0341 29.7924 27.1344 29.801L27.5295 34.0717C27.5414 34.2028 27.5533 34.322 27.5533 34.4531C27.5653 35.0491 27.6724 35.9311 28.1846 36.5747C28.8992 37.4806 29.9592 38.7916 34.3898 38.8393C39.1538 38.887 40.2972 37.5759 41.0356 36.6462C41.5477 36.0145 41.6788 35.2517 41.6907 34.6319C41.6907 34.5008 41.7026 34.3816 41.7145 34.2505L42.135 29.7682C44.3689 29.3938 44.71 27.9125 45.0786 26.7662C45.8295 24.4309 44.2255 21.685 42.2337 20.3718C40.815 19.4363 39.0748 19.0436 37.4556 19.3785C36.7116 19.1589 35.9072 19.0354 35.0567 19.0299H34.3778C32.3215 19.0176 30.4454 19.1985 29.0448 19.7846Z" fill="#FFCB3D"/>
<path opacity="0.176986" d="M42.1392 29.7229C44.3277 29.3347 44.6664 27.8672 45.0322 26.7296C45.7831 24.3943 44.1791 21.6483 42.1874 20.3351C40.755 19.3907 38.995 18.9995 37.3627 19.3516C39.8754 20.0615 41.7157 21.864 42.3456 23.9405C42.5362 24.5603 42.5719 25.2278 42.5005 25.8714L42.1392 29.7229Z" fill="#444444"/>
<path d="M38.2827 17.2872C38.3141 17.295 38.3459 17.303 38.3782 17.311C39.4233 17.5724 39.3622 17.5527 39.4352 17.5715C40.2072 17.6848 40.8446 17.5804 40.9618 17.5483C41.9388 17.3485 42.8641 15.384 43.0352 12.7076C43.0559 12.4911 43.041 12.2771 43.0379 12.0623L42.8535 9.93644C42.8203 9.46084 42.6572 9.00627 42.3913 8.61864C42.3643 8.57275 42.338 8.53874 42.3118 8.50473C42.2203 8.39165 42.1288 8.27857 42.039 8.18927C41.6916 7.83124 41.2923 7.58438 40.8869 7.42157C39.9336 7.10595 38.8856 7.14344 38.3092 7.26741C38.2269 7.28512 37.968 7.33908 37.603 7.41242C37.2643 7.51976 36.9349 7.5906 36.5912 7.6266C36.4019 7.65179 36.271 7.82823 36.2843 8.01847L36.6158 11.054C36.6239 11.1267 35.7267 10.4403 34.798 10.686C34.4985 10.7653 34.0854 11.1863 33.5587 11.949C33.7464 12.524 33.8448 12.8197 33.8537 12.8361C34.2433 13.5493 34.5289 13.9977 34.7107 14.1813L34.783 16.0929L34.6606 19.0299H35.057C36.1901 19.0373 37.2415 19.2539 38.1772 19.6285L38.2827 17.2872ZM12.5794 98.6155L11.2073 105.598L19.7124 106.795L20.6156 100.225C19.3345 99.942 17.9517 99.6185 16.5802 99.2983C15.296 98.9986 13.9031 98.7939 12.5794 98.6155ZM52.9897 98.3778C51.8908 98.5982 50.7297 98.8209 49.5769 99.0424C48.0662 99.3327 46.473 99.8015 45.0108 100.234L46.2688 105.478H55.2788L52.9897 98.3778ZM42.5734 36.7508C43.9366 37.8336 45.3195 38.3219 46.7221 38.2156C50.7646 37.9092 54.9246 33.9215 59.202 26.2526L59.2012 26.2521L59.2017 26.252L63.4326 18.1528C62.3767 17.27 61.4015 17.3044 60.507 18.2559C59.6828 19.3387 59.2082 19.9849 59.0832 20.1944C57.2121 23.3321 55.7052 22.7761 53.8745 25.0821L48.1663 30.0006L46.0795 27.8459C46.342 26.851 46.5948 25.7965 46.8377 24.6824C47.4709 24.2546 48.4469 23.476 50.0383 22.1419C50.1876 22.0168 50.9222 21.8504 52.2422 21.6428C54.2039 21.9001 55.0905 21.3468 54.9019 19.9829L46.4847 19.4311C45.5891 19.3724 44.7257 19.7765 44.1967 20.5022C43.5569 21.3797 43.098 22.1139 42.82 22.7046L37.7722 30.2794L35.1463 26.016C34.3786 27.3957 33.2372 28.0203 31.6643 28.9105C30.3723 29.6417 28.8167 29.9187 26.9976 29.7415C30.5053 36.689 33.9459 40.2119 37.3194 40.3103C39.2749 40.3673 41.0263 39.1808 42.5734 36.7508Z" fill="#ED9474"/>
<path opacity="0.2" d="M42.4985 36.7351C43.868 37.8289 45.2575 38.3224 46.6669 38.2156C50.7094 37.9092 54.8694 33.9215 59.1468 26.2526L59.1461 26.2521L59.1465 26.252L63.3774 18.1528C62.3215 17.27 61.3463 17.3044 60.4518 18.2559C59.6276 19.3387 59.153 19.9849 59.0281 20.1944C57.1569 23.3321 55.65 22.7761 53.8193 25.0821L48.1111 30.0006L46.0122 27.8334C44.9892 31.7036 43.818 34.6709 42.4985 36.7351Z" fill="#8C2A00"/>
<path d="M38.2366 18.2923L36.8297 16.9146L38.2795 17.2862L38.2366 18.2923Z" fill="#482D1F"/>
<path d="M32.4132 13.2576C32.5693 13.8246 32.5245 14.2586 32.2789 14.5596C31.0476 16.0684 30.4882 16.2889 30.7961 16.8412C31.1478 17.4719 32.458 17.638 34.7268 17.3395C36.2386 16.3164 35.8993 14.471 35.8973 14.3102C35.8979 14.3088 35.8985 14.3074 35.8991 14.3061C35.7415 14.2812 35.2502 14.2436 34.8431 13.8783C34.4364 13.5244 34.1666 12.9101 34.3254 12.2777C34.462 11.6707 34.9983 11.1433 35.5694 11.1153C35.891 11.1047 36.1632 11.241 36.2005 11.2623C36.6355 11.5066 36.8521 11.8738 36.8521 11.8738L36.9881 12.1312C37.0259 12.0628 37.0618 11.999 37.0956 11.9404C37.8625 10.9548 38.6302 9.98107 39.4089 8.99462C40.7858 8.57567 42.0799 8.60459 42.2855 8.47073C42.194 8.35765 42.1025 8.24457 42.0127 8.15527C41.6653 7.79724 41.266 7.55037 40.8607 7.38757C39.9073 7.07194 38.8593 7.10944 38.283 7.23341C38.2006 7.25112 37.9417 7.30508 37.5767 7.37841C37.4706 7.39779 37.3645 7.41716 37.2347 7.4382C36.9274 7.48359 36.6915 7.524 36.5497 7.54587C34.7521 7.79114 34.037 7.63807 33.1689 8.20064C33.0092 8.3074 32.6448 8.55991 32.3531 8.99851C31.5111 10.2761 31.8899 11.767 31.9928 12.2139C32.0956 12.6136 32.2458 12.9598 32.4132 13.2576ZM43.1589 11.2401C43.2742 11.2019 43.3041 11.0541 43.2112 10.9815C43.0932 10.8999 42.9013 10.8034 42.6634 10.8206C42.1759 10.8565 41.6787 11.2058 42.2192 11.3075C42.5647 11.3851 42.9386 11.3032 43.1589 11.2401ZM40.8656 11.5219C40.9809 11.4837 41.0107 11.3359 40.906 11.2647C40.788 11.1832 40.5962 11.0866 40.3465 11.1053C39.8589 11.1412 39.3632 11.5023 39.9022 11.5922C40.2596 11.6684 40.6335 11.5864 40.8656 11.5219Z" fill="#482D1F"/>
<path d="M62.6588 13.9505C62.3422 13.7433 61.9852 13.724 61.8608 13.9165L55.9844 22.6027C55.86 22.7952 55.9991 23.1185 56.3147 23.3375C56.6313 23.5447 56.9883 23.564 57.1127 23.3715L62.9891 14.6853C63.1265 14.482 62.9755 14.1577 62.6588 13.9505Z" fill="#474961"/>
<path d="M42.3837 12.2599C42.3847 12.464 42.3899 12.7996 42.5255 12.927C42.7053 13.1211 43.005 12.5318 42.8758 12.1634C42.82 12.0022 42.7315 11.965 42.6369 11.9766C42.4951 11.9941 42.3899 12.1151 42.3837 12.2599ZM40.2708 12.4475C40.26 12.653 40.277 12.9871 40.4126 13.1146C40.5924 13.3086 40.8921 12.7194 40.7629 12.351C40.7071 12.1898 40.6186 12.1526 40.524 12.1642C40.3822 12.1817 40.277 12.3027 40.2708 12.4475Z" fill="#482D1F"/>
<path d="M41.1553 14.7646C41.0696 14.7511 40.8599 14.7048 40.8085 14.579C40.8056 14.5554 40.7894 14.5213 40.7983 14.4962C40.8369 14.4194 40.995 14.436 41.2106 14.4335C41.5933 14.4226 41.8963 14.3493 41.8963 14.3493C41.8963 14.3493 41.8307 14.5975 41.7789 14.6639C41.6839 14.8677 41.2896 14.7841 41.1553 14.7646Z" fill="#482D1F"/>
<path d="M42.0754 13.6654L42.0777 13.6785C42.0936 13.8076 42.02 13.9384 41.8939 13.9757C41.8706 13.9808 41.8575 13.9834 41.8444 13.9859C41.7204 14.0094 41.6308 14.0216 41.3087 14.0612C41.2434 14.0692 41.184 14.0228 41.176 13.9574C41.168 13.8921 41.2144 13.8326 41.2797 13.8246C41.596 13.7857 41.6831 13.7738 41.8001 13.7517C41.8123 13.7494 41.8244 13.747 41.8366 13.7445C41.834 13.7449 41.8422 13.7299 41.8417 13.7123L41.5465 12.4723L41.5437 12.4552L41.4817 11.7543C41.4759 11.6887 41.5243 11.6308 41.5899 11.625C41.6554 11.6192 41.7132 11.6677 41.719 11.7332L41.7802 12.4255L42.0754 13.6654Z" fill="#482D1F"/>
<path d="M35.0429 26.0531C35.1608 24.3534 34.8794 23.086 34.2088 22.2453C34.1472 22.1681 34.1598 22.0556 34.2369 21.994C34.314 21.9324 34.4264 21.945 34.488 22.0222C35.2224 22.9428 35.5229 24.2965 35.3993 26.0779C35.3925 26.1764 35.3071 26.2507 35.2087 26.2439C35.1103 26.237 35.036 26.1516 35.0429 26.0531Z" fill="#482D1F"/>
<defs>
<clipPath id="clip0_234_1718">
<rect width="72.3472" height="55.509" fill="white" transform="matrix(-1 0 0 1 128.5 22.5788)"/>
</clipPath>
</defs>
</svg>
