<svg width="124" height="123" viewBox="0 0 124 123" fill="none" xmlns="http://www.w3.org/2000/svg">
<path d="M8.18623 90.5088V90.5354C8.18623 90.8777 8.4857 91.1629 8.82796 91.1629H19.5951L15.8015 98.1222C13.092 103.085 10.3967 108.033 7.70136 112.996L3.23771 121.182C3.08084 121.467 3.20919 121.838 3.50866 122.009L3.5657 122.038C3.86518 122.209 4.25023 122.109 4.39284 121.838L21.0923 91.1629H32.2158L48.9153 121.838C49.0579 122.109 49.4429 122.195 49.7424 122.038L49.7994 122.009C50.0989 121.838 50.2273 121.467 50.0704 121.182L45.6067 112.996C42.8972 108.033 40.2019 103.085 37.5066 98.1222L33.713 91.1629H47.9883C48.3448 91.1629 48.63 90.8777 48.63 90.5354V90.4641C48.63 90.1218 48.3306 89.8366 47.9883 89.8366H38.2909C31.9734 89.8366 25.6415 89.8366 19.3097 89.8366H9.44535L8.24327 80.1107C7.41614 73.4937 6.60327 66.8624 5.77614 60.2311L4.42136 49.2787C4.37857 48.8937 4.05058 48.6085 3.69405 48.6512L3.62275 48.6655C3.28049 48.7083 3.03806 49.0648 3.08084 49.4213L8.17197 90.4356C8.17567 90.4605 8.18044 90.4849 8.18623 90.5088Z" fill="#D8DEED"/>
<g clip-path="url(#clip0_234_1661)">
<path d="M28.1366 120.794H35.848C36.2045 120.794 36.504 121.087 36.504 121.436C36.504 121.784 36.2045 122.077 35.848 122.077H27.9332C27.5767 122.077 27.2915 121.798 27.2772 121.436C27.2772 121.087 27.5767 120.794 27.9332 120.794H28.1366L28.2897 120.908C28.5749 121.122 28.632 121.535 28.4181 121.821C28.2042 122.106 27.7906 122.163 27.5054 121.949L13.1875 111.282C12.9022 111.068 12.8452 110.654 13.0591 110.369C13.273 110.084 13.6866 110.027 13.9718 110.241L28.1366 120.794ZM65.8101 122.062H43.1638C42.8073 122.062 42.5221 121.777 42.5221 121.421C42.5221 121.064 42.8073 120.779 43.1638 120.779H65.8243C66.1808 120.779 66.4661 121.064 66.4661 121.421C66.4518 121.777 66.1666 122.062 65.8101 122.062Z" fill="#FFCB3D"/>
<path d="M13.9746 110.252L19.2058 102.838L27.7908 109.07C28.2614 110.667 28.7463 112.265 29.2311 113.876C29.4878 114.718 29.7445 115.545 30.0012 116.372C30.7998 116.686 31.4844 116.971 31.9692 117.185C32.8962 117.584 33.6805 117.955 34.5362 118.511C34.5362 118.511 35.2778 118.967 35.6913 119.623C35.8197 119.837 35.9338 120.08 36.0051 120.336C36.0336 120.45 36.0336 120.565 36.0478 120.664C36.0454 120.715 36.0382 120.769 36.0277 120.823C35.9666 120.804 35.9018 120.794 35.835 120.794H28.1236L13.9746 110.252ZM65.9888 120.803C65.9325 120.787 65.873 120.779 65.8113 120.779H43.1508C43.0614 120.779 42.9764 120.797 42.8993 120.829C42.8587 120.74 42.836 120.641 42.836 120.536L43.4611 112.237C43.4421 111.951 46.6659 111.814 53.1324 111.823C53.2892 111.823 53.4318 111.866 53.5602 111.966C55.1859 113.706 56.7404 114.675 57.867 115.246C58.7369 115.688 61.6461 116.914 62.9581 117.513C63.6284 117.813 64.2701 118.169 64.8976 118.554C64.9404 118.583 64.9689 118.597 65.0117 118.64C65.3397 118.939 65.8388 119.481 66.0242 120.123C66.0527 120.208 66.0527 120.28 66.067 120.365C66.0812 120.437 66.067 120.508 66.067 120.579V120.594C66.0513 120.669 66.0246 120.739 65.9888 120.803Z" fill="#474961"/>
<path d="M25.9636 88.3029L20.2222 89.187C15.3745 89.9672 9.91551 86.2577 9.2071 80.9467C9.13764 80.4813 9.10986 80.0159 9.10986 79.5505C9.10986 75.1429 9.39422 70.4352 13.9149 69.4487C18.4356 68.4621 48.4036 69.1749 51.8647 69.1749C55.3259 69.1749 56.5732 70.5377 57.8328 72.5448C59.0924 74.5519 58.7128 77.9856 58.3933 80.1483C57.8238 84.0495 57.5321 87.0335 57.4209 90.2228C57.3932 90.8936 57.3515 91.6053 57.3098 92.3993C57.0598 97.1354 56.8375 99.0928 56.4208 105.239C56.268 107.675 56.143 109.783 56.0458 111.385C56.0041 112.179 55.3235 112.808 54.5178 112.808H53.6983L42.2748 112.849C41.4136 112.849 40.7051 112.151 40.7329 111.303L40.8857 105.622L40.983 102.227C41.0373 100.321 41.0916 98.2867 41.1459 96.2178C39.8482 97.8613 38.6654 99.372 37.5975 100.75C36.7328 101.885 35.7425 103.19 34.5076 104.835C32.8676 107.017 31.4843 108.899 30.429 110.354C29.9669 110.978 29.1221 111.187 28.3925 110.894C28.2803 110.851 28.1707 110.796 28.0654 110.729L27.2811 110.216L21.862 106.75L17.4553 103.927C16.614 103.385 16.3715 102.301 16.9134 101.517L20.4929 96.297L22.632 93.1739C23.388 92.0663 24.4985 90.4427 25.9636 88.3029Z" fill="#474BFF"/>
<path opacity="0.176986" d="M41.1001 96.2713C38.3916 99.7022 36.1858 102.552 34.4829 104.821C32.8429 107.002 31.4596 108.885 30.4043 110.339C29.8766 111.053 28.8498 111.224 28.0655 110.725L27.2811 110.211L21.862 106.746L17.4554 103.922C16.614 103.38 16.3716 102.296 16.9135 101.512L20.493 96.2925L22.6321 93.1694C23.3921 92.0559 24.5104 90.4208 25.9871 88.2641L41.3699 85.8954V86.2932L41.2727 89.6879C41.2152 91.8494 41.1576 94.0806 41.1001 96.2713L41.1001 96.2713Z" fill="#444444"/>
<path d="M43.4966 82.5732C42.7966 83.632 42.587 83.9205 42.3739 84.159C42.1378 84.4232 41.9148 84.7301 41.2006 85.8104C41.1138 85.9418 41.1499 86.1187 41.2813 86.2056C41.4127 86.2925 41.5896 86.2564 41.6765 86.125C42.3765 85.0661 42.5861 84.7776 42.7992 84.5391C43.0354 84.2749 43.2583 83.968 43.9725 82.8877C44.0594 82.7563 44.0233 82.5794 43.8919 82.4925C43.7605 82.4057 43.5835 82.4418 43.4966 82.5732Z" fill="#482D1F"/>
<path d="M32.7388 52.4832C34.8351 50.9145 40.2542 46.6505 40.2542 46.6505C42.0226 48.2477 37.7729 51.1141 37.7729 51.1141" fill="#482D1F"/>
<mask id="mask0_234_1661" style="mask-type:alpha" maskUnits="userSpaceOnUse" x="8" y="39" width="25" height="32">
<path d="M25.2359 40.1559C25.6824 40.2967 26.1327 40.4894 26.5785 40.7465C28.2755 41.7305 29.0884 42.9997 30.5858 45.5809C31.8407 47.72 32.9531 49.6452 32.1545 50.9287C31.6237 51.7807 30.4364 52.0034 29.6374 52.0659L29.6018 55.3781V55.5207L29.5305 62.6226C29.4149 64.9175 29.2723 66.784 29.1026 68.2222C28.8482 70.3795 12.5597 71.2688 12.5597 68.7943C12.1747 67.8531 12.0466 64.8045 12.0609 63.7207L12.1774 53.2254C11.9934 53.2428 11.8072 53.2636 11.6188 53.288C10.8202 53.288 9.57951 53.1367 8.98055 52.2289C8.11064 50.9277 9.1089 48.8246 10.2212 46.4643C11.5618 43.6349 12.1386 42.0206 13.9291 41.0931C14.7076 40.6897 15.3552 40.4906 15.8718 40.4955C16.9324 39.8714 18.1598 39.5249 19.4623 39.5485L22.5997 39.6056C23.5336 39.6156 24.4227 39.8103 25.2359 40.1559Z" fill="white"/>
</mask>
<g mask="url(#mask0_234_1661)">
<path d="M25.2359 40.1559C25.6824 40.2967 26.1327 40.4894 26.5785 40.7465C28.2755 41.7305 29.0884 42.9997 30.5858 45.5809C31.8407 47.72 32.9531 49.6452 32.1545 50.9287C31.6237 51.7807 30.4364 52.0034 29.6374 52.0659L29.6018 55.3781V55.5207L29.5305 62.6226C29.4149 64.9175 29.2723 66.784 29.1026 68.2222C28.8482 70.3795 12.5597 71.2688 12.5597 68.7943C12.1747 67.8531 12.0466 64.8045 12.0609 63.7207L12.1774 53.2254C11.9934 53.2429 11.8072 53.2636 11.6188 53.288C10.8202 53.288 9.57951 53.1367 8.98055 52.2289C8.11064 50.9277 9.1089 48.8246 10.2212 46.4643C11.5618 43.6349 12.1386 42.0206 13.9291 41.0931C14.7076 40.6897 15.3552 40.4906 15.8718 40.4955C16.9324 39.8714 18.1598 39.525 19.4623 39.5485L22.5997 39.6056C23.5336 39.6156 24.4227 39.8103 25.2359 40.1559Z" fill="#FFCB3D"/>
</g>
<path opacity="0.176986" d="M21.8018 39.6409C23.1544 39.5175 24.9808 39.8251 26.5784 40.7465C28.2755 41.7305 29.1108 43.0559 30.6082 45.6371C31.8631 47.7763 32.953 49.6452 32.1544 50.9287C31.6293 51.7716 30.4616 51.9986 29.663 52.0638L29.7124 47.485V47.2283C29.7694 43.0927 26.6035 39.6986 22.6247 39.6558L21.8018 39.6409Z" fill="#8C2A00"/>
<path d="M36.4397 50.4282L40.3468 48.0518C40.7057 47.8394 41.1692 47.9925 41.3756 48.4011L41.5653 48.7622C41.7136 49.066 41.682 49.4121 41.5211 49.6683C41.8105 49.6461 42.0876 49.817 42.2288 50.1361L42.419 50.5076C42.5968 50.8812 42.5177 51.3169 42.2673 51.5818C42.6151 51.4242 43.0357 51.583 43.2303 51.9805L43.4199 52.3403C43.6271 52.7636 43.4828 53.2695 43.1247 53.4973L40.8042 54.9043C37.875 57.0019 35.1293 58.8658 32.5672 60.4961L32.7075 61.6397C35.8244 62.1097 40.1145 62.7575 45.5779 63.5831L45.6376 63.592C46.6368 63.5067 47.5083 63.6565 48.1034 63.7795C49.5962 63.6298 51.0739 63.4666 52.5524 63.3176C53.7489 62.969 56.4344 62.3994 56.6096 64.1057C56.6096 64.1057 55.4573 64.4805 53.897 64.9769C51.69 65.6786 48.6534 66.6383 46.9386 67.1856L46.8775 67.1876L39.8121 69.0822L28.4107 69.0579C28.3981 69.0118 28.3856 68.9659 28.3731 68.9202C28.8004 68.7041 29.0577 68.4668 29.0915 68.212C29.282 66.7749 29.4247 64.9065 29.5196 62.6066L29.5219 62.3755C25.9822 64.4879 22.8376 66.0973 20.0884 67.2036C18.4626 67.8596 16.8654 68.4443 15.311 68.9577C11.6887 69.6707 10.1498 67.6282 9.73626 67.2146C9.25139 66.7298 8.26739 65.375 10.05 57.3604C10.3888 55.8393 10.743 54.4635 11.0795 53.2578C11.2674 53.275 11.4462 53.2811 11.6071 53.2811C15.075 52.8317 17.7567 53.6336 21.1116 53.3641C20.6994 54.4154 20.1638 55.6762 19.5049 57.1465C22.8133 56.0126 26.1826 54.7414 29.6127 53.3329L29.6267 52.039C30.1703 51.9965 30.8937 51.8798 31.468 51.5413C31.469 51.5475 31.47 51.5536 31.471 51.5597L31.5876 52.5097C33.1601 51.8444 34.7452 51.1507 36.343 50.4285C36.3642 50.4179 36.3964 50.4178 36.4397 50.4282ZM19.1789 39.4686C19.4898 38.6514 19.7954 37.9288 20.1208 37.0688C20.1198 37.0682 20.1189 37.0676 20.1182 37.0672L20.4182 34.5807C20.3897 34.4238 20.2608 34.4859 20.1182 34.4432C19.7474 34.3433 19.4256 34.0339 19.1689 33.7487C18.6983 33.2068 18.6208 32.4181 18.849 31.6908C19.1342 30.992 19.8757 30.4644 20.5603 30.5214C20.8169 30.5499 21.0594 30.6498 21.2876 30.7924L21.3018 30.8066C21.3731 30.8779 21.4729 30.8922 21.5728 30.9065C21.8152 30.9065 22.0149 30.7353 22.0291 30.4929L22.1575 26.7708C22.1575 26.5284 22.3429 26.3572 22.5853 26.3572C23.1129 26.3572 23.6263 26.3287 24.154 26.2146C24.2253 26.2146 24.2823 26.2004 24.3394 26.2004C24.8528 26.1433 27.6051 25.9722 29.0883 28.0115C29.2166 28.2112 29.3449 28.4108 29.4448 28.6105C29.7015 29.1239 29.8156 29.6943 29.7728 30.2932L29.6159 32.8887C29.5874 33.1454 29.5589 33.4021 29.5018 33.6731C28.8173 36.8818 27.3627 39.1065 26.1363 39.1778C25.5088 39.192 24.8813 39.1207 24.2681 38.9353C24.1918 38.8972 24.2402 38.927 23.3831 38.5805L23.2031 39.5521C24.0064 39.7044 24.8349 39.9498 25.672 40.3173C25.401 40.6738 25.1095 41.0032 24.81 41.2313C21.5585 43.7698 14.1094 41.0323 15.3954 40.5088C16.0264 40.252 17.3984 39.712 19.1789 39.4686Z" fill="#BF865F"/>
<path opacity="0.2" d="M29.6102 62.2849C30.5677 61.7128 31.5541 61.104 32.5693 60.4585L32.7173 61.6496C34.7917 61.9692 39.0925 62.6179 45.6197 63.5958C45.6218 63.5957 45.6238 63.5955 45.6259 63.5953C46.6498 63.4988 47.5432 63.6706 48.15 63.796C49.6428 63.6463 51.0741 63.4666 52.5526 63.3176C53.749 62.969 56.4345 62.3994 56.6097 64.1057C56.4651 64.1563 55.5451 64.4384 53.9848 64.9347C51.7779 65.6364 48.7412 66.5961 47.0264 67.1434L46.9653 67.1454L39.8999 69.04L28.4985 69.0157C28.4859 68.9696 28.4734 68.9237 28.4609 68.878C28.8883 68.6619 29.1455 68.4247 29.1793 68.1698C29.3699 66.7327 29.5126 64.8643 29.6074 62.5644L29.6102 62.2849ZM29.701 53.2512L29.7145 51.9968C30.2292 51.9566 30.905 51.8498 31.4629 51.5513L31.5769 52.4692C30.9496 52.7344 30.3243 52.9951 29.701 53.2512Z" fill="#8C2A00"/>
<path d="M62.7581 60.2382C62.8722 60.6803 62.6155 61.1224 62.1734 61.2365L42.3793 66.57C41.9372 66.6841 41.4951 66.4274 41.381 65.9853C41.267 65.5432 41.5237 65.1011 41.9657 64.9871L61.7598 59.6535C62.1877 59.5537 62.644 59.8104 62.7581 60.2382Z" fill="#474961"/>
<path d="M15.8455 30.4514C15.866 29.6189 16.0512 28.5127 16.7811 27.5979C17.0806 27.2129 17.4799 26.9277 17.9077 26.7138C19.0486 26.1433 19.9185 26.4285 22.1717 26.3715C22.6281 26.3715 23.2983 26.3002 24.154 26.2146C24.7387 26.1423 28.258 25.6928 29.0882 28.0115C28.7954 27.9545 28.1042 27.9402 27.4625 28.0971C24.6959 28.7816 23.883 33.5732 22.6138 33.3736C22.6017 33.3721 22.5889 33.3699 22.5753 33.367L22.5853 33.3593L21.9721 31.6765C21.8295 31.3343 21.587 31.0633 21.3018 30.8352C21.0736 30.6925 20.8312 30.5927 20.5745 30.5642C19.89 30.5072 19.1484 31.0348 18.8632 31.7336C18.5922 32.4324 18.7206 33.2167 19.2197 33.7586C19.5335 34.1152 19.9613 34.3576 20.4319 34.4432L20.4675 34.4425C20.3772 35.5094 20.242 36.943 20.1083 37.1393C19.8951 37.6986 19.6927 38.1871 19.4912 38.6868C19.2038 38.6635 18.9487 38.6389 18.7491 38.6216C18.1216 38.5645 17.1947 38.4932 16.0253 38.4219C16.0253 38.4219 15.9397 38.4219 15.8684 38.4077C15.4976 38.3506 15.1411 38.2936 14.7846 38.1082C14.7846 38.1082 14.6705 38.0654 14.5707 37.9798C12.5599 36.3256 12.1178 33.9583 12.9735 32.632C13.5867 31.7051 14.7846 31.3485 14.9557 31.2915C15.1839 31.2202 15.4121 31.1917 15.6117 31.1774C15.6896 30.9436 15.7676 30.698 15.8455 30.4514ZM27.6051 32.1329C27.3199 32.2042 26.8493 32.2755 26.4642 32.1757C25.794 32.0331 26.4215 31.6338 27.0347 31.6052C27.3199 31.591 27.5481 31.7051 27.6907 31.8192C27.7905 31.919 27.7477 32.1044 27.6051 32.1329ZM30.0295 32.0758C29.7442 32.1757 29.3021 32.304 28.8886 32.2327C28.1898 32.1329 28.7888 31.6765 29.3877 31.6052C29.7015 31.5625 29.9154 31.6623 30.0722 31.7621C30.2006 31.8477 30.1721 32.0331 30.0295 32.0758Z" fill="#482D1F"/>
<path d="M28.9743 33.8727C28.846 33.7016 28.8888 33.3165 28.9316 33.0599C28.9458 32.8745 29.1169 32.7604 29.2738 32.7604C29.3736 32.7746 29.502 32.8317 29.5305 33.0313C29.6303 33.5019 29.1455 34.1579 28.9743 33.8727ZM26.6213 33.887C26.4787 33.7159 26.5357 33.3165 26.5785 33.0741C26.5928 32.8887 26.7639 32.7746 26.9208 32.7746C27.0206 32.7889 27.1489 32.8459 27.1775 33.0456C27.2773 33.5162 26.8067 34.1722 26.6213 33.887Z" fill="#482D1F"/>
<path d="M28.8303 32.7938C28.8409 32.7157 28.7862 32.6439 28.7082 32.6333C28.6301 32.6227 28.5583 32.6774 28.5477 32.7555L28.4336 33.5969L28.4323 33.6147L28.4182 35.126C28.4128 35.1429 28.3993 35.1541 28.3806 35.1559C28.2018 35.137 27.9866 35.1373 27.7343 35.1566C27.6558 35.1626 27.597 35.2311 27.603 35.3097C27.609 35.3882 27.6775 35.447 27.756 35.441C27.9967 35.4226 28.1982 35.4226 28.3595 35.4405L28.3753 35.4414C28.5418 35.4414 28.6751 35.323 28.7013 35.1654L28.7033 35.1433L28.7174 33.6263L28.8303 32.7938Z" fill="#482D1F"/>
<path d="M27.5768 36.5395C27.477 36.5252 27.2203 36.4682 27.1633 36.3113C27.1633 36.2828 27.1348 36.24 27.149 36.2115C27.1918 36.1402 27.6339 36.1402 27.6339 36.1402C28.2186 36.1545 28.3612 36.1259 28.404 36.1972C28.4182 36.24 28.4182 36.2971 28.3184 36.4254C28.1901 36.6678 27.7194 36.5823 27.5768 36.5395Z" fill="#482D1F"/>
<path d="M19.4157 56.9522C19.523 56.9027 19.65 56.9497 19.6995 57.057C19.7489 57.1643 19.702 57.2913 19.5947 57.3408L15.074 59.4228C14.9667 59.4723 14.8396 59.4253 14.7902 59.318C14.7408 59.2107 14.7877 59.0837 14.895 59.0343L19.4157 56.9522ZM21.8847 50.3724C21.8453 50.261 21.9038 50.1388 22.0152 50.0995C22.1266 50.0602 22.2488 50.1186 22.2881 50.23C22.2981 50.2584 22.3148 50.309 22.336 50.3787C22.3708 50.4937 22.4057 50.6213 22.4381 50.7584C22.5268 51.1327 22.582 51.5068 22.5871 51.8598C22.6029 52.953 22.1307 53.6527 21.0425 53.6383C20.9244 53.6367 20.8299 53.5397 20.8314 53.4215C20.833 53.3034 20.93 53.2089 21.0482 53.2105C21.8515 53.2211 22.1721 52.7462 22.1594 51.866C22.1548 51.548 22.1039 51.2034 22.0218 50.8571C21.9915 50.729 21.959 50.6098 21.9266 50.503C21.9073 50.4396 21.8926 50.395 21.8847 50.3724Z" fill="#482D1F"/>
<path d="M23.4125 38.5645L22.2573 38.0939L22.9418 40.6751L23.4125 38.5645Z" fill="#482D1F"/>
</g>
<g clip-path="url(#clip1_234_1661)">
<path d="M120.925 26.5611H67.7316C66.1564 26.5611 64.8794 27.8381 64.8794 29.4133V41.535C64.8794 43.1102 66.1564 44.3872 67.7316 44.3872H120.925C122.5 44.3872 123.777 43.1102 123.777 41.535V29.4133C123.777 27.8381 122.5 26.5611 120.925 26.5611Z" fill="#D8DEED"/>
<path d="M114.856 40.714C112.014 40.714 109.71 38.4077 109.71 35.5628C109.71 32.7178 112.014 30.4116 114.856 30.4116C117.699 30.4116 120.003 32.7178 120.003 35.5628C120.003 38.4077 117.699 40.714 114.856 40.714ZM114.854 35.4931C115.555 35.4931 116.123 34.9322 116.123 34.2402C116.123 33.5481 115.555 32.9872 114.854 32.9872C114.153 32.9872 113.585 33.5481 113.585 34.2402C113.585 34.9322 114.153 35.4931 114.854 35.4931ZM114.854 36.1196C113.583 36.1196 112.554 37.1364 112.554 38.3907H117.154C117.154 37.1364 116.124 36.1196 114.854 36.1196ZM70.3638 35.0476H100.16C100.317 35.0476 100.445 35.1753 100.445 35.3329V36.8229C100.445 36.9804 100.317 37.1081 100.16 37.1081H70.3638C70.2063 37.1081 70.0786 36.9804 70.0786 36.8229V35.3329C70.0786 35.1753 70.2063 35.0476 70.3638 35.0476ZM70.3638 38.3959H102.733C102.891 38.3959 103.019 38.5236 103.019 38.6811V40.1712C103.019 40.3287 102.891 40.4564 102.733 40.4564H70.3638C70.2063 40.4564 70.0786 40.3287 70.0786 40.1712V38.6811C70.0786 38.5236 70.2063 38.3959 70.3638 38.3959Z" fill="#F2F6FB"/>
<path d="M103.248 31.6994H70.3638C70.2063 31.6994 70.0786 31.8271 70.0786 31.9846V33.4746C70.0786 33.6321 70.2063 33.7598 70.3638 33.7598H103.248C103.406 33.7598 103.533 33.6321 103.533 33.4746V31.9846C103.533 31.8271 103.406 31.6994 103.248 31.6994Z" fill="#E1E5F0"/>
<path d="M103.811 11.0168H50.6183C49.0431 11.0168 47.7661 12.2937 47.7661 13.8689V25.9907C47.7661 27.5659 49.0431 28.8429 50.6183 28.8429H103.811C105.387 28.8429 106.663 27.5659 106.663 25.9907V13.8689C106.663 12.2937 105.387 11.0168 103.811 11.0168Z" fill="#F2F6FB"/>
<path d="M58.1122 25.0849C55.2697 25.0849 52.9653 22.7786 52.9653 19.9337C52.9653 17.0888 55.2697 14.7825 58.1122 14.7825C60.9547 14.7825 63.2591 17.0888 63.2591 19.9337C63.2591 22.7786 60.9547 25.0849 58.1122 25.0849ZM58.1096 19.8641C58.8105 19.8641 59.3787 19.3031 59.3787 18.6111C59.3787 17.9191 58.8105 17.3581 58.1096 17.3581C57.4087 17.3581 56.8405 17.9191 56.8405 18.6111C56.8405 19.3031 57.4087 19.8641 58.1096 19.8641ZM58.1096 20.4906C56.8392 20.4906 55.8093 21.5074 55.8093 22.7616H60.4098C60.4098 21.5074 59.3799 20.4906 58.1096 20.4906ZM66.1177 18.9035H95.9139C96.0714 18.9035 96.1991 19.0312 96.1991 19.1887V20.6787C96.1991 20.8362 96.0714 20.9639 95.9139 20.9639H66.1177C65.9602 20.9639 65.8325 20.8362 65.8325 20.6787V19.1887C65.8325 19.0312 65.9602 18.9035 66.1177 18.9035ZM66.1177 22.2517H101.061C101.218 22.2517 101.346 22.3794 101.346 22.537V24.027C101.346 24.1845 101.218 24.3122 101.061 24.3122H66.1177C65.9602 24.3122 65.8325 24.1845 65.8325 24.027V22.537C65.8325 22.3794 65.9602 22.2517 66.1177 22.2517Z" fill="#D8DEED"/>
<circle cx="58.0355" cy="20.3527" r="2.73713" fill="#D8DEED"/>
<ellipse cx="114.937" cy="35.9856" rx="2.73713" ry="2.73713" fill="#F2F6FB"/>
<path d="M60.9218 18.9221C60.2765 18.9221 60.0127 18.4582 60.3335 17.8891C60.5189 17.5593 60.4084 17.1388 60.084 16.9503L59.4672 16.5915C59.1855 16.4211 58.8219 16.5226 58.6543 16.809L58.6151 16.8778C58.2942 17.4469 57.7666 17.4469 57.4421 16.8778L57.4029 16.809C57.2425 16.5226 56.8788 16.4211 56.5972 16.5915L55.9804 16.9503C55.656 17.1388 55.5454 17.5629 55.7308 17.8927C56.0553 18.4582 55.7914 18.9221 55.1461 18.9221C54.7754 18.9221 54.4688 19.2302 54.4688 19.6108V20.2487C54.4688 20.6257 54.7718 20.9374 55.1461 20.9374C55.7914 20.9374 56.0553 21.4014 55.7308 21.9705C55.5454 22.3003 55.656 22.7208 55.9804 22.9092L56.5972 23.2681C56.8788 23.4384 57.2425 23.3369 57.4101 23.0506L57.4493 22.9817C57.7701 22.4127 58.2978 22.4127 58.6222 22.9817L58.6614 23.0506C58.829 23.3369 59.1927 23.4384 59.4743 23.2681L60.0911 22.9092C60.4155 22.7208 60.5261 22.2967 60.3407 21.9705C60.0162 21.4014 60.2801 20.9374 60.9254 20.9374C61.2961 20.9374 61.6027 20.6293 61.6027 20.2487V19.6108C61.5992 19.2339 61.2961 18.9221 60.9218 18.9221ZM58.034 21.1078C57.3958 21.1078 56.8753 20.5786 56.8753 19.9298C56.8753 19.281 57.3958 18.7518 58.034 18.7518C58.6721 18.7518 59.1927 19.281 59.1927 19.9298C59.1927 20.5786 58.6721 21.1078 58.034 21.1078Z" fill="white"/>
<path d="M117.823 34.5551C117.177 34.5551 116.914 34.0911 117.234 33.522C117.42 33.1922 117.309 32.7717 116.985 32.5833L116.368 32.2244C116.086 32.0541 115.723 32.1555 115.555 32.4419L115.516 32.5108C115.195 33.0798 114.667 33.0798 114.343 32.5108L114.304 32.4419C114.143 32.1555 113.78 32.0541 113.498 32.2244L112.881 32.5833C112.557 32.7717 112.446 33.1958 112.632 33.5257C112.956 34.0911 112.692 34.5551 112.047 34.5551C111.676 34.5551 111.37 34.8632 111.37 35.2437V35.8817C111.37 36.2586 111.673 36.5704 112.047 36.5704C112.692 36.5704 112.956 37.0343 112.632 37.6034C112.446 37.9332 112.557 38.3537 112.881 38.5422L113.498 38.901C113.78 39.0714 114.143 38.9699 114.311 38.6835L114.35 38.6147C114.671 38.0456 115.199 38.0456 115.523 38.6147L115.562 38.6835C115.73 38.9699 116.094 39.0714 116.375 38.901L116.992 38.5422C117.316 38.3537 117.427 37.9296 117.242 37.6034C116.917 37.0343 117.181 36.5704 117.826 36.5704C118.197 36.5704 118.504 36.2623 118.504 35.8817V35.2437C118.5 34.8668 118.197 34.5551 117.823 34.5551ZM114.935 36.7407C114.297 36.7407 113.776 36.2115 113.776 35.5627C113.776 34.9139 114.297 34.3847 114.935 34.3847C115.573 34.3847 116.094 34.9139 116.094 35.5627C116.094 36.2115 115.573 36.7407 114.935 36.7407Z" fill="#D8DEED"/>
<path d="M88.7087 15.5552H66.1182C65.9607 15.5552 65.833 15.6829 65.833 15.8404V17.3304C65.833 17.488 65.9607 17.6157 66.1182 17.6157H88.7087C88.8663 17.6157 88.9939 17.488 88.9939 17.3304V15.8404C88.9939 15.6829 88.8663 15.5552 88.7087 15.5552Z" fill="#E1E5F0"/>
</g>
<defs>
<clipPath id="clip0_234_1661">
<rect width="74.4417" height="107.812" fill="white" transform="translate(0.224121 14.2783)"/>
</clipPath>
<clipPath id="clip1_234_1661">
<rect width="76.0104" height="43.4956" fill="white" transform="translate(47.7661 0.891567)"/>
</clipPath>
</defs>
</svg>
