<svg width="130" height="112" viewBox="0 0 130 112" fill="none" xmlns="http://www.w3.org/2000/svg">
<g clip-path="url(#clip0_234_1758)">
<path d="M126.552 0.417423H54.6261C52.9249 0.417423 51.5458 1.79653 51.5458 3.49774V59.4055C51.5458 59.9159 51.9595 60.3296 52.4699 60.3296H128.708C129.218 60.3296 129.632 59.9159 129.632 59.4055V3.49774C129.632 1.79653 128.253 0.417423 126.552 0.417423Z" fill="#F2F6FB"/>
<path d="M58.0276 13.6184H124.48C124.82 13.6184 125.096 13.8942 125.096 14.2345V30.419C125.096 30.7593 124.82 31.0351 124.48 31.0351H58.0276C57.6873 31.0351 57.4115 30.7593 57.4115 30.419V14.2345C57.4115 13.8942 57.6873 13.6184 58.0276 13.6184Z" fill="#474BFF"/>
<path d="M86.4131 19.6529C86.8658 19.1523 87.6222 18.9019 88.7194 18.9019H88.8472V18.8806C88.8472 17.9858 88.8472 16.8779 90.8499 16.8779H91.6596C93.6623 16.8779 93.6623 17.9911 93.6623 18.8806V18.9072H93.7901C94.8927 18.9072 95.6437 19.1576 96.0964 19.6583C96.6237 20.2442 96.6078 21.0325 96.5545 21.5704L96.5492 21.6077L96.4994 22.1305C96.4972 22.1536 96.4849 22.1743 96.4656 22.1871C96.3713 22.2495 96.0799 22.4407 95.9207 22.5292C95.8461 22.5771 95.7662 22.6197 95.6863 22.6623C94.7755 23.163 93.7741 23.4986 92.7568 23.6637C92.7089 24.1644 92.4905 24.7503 91.324 24.7503C90.1575 24.7503 89.9285 24.1697 89.8912 23.653C88.8046 23.4773 87.7553 23.0991 86.8072 22.5452C86.7753 22.5292 86.754 22.5132 86.7273 22.4972C86.4922 22.3643 86.2472 22.197 86.03 22.0378C86.0127 22.0251 86.0016 22.0057 85.9992 21.9844L85.9816 21.8261L85.955 21.5758C85.9497 21.5438 85.9497 21.5172 85.9443 21.4799C85.9017 20.9419 85.9124 20.2069 86.4131 19.6529ZM90.6742 23.3015C90.6742 23.8661 90.6742 23.9513 91.3293 23.9513C91.9845 23.9513 91.9845 23.8501 91.9845 23.3068V22.6357H90.6742V23.3015ZM92.9006 18.9019V18.8806C92.9006 17.9751 92.9006 17.6396 91.6596 17.6396H90.8499C89.6089 17.6396 89.6089 17.9804 89.6089 18.8806V18.9072H92.9006V18.9019Z" fill="white"/>
<path d="M86.2214 23.1026C86.1672 23.0761 86.1057 23.1196 86.1112 23.1797L86.333 25.6238C86.4449 26.6891 86.8817 27.7757 89.2253 27.7757H93.284C95.6276 27.7757 96.0643 26.6891 96.1762 25.6291L96.3877 23.3027C96.3931 23.2433 96.3328 23.1999 96.2787 23.225C95.8333 23.4318 94.2701 24.1434 93.4572 24.3312C93.4317 24.3371 93.4116 24.3551 93.4019 24.3794C93.0995 25.1318 92.3816 25.5333 91.3239 25.5333C90.2766 25.5333 89.5486 25.1163 89.2459 24.3634C89.2361 24.3391 89.216 24.3211 89.1905 24.3152C88.3299 24.1167 86.6827 23.328 86.2214 23.1026Z" fill="white"/>
<path d="M124.788 34.1701H100.982C100.812 34.1701 100.674 34.308 100.674 34.4781V36.6487C100.674 36.8188 100.812 36.9568 100.982 36.9568H124.788C124.958 36.9568 125.096 36.8188 125.096 36.6487V34.4781C125.096 34.308 124.958 34.1701 124.788 34.1701ZM124.788 38.6984H107.96C107.79 38.6984 107.652 38.8363 107.652 39.0065V41.1771C107.652 41.3472 107.79 41.4851 107.96 41.4851H124.788C124.958 41.4851 125.096 41.3472 125.096 41.1771V39.0065C125.096 38.8363 124.958 38.6984 124.788 38.6984ZM124.788 43.2268H104.471C104.301 43.2268 104.163 43.3647 104.163 43.5348V45.7054C104.163 45.8755 104.301 46.0134 104.471 46.0134H124.788C124.958 46.0134 125.096 45.8755 125.096 45.7054V43.5348C125.096 43.3647 124.958 43.2268 124.788 43.2268ZM124.788 47.7551H111.449C111.278 47.7551 111.141 47.893 111.141 48.0631V50.2337C111.141 50.4039 111.278 50.5418 111.449 50.5418H124.788C124.958 50.5418 125.096 50.4039 125.096 50.2337V48.0631C125.096 47.893 124.958 47.7551 124.788 47.7551ZM93.388 38.6984H68.884C68.7139 38.6984 68.576 38.8363 68.576 39.0065V41.1771C68.576 41.3472 68.7139 41.4851 68.884 41.4851H93.388C93.5582 41.4851 93.6961 41.3472 93.6961 41.1771V39.0065C93.6961 38.8363 93.5582 38.6984 93.388 38.6984ZM93.388 43.2268H65.744C65.5739 43.2268 65.436 43.3647 65.436 43.5348V45.7054C65.436 45.8755 65.5739 46.0134 65.744 46.0134H93.388C93.5582 46.0134 93.6961 45.8755 93.6961 45.7054V43.5348C93.6961 43.3647 93.5582 43.2268 93.388 43.2268ZM93.388 47.7551H62.604C62.4339 47.7551 62.296 47.893 62.296 48.0631V50.2337C62.296 50.4039 62.4339 50.5418 62.604 50.5418H93.388C93.5582 50.5418 93.6961 50.4039 93.6961 50.2337V48.0631C93.6961 47.893 93.5582 47.7551 93.388 47.7551ZM93.388 52.2834H72.024C71.8539 52.2834 71.716 52.4214 71.716 52.5915V54.7621C71.716 54.9322 71.8539 55.0701 72.024 55.0701H93.388C93.5582 55.0701 93.6961 54.9322 93.6961 54.7621V52.5915C93.6961 52.4214 93.5582 52.2834 93.388 52.2834ZM93.388 34.1701H62.604C62.4339 34.1701 62.296 34.308 62.296 34.4781V36.6487C62.296 36.8188 62.4339 36.9568 62.604 36.9568H93.388C93.5582 36.9568 93.6961 36.8188 93.6961 36.6487V34.4781C93.6961 34.308 93.5582 34.1701 93.388 34.1701Z" fill="#E1E5F0"/>
<path d="M129.633 3.49842C129.633 1.79684 128.253 0.417431 126.554 0.417431H54.6259C52.9253 0.417431 51.5468 1.79696 51.5468 3.49842V7.19413H129.633V3.49842Z" fill="#E1E5F0"/>
</g>
<path d="M14.2581 85.0415H4.77143C4.4836 85.0415 4.23175 84.8017 4.23175 84.5138V84.4539C4.23175 84.166 4.4836 83.9262 4.79542 83.9262H13.5863C18.9112 83.9262 24.2361 83.9262 29.549 83.9262H37.7043C37.9921 83.9262 38.244 84.166 38.244 84.4539V84.5138C38.244 84.8017 38.0041 85.0415 37.7043 85.0415H26.1309L29.3212 90.8941C31.5879 95.0677 33.8545 99.2293 36.1332 103.403L39.887 110.287C40.019 110.527 39.911 110.839 39.6592 110.982L39.6112 111.006C39.3594 111.138 39.0355 111.066 38.9156 110.839L24.8718 85.0415H15.5172L1.47335 110.839C1.35342 111.066 1.02961 111.15 0.777752 111.006L0.729779 110.982C0.477926 110.839 0.369988 110.527 0.501912 110.287L4.25573 103.403C6.52242 99.2293 8.7891 95.0677 11.0678 90.8941L14.2581 85.0415ZM4.26773 80.3417V73.3686C4.26773 68.0503 4.26773 62.7443 4.26773 57.4382V51.1012C4.26773 50.1077 5.07314 49.3023 6.06668 49.3023H25.6393C26.6329 49.3023 27.4383 50.1077 27.4383 51.1012V80.3624C27.4383 81.3559 26.6329 82.1613 25.6393 82.1613C25.6387 82.1613 25.6381 82.1613 25.6374 82.1613L6.06479 82.1407C5.07199 82.1397 4.26773 81.3345 4.26773 80.3417Z" fill="#D8DEED"/>
<g clip-path="url(#clip1_234_1758)">
<path d="M52.576 109.411H33.0274C32.7293 109.411 32.4877 109.653 32.4877 109.951C32.4877 110.249 32.7293 110.491 33.0274 110.491H52.576C52.8741 110.491 53.1157 110.249 53.1157 109.951C53.1157 109.653 52.8741 109.411 52.576 109.411ZM30.6288 109.411H18.276C17.9779 109.411 17.7363 109.653 17.7363 109.951C17.7363 110.249 17.9779 110.491 18.276 110.491H30.6288C30.9268 110.491 31.1685 110.249 31.1685 109.951C31.1685 109.653 30.9268 109.411 30.6288 109.411Z" fill="#3ABF7C"/>
<path d="M18.405 109.411H30.6125L29.6337 102.86H20.9341L18.405 109.411ZM32.6895 109.53C32.782 109.456 32.8995 109.411 33.0274 109.411H52.576C52.5985 109.411 52.6206 109.413 52.6423 109.415C52.6492 109.36 52.6524 109.294 52.6511 109.216C52.6376 109.132 52.6359 109.036 52.6103 108.94C52.4563 108.367 52.2698 107.987 51.7241 107.648C51.1784 107.31 50.6214 107.008 50.041 106.742C47.9003 105.736 47.1689 105.749 45.7613 104.826C45.1789 104.44 44.6433 103.994 44.1431 103.511C43.8096 103.189 43.0888 102.665 41.9806 101.941L33.3927 101.967L32.6895 109.53Z" fill="#474961"/>
<path d="M18.5054 81.2211C18.5251 87.0892 18.7233 94.8846 18.7917 97.5662C18.8037 97.9397 18.7557 98.9503 19.4753 99.5875C19.6792 99.7742 19.883 99.8511 20.2668 100.016C20.5666 100.148 21.9099 100.543 24.5963 100.763C24.7642 100.774 24.9441 100.785 25.124 100.774C27.8944 100.675 28.578 100.499 29.6454 100.192C30.353 99.9939 30.8687 99.3788 30.9406 98.6537C31.2764 95.4571 32.1999 86.7459 32.2718 85.9769C32.3678 84.9992 32.4517 83.8897 32.5237 82.6264L32.5618 82.035L35.8808 80.7041C34.4947 86.1026 33.1501 91.6943 31.948 97.2532C31.8881 97.5256 31.7801 98.1385 32.0919 98.7174C32.6676 99.8184 34.1667 99.7616 37.7527 100.193C41.9742 100.704 43.7372 101.237 44.6966 100.148C45.0204 99.7957 45.1284 99.4325 45.1644 99.2622C46.0398 94.8469 50.3813 82.0321 52.0723 72.8382C52.0723 72.8155 52.0843 72.8041 52.0843 72.7814C52.624 69.819 50.5972 67.0267 47.5869 66.6522C46.5915 66.5273 45.692 66.407 44.6966 66.2821C44.3951 66.2463 44.0941 66.236 43.7965 66.2495L28.9369 65.9874C20.1236 65.9093 21.3371 64.8685 18.5813 66.1586C16.7441 67.0186 15.4931 69.4669 14.8286 73.5037C14.5906 76.573 15.8162 79.1455 18.5054 81.2211Z" fill="#A339FF"/>
<path opacity="0.176986" d="M18.4903 81.2094C18.4892 80.9028 18.4887 80.6016 18.4887 80.3066C18.4887 78.0217 18.4767 76.0553 18.4527 74.7921C18.4287 73.7924 18.2488 68.2998 20.5755 67.1574C20.7794 67.0585 20.9833 66.9816 21.391 66.8388C21.7148 66.729 23.3939 66.1577 25.5526 66.2456C26.9558 66.3006 29.0666 66.3884 30.8056 67.7616C33.2042 69.662 33.1442 72.6609 33.1202 73.1443L32.5462 82.0413L35.8634 80.711C36.7875 77.1116 37.73 73.5979 38.661 70.2369C39.297 67.9494 41.4229 66.3661 43.7549 66.2488L28.9368 65.9874C20.1236 65.9093 21.3371 64.8685 18.5813 66.1586C16.744 67.0186 15.4931 69.4669 14.8285 73.5037C14.591 76.5673 15.8116 79.1358 18.4903 81.2094Z" fill="#444444"/>
<path d="M31.1299 43.6196C30.9857 43.5563 30.8381 43.4998 30.6873 43.4507L28.1279 42.5813C27.9796 42.5538 27.8319 42.5297 27.6849 42.5091C27.4832 42.2736 27.0723 42.074 26.3599 41.8514C23.8298 41.0472 20.6006 42.3846 19.4505 45.3814C18.4482 47.993 17.1166 50.9429 17.2407 50.9817C17.2672 50.9899 17.8483 51.413 18.6444 51.6749C17.4929 56.0961 16.8726 59.0558 16.7832 60.5539C16.6053 63.5378 17.5916 65.5377 20.9344 65.7911C24.2771 66.0446 28.9296 66.4016 29.4763 65.4122C29.8278 64.776 31.4799 60.8482 34.4326 53.6286C35.5366 53.9921 36.113 54.1782 36.1621 54.1869C36.3161 54.2141 36.84 52.4583 37.1811 49.6818C37.5725 46.4958 35.6733 43.8388 32.5259 43.2953C32.0056 43.2032 31.5403 43.3113 31.1299 43.6196Z" fill="#3ABF7C"/>
<path opacity="0.176986" d="M31.1223 43.6253C34.2528 44.9464 35.8071 49.4707 34.7647 52.8163C34.6494 53.0905 34.536 53.3604 34.4243 53.6258C35.5337 53.9912 36.1129 54.1782 36.1621 54.1869C36.3161 54.2141 36.84 52.4583 37.1811 49.6818C37.5725 46.4958 35.6733 43.8388 32.5259 43.2953C32.0024 43.2026 31.5345 43.3126 31.1223 43.6253Z" fill="#444444"/>
<path d="M36.2896 43.9978C36.2896 43.9978 36.5175 44.9092 35.3062 44.6574C34.0949 44.4055 33.7471 44.2856 33.7471 44.2856L34.0589 43.4581L36.2896 43.9978Z" fill="#482D1F"/>
<path d="M29.4417 43.3566L27.2111 53.952L26.681 51.0756C23.8859 51.6328 21.6112 51.9113 19.8569 51.9112C19.8475 51.9112 19.8381 51.9112 19.8287 51.9111C20.2239 53.4494 21.1605 60.1243 22.6178 62.7069C24.46 65.9717 25.5351 66.3302 28.2555 66.0634C28.534 66.0361 28.7967 65.986 29.0447 65.9131C28.9258 65.9525 28.8032 65.9857 28.6769 66.0125L42.7505 66.2326L42.7517 66.2365L42.7944 66.2333L42.853 66.2342C42.879 66.2346 42.9045 66.2308 42.9285 66.2233L48.7218 65.7901C49.6196 65.7229 50.4447 65.2709 50.9846 64.5504L51.7421 63.5395C51.8865 63.3469 51.9802 63.1211 52.0147 62.8829C52.1287 62.0963 51.5835 61.3662 50.7969 61.2522L48.9408 60.9832C47.7852 60.8157 46.6113 60.8179 45.4564 60.9897L41.8688 61.5232C39.1719 60.6609 35.5731 59.5283 34.6745 59.3331L35.7903 54.0655L34.4714 53.5388C34.0573 54.5004 33.6677 55.4037 33.3025 56.2487C33.7162 52.2342 33.6697 47.8008 34.1672 43.8625L35.4144 43.8898C36.1579 44.1896 37.717 44.6933 37.8849 43.626C37.8849 43.626 35.8221 42.7745 34.371 42.1508L34.263 42.0549C34.1671 41.9709 34.0831 41.923 33.9632 41.887C33.9392 41.875 33.9152 41.875 33.8912 41.875L33.8116 41.8634C34.0276 41.8798 34.1792 41.8759 34.2318 41.87C35.235 41.8254 36.4645 40.0188 37.056 37.3859C37.1107 37.1739 37.1295 36.9589 37.1602 36.7449L37.3115 34.6032C37.3533 34.1253 37.2627 33.6478 37.0593 33.2207C37.0395 33.1708 37.0188 33.1329 36.998 33.095C36.9248 32.9682 36.8517 32.8414 36.7764 32.7385C36.4873 32.3279 36.129 32.0197 35.7514 31.7941C34.853 31.3302 33.8037 31.2143 33.212 31.2348C33.1273 31.2394 32.8614 31.2523 32.4868 31.2677C32.133 31.321 31.7943 31.3395 31.4468 31.3211C31.2546 31.3164 31.0966 31.4711 31.0799 31.6622L30.9318 34.7312C30.9307 34.7539 30.9249 34.7859 30.9142 34.8273C29.7065 34.3276 28.8419 34.6127 28.3204 35.6826C27.5381 37.2874 28.2465 36.9402 28.5943 37.3679C28.845 37.6667 29.1572 37.8144 29.367 37.893C29.4061 37.9014 29.4461 37.9243 29.4814 37.9562L28.542 37.9653L28.3759 38.6249L28.3147 39.4623L27.6975 42.5263C27.6975 42.5263 28.5681 43.0119 29.4417 43.3566ZM31.5392 41.5333L31.6098 41.1891C31.6393 41.2016 31.6693 41.2143 31.6997 41.2272C32.698 41.6516 32.6403 41.6225 32.7099 41.6526C32.8595 41.6993 33.0051 41.7366 33.1433 41.7662L32.0683 41.6111L31.5392 41.5333ZM21.7309 102.895H29.612L29.4423 100.246C28.4738 100.52 27.7135 100.681 25.1092 100.774C24.9293 100.785 24.7494 100.774 24.5815 100.763C23.2997 100.658 22.3237 100.513 21.6209 100.376L20.9345 102.86L21.7309 102.895ZM33.7363 99.6978L33.393 101.967H42.0262L41.4567 100.681C40.4908 100.569 39.2779 100.379 37.7379 100.193C35.9164 99.9739 34.6334 99.8807 33.7363 99.6978Z" fill="#DB9E75"/>
<path d="M30.8062 41.4416L31.2595 41.5051L31.5131 41.5424C31.5216 41.54 31.5302 41.5375 31.5389 41.5349L31.6099 41.1884L30.3227 40.6334C30.496 41.0327 30.6572 41.3021 30.8062 41.4416Z" fill="#482D1F"/>
<path d="M36.296 37.1268C36.2533 37.3397 36.1752 37.682 36.2572 37.8457C36.3905 38.1102 36.8589 37.5733 36.8227 37.1608C36.8015 36.9904 36.7242 36.9114 36.6286 36.903C36.4743 36.8775 36.3335 36.9735 36.296 37.1268ZM33.7472 36.675C33.7045 36.888 33.6264 37.2303 33.7083 37.394C33.8417 37.6584 34.31 37.1216 34.2739 36.7091C34.2527 36.5387 34.1753 36.4597 34.0797 36.4513C33.9255 36.4258 33.7846 36.5218 33.7472 36.675Z" fill="#482D1F"/>
<path d="M35.7082 37.1007L35.7112 38.3048C35.6987 38.4526 35.5764 38.5807 35.4358 38.5684C35.3527 38.5679 35.2997 38.5632 35.0872 38.5406C34.9923 38.5304 34.9272 38.5239 34.8503 38.5172C34.7844 38.5114 34.7355 38.4532 34.7413 38.3872C34.7471 38.3213 34.8053 38.2725 34.8712 38.2782C34.95 38.2851 35.0164 38.2918 35.1127 38.302C35.3164 38.3238 35.366 38.3281 35.4475 38.329C35.4522 38.3291 35.4704 38.31 35.4717 38.2946L35.4683 37.1013C35.4681 37.035 35.5217 36.9812 35.5879 36.981C35.6542 36.9809 35.708 37.0344 35.7082 37.1007Z" fill="#482D1F"/>
<path d="M34.6101 39.1944C34.5286 39.1632 34.3328 39.0618 34.3194 38.9402C34.3215 38.9164 34.3126 38.8795 34.3256 38.8686C34.3786 38.813 34.5298 38.8744 34.7417 38.929C35.1188 39.0222 35.4414 39.0505 35.4414 39.0505C35.4414 39.0505 35.3161 39.2441 35.2511 39.2987C35.1072 39.4305 34.7374 39.2537 34.6101 39.1944Z" fill="#482D1F"/>
<path d="M31.7129 35.7879L31.3154 35.6527C31.0883 35.5755 30.9724 35.9161 31.1995 35.9933L31.597 36.1285L31.8968 36.2304C31.8628 36.342 31.8399 36.4587 31.8293 36.5795C31.7474 37.5164 32.4405 38.3425 33.3774 38.4244C34.1926 38.4958 34.9238 37.9804 35.1541 37.2281L35.3641 37.2612L35.5375 37.2885C35.5021 38.1907 36.1817 38.9707 37.0908 39.0503C38.0278 39.1323 38.8538 38.4391 38.9358 37.5022C39.0178 36.5652 38.3247 35.7392 37.3877 35.6572C36.5474 35.5837 35.7914 36.1348 35.5889 36.9323L35.42 36.9057L35.3641 37.2612C35.5702 37.1086 35.5709 37.1034 35.5714 37.0983L35.7596 36.9592L35.5889 36.9323C35.5805 36.9656 35.573 36.9994 35.5665 37.0335C35.5511 36.9721 35.5039 36.919 35.42 36.9057L35.2225 36.8747C35.3035 35.9384 34.6107 35.1133 33.6743 35.0314C32.9846 34.971 32.355 35.3307 32.038 35.8984L31.7129 35.7879ZM35.7037 37.3146C35.8028 37.3302 35.8955 37.2617 35.9097 37.1624C35.9236 37.065 35.8568 36.9745 35.7596 36.9592L35.42 36.9057L35.2225 36.8747C35.2225 36.8752 35.2224 36.8758 35.2224 36.8763C35.2117 36.9981 35.1885 37.1158 35.1541 37.2281L35.3641 37.2612L35.7037 37.3146ZM35.3641 37.2612C35.45 37.2747 35.5121 37.2366 35.5451 37.1808L35.3641 37.2612ZM33.4088 38.066C32.6698 38.0014 32.1231 37.3498 32.1878 36.6108C32.2524 35.8718 32.9039 35.3251 33.6429 35.3898C34.3819 35.4544 34.9286 36.106 34.864 36.845C34.7993 37.584 34.1478 38.1307 33.4088 38.066ZM37.3563 36.0156C38.0954 36.0803 38.642 36.7318 38.5774 37.4708C38.5127 38.2098 37.8612 38.7565 37.1222 38.6919C36.3832 38.6272 35.8365 37.9757 35.9012 37.2367C35.9033 37.2118 35.9062 37.187 35.9097 37.1624C36.0103 36.4588 36.645 35.9534 37.3563 36.0156Z" fill="#482D1F"/>
<path opacity="0.2" d="M28.6837 66.0125L42.7574 66.2326L42.7585 66.2365L42.8013 66.2333L42.8599 66.2342C42.8859 66.2346 42.9113 66.2308 42.9354 66.2232L48.7286 65.7901C49.6265 65.7229 50.4515 65.2709 50.9914 64.5504L51.749 63.5395C51.8933 63.3469 51.987 63.1211 52.0216 62.8829C52.1356 62.0963 51.5903 61.3662 50.8037 61.2522L48.9476 60.9832C47.792 60.8157 46.6182 60.8179 45.4632 60.9897L41.8756 61.5232C39.1788 60.6609 35.5799 59.5283 34.6814 59.3331L35.7971 54.0655L34.4782 53.5388C34.04 54.5566 33.6291 55.5091 33.2456 56.3961C33.1787 56.924 33.1013 57.4493 33.0106 57.9715C32.125 62.6833 31.0987 65.4993 28.6837 66.0125Z" fill="#8C2A00"/>
<path d="M27.3358 54.0151C27.364 53.9198 27.3097 53.8197 27.2144 53.7915C27.1192 53.7632 27.0191 53.8176 26.9908 53.9128L25.8035 57.9185C25.7753 58.0138 25.8296 58.1139 25.9249 58.1421C26.0201 58.1703 26.1203 58.116 26.1485 58.0208L27.3358 54.0151ZM19.8216 52.0581C19.921 52.0573 20.0009 51.9762 20.0002 51.8769C19.9994 51.7775 19.9183 51.6976 19.8189 51.6983C19.3182 51.7021 18.8484 51.6291 18.4087 51.4796C18.3146 51.4476 18.2124 51.498 18.1805 51.592C18.1485 51.6861 18.1988 51.7883 18.2929 51.8203C18.7715 51.9829 19.2814 52.0621 19.8216 52.0581Z" fill="#482D1F"/>
<path d="M29.7759 37.8496C29.5936 37.7965 29.0541 37.678 28.723 37.2708C28.3741 36.855 28.2025 36.202 28.46 35.5985C28.6914 35.0168 29.3078 34.5771 29.8802 34.6392C30.2017 34.6794 30.451 34.8577 30.4847 34.8848C30.8788 35.1961 31.0366 35.5952 31.0366 35.5952L31.1318 35.8737C31.1792 35.8115 31.2248 35.7533 31.2682 35.6997C32.186 34.841 32.716 34.2452 33.6458 33.3875C34.1132 33.5488 37.1143 34.617 37.3398 34.5164C37.3398 33.2978 36.8942 32.9056 36.8189 32.8027C36.5298 32.3921 36.107 31.9937 35.7294 31.7681C34.831 31.3042 33.7817 31.1883 33.19 31.2088C33.1053 31.2134 32.8394 31.2263 32.4648 31.2417C32.3562 31.2442 32.2477 31.2468 32.1152 31.2472C31.8025 31.2439 31.5614 31.2469 31.417 31.2463C29.5906 31.2069 28.9024 30.9541 27.9515 31.3645C27.896 31.3901 27.8179 31.4269 27.7257 31.4776C27.6626 31.3117 27.5888 31.1573 27.5155 31.0144C25.5047 27.1184 23.0626 28.0003 23.0626 28.0147C23.0626 28.0292 21.2121 28.0292 20.7387 29.9164C20.6915 30.104 20.3597 31.4286 20.8902 32.5208C21.6018 33.9499 23.7241 34.8297 26.1387 34.2292C26.1089 34.6471 26.1377 34.9894 26.1501 35.1677C26.2818 36.5516 27.0361 37.4242 27.2567 37.7926C27.5508 38.2839 27.9142 38.7782 28.3468 39.2756C28.8862 38.9515 29.2992 38.5733 29.5859 38.1409C29.6478 38.0457 29.7113 37.9483 29.7759 37.8496Z" fill="#482D1F"/>
</g>
<path d="M86.4767 91.304C86.4569 91.3026 86.4369 91.3019 86.4168 91.3019H62.5506C62.087 91.3019 61.7111 91.6778 61.7111 92.1414C61.7111 92.6051 62.087 92.9809 62.5506 92.9809H86.4168C86.4369 92.9809 86.4569 92.9802 86.4767 92.9788V109.591C86.4767 110.055 86.8526 110.431 87.3162 110.431C87.7799 110.431 88.1558 110.055 88.1558 109.591L88.1558 65.8167C88.1558 65.4127 87.8704 65.0754 87.4903 64.9953C87.3827 64.9452 87.2628 64.9172 87.1364 64.9172H15.7778C15.3141 64.9172 14.9383 65.2931 14.9383 65.7568C14.9383 66.2204 15.3141 66.5963 15.7778 66.5963H86.4767V91.304Z" fill="#D8DEED"/>
<g clip-path="url(#clip2_234_1758)">
<path d="M62.1846 64.4986C62.0651 64.7098 61.8384 64.8525 61.5787 64.8525H44.3447C43.961 64.8525 43.6611 64.5407 43.6611 64.1569C43.6611 63.7731 43.973 63.4613 44.3447 63.4613H61.108L66.9516 47.7384C67.0835 47.3786 67.4793 47.1987 67.8391 47.3307C68.1989 47.4626 68.3788 47.8584 68.2469 48.2182L62.2383 64.3848C62.2236 64.425 62.2055 64.463 62.1846 64.4986Z" fill="#474961"/>
</g>
<defs>
<clipPath id="clip0_234_1758">
<rect width="78.086" height="59.9122" fill="white" transform="matrix(-1 0 0 1 129.633 0.417419)"/>
</clipPath>
<clipPath id="clip1_234_1758">
<rect width="62.6036" height="90.6674" fill="white" transform="matrix(-1 0 0 1 65.3486 19.8234)"/>
</clipPath>
<clipPath id="clip2_234_1758">
<rect width="42.4553" height="31.9015" fill="white" transform="matrix(-1 0 0 1 77.2417 33.0158)"/>
</clipPath>
</defs>
</svg>
