<svg width="121" height="117" viewBox="0 0 121 117" fill="none" xmlns="http://www.w3.org/2000/svg">
<path d="M79.2886 115.99L79.3393 116.015C79.6051 116.155 79.9468 116.079 80.0734 115.838L94.8953 88.6119C95.0346 88.3587 94.9207 88.0423 94.6548 87.903L94.6042 87.8777C94.3384 87.7385 93.9967 87.8144 93.8701 88.0549L90.1994 94.7887C87.8071 99.1935 85.4149 103.586 83.0099 107.991L79.0481 115.256C78.9089 115.509 79.0228 115.838 79.2886 115.99Z" fill="#D8DEED"/>
<path d="M116.084 87.4347H106.806C101.186 87.4347 95.566 87.4347 89.9587 87.4347H81.3516C81.0478 87.4347 80.782 87.6879 80.782 87.9917V88.055C80.782 88.3587 81.0352 88.6119 81.3516 88.6119H116.109C116.413 88.6119 116.679 88.3587 116.679 88.055V87.9917C116.679 87.6879 116.413 87.4347 116.084 87.4347Z" fill="#D8DEED"/>
<path d="M116.641 84.9665V75.8658C116.641 70.3471 116.641 64.8411 116.641 59.3351V50.8925C116.641 50.5887 111.388 50.3356 105.072 50.3356H103.755C97.4518 50.3356 92.1863 50.5887 92.1863 50.8925V84.9918C92.1863 85.2956 97.4392 85.5488 103.755 85.5488H105.072C111.375 85.5488 116.641 85.283 116.641 84.9665Z" fill="#D8DEED"/>
<path d="M120.615 115.256L116.653 107.991C114.261 103.586 111.869 99.1936 109.464 94.7888L105.793 88.055C105.667 87.8145 105.325 87.7259 105.059 87.8777L105.008 87.9031C104.743 88.0423 104.629 88.3714 104.768 88.6119L119.59 115.838C119.716 116.079 120.058 116.167 120.324 116.015L120.375 115.99C120.64 115.838 120.754 115.509 120.615 115.256Z" fill="#D8DEED"/>
<path d="M68.7197 116.06H88.8325C89.1489 116.06 89.4021 115.807 89.4021 115.491C89.4021 115.174 89.1489 114.921 88.8325 114.921H68.7197C68.4033 114.921 68.1501 115.174 68.1501 115.491C68.1501 115.807 68.4033 116.06 68.7197 116.06ZM105.743 116.06C106.059 116.06 106.312 115.841 106.312 115.578V115.403C106.312 115.14 106.047 114.921 105.743 114.921H92.769C92.4525 114.921 92.1994 115.14 92.1994 115.403V115.578C92.1994 115.841 92.4652 116.06 92.769 116.06H105.743Z" fill="#A339FF"/>
<path d="M68.5311 114.962C68.5972 114.936 68.6696 114.921 68.7456 114.921H88.8584C88.9394 114.921 89.0162 114.938 89.0857 114.968C89.1025 114.91 89.1116 114.849 89.1116 114.786L88.6901 107.075L79.9728 106.947C79.8336 106.947 79.707 106.985 79.5931 107.075C78.1502 108.64 76.7705 109.513 75.7705 110.026C74.9984 110.424 72.4163 111.527 71.2518 112.066C70.8937 112.228 70.3636 112.519 69.6615 112.94C69.4948 113.039 69.3443 113.164 69.2154 113.31C68.8515 113.721 68.6232 114.089 68.5304 114.414C68.5051 114.491 68.5051 114.555 68.4925 114.632C68.4798 114.696 68.4925 114.76 68.4925 114.824V114.837C68.5014 114.881 68.5145 114.923 68.5311 114.962ZM92.5235 114.98C92.604 114.942 92.6964 114.921 92.7949 114.921H105.581L102.642 107.086L93.5797 108.314L92.5235 114.98Z" fill="#474961"/>
<path d="M89.5296 84.9273C89.8946 85.1087 90.2353 85.2783 90.5519 85.4359L90.6174 86.4372C90.6934 87.752 90.782 88.9067 90.8833 89.9242C90.9592 90.7245 91.9338 99.7906 92.2882 103.118C92.3642 103.872 92.9085 104.512 93.6553 104.718C94.7818 105.038 95.5032 105.221 98.4271 105.324C98.617 105.336 98.8069 105.324 98.9841 105.313C101.819 105.084 103.237 104.672 103.553 104.535C103.958 104.364 104.174 104.284 104.389 104.089C105.148 103.426 105.098 102.374 105.11 101.986C105.174 99.5085 105.346 92.838 105.399 87.0991C105.475 87.0994 105.552 87.0996 105.629 87.0999C106.349 87.0999 107.042 86.7961 107.681 86.2645C108.496 85.581 111.363 83.3206 111.541 78.5647C111.664 75.2561 111.088 72.7428 109.812 71.0248C109.812 71.0122 108.224 68.506 107.259 68.506H93.0484C92.061 68.5398 87.6517 68.654 79.8206 68.8488L79.8252 68.8791C79.7815 68.8781 79.7378 68.8771 79.694 68.8762C76.4917 68.8173 73.8969 71.3706 73.9728 74.4886C73.9728 74.5121 73.9728 74.5239 73.9728 74.5474C74.1753 84.2191 76.5423 97.9971 76.7068 102.657C76.7195 102.833 76.7701 103.221 77.0359 103.633C77.8587 104.892 79.7826 104.61 84.276 104.716C88.0986 104.81 89.6428 105.092 90.4276 104.057C90.8579 103.492 90.8453 102.845 90.8326 102.551C90.5197 96.6475 90.0641 90.6888 89.5296 84.9273Z" fill="#474BFF"/>
<path opacity="0.176986" d="M89.5568 84.9028C89.9219 85.0844 90.2627 85.2539 90.5791 85.4115L89.9989 76.5433C89.9862 76.0289 89.9229 72.9192 92.4418 70.9413C94.2771 69.5122 96.5048 69.4207 97.9857 69.3636C100.264 69.2721 102.036 69.8666 102.378 69.981C102.808 70.1296 103.023 70.2096 103.239 70.3125C105.694 71.5015 105.504 77.2179 105.479 78.2582C105.454 79.573 105.441 81.6195 105.441 83.9975C105.441 84.9648 105.435 85.9969 105.426 87.0613C105.493 87.0615 105.561 87.0617 105.629 87.0619C106.349 87.0619 107.042 86.7581 107.681 86.2265C108.496 85.543 111.363 83.2826 111.541 78.5267C111.664 75.2181 111.088 72.7048 109.812 70.9869C109.812 70.9742 108.224 68.468 107.259 68.468H93.0484C92.0863 68.5009 87.7693 68.6306 80.0974 68.8571C81.0326 68.8779 81.9604 68.8986 82.898 68.9194C85.7459 68.9899 88.1129 71.0961 88.4167 73.8493C88.8188 77.4002 89.2049 81.1088 89.5568 84.9028Z" fill="#444444"/>
<path d="M89.4736 53.8875C87.613 52.4952 82.8031 48.7106 82.8031 48.7106C81.2336 50.1282 85.0055 52.6724 85.0055 52.6724" fill="#FFC3A8"/>
<path d="M92.2474 49.736C92.0575 50.2336 91.9037 50.7445 91.786 51.2688C91.0859 54.3864 89.9416 56.2222 90.7296 57.7146C91.1948 58.5949 92.0886 58.859 92.7816 58.9331L93.2577 64.8826C93.4465 66.4935 93.5726 67.3898 93.636 67.5715C93.6242 69.0606 95.4949 68.6818 98.9779 68.6818C103.031 68.6818 108.437 69.2273 108.759 67.7276C109.049 66.376 108.98 63.541 108.55 59.2227C109.958 58.8541 110.994 58.2172 111.258 57.7016C112.002 56.2699 111.149 53.9558 110.198 51.3586C109.053 48.2454 108.431 46.7137 107.03 45.4485C105.869 44.403 104.601 44.042 103.532 44.2437C102.67 43.8967 101.722 43.743 100.744 43.8293L97.9692 44.0741C95.0142 44.3126 92.7251 46.7845 92.2474 49.736Z" fill="#A339FF"/>
<path opacity="0.176986" d="M92.1608 49.9208C91.9977 50.3684 91.8636 50.8266 91.7583 51.2955C91.0582 54.4131 89.9138 56.2489 90.7018 57.7413C91.1615 58.6109 92.0392 58.8792 92.7285 58.957L92.6983 58.5791L92.6894 58.4528L92.1395 51.6776L92.1236 51.4503C92.0804 50.9336 92.0945 50.421 92.1608 49.9208Z" fill="#444444"/>
<path d="M101.963 43.8451C101.744 43.1098 101.429 41.8947 101.018 40.1995L100.981 39.4862C101.007 39.347 101.03 39.3425 101.157 39.3045C101.486 39.2159 101.663 39.0022 101.891 38.7491C102.308 38.2681 102.422 37.5593 102.22 36.9137C101.967 36.2935 101.308 35.8252 100.701 35.8758C100.473 35.9011 100.258 35.9897 100.055 36.1163L100.043 36.129C99.9794 36.1923 99.8908 36.2049 99.8022 36.2176C99.587 36.2176 99.4098 36.0657 99.3972 35.8505L99.2833 32.5469C99.2833 32.3317 99.1187 32.1798 98.9035 32.1798C98.4352 32.1798 97.9795 32.1545 97.5112 32.0533C97.4479 32.0533 97.3973 32.0406 97.3467 32.0406C96.891 31.99 94.4481 31.8381 93.1317 33.6481C93.0178 33.8253 92.9039 34.0025 92.8153 34.1797C92.5874 34.6354 92.4862 35.1417 92.5242 35.6733L92.6634 37.977C92.6887 38.2048 92.714 38.4326 92.7646 38.6731C93.3722 41.5211 94.6633 43.4957 95.7518 43.5589C96.3087 43.5716 96.8657 43.5083 97.41 43.3438C97.4776 43.3099 97.4347 43.3364 98.1955 43.0288L98.3506 43.8665C96.8393 44.1125 95.9986 44.5934 95.9063 44.6406C96.1756 44.9376 96.2131 45.0379 96.4456 45.2257C99.0456 47.3266 103.266 44.5603 103.798 44.2059C103.149 44.0389 102.537 43.922 101.963 43.8451ZM90.8593 61.2863L90.6563 62.7409L80.6059 64.6377C80.3091 64.5865 80.0223 64.5583 79.7456 64.5502C78.7939 64.5106 77.9745 64.6953 77.4194 64.8405C76.0316 64.7745 74.657 64.6953 73.2824 64.6294C72.159 64.3655 69.6477 63.9697 69.5684 65.5529C69.5684 65.5529 70.6522 65.8431 72.1193 66.2257C72.4625 66.3152 72.827 66.41 73.2037 66.508C75.1494 67.1797 77.6949 68.5649 79.1609 69.0347L94.1772 68.5107C93.9504 68.2324 93.7814 67.9168 93.6806 67.5612C93.6172 67.3795 93.4911 66.4832 93.3023 64.8723L93.1207 62.6033C95.8632 64.1626 98.4101 65.4673 100.761 66.5174C102.186 67.1538 103.928 67.6528 105.325 68.1301C108.581 68.7931 109.196 67.6204 109.568 67.2358C110.001 66.7883 111.442 65.5175 110.793 58.2208C109.613 59.1074 106.794 59.9706 103.982 59.2062C103.255 59.0086 102.605 58.8219 102.033 58.6462L102.078 59.0864L87.043 52.7757C87.0069 52.7477 86.9676 52.7229 86.9255 52.7018L82.5839 50.6386C82.2548 50.4867 81.8498 50.626 81.6852 50.9551L81.5333 51.2462C81.3791 51.5665 81.5029 51.9313 81.79 52.1113C81.4844 52.0469 81.1815 52.1911 81.0524 52.4816L80.9005 52.7727C80.7712 53.0413 80.8373 53.3412 81.0313 53.5371C80.8657 53.5871 80.7174 53.6997 80.6264 53.8658L80.4595 54.1486C80.2773 54.4813 80.4085 54.8811 80.7285 55.0626L82.995 56.289C85.7641 58.1469 88.3855 59.8126 90.8593 61.2863ZM79.9355 104.609L79.821 107.113L88.6902 107.798L88.6518 104.764C87.6815 104.828 86.3047 104.727 84.3034 104.678C82.4408 104.634 81.0197 104.657 79.9355 104.609ZM93.8272 104.721L93.5844 108.556L102.703 107.473L102.277 104.844C101.527 104.995 100.452 105.158 99.0114 105.275C98.8342 105.286 98.6444 105.298 98.4545 105.286C95.6575 105.188 94.8759 105.016 93.8272 104.721Z" fill="#FFC3A8"/>
<path d="M101.34 41.5995C101.486 42.2517 101.616 42.7914 101.706 43.0653C101.906 43.0653 102.107 43.0653 102.309 43.0653C102.611 43.0653 103.705 42.9504 104.726 42.8881C104.726 42.8881 104.802 42.8881 104.865 42.8754C105.195 42.8248 105.511 42.7742 105.827 42.6096C105.827 42.6096 105.929 42.5717 106.017 42.4957C107.802 41.0275 108.194 38.9263 107.435 37.7492C106.891 36.9264 105.827 36.61 105.675 36.5594C105.473 36.4961 105.27 36.4707 105.093 36.4581C105.024 36.2506 104.955 36.0326 104.886 35.8137C104.868 35.0748 104.703 34.0929 104.055 33.2811C103.79 32.9393 103.435 32.6862 103.055 32.4963C102.043 31.99 102.043 31.2305 100.043 31.1799C99.6379 31.1799 98.2398 31.0018 98.1892 31.0018C96.1272 30.8713 93.9132 32.4538 93.0916 33.7241C93.7007 33.6312 94.1951 33.6312 94.5749 33.7241C97.0304 34.3316 97.7519 38.5846 98.8784 38.4073C98.8891 38.406 98.9005 38.4041 98.9126 38.4015L98.9037 38.3947L99.448 36.9011C99.5746 36.5973 99.7898 36.3568 100.043 36.1543C100.245 36.0277 100.461 35.9391 100.688 35.9138C101.296 35.8632 101.954 36.3315 102.207 36.9517C102.249 37.058 102.279 37.1664 102.3 37.2757C102.37 37.8131 102.232 38.3568 101.891 38.7491C101.872 38.7703 101.852 38.7912 101.832 38.8116L101.83 38.8154C101.564 39.0889 101.22 39.277 100.843 39.3514C100.999 40.1913 101.247 41.2874 101.34 41.5995ZM94.4483 37.3061C94.7014 37.3694 95.1191 37.4327 95.4609 37.3441C96.0558 37.2175 95.4989 36.8631 94.9546 36.8378C94.7014 36.8252 94.4989 36.9264 94.3723 37.0277C94.2837 37.1163 94.3217 37.2808 94.4483 37.3061ZM92.3105 37.3065C92.5704 37.3727 92.9712 37.452 93.3314 37.3569C93.9415 37.2146 93.3766 36.8574 92.8415 36.8407C92.5608 36.8272 92.3794 36.932 92.2484 37.0324C92.1415 37.118 92.1811 37.2797 92.3105 37.3065Z" fill="#313130"/>
<path opacity="0.2" d="M91.0538 61.3646C90.9918 61.3284 90.9298 61.2921 90.8677 61.2557L90.6553 62.7533L80.6066 64.6379C80.3094 64.5866 80.0222 64.5584 79.7451 64.5502C78.7935 64.5106 77.974 64.6953 77.4189 64.8405C76.0311 64.7745 74.6566 64.6953 73.282 64.6294C72.1585 64.3655 69.6473 63.9697 69.568 65.5529C69.568 65.5529 70.6518 65.8431 72.1189 66.2257C72.4621 66.3152 72.8266 66.41 73.2033 66.508C75.1489 67.1797 77.6945 68.5649 79.1604 69.0347L94.1768 68.5107C93.95 68.2324 93.7809 67.9168 93.6802 67.5612C93.6167 67.3795 93.4906 66.4832 93.3018 64.8723L93.1316 62.7455L93.1198 62.6973L93.1277 62.6956L93.1203 62.6035L91.0538 61.3646Z" fill="#8C2A00"/>
<path d="M63.8646 60.9167C63.7497 61.3053 63.9637 61.7054 64.3524 61.8203L81.7451 67.1645C82.1337 67.2794 82.5338 67.0653 82.6487 66.6767C82.7636 66.2881 82.5496 65.888 82.1609 65.7731L64.7682 60.429C64.3923 60.3145 63.9795 60.5281 63.8646 60.9167Z" fill="#474961"/>
<path d="M98.2003 43.0132L99.1924 42.5695L98.3867 44.0481L98.2003 43.0132Z" fill="#482D1F"/>
<path d="M93.2326 38.8503C93.3465 38.6985 93.3085 38.3567 93.2706 38.1289C93.2579 37.9643 93.106 37.8631 92.9668 37.8631C92.8782 37.8757 92.7643 37.9263 92.7389 38.1036C92.6503 38.5213 93.0807 39.1035 93.2326 38.8503ZM95.3211 38.863C95.4476 38.7111 95.397 38.3567 95.359 38.1415C95.3464 37.977 95.1945 37.8757 95.0553 37.8757C94.9667 37.8884 94.8527 37.939 94.8274 38.1162C94.7388 38.5339 95.1565 39.1162 95.3211 38.863Z" fill="#482D1F"/>
<path d="M93.4533 38.64L93.3403 37.903C93.3297 37.8339 93.3771 37.7692 93.4462 37.7586C93.5153 37.748 93.5799 37.7955 93.5905 37.8646L93.7048 38.6095L93.7062 38.6253L93.7421 39.9662C93.7472 39.9812 93.7593 39.9909 93.7758 39.9922C93.9288 39.9728 94.126 39.9544 94.3677 39.937C94.4375 39.9319 94.4981 39.9844 94.5031 40.0541C94.5081 40.1238 94.4557 40.1844 94.3859 40.1895C94.1437 40.2069 93.948 40.2253 93.7991 40.2445L93.7851 40.2455C93.6373 40.2481 93.5172 40.145 93.4915 40.0056L93.4894 39.986L93.4533 38.64Z" fill="#482D1F"/>
<path d="M94.4732 41.2173C94.5618 41.2046 94.7896 41.154 94.8402 41.0148C94.8402 40.9894 94.8656 40.9515 94.8529 40.9262C94.8149 40.8629 94.4225 40.8629 94.4225 40.8629C93.9036 40.8755 93.777 40.8502 93.739 40.9135C93.7264 40.9515 93.7264 41.0021 93.815 41.116C93.9289 41.3312 94.3466 41.2553 94.4732 41.2173Z" fill="#482D1F"/>
<path d="M102.141 58.5152L101.448 52.1166C101.437 52.0123 101.512 51.9187 101.617 51.9074C101.721 51.8961 101.815 51.9714 101.826 52.0757L102.519 58.4743C102.53 58.5786 102.455 58.6723 102.351 58.6835C102.246 58.6948 102.153 58.6195 102.141 58.5152Z" fill="#482D1F"/>
<path d="M109.555 68.1761H61.3674C61.1346 68.1761 60.9458 68.5752 60.9458 69.0675C60.9458 69.5599 61.1346 69.959 61.3674 69.959H109.555C109.788 69.959 109.977 69.5599 109.977 69.0675C109.977 68.5752 109.788 68.1761 109.555 68.1761Z" fill="#D8DEED"/>
<path d="M71.9398 0.00292969H4.07199C2.00242 0.00292969 0.324707 1.68065 0.324707 3.75022V52.8397C0.324707 54.9092 2.00242 56.5869 4.07199 56.5869H71.9398C74.0093 56.5869 75.687 54.9092 75.687 52.8397V3.75022C75.687 1.68065 74.0093 0.00292969 71.9398 0.00292969Z" fill="#F2F6FB"/>
<path d="M11.6565 52.1845C7.88936 52.1845 4.83545 49.0998 4.83545 45.2945C4.83545 41.4892 7.88936 38.4044 11.6565 38.4044C15.4237 38.4044 18.4776 41.4892 18.4776 45.2945C18.4776 49.0998 15.4237 52.1845 11.6565 52.1845ZM11.6714 45.2656C12.1748 45.2656 12.5828 44.8587 12.5828 44.3568C12.5828 43.8549 12.1748 43.4481 11.6714 43.4481C11.1681 43.4481 10.7601 43.8549 10.7601 44.3568C10.7601 44.8587 11.1681 45.2656 11.6714 45.2656ZM11.6714 45.72C10.7591 45.72 10.0196 46.4574 10.0196 47.3671H13.3233C13.3233 46.4574 12.5838 45.72 11.6714 45.72Z" fill="#D8DEED"/>
<path d="M4.83481 12.3907C4.83481 11.976 5.16944 11.6397 5.58494 11.6397H53.409C53.8233 11.6397 54.1592 11.9765 54.1592 12.3907V32.8906C54.1592 33.3054 53.8245 33.6416 53.409 33.6416H5.58494C5.17065 33.6416 4.83481 33.3048 4.83481 32.8906V12.3907ZM23.3694 44.0111H61.014C61.769 44.0111 62.3811 44.6232 62.3811 45.3782C62.3811 46.1332 61.769 46.7453 61.014 46.7453H23.3694C22.6143 46.7453 22.0023 46.1332 22.0023 45.3782C22.0023 44.6232 22.6143 44.0111 23.3694 44.0111ZM23.3694 48.4541H67.8578C68.6129 48.4541 69.2249 49.0662 69.2249 49.8212C69.2249 50.5762 68.6129 51.1883 67.8578 51.1883H23.3694C22.6143 51.1883 22.0023 50.5762 22.0023 49.8212C22.0023 49.0662 22.6143 48.4541 23.3694 48.4541ZM23.3694 39.5681H51.4326C52.1876 39.5681 52.7997 40.1802 52.7997 40.9352C52.7997 41.6902 52.1876 42.3023 51.4326 42.3023H23.3694C22.6143 42.3023 22.0023 41.6902 22.0023 40.9352C22.0023 40.1802 22.6143 39.5681 23.3694 39.5681ZM0.324707 3.20305C0.324707 1.43567 1.75733 0.00292969 3.52396 0.00292969H72.6333C74.4002 0.00292969 75.8325 1.43529 75.8325 3.20305V6.40318H0.324707V3.20305Z" fill="#E1E5F0"/>
<path d="M59.9909 28.8287H68.8792C70.2083 28.8287 71.2857 29.9061 71.2857 31.2352C71.2857 32.5642 70.2083 33.6416 68.8792 33.6416H59.9909C58.6619 33.6416 57.5845 32.5642 57.5845 31.2352C57.5845 29.9061 58.6619 28.8287 59.9909 28.8287Z" fill="#A339FF"/>
</svg>
