<svg width="136" height="116" viewBox="0 0 136 116" fill="none" xmlns="http://www.w3.org/2000/svg">
<g clip-path="url(#clip0_234_1621)">
<g clip-path="url(#clip1_234_1621)">
<g clip-path="url(#clip2_234_1621)">
<path d="M44.9556 113.999C44.6542 113.999 44.4098 114.243 44.4098 114.545C44.4098 114.846 44.6542 115.09 44.9556 115.09H64.7252C65.0266 115.09 65.271 114.846 65.271 114.545C65.271 114.243 65.0266 113.999 64.7252 113.999H44.9556ZM5.47699 115.09H17.9088C18.1999 115.09 18.4546 114.881 18.4546 114.629V114.461C18.4546 114.209 18.212 113.999 17.9088 113.999H5.47699C5.18591 113.999 4.93121 114.209 4.93121 114.461V114.629C4.93121 114.881 5.17378 115.09 5.47699 115.09Z" fill="#FFCB3D"/>
<path d="M44.8302 114.013C44.8706 114.004 44.9127 113.999 44.9559 113.999H64.6396C64.6527 113.932 64.6593 113.849 64.6574 113.74C64.6438 113.656 64.6421 113.559 64.6161 113.462C64.4605 112.883 64.2718 112.498 63.7199 112.156C63.1681 111.813 62.6048 111.508 62.0178 111.239C59.853 110.222 59.1132 110.234 57.6898 109.301C57.1007 108.911 56.5591 108.459 56.0532 107.971C55.716 107.645 55.0274 107.116 53.9876 106.384L43.4398 106.556L44.8302 114.013ZM5.41107 114.003C5.43287 114 5.45499 113.999 5.47731 113.999H17.8674L16.8871 107.812L8.20298 106.635L5.41107 114.003Z" fill="#444444"/>
<path d="M30.7421 67.1446C33.575 75.903 35.7268 82.5643 38.7038 91.7664L40.528 99.1982C40.6609 99.9366 41.422 100.433 42.2073 100.3L51.4371 98.7383C52.2224 98.6051 52.7539 97.891 52.609 97.1527C52.2586 95.3976 51.9566 93.8483 51.7029 92.5411C51.268 90.3382 51.0626 89.2731 50.821 87.9174C50.676 87.0944 50.5552 86.4044 50.4827 85.9445C47.68 70.8752 45.0946 59.3039 43.6932 53.0099C43.1013 50.3107 41.9657 45.215 38.0635 40.0466C37.8098 39.7198 37.6045 39.4657 37.4837 39.3083C37.3031 39.1236 37.1123 38.9624 36.9154 38.8219C36.9199 38.7785 36.9243 38.7352 36.9288 38.6917C35.9463 37.9883 35.1194 37.152 31.1898 36.9216C31.0927 36.9216 30.9836 36.9095 30.8865 36.9095C27.0782 36.776 23.5487 38.7773 21.8265 41.9671L18.8792 47.4128C18.4547 48.1891 18.1515 49.0138 17.9817 49.8628L7.88067 97.8479C7.74862 98.4752 8.12759 99.097 8.7457 99.2671L18.2485 101.882C19.0248 102.089 19.8374 101.664 20.0557 100.948L20.7956 98.5713C23.0515 92.2037 25.2589 85.5451 27.3814 78.6318C28.5719 74.7423 29.6903 70.9114 30.7421 67.1446Z" fill="#A339FF"/>
<path d="M21.0283 49.3285C21.0283 49.3285 23.8659 57.4874 21.9933 57.6678C21.9933 57.6678 20.9576 56.9627 20.3588 55.0015L19.8699 51.4054L21.0283 49.3285Z" fill="#482D1F"/>
<path opacity="0.2" d="M36.3472 38.4377C36.3761 38.4587 36.405 38.4796 36.4341 38.5004C36.0461 42.2948 35.4983 45.7625 35.0982 49.5569C35.0917 49.5796 35.0853 49.6022 35.0788 49.6248C35.0774 49.6691 35.0747 49.7095 35.0708 49.7459C34.958 50.7788 33.5053 56.6085 30.7125 67.235C33.9744 77.3176 35.4664 81.6562 38.7282 91.7387L40.5525 99.1705C40.6853 99.9088 41.4464 100.405 42.2317 100.272L51.4615 98.7105C52.2468 98.5774 52.7784 97.8633 52.6334 97.1249C52.283 95.3699 51.981 93.8206 51.7273 92.5134C51.2924 90.3104 51.087 89.2453 50.8454 87.8897C50.7004 87.0666 50.5796 86.3767 50.5071 85.9167C47.7044 70.8474 45.119 59.2761 43.7177 52.9821C43.1257 50.283 41.9901 45.1872 38.088 40.0189C37.8343 39.6921 37.6289 39.4379 37.5081 39.2806C37.1506 38.9147 36.7526 38.6413 36.3472 38.4377Z" fill="#8C2A00"/>
<path d="M34.4542 19.3343C34.0243 19.2103 33.5744 19.1162 33.1062 19.0556L32.4201 18.9714C31.5693 18.8618 30.7745 18.9044 30.0419 19.0676C29.9551 19.0559 29.8654 19.0448 29.7731 19.0348C28.5238 18.9017 26.8016 18.9501 25.1885 19.8093C24.9701 19.9303 24.4789 20.3345 24.0337 20.7299C22.7061 21.909 22.9932 21.6851 21.3679 24.4563C20.9677 25.134 20.4655 25.8899 20.0895 26.7128C20.0868 26.6909 20.0833 26.7345 20.0895 26.7128C20.0299 26.8773 19.9974 27.0547 19.9974 27.2396C19.9974 28.0951 20.6899 28.8561 21.5473 28.8561C22.2772 28.8561 22.9581 28.3811 23.124 27.7039C23.0902 27.831 23.0781 27.8885 23.0781 28.0262C23.0781 28.6969 23.4359 29.3077 24.0337 29.5231L23.6369 33.2798C23.6327 33.4134 23.63 33.535 23.6138 33.6672C23.5521 34.2692 23.5513 35.1713 23.9893 35.8835C24.5995 36.885 25.5086 38.3378 29.981 38.9357C34.7903 39.575 36.1082 38.3957 36.9696 37.5504C37.5654 36.9774 37.7922 36.2249 37.881 35.6018C37.8972 35.4697 37.924 35.3511 37.9522 35.2204L39.1497 29.7629C39.2876 30.4774 39.9177 31.0172 40.6741 31.0172C41.5315 31.0172 42.2266 30.3237 42.2266 29.4682C42.2266 29.0919 42.0921 28.7469 41.8684 28.4785C41.7695 27.8731 41.6706 27.3236 41.5716 26.8301C40.8803 23.5143 40.0919 22.4372 40.0919 22.4372C39.6917 21.8806 39.3036 21.5175 39.1216 21.3481C37.7875 20.0895 36.138 19.5934 34.9009 19.3998C34.7449 19.3727 34.5956 19.3513 34.4542 19.3343Z" fill="#FFCB3D"/>
<path d="M53.9876 106.385L51.353 98.7538L42.1152 100.323L43.5248 107.002L53.9876 106.385ZM17.4236 101.657L9.74723 99.5278L8.20301 106.637L16.8871 107.813L17.4236 101.657ZM34.8375 17.3285C34.8703 17.3391 34.9037 17.35 34.9377 17.3609C35.9808 17.6997 35.9201 17.6755 35.9929 17.6997C36.7691 17.8692 37.4241 17.8086 37.5454 17.7844C38.552 17.6513 39.6315 15.7272 39.9953 13.0286C40.0317 12.8107 40.0317 12.5929 40.0439 12.3751L40.0075 10.2089C40.0075 9.72484 39.8741 9.25289 39.6315 8.84143C39.6072 8.79303 39.583 8.75672 39.5587 8.72042C39.4738 8.5994 39.3889 8.47839 39.304 8.38158C38.9765 7.99433 38.5884 7.716 38.1882 7.52237C37.2422 7.13512 36.1748 7.09882 35.5805 7.18353C35.4956 7.19563 35.2288 7.23194 34.8528 7.28034C34.5011 7.36505 34.1615 7.41346 33.8098 7.42556C33.6157 7.43766 33.4702 7.60708 33.4702 7.80071C33.5429 9.6724 33.5834 10.7051 33.5914 10.8987C33.6036 11.1891 32.8637 10.5598 32.5363 10.5477C31.9541 10.5356 31.2264 11.4796 31.0444 12.0846C30.8504 12.7139 31.0808 13.3553 31.4689 13.7546C31.7479 14.033 32.0754 14.154 32.2937 14.2145C32.3907 14.2145 32.4999 14.3113 32.5363 14.4323C32.5363 14.4323 32.5363 14.4444 32.5484 14.4565L31.7964 15.8966C31.7843 15.9329 31.7722 15.945 31.7722 15.945C31.7722 15.945 31.7834 15.9511 31.8038 15.9621L31.3719 15.8724L31.0202 18.9492C31.0202 18.9492 31.8229 19.1745 32.7402 19.2699C33.3518 19.3335 33.967 19.3694 34.5859 19.3775L34.8375 17.3285ZM42.2253 29.5421C42.1875 30.364 41.5077 31.0188 40.6745 31.0188C39.9181 31.0188 39.2881 30.4791 39.1501 29.7645L37.9527 35.222C37.9244 35.3527 37.8976 35.4713 37.8814 35.6034C37.8199 36.0352 37.6922 36.5291 37.4213 36.9823C39.2281 39.8752 41.9012 42.5262 45.2031 41.0339C49.3745 39.1486 54.0059 35.7128 59.0974 30.7264C59.3476 30.5902 59.6415 30.4128 59.9416 30.1871C60.7161 29.6063 61.0681 29.0375 62.2227 26.8713C63.3633 24.7173 63.9666 21.5149 63.7836 20.7162C63.7413 20.5951 63.3309 20.0997 62.8521 20.5596C62.3311 21.0557 60.6598 23.7975 59.9135 25.0682C59.904 25.0843 59.8937 25.1001 59.8828 25.1158C60.071 24.313 59.9996 23.5601 59.2314 23.2916C59.2314 23.2916 58.384 24.8098 57.4305 26.5007C57.2506 26.6074 57.0761 26.724 56.913 26.8537C55.0824 27.7539 45.5995 32.4193 44.3621 33.0748L42.2253 29.5421ZM28.1108 30.3063C27.9726 30.3465 27.8265 30.3681 27.6753 30.3681C26.8179 30.3681 26.1228 29.6746 26.1228 28.8191C26.1228 28.7023 26.1358 28.5885 26.1603 28.479L26.1562 28.4779C25.9805 29.1411 25.3751 29.6299 24.6552 29.6299C23.7978 29.6299 23.1028 28.9364 23.1028 28.0809C23.1028 27.9432 23.1208 27.8096 23.1546 27.6825L23.0827 27.6635C22.9167 28.3407 22.3045 28.8433 21.5746 28.8433C21.3225 28.8433 21.0845 28.7834 20.874 28.677C17.3039 39.77 15.2855 46.9644 14.8188 50.2601C14.792 50.3694 14.7722 50.4872 14.7592 50.6134C14.5512 52.6393 15.0103 55.7942 16.1367 60.078C16.1462 60.1034 19.7097 62.1693 22.4122 60.8228L20.7022 51.0574L28.1108 30.3063Z" fill="#DB9E75"/>
<path opacity="0.176986" d="M34.5851 19.3759C37.4805 20.2631 39.437 22.5091 39.8569 24.909C39.9728 25.5573 39.9263 26.2343 39.7744 26.8741L39.1553 29.6958C39.2422 30.4692 39.8998 31.0703 40.698 31.0703C41.5554 31.0703 42.2505 30.3768 42.2505 29.5213C42.2505 29.1401 42.1125 28.7857 41.8836 28.51C41.7636 27.719 41.7304 27.5561 41.5955 26.8832C40.9042 23.5674 40.1159 22.4903 40.1159 22.4903C39.7156 21.9337 39.3112 21.5411 39.1292 21.3717C37.7951 20.1131 36.2386 19.6173 35.0015 19.4237C34.8623 19.3995 34.7222 19.3847 34.5851 19.3759Z" fill="#444444"/>
<path opacity="0.2" d="M42.2253 29.5405C42.1875 30.3624 41.5077 31.0172 40.6745 31.0172C39.9181 31.0172 39.2881 30.4774 39.1501 29.7629L37.9527 35.2204C37.9244 35.3511 37.8976 35.4697 37.8814 35.6018C37.8199 36.0336 37.6922 36.5275 37.4213 36.9807C39.2281 39.8736 41.9012 42.5246 45.2031 41.0323C49.3745 39.147 54.006 35.7112 59.0974 30.7248C59.3476 30.5886 59.6415 30.4112 59.9416 30.1855C60.7161 29.6046 61.0681 29.0359 62.2227 26.8697C63.3633 24.7156 63.9666 21.5132 63.7836 20.7145C63.7413 20.5935 63.3309 20.0981 62.8521 20.558C62.3311 21.0541 60.6598 23.7959 59.9135 25.0666C59.904 25.0827 59.8937 25.0985 59.8828 25.1142C60.071 24.3114 59.9996 23.5584 59.2314 23.2899C59.2314 23.2899 58.384 24.8082 57.4305 26.499C57.2506 26.6058 57.0761 26.7223 56.913 26.8521C55.0824 27.7523 45.5995 32.4177 44.3621 33.0732L42.2253 29.5405Z" fill="#8C2A00"/>
<path d="M63.7418 18.0436C63.4022 17.862 63.0383 17.8741 62.9292 18.0799L57.7381 27.3859C57.629 27.5916 57.7988 27.9063 58.1384 28.0999C58.478 28.2814 58.8418 28.2693 58.951 28.0636L64.142 18.7576C64.2633 18.5397 64.0814 18.2251 63.7418 18.0436Z" fill="#474961"/>
<path d="M32.6947 14.1344L32.633 14.1403C32.4753 14.104 31.9781 14.0314 31.5899 13.632C31.2018 13.2448 30.9714 12.6034 31.1776 11.9741C31.3595 11.3691 31.9417 10.8729 32.5238 10.885C32.8513 10.8971 33.1182 11.0544 33.1545 11.0786C33.579 11.357 33.7731 11.7442 33.7731 11.7442L33.8936 12.0159C33.9359 11.9492 33.9767 11.8866 34.0157 11.8289C34.8647 10.885 35.7137 9.95318 36.5748 9.00926C37.0599 9.13028 37.8604 9.23919 38.7701 9.02136C39.0612 8.94875 39.3159 8.80354 39.5342 8.68252C39.4493 8.56151 39.3644 8.44049 39.2795 8.34368C38.952 7.95643 38.5639 7.6781 38.1636 7.48447C37.2176 7.09722 36.1503 7.06092 35.556 7.14563C35.4711 7.15773 35.2043 7.19404 34.8283 7.24244C34.7191 7.25454 34.61 7.26665 34.4766 7.27875C34.1612 7.30295 33.9186 7.32715 33.7731 7.33925C31.9295 7.46027 31.214 7.25454 30.2922 7.76281C30.1224 7.85962 29.7343 8.08955 29.4068 8.5131C28.8975 9.17759 28.7432 9.92976 28.7207 10.5544L28.7155 10.5462C28.7155 10.5462 27.8058 13.6925 29.0187 15.2778C29.3808 15.7512 29.6219 16.1296 29.7818 16.4276C29.505 16.6151 29.1864 16.8426 28.8489 17.1052C27.9756 17.807 28.6791 19.1987 29.7585 18.9083L31.0709 18.5521L31.2309 17.1266C32.6665 16.2935 32.666 14.5772 32.6494 14.2189C32.6644 14.1908 32.6795 14.1627 32.6947 14.1344Z" fill="#482D1F"/>
<path d="M34.7089 18.4509L33.4215 16.97L34.8423 17.3274L34.7089 18.4509Z" fill="#482D1F"/>
<path d="M39.2061 12.8333C39.1818 13.039 39.1333 13.4021 39.2303 13.5594C39.388 13.8135 39.8125 13.2327 39.7397 12.8212C39.7033 12.6518 39.6184 12.5792 39.5214 12.5792C39.3637 12.5671 39.2303 12.676 39.2061 12.8333ZM36.5984 12.6034C36.5742 12.8091 36.5257 13.1722 36.6227 13.3295C36.7804 13.5836 37.2049 13.0027 37.1321 12.5913C37.0957 12.4219 37.0108 12.3492 36.9138 12.3492C36.7561 12.3371 36.6227 12.4461 36.5984 12.6034ZM38.6113 12.8587C38.6053 12.792 38.5463 12.7428 38.4796 12.7488C38.4129 12.7548 38.3637 12.8138 38.3697 12.8805L38.4784 14.0798C38.4784 14.0951 38.4618 14.1158 38.4569 14.1162C38.3748 14.1225 38.3244 14.1225 38.1173 14.1185C38.0193 14.1166 37.9518 14.1158 37.8719 14.1158C37.8049 14.1158 37.7506 14.1701 37.7506 14.2371C37.7506 14.3041 37.8049 14.3584 37.8719 14.3584C37.95 14.3584 38.0161 14.3592 38.1126 14.361C38.3287 14.3652 38.3825 14.3652 38.4662 14.3584C38.609 14.3584 38.7209 14.2187 38.7204 14.0689L38.6113 12.8587ZM37.69 15.0479C37.8113 15.0963 38.1994 15.2415 38.3449 15.0963C38.4056 15.0358 38.5147 14.8301 38.5147 14.8301C38.5147 14.8301 38.1873 14.8301 37.7992 14.7695C37.5808 14.7332 37.4232 14.6848 37.3747 14.7453C37.3625 14.7574 37.3747 14.7938 37.3747 14.818C37.3989 14.939 37.6051 15.0237 37.69 15.0479Z" fill="#482D1F"/>
<path d="M34.816 11.9551L34.0683 11.7599C33.9761 11.7358 33.8836 11.7989 33.8618 11.9008C33.84 12.0028 33.8971 12.1049 33.9894 12.129L34.696 12.3135C34.6709 12.4304 34.6577 12.5517 34.6577 12.676C34.6577 13.6254 35.4288 14.3948 36.3799 14.3948C37.2115 14.3948 37.9056 13.8066 38.0668 13.0241L38.4554 13.0509C38.4934 13.9667 39.2494 14.6974 40.1762 14.6974C41.1273 14.6974 41.8984 13.9279 41.8984 12.9786C41.8984 12.0292 41.1273 11.2597 40.1762 11.2597C39.3244 11.2597 38.6169 11.8769 38.4785 12.6877L38.1021 12.6618C38.0945 11.719 37.3263 10.9572 36.3799 10.9572C35.6867 10.9572 35.0891 11.3659 34.816 11.9551ZM38.8249 12.8391C38.8949 12.1564 39.4731 11.6236 40.1762 11.6236C40.9265 11.6236 41.5346 12.2303 41.5346 12.9786C41.5346 13.7268 40.9265 14.3335 40.1762 14.3335C39.4259 14.3335 38.8178 13.7268 38.8178 12.9786C38.8178 12.9677 38.8179 12.957 38.8182 12.9462C38.8243 12.9299 38.8282 12.9125 38.8295 12.8942C38.8308 12.8752 38.8291 12.8567 38.8249 12.8391ZM36.3799 14.031C35.6296 14.031 35.0215 13.4243 35.0215 12.676C35.0215 11.9278 35.6296 11.3211 36.3799 11.3211C37.1302 11.3211 37.7383 11.9278 37.7383 12.676C37.7383 13.4243 37.1302 14.031 36.3799 14.031Z" fill="#482D1F"/>
<path d="M19.9744 56.8066C19.962 56.7068 19.8712 56.636 19.7715 56.6484C19.6718 56.6607 19.6009 56.7516 19.6133 56.8513C19.6907 57.4763 19.7663 57.96 19.9466 59.0355C20.1261 60.106 20.2012 60.5861 20.2777 61.2043C20.2901 61.304 20.3809 61.3748 20.4806 61.3625C20.5804 61.3501 20.6512 61.2593 20.6388 61.1596C20.5615 60.5346 20.4858 60.0509 20.3055 58.9753C20.126 57.9049 20.0509 57.4247 19.9744 56.8066ZM17.5575 56.1035C17.539 56.0047 17.4439 55.9397 17.3452 55.9582C17.2464 55.9767 17.1814 56.0718 17.1999 56.1705C17.3264 56.8456 17.4126 57.3711 17.5954 58.543C17.7787 59.7185 17.8653 60.2465 17.9927 60.9264C18.0112 61.0252 18.1063 61.0902 18.2051 61.0717C18.3038 61.0532 18.3689 60.9582 18.3504 60.8594C18.2238 60.1843 18.1376 59.6588 17.9549 58.4869C17.7715 57.3114 17.6849 56.7834 17.5575 56.1035ZM29.4185 28.895C29.4211 28.8921 29.4236 28.8892 29.4261 28.8862C29.8846 28.3255 30.3107 27.6408 30.6527 26.8593C30.6929 26.7673 30.651 26.66 30.5589 26.6197C30.4669 26.5794 30.3596 26.6214 30.3193 26.7135C29.991 27.4637 29.5824 28.1201 29.1444 28.6559C29.1147 28.6923 29.1014 28.7367 29.1036 28.7802C29.0733 28.8127 29.0548 28.8563 29.0548 28.9041C29.0548 28.9429 29.0508 28.9826 29.0424 29.0298C29.0388 29.0506 29.0343 29.0728 29.0283 29.1003C29.0249 29.1159 29.0125 29.1711 29.0121 29.1733C28.8974 29.6092 28.5635 29.9569 28.1363 30.099C28.0409 30.1307 27.9893 30.2337 28.0211 30.329C28.0528 30.4244 28.1558 30.476 28.2511 30.4442C28.7937 30.2638 29.218 29.8218 29.3658 29.2583C29.3652 29.2609 29.3798 29.196 29.3838 29.1777C29.3907 29.1459 29.3961 29.1193 29.4007 29.0932C29.4125 29.0264 29.4187 28.9661 29.4187 28.9041C29.4187 28.9011 29.4186 28.898 29.4185 28.895Z" fill="#482D1F"/>
</g>
</g>
</g>
<g clip-path="url(#clip3_234_1621)">
<path d="M73.1538 19.2745H124.943C126.283 19.2745 127.369 20.3605 127.369 21.7002V28.6135C127.369 29.9532 126.283 31.0392 124.943 31.0392H73.1538C71.8141 31.0392 70.7281 29.9532 70.7281 28.6135V21.7002C70.7281 20.3605 71.8141 19.2745 73.1538 19.2745Z" fill="#D8DEED"/>
<path d="M83.5843 23.5195H76.3072C75.9197 23.5195 75.5749 23.6059 75.2874 23.7643C74.9999 23.9226 74.7697 24.1528 74.6114 24.4403C74.4531 24.7278 74.3666 25.0726 74.3666 25.4601C74.3666 25.8475 74.4531 26.1923 74.6114 26.4798C74.7697 26.7673 74.9999 26.9975 75.2874 27.1558C75.5749 27.3142 75.9197 27.4006 76.3072 27.4006H83.5843C83.9718 27.4006 84.3166 27.3142 84.6041 27.1558C84.8916 26.9975 85.1218 26.7673 85.2801 26.4798C85.4384 26.1923 85.5249 25.8475 85.5249 25.4601C85.5249 25.0726 85.4384 24.7278 85.2801 24.4403C85.1218 24.1528 84.8916 23.9226 84.6041 23.7643C84.3166 23.6059 83.9718 23.5195 83.5843 23.5195Z" fill="#474BFF"/>
<path d="M90.0125 23.5195H122.275C122.543 23.5195 122.76 23.7367 122.76 24.0046V26.9155C122.76 27.1834 122.543 27.4006 122.275 27.4006H90.0125C89.7446 27.4006 89.5274 27.1834 89.5274 26.9155V24.0046C89.5274 23.7367 89.7446 23.5195 90.0125 23.5195Z" fill="white"/>
</g>
<g clip-path="url(#clip4_234_1621)">
<path d="M59.3271 37.7706H111.116C112.456 37.7706 113.542 38.8566 113.542 40.1963V47.1096C113.542 48.4493 112.456 49.5353 111.116 49.5353H59.3271C57.9875 49.5353 56.9014 48.4493 56.9014 47.1096V40.1963C56.9014 38.8566 57.9875 37.7706 59.3271 37.7706Z" fill="#D8DEED"/>
<path d="M69.7577 42.0156H62.4805C62.093 42.0156 61.7482 42.1021 61.4608 42.2604C61.1733 42.4187 60.9431 42.6489 60.7847 42.9364C60.6264 43.2239 60.5399 43.5687 60.5399 43.9562C60.5399 44.3436 60.6264 44.6884 60.7847 44.9759C60.9431 45.2634 61.1733 45.4936 61.4608 45.652C61.7482 45.8103 62.093 45.8967 62.4805 45.8967H69.7577C70.1451 45.8967 70.4899 45.8103 70.7774 45.652C71.0649 45.4936 71.2951 45.2634 71.4534 44.9759C71.6118 44.6884 71.6982 44.3436 71.6982 43.9562C71.6982 43.5687 71.6118 43.2239 71.4534 42.9364C71.2951 42.6489 71.0649 42.4187 70.7774 42.2604C70.4899 42.1021 70.1451 42.0156 69.7577 42.0156Z" fill="#474BFF"/>
<path d="M76.1859 42.0156H108.448C108.716 42.0156 108.933 42.2328 108.933 42.5007V45.4116C108.933 45.6795 108.716 45.8967 108.448 45.8967H76.1859C75.9179 45.8967 75.7007 45.6795 75.7007 45.4116V42.5007C75.7007 42.2328 75.9179 42.0156 76.1859 42.0156Z" fill="white"/>
</g>
<g clip-path="url(#clip5_234_1621)">
<path d="M76.186 59.2989H127.975C129.315 59.2989 130.401 60.3849 130.401 61.7246V68.6379C130.401 69.9776 129.315 71.0636 127.975 71.0636H76.186C74.8463 71.0636 73.7603 69.9776 73.7603 68.6379V61.7246C73.7603 60.3849 74.8463 59.2989 76.186 59.2989Z" fill="#D8DEED"/>
<path d="M86.6166 63.5439H79.3394C78.9519 63.5439 78.6071 63.6303 78.3196 63.7887C78.0321 63.947 77.8019 64.1772 77.6436 64.4647C77.4853 64.7522 77.3988 65.097 77.3988 65.4844C77.3988 65.8719 77.4853 66.2167 77.6436 66.5042C77.8019 66.7917 78.0321 67.0219 78.3196 67.1802C78.6071 67.3386 78.9519 67.425 79.3394 67.425H86.6166C87.004 67.425 87.3488 67.3386 87.6363 67.1802C87.9238 67.0219 88.154 66.7917 88.3123 66.5042C88.4707 66.2167 88.5571 65.8719 88.5571 65.4844C88.5571 65.097 88.4707 64.7522 88.3123 64.4647C88.154 64.1772 87.9238 63.947 87.6363 63.7887C87.3488 63.6303 87.004 63.5439 86.6166 63.5439Z" fill="#474BFF"/>
<path d="M93.0448 63.5439H125.307C125.575 63.5439 125.792 63.7611 125.792 64.029V66.9399C125.792 67.2078 125.575 67.425 125.307 67.425H93.0448C92.7768 67.425 92.5596 67.2078 92.5596 66.9399V64.029C92.5596 63.7611 92.7768 63.5439 93.0448 63.5439Z" fill="white"/>
</g>
<defs>
<clipPath id="clip0_234_1621">
<rect width="66.586" height="114.858" fill="white" transform="matrix(-1 0 0 1 67.4541 0.232574)"/>
</clipPath>
<clipPath id="clip1_234_1621">
<rect width="123.227" height="114.858" fill="white" transform="matrix(-1 0 0 1 96.6841 0.232574)"/>
</clipPath>
<clipPath id="clip2_234_1621">
<rect width="60.4004" height="108.066" fill="white" transform="matrix(-1 0 0 1 65.271 7.02459)"/>
</clipPath>
<clipPath id="clip3_234_1621">
<rect width="64.6454" height="13.3415" fill="white" transform="matrix(-1 0 0 1 132.099 17.6978)"/>
</clipPath>
<clipPath id="clip4_234_1621">
<rect width="64.6454" height="13.8266" fill="white" transform="matrix(-1 0 0 1 118.272 35.7694)"/>
</clipPath>
<clipPath id="clip5_234_1621">
<rect width="64.6454" height="14.7969" fill="white" transform="matrix(-1 0 0 1 135.131 56.2667)"/>
</clipPath>
</defs>
</svg>
