<svg width="257" height="177" viewBox="0 0 257 177" fill="none" xmlns="http://www.w3.org/2000/svg">
<rect width="257" height="177" rx="20" fill="#FEF2D3"/>
<g clip-path="url(#clip0_87_851)">
<path d="M162.607 11H107.75C106.45 11 105.396 12.0515 105.396 13.3485V54.3295C105.396 55.6265 106.45 56.678 107.75 56.678H162.607C163.907 56.678 164.962 55.6265 164.962 54.3295V13.3485C164.962 12.0515 163.907 11 162.607 11Z" fill="#F2F6FB"/>
<path d="M105.396 13.349C105.396 12.0517 106.45 11 107.749 11H162.726C164.026 11 165.079 12.0518 165.079 13.349V16.1667H105.396V13.349Z" fill="#E1E5F0"/>
<path d="M108.339 19.6538H110.034C110.164 19.6538 110.27 19.759 110.27 19.8887V20.5007C110.27 20.6304 110.164 20.7355 110.034 20.7355H108.339C108.209 20.7355 108.104 20.6304 108.104 20.5007V19.8887C108.104 19.759 108.209 19.6538 108.339 19.6538ZM154.367 19.6538H162.019C162.149 19.6538 162.254 19.759 162.254 19.8887V20.5007C162.254 20.6304 162.149 20.7355 162.019 20.7355H154.367C154.237 20.7355 154.132 20.6304 154.132 20.5007V19.8887C154.132 19.759 154.237 19.6538 154.367 19.6538ZM139.747 19.6538H147.398C147.528 19.6538 147.634 19.759 147.634 19.8887V20.5007C147.634 20.6304 147.528 20.7355 147.398 20.7355H139.747C139.616 20.7355 139.511 20.6304 139.511 20.5007V19.8887C139.511 19.759 139.616 19.6538 139.747 19.6538ZM148.952 19.6538H152.813C152.943 19.6538 153.049 19.759 153.049 19.8887V20.5007C153.049 20.6304 152.943 20.7355 152.813 20.7355H148.952C148.822 20.7355 148.717 20.6304 148.717 20.5007V19.8887C148.717 19.759 148.822 19.6538 148.952 19.6538Z" fill="#D8DEED"/>
<path d="M111.046 27.4963H126.82C126.95 27.4963 127.056 27.6015 127.056 27.7312V29.4249C127.056 29.5546 126.95 29.6598 126.82 29.6598H111.046C110.916 29.6598 110.811 29.5546 110.811 29.4249V27.7312C110.811 27.6015 110.916 27.4963 111.046 27.4963ZM111.046 31.0119H124.113C124.243 31.0119 124.348 31.1171 124.348 31.2468V32.9405C124.348 33.0702 124.243 33.1754 124.113 33.1754H111.046C110.916 33.1754 110.811 33.0702 110.811 32.9405V31.2468C110.811 31.1171 110.916 31.0119 111.046 31.0119ZM111.046 38.0432H118.698C118.828 38.0432 118.933 38.1483 118.933 38.278V39.9718C118.933 40.1015 118.828 40.2066 118.698 40.2066H111.046C110.916 40.2066 110.811 40.1015 110.811 39.9718V38.278C110.811 38.1483 110.916 38.0432 111.046 38.0432ZM111.046 34.5275H126.82C126.95 34.5275 127.056 34.6327 127.056 34.7624V36.4562C127.056 36.5859 126.95 36.691 126.82 36.691H111.046C110.916 36.691 110.811 36.5859 110.811 36.4562V34.7624C110.811 34.6327 110.916 34.5275 111.046 34.5275Z" fill="#E1E5F0"/>
<path d="M127.671 44.8039H142.145C142.903 44.8039 143.193 44.8856 143.481 45.0392C143.769 45.1927 143.995 45.4179 144.149 45.705C144.303 45.992 144.384 46.2815 144.384 47.0378V47.9786C144.384 48.7349 144.303 49.0244 144.149 49.3114C143.995 49.5985 143.769 49.8238 143.481 49.9773C143.193 50.1308 142.903 50.2125 142.145 50.2125H127.671C126.913 50.2125 126.623 50.1308 126.335 49.9773C126.047 49.8238 125.821 49.5985 125.667 49.3114C125.514 49.0244 125.432 48.7349 125.432 47.9786V47.0378C125.432 46.2815 125.514 45.992 125.667 45.705C125.821 45.4179 126.047 45.1927 126.335 45.0392C126.623 44.8856 126.913 44.8039 127.671 44.8039Z" fill="#D8DEED"/>
<path d="M141.418 30.4924H154.838V35.7074C154.838 36.4945 154.346 37.1981 153.606 37.4703C151.78 38.1416 149.954 38.4773 148.128 38.4773C146.302 38.4773 144.476 38.1416 142.65 37.4703C141.91 37.1981 141.418 36.4945 141.418 35.7074V30.4924Z" fill="#D8DEED"/>
<path d="M135.917 30.9843L146.734 34.8779C147.712 35.2298 148.785 35.211 149.75 34.8252L159.376 30.9752C159.738 30.8304 159.914 30.4202 159.769 30.0591C159.695 29.8744 159.546 29.7296 159.359 29.6605L149.649 26.0762C148.745 25.7425 147.754 25.7262 146.839 26.0301L135.934 29.6532C135.563 29.7761 135.363 30.1751 135.487 30.5442C135.555 30.7489 135.714 30.9111 135.917 30.9843Z" fill="#E1E5F0"/>
<path d="M157.369 35.3607C157.679 35.4789 157.899 35.7782 157.899 36.1287C157.899 36.4309 157.736 36.6949 157.492 36.8377C157.514 36.8761 157.53 36.91 157.54 36.9394C158.054 38.3324 158.706 39.8095 157.217 39.885C156.361 39.9283 156.222 38.9348 156.801 36.9043C156.481 36.7917 156.251 36.487 156.251 36.1287C156.251 35.7782 156.471 35.4789 156.781 35.3607V32.1813L148.063 30.1914C147.904 30.1553 147.805 29.9978 147.841 29.8398C147.878 29.6817 148.036 29.5829 148.194 29.6191L157.141 31.6612C157.274 31.6917 157.369 31.8104 157.369 31.9473V35.3607Z" fill="#D8DEED"/>
</g>
<g clip-path="url(#clip1_87_851)">
<path d="M159.508 81.6656H115.103C114.4 81.6656 113.83 82.2356 113.83 82.9388V109.677C113.83 110.38 114.4 110.95 115.103 110.95H159.508C160.211 110.95 160.781 110.38 160.781 109.677V82.9388C160.781 82.2356 160.211 81.6656 159.508 81.6656Z" fill="#F2F6FB"/>
<path d="M160.781 85.9628H113.83V92.1699H160.781V85.9628Z" fill="#D8DEED"/>
<path d="M135.715 102.038H119.799C118.261 102.038 117.014 103.285 117.014 104.823C117.014 106.361 118.261 107.608 119.799 107.608H135.715C137.253 107.608 138.5 106.361 138.5 104.823C138.5 103.285 137.253 102.038 135.715 102.038Z" fill="#E1E5F0"/>
<path d="M154.654 102.038H151.63C150.092 102.038 148.845 103.285 148.845 104.823C148.845 106.361 150.092 107.608 151.63 107.608H154.654C156.192 107.608 157.439 106.361 157.439 104.823C157.439 103.285 156.192 102.038 154.654 102.038Z" fill="#E1E5F0"/>
<path d="M154.654 94.239H119.799C118.261 94.239 117.014 95.4859 117.014 97.0242C117.014 98.5624 118.261 99.8094 119.799 99.8094H154.654C156.192 99.8094 157.439 98.5624 157.439 97.0242C157.439 95.4859 156.192 94.239 154.654 94.239Z" fill="#E1E5F0"/>
</g>
<g clip-path="url(#clip2_87_851)">
<path d="M124.627 59.0654H83.1391C82.1578 59.0654 81.3623 59.864 81.3623 60.8492V91.9777C81.3623 92.9629 82.1578 93.7615 83.1391 93.7615H124.627C125.608 93.7615 126.404 92.9629 126.404 91.9777V60.8492C126.404 59.864 125.608 59.0654 124.627 59.0654Z" fill="#F2F6FB"/>
<path d="M88.3439 86.6285L95.0677 76.3838C95.7059 75.4112 97.1047 75.3109 97.8719 76.1826L100.585 79.2565C101.822 80.6567 104.067 80.442 105.013 78.8351L111.482 67.8347C112.13 66.7327 113.676 66.6569 114.439 67.686L121.301 77.0576C121.461 77.2759 121.767 77.3227 121.984 77.1623C122.202 77.0018 122.248 76.6947 122.088 76.4764L115.225 67.1026C114.045 65.5102 111.644 65.628 110.641 67.336L104.172 78.336C103.563 79.3696 102.114 79.5083 101.316 78.6056L98.6037 75.5325C97.4106 74.1768 95.2437 74.332 94.2516 75.8441L87.5279 86.0886C87.3795 86.3148 87.4418 86.6191 87.6671 86.7682C87.8924 86.9172 88.1955 86.8547 88.3439 86.6285Z" fill="#E1E5F0"/>
<path d="M91.0899 83.0584C91.8994 83.0584 92.5557 82.3995 92.5557 81.5867C92.5557 80.7739 91.8994 80.115 91.0899 80.115C90.2803 80.115 89.624 80.7739 89.624 81.5867C89.624 82.3995 90.2803 83.0584 91.0899 83.0584Z" fill="#3ABF7C"/>
<path d="M107.437 75.1202C108.246 75.1202 108.902 74.4613 108.902 73.6485C108.902 72.8357 108.246 72.1768 107.437 72.1768C106.627 72.1768 105.971 72.8357 105.971 73.6485C105.971 74.4613 106.627 75.1202 107.437 75.1202Z" fill="#FFCB3D"/>
</g>
<g clip-path="url(#clip3_87_851)">
<path d="M219.033 166.178H202.719C202.337 166.178 202.003 165.902 202.003 165.572V165.351C202.003 165.021 202.321 164.745 202.719 164.745H219.033C219.415 164.745 219.749 165.021 219.749 165.351V165.572C219.749 165.902 219.431 166.178 219.033 166.178ZM181.551 164.745C181.947 164.745 182.268 165.066 182.268 165.462C182.268 165.857 181.947 166.178 181.551 166.178H155.609C155.213 166.178 154.893 165.857 154.893 165.462C154.893 165.066 155.213 164.745 155.609 164.745H181.551Z" fill="#DE3190"/>
<path d="M219.12 164.75C219.092 164.747 219.063 164.745 219.033 164.745H202.774L204.061 156.626L215.456 155.083L219.12 164.75ZM181.647 164.752C181.616 164.748 181.584 164.745 181.552 164.745H155.722C155.705 164.658 155.696 164.548 155.699 164.406C155.717 164.295 155.719 164.168 155.753 164.041C155.957 163.281 156.205 162.776 156.929 162.327C157.653 161.878 158.392 161.477 159.162 161.124C162.003 159.789 162.974 159.806 164.842 158.581C165.615 158.069 166.326 157.476 166.989 156.835C167.432 156.408 168.335 155.714 169.7 154.752L181.971 155.027L181.647 164.752Z" fill="#474961"/>
<path d="M198.917 67.2169C200.128 69.5752 203.407 76.8931 206.334 91.7895C206.575 93.0253 206.806 94.2285 207.028 95.3967L207.051 95.3699C211.062 110.484 213.846 121.065 215.404 127.113C217.003 133.325 214.785 133.228 215.998 138.453C216.698 141.466 219.041 143.889 219.02 147.026C219.017 147.522 219.029 148.512 219.056 149.999C219.105 152.653 217.165 154.926 214.536 155.296L203.917 156.788C201.045 157.192 198.389 155.19 197.985 152.318C197.982 152.291 197.978 152.265 197.975 152.238C197.688 149.947 197.543 148.585 197.54 148.152C197.532 147.255 197.521 146.438 197.503 145.693C196.892 143.19 196.254 140.584 195.741 138.483C195.049 137.414 194.234 135.935 193.592 133.544C193.17 131.97 192.21 125.845 190.712 115.17C190.684 115.026 190.629 114.585 190.548 113.846L188.452 106.13C188.364 107.031 188.275 107.943 188.185 108.862C188.37 121.65 188.365 128.833 188.171 130.413C187.558 135.384 185.726 136.753 185.673 138.316C185.62 139.846 185.853 142.076 186.295 145.428C186.352 145.858 186.398 147.227 186.433 149.536C186.433 149.562 186.433 149.589 186.433 149.616C186.433 151.941 184.923 153.913 182.83 154.604C181.513 155.803 179.393 154.891 173.826 154.929C173.826 154.929 172.969 154.936 171.838 154.868L170.458 154.868C169.641 154.868 168.864 154.68 168.17 154.344C167.512 154.16 166.967 153.917 166.664 153.599C166.411 153.325 166.251 153.015 166.251 153.015C166.175 152.845 166.121 152.679 166.082 152.521C165.642 151.859 165.347 151.088 165.245 150.252C165.065 148.776 164.939 147.793 164.866 147.303C164.41 144.199 166.393 141.474 166.666 138.393C167.14 133.049 164.957 133.454 165.677 127.08C166.371 120.932 167.684 113.836 169.616 105.79C170.734 93.119 172.205 78.8815 173.826 74.0973C173.853 74.0118 174.864 70.6206 176.325 68.2267C176.37 68.2747 176.416 68.3209 176.464 68.3651C176.647 68.537 176.829 68.6611 177.011 68.7535C177.374 68.97 177.675 69.0443 177.675 69.0443C177.675 69.0443 177.69 69.0441 177.706 69.0597C177.706 69.0597 187.463 71.5 197.145 68.7204L197.175 68.704C197.175 68.704 197.473 68.6192 197.829 68.3901C197.992 68.2917 198.184 68.1451 198.361 67.9828C198.583 67.766 198.766 67.5048 198.917 67.2169Z" fill="#A339FF"/>
<path opacity="0.176986" d="M178.413 69.2154L183.508 88.0004L188.447 106.18C188.361 107.065 188.274 107.96 188.185 108.862C188.37 121.65 188.365 128.833 188.171 130.413C187.558 135.384 185.726 136.753 185.673 138.316C185.62 139.846 185.853 142.076 186.295 145.428C186.352 145.858 186.398 147.227 186.433 149.536C186.433 149.562 186.433 149.589 186.433 149.616C186.433 151.941 184.923 153.913 182.83 154.604C181.513 155.803 179.393 154.891 173.826 154.929C173.826 154.929 172.969 154.936 171.838 154.868L170.458 154.868C169.641 154.868 168.864 154.68 168.17 154.344C167.512 154.16 166.967 153.917 166.664 153.599C166.411 153.325 166.251 153.015 166.251 153.015C166.175 152.845 166.121 152.679 166.082 152.521C165.642 151.859 165.347 151.088 165.245 150.252C165.065 148.776 164.939 147.793 164.866 147.303C164.41 144.199 166.393 141.474 166.666 138.393C167.14 133.049 164.957 133.454 165.677 127.08C166.371 120.932 167.684 113.836 169.616 105.79C170.734 93.119 172.205 78.8815 173.826 74.0973C173.853 74.0118 174.864 70.6206 176.325 68.2267C176.37 68.2747 176.416 68.3209 176.464 68.3651C176.647 68.537 176.829 68.6611 177.011 68.7535C177.374 68.97 177.675 69.0443 177.675 69.0443C177.675 69.0443 177.69 69.0441 177.706 69.0597C177.706 69.0597 177.955 69.122 178.413 69.2154Z" fill="#444444"/>
<path d="M199.086 47.2373C199.105 47.4203 199.122 47.6093 199.14 47.8042L199.141 47.8519L199.184 48.6311C199.441 57.302 199.569 61.1997 199.64 62.7266C199.64 62.7266 199.628 62.886 199.647 63.1245C199.689 63.8241 199.755 66.7041 198.428 68.0008C198.251 68.163 198.059 68.3096 197.895 68.408C197.54 68.6371 197.241 68.7219 197.241 68.7219L197.212 68.7383C187.53 71.5179 177.772 69.0776 177.772 69.0776C177.772 69.0776 177.379 68.9904 177.016 68.7739C176.834 68.6816 176.642 68.5479 176.459 68.376C175.103 67.1262 175.139 64.2526 175.157 63.5519C175.153 63.3291 175.15 63.1541 175.15 63.1541C175.167 61.6977 175.161 58.1607 175.121 50.4874C171.32 50.1348 169.781 49.0383 170.505 47.198C172.148 43.0177 173.236 39.0065 179.752 38.5431C181.35 37.746 183.096 37.4792 184.311 37.3979C185.015 37.3538 185.539 37.3605 185.749 37.3728C185.839 37.3712 185.96 37.385 186.185 37.397C186.41 37.409 186.665 37.4205 186.95 37.4314C187.234 37.4105 187.489 37.3902 187.713 37.3703C187.938 37.3505 188.043 37.3328 188.148 37.3309C188.372 37.3111 188.881 37.2863 189.586 37.3058C189.755 37.3112 189.933 37.3196 190.12 37.3321C190.214 37.3105 190.309 37.2892 190.406 37.2682C197.103 35.823 199.22 39.4819 201.939 43.1613C203.027 44.634 202.076 45.9927 199.086 47.2373Z" fill="#DE3190"/>
<path opacity="0.176986" d="M179.65 38.5425C178.72 39.0114 177.841 39.6612 177.148 40.5602C176.84 40.9635 176.446 41.5752 176.146 42.456C176.104 42.5841 176.061 42.6962 176.018 42.8243C175.918 43.0967 175.703 43.6735 175.519 44.2975C175.321 45.0014 175.165 46.3412 175.062 48.2054L175.063 48.2532L175.047 49.0334C175.049 49.5249 175.052 50.001 175.054 50.4621C171.347 50.0968 169.851 49.0045 170.566 47.185C172.196 43.0398 173.28 39.0609 179.65 38.5425Z" fill="#444444"/>
<path d="M197.987 86.1719C197.854 86.2749 197.775 86.3209 197.775 86.3209C195.686 85.9702 198.673 78.2319 199.564 76.0416L192.064 49.2147C196.72 48.2304 199.791 47.1575 201.277 45.996C205.321 62.265 207.505 72.6995 207.832 77.2997C207.857 77.4456 207.872 77.602 207.877 77.7688C207.964 80.4457 207.075 84.5426 205.209 90.0594C205.194 90.0918 200.34 92.4749 196.926 90.4602L197.987 86.1719ZM177.564 23.3665C177.57 23.3576 177.577 23.3487 177.584 23.3395C178.98 21.774 181.552 21.8202 182.71 22.07C182.851 22.1008 183.351 22.2173 184.074 22.3413C184.466 22.4146 184.783 22.4479 184.971 22.4836C187.32 22.8265 188.283 22.6397 189.404 23.3977C189.614 23.5317 190.091 23.8699 190.476 24.4705C191.561 26.1689 191.048 28.1634 190.905 28.7565C190.431 30.531 189.27 31.5292 188.905 31.955C188.633 32.2769 188.256 32.6363 187.89 32.961L188.245 38.0977C188.249 38.209 188.205 38.3221 188.111 38.3731C187.706 38.642 187.128 38.9489 186.402 39.1335C185.092 39.4818 183.955 39.2986 183.312 39.1299C183.184 39.1026 183.084 38.9786 183.079 38.8514L182.887 35.4829C182.748 35.5193 182.599 35.557 182.441 35.5965C181.042 35.9616 181.126 35.9224 181.028 35.9441C180.004 36.0925 179.153 35.971 178.998 35.9228C178.433 35.8154 177.881 35.2773 177.428 34.4135C176.813 33.2606 176.34 31.5146 176.203 29.4678C176.17 29.1762 176.184 28.8896 176.198 28.6031L176.433 25.7631C176.483 25.1283 176.692 24.5101 177.069 23.9736C177.222 23.7336 177.37 23.5412 177.547 23.3837C177.553 23.3779 177.558 23.3722 177.564 23.3665ZM170.518 48.7573C171.024 49.6713 172.558 50.2471 175.121 50.4848C175.149 55.8531 175.16 59.1969 175.159 61.2201C171.337 65.9273 168.779 65.1929 168.779 65.1929C166.998 65.27 165.636 64.46 165.122 64.149C160.638 61.445 152.127 46.396 150.659 43.7597C148.721 43.4943 146.911 42.9851 145.231 42.2321C142.551 41.0312 141.471 39.8919 141.991 38.8141L155.726 39.7009L155.764 39.6748L167.675 52.2112C168.924 50.8849 169.772 49.8016 170.518 48.7573Z" fill="#FABDA3"/>
<path opacity="0.2" d="M170.569 48.7573C171.075 49.6713 172.61 50.2471 175.172 50.4848C175.2 55.8531 175.211 59.1969 175.21 61.2201C171.388 65.9273 168.83 65.1929 168.83 65.1929C167.049 65.27 165.687 64.46 165.173 64.149C160.69 61.445 152.178 46.396 150.71 43.7597C148.772 43.4943 146.963 42.9851 145.282 42.2321C142.602 41.0312 141.522 39.8919 142.042 38.8141L155.777 39.7009L155.815 39.6748L167.727 52.2112C168.975 50.8849 169.823 49.8016 170.569 48.7573Z" fill="#8C2A00"/>
<path d="M182.63 35.5387L184.974 34.7905L183.056 37.7215L182.63 35.5387Z" fill="#482D1F"/>
<path d="M188.346 29.1088C188.363 28.7232 188.283 28.3273 188.076 27.963C187.644 27.1975 186.736 26.702 185.95 26.8754C185.507 26.9729 185.188 27.2754 185.153 27.3037C184.669 27.797 184.514 28.3568 184.514 28.3568L184.436 28.7284C178.732 26.5524 177.626 23.806 177.329 23.6328C177.419 23.5303 177.509 23.4437 177.564 23.3695C178.977 21.8056 181.596 21.8569 182.77 22.1083C182.927 22.1407 183.426 22.2573 184.165 22.383C184.574 22.4579 184.89 22.4911 185.078 22.5269C187.474 22.8748 188.454 22.6897 189.591 23.4493C189.8 23.5834 190.293 23.9232 190.678 24.5237C191.879 26.3463 191.332 28.3532 191.123 28.8115C190.978 29.1322 190.749 29.3322 190.749 29.3322C189.906 29.2058 189.12 29.1498 188.346 29.1088ZM175.794 27.8108C175.636 27.7707 175.599 27.5616 175.716 27.4562C175.866 27.3365 176.127 27.2227 176.445 27.2393C177.097 27.2735 177.774 27.7393 177.032 27.8917C176.597 27.9805 176.092 27.8902 175.794 27.8108ZM179.062 28.0937C178.905 28.0536 178.868 27.8444 179.001 27.7398C179.15 27.6202 179.411 27.5064 179.745 27.5239C180.397 27.558 181.073 28.0397 180.333 28.1762C179.865 28.2792 179.36 28.1731 179.062 28.0937Z" fill="#482D1F"/>
<path d="M176.976 28.9883C176.946 29.2577 176.875 29.7002 176.707 29.8508C176.425 30.0751 176.117 29.2621 176.349 28.7802C176.439 28.5777 176.552 28.5518 176.679 28.5743C176.868 28.6161 176.986 28.7976 176.976 28.9883ZM179.822 29.1057C179.824 29.3767 179.801 29.8217 179.632 30.0041C179.379 30.2618 178.974 29.4756 179.16 28.9753C179.234 28.772 179.348 28.7302 179.475 28.7368C179.666 28.7468 179.816 28.9141 179.822 29.1057Z" fill="#482D1F"/>
<path d="M178.348 32.2956C178.461 32.2697 178.735 32.2043 178.792 32.032C178.794 32.0002 178.812 31.9534 178.798 31.9208C178.74 31.8062 178.546 31.8597 178.259 31.8606C177.749 31.8658 177.338 31.7964 177.338 31.7964C177.338 31.7964 177.433 32.1201 177.507 32.2197C177.654 32.4664 178.17 32.3341 178.348 32.2956Z" fill="#482D1F"/>
<path d="M177.434 29.0443L177.437 29.0223L177.435 29.0332L177.434 29.0443ZM177.11 30.7105C177.07 30.8881 177.2 31.0714 177.38 31.1111C177.419 31.1169 177.419 31.1169 177.445 31.1202C177.712 31.1549 177.879 31.1714 178.167 31.1864C178.255 31.191 178.33 31.1236 178.334 31.0358C178.339 30.948 178.271 30.8732 178.184 30.8686C177.905 30.854 177.745 30.8383 177.486 30.8046L177.434 30.7979C177.434 30.7972 177.421 30.7781 177.421 30.7751L177.75 29.0829L177.752 29.061L177.801 28.1232C177.806 28.0354 177.739 27.9606 177.651 27.956C177.563 27.9514 177.488 28.0188 177.484 28.1066L177.435 29.0332L177.11 30.7105Z" fill="#482D1F"/>
<path d="M188.336 28.8632C188.359 29.3346 188.223 29.8308 187.97 30.2147C187.66 30.6995 187.27 30.9407 186.783 31.1065C186.699 31.1348 186.655 31.2252 186.683 31.3084C186.711 31.3917 186.802 31.4362 186.885 31.4079C187.1 31.335 187.271 31.2609 187.475 31.135C187.774 30.9496 188.034 30.7047 188.237 30.388C188.526 29.9497 188.681 29.3866 188.653 28.8472C188.649 28.7594 188.574 28.6918 188.487 28.6963C188.399 28.7007 188.331 28.7754 188.336 28.8632Z" fill="#482D1F"/>
<path d="M200.497 85.3766C200.522 85.2472 200.647 85.1627 200.777 85.188C200.906 85.2132 200.991 85.3385 200.966 85.468C200.807 86.2808 200.664 86.9085 200.329 88.303C199.997 89.6909 199.854 90.314 199.698 91.118C199.672 91.2474 199.547 91.3318 199.418 91.3066C199.288 91.2814 199.204 91.156 199.229 91.0266C199.387 90.2138 199.531 89.5861 199.865 88.1916C200.198 86.8037 200.34 86.1806 200.497 85.3766ZM203.725 84.6763C203.758 84.5487 203.888 84.4721 204.016 84.5053C204.144 84.5385 204.22 84.6688 204.187 84.7964C203.96 85.6706 203.799 86.3521 203.452 87.8728C203.105 89.3981 202.943 90.0829 202.714 90.9632C202.681 91.0908 202.551 91.1674 202.423 91.1342C202.296 91.101 202.219 90.9706 202.252 90.843C202.48 89.9689 202.64 89.2874 202.987 87.7667C203.334 86.2414 203.496 85.5566 203.725 84.6763Z" fill="#482D1F"/>
</g>
<path d="M41.2284 130.454V130.484C41.2284 130.866 41.5626 131.184 41.9446 131.184H53.9612L49.7274 138.951C46.7034 144.49 43.6953 150.012 40.6873 155.551L35.7057 164.687C35.5306 165.005 35.6738 165.419 36.008 165.61L36.0717 165.642C36.4059 165.832 36.8357 165.721 36.9948 165.419L55.6321 131.184H68.0463L86.6836 165.419C86.8427 165.721 87.2725 165.817 87.6067 165.642L87.6703 165.61C88.0046 165.419 88.1478 165.005 87.9727 164.687L82.9911 155.551C79.9672 150.012 76.9591 144.49 73.951 138.951L69.7172 131.184H85.6491C86.0469 131.184 86.3653 130.866 86.3653 130.484V130.404C86.3653 130.022 86.031 129.704 85.6491 129.704H74.8264C67.7757 129.704 60.7092 129.704 53.6426 129.704H42.6336L41.2921 118.849C40.3689 111.465 39.4618 104.064 38.5386 96.663L37.0266 84.4397C36.9789 84.01 36.6128 83.6917 36.2149 83.7394L36.1354 83.7553C35.7534 83.8031 35.4828 84.201 35.5306 84.5989L41.2125 130.372C41.2166 130.4 41.2219 130.427 41.2284 130.454Z" fill="#D8DEED"/>
<g clip-path="url(#clip4_87_851)">
<path d="M75.9087 164.489C75.811 164.44 75.7015 164.412 75.5867 164.412H66.9805L51.1865 152.646L57.1711 144.262L66.7523 151.217C67.2775 153 67.8187 154.782 68.3598 156.581C68.6463 157.52 68.9328 158.443 69.2192 159.366C70.1105 159.716 70.8745 160.034 71.4156 160.273C72.4501 160.719 73.3255 161.133 74.2804 161.753C74.2804 161.753 75.108 162.263 75.5696 162.995C75.7128 163.233 75.8402 163.504 75.9197 163.79C75.9516 163.918 75.9516 164.045 75.9675 164.157C75.9625 164.261 75.9389 164.378 75.9087 164.489ZM105.719 164.463C105.667 164.451 105.612 164.444 105.556 164.444H79.9317C79.8837 164.444 79.8368 164.449 79.7915 164.458L79.5427 154.536L91.5762 154.501C93.0468 155.462 94.0034 156.157 94.4459 156.584C95.1098 157.225 95.8205 157.818 96.5935 158.329C98.4614 159.554 99.4321 159.537 102.273 160.873C103.043 161.225 103.782 161.626 104.507 162.075C105.231 162.524 105.478 163.029 105.683 163.79C105.717 163.917 105.719 164.044 105.737 164.155C105.739 164.281 105.732 164.381 105.719 164.463Z" fill="#474961"/>
<path d="M66.4013 165.716C66.3855 165.706 66.3701 165.696 66.3549 165.684L50.3756 153.779C50.0573 153.541 49.9936 153.079 50.2323 152.761C50.4711 152.443 50.9326 152.379 51.2509 152.618L67.0594 164.395H75.6656C76.0635 164.395 76.3977 164.729 76.3977 165.127C76.3977 165.525 76.0635 165.859 75.6656 165.859H66.8324C66.6705 165.859 66.5218 165.807 66.4013 165.716ZM80.0106 164.427H105.635C106.03 164.427 106.351 164.748 106.351 165.143C106.351 165.539 106.03 165.859 105.635 165.859H80.0106C79.615 165.859 79.2944 165.539 79.2944 165.143C79.2944 164.748 79.615 164.427 80.0106 164.427Z" fill="#FF5645"/>
<path d="M96.9634 123.956C95.7775 130.19 95.2923 139.326 96.4553 145.077C96.4553 145.077 97.6631 154.961 96.817 155.025C96.6118 155.041 94.4298 155.136 94.1991 155.152C88.4558 155.534 78.4821 156.298 76.995 156.298C76.0036 156.298 75.5079 155.661 75.5079 154.388L75.1844 150.969V150.942C74.0876 152.25 72.949 153.607 71.7685 155.013C70.0124 155.534 67.3562 154.787 63.7998 152.773C60.2434 150.758 57.4906 148.772 55.5415 146.815C54.6025 146.21 52.3172 142.865 52.922 141.99L56.9169 136.165L59.3042 132.679C59.9727 131.692 60.4773 131.038 61.1935 130.004C61.1935 129.988 61.3217 129.798 61.3217 129.782C61.0671 129.782 61.3573 129.576 59.5429 129.56C57.7286 129.544 47.9563 129.337 44.2162 123.941C42.7241 121.789 42.6087 119.405 42.4973 118.339C42.0835 114.19 43.1779 110.828 45.7806 108.253C46.4778 107.741 46.9908 107.437 47.3197 107.341C47.8449 107.182 50.6143 107.103 51.1554 107.071L62.2645 106.928C67.5509 106.857 71.9646 106.798 75.5057 106.748L75.5079 106.721L75.5057 106.748C82.661 106.649 86.2529 106.592 86.2813 106.577C86.3449 106.546 93.2111 106.832 95.0574 107.898C98.5935 109.97 100.453 116.499 96.9634 123.956Z" fill="#FFCB3D"/>
<path opacity="0.176986" d="M96.9291 124.019C95.748 130.252 95.2667 139.365 96.4276 145.105C96.4276 145.105 97.6353 154.989 96.7892 155.052C96.5841 155.068 94.4021 155.164 94.1713 155.18C88.4281 155.561 78.4544 156.325 76.9673 156.325C75.9759 156.325 75.4802 155.689 75.4802 154.416L75.1572 151.002C88.8686 134.64 96.0452 125.813 96.6871 124.521C96.7705 124.353 96.8511 124.186 96.9291 124.019ZM75.4738 106.826L75.4802 106.748L75.4738 106.826ZM81.4848 106.74C81.4817 106.74 81.4787 106.74 81.4756 106.74L81.2491 106.7H81.2747C81.345 106.714 81.415 106.727 81.4848 106.74Z" fill="#8C2A00"/>
<path d="M68.5408 119.166C67.7556 120.354 66.9286 121.508 64.9206 124.255C62.9059 127.011 62.0763 128.169 61.2833 129.368C61.1863 129.515 61.2266 129.712 61.3733 129.809C61.5199 129.906 61.7174 129.866 61.8143 129.719C62.5996 128.531 63.4266 127.377 65.4346 124.631C67.4493 121.875 68.2789 120.717 69.0719 119.517C69.1688 119.371 69.1286 119.173 68.9819 119.076C68.8353 118.979 68.6378 119.02 68.5408 119.166Z" fill="#482D1F"/>
<path d="M64.2901 78.3811C68.2465 79.7545 70.7522 83.8153 70.0127 88.1093L66.6908 106.869L48.3104 107.198C47.2582 107.009 46.5162 106.569 46.0845 105.877C45.4369 104.839 45.6134 103.524 45.7016 103.018L49.0188 84.4686C49.8387 79.7616 54.2773 76.5928 58.9796 77.3378L59.3012 75.8248C59.3377 75.6528 59.5068 75.543 59.6787 75.5796L64.3491 76.5723C64.5211 76.6089 64.6308 76.7779 64.5943 76.9498L64.2901 78.3811Z" fill="#FF5645"/>
<path d="M60.4823 70.4788C60.1478 73.8745 59.9683 75.5893 59.9437 75.6233C59.9184 75.6582 61.3606 75.9696 64.2702 76.5573L64.5286 75.2439C64.5964 75.2692 64.6663 75.2951 64.7382 75.3214C66.0843 75.8391 66.0039 75.7928 66.0999 75.8229C67.1072 76.076 67.9662 76.0451 68.1251 76.0264C69.4601 75.9076 70.9771 73.4456 71.6159 69.9165C71.6746 69.629 71.6855 69.3423 71.7123 69.0553L71.7899 66.2046C71.8106 65.5675 71.6722 64.9332 71.3601 64.3815C71.2287 64.145 71.0975 63.9245 70.9512 63.7519C69.2738 61.5845 66.2572 62.0351 65.7173 62.1082C65.6536 62.1093 65.5903 62.1263 65.5266 62.1275C64.9244 62.2812 64.3814 62.1793 63.8083 62.1734C63.5536 62.1778 63.3504 62.3883 63.3389 62.6432L63.3305 66.7184C63.3212 67.1006 62.2186 66.2289 61.7884 66.2046C61.0235 66.1543 60.1896 67.3462 59.9168 68.131C59.6133 68.98 59.8829 69.8348 60.3859 70.3832C60.4176 70.4166 60.4498 70.4484 60.4823 70.4788ZM71.0076 98.6557C71.3456 98.5409 71.6825 98.4254 72.0188 98.3094C74.5915 97.422 77.1237 96.5172 79.8715 95.5118C80.7974 95.1826 81.1945 95.0179 81.8591 94.7538C84.0238 93.886 92.1705 90.5513 92.5605 90.2409C93.933 89.6526 93.0321 84.764 93.0321 82.9782C90.7583 83.9782 87.6325 85.2589 83.6548 86.8204C82.8522 87.2338 82.2733 87.7709 81.8591 88.2187C81.1827 88.2698 75.7737 89.2108 70.7902 90.0443C70.9266 90.021 71.0634 89.9977 71.2003 89.9743C71.168 88.7024 70.9333 86.7612 69.9231 84.6533C70.1747 85.7532 70.2169 86.9225 70.0125 88.1093L69.6357 90.2366C66.7206 90.7203 64.0999 91.138 62.8692 91.2779C62.7995 91.0766 62.2516 88.7011 61.2255 84.1515L51.7393 86.8204C51.957 88.1275 52.4794 90.2226 53.3064 93.1057C54.547 97.4302 55.0259 100.66 58.271 101.606C59.0274 101.827 60.0079 101.793 62.1847 101.267C64.2337 100.771 66.1372 100.226 67.968 99.6518L66.6934 106.847L66.6866 106.848L66.6906 106.869L84.149 106.626C85.0704 106.597 83.9966 105.968 80.9277 104.737C77.8587 103.506 74.7305 102.46 71.5431 101.598L71.4472 98.5068C71.3008 98.5566 71.1543 98.6062 71.0076 98.6557ZM49.6682 82.4032C52.0006 83.4128 54.2586 83.5302 56.4421 82.7556C58.6256 81.981 59.7351 80.2416 59.7704 77.5374C57.8642 76.9572 55.8628 77.1151 53.7661 78.011C51.6695 78.907 50.3035 80.371 49.6682 82.4032Z" fill="#FABDA3"/>
<path d="M64.2818 76.4617L62.9425 74.5497L64.5302 75.2446L64.2818 76.4617Z" fill="#482D1F"/>
<path d="M70.7202 69.2771C70.7386 69.0843 70.8874 68.9303 71.0779 68.917C71.2049 68.9081 71.3205 68.9639 71.3837 69.1828C71.5304 69.6831 71.0893 70.4479 70.8629 70.1765C70.6908 69.9971 70.7073 69.5492 70.7202 69.2771ZM67.8875 69.3794C67.9059 69.1867 68.0547 69.0327 68.2452 69.0194C68.3722 69.0105 68.4878 69.0662 68.5509 69.2852C68.6976 69.7855 68.2565 70.5502 68.0301 70.2789C67.858 70.0995 67.8587 69.6527 67.8875 69.3794Z" fill="#482D1F"/>
<path d="M68.9058 72.5311C68.7925 72.5071 68.5159 72.4307 68.4561 72.2594C68.4538 72.2276 68.4346 72.1811 68.4483 72.1482C68.5051 72.0485 68.7149 72.0817 69.0029 72.0935C69.5143 72.1056 69.9237 72.0291 69.9237 72.0291C69.9237 72.0291 69.8189 72.3555 69.7451 72.4405C69.6041 72.7056 69.0838 72.5665 68.9058 72.5311Z" fill="#482D1F"/>
<path d="M71.8254 67.9713C71.9819 67.9284 72.0321 67.7335 71.9132 67.6301C71.7614 67.5131 71.5122 67.371 71.1935 67.3773C70.5404 67.3911 69.8525 67.8221 70.5667 67.9955C71.0223 68.1232 71.5271 68.04 71.8254 67.9713ZM68.7453 68.1867C68.9018 68.1438 68.952 67.9488 68.8172 67.8466C68.6654 67.7296 68.4162 67.5875 68.0817 67.5949C67.4285 67.6087 66.7418 68.0555 67.4548 68.2131C67.9263 68.3397 68.4311 68.2565 68.7453 68.1867ZM60.4917 72.8263C61.0805 72.432 61.4805 71.8127 61.6918 70.9685C61.4014 70.8862 60.9543 70.7087 60.5915 70.3C60.1043 69.7514 59.835 68.9124 60.1391 68.0953C60.4119 67.3106 61.197 66.692 61.962 66.7423C62.3922 66.7666 62.7305 66.9995 62.7788 67.0305C63.3109 67.4191 63.5426 67.9245 63.5426 67.9245L63.8867 68.798C64.434 68.4134 65.5352 66.9549 67.1904 64.4225C68.1099 64.3118 68.8199 64.2352 69.3203 64.1925C70.0711 64.1285 70.8766 64.2039 71.1799 64.0822C71.1581 64.1361 71.1363 64.1902 71.1145 64.2445C71.1686 64.1503 71.1961 64.0979 71.1961 64.0979C71.2112 64.0499 70.9524 63.8156 70.9518 63.7838C69.3713 61.6943 66.4617 61.8883 65.9217 61.9614C65.8581 61.9625 65.7947 61.9796 65.7308 61.9647C64.8413 62.0758 64.0937 62.1048 63.5847 62.1296C61.1667 62.2195 60.2223 61.9176 59.0075 62.5437C58.7867 62.659 58.2663 62.9387 57.8145 63.5037C57.5532 63.8201 57.3572 64.1561 57.2113 64.4959C55.8239 64.4507 54.8387 65.1404 54.2559 66.565C53.4777 68.4672 54.6711 70.1902 56.1574 70.8945C56.7839 72.4558 58.5023 73.5802 59.8866 73.1307C60.1357 73.0498 60.3374 72.9483 60.4917 72.8263Z" fill="#482D1F"/>
<path d="M69.9039 69.4672L69.9014 69.4442L69.9035 69.4556L69.9039 69.4672ZM70.2108 71.1297L70.213 71.1473C70.2251 71.3206 70.1178 71.4898 69.9469 71.5307C69.9154 71.536 69.8978 71.5385 69.8801 71.5409C69.713 71.5635 69.5925 71.5736 69.16 71.6039C69.0723 71.61 68.9963 71.5439 68.9901 71.4562C68.984 71.3685 69.0501 71.2924 69.1378 71.2863C69.5627 71.2566 69.6798 71.2468 69.8374 71.2254C69.8538 71.2232 69.8702 71.2209 69.8866 71.2185C69.8831 71.2187 69.8951 71.1994 69.8956 71.1758L69.5883 69.5016L69.5858 69.4786L69.5521 68.5397C69.5489 68.4518 69.6176 68.378 69.7054 68.3749C69.7933 68.3717 69.867 68.4404 69.8702 68.5282L69.9035 69.4556L70.2108 71.1297Z" fill="#482D1F"/>
<path d="M61.0583 84.0415L61.0583 82.7584C61.0583 82.6266 61.1652 82.5197 61.297 82.5197C61.4289 82.5197 61.5357 82.6266 61.5357 82.7584L61.5357 84.0415C61.5357 84.1734 61.4288 84.2803 61.297 84.2803C61.1652 84.2803 61.0583 84.1734 61.0583 84.0415Z" fill="#482D1F"/>
<path opacity="0.2" d="M69.9281 84.6533C70.2015 85.2105 70.4708 85.935 70.7361 86.8268C71.0014 87.7186 71.1541 88.7681 71.1942 89.9753L69.634 90.2301C69.7758 89.4585 69.8738 88.9058 69.9281 88.572C70.0305 87.9427 70.1416 87.3868 70.1416 86.9506C70.1416 86.1687 70.0705 85.4029 69.9281 84.6533ZM67.9673 99.6516L71.4463 98.5072L71.543 101.598C77.2242 103.3 81.2041 104.716 83.4826 105.846C83.9416 106.073 84.2266 106.236 84.3376 106.334C84.3845 106.377 84.4212 106.415 84.4479 106.447C84.5132 106.525 84.4479 106.605 84.2408 106.62C84.1028 106.629 78.2513 106.707 66.6865 106.853L67.9673 99.6516Z" fill="#8C2A00"/>
</g>
<defs>
<clipPath id="clip0_87_851">
<rect width="59.6838" height="45.678" fill="white" transform="translate(105.396 11)"/>
</clipPath>
<clipPath id="clip1_87_851">
<rect width="46.9512" height="29.6032" fill="white" transform="translate(113.83 81.6656)"/>
</clipPath>
<clipPath id="clip2_87_851">
<rect width="45.0414" height="34.6962" fill="white" transform="translate(81.3623 59.0654)"/>
</clipPath>
<clipPath id="clip3_87_851">
<rect width="128" height="151" fill="white" transform="translate(100 15)"/>
</clipPath>
<clipPath id="clip4_87_851">
<rect width="83.0798" height="120.323" fill="white" transform="translate(29 45.537)"/>
</clipPath>
</defs>
</svg>
