<svg width="332" height="241" viewBox="0 0 332 241" fill="none" xmlns="http://www.w3.org/2000/svg">
<g filter="url(#filter0_d_10330_2887)">
<rect x="28" y="28" width="275.662" height="185" rx="10" fill="white"/>
</g>
<path d="M28 38C28 32.4772 32.4772 28 38 28H293.662C299.185 28 303.662 32.4772 303.662 38V52.5033H28V38Z" fill="url(#paint0_linear_10330_2887)" fill-opacity="0.75"/>
<g filter="url(#filter1_d_10330_2887)">
<rect x="59" y="63" width="156" height="39" rx="10" fill="white"/>
</g>
<g clip-path="url(#clip0_10330_2887)">
<path d="M178.826 82.7829C178.826 76.5396 183.887 71.4785 190.131 71.4785C196.374 71.4785 201.435 76.5396 201.435 82.7829C201.435 89.0261 196.374 94.0872 190.131 94.0872C183.887 94.0872 178.826 89.0261 178.826 82.7829Z" fill="url(#paint1_linear_10330_2887)"/>
<path d="M192.542 84.7425V86.4381C192.542 86.7647 187.719 86.6548 187.719 86.184C187.719 85.7409 187.728 83.7327 187.719 81.6668C186.639 80.2668 186.639 79.3917 187.493 78.4874C188.347 77.583 194.426 77.1309 194.426 77.1309C194.426 77.1309 194.882 81.5177 194.954 82.7077C194.982 83.1862 195.293 84.7425 194.087 84.7425H192.542Z" fill="url(#paint2_linear_10330_2887)"/>
<g style="mix-blend-mode:multiply">
<path d="M192.54 84.5977C191.558 84.4906 190.609 84.1806 189.753 83.6875C189.753 83.6875 190.356 85.1194 192.54 85.508V84.5977Z" fill="#FFD7B8"/>
</g>
<path d="M198.043 89.8148C198.522 90.7873 198.899 92.3951 199.174 94.638H181.087C181.362 92.3948 181.739 90.7871 182.217 89.8148C182.694 88.8457 187.116 86.9805 187.116 86.9805C187.116 86.9805 187.204 86.1279 187.417 86.0057C187.631 85.8835 192.589 85.8836 192.843 86.0057C193.098 86.1279 193.145 86.9801 193.145 86.9801C193.145 86.9801 197.568 88.8477 198.043 89.8148Z" fill="url(#paint3_linear_10330_2887)"/>
<path d="M188.7 79.408C188.461 79.2022 188.169 79.0636 187.758 79.2775C186.782 79.7842 187.43 81.7389 188.522 81.7008C188.898 81.6877 188.726 82.4386 187.719 82.9345C187.719 82.1432 186.513 80.1838 186.408 78.3998C185.194 77.948 185.496 76.1403 186.329 76.1403C186.196 74.483 188.849 73.627 189.877 74.578C190.922 73.3256 193.56 73.9662 193.719 75.0528C195.533 74.0846 196.725 76.8676 195.027 77.948C194.328 78.3927 192.693 78.5618 190.333 78.5618C189.201 78.5618 189.852 81.2123 190.206 82.0679C190.658 83.1606 193.183 83.3113 193.974 83.1983C194.592 83.11 194.916 82.8592 194.954 82.7084C195.519 84.2157 194.803 85.12 193.673 85.12C191.751 85.12 189.829 84.5548 189.528 83.1606C189.288 82.051 189.301 80.2604 188.7 79.408Z" fill="url(#paint4_linear_10330_2887)"/>
</g>
<rect x="67.478" y="70.9121" width="94.9565" height="3.95652" rx="1.97826" fill="url(#paint5_linear_10330_2887)"/>
<rect opacity="0.5" x="67.478" y="79.957" width="52.5652" height="3.95652" rx="1.97826" fill="url(#paint6_linear_10330_2887)"/>
<rect opacity="0.5" x="67.478" y="89" width="70.087" height="3.95652" rx="1.97826" fill="url(#paint7_linear_10330_2887)"/>
<g filter="url(#filter2_d_10330_2887)">
<rect x="48" y="161" width="158" height="39.5" rx="10" fill="white"/>
</g>
<rect x="56.5869" y="169.014" width="96.1739" height="4.00725" rx="2" fill="url(#paint8_linear_10330_2887)"/>
<rect opacity="0.5" x="56.5869" y="178.174" width="53.2391" height="4.00725" rx="2" fill="url(#paint9_linear_10330_2887)"/>
<rect opacity="0.5" x="56.5869" y="187.334" width="70.9855" height="4.00725" rx="2" fill="url(#paint10_linear_10330_2887)"/>
<g clip-path="url(#clip1_10330_2887)">
<path d="M169.935 181.037C169.935 174.714 175.061 169.588 181.384 169.588C187.707 169.588 192.833 174.714 192.833 181.037C192.833 187.36 187.707 192.486 181.384 192.486C175.061 192.486 169.935 187.36 169.935 181.037Z" fill="url(#paint11_linear_10330_2887)"/>
<path d="M188.406 187.525C188.966 188.594 189.246 192.486 189.246 192.486H173.522C173.522 192.486 173.802 188.594 174.362 187.525C175.201 185.922 181.384 183.861 181.384 183.861C181.384 183.861 187.566 185.922 188.406 187.525Z" fill="url(#paint12_linear_10330_2887)"/>
<path d="M181.079 190.653C181.079 190.593 181.097 190.534 181.13 190.484C181.164 190.434 181.211 190.394 181.267 190.371C181.323 190.348 181.384 190.342 181.443 190.354C181.503 190.366 181.557 190.395 181.6 190.437C181.643 190.48 181.672 190.535 181.683 190.594C181.695 190.653 181.689 190.714 181.666 190.77C181.643 190.826 181.604 190.874 181.554 190.907C181.503 190.941 181.444 190.959 181.384 190.959C181.303 190.959 181.225 190.927 181.168 190.869C181.111 190.812 181.079 190.734 181.079 190.653ZM181.079 189.127C181.079 189.066 181.097 189.007 181.13 188.957C181.164 188.907 181.211 188.868 181.267 188.845C181.323 188.822 181.384 188.816 181.443 188.827C181.503 188.839 181.557 188.868 181.6 188.911C181.643 188.954 181.672 189.008 181.683 189.067C181.695 189.126 181.689 189.188 181.666 189.244C181.643 189.299 181.604 189.347 181.554 189.381C181.503 189.414 181.444 189.432 181.384 189.432C181.303 189.432 181.225 189.4 181.168 189.343C181.111 189.285 181.079 189.208 181.079 189.127ZM181.079 187.6C181.079 187.54 181.097 187.481 181.13 187.431C181.164 187.38 181.211 187.341 181.267 187.318C181.323 187.295 181.384 187.289 181.443 187.301C181.503 187.313 181.557 187.342 181.6 187.384C181.643 187.427 181.672 187.481 181.683 187.541C181.695 187.6 181.689 187.661 181.666 187.717C181.643 187.773 181.604 187.821 181.554 187.854C181.503 187.888 181.444 187.906 181.384 187.906C181.303 187.906 181.225 187.873 181.168 187.816C181.111 187.759 181.079 187.681 181.079 187.6Z" fill="white"/>
<path d="M187.908 182.976L175.508 181.478C174.896 178.233 175.621 176.188 177.683 175.344C178.636 172.221 182.345 172.475 183.397 172.73C186.975 173.596 188.478 177.012 187.908 182.976Z" fill="url(#paint13_linear_10330_2887)"/>
<path d="M179.552 184.777V180.198C177.642 180.169 178.014 176.86 179.933 177.87C180.277 178.022 181.155 177.603 180.849 176.572C182.91 178.099 185.782 175.42 185.963 177.068C186.32 180.313 185.63 182.98 183.799 182.98C183.604 182.988 183.408 182.976 183.216 182.946V184.777C182.618 185.134 182.02 185.312 181.423 185.312C180.825 185.312 180.201 185.134 179.552 184.777Z" fill="#FFDBC9"/>
<path d="M183.216 182.944V183.555C182.071 183.555 181.181 183.008 180.544 181.914C181.308 182.423 182.198 182.766 183.216 182.944Z" fill="#FFBC9E"/>
<path d="M181.381 185.233C181.904 185.208 183.216 184.938 183.216 184.354V183.861C183.356 183.861 183.757 184.192 183.963 184.472C184.778 185.579 183.874 186.571 183.137 186.571C182.206 186.571 181.59 185.794 181.384 185.42C181.178 185.794 180.561 186.571 179.631 186.571C178.894 186.571 177.99 185.579 178.805 184.472C179.011 184.192 179.412 183.861 179.552 183.861V184.354C179.552 184.938 180.83 185.208 181.381 185.233Z" fill="white"/>
</g>
<g filter="url(#filter3_d_10330_2887)">
<rect x="123" y="112" width="164" height="41" rx="10" fill="white"/>
</g>
<rect x="172.319" y="120.318" width="99.8261" height="4.15942" rx="2" fill="url(#paint14_linear_10330_2887)"/>
<rect opacity="0.5" x="172.319" y="129.826" width="55.2609" height="4.15942" rx="2" fill="url(#paint15_linear_10330_2887)"/>
<rect opacity="0.5" x="172.319" y="139.334" width="73.6812" height="4.15942" rx="2" fill="url(#paint16_linear_10330_2887)"/>
<g clip-path="url(#clip2_10330_2887)">
<path d="M136.072 132.796C136.072 126.233 141.393 120.912 147.956 120.912C154.52 120.912 159.84 126.233 159.84 132.796C159.84 139.36 154.52 144.68 147.956 144.68C141.393 144.68 136.072 139.36 136.072 132.796Z" fill="url(#paint17_linear_10330_2887)"/>
<path d="M153.7 133.548C154.343 131.414 154.739 127.765 152.037 125.269C149.971 123.362 144.391 123.169 142.45 127.329C142.126 128.023 142.569 129.112 143.441 129.072C143.783 129.056 143.995 130.141 144.193 130.815C143.916 133.548 141.445 133.599 140.192 135.687C138.647 138.262 140.549 142.065 145.104 142.065C149.66 142.065 152.271 138.294 153.7 133.548Z" fill="url(#paint18_linear_10330_2887)"/>
<path d="M155.245 139.801C155.826 140.92 156.117 144.997 156.117 144.997H139.796C139.796 144.997 140.086 140.92 140.667 139.801C141.539 138.123 147.956 135.965 147.956 135.965C147.956 135.965 154.374 138.123 155.245 139.801Z" fill="url(#paint19_linear_10330_2887)"/>
<path d="M149.858 136.916C149.858 136.916 148.846 137.47 147.916 137.47C146.985 137.47 146.055 136.916 146.055 136.916V135.173C145.855 135.204 145.652 135.216 145.449 135.209C143.549 135.208 142.832 132.44 143.203 129.072C143.44 129.072 143.995 129.072 144.787 127.963C144.589 129.508 146.887 129.27 147.758 128.042C147.322 129.508 148.471 130.498 149.462 129.904C151.403 128.739 151.84 132.291 149.858 132.32V136.916Z" fill="url(#paint20_linear_10330_2887)"/>
<g style="mix-blend-mode:multiply" opacity="0.782">
<path d="M146.055 135.173C147.037 134.992 147.978 134.629 148.828 134.104C148.828 134.104 147.837 135.807 146.055 135.807V135.173Z" fill="#FFD7B8"/>
</g>
<path d="M147.959 137.389C148.532 137.363 149.858 137.083 149.858 136.477V135.965C150.003 135.965 150.419 136.308 150.633 136.599C151.479 137.747 150.541 138.777 149.776 138.777C148.81 138.777 148.17 137.971 147.956 137.583C147.743 137.971 147.103 138.777 146.137 138.777C145.372 138.777 144.434 137.747 145.28 136.599C145.494 136.308 145.91 135.965 146.055 135.965V136.477C146.055 137.083 147.417 137.363 147.959 137.389Z" fill="white"/>
<path d="M147.64 142.779C147.64 142.716 147.658 142.655 147.693 142.603C147.728 142.551 147.777 142.51 147.835 142.486C147.893 142.462 147.957 142.456 148.018 142.468C148.08 142.48 148.136 142.511 148.181 142.555C148.225 142.599 148.255 142.656 148.267 142.717C148.28 142.779 148.273 142.842 148.249 142.9C148.225 142.958 148.185 143.008 148.133 143.042C148.081 143.077 148.019 143.096 147.957 143.096C147.873 143.096 147.792 143.062 147.732 143.003C147.673 142.944 147.64 142.863 147.64 142.779ZM147.64 141.194C147.64 141.132 147.658 141.07 147.693 141.018C147.728 140.966 147.777 140.926 147.835 140.902C147.893 140.878 147.957 140.871 148.018 140.884C148.08 140.896 148.136 140.926 148.181 140.97C148.225 141.015 148.255 141.071 148.267 141.133C148.28 141.194 148.273 141.258 148.249 141.316C148.225 141.374 148.185 141.423 148.133 141.458C148.081 141.493 148.019 141.511 147.957 141.511C147.873 141.511 147.792 141.478 147.732 141.419C147.673 141.359 147.64 141.278 147.64 141.194ZM147.64 139.61C147.64 139.547 147.658 139.486 147.693 139.434C147.728 139.382 147.777 139.341 147.835 139.317C147.893 139.293 147.957 139.287 148.018 139.299C148.08 139.311 148.136 139.341 148.181 139.386C148.225 139.43 148.255 139.487 148.267 139.548C148.28 139.61 148.273 139.673 148.249 139.731C148.225 139.789 148.185 139.839 148.133 139.873C148.081 139.908 148.019 139.927 147.957 139.927C147.873 139.927 147.792 139.893 147.732 139.834C147.673 139.775 147.64 139.694 147.64 139.61Z" fill="url(#paint21_linear_10330_2887)"/>
</g>
<defs>
<filter id="filter0_d_10330_2887" x="0" y="0" width="331.662" height="241" filterUnits="userSpaceOnUse" color-interpolation-filters="sRGB">
<feFlood flood-opacity="0" result="BackgroundImageFix"/>
<feColorMatrix in="SourceAlpha" type="matrix" values="0 0 0 0 0 0 0 0 0 0 0 0 0 0 0 0 0 0 127 0" result="hardAlpha"/>
<feMorphology radius="4" operator="dilate" in="SourceAlpha" result="effect1_dropShadow_10330_2887"/>
<feOffset/>
<feGaussianBlur stdDeviation="12"/>
<feComposite in2="hardAlpha" operator="out"/>
<feColorMatrix type="matrix" values="0 0 0 0 0.282353 0 0 0 0 0.290196 0 0 0 0 0.619608 0 0 0 0.06 0"/>
<feBlend mode="normal" in2="BackgroundImageFix" result="effect1_dropShadow_10330_2887"/>
<feBlend mode="normal" in="SourceGraphic" in2="effect1_dropShadow_10330_2887" result="shape"/>
</filter>
<filter id="filter1_d_10330_2887" x="31" y="35" width="212" height="95" filterUnits="userSpaceOnUse" color-interpolation-filters="sRGB">
<feFlood flood-opacity="0" result="BackgroundImageFix"/>
<feColorMatrix in="SourceAlpha" type="matrix" values="0 0 0 0 0 0 0 0 0 0 0 0 0 0 0 0 0 0 127 0" result="hardAlpha"/>
<feMorphology radius="4" operator="dilate" in="SourceAlpha" result="effect1_dropShadow_10330_2887"/>
<feOffset/>
<feGaussianBlur stdDeviation="12"/>
<feComposite in2="hardAlpha" operator="out"/>
<feColorMatrix type="matrix" values="0 0 0 0 0.282353 0 0 0 0 0.290196 0 0 0 0 0.619608 0 0 0 0.08 0"/>
<feBlend mode="normal" in2="BackgroundImageFix" result="effect1_dropShadow_10330_2887"/>
<feBlend mode="normal" in="SourceGraphic" in2="effect1_dropShadow_10330_2887" result="shape"/>
</filter>
<filter id="filter2_d_10330_2887" x="20" y="133" width="214" height="95.5" filterUnits="userSpaceOnUse" color-interpolation-filters="sRGB">
<feFlood flood-opacity="0" result="BackgroundImageFix"/>
<feColorMatrix in="SourceAlpha" type="matrix" values="0 0 0 0 0 0 0 0 0 0 0 0 0 0 0 0 0 0 127 0" result="hardAlpha"/>
<feMorphology radius="4" operator="dilate" in="SourceAlpha" result="effect1_dropShadow_10330_2887"/>
<feOffset/>
<feGaussianBlur stdDeviation="12"/>
<feComposite in2="hardAlpha" operator="out"/>
<feColorMatrix type="matrix" values="0 0 0 0 0.282353 0 0 0 0 0.290196 0 0 0 0 0.619608 0 0 0 0.08 0"/>
<feBlend mode="normal" in2="BackgroundImageFix" result="effect1_dropShadow_10330_2887"/>
<feBlend mode="normal" in="SourceGraphic" in2="effect1_dropShadow_10330_2887" result="shape"/>
</filter>
<filter id="filter3_d_10330_2887" x="95" y="84" width="220" height="97" filterUnits="userSpaceOnUse" color-interpolation-filters="sRGB">
<feFlood flood-opacity="0" result="BackgroundImageFix"/>
<feColorMatrix in="SourceAlpha" type="matrix" values="0 0 0 0 0 0 0 0 0 0 0 0 0 0 0 0 0 0 127 0" result="hardAlpha"/>
<feMorphology radius="4" operator="dilate" in="SourceAlpha" result="effect1_dropShadow_10330_2887"/>
<feOffset/>
<feGaussianBlur stdDeviation="12"/>
<feComposite in2="hardAlpha" operator="out"/>
<feColorMatrix type="matrix" values="0 0 0 0 0.282353 0 0 0 0 0.290196 0 0 0 0 0.619608 0 0 0 0.08 0"/>
<feBlend mode="normal" in2="BackgroundImageFix" result="effect1_dropShadow_10330_2887"/>
<feBlend mode="normal" in="SourceGraphic" in2="effect1_dropShadow_10330_2887" result="shape"/>
</filter>
<linearGradient id="paint0_linear_10330_2887" x1="28" y1="40.2517" x2="303.662" y2="40.2517" gradientUnits="userSpaceOnUse">
<stop stop-color="#EC008C"/>
<stop offset="1" stop-color="#FC6767"/>
</linearGradient>
<linearGradient id="paint1_linear_10330_2887" x1="190.131" y1="71.4785" x2="190.131" y2="94.0872" gradientUnits="userSpaceOnUse">
<stop stop-color="#EAEAEA"/>
<stop offset="1" stop-color="#ECECEC"/>
</linearGradient>
<linearGradient id="paint2_linear_10330_2887" x1="190.944" y1="77.1309" x2="190.944" y2="86.6255" gradientUnits="userSpaceOnUse">
<stop stop-color="#FFD4B3"/>
<stop offset="1" stop-color="#FFDCC2"/>
</linearGradient>
<linearGradient id="paint3_linear_10330_2887" x1="181.087" y1="90.276" x2="199.174" y2="90.276" gradientUnits="userSpaceOnUse">
<stop stop-color="#606C88"/>
<stop offset="1" stop-color="#3F4C6B"/>
</linearGradient>
<linearGradient id="paint4_linear_10330_2887" x1="190.722" y1="85.12" x2="190.722" y2="73.8906" gradientUnits="userSpaceOnUse">
<stop/>
<stop offset="1"/>
</linearGradient>
<linearGradient id="paint5_linear_10330_2887" x1="68.5758" y1="72.7049" x2="157.326" y2="94.5932" gradientUnits="userSpaceOnUse">
<stop stop-color="#F9F7C6"/>
<stop offset="1" stop-color="#E8FCDB"/>
</linearGradient>
<linearGradient id="paint6_linear_10330_2887" x1="68.0857" y1="81.7498" x2="119.25" y2="88.7351" gradientUnits="userSpaceOnUse">
<stop stop-color="#F9F7C6"/>
<stop offset="1" stop-color="#E8FCDB"/>
</linearGradient>
<linearGradient id="paint7_linear_10330_2887" x1="68.2883" y1="90.7928" x2="135.55" y2="103.037" gradientUnits="userSpaceOnUse">
<stop stop-color="#F9F7C6"/>
<stop offset="1" stop-color="#E8FCDB"/>
</linearGradient>
<linearGradient id="paint8_linear_10330_2887" x1="57.6988" y1="170.829" x2="147.587" y2="192.998" gradientUnits="userSpaceOnUse">
<stop stop-color="#F9F7C6"/>
<stop offset="1" stop-color="#E8FCDB"/>
</linearGradient>
<linearGradient id="paint9_linear_10330_2887" x1="57.2024" y1="179.99" x2="109.023" y2="187.064" gradientUnits="userSpaceOnUse">
<stop stop-color="#F9F7C6"/>
<stop offset="1" stop-color="#E8FCDB"/>
</linearGradient>
<linearGradient id="paint10_linear_10330_2887" x1="57.4076" y1="189.15" x2="125.532" y2="201.551" gradientUnits="userSpaceOnUse">
<stop stop-color="#F9F7C6"/>
<stop offset="1" stop-color="#E8FCDB"/>
</linearGradient>
<linearGradient id="paint11_linear_10330_2887" x1="181.384" y1="169.588" x2="181.384" y2="192.486" gradientUnits="userSpaceOnUse">
<stop stop-color="#EAEAEA"/>
<stop offset="1" stop-color="#ECECEC"/>
</linearGradient>
<linearGradient id="paint12_linear_10330_2887" x1="173.522" y1="188.174" x2="189.246" y2="188.174" gradientUnits="userSpaceOnUse">
<stop stop-color="#606C88"/>
<stop offset="1" stop-color="#3F4C6B"/>
</linearGradient>
<linearGradient id="paint13_linear_10330_2887" x1="181.662" y1="182.976" x2="181.662" y2="172.59" gradientUnits="userSpaceOnUse">
<stop/>
<stop offset="1"/>
</linearGradient>
<linearGradient id="paint14_linear_10330_2887" x1="173.473" y1="122.203" x2="266.774" y2="145.214" gradientUnits="userSpaceOnUse">
<stop stop-color="#F9F7C6"/>
<stop offset="1" stop-color="#E8FCDB"/>
</linearGradient>
<linearGradient id="paint15_linear_10330_2887" x1="172.958" y1="131.711" x2="226.746" y2="139.054" gradientUnits="userSpaceOnUse">
<stop stop-color="#F9F7C6"/>
<stop offset="1" stop-color="#E8FCDB"/>
</linearGradient>
<linearGradient id="paint16_linear_10330_2887" x1="173.171" y1="141.219" x2="243.882" y2="154.091" gradientUnits="userSpaceOnUse">
<stop stop-color="#F9F7C6"/>
<stop offset="1" stop-color="#E8FCDB"/>
</linearGradient>
<linearGradient id="paint17_linear_10330_2887" x1="147.956" y1="120.912" x2="147.956" y2="144.68" gradientUnits="userSpaceOnUse">
<stop stop-color="#EAEAEA"/>
<stop offset="1" stop-color="#ECECEC"/>
</linearGradient>
<linearGradient id="paint18_linear_10330_2887" x1="146.917" y1="142.065" x2="146.917" y2="123.969" gradientUnits="userSpaceOnUse">
<stop/>
<stop offset="1"/>
</linearGradient>
<linearGradient id="paint19_linear_10330_2887" x1="139.796" y1="140.481" x2="156.117" y2="140.481" gradientUnits="userSpaceOnUse">
<stop stop-color="#606C88"/>
<stop offset="1" stop-color="#3F4C6B"/>
</linearGradient>
<linearGradient id="paint20_linear_10330_2887" x1="147.128" y1="127.963" x2="147.128" y2="137.47" gradientUnits="userSpaceOnUse">
<stop stop-color="#FFE0CC"/>
<stop offset="1" stop-color="#FFEADB"/>
</linearGradient>
<linearGradient id="paint21_linear_10330_2887" x1="147.957" y1="139.293" x2="147.957" y2="143.096" gradientUnits="userSpaceOnUse">
<stop stop-color="#130027"/>
<stop offset="1" stop-color="#130017"/>
</linearGradient>
<clipPath id="clip0_10330_2887">
<path d="M178.826 82.7829C178.826 76.5396 183.887 71.4785 190.131 71.4785C196.374 71.4785 201.435 76.5396 201.435 82.7829C201.435 89.0261 196.374 94.0872 190.131 94.0872C183.887 94.0872 178.826 89.0261 178.826 82.7829Z" fill="white"/>
</clipPath>
<clipPath id="clip1_10330_2887">
<path d="M169.935 181.037C169.935 174.714 175.061 169.588 181.384 169.588C187.707 169.588 192.833 174.714 192.833 181.037C192.833 187.36 187.707 192.486 181.384 192.486C175.061 192.486 169.935 187.36 169.935 181.037Z" fill="white"/>
</clipPath>
<clipPath id="clip2_10330_2887">
<path d="M136.072 132.796C136.072 126.233 141.393 120.912 147.956 120.912C154.52 120.912 159.84 126.233 159.84 132.796C159.84 139.36 154.52 144.68 147.956 144.68C141.393 144.68 136.072 139.36 136.072 132.796Z" fill="white"/>
</clipPath>
</defs>
</svg>
