<svg width="213" height="163" viewBox="0 0 213 163" fill="none" xmlns="http://www.w3.org/2000/svg">
<g clip-path="url(#clip0_12604_6418)">
<path d="M1.23122 41.571H105.269C105.949 41.571 106.5 42.1241 106.5 42.8064V112.192C106.5 112.874 105.949 113.427 105.269 113.427H1.23122C0.551234 113.427 0 112.874 0 112.192V42.8064C0 42.1241 0.551234 41.571 1.23122 41.571Z" fill="#F2F6FB"/>
<path d="M45.989 59.192H66.5068C67.5371 59.192 68.3723 60.03 68.3723 61.0637V61.1739C68.3723 62.2077 67.5371 63.0457 66.5068 63.0457H45.989C44.9587 63.0457 44.1235 62.2077 44.1235 61.1739V61.0637C44.1235 60.03 44.9587 59.192 45.989 59.192ZM33.9846 52.689H78.5112C79.5414 52.689 80.3766 53.527 80.3766 54.5607V54.9117C80.3766 55.9455 79.5414 56.7835 78.5112 56.7835H33.9846C32.9543 56.7835 32.1191 55.9455 32.1191 54.9117V54.5607C32.1191 53.527 32.9543 52.689 33.9846 52.689Z" fill="#E1E5F0"/>
<rect x="20.2852" y="58.603" width="65.3649" height="4.50792" rx="2.25396" fill="#E1E5F0"/>
<rect x="20.2852" y="64.8013" width="65.3649" height="4.50792" rx="2.25396" fill="#E1E5F0"/>
<rect x="23.666" y="70.9998" width="58.603" height="4.50792" rx="2.25396" fill="#E1E5F0"/>
<rect x="20.2852" y="52.4045" width="65.3649" height="4.50793" rx="2.25396" fill="#E1E5F0"/>
<path d="M42.7896 88.2367L41.5407 88.9233C41.4384 88.9796 41.3711 88.9294 41.3907 88.8103L41.6293 87.3551L40.6184 86.3245C40.5359 86.2404 40.5622 86.1581 40.677 86.1407L42.0725 85.9286L42.6973 84.6046C42.7483 84.4966 42.8307 84.4962 42.8819 84.6046L43.5067 85.9286L44.9021 86.1407C45.017 86.1581 45.0427 86.241 44.9608 86.3245L43.9498 87.3551L44.1885 88.8103C44.208 88.929 44.1404 88.9794 44.0385 88.9233L42.7896 88.2367ZM47.857 88.3217L46.6081 89.0083C46.5058 89.0646 46.4385 89.0144 46.458 88.8953L46.6967 87.44L45.6857 86.4094C45.6033 86.3254 45.6296 86.2431 45.7444 86.2256L47.1399 86.0136L47.7647 84.6896C47.8156 84.5816 47.8981 84.5812 47.9492 84.6896L48.574 86.0136L49.9695 86.2256C50.0844 86.2431 50.1101 86.3259 50.0282 86.4094L49.0172 87.44L49.2559 88.8953C49.2753 89.014 49.2078 89.0644 49.1058 89.0083L47.857 88.3217ZM53.0061 88.3217L51.7572 89.0083C51.6549 89.0646 51.5876 89.0144 51.6071 88.8953L51.8458 87.44L50.8348 86.4094C50.7524 86.3254 50.7787 86.2431 50.8935 86.2256L52.289 86.0136L52.9138 84.6896C52.9648 84.5816 53.0472 84.5812 53.0983 84.6896L53.7231 86.0136L55.1186 86.2256C55.2335 86.2431 55.2592 86.3259 55.1773 86.4094L54.1663 87.44L54.405 88.8953C54.4244 89.014 54.3569 89.0644 54.2549 89.0083L53.0061 88.3217ZM58.0734 88.3217L56.8246 89.0083C56.7222 89.0646 56.655 89.0144 56.6745 88.8953L56.9132 87.44L55.9022 86.4094C55.8198 86.3254 55.8461 86.2431 55.9609 86.2256L57.3564 86.0136L57.9812 84.6896C58.0321 84.5816 58.1146 84.5812 58.1657 84.6896L58.7905 86.0136L60.186 86.2256C60.3008 86.2431 60.3266 86.3259 60.2447 86.4094L59.2337 87.44L59.4724 88.8953C59.4918 89.014 59.4243 89.0644 59.3223 89.0083L58.0734 88.3217Z" fill="#474BFF"/>
<path d="M63.1115 88.3073L61.8409 89.0085C61.7387 89.065 61.6717 89.0131 61.6916 88.8917L61.9338 87.409L60.9065 86.3576C60.8234 86.2727 60.8483 86.1897 60.9623 86.1723L62.3836 85.9555L63.0182 84.6057C63.0697 84.4961 63.1532 84.496 63.2047 84.6057L63.8393 85.9555L65.2607 86.1723C65.3745 86.1897 65.3992 86.2729 65.3164 86.3576L64.2891 87.409L64.5313 88.8917C64.5511 89.0127 64.4847 89.0652 64.382 89.0085L63.1115 88.3073Z" fill="#474BFF"/>
<path d="M44.6027 96.0427H61.7281C62.6392 96.0427 63.2135 96.1861 63.7151 96.4552C64.2168 96.7244 64.6104 97.1194 64.8787 97.6227C65.1469 98.1259 65.2898 98.7023 65.2898 99.6163V100.176C65.2898 101.091 65.1469 101.667 64.8787 102.17C64.6104 102.673 64.2168 103.068 63.7151 103.338C63.2135 103.607 62.6392 103.75 61.7281 103.75H44.6027C43.6917 103.75 43.1173 103.607 42.6157 103.338C42.1141 103.068 41.7204 102.673 41.4521 102.17C41.1839 101.667 41.041 101.091 41.041 100.176V99.6163C41.041 98.7023 41.1839 98.1259 41.4521 97.6227C41.7204 97.1194 42.1141 96.7244 42.6157 96.4552C43.1173 96.1861 43.6917 96.0427 44.6027 96.0427Z" fill="#D8DEED"/>
<path d="M0 37.4542C0 35.1795 1.83729 33.3354 4.10561 33.3354H102.395C104.662 33.3354 106.5 35.1796 106.5 37.4542V42.3946H0V37.4542Z" fill="#E1E5F0"/>
<path d="M6.05294 39.9239C7.12958 39.9239 8.00236 39.0482 8.00236 37.9679C8.00236 36.8877 7.12958 36.012 6.05294 36.012C4.9763 36.012 4.10352 36.8877 4.10352 37.9679C4.10352 39.0482 4.9763 39.9239 6.05294 39.9239Z" fill="#FF5645"/>
<path d="M12.4143 39.9239C13.4909 39.9239 14.3637 39.0482 14.3637 37.9679C14.3637 36.8877 13.4909 36.012 12.4143 36.012C11.3376 36.012 10.4648 36.8877 10.4648 37.9679C10.4648 39.0482 11.3376 39.9239 12.4143 39.9239Z" fill="#FFCB3D"/>
<path d="M18.9807 39.9239C20.0573 39.9239 20.9301 39.0482 20.9301 37.9679C20.9301 36.8877 20.0573 36.012 18.9807 36.012C17.904 36.012 17.0312 36.8877 17.0312 37.9679C17.0312 39.0482 17.904 39.9239 18.9807 39.9239Z" fill="#3ABF7C"/>
</g>
<g clip-path="url(#clip1_12604_6418)">
<path d="M111.678 160.805C112.104 160.805 112.449 161.15 112.449 161.576C112.449 162.002 112.104 162.348 111.678 162.348H83.7572C83.3314 162.348 82.9863 162.002 82.9863 161.576C82.9863 161.15 83.3314 160.805 83.7572 160.805H111.678ZM166.151 162.348H148.593C148.182 162.348 147.822 162.051 147.822 161.695V161.457C147.822 161.101 148.164 160.805 148.593 160.805H166.151C166.562 160.805 166.921 161.101 166.921 161.457V161.695C166.921 162.051 166.579 162.348 166.151 162.348Z" fill="#FFCB3D"/>
<path d="M111.769 160.81C111.74 160.807 111.709 160.805 111.679 160.805H83.8791C83.8606 160.711 83.8513 160.593 83.854 160.439C83.8732 160.32 83.8756 160.183 83.9122 160.046C84.1321 159.227 84.3986 158.683 85.178 158.199C85.9573 157.716 86.753 157.284 87.5819 156.904C90.6394 155.466 91.6842 155.484 93.6945 154.164C94.5265 153.613 95.2914 152.975 96.0059 152.284C96.4822 151.824 97.5117 151.076 99.0945 150.041L111.874 150.041L111.769 160.81ZM166.245 160.81C166.214 160.806 166.183 160.805 166.151 160.805H148.652L150.037 152.059L162.302 150.396L166.245 160.81Z" fill="#474961"/>
<path d="M130.076 93.1047C126.18 106.006 123.747 114.902 119.643 128.371C118.794 130.78 118.48 132.608 118.703 133.854C119.037 135.722 120.684 139.071 121.486 142.724C122.289 146.377 114.059 142.369 107.06 141.024C100.061 139.679 92.8514 138.306 93.0387 137.257C93.4921 134.763 100.602 131.501 101.164 128.371C101.726 125.24 102.152 121.831 102.23 121.27C105.831 99.8607 109.211 83.4101 111.042 74.4622C111.815 70.6251 113.299 63.3808 118.703 55.965C119.055 55.4959 119.34 55.1309 119.507 54.9051C120.004 54.3792 120.56 53.9827 121.128 53.6845C121.116 53.5789 121.103 53.4736 121.091 53.3685C122.461 52.3501 123.39 51.6138 128.933 51.1912C129.07 51.1888 129.224 51.1689 129.361 51.1665C134.736 50.884 139.298 52.8468 142.74 57.0803C144.937 60.3525 146.658 64.3772 147.904 69.1545C149.047 73.5397 153.404 93.1978 160.974 128.129C161.314 129.138 161.644 129.878 161.964 130.349C163.028 131.92 166.17 134.062 168.387 137.073C170.605 140.083 161.457 139.772 154.517 141.392C147.577 143.012 140.432 144.693 140.177 143.658C139.702 141.707 142.847 137.616 143.798 134.464C140.916 126.618 138.085 118.467 135.339 110.044C133.474 104.305 131.723 98.6559 130.076 93.1047Z" fill="#3ABF7C"/>
<path opacity="0.176986" d="M130.025 93.1434C126.147 105.987 123.716 114.872 119.623 128.303C118.774 130.713 118.461 132.541 118.684 133.786C119.018 135.654 120.664 139.004 121.467 142.657C122.269 146.309 114.039 142.301 107.04 140.956C100.041 139.611 92.8319 138.238 93.0192 137.189C93.4725 134.695 100.582 131.434 101.144 128.303C101.706 125.173 102.132 121.764 102.211 121.203C105.812 99.7933 109.191 83.3427 111.023 74.3948C111.795 70.5577 113.279 63.3134 118.684 55.8976C119.035 55.4285 119.32 55.0635 119.487 54.8377C119.974 54.3227 120.517 53.9318 121.074 53.6357C121.709 58.9461 122.422 64.9787 123.457 69.7374C124.505 74.5522 125.902 79.1164 127.356 83.909C128.214 86.9552 129.103 90.0338 130.025 93.1434Z" fill="#444444"/>
<path d="M136.648 26.9728C137.591 27.2461 138.484 27.6453 139.259 28.1413C142.58 30.2687 144.535 34.3233 143.017 38.3154C142.701 39.1471 141.639 40.154 139.832 41.3363C139.685 41.3527 139.54 41.3672 139.396 41.3796L138.827 47.5222C138.81 47.7108 138.793 47.8823 138.793 48.0708C138.776 48.928 138.622 50.1966 137.885 51.1224C136.857 52.4253 135.333 54.311 128.961 54.3796C122.109 54.4482 120.464 52.5624 119.402 51.2252C118.666 50.3166 118.477 49.2194 118.46 48.328C118.46 48.1394 118.443 47.968 118.426 47.7794L117.821 41.3324C114.608 40.794 114.118 38.6633 113.587 37.0146C112.507 33.6557 114.814 29.7061 117.679 27.8173C119.72 26.4719 122.222 25.907 124.551 26.3886C125.621 26.0728 126.778 25.8953 128.001 25.8873H128.978C131.935 25.8696 134.634 26.1298 136.648 26.9728Z" fill="#FFCB3D"/>
<path opacity="0.176986" d="M117.815 41.2672C114.667 40.7089 114.18 38.5981 113.654 36.9619C112.574 33.603 114.881 29.6534 117.746 27.7646C119.806 26.4062 122.337 25.8435 124.685 26.35C121.071 27.371 118.424 29.9637 117.518 32.9504C117.244 33.8418 117.192 34.8019 117.295 35.7276L117.815 41.2672Z" fill="#444444"/>
<path d="M123.361 23.3806C123.316 23.3919 123.27 23.4033 123.224 23.4148C121.721 23.7908 121.808 23.7625 121.704 23.7896C120.593 23.9524 119.676 23.8024 119.508 23.7562C118.103 23.4688 116.772 20.6432 116.526 16.7937C116.496 16.4823 116.518 16.1745 116.522 15.8654L116.787 12.8078C116.835 12.1238 117.069 11.47 117.452 10.9124C117.491 10.8464 117.529 10.7975 117.566 10.7486C117.698 10.5859 117.829 10.4233 117.959 10.2948C118.458 9.77988 119.033 9.42481 119.616 9.19065C120.987 8.73667 122.494 8.7906 123.323 8.96891C123.441 8.99438 123.814 9.072 124.339 9.17748C124.826 9.33187 125.299 9.43376 125.794 9.48554C126.066 9.52178 126.254 9.77555 126.235 10.0492L125.758 14.4152C125.747 14.5199 127.037 13.5325 128.373 13.886C128.804 13.9999 129.398 14.6055 130.155 15.7026C129.885 16.5296 129.744 16.9548 129.731 16.9784C129.171 18.0042 128.76 18.6492 128.498 18.9133L128.394 21.6628L128.571 25.8872H128C126.371 25.8978 124.859 26.2093 123.513 26.7481L123.361 23.3806ZM160.329 140.357L162.302 150.4L150.07 152.121L148.771 142.671C150.613 142.265 152.602 141.799 154.574 141.339C156.421 140.908 158.425 140.613 160.329 140.357ZM102.209 140.015C103.789 140.332 105.459 140.652 107.117 140.971C109.29 141.388 111.581 142.063 113.684 142.685L111.875 150.227H98.9166L102.209 140.015ZM117.19 51.3755C115.229 52.9329 113.24 53.6352 111.223 53.4823C105.409 53.0416 99.426 47.3061 93.2741 36.2757L93.2752 36.275L93.2745 36.2749L87.1895 24.6256C88.7081 23.3559 90.1107 23.4053 91.3972 24.7739C92.5826 26.3313 93.2652 27.2608 93.4449 27.5621C96.1361 32.0752 98.3033 31.2755 100.936 34.5922L109.146 41.6666L112.147 38.5674C111.77 37.1363 111.406 35.6197 111.057 34.0173C110.146 33.402 108.742 32.2821 106.454 30.3632C106.239 30.1832 105.182 29.944 103.284 29.6453C100.463 30.0154 99.1874 29.2196 99.4586 27.2578L111.565 26.4642C112.853 26.3797 114.094 26.961 114.855 28.0047C115.775 29.267 116.435 30.3229 116.835 31.1725L124.095 42.0676L127.872 35.9354C128.976 37.9199 130.618 38.8183 132.88 40.0986C134.738 41.1503 136.975 41.5487 139.592 41.2938C134.547 51.2866 129.598 56.3537 124.747 56.4952C121.934 56.5772 119.415 54.8707 117.19 51.3755Z" fill="#ED9474"/>
<path opacity="0.2" d="M117.299 51.3528C115.329 52.9261 113.33 53.6359 111.303 53.4823C105.489 53.0416 99.5061 47.3061 93.3542 36.2756L93.3553 36.275L93.3546 36.2749L87.2695 24.6256C88.7882 23.3559 90.1908 23.4053 91.4773 24.7738C92.6627 26.3313 93.3453 27.2607 93.525 27.5621C96.2161 32.0751 98.3834 31.2754 101.016 34.5922L109.226 41.6666L112.245 38.5493C113.716 44.1161 115.401 48.3839 117.299 51.3528Z" fill="#8C2A00"/>
<path d="M123.426 24.8264L125.45 22.8448L123.365 23.3792L123.426 24.8264Z" fill="#482D1F"/>
<path d="M131.802 17.5848C131.578 18.4004 131.642 19.0246 131.996 19.4575C133.766 21.6276 134.571 21.9448 134.128 22.7391C133.622 23.6463 131.738 23.8852 128.475 23.4558C126.301 21.9843 126.789 19.3301 126.792 19.0987C126.791 19.0968 126.79 19.0948 126.789 19.0929C127.016 19.0571 127.722 19.0029 128.308 18.4776C128.893 17.9686 129.281 17.0849 129.052 16.1753C128.856 15.3023 128.085 14.5437 127.263 14.5034C126.801 14.4883 126.409 14.6843 126.355 14.7149C125.73 15.0664 125.418 15.5945 125.418 15.5945L125.223 15.9646C125.168 15.8663 125.117 15.7745 125.068 15.6903C123.965 14.2726 122.861 12.8721 121.741 11.4533C119.761 10.8507 117.899 10.8923 117.604 10.6997C117.735 10.5371 117.867 10.3745 117.996 10.246C118.496 9.73105 119.07 9.37598 119.653 9.14182C121.024 8.68784 122.531 8.74178 123.36 8.92008C123.479 8.94556 123.851 9.02317 124.376 9.12865C124.529 9.15651 124.681 9.18438 124.868 9.21463C125.31 9.27993 125.649 9.33805 125.853 9.3695C128.439 9.72229 129.467 9.50212 130.716 10.3113C130.945 10.4648 131.469 10.828 131.889 11.4589C133.1 13.2965 132.555 15.4409 132.407 16.0836C132.259 16.6585 132.043 17.1565 131.802 17.5848ZM116.348 14.683C116.182 14.628 116.139 14.4155 116.272 14.311C116.442 14.1937 116.718 14.0549 117.06 14.0796C117.761 14.1313 118.476 14.6337 117.699 14.7799C117.202 14.8916 116.664 14.7737 116.348 14.683ZM119.646 15.0883C119.48 15.0334 119.437 14.8208 119.588 14.7184C119.757 14.6011 120.033 14.4623 120.393 14.4891C121.094 14.5408 121.807 15.0602 121.031 15.1894C120.518 15.299 119.98 15.1811 119.646 15.0883Z" fill="#482D1F"/>
<path d="M88.3018 18.5813C88.7572 18.2832 89.2706 18.2555 89.4496 18.5324L97.9012 31.026C98.0802 31.3029 97.8801 31.7678 97.4262 32.0829C96.9707 32.3809 96.4573 32.4087 96.2784 32.1318L87.8267 19.6382C87.6292 19.3457 87.8463 18.8793 88.3018 18.5813Z" fill="#474961"/>
<path d="M117.462 16.1498C117.46 16.4432 117.453 16.9259 117.258 17.1092C116.999 17.3884 116.568 16.5409 116.754 16.011C116.834 15.7791 116.962 15.7256 117.098 15.7423C117.302 15.7674 117.453 15.9414 117.462 16.1498ZM120.501 16.4196C120.516 16.7151 120.492 17.1957 120.297 17.379C120.038 17.6581 119.607 16.8107 119.793 16.2808C119.873 16.0488 120.001 15.9954 120.137 16.0121C120.341 16.0372 120.492 16.2112 120.501 16.4196Z" fill="#482D1F"/>
<path d="M119.23 19.7524C119.354 19.733 119.655 19.6664 119.729 19.4855C119.733 19.4515 119.757 19.4026 119.744 19.3664C119.688 19.256 119.461 19.2799 119.151 19.2763C118.6 19.2605 118.165 19.1551 118.165 19.1551C118.165 19.1551 118.259 19.5121 118.333 19.6077C118.47 19.9008 119.037 19.7805 119.23 19.7524Z" fill="#482D1F"/>
<path d="M117.906 18.1715L117.902 18.1903C117.879 18.376 117.985 18.5641 118.166 18.6177C118.2 18.6252 118.219 18.6288 118.238 18.6324C118.416 18.6662 118.545 18.6838 119.008 18.7407C119.102 18.7523 119.188 18.6855 119.199 18.5915C119.211 18.4975 119.144 18.412 119.05 18.4004C118.595 18.3445 118.47 18.3274 118.301 18.2955C118.284 18.2922 118.266 18.2888 118.249 18.2852C118.253 18.2857 118.241 18.2642 118.242 18.2388L118.666 16.4553L118.67 16.4307L118.759 15.4226C118.768 15.3283 118.698 15.2451 118.604 15.2367C118.51 15.2284 118.426 15.2981 118.418 15.3924L118.33 16.388L117.906 18.1715Z" fill="#482D1F"/>
<path d="M128.02 35.9888C127.851 33.544 128.255 31.7211 129.22 30.5118C129.308 30.4008 129.29 30.239 129.179 30.1504C129.068 30.0618 128.907 30.08 128.818 30.191C127.762 31.5151 127.33 33.4622 127.508 36.0244C127.517 36.1661 127.64 36.273 127.782 36.2631C127.923 36.2533 128.03 36.1305 128.02 35.9888Z" fill="#482D1F"/>
</g>
<defs>
<clipPath id="clip0_12604_6418">
<rect width="106.5" height="80.0916" fill="white" transform="translate(0 33.3354)"/>
</clipPath>
<clipPath id="clip1_12604_6418">
<rect width="174.037" height="162.348" fill="white" transform="translate(38.9629)"/>
</clipPath>
</defs>
</svg>
