<svg width="244" height="177" viewBox="0 0 244 177" fill="none" xmlns="http://www.w3.org/2000/svg">
<g clip-path="url(#clip0_12515_6103)">
<path d="M124.4 0H2.64016C1.84435 0 1.19922 0.524067 1.19922 1.17054V74.7192C1.19922 75.3657 1.84435 75.8898 2.64016 75.8898H124.4C125.196 75.8898 125.841 75.3657 125.841 74.7192V1.17054C125.841 0.524067 125.196 0 124.4 0Z" fill="#F2F6FB"/>
<path d="M1.19922 4.80437C1.19922 2.15099 3.34948 0 6.00419 0H121.036C123.69 0 125.841 2.15226 125.841 4.80437V10.3268H1.19922V4.80437ZM22.5732 32.4493H104.634V84.4592C104.634 84.9888 104.202 85.4181 103.673 85.4181H23.5339C23.0034 85.4181 22.5732 84.9878 22.5732 84.4592V32.4493ZM30.1314 40.4343V47.1652C30.1314 47.6949 30.562 48.1237 31.093 48.1237H37.8078C38.341 48.1237 38.7694 47.6946 38.7694 47.1652V40.4343C38.7694 39.9046 38.3389 39.4758 37.8078 39.4758H31.093C30.5598 39.4758 30.1314 39.9049 30.1314 40.4343ZM30.1314 55.0277V61.7587C30.1314 62.2883 30.562 62.7172 31.093 62.7172H37.8078C38.341 62.7172 38.7694 62.288 38.7694 61.7587V55.0277C38.7694 54.4981 38.3389 54.0692 37.8078 54.0692H31.093C30.5598 54.0692 30.1314 54.4984 30.1314 55.0277ZM44.708 40.4343V47.1652C44.708 47.6949 45.1385 48.1237 45.6696 48.1237H52.3844C52.9176 48.1237 53.3459 47.6946 53.3459 47.1652V40.4343C53.3459 39.9046 52.9154 39.4758 52.3844 39.4758H45.6696C45.1363 39.4758 44.708 39.9049 44.708 40.4343ZM44.708 55.0277V61.7587C44.708 62.2883 45.1385 62.7172 45.6696 62.7172H52.3844C52.9176 62.7172 53.3459 62.288 53.3459 61.7587V55.0277C53.3459 54.4981 52.9154 54.0692 52.3844 54.0692H45.6696C45.1363 54.0692 44.708 54.4984 44.708 55.0277ZM59.2845 40.4343V47.1652C59.2845 47.6949 59.715 48.1237 60.2461 48.1237H66.9609C67.4941 48.1237 67.9225 47.6946 67.9225 47.1652V40.4343C67.9225 39.9046 67.492 39.4758 66.9609 39.4758H60.2461C59.7129 39.4758 59.2845 39.9049 59.2845 40.4343ZM59.2845 55.0277V61.7587C59.2845 62.2883 59.715 62.7172 60.2461 62.7172H66.9609C67.4941 62.7172 67.9225 62.288 67.9225 61.7587V55.0277C67.9225 54.4981 67.492 54.0692 66.9609 54.0692H60.2461C59.7129 54.0692 59.2845 54.4984 59.2845 55.0277ZM73.8611 40.4343V47.1652C73.8611 47.6949 74.2916 48.1237 74.8227 48.1237H81.5375C82.0707 48.1237 82.499 47.6946 82.499 47.1652V40.4343C82.499 39.9046 82.0685 39.4758 81.5375 39.4758H74.8227C74.2894 39.4758 73.8611 39.9049 73.8611 40.4343ZM88.4376 40.4343V47.1652C88.4376 47.6949 88.8681 48.1237 89.3992 48.1237H96.114C96.6472 48.1237 97.0756 47.6946 97.0756 47.1652V40.4343C97.0756 39.9046 96.6451 39.4758 96.114 39.4758H89.3992C88.866 39.4758 88.4376 39.9049 88.4376 40.4343ZM88.4376 55.0277V61.7587C88.4376 62.2883 88.8681 62.7172 89.3992 62.7172H96.114C96.6472 62.7172 97.0756 62.288 97.0756 61.7587V55.0277C97.0756 54.4981 96.6451 54.0692 96.114 54.0692H89.3992C88.866 54.0692 88.4376 54.4984 88.4376 55.0277ZM30.1314 69.6212V76.3521C30.1314 76.8818 30.562 77.3106 31.093 77.3106H37.8078C38.341 77.3106 38.7694 76.8815 38.7694 76.3521V69.6212C38.7694 69.0915 38.3389 68.6627 37.8078 68.6627H31.093C30.5598 68.6627 30.1314 69.0918 30.1314 69.6212ZM44.708 69.6212V76.3521C44.708 76.8818 45.1385 77.3106 45.6696 77.3106H52.3844C52.9176 77.3106 53.3459 76.8815 53.3459 76.3521V69.6212C53.3459 69.0915 52.9154 68.6627 52.3844 68.6627H45.6696C45.1363 68.6627 44.708 69.0918 44.708 69.6212ZM59.2845 69.6212V76.3521C59.2845 76.8818 59.715 77.3106 60.2461 77.3106H66.9609C67.4941 77.3106 67.9225 76.8815 67.9225 76.3521V69.6212C67.9225 69.0915 67.492 68.6627 66.9609 68.6627H60.2461C59.7129 68.6627 59.2845 69.0918 59.2845 69.6212ZM73.8611 69.6212V76.3521C73.8611 76.8818 74.2916 77.3106 74.8227 77.3106H81.5375C82.0707 77.3106 82.499 76.8815 82.499 76.3521V69.6212C82.499 69.0915 82.0685 68.6627 81.5375 68.6627H74.8227C74.2894 68.6627 73.8611 69.0918 73.8611 69.6212ZM88.4376 69.6212V76.3521C88.4376 76.8818 88.8681 77.3106 89.3992 77.3106H96.114C96.6472 77.3106 97.0756 76.8815 97.0756 76.3521V69.6212C97.0756 69.0915 96.6451 68.6627 96.114 68.6627H89.3992C88.866 68.6627 88.4376 69.0918 88.4376 69.6212Z" fill="#E1E5F0"/>
<rect x="7.20312" y="13.6875" width="112.154" height="60.2795" fill="#F2F6FB"/>
<rect x="18.25" y="18.7305" width="90.0591" height="8.16536" rx="4.08268" fill="#D8DEED"/>
<rect x="18.25" y="31.2188" width="90.0591" height="8.40551" rx="4.20276" fill="#D8DEED"/>
<rect x="18.25" y="43.9492" width="90.0591" height="8.16535" rx="4.08268" fill="#D8DEED"/>
</g>
<g clip-path="url(#clip1_12515_6103)">
<path d="M185.317 86.2155C190.676 86.1386 196.186 86.1196 201.847 86.1587C210.428 86.2179 209.159 86.9623 213.573 86.2179C216.26 85.7647 217.785 84.8851 218.566 85.0077C219.068 85.0865 219.263 85.5792 219.263 86.8648C219.263 89.0557 218.284 93.6233 216.326 100.568L204.489 126.267L200.079 138.154C198.7 141.875 195.174 144.364 191.207 144.419L163.066 144.811L179.834 88.3883C180.226 87.0692 181.447 86.1708 182.823 86.1883L184.979 86.2157C185.091 86.2172 185.204 86.2171 185.317 86.2155Z" fill="#A339FF"/>
<path d="M205.328 148.437C205.256 149.232 204.587 149.855 203.773 149.855H201.015L207.982 175.857C207.979 175.954 207.442 176.17 206.721 176.364C206.388 176.453 206.051 176.527 205.821 176.557C205.591 176.586 205.443 176.586 205.431 176.541L198.28 149.855H35.2967L28.1462 176.541C28.0945 176.623 27.5218 176.542 26.8006 176.349C26.4678 176.259 26.139 176.155 25.9251 176.066C25.7112 175.977 25.5825 175.902 25.5945 175.857L32.5617 149.855H30.6199C29.7578 149.855 29.0589 149.156 29.0589 148.294C29.0589 147.432 29.7578 146.733 30.6199 146.733H202.613L222.708 88.3735C222.988 87.5584 223.877 87.1251 224.692 87.4058C225.507 87.6865 225.94 88.5748 225.66 89.39L205.328 148.437Z" fill="#E1E5F0"/>
</g>
<g clip-path="url(#clip2_12515_6103)">
<path d="M38.4222 85.8891L38.3 85.9655C37.8443 86.2786 37.7195 86.8946 38.0122 87.363L58.6239 119.624C58.937 120.079 59.553 120.204 60.0215 119.911L60.1437 119.835C60.5994 119.522 60.7242 118.906 60.4315 118.438L39.8324 86.1973C39.527 85.7085 38.911 85.5837 38.4222 85.8891ZM91.3075 144.572L52.6421 144.572C52.0453 144.572 51.5614 145.055 51.5614 145.652C51.5614 146.249 52.0453 146.733 52.6421 146.733L91.3075 146.733C91.9044 146.733 92.3882 146.249 92.3882 145.652C92.3882 145.055 91.9044 144.572 91.3075 144.572Z" fill="#FFCB3D"/>
<path d="M39.6551 85.9243C39.7289 85.9889 39.7951 86.066 39.8508 86.1553L60.4499 118.396C60.5503 118.556 60.6016 118.735 60.6072 118.912L72.5099 111.798L63.8256 95.8154L58.8592 93.8497C57.5024 93.5365 56.1762 93.0908 54.8932 92.5332C51.8156 91.143 51.0597 89.8879 47.0429 87.3572C45.9636 86.6723 44.869 86.0536 43.693 85.4858C43.0056 85.2922 41.6946 85.007 40.5643 85.3735C40.376 85.4346 40.213 85.5364 40.0577 85.6051C39.9056 85.7002 39.7721 85.8085 39.6551 85.9243ZM52.5202 144.539C52.5662 144.533 52.613 144.53 52.6605 144.53L91.3259 144.53C91.3791 144.53 91.4313 144.533 91.4824 144.541L91.4824 128.482L75.0531 128.482C71.9509 130.612 70.0717 132.005 69.4152 132.661C68.4306 133.646 67.3499 134.534 66.1971 135.327C63.3873 137.2 61.9223 137.176 57.6475 139.241C56.4948 139.794 55.39 140.394 54.2853 141.09C53.1806 141.787 52.8204 142.531 52.5322 143.684C52.4841 143.876 52.4841 144.068 52.4601 144.237C52.4601 144.348 52.4817 144.448 52.5202 144.539Z" fill="#474961"/>
<path d="M66.1544 103.935L62.717 93.3885C62.1394 91.6162 62.9171 89.6849 64.5617 88.8075L71.9069 84.8889C75.5473 79.2066 80.5777 75.485 87.5971 78.334C87.8137 78.422 88.0375 78.516 88.2685 78.6162L88.0648 78.4989C99.8405 71.9066 107.113 68.2317 109.882 67.4741C112.652 66.7165 115.464 67.8152 118.318 70.7701L148.163 112.478C166.328 113.563 175.435 118.911 175.482 128.523C175.529 138.135 170.381 143.999 160.036 146.115C149.834 146.968 141.451 146.673 134.886 145.232C127.448 145.632 121.079 144.651 115.78 142.287C107.264 138.489 99.301 130.137 91.8914 117.229L91.5215 128.696H66.4413C65.1149 128.696 64.0397 127.621 64.0397 126.295C64.0397 126.241 64.0415 126.188 64.045 126.135C64.6388 117.234 65.3419 109.834 66.1544 103.935Z" fill="#3ABF7C"/>
<path opacity="0.176986" d="M134.938 145.23C127.477 145.638 121.091 144.658 115.779 142.289C107.263 138.49 99.3004 130.138 91.8908 117.231L91.5208 128.697H66.4406C65.1143 128.697 64.0391 127.622 64.0391 126.296C64.0391 126.242 64.0408 126.189 64.0444 126.136C65.3583 106.439 67.2078 94.0923 69.5928 89.097C73.323 81.2844 78.9512 74.8264 87.5964 78.3353C87.9023 78.4595 88.2226 78.5958 88.5572 78.7444L104.674 88.0202L106.48 96.0247C110.725 119.206 116.142 133.733 122.731 139.606C125.649 142.207 129.718 144.082 134.938 145.23Z" fill="#444444"/>
<path d="M175.095 82.682C177.205 82.8065 179.669 83.4092 181.892 85.1371C184.511 87.1595 185.567 89.4673 187.477 94.1206C189.064 97.9851 190.429 101.406 188.863 103.412C187.717 104.881 185.709 104.881 184.359 104.789C182.36 104.397 180.5 104.251 178.688 104.19L174.378 113.569C173.941 114.799 170.894 122.512 169.997 123.464C167.434 126.205 160.925 123.482 150.47 115.297C147.831 112.937 147.095 110.112 148.262 106.823C148.932 104.72 149.558 102.769 150.14 100.97C148.803 100.789 146.865 100.303 146.058 98.8421C144.828 96.6133 146.868 93.4736 149.167 89.9868C151.913 85.7779 153.392 83.7151 156.332 82.2098C158.142 81.2888 159.964 80.9643 161.625 80.9573C164.713 80.2975 169.509 80.1421 175.095 82.682Z" fill="#FFCB3D"/>
<path opacity="0.176986" d="M150.054 101.009C148.728 100.81 146.917 100.306 146.144 98.9063C144.914 96.6775 147.029 93.5824 149.253 90.051C151.961 85.752 153.478 83.6242 156.418 82.1189C158.118 81.2539 159.828 80.9357 161.406 80.918C160.165 81.1961 159.214 81.5524 158.618 81.8353C157.11 82.5428 156.69 83.1449 155.586 85.1128C154.966 86.2188 153.122 91.5176 150.054 101.009Z" fill="#8C2A00"/>
<path d="M135.101 88.6589L135.1 88.6871L151.83 88.9145C152.526 88.9218 153.107 88.3473 153.114 87.6509L153.149 85.6811C153.156 84.9846 152.582 84.4038 151.885 84.3965L135.19 84.1869L135.19 84.1703L133.399 85.3482C132.617 85.8477 132.595 86.9514 133.359 87.4538L135.101 88.6589Z" fill="#474BFF"/>
<path d="M170.752 76.8179C171.151 78.0723 171.795 79.7088 172.682 81.7273C171.574 81.352 170.377 81.0654 169.091 80.8676C167.163 80.5709 166.297 80.5434 165.335 80.5411L165.156 79.0626C163.676 79.5729 163.76 79.5267 163.628 79.5842C162.581 79.8419 161.519 79.9065 160.465 79.8272C158.409 79.5992 156.159 75.7297 155.29 70.2733C155.218 69.8125 155.193 69.3783 155.168 68.9441L155.133 64.5654C155.113 63.5544 155.356 62.6051 155.832 61.7644C156.018 61.4374 156.251 61.113 156.485 60.7885C159.159 57.4897 163.772 58.0201 164.631 58.1612C164.727 58.1663 164.821 58.1953 164.941 58.2016C165.819 58.4399 166.679 58.5331 167.567 58.5796C167.974 58.601 168.271 58.9051 168.25 59.3129L168.138 65.5837C168.14 65.9927 170.12 65.609 170.554 65.5837C171.711 65.5481 173.248 66.4947 173.666 67.695C173.984 68.9623 173.773 70.7075 172.934 71.5773C172.629 71.882 171.909 73.6256 170.772 76.8082C170.768 76.8104 170.761 76.8137 170.752 76.8179ZM149.085 88.8828L150.387 88.9005C150.97 89.9837 151.522 91.0028 151.994 91.8633C152.505 92.3682 152.867 92.7229 152.916 92.7772L170.022 111.04C170.022 111.04 170.562 105.627 170.667 103.969C175.295 104.353 179.398 103.815 184.359 104.788C185.083 104.837 186.019 104.839 186.903 104.623C186.565 107.498 186.031 111.355 185.117 115.868C182.37 129.419 179.928 130.83 178.85 131.243C177.931 131.596 175.106 132.389 170.022 128.811C167.982 126.957 165.926 124.963 163.874 122.841C158.092 116.87 153.181 110.762 149.003 104.749C148.261 106.7 147.846 108.111 147.76 108.983C147.675 109.831 147.893 110.941 148.325 112.476C148.337 112.517 148.283 112.517 148.164 112.476L144.792 107.815C145.16 107.216 145.884 105.189 146.963 101.734C145.348 99.2821 143.852 96.8524 142.467 94.4612L137.588 88.7657C137.145 88.2266 137.184 87.4292 137.733 86.9638L138.221 86.5764C138.441 86.3903 138.7 86.2936 138.962 86.2775L138.631 85.8915C138.188 85.3523 138.227 84.555 138.776 84.0896L139.264 83.7022C139.621 83.3999 140.078 83.3199 140.482 83.4514C140.403 83.0208 140.542 82.5628 140.909 82.2524L141.396 81.865C141.945 81.3997 142.745 81.4928 143.198 82.0101L143.707 82.6039C143.325 80.9488 143.461 79.3812 145.046 78.8633C145.046 78.8633 146.363 81.36 147.956 84.3529L145.175 84.318L149.085 88.8828Z" fill="#F2A98A"/>
<path d="M178.521 66.464C178.609 66.9242 178.679 67.3626 178.77 67.8022C179.103 67.8678 179.459 67.9586 179.858 68.1478C180.14 68.2828 182.067 69.1293 182.869 70.8067C184.017 73.2236 182.782 77.0548 179.077 79.3857C178.879 79.4956 178.707 79.5587 178.707 79.5587C178.07 79.7898 177.467 79.8064 176.841 79.8217C176.722 79.8154 176.576 79.8318 176.576 79.8318C175.266 79.7471 173.87 79.6561 172.389 79.5587C171.563 79.4256 171.035 78.7191 170.807 77.439C170.744 77.0898 170.719 76.6621 170.708 76.1804C170.645 75.2916 170.531 73.6684 170.451 72.3683C171.25 72.2657 171.99 71.8958 172.549 71.324C173.436 70.4566 173.721 69.1489 173.327 67.9498C172.909 66.7495 171.709 65.7968 170.552 65.8324C170.118 65.8578 169.702 66.0043 169.305 66.224C168.806 66.5826 168.374 67.0169 168.104 67.5799L166.924 70.3558L166.945 70.3737C166.929 70.3759 166.914 70.3775 166.899 70.3786C164.747 70.6024 163.802 62.4726 159.21 61.0776C158.145 60.7572 156.989 60.8682 156.332 61.0261C158.308 57.2085 164.61 58.0191 164.73 58.0254C166.161 58.2447 167.492 58.6017 168.26 58.6419C172.044 58.9365 173.532 58.5335 175.4 59.5933C176.101 59.9908 176.748 60.5056 177.217 61.1796C178.478 62.9416 178.611 65.035 178.521 66.464ZM158.236 68.0074C157.999 67.9469 157.943 67.6313 158.12 67.4722C158.37 67.2929 158.764 67.1212 159.242 67.1703C160.271 67.2723 161.291 67.9991 160.151 68.1799C159.471 68.3126 158.71 68.1524 158.236 68.0074ZM154.164 67.6978C153.928 67.6133 153.897 67.299 154.12 67.1664C154.393 67.0123 154.761 66.8633 155.285 66.9629C156.286 67.1356 157.253 67.9559 156.069 68.0621C155.345 68.1204 154.636 67.8668 154.164 67.6978Z" fill="#482D1F"/>
<path d="M156.12 68.9859C156.109 68.8537 156.207 68.7377 156.339 68.7268C156.471 68.7158 156.587 68.8141 156.598 68.9463L156.716 70.3714L156.717 70.4015L156.607 72.9443C156.615 72.9733 156.637 72.9934 156.668 72.998C156.751 72.9941 156.835 72.9962 156.928 73.0034C157 73.009 157.055 73.0151 157.182 73.0308C157.551 73.0762 157.712 73.0766 157.92 73.01C158.047 72.9695 158.182 73.0392 158.222 73.1655C158.263 73.2918 158.193 73.427 158.067 73.4674C157.773 73.5615 157.558 73.561 157.123 73.5075C157.003 73.4927 156.953 73.4871 156.89 73.4822C156.811 73.4761 156.743 73.4747 156.678 73.4785L156.652 73.4785C156.372 73.4639 156.158 73.2529 156.128 72.9856L156.126 72.9482L156.236 70.3959L156.12 68.9859Z" fill="#482D1F"/>
<path d="M158.48 75.1753C158.648 75.1542 159.082 75.0657 159.183 74.8032C159.184 74.7552 159.233 74.684 159.21 74.6356C159.14 74.5143 158.396 74.5013 158.396 74.5013C157.411 74.5081 157.171 74.4559 157.097 74.5747C157.072 74.6463 157.07 74.7423 157.235 74.9614C157.42 75.3729 158.215 75.2187 158.48 75.1753Z" fill="#482D1F"/>
<path d="M165.073 79.0613L167.059 78.3477L165.324 80.4672L165.073 79.0613Z" fill="#482D1F"/>
<path d="M155.757 70.8111C155.444 71.2757 154.686 70.1297 154.895 69.3471C154.961 69.0139 155.182 68.9292 155.351 68.9141C155.615 68.9279 155.893 69.1348 155.9 69.4479C155.951 69.8593 155.988 70.5346 155.757 70.8111ZM159.656 70.9325C159.319 71.3959 158.585 70.2512 158.795 69.4685C158.86 69.1353 159.081 69.0507 159.25 69.0355C159.514 69.0493 159.792 69.2563 159.799 69.5693C159.85 69.9808 159.911 70.6573 159.656 70.9325Z" fill="#482D1F"/>
<path d="M122.351 74.585C121.729 75.0367 121.591 75.9089 122.043 76.5306L142.638 104.878C143.09 105.499 143.962 105.638 144.584 105.186C145.206 104.734 145.344 103.862 144.892 103.24L124.297 74.8932C123.845 74.2714 122.973 74.1333 122.351 74.585Z" fill="#474961"/>
<path opacity="0.2" d="M146.992 101.824C145.907 105.298 145.18 107.335 144.811 107.936L148.184 112.597C148.303 112.638 148.356 112.638 148.345 112.597C147.913 111.062 147.694 109.952 147.779 109.104C147.867 108.222 148.29 106.79 149.047 104.806L146.992 101.824Z" fill="#8C2A00"/>
<path d="M170.338 98.231C170.322 98.2534 170.292 98.2989 170.25 98.3652C170.178 98.4774 170.1 98.6053 170.02 98.7464C169.708 99.2892 169.443 99.8614 169.271 100.418C168.814 101.899 169.11 102.855 170.454 103.204C170.647 103.254 170.763 103.45 170.713 103.643C170.663 103.835 170.466 103.951 170.273 103.901C168.452 103.429 168.019 102.031 168.583 100.205C168.772 99.5914 169.059 98.9734 169.395 98.3881C169.481 98.2367 169.565 98.0991 169.642 97.9777C169.689 97.9038 169.725 97.851 169.745 97.8217C169.858 97.658 170.082 97.6169 170.246 97.7299C170.41 97.843 170.451 98.0673 170.338 98.231Z" fill="#482D1F"/>
</g>
<defs>
<clipPath id="clip0_12515_6103">
<rect x="1.19922" width="124.642" height="63.4016" rx="5" fill="white"/>
</clipPath>
<clipPath id="clip1_12515_6103">
<rect width="200.772" height="91.9803" fill="white" transform="translate(25.457 84.7734)"/>
</clipPath>
<clipPath id="clip2_12515_6103">
<rect width="244" height="105.669" fill="white" transform="translate(0 41.0664)"/>
</clipPath>
</defs>
</svg>
