<svg width="17" height="20" viewBox="0 0 17 20" fill="none" xmlns="http://www.w3.org/2000/svg">
<path d="M13.7394 0H2.4375C1.79103 0 1.17105 0.225382 0.713927 0.626564C0.256807 1.02775 0 1.57187 0 2.13922V19.253C0.000392202 19.382 0.0406493 19.5085 0.116483 19.619C0.192316 19.7295 0.300886 19.8199 0.430625 19.8805C0.557678 19.9378 0.699681 19.9646 0.842326 19.9584C0.98497 19.9521 1.12321 19.9129 1.24313 19.8449L8.125 15.8302L14.9906 19.8449C15.1128 19.9155 15.2545 19.9558 15.4007 19.9617C15.5468 19.9675 15.6921 19.9386 15.8211 19.8779C15.9501 19.8173 16.058 19.7273 16.1335 19.6173C16.209 19.5073 16.2492 19.3814 16.25 19.253V2.2034C16.25 1.61902 15.9855 1.05858 15.5147 0.645361C15.0438 0.232143 14.4052 0 13.7394 0Z" fill="#D93737"/>
</svg>
