<svg width="17" height="20" viewBox="0 0 17 20" fill="none" xmlns="http://www.w3.org/2000/svg">
<path d="M13.7394 0H2.4375C1.79103 0 1.17105 0.225379 0.713927 0.626556C0.256807 1.02773 0 1.57185 0 2.1392V19.2528C0.000392202 19.3818 0.0406493 19.5083 0.116483 19.6188C0.192316 19.7293 0.300886 19.8196 0.430625 19.8803C0.557678 19.9375 0.699681 19.9644 0.842326 19.9581C0.98497 19.9519 1.12321 19.9127 1.24313 19.8446L8.125 15.8301L14.9906 19.8446C15.1128 19.9152 15.2545 19.9556 15.4007 19.9614C15.5468 19.9672 15.6921 19.9383 15.8211 19.8777C15.9501 19.8171 16.058 19.727 16.1335 19.617C16.209 19.507 16.2492 19.3812 16.25 19.2528V2.20337C16.25 1.619 15.9855 1.05857 15.5147 0.645353C15.0438 0.23214 14.4052 0 13.7394 0ZM14.625 17.9193L8.57187 14.354C8.43921 14.2773 8.28385 14.2365 8.125 14.2365C7.96615 14.2365 7.81079 14.2773 7.67812 14.354L1.625 17.9193V2.1392C1.625 1.95008 1.7106 1.76871 1.86298 1.63498C2.01535 1.50126 2.22201 1.42613 2.4375 1.42613H13.7312C13.8482 1.42519 13.9643 1.4446 14.0727 1.48324C14.181 1.52187 14.2796 1.57898 14.3627 1.65124C14.4458 1.72351 14.5118 1.80951 14.5568 1.90428C14.6018 1.99905 14.625 2.1007 14.625 2.20337V17.9193Z" fill="black"/>
</svg>
