<svg width="273" height="202" viewBox="0 0 273 202" fill="none" xmlns="http://www.w3.org/2000/svg">
<g filter="url(#filter0_d_9662_2466)">
<rect x="28" y="28" width="216.338" height="145.187" rx="10" fill="white"/>
</g>
<rect opacity="0.1" x="84" y="108" width="10" height="7" rx="3.5" fill="url(#paint0_linear_9662_2466)"/>
<rect opacity="0.1" x="84" y="121" width="10" height="7" rx="3.5" fill="url(#paint1_linear_9662_2466)"/>
<rect opacity="0.1" x="84" y="134" width="10" height="7" rx="3.5" fill="url(#paint2_linear_9662_2466)"/>
<rect opacity="0.1" x="100" y="108" width="10" height="7" rx="3.5" fill="url(#paint3_linear_9662_2466)"/>
<rect opacity="0.1" x="100" y="121" width="10" height="7" rx="3.5" fill="url(#paint4_linear_9662_2466)"/>
<rect opacity="0.1" x="100" y="134" width="10" height="7" rx="3.5" fill="url(#paint5_linear_9662_2466)"/>
<rect opacity="0.1" x="116" y="108" width="10" height="7" rx="3.5" fill="url(#paint6_linear_9662_2466)"/>
<rect opacity="0.1" x="116" y="121" width="10" height="7" rx="3.5" fill="url(#paint7_linear_9662_2466)"/>
<rect opacity="0.1" x="116" y="134" width="10" height="7" rx="3.5" fill="url(#paint8_linear_9662_2466)"/>
<rect opacity="0.1" x="131" y="108" width="11" height="7" rx="3.5" fill="url(#paint9_linear_9662_2466)"/>
<rect opacity="0.1" x="131" y="121" width="11" height="7" rx="3.5" fill="url(#paint10_linear_9662_2466)"/>
<rect opacity="0.1" x="131" y="134" width="11" height="7" rx="3.5" fill="url(#paint11_linear_9662_2466)"/>
<rect opacity="0.1" x="147" y="108" width="10" height="7" rx="3.5" fill="url(#paint12_linear_9662_2466)"/>
<rect opacity="0.1" x="147" y="121" width="10" height="7" rx="3.5" fill="url(#paint13_linear_9662_2466)"/>
<rect opacity="0.1" x="147" y="134" width="10" height="7" rx="3.5" fill="url(#paint14_linear_9662_2466)"/>
<rect opacity="0.1" x="163" y="108" width="10" height="7" rx="3.5" fill="url(#paint15_linear_9662_2466)"/>
<rect opacity="0.1" x="163" y="121" width="10" height="7" rx="3.5" fill="url(#paint16_linear_9662_2466)"/>
<rect opacity="0.1" x="179" y="108" width="10" height="7" rx="3.5" fill="url(#paint17_linear_9662_2466)"/>
<rect opacity="0.1" x="179" y="121" width="10" height="7" rx="3.5" fill="url(#paint18_linear_9662_2466)"/>
<rect opacity="0.6" x="120" y="151" width="25" height="11" rx="5.5" fill="url(#paint19_linear_9662_2466)"/>
<g clip-path="url(#clip0_9662_2466)">
<path d="M48.4046 75.4799C48.4046 65.7277 56.3103 57.822 66.0624 57.822V57.822C75.8146 57.822 83.7203 65.7277 83.7203 75.4799V75.4799C83.7203 85.232 75.8146 93.1377 66.0624 93.1377V93.1377C56.3103 93.1377 48.4046 85.232 48.4046 75.4799V75.4799Z" fill="url(#paint20_linear_9662_2466)"/>
<path d="M69.8295 78.5405V81.1892C69.8295 81.6992 62.2954 81.5277 62.2954 80.7922C62.2954 80.1 62.3096 76.9633 62.2954 73.7361C60.6083 71.5493 60.6083 70.1824 61.9423 68.7698C63.2763 67.3572 72.7724 66.6509 72.7724 66.6509C72.7724 66.6509 73.4849 73.5033 73.5965 75.3621C73.6413 76.1096 74.1262 78.5405 72.2427 78.5405H69.8295Z" fill="url(#paint21_linear_9662_2466)"/>
<g style="mix-blend-mode:multiply">
<path d="M69.8266 78.3144C68.2929 78.147 66.8106 77.6629 65.4738 76.8926C65.4738 76.8926 66.4156 79.1292 69.8266 79.7362V78.3144Z" fill="#FFD7B8"/>
</g>
<path d="M78.4229 86.4637C79.17 87.9829 79.7586 90.4942 80.1887 93.9977H51.9362C52.3664 90.4938 52.955 87.9825 53.7019 86.4637C54.4464 84.9499 61.3537 82.0365 61.3537 82.0365C61.3537 82.0365 61.4912 80.7047 61.8245 80.5138C62.1579 80.3228 69.9032 80.3229 70.3003 80.5138C70.6974 80.7046 70.7712 82.0358 70.7712 82.0358C70.7712 82.0358 77.6799 84.9531 78.4229 86.4637Z" fill="url(#paint22_linear_9662_2466)"/>
<path d="M63.8281 70.2068C63.4538 69.8853 62.9989 69.6688 62.356 70.0029C60.8316 70.7943 61.8433 73.8477 63.5492 73.7881C64.1377 73.7676 63.8679 74.9406 62.2954 75.7153C62.2954 74.4793 60.4119 71.4186 60.2471 68.6319C58.3519 67.9262 58.8227 65.1025 60.1239 65.1025C59.9162 62.5137 64.0612 61.1767 65.6662 62.6622C67.2985 60.7058 71.4187 61.7064 71.6674 63.4037C74.5005 61.8913 76.3629 66.2386 73.7101 67.9262C72.6185 68.6207 70.0649 68.885 66.3788 68.885C64.6099 68.885 65.6271 73.0252 66.1802 74.3615C66.8865 76.0685 70.8301 76.3039 72.0661 76.1273C73.0314 75.9895 73.5376 75.5976 73.5965 75.3621C74.4794 77.7165 73.361 79.1292 71.5952 79.1292C68.5934 79.1292 65.5916 78.2463 65.1207 76.0685C64.7459 74.3353 64.7665 71.5382 63.8281 70.2068Z" fill="url(#paint23_linear_9662_2466)"/>
</g>
<rect opacity="0.75" x="93.1378" y="67.2397" width="54.1507" height="7.84793" rx="3.92396" fill="url(#paint24_linear_9662_2466)"/>
<rect opacity="0.5" x="93.1378" y="80.5811" width="26.683" height="3.13917" rx="1.56959" fill="url(#paint25_linear_9662_2466)"/>
<path d="M28 38C28 32.4772 32.4772 28 38 28H234.338C239.861 28 244.338 32.4772 244.338 38V47.23H28V38Z" fill="url(#paint26_linear_9662_2466)"/>
<path d="M154.918 56.3643H227.511" stroke="white"/>
<defs>
<filter id="filter0_d_9662_2466" x="0" y="0" width="272.338" height="201.187" filterUnits="userSpaceOnUse" color-interpolation-filters="sRGB">
<feFlood flood-opacity="0" result="BackgroundImageFix"/>
<feColorMatrix in="SourceAlpha" type="matrix" values="0 0 0 0 0 0 0 0 0 0 0 0 0 0 0 0 0 0 127 0" result="hardAlpha"/>
<feMorphology radius="4" operator="dilate" in="SourceAlpha" result="effect1_dropShadow_9662_2466"/>
<feOffset/>
<feGaussianBlur stdDeviation="12"/>
<feComposite in2="hardAlpha" operator="out"/>
<feColorMatrix type="matrix" values="0 0 0 0 0.282353 0 0 0 0 0.290196 0 0 0 0 0.619608 0 0 0 0.06 0"/>
<feBlend mode="normal" in2="BackgroundImageFix" result="effect1_dropShadow_9662_2466"/>
<feBlend mode="normal" in="SourceGraphic" in2="effect1_dropShadow_9662_2466" result="shape"/>
</filter>
<linearGradient id="paint0_linear_9662_2466" x1="84" y1="111.5" x2="94" y2="111.5" gradientUnits="userSpaceOnUse">
<stop stop-color="#141E30"/>
<stop offset="1" stop-color="#243B55"/>
</linearGradient>
<linearGradient id="paint1_linear_9662_2466" x1="84" y1="124.5" x2="94" y2="124.5" gradientUnits="userSpaceOnUse">
<stop stop-color="#141E30"/>
<stop offset="1" stop-color="#243B55"/>
</linearGradient>
<linearGradient id="paint2_linear_9662_2466" x1="84" y1="137.5" x2="94" y2="137.5" gradientUnits="userSpaceOnUse">
<stop stop-color="#141E30"/>
<stop offset="1" stop-color="#243B55"/>
</linearGradient>
<linearGradient id="paint3_linear_9662_2466" x1="100" y1="111.5" x2="110" y2="111.5" gradientUnits="userSpaceOnUse">
<stop stop-color="#141E30"/>
<stop offset="1" stop-color="#243B55"/>
</linearGradient>
<linearGradient id="paint4_linear_9662_2466" x1="100" y1="124.5" x2="110" y2="124.5" gradientUnits="userSpaceOnUse">
<stop stop-color="#141E30"/>
<stop offset="1" stop-color="#243B55"/>
</linearGradient>
<linearGradient id="paint5_linear_9662_2466" x1="100" y1="137.5" x2="110" y2="137.5" gradientUnits="userSpaceOnUse">
<stop stop-color="#141E30"/>
<stop offset="1" stop-color="#243B55"/>
</linearGradient>
<linearGradient id="paint6_linear_9662_2466" x1="116" y1="111.5" x2="126" y2="111.5" gradientUnits="userSpaceOnUse">
<stop stop-color="#141E30"/>
<stop offset="1" stop-color="#243B55"/>
</linearGradient>
<linearGradient id="paint7_linear_9662_2466" x1="116" y1="124.5" x2="126" y2="124.5" gradientUnits="userSpaceOnUse">
<stop stop-color="#141E30"/>
<stop offset="1" stop-color="#243B55"/>
</linearGradient>
<linearGradient id="paint8_linear_9662_2466" x1="116" y1="137.5" x2="126" y2="137.5" gradientUnits="userSpaceOnUse">
<stop stop-color="#141E30"/>
<stop offset="1" stop-color="#243B55"/>
</linearGradient>
<linearGradient id="paint9_linear_9662_2466" x1="131" y1="111.5" x2="142" y2="111.5" gradientUnits="userSpaceOnUse">
<stop stop-color="#141E30"/>
<stop offset="1" stop-color="#243B55"/>
</linearGradient>
<linearGradient id="paint10_linear_9662_2466" x1="131" y1="124.5" x2="142" y2="124.5" gradientUnits="userSpaceOnUse">
<stop stop-color="#141E30"/>
<stop offset="1" stop-color="#243B55"/>
</linearGradient>
<linearGradient id="paint11_linear_9662_2466" x1="131" y1="137.5" x2="142" y2="137.5" gradientUnits="userSpaceOnUse">
<stop stop-color="#141E30"/>
<stop offset="1" stop-color="#243B55"/>
</linearGradient>
<linearGradient id="paint12_linear_9662_2466" x1="147" y1="111.5" x2="157" y2="111.5" gradientUnits="userSpaceOnUse">
<stop stop-color="#141E30"/>
<stop offset="1" stop-color="#243B55"/>
</linearGradient>
<linearGradient id="paint13_linear_9662_2466" x1="147" y1="124.5" x2="157" y2="124.5" gradientUnits="userSpaceOnUse">
<stop stop-color="#141E30"/>
<stop offset="1" stop-color="#243B55"/>
</linearGradient>
<linearGradient id="paint14_linear_9662_2466" x1="147" y1="137.5" x2="157" y2="137.5" gradientUnits="userSpaceOnUse">
<stop stop-color="#141E30"/>
<stop offset="1" stop-color="#243B55"/>
</linearGradient>
<linearGradient id="paint15_linear_9662_2466" x1="163" y1="111.5" x2="173" y2="111.5" gradientUnits="userSpaceOnUse">
<stop stop-color="#141E30"/>
<stop offset="1" stop-color="#243B55"/>
</linearGradient>
<linearGradient id="paint16_linear_9662_2466" x1="163" y1="124.5" x2="173" y2="124.5" gradientUnits="userSpaceOnUse">
<stop stop-color="#141E30"/>
<stop offset="1" stop-color="#243B55"/>
</linearGradient>
<linearGradient id="paint17_linear_9662_2466" x1="179" y1="111.5" x2="189" y2="111.5" gradientUnits="userSpaceOnUse">
<stop stop-color="#141E30"/>
<stop offset="1" stop-color="#243B55"/>
</linearGradient>
<linearGradient id="paint18_linear_9662_2466" x1="179" y1="124.5" x2="189" y2="124.5" gradientUnits="userSpaceOnUse">
<stop stop-color="#141E30"/>
<stop offset="1" stop-color="#243B55"/>
</linearGradient>
<linearGradient id="paint19_linear_9662_2466" x1="120" y1="156.5" x2="145" y2="156.5" gradientUnits="userSpaceOnUse">
<stop stop-color="#AA076B"/>
<stop offset="1" stop-color="#61045F"/>
</linearGradient>
<linearGradient id="paint20_linear_9662_2466" x1="66.0624" y1="57.822" x2="66.0624" y2="93.1377" gradientUnits="userSpaceOnUse">
<stop stop-color="#EAEAEA"/>
<stop offset="1" stop-color="#ECECEC"/>
</linearGradient>
<linearGradient id="paint21_linear_9662_2466" x1="67.3335" y1="66.6509" x2="67.3335" y2="81.4819" gradientUnits="userSpaceOnUse">
<stop stop-color="#FFD4B3"/>
<stop offset="1" stop-color="#FFDCC2"/>
</linearGradient>
<linearGradient id="paint22_linear_9662_2466" x1="51.9362" y1="87.1842" x2="80.1887" y2="87.1842" gradientUnits="userSpaceOnUse">
<stop stop-color="#606C88"/>
<stop offset="1" stop-color="#3F4C6B"/>
</linearGradient>
<linearGradient id="paint23_linear_9662_2466" x1="66.9864" y1="79.1292" x2="66.9864" y2="61.5884" gradientUnits="userSpaceOnUse">
<stop/>
<stop offset="1"/>
</linearGradient>
<linearGradient id="paint24_linear_9662_2466" x1="93.1378" y1="71.1637" x2="147.289" y2="71.1637" gradientUnits="userSpaceOnUse">
<stop stop-color="#AA076B"/>
<stop offset="1" stop-color="#61045F"/>
</linearGradient>
<linearGradient id="paint25_linear_9662_2466" x1="93.1378" y1="82.1506" x2="119.821" y2="82.1506" gradientUnits="userSpaceOnUse">
<stop stop-color="#AA076B"/>
<stop offset="1" stop-color="#61045F"/>
</linearGradient>
<linearGradient id="paint26_linear_9662_2466" x1="28" y1="37.615" x2="244.338" y2="37.615" gradientUnits="userSpaceOnUse">
<stop stop-color="#AA076B"/>
<stop offset="1" stop-color="#61045F"/>
</linearGradient>
<clipPath id="clip0_9662_2466">
<path d="M48.4046 75.4799C48.4046 65.7277 56.3103 57.822 66.0624 57.822V57.822C75.8146 57.822 83.7203 65.7277 83.7203 75.4799V75.4799C83.7203 85.232 75.8146 93.1377 66.0624 93.1377V93.1377C56.3103 93.1377 48.4046 85.232 48.4046 75.4799V75.4799Z" fill="white"/>
</clipPath>
</defs>
</svg>
