<svg width="224" height="209" viewBox="0 0 224 209" fill="none" xmlns="http://www.w3.org/2000/svg">
<path d="M183.881 20H113.544C111.182 20 109.268 21.9143 109.268 24.2758V76.2268C109.268 78.5883 111.182 80.5026 113.544 80.5026H183.881C186.242 80.5026 188.157 78.5883 188.157 76.2268V24.2758C188.157 21.9143 186.242 20 183.881 20Z" fill="white"/>
<path d="M115.005 40.341H142.308C142.898 40.341 143.377 40.8196 143.377 41.41V42.2005C143.377 42.7909 142.898 43.2694 142.308 43.2694H115.005C114.415 43.2694 113.936 42.7909 113.936 42.2005V41.41C113.936 40.8196 114.415 40.341 115.005 40.341ZM115.005 45.0997H145.988C146.578 45.0997 147.057 45.5783 147.057 46.1687V46.9592C147.057 47.5496 146.578 48.0281 145.988 48.0281H115.005C114.415 48.0281 113.936 47.5496 113.936 46.9592V46.1687C113.936 45.5783 114.415 45.0997 115.005 45.0997ZM115.005 54.6171H149.668C150.258 54.6171 150.737 55.0957 150.737 55.6861V56.4766C150.737 57.067 150.258 57.5456 149.668 57.5456H115.005C114.415 57.5456 113.936 57.067 113.936 56.4766V55.6861C113.936 55.0957 114.415 54.6171 115.005 54.6171ZM115.005 59.3758H138.628C139.218 59.3758 139.696 59.8544 139.696 60.4448V61.2353C139.696 61.8257 139.218 62.3043 138.628 62.3043H115.005C114.415 62.3043 113.936 61.8257 113.936 61.2353V60.4448C113.936 59.8544 114.415 59.3758 115.005 59.3758ZM115.005 64.1345H145.988C146.578 64.1345 147.057 64.6131 147.057 65.2035V65.994C147.057 66.5844 146.578 67.063 145.988 67.063H115.005C114.415 67.063 113.936 66.5844 113.936 65.994V65.2035C113.936 64.6131 114.415 64.1345 115.005 64.1345ZM115.005 68.8932H149.668C150.258 68.8932 150.737 69.3718 150.737 69.9622V70.7527C150.737 71.3431 150.258 71.8217 149.668 71.8217H115.005C114.415 71.8217 113.936 71.3431 113.936 70.7527V69.9622C113.936 69.3718 114.415 68.8932 115.005 68.8932Z" fill="#E1E5F0"/>
<path d="M149.668 35.7089H115.005C114.415 35.7089 113.936 36.1875 113.936 36.7779V37.3647C113.936 37.9551 114.415 38.4337 115.005 38.4337H149.668C150.258 38.4337 150.737 37.9551 150.737 37.3647V36.7779C150.737 36.1875 150.258 35.7089 149.668 35.7089Z" fill="#D8DEED"/>
<path d="M160.528 40.341H184.287C184.877 40.341 185.356 40.8196 185.356 41.41V42.2403C185.356 42.8307 184.877 43.3093 184.287 43.3093H160.528C159.938 43.3093 159.459 42.8307 159.459 42.2403V41.41C159.459 40.8196 159.938 40.341 160.528 40.341ZM160.528 45.1644H176.888C177.478 45.1644 177.957 45.643 177.957 46.2334V47.0637C177.957 47.6541 177.478 48.1327 176.888 48.1327H160.528C159.938 48.1327 159.459 47.6541 159.459 47.0637V46.2334C159.459 45.643 159.938 45.1644 160.528 45.1644ZM160.528 49.9878H180.588C181.178 49.9878 181.656 50.4664 181.656 51.0568V51.8871C181.656 52.4775 181.178 52.9561 180.588 52.9561H160.528C159.938 52.9561 159.459 52.4775 159.459 51.8871V51.0568C159.459 50.4664 159.938 49.9878 160.528 49.9878ZM160.528 54.8112H173.189C173.779 54.8112 174.257 55.2898 174.257 55.8802V56.7105C174.257 57.3009 173.779 57.7795 173.189 57.7795H160.528C159.938 57.7795 159.459 57.3009 159.459 56.7105V55.8802C159.459 55.2898 159.938 54.8112 160.528 54.8112Z" fill="#E1E5F0"/>
<path d="M109.268 23.4218C109.268 21.532 110.8 20.0001 112.69 20.0001H184.736C186.625 20.0001 188.157 21.5316 188.157 23.4218V26.8435H109.268V23.4218Z" fill="#282828"/>
<path d="M133.773 189.588L133.836 189.62C134.165 189.792 134.588 189.698 134.745 189.4L153.098 155.688C153.27 155.375 153.129 154.983 152.8 154.811L152.737 154.779C152.408 154.607 151.985 154.701 151.828 154.999L147.283 163.337C144.321 168.791 141.359 174.229 138.381 179.683L133.475 188.679C133.303 188.993 133.444 189.4 133.773 189.588Z" fill="#D8DEED"/>
<path d="M179.334 154.231H167.846C160.887 154.231 153.928 154.231 146.985 154.231H136.328C135.952 154.231 135.623 154.544 135.623 154.92V154.999C135.623 155.375 135.936 155.688 136.328 155.688H179.365C179.741 155.688 180.071 155.375 180.071 154.999V154.92C180.071 154.544 179.741 154.231 179.334 154.231Z" fill="#D8DEED"/>
<path d="M180.023 151.174V139.906C180.023 133.072 180.023 126.255 180.023 119.437V108.983C180.023 108.607 173.519 108.294 165.699 108.294H164.069C156.264 108.294 149.744 108.607 149.744 108.983V151.206C149.744 151.582 156.248 151.895 164.069 151.895H165.699C173.504 151.895 180.023 151.566 180.023 151.174Z" fill="#D8DEED"/>
<path d="M184.945 188.679L180.039 179.683C177.077 174.229 174.115 168.791 171.137 163.337L166.592 154.999C166.435 154.701 166.012 154.591 165.683 154.779L165.62 154.811C165.291 154.983 165.15 155.39 165.323 155.688L183.675 189.4C183.832 189.698 184.255 189.808 184.584 189.62L184.647 189.588C184.976 189.4 185.117 188.993 184.945 188.679Z" fill="#D8DEED"/>
<path d="M120.686 189.675H145.59C145.982 189.675 146.296 189.362 146.296 188.97C146.296 188.578 145.982 188.265 145.59 188.265H120.686C120.294 188.265 119.981 188.578 119.981 188.97C119.981 189.362 120.294 189.675 120.686 189.675ZM166.529 189.675C166.921 189.675 167.234 189.404 167.234 189.079V188.862C167.234 188.536 166.905 188.265 166.529 188.265H150.465C150.073 188.265 149.759 188.536 149.759 188.862V189.079C149.759 189.404 150.088 189.675 150.465 189.675H166.529Z" fill="#A339FF"/>
<path d="M120.452 188.316C120.534 188.283 120.624 188.265 120.718 188.265H145.622C145.722 188.265 145.817 188.285 145.903 188.322C145.924 188.251 145.935 188.176 145.935 188.097L145.414 178.55L134.62 178.391C134.447 178.391 134.291 178.439 134.149 178.55C132.363 180.488 130.654 181.568 129.416 182.204C128.46 182.696 125.263 184.062 123.821 184.73C123.378 184.93 122.721 185.291 121.852 185.811C121.645 185.935 121.459 186.089 121.3 186.27C120.849 186.778 120.566 187.234 120.451 187.637C120.42 187.732 120.42 187.811 120.404 187.907C120.389 187.986 120.404 188.066 120.404 188.145V188.161C120.416 188.215 120.432 188.267 120.452 188.316ZM150.16 188.337C150.26 188.291 150.374 188.265 150.496 188.265H166.328L162.69 178.563L151.468 180.084L150.16 188.337Z" fill="#474961"/>
<path d="M146.453 151.126C146.905 151.351 147.327 151.561 147.719 151.756L147.8 152.996C147.894 154.624 148.004 156.053 148.129 157.313C148.223 158.304 149.43 169.53 149.869 173.649C149.963 174.584 150.637 175.377 151.562 175.631C152.956 176.028 153.85 176.254 157.47 176.382C157.705 176.396 157.94 176.382 158.16 176.367C161.671 176.084 163.426 175.575 163.818 175.405C164.319 175.193 164.586 175.093 164.852 174.853C165.792 174.032 165.73 172.729 165.745 172.248C165.825 169.181 166.038 160.921 166.103 153.815C166.197 153.815 166.292 153.816 166.388 153.816C167.28 153.816 168.138 153.44 168.929 152.782C169.938 151.935 173.488 149.136 173.708 143.248C173.861 139.151 173.147 136.039 171.568 133.912C171.568 133.896 169.601 130.793 168.406 130.793H150.81C149.588 130.835 144.128 130.976 134.431 131.217L134.437 131.255C134.383 131.254 134.329 131.252 134.275 131.251C130.309 131.178 127.096 134.34 127.19 138.201C127.19 138.23 127.19 138.244 127.19 138.273C127.441 150.249 130.372 167.309 130.576 173.079C130.591 173.297 130.654 173.778 130.983 174.288C132.002 175.847 134.384 175.497 139.948 175.628C144.681 175.745 146.593 176.094 147.565 174.812C148.098 174.113 148.082 173.312 148.067 172.947C147.679 165.638 147.115 158.26 146.453 151.126Z" fill="#474BFF"/>
<path opacity="0.176986" d="M146.487 151.096C146.939 151.32 147.361 151.53 147.753 151.725L147.034 140.745C147.018 140.108 146.94 136.257 150.059 133.808C152.332 132.039 155.09 131.925 156.924 131.855C159.745 131.741 161.939 132.478 162.362 132.619C162.895 132.803 163.161 132.902 163.428 133.03C166.468 134.502 166.233 141.58 166.202 142.868C166.171 144.496 166.155 147.03 166.155 149.975C166.155 151.172 166.148 152.45 166.136 153.768C166.22 153.769 166.304 153.769 166.388 153.769C167.28 153.769 168.138 153.393 168.929 152.735C169.938 151.888 173.488 149.089 173.708 143.201C173.861 139.104 173.147 135.992 171.568 133.865C171.568 133.849 169.601 130.746 168.406 130.746H150.81C149.619 130.786 144.274 130.947 134.774 131.228C135.932 131.253 137.081 131.279 138.242 131.305C141.768 131.392 144.699 134 145.075 137.409C145.573 141.806 146.051 146.398 146.487 151.096Z" fill="#444444"/>
<path d="M146.384 112.692C144.08 110.968 138.124 106.282 138.124 106.282C136.181 108.037 140.851 111.187 140.851 111.187" fill="#FFC3A8"/>
<path d="M149.819 107.551C149.583 108.168 149.393 108.8 149.247 109.449C148.38 113.31 146.963 115.583 147.939 117.431C148.515 118.521 149.622 118.848 150.48 118.939L151.069 126.306C151.303 128.301 151.459 129.411 151.538 129.636C151.523 131.48 153.84 131.01 158.152 131.01C163.17 131.01 169.864 131.686 170.263 129.829C170.623 128.155 170.537 124.645 170.005 119.298C171.748 118.842 173.031 118.053 173.358 117.415C174.279 115.642 173.223 112.776 172.046 109.561C170.627 105.706 169.858 103.809 168.122 102.242C166.685 100.948 165.115 100.501 163.792 100.751C162.724 100.321 161.551 100.131 160.339 100.238L156.903 100.541C153.244 100.836 150.41 103.897 149.819 107.551Z" fill="#A339FF"/>
<path opacity="0.176986" d="M149.711 107.78C149.509 108.334 149.343 108.902 149.213 109.482C148.346 113.343 146.929 115.616 147.905 117.464C148.474 118.54 149.561 118.873 150.414 118.969L150.377 118.501L150.366 118.345L149.685 109.956L149.665 109.674C149.611 109.034 149.629 108.4 149.711 107.78Z" fill="#444444"/>
<path d="M161.848 100.257C161.577 99.3468 161.187 97.8421 160.678 95.7431L160.633 94.8599C160.664 94.6875 160.693 94.6819 160.85 94.6349C161.258 94.5252 161.477 94.2606 161.759 93.9472C162.276 93.3516 162.417 92.474 162.166 91.6746C161.853 90.9067 161.038 90.3268 160.286 90.3895C160.004 90.4208 159.737 90.5305 159.486 90.6873L159.471 90.7029C159.392 90.7813 159.283 90.797 159.173 90.8126C158.906 90.8126 158.687 90.6246 158.671 90.3581L158.53 86.2675C158.53 86.0011 158.327 85.813 158.06 85.813C157.48 85.813 156.916 85.7817 156.336 85.6563C156.258 85.6563 156.195 85.6406 156.132 85.6406C155.568 85.5779 152.543 85.3899 150.913 87.6311C150.772 87.8505 150.631 88.0699 150.522 88.2893C150.239 88.8535 150.114 89.4805 150.161 90.1387L150.333 92.9912C150.365 93.2733 150.396 93.5554 150.459 93.8532C151.211 97.3795 152.81 99.8245 154.158 99.9028C154.847 99.9185 155.537 99.8402 156.211 99.6364C156.295 99.5945 156.241 99.6273 157.183 99.2465L157.375 100.284C155.504 100.588 154.463 101.184 154.349 101.242C154.682 101.61 154.729 101.734 155.017 101.967C158.236 104.568 163.462 101.143 164.121 100.704C163.317 100.497 162.559 100.352 161.848 100.257ZM148.1 121.853L147.848 123.654L135.404 126.003C135.036 125.94 134.681 125.905 134.338 125.895C133.16 125.846 132.145 126.074 131.458 126.254C129.74 126.172 128.038 126.074 126.336 125.993C124.945 125.666 121.835 125.176 121.737 127.136C121.737 127.136 123.079 127.496 124.895 127.969C125.32 128.08 125.772 128.198 126.238 128.319C128.647 129.15 131.799 130.866 133.614 131.447L152.208 130.799C151.927 130.454 151.718 130.063 151.593 129.623C151.514 129.398 151.358 128.288 151.125 126.293L150.9 123.484C154.296 125.415 157.449 127.03 160.36 128.33C162.125 129.118 164.281 129.736 166.011 130.327C170.043 131.148 170.805 129.696 171.265 129.22C171.801 128.666 173.586 127.092 172.782 118.057C171.321 119.155 167.831 120.224 164.348 119.278C163.448 119.033 162.643 118.802 161.935 118.584L161.991 119.129L143.374 111.315C143.329 111.281 143.281 111.25 143.229 111.224L137.853 108.669C137.445 108.481 136.944 108.653 136.74 109.061L136.552 109.421C136.361 109.818 136.514 110.27 136.87 110.493C136.491 110.413 136.116 110.591 135.956 110.951L135.768 111.312C135.608 111.644 135.69 112.015 135.93 112.258C135.725 112.32 135.542 112.459 135.429 112.665L135.222 113.015C134.997 113.427 135.159 113.922 135.555 114.147L138.362 115.665C141.791 117.966 145.037 120.028 148.1 121.853ZM134.574 175.496L134.432 178.597L145.414 179.445L145.366 175.688C144.165 175.767 142.46 175.642 139.982 175.581C137.676 175.527 135.916 175.555 134.574 175.496ZM151.775 175.635L151.474 180.384L162.765 179.042L162.237 175.788C161.308 175.974 159.978 176.177 158.194 176.32C157.974 176.335 157.739 176.349 157.504 176.335C154.041 176.213 153.073 176 151.775 175.635Z" fill="#FFC3A8"/>
<path d="M161.077 97.4767C161.258 98.2842 161.419 98.9525 161.53 99.2916C161.778 99.2916 162.027 99.2916 162.276 99.2916C162.651 99.2916 164.005 99.1493 165.27 99.0722C165.27 99.0722 165.364 99.0722 165.442 99.0565C165.85 98.9938 166.241 98.9311 166.633 98.7274C166.633 98.7274 166.759 98.6804 166.868 98.5863C169.078 96.7683 169.564 94.1666 168.624 92.7091C167.95 91.6903 166.633 91.2985 166.445 91.2358C166.194 91.1575 165.944 91.1261 165.724 91.1104C165.639 90.8535 165.553 90.5836 165.467 90.3125C165.445 89.3977 165.241 88.1819 164.439 87.1766C164.11 86.7534 163.671 86.44 163.201 86.2049C161.947 85.5779 161.947 84.6376 159.471 84.5749C158.969 84.5749 157.238 84.3544 157.176 84.3544C154.622 84.1927 151.881 86.1522 150.864 87.7251C151.618 87.6102 152.23 87.6102 152.7 87.7251C155.741 88.4774 156.634 93.7435 158.029 93.524C158.042 93.5224 158.056 93.52 158.071 93.5168L158.06 93.5084L158.734 91.659C158.891 91.2828 159.157 90.9851 159.471 90.7343C159.722 90.5776 159.988 90.4679 160.27 90.4365C161.022 90.3738 161.837 90.9537 162.151 91.7217C162.202 91.8532 162.24 91.9875 162.265 92.1228C162.352 92.7882 162.181 93.4615 161.759 93.9472C161.735 93.9735 161.711 93.9993 161.687 94.0246L161.683 94.0293C161.355 94.368 160.928 94.6009 160.461 94.693C160.655 95.733 160.962 97.0902 161.077 97.4767ZM152.543 92.1605C152.857 92.2389 153.374 92.3172 153.797 92.2075C154.534 92.0508 153.844 91.612 153.17 91.5806C152.857 91.5649 152.606 91.6903 152.449 91.8157C152.34 91.9254 152.387 92.1292 152.543 92.1605ZM149.896 92.1609C150.218 92.2429 150.715 92.3411 151.16 92.2234C151.916 92.0472 151.217 91.6049 150.554 91.5842C150.206 91.5674 149.982 91.6972 149.82 91.8215C149.687 91.9275 149.736 92.1277 149.896 92.1609Z" fill="#313130"/>
<path opacity="0.2" d="M148.341 121.95C148.264 121.905 148.187 121.86 148.11 121.815L147.847 123.67L135.405 126.003C135.037 125.94 134.681 125.905 134.338 125.895C133.16 125.846 132.145 126.074 131.458 126.254C129.74 126.172 128.037 126.074 126.335 125.993C124.944 125.666 121.835 125.176 121.737 127.136C121.737 127.136 123.079 127.496 124.895 127.969C125.32 128.08 125.772 128.197 126.238 128.319C128.647 129.15 131.799 130.866 133.614 131.447L152.208 130.799C151.927 130.454 151.718 130.063 151.593 129.623C151.514 129.398 151.358 128.288 151.124 126.293L150.914 123.66L150.899 123.6L150.909 123.598L150.9 123.484L148.341 121.95Z" fill="#8C2A00"/>
<path d="M114.674 121.396C114.532 121.877 114.797 122.372 115.278 122.514L136.814 129.132C137.295 129.274 137.791 129.009 137.933 128.528C138.075 128.047 137.81 127.551 137.329 127.409L115.793 120.792C115.328 120.65 114.816 120.914 114.674 121.396Z" fill="#474961"/>
<path d="M157.19 99.2271L158.418 98.6777L157.42 100.509L157.19 99.2271Z" fill="#482D1F"/>
<path d="M151.039 94.0726C151.18 93.8845 151.133 93.4613 151.086 93.1792C151.07 92.9755 150.882 92.8501 150.709 92.8501C150.6 92.8658 150.459 92.9285 150.427 93.1479C150.318 93.6651 150.851 94.386 151.039 94.0726ZM153.625 94.0882C153.781 93.9002 153.719 93.4613 153.672 93.1949C153.656 92.9912 153.468 92.8658 153.295 92.8658C153.186 92.8814 153.045 92.9441 153.013 93.1636C152.904 93.6808 153.421 94.4017 153.625 94.0882Z" fill="#482D1F"/>
<path d="M151.312 93.8121L151.172 92.8995C151.159 92.8139 151.217 92.7339 151.303 92.7208C151.388 92.7077 151.468 92.7664 151.482 92.852L151.623 93.7743L151.625 93.7939L151.669 95.4543C151.676 95.4728 151.691 95.4848 151.711 95.4865C151.9 95.4624 152.145 95.4396 152.444 95.4181C152.53 95.4118 152.605 95.4768 152.612 95.5631C152.618 95.6494 152.553 95.7245 152.466 95.7307C152.167 95.7523 151.924 95.7751 151.74 95.7988L151.723 95.8001C151.539 95.8033 151.391 95.6757 151.359 95.503L151.356 95.4787L151.312 93.8121Z" fill="#482D1F"/>
<path d="M152.575 97.0034C152.684 96.9877 152.967 96.925 153.029 96.7526C153.029 96.7212 153.061 96.6742 153.045 96.6429C152.998 96.5645 152.512 96.5645 152.512 96.5645C151.869 96.5802 151.713 96.5488 151.666 96.6272C151.65 96.6742 151.65 96.7369 151.76 96.878C151.901 97.1444 152.418 97.0504 152.575 97.0034Z" fill="#482D1F"/>
<path d="M162.07 118.422L161.212 110.499C161.198 110.37 161.291 110.254 161.42 110.24C161.549 110.226 161.665 110.319 161.679 110.448L162.537 118.371C162.551 118.5 162.458 118.616 162.329 118.63C162.2 118.644 162.084 118.551 162.07 118.422Z" fill="#482D1F"/>
<path d="M171.251 130.384H111.583C111.295 130.384 111.061 130.878 111.061 131.488C111.061 132.098 111.295 132.592 111.583 132.592H171.251C171.539 132.592 171.773 132.098 171.773 131.488C171.773 130.878 171.539 130.384 171.251 130.384Z" fill="#D8DEED"/>
<path d="M124.675 45.9709H40.64C38.0774 45.9709 36 48.0483 36 50.6109V111.394C36 113.957 38.0774 116.034 40.64 116.034H124.675C127.238 116.034 129.315 113.957 129.315 111.394V50.6109C129.315 48.0483 127.238 45.9709 124.675 45.9709Z" fill="white"/>
<path d="M50.0305 110.583C45.3659 110.583 41.5845 106.764 41.5845 102.052C41.5845 97.3401 45.3659 93.5204 50.0305 93.5204C54.6951 93.5204 58.4765 97.3401 58.4765 102.052C58.4765 106.764 54.6951 110.583 50.0305 110.583ZM50.0489 102.016C50.6722 102.016 51.1774 101.512 51.1774 100.891C51.1774 100.269 50.6722 99.7655 50.0489 99.7655C49.4257 99.7655 48.9204 100.269 48.9204 100.891C48.9204 101.512 49.4257 102.016 50.0489 102.016ZM50.0489 102.579C48.9193 102.579 48.0035 103.492 48.0035 104.618H52.0943C52.0943 103.492 51.1786 102.579 50.0489 102.579Z" fill="#D8DEED"/>
<path d="M41.5845 61.3098C41.5845 60.7962 41.9988 60.3799 42.5133 60.3799H101.73C102.243 60.3799 102.659 60.7969 102.659 61.3098V86.6931C102.659 87.2067 102.245 87.623 101.73 87.623H42.5133C42.0003 87.623 41.5845 87.206 41.5845 86.6931V61.3098ZM64.5343 100.463H111.147C112.081 100.463 112.839 101.221 112.839 102.155C112.839 103.09 112.081 103.848 111.147 103.848H64.5343C63.5995 103.848 62.8416 103.09 62.8416 102.155C62.8416 101.221 63.5995 100.463 64.5343 100.463ZM64.5343 105.964H119.621C120.556 105.964 121.314 106.722 121.314 107.657C121.314 108.592 120.556 109.35 119.621 109.35H64.5343C63.5995 109.35 62.8416 108.592 62.8416 107.657C62.8416 106.722 63.5995 105.964 64.5343 105.964ZM64.5343 94.9613H99.2827C100.218 94.9613 100.975 95.7192 100.975 96.654C100.975 97.5889 100.218 98.3468 99.2827 98.3468H64.5343C63.5995 98.3468 62.8416 97.5889 62.8416 96.654C62.8416 95.7192 63.5995 94.9613 64.5343 94.9613ZM36 49.9334C36 47.745 37.7739 45.9709 39.9614 45.9709H125.534C127.722 45.9709 129.495 47.7445 129.495 49.9334V53.8959H36V49.9334Z" fill="#E1E5F0"/>
<path d="M109.88 81.6636H120.886C122.531 81.6636 123.865 82.9977 123.865 84.6433C123.865 86.289 122.531 87.623 120.886 87.623H109.88C108.234 87.623 106.9 86.289 106.9 84.6433C106.9 82.9977 108.234 81.6636 109.88 81.6636Z" fill="#A339FF"/>
</svg>
