<svg width="224" height="209" viewBox="0 0 224 209" fill="none" xmlns="http://www.w3.org/2000/svg">
<path d="M43.8233 26H147.187C150.403 26 153.01 28.3426 153.01 31.2325V103.702C153.01 104.569 152.228 105.272 151.263 105.272H39.747C38.7822 105.272 38 104.569 38 103.702V31.2325C38 28.3426 40.6072 26 43.8233 26Z" fill="white"/>
<path d="M38 30.9895C38 28.2339 40.233 26 42.988 26H148.022C150.777 26 153.01 28.2333 153.01 30.9895V35.979H38V30.9895Z" fill="#313131"/>
<path d="M44.6919 33.2574C45.8821 33.2574 46.8469 32.2927 46.8469 31.1028C46.8469 29.9129 45.8821 28.9483 44.6919 28.9483C43.5017 28.9483 42.5369 29.9129 42.5369 31.1028C42.5369 32.2927 43.5017 33.2574 44.6919 33.2574Z" fill="#FF5645"/>
<path d="M51.7241 33.2574C52.9143 33.2574 53.8791 32.2927 53.8791 31.1028C53.8791 29.9129 52.9143 28.9483 51.7241 28.9483C50.5339 28.9483 49.5691 29.9129 49.5691 31.1028C49.5691 32.2927 50.5339 33.2574 51.7241 33.2574Z" fill="#FFCB3D"/>
<path d="M58.9832 33.2574C60.1733 33.2574 61.1382 32.2927 61.1382 31.1028C61.1382 29.9129 60.1733 28.9483 58.9832 28.9483C57.793 28.9483 56.8281 29.9129 56.8281 31.1028C56.8281 32.2927 57.793 33.2574 58.9832 33.2574Z" fill="#3ABF7C"/>
<rect opacity="0.6" x="49.6265" y="52.4239" width="8.23104" height="5.87932" rx="2.93966" fill="#FE4F4F"/>
<rect opacity="0.6" x="49.6265" y="63.0058" width="8.23104" height="5.87932" rx="2.93966" fill="#FE4F4F"/>
<rect opacity="0.6" x="49.6265" y="73.5898" width="8.23104" height="5.87932" rx="2.93966" fill="#FE4F4F"/>
<rect opacity="0.6" x="62.5608" y="52.4239" width="8.23104" height="5.87932" rx="2.93966" fill="#FE4F4F"/>
<rect opacity="0.6" x="62.5608" y="63.0058" width="8.23104" height="5.87932" rx="2.93966" fill="#FE4F4F"/>
<rect opacity="0.6" x="62.5608" y="73.5898" width="8.23104" height="5.87932" rx="2.93966" fill="#FE4F4F"/>
<rect opacity="0.6" x="75.4961" y="52.4239" width="8.23104" height="5.87932" rx="2.93966" fill="#FE4F4F"/>
<rect opacity="0.6" x="75.4961" y="63.0058" width="8.23104" height="5.87932" rx="2.93966" fill="#FE4F4F"/>
<rect opacity="0.6" x="75.4961" y="73.5898" width="8.23104" height="5.87932" rx="2.93966" fill="#FE4F4F"/>
<rect opacity="0.6" x="88.4304" y="52.4239" width="8.23104" height="5.87932" rx="2.93966" fill="#FE4F4F"/>
<rect opacity="0.6" x="88.4304" y="63.0058" width="8.23104" height="5.87932" rx="2.93966" fill="#FE4F4F"/>
<rect opacity="0.6" x="88.4304" y="73.5898" width="8.23104" height="5.87932" rx="2.93966" fill="#FE4F4F"/>
<rect opacity="0.6" x="101.365" y="52.4239" width="8.23104" height="5.87932" rx="2.93966" fill="#FE4F4F"/>
<rect opacity="0.6" x="101.365" y="63.0058" width="8.23104" height="5.87932" rx="2.93966" fill="#FE4F4F"/>
<rect opacity="0.6" x="101.365" y="73.5898" width="8.23104" height="5.87932" rx="2.93966" fill="#FE4F4F"/>
<rect opacity="0.6" x="114.299" y="52.4239" width="8.23104" height="5.87932" rx="2.93966" fill="#FE4F4F"/>
<rect opacity="0.6" x="114.299" y="63.0058" width="8.23104" height="5.87932" rx="2.93966" fill="#FE4F4F"/>
<rect opacity="0.6" x="127.233" y="52.4239" width="8.23104" height="5.87932" rx="2.93966" fill="#FE4F4F"/>
<rect opacity="0.6" x="127.233" y="63.0058" width="8.23104" height="5.87932" rx="2.93966" fill="#FE4F4F"/>
<rect opacity="0.75" x="84.5059" y="90.4743" width="20.4488" height="8.84271" rx="4.42135" fill="#FE4F4F"/>
<path d="M181.156 145.023V134.154C181.156 127.564 181.156 120.988 181.156 114.412V104.33C181.156 103.967 174.882 103.664 167.339 103.664H165.767C158.239 103.664 151.951 103.967 151.951 104.33V145.053C151.951 145.416 158.224 145.719 165.767 145.719H167.339C174.867 145.734 181.156 145.416 181.156 145.023Z" fill="#D8DEED"/>
<path d="M136.547 182.089L136.607 182.119C136.925 182.285 137.333 182.195 137.484 181.908L155.186 149.392C155.352 149.09 155.216 148.712 154.898 148.545L154.838 148.515C154.521 148.349 154.112 148.44 153.961 148.727L149.577 156.769C146.72 162.029 143.863 167.275 140.991 172.535L136.26 181.212C136.094 181.515 136.23 181.908 136.547 182.089Z" fill="#D8DEED"/>
<path d="M180.491 147.986H169.41C162.699 147.986 155.987 147.986 149.29 147.986H139.011C138.648 147.986 138.331 148.288 138.331 148.651V148.727C138.331 149.09 138.633 149.392 139.011 149.392H180.521C180.884 149.392 181.201 149.09 181.201 148.727V148.651C181.201 148.288 180.884 147.986 180.491 147.986Z" fill="#D8DEED"/>
<path d="M185.902 181.212L181.171 172.535C178.314 167.275 175.457 162.029 172.585 156.769L168.201 148.727C168.05 148.44 167.642 148.334 167.324 148.515L167.264 148.545C166.946 148.712 166.81 149.105 166.977 149.392L184.678 181.908C184.829 182.195 185.237 182.301 185.555 182.119L185.615 182.089C185.933 181.908 186.069 181.515 185.902 181.212Z" fill="#D8DEED"/>
<path d="M169.587 180.759H154.369C154.264 180.759 154.165 180.779 154.077 180.815L155.422 172.86L166.13 171.538L169.587 180.759ZM150.502 180.793C150.435 180.771 150.363 180.759 150.287 180.759H126.267C126.19 180.759 126.116 180.771 126.047 180.794C126.002 180.72 125.969 180.637 125.95 180.547V180.532C125.95 180.456 125.935 180.381 125.95 180.305C125.965 180.214 125.965 180.139 125.995 180.048C126.192 179.368 126.721 178.794 127.068 178.476C127.114 178.431 127.144 178.416 127.189 178.385C127.855 177.977 128.535 177.599 129.245 177.282C130.636 176.647 133.72 175.347 134.642 174.878C135.836 174.274 137.484 173.246 139.207 171.402C139.298 171.356 139.419 171.296 139.419 171.296L150 171.039C150 171.039 150.046 171.19 150.046 171.205L150.575 180.471C150.575 180.587 150.549 180.696 150.502 180.793Z" fill="#474961"/>
<path d="M126.268 180.759H150.303C150.679 180.759 150.983 181.063 150.983 181.439C150.983 181.815 150.679 182.119 150.303 182.119H126.268C125.892 182.119 125.587 181.815 125.587 181.439C125.587 181.063 125.892 180.759 126.268 180.759ZM154.384 180.759H169.501C169.877 180.759 170.181 181.063 170.181 181.439C170.181 181.815 169.877 182.119 169.501 182.119H154.384C154.009 182.119 153.704 181.815 153.704 181.439C153.704 181.063 154.009 180.759 154.384 180.759Z" fill="#DE3190"/>
<path d="M168.67 146.304C168.669 146.528 168.669 146.755 168.669 146.984C168.669 154.688 168.397 165.716 168.307 169.377C168.291 169.856 168.352 171.166 167.445 171.997C167.082 172.321 166.689 172.462 166.447 172.546C163.772 173.433 160.023 173.448 155.911 173.11C155.639 173.081 155.201 172.926 154.611 172.757C153.719 172.49 153.069 171.701 152.978 170.758C152.555 166.617 151.391 155.308 151.3 154.308C151.18 153.04 151.074 151.604 150.983 149.97L150.686 145.233C149.114 144.9 147.617 144.535 146.199 144.153C148.14 151.944 150.034 160.089 151.709 168.181C151.784 168.536 151.92 169.363 151.527 170.146C150.802 171.578 148.912 171.519 144.392 172.081C139.071 172.76 136.849 173.454 135.64 172.022C135.232 171.564 135.096 171.076 135.05 170.855C133.947 165.05 128.475 148.166 126.343 136.054C126.343 136.024 126.328 136.009 126.328 135.98C126.16 135.015 126.189 134.066 126.385 133.175C126.806 129.024 130.268 125.744 134.545 125.655L147.477 125.385C153.131 125.284 171.434 124.695 171.974 125.212C172.515 125.73 172.737 130.068 172.797 131.913C172.797 132.59 172.797 133.282 172.813 133.945C172.813 137.187 172.253 140.156 171.316 142.447C170.666 144.032 169.85 145.286 168.928 146.093C168.842 146.167 168.756 146.237 168.67 146.304Z" fill="#A339FF"/>
<path opacity="0.176986" d="M168.643 146.324C168.646 143.662 168.661 141.371 168.688 139.867C168.719 138.572 168.945 131.445 166.013 129.966C165.756 129.84 165.499 129.727 164.985 129.544C164.577 129.403 162.46 128.657 159.739 128.769C157.971 128.84 155.31 128.952 153.118 130.727C150.08 133.206 150.156 137.079 150.186 137.713L150.657 145.227C149.082 144.893 147.581 144.526 146.161 144.142C145.179 140.203 144.185 136.355 143.202 132.65C142.295 129.238 139.105 127.022 135.734 127.45C134.48 127.613 133.225 127.775 131.97 127.938C129.175 128.308 127.052 130.394 126.4 133.032C126.886 128.949 130.317 125.743 134.545 125.655L147.477 125.385C153.131 125.284 171.434 124.695 171.974 125.212C172.515 125.73 172.737 130.068 172.797 131.913C172.797 132.59 172.797 133.282 172.813 133.945C172.813 137.187 172.253 140.156 171.316 142.447C170.666 144.032 169.85 145.286 168.928 146.093C168.834 146.174 168.739 146.252 168.643 146.324Z" fill="#444444"/>
<path d="M145.895 115.256L139.393 114.612C138.728 114.551 138.727 113.18 138.707 112.621C138.771 112.049 139.036 111.186 139.514 110.962C139.246 110.497 139.201 109.672 139.404 108.878C139.567 108.246 140.136 107.87 140.726 107.676C141.214 106.098 141.969 103.489 142.248 102.242C143.084 98.4469 144.228 97.0002 144.622 96.5781C145.074 96.0783 145.515 95.7301 145.81 95.508C147.8 94.0318 149.953 93.7449 151.055 93.6762C151.085 93.66 151.115 93.659 151.145 93.6579L155.317 93.4533C155.878 93.3891 156.409 93.3487 156.889 93.3125C158.346 93.2105 159.85 93.1031 161.334 93.2892L166.006 93.355C166.036 93.355 166.067 93.355 166.097 93.3701C167.2 93.4003 169.362 93.6119 171.403 95.0178C171.705 95.2294 172.159 95.562 172.627 96.0457C173.035 96.4538 174.23 97.8597 175.197 101.624C175.52 102.86 176.365 105.441 176.908 107.001C177.504 107.174 178.086 107.53 178.271 108.156C178.502 108.942 178.485 109.768 178.234 110.243C178.72 110.45 179.015 111.303 179.099 111.873C179.099 112.432 179.145 113.802 178.483 113.886L172.61 114.675C173.026 117.936 173.038 120.658 172.729 122.456C172.729 122.503 172.712 122.565 172.696 122.611C172.615 123.091 172.5 123.493 172.353 123.818C172.337 123.849 172.321 123.879 172.304 123.91C171.471 125.086 164.89 124.668 163.339 124.715C160.791 124.792 157.852 124.808 154.227 124.73C153.1 124.699 150.961 124.9 148.348 124.22C148.332 124.22 148.315 124.204 148.315 124.204C148.315 124.204 147.989 124.112 147.613 123.895C147.433 123.787 147.221 123.663 147.041 123.493C145.408 122.023 145.768 118.512 145.768 118.512C145.81 117.361 145.853 116.277 145.895 115.256Z" fill="#DE3190"/>
<path d="M160.536 89.0231L160.7 93.8387C160.7 93.9445 160.655 94.0503 160.564 94.0957C160.171 94.3375 159.612 94.6096 158.916 94.7608C157.662 95.048 156.588 94.8364 155.984 94.655C155.863 94.6248 155.772 94.5038 155.772 94.3829L155.713 91.6931C154.855 92.0129 154.903 91.9812 154.824 92.0077C153.871 92.2496 153.055 92.2194 152.904 92.1891C152.36 92.1438 151.785 91.6903 151.271 90.9193C150.576 89.8914 149.956 88.2891 149.624 86.3693C149.563 86.0972 149.548 85.8251 149.533 85.553L149.472 82.8471C149.457 82.2425 149.608 81.6529 149.896 81.0936C150.017 80.8517 150.138 80.6552 150.289 80.4889C150.321 80.4478 150.353 80.4075 150.387 80.3682C151.575 78.8333 153.938 78.6319 155.035 78.7505C155.171 78.7657 155.655 78.8261 156.35 78.8715C156.728 78.9017 157.031 78.9017 157.212 78.9168C159.464 79.0075 160.356 78.7354 161.49 79.3401C161.702 79.4459 162.185 79.718 162.609 80.2471C163.803 81.7436 163.516 83.6785 163.44 84.253C163.168 85.9762 162.17 87.0344 161.868 87.4728C161.526 87.977 160.962 88.5876 160.536 89.0231ZM139.65 121.5L140.728 114.752L145.886 115.153L145.829 119.768C147.801 119.547 149.751 119.522 150.737 119.949C150.765 119.961 150.793 119.973 150.82 119.986C155.49 119.103 163.486 117.64 168.39 117.027L167.896 115.283L178.051 113.919C178.51 118.916 177.988 124.963 172.944 125.583C167.122 126.299 157.484 126.299 144.029 125.583H137.383C137.289 123.641 138.568 122.525 139.65 121.5Z" fill="#FFC3A8"/>
<path d="M163.15 85.3504C162.441 85.3514 161.765 85.3852 161.093 85.4227C161.194 84.8839 161.114 84.2934 160.761 83.8014C160.277 83.1211 159.37 82.7432 158.644 82.9851C158.236 83.1211 157.964 83.4386 157.934 83.4688C157.526 83.9828 157.435 84.527 157.435 84.527L157.359 85.2768C156.144 84.0191 154.597 82.4287 153.442 81.2146C152.761 81.4012 151.638 81.5877 150.361 81.3164C150.186 81.2777 150.021 81.2195 149.865 81.1537C149.875 81.1337 149.885 81.1136 149.896 81.0936C150.017 80.8518 150.138 80.6553 150.289 80.489C150.321 80.4478 150.353 80.4076 150.387 80.3682C151.575 78.8334 153.938 78.6319 155.035 78.7506C155.171 78.7657 155.655 78.8262 156.351 78.8715C156.728 78.9017 157.031 78.9017 157.212 78.9169C159.465 79.0076 160.356 78.7355 161.49 79.3401C161.702 79.4459 162.185 79.718 162.609 80.2471C163.803 81.7436 163.516 83.6786 163.44 84.253C163.377 84.6548 163.274 85.0204 163.15 85.3504ZM150.073 84.7386C149.922 84.7084 149.877 84.5118 149.983 84.406C150.119 84.2851 150.361 84.1642 150.663 84.1642C151.283 84.1642 151.948 84.5723 151.252 84.7537C150.844 84.8746 150.361 84.8142 150.073 84.7386ZM153.187 84.8444C153.036 84.8142 152.991 84.6177 153.112 84.5118C153.248 84.3909 153.49 84.27 153.807 84.27C154.427 84.27 155.092 84.6932 154.397 84.8595C153.958 84.9956 153.49 84.9049 153.187 84.8444Z" fill="#482D1F"/>
<path opacity="0.2" d="M139.638 121.537L140.728 114.752L145.886 115.153L145.829 119.794C143.143 120.095 140.418 120.76 140.043 121.143C139.914 121.274 139.777 121.405 139.638 121.537Z" fill="#FFC3A8"/>
<path d="M151.252 85.8119C151.237 86.0689 151.192 86.4921 151.041 86.6433C150.784 86.8701 150.451 86.1142 150.648 85.6456C150.723 85.4491 150.829 85.4189 150.95 85.434C151.131 85.4642 151.252 85.6305 151.252 85.8119ZM153.958 85.7665C153.973 86.0235 153.973 86.4468 153.822 86.6282C153.595 86.8852 153.172 86.1596 153.323 85.6758C153.384 85.4793 153.489 85.434 153.61 85.434C153.792 85.434 153.943 85.5851 153.958 85.7665Z" fill="#482D1F"/>
<path d="M152.719 88.8806C152.824 88.8503 153.081 88.7747 153.127 88.6085C153.127 88.5782 153.142 88.5329 153.127 88.5026C153.066 88.3968 152.885 88.4573 152.613 88.4724C152.129 88.5026 151.736 88.4573 151.736 88.4573C151.736 88.4573 151.842 88.7596 151.917 88.8503C152.084 89.0771 152.567 88.9259 152.719 88.8806Z" fill="#482D1F"/>
<path d="M151.466 87.4386C151.437 87.6091 151.569 87.7765 151.742 87.8052C151.779 87.8087 151.779 87.8087 151.804 87.8106C152.059 87.8302 152.218 87.8375 152.492 87.8375C152.575 87.8375 152.643 87.7698 152.643 87.6863C152.643 87.6028 152.575 87.5352 152.492 87.5352C152.227 87.5352 152.075 87.5282 151.827 87.5091L151.778 87.5054C151.778 87.5047 151.764 87.4873 151.764 87.4844L151.992 85.8631L151.993 85.8421V84.9502C151.993 84.8668 151.925 84.7991 151.842 84.7991C151.759 84.7991 151.691 84.8668 151.691 84.9502V85.8316L151.466 87.4386Z" fill="#482D1F"/>
<path d="M161.095 84.6259C161.164 85.0688 161.084 85.551 160.883 85.9388C160.639 86.4275 160.295 86.694 159.851 86.899C159.775 86.934 159.742 87.0238 159.777 87.0996C159.812 87.1755 159.901 87.2085 159.977 87.1736C160.173 87.0834 160.328 86.9963 160.507 86.8572C160.772 86.6524 160.993 86.3953 161.153 86.076C161.382 85.6333 161.473 85.086 161.394 84.5792C161.381 84.4967 161.303 84.4403 161.221 84.4532C161.138 84.4661 161.082 84.5434 161.095 84.6259Z" fill="#482D1F"/>
<path d="M151.324 85.8439C151.309 86.1009 151.264 86.5241 151.112 86.6753C150.855 86.9021 150.523 86.1462 150.719 85.6776C150.795 85.4811 150.901 85.4509 151.022 85.466C151.203 85.4962 151.324 85.6625 151.324 85.8439ZM154.03 85.7985C154.045 86.0555 154.045 86.4788 153.894 86.6602C153.667 86.9172 153.244 86.1916 153.395 85.7078C153.455 85.5113 153.561 85.466 153.682 85.466C153.864 85.466 154.015 85.6171 154.03 85.7985Z" fill="#482D1F"/>
<path d="M152.79 88.9127C152.896 88.8825 153.153 88.8069 153.198 88.6406C153.198 88.6104 153.213 88.565 153.198 88.5348C153.138 88.429 152.956 88.4894 152.684 88.5045C152.201 88.5348 151.808 88.4894 151.808 88.4894C151.808 88.4894 151.913 88.7918 151.989 88.8825C152.155 89.1092 152.639 88.958 152.79 88.9127Z" fill="#482D1F"/>
<path d="M161.167 84.658C161.236 85.1009 161.156 85.5831 160.955 85.9709C160.711 86.4596 160.367 86.7261 159.923 86.9312C159.847 86.9662 159.814 87.056 159.849 87.1318C159.884 87.2076 159.973 87.2407 160.049 87.2057C160.245 87.1155 160.4 87.0285 160.579 86.8894C160.844 86.6845 161.065 86.4274 161.225 86.1081C161.454 85.6654 161.545 85.1181 161.466 84.6113C161.453 84.5288 161.375 84.4724 161.293 84.4853C161.21 84.4982 161.154 84.5755 161.167 84.658Z" fill="#482D1F"/>
<path d="M168.115 115.328C168.152 115.448 168.085 115.575 167.965 115.612C167.846 115.648 167.719 115.581 167.682 115.462C167.251 114.062 165.876 109.818 165.585 109.034C165.541 108.917 165.601 108.786 165.719 108.743C165.836 108.699 165.966 108.759 166.01 108.876C166.305 109.671 167.682 113.92 168.115 115.328ZM147.472 102.631C147.094 106.125 146.792 108.912 146.112 115.178C146.098 115.302 145.986 115.392 145.862 115.379C145.737 115.365 145.647 115.253 145.661 115.129C146.341 108.863 146.643 106.076 147.021 102.582C147.035 102.457 147.147 102.367 147.271 102.381C147.396 102.394 147.486 102.506 147.472 102.631Z" fill="#482D1F"/>
<path d="M155.717 91.7464L156.955 91.1946L155.746 93.1876L155.717 91.7464Z" fill="#482D1F"/>
<path d="M125.519 125.364C125.67 125.63 125.955 125.81 126.283 125.81H148.005C148.489 125.81 148.867 125.417 148.867 124.933C148.867 124.449 148.474 124.056 148.005 124.056H126.876L119.51 104.239C119.344 103.785 118.845 103.558 118.392 103.725C117.938 103.891 117.712 104.39 117.878 104.843L125.451 125.22C125.47 125.271 125.493 125.319 125.519 125.364Z" fill="#474961"/>
</svg>
