<svg width="17" height="21" viewBox="0 0 17 21" fill="none" xmlns="http://www.w3.org/2000/svg">
<path d="M13.7394 0.786255H2.4375C1.79103 0.786255 1.17105 1.01163 0.713927 1.41281C0.256807 1.81399 0 2.3581 0 2.92545V20.039C0.000392202 20.168 0.0406493 20.2945 0.116483 20.405C0.192316 20.5155 0.300886 20.6059 0.430625 20.6665C0.557678 20.7238 0.699681 20.7506 0.842326 20.7444C0.98497 20.7381 1.12321 20.699 1.24313 20.6309L8.125 16.6163L14.9906 20.6309C15.1128 20.7015 15.2545 20.7419 15.4007 20.7477C15.5468 20.7535 15.6921 20.7246 15.8211 20.664C15.9501 20.6033 16.058 20.5133 16.1335 20.4033C16.209 20.2933 16.2492 20.1674 16.25 20.039V2.98963C16.25 2.40526 15.9855 1.84482 15.5147 1.43161C15.0438 1.0184 14.4052 0.786255 13.7394 0.786255ZM14.625 18.7056L8.57187 15.1403C8.43921 15.0636 8.28385 15.0227 8.125 15.0227C7.96615 15.0227 7.81079 15.0636 7.67812 15.1403L1.625 18.7056V2.92545C1.625 2.73633 1.7106 2.55496 1.86298 2.42124C2.01535 2.28751 2.22201 2.21239 2.4375 2.21239H13.7312C13.8482 2.21144 13.9643 2.23085 14.0727 2.26949C14.181 2.30813 14.2796 2.36523 14.3627 2.4375C14.4458 2.50977 14.5118 2.59577 14.5568 2.69053C14.6018 2.7853 14.625 2.88696 14.625 2.98963V18.7056Z" fill="black"/>
</svg>
