<svg width="13" height="20" viewBox="0 0 13 20" fill="none" xmlns="http://www.w3.org/2000/svg">
<path d="M12.1311 20C11.9493 20 11.6709 19.9399 11.3764 19.6552L6.60946 15.0365C6.53522 14.9643 6.46604 14.9643 6.3918 15.0365L1.624 19.6552C1.32999 19.9404 1.05159 20 0.869788 20C0.579578 20 0.314254 19.8496 0.158182 19.5976C0.0535709 19.4275 0 19.2171 0 18.9722V1.39407C0 0.62542 0.628087 0 1.40001 0H11.6C12.3719 0 13 0.62542 13 1.39407V18.9722C13.0004 19.6787 12.5495 20 12.1311 20ZM6.50063 13.7349C6.87478 13.7349 7.22658 13.8764 7.4919 14.1331L11.7333 18.2422L11.7354 1.39407C11.7354 1.3214 11.6738 1.26008 11.6008 1.26008H1.40043C1.32746 1.26008 1.26587 1.3214 1.26587 1.39407V18.2418L5.50936 14.1331C5.77384 13.8764 6.12606 13.7349 6.50063 13.7349Z" fill="black"/>
</svg>
