<svg width="20" height="26" viewBox="0 0 20 26" fill="none" xmlns="http://www.w3.org/2000/svg">
<path d="M17.71 8.08008H12.4V9.58008H17.71C18.01 9.58008 18.25 9.82008 18.25 10.0901V23.4401C18.25 23.7401 18.01 23.9501 17.71 23.9501H2.29C1.99 23.9501 1.75 23.7101 1.75 23.4401V10.1201C1.75 9.82008 1.99 9.61008 2.29 9.61008H7V8.11008H2.29C1.18 8.11008 0.25 9.01008 0.25 10.1201V23.4701C0.25 24.5801 1.15 25.4801 2.29 25.4801H17.71C18.82 25.4801 19.75 24.5801 19.75 23.4701V10.1201C19.75 8.98008 18.85 8.08008 17.71 8.08008Z" fill="black"/>
<path d="M9.25 2.95002V18.37H10.75V2.95002L13.6 5.05002L14.5 3.85002L10 0.52002L5.5 3.85002L6.4 5.05002L9.25 2.95002Z" fill="black"/>
</svg>
