<svg width="24" height="24" viewBox="0 0 24 24" fill="none" xmlns="http://www.w3.org/2000/svg">
<path d="M12.2055 2.79687L12.2055 2.79688L22.705 8.85919L22.705 8.8592L22.68 8.9025C22.7349 8.93416 22.7806 8.9797 22.8123 9.03457C22.8439 9.08944 22.8606 9.15169 22.8606 9.21506C22.8606 9.27843 22.8439 9.34068 22.8123 9.39556C22.7806 9.45043 22.735 9.49599 22.6801 9.52765L12.2055 2.79687ZM12.2055 2.79687C12.1431 2.76084 12.0722 2.74187 12.0001 2.74187C11.928 2.74187 11.8572 2.76084 11.7947 2.79687L11.7947 2.79688L1.29426 8.85919L12.2055 2.79687ZM16.6194 17.0854C17.8023 16.43 18.5205 15.5331 18.5205 14.5557V11.9866L12.2046 15.6324L12.2046 15.6325L12.1796 15.5892C12.1247 15.6209 12.0625 15.6375 11.9992 15.6375C11.9358 15.6375 11.8736 15.6209 11.8188 15.5892L16.6194 17.0854ZM16.6194 17.0854C15.4382 17.7399 13.804 18.1468 11.9992 18.1468C10.4398 18.1468 9.01414 17.8387 7.89156 17.3333L7.31442 16.0527V13.0465L11.7937 15.6324L16.6194 17.0854ZM19.3424 11.5121L22.705 9.57096L1.31924 8.9025C1.26434 8.93416 1.21876 8.97971 1.18706 9.03459C1.15536 9.08946 1.13867 9.15171 1.13867 9.21508C1.13867 9.27845 1.15536 9.3407 1.18706 9.39558C1.21876 9.45045 1.26434 9.49601 1.31924 9.52767L1.29424 9.57097L1.29426 9.57098L4.65607 11.5118V14.5558C4.65607 15.5298 5.15856 16.4153 6.0056 17.1331L4.95529 19.4637L4.95527 19.4637C4.94613 19.484 4.93872 19.5051 4.93312 19.5267C4.88082 19.644 4.85316 19.7709 4.85186 19.8995V19.9C4.85186 20.2886 5.08499 20.6295 5.45443 20.871C5.82401 21.1125 6.3343 21.2581 6.90345 21.2581C7.47259 21.2581 7.98289 21.1125 8.35247 20.871C8.72191 20.6295 8.95504 20.2886 8.95505 19.9L8.95504 19.8995C8.95374 19.7715 8.92629 19.6452 8.8744 19.5282C8.8686 19.5062 8.86099 19.4846 8.85166 19.4638L8.85161 19.4637L8.37612 18.4086C9.43998 18.7646 10.6717 18.9688 11.9992 18.9688C14.0512 18.9688 15.8838 18.4881 17.2051 17.6976C18.5258 16.9076 19.3424 15.8031 19.3424 14.5558V11.5121ZM5.47801 14.5557V11.9863L6.49248 12.572V16.0527L6.36062 16.3453C5.79969 15.8145 5.47801 15.2042 5.47801 14.5557Z" fill="#484A9E" stroke="#484A9E" stroke-width="0.1"/>
</svg>
