<svg width="36" height="36" viewBox="0 0 36 36" fill="none" xmlns="http://www.w3.org/2000/svg">
<rect width="36" height="36" rx="7" fill="#F8F8F8"/>
<path d="M18.0668 10.005L18.0669 10.005L28.5664 16.0673L28.5664 16.0673L28.5414 16.1106C28.5963 16.1423 28.6419 16.1878 28.6736 16.2427C28.7053 16.2976 28.722 16.3598 28.722 16.4232C28.722 16.4866 28.7053 16.5488 28.6736 16.6037C28.6419 16.6586 28.5963 16.7041 28.5414 16.7358L18.0668 10.005ZM18.0668 10.005C18.0044 9.96897 17.9336 9.95 17.8615 9.95C17.7893 9.95 17.7185 9.96897 17.6561 10.005L17.656 10.005L7.15559 16.0673L18.0668 10.005Z" fill="#CBE2F7" stroke="#188AF3" stroke-width="0.1"/>
<path d="M7.15559 16.7791C7.09309 16.7431 7.04118 16.6912 7.00509 16.6287C6.969 16.5662 6.95 16.4954 6.95 16.4232C6.95 16.3511 6.969 16.2802 7.00509 16.2177C7.04118 16.1552 7.09308 16.1034 7.15557 16.0673C7.15557 16.0673 7.15558 16.0673 7.15559 16.0673L17.656 10.005L17.6561 10.005C17.7185 9.96897 17.7893 9.95 17.8615 9.95C17.9336 9.95 18.0044 9.96897 18.0668 10.005L18.0669 10.005L28.5366 16.0501L14.1727 25.5948C14.1942 25.6022 14.2158 25.6095 14.2374 25.6167M7.15559 16.7791L7.15557 16.7791L7.18057 16.7358L7.15559 16.7791ZM7.15559 16.7791L10.5174 18.7199M10.5174 18.7199V21.7639C10.5174 22.738 11.0199 23.6235 11.8669 24.3412M10.5174 18.7199V18.691H10.5674L10.5424 18.7343L10.5174 18.7199ZM11.8669 24.3412L10.8166 26.6718L10.8166 26.6718C10.8075 26.6922 10.8001 26.7132 10.7945 26.7348M11.8669 24.3412L11.8825 24.3068L11.928 24.3273L11.896 24.3657C11.8863 24.3576 11.8766 24.3494 11.8669 24.3412ZM10.7945 26.7348C10.7421 26.8522 10.7145 26.9791 10.7132 27.1076V27.1081C10.7132 27.4967 10.9463 27.8376 11.3158 28.0791C11.6853 28.3206 12.1956 28.4663 12.7648 28.4663C13.3339 28.4663 13.8442 28.3206 14.2138 28.0791C14.5832 27.8376 14.8164 27.4967 14.8164 27.1081L14.8164 27.1076C14.8151 26.9796 14.7876 26.8533 14.7357 26.7364M10.7945 26.7348C10.7951 26.7334 10.7957 26.7321 10.7963 26.7307L10.8419 26.7513L10.7933 26.7393C10.7937 26.7378 10.7941 26.7363 10.7945 26.7348ZM14.7357 26.7364C14.7299 26.7143 14.7223 26.6927 14.713 26.6719L14.7129 26.6718L14.2374 25.6167M14.7357 26.7364C14.7361 26.7378 14.7365 26.7393 14.7368 26.7407L14.6883 26.7529L14.734 26.7324C14.7345 26.7337 14.7351 26.735 14.7357 26.7364ZM14.2374 25.6167C15.3013 25.9728 16.533 26.1769 17.8605 26.1769C19.9125 26.1769 21.7451 25.6962 23.0664 24.9058C24.3871 24.1157 25.2037 23.0112 25.2037 21.7639V18.7202M14.2374 25.6167L14.2094 25.5545C15.2777 25.9179 16.5197 26.1269 17.8605 26.1269C21.9502 26.1269 25.1537 24.2104 25.1537 21.7639V18.6913M25.2037 18.7202L28.5664 16.7791L28.5414 16.7358M25.2037 18.7202L25.1787 18.7346L25.1537 18.6913M25.2037 18.7202V18.6913H25.1537M28.5414 16.7358L28.5664 16.7791C28.6289 16.743 28.6808 16.6912 28.7169 16.6287C28.753 16.5662 28.772 16.4953 28.772 16.4232C28.772 16.351 28.753 16.2802 28.7169 16.2177C28.6808 16.1552 28.6289 16.1033 28.5664 16.0673L28.5515 16.0931L28.5414 16.1106C28.5963 16.1423 28.6419 16.1878 28.6736 16.2427C28.7053 16.2976 28.722 16.3598 28.722 16.4232C28.722 16.4866 28.7053 16.5488 28.6736 16.6037C28.6419 16.6586 28.5963 16.7041 28.5414 16.7358ZM28.5414 16.7358L25.1537 18.6913M17.8607 17.5915C18.3455 17.5915 18.774 17.4693 19.0828 17.2629C19.392 17.0562 19.584 16.7625 19.584 16.4229C19.584 16.0832 19.392 15.7895 19.0828 15.5828C18.7739 15.3764 18.3454 15.2542 17.8605 15.2542C17.3756 15.2542 16.9471 15.3764 16.6382 15.5828C16.329 15.7895 16.137 16.0832 16.137 16.4229L16.137 16.4236C16.1397 16.5955 16.1914 16.7627 16.2855 16.9057L12.7587 19.0649L8.18291 16.4232L17.8614 10.8353L27.539 16.4232L17.8605 22.0102L13.5688 19.5325L16.991 17.4373C17.269 17.5414 17.5637 17.5937 17.8607 17.5915ZM17.8607 17.5915C17.8606 17.5915 17.8606 17.5915 17.8605 17.5915V17.5415L17.8609 17.5915C17.8608 17.5915 17.8608 17.5915 17.8607 17.5915ZM22.4807 24.2936C23.6637 23.6381 24.3818 22.7412 24.3818 21.7639V19.1947L18.0659 22.8406L18.0659 22.8406L18.0409 22.7973C17.9861 22.829 17.9238 22.8457 17.8605 22.8457C17.7971 22.8457 17.7349 22.829 17.6801 22.7973L22.4807 24.2936ZM22.4807 24.2936C21.2995 24.9481 19.6654 25.355 17.8605 25.355C16.3011 25.355 14.8755 25.0468 13.7529 24.5415L13.1757 23.2609V20.2546L17.6551 22.8406L22.4807 24.2936ZM11.5624 27.0316L11.5625 27.0317L11.5642 27.0284C11.5784 27.0008 11.5893 26.9716 11.5966 26.9415L12.7648 24.3494L13.9319 26.9394C13.9396 26.9702 13.9508 27 13.9653 27.0283L13.9652 27.0284L13.9672 27.0316C13.9819 27.0557 13.9911 27.0826 13.9944 27.1106C13.9935 27.153 13.9706 27.2071 13.917 27.2673C13.863 27.3279 13.7816 27.3903 13.6743 27.4466C13.4601 27.559 13.1483 27.6443 12.7648 27.6443C12.3813 27.6443 12.0695 27.559 11.8552 27.4466C11.748 27.3903 11.6665 27.3279 11.6125 27.2673C11.559 27.2071 11.536 27.153 11.5351 27.1106C11.5384 27.0826 11.5477 27.0557 11.5624 27.0316ZM11.3393 21.7639V19.1944L12.3538 19.7801V23.2609L12.2219 23.5535C11.661 23.0227 11.3393 22.4124 11.3393 21.7639ZM16.9589 16.4229C16.9589 16.4077 16.9703 16.3775 17.0102 16.337C17.0485 16.2981 17.1072 16.2559 17.1856 16.2168C17.3422 16.1389 17.5724 16.0762 17.8605 16.0762C18.1485 16.0762 18.3787 16.1389 18.5353 16.2168C18.6137 16.2559 18.6724 16.2981 18.7107 16.337C18.7507 16.3775 18.762 16.4077 18.762 16.4229C18.762 16.438 18.7507 16.4682 18.7107 16.5088C18.6724 16.5476 18.6137 16.5899 18.5353 16.6289C18.3787 16.7069 18.1485 16.7696 17.8605 16.7696C17.5724 16.7696 17.3422 16.7069 17.1856 16.6289C17.1072 16.5899 17.0485 16.5476 17.0102 16.5088C16.9703 16.4682 16.9589 16.438 16.9589 16.4229Z" fill="#188AF3" stroke="#188AF3" stroke-width="0.1"/>
</svg>
