<svg width="36" height="36" viewBox="0 0 36 36" fill="none" xmlns="http://www.w3.org/2000/svg">
<rect width="36" height="36" rx="7" fill="#F8F8F8"/>
<path d="M26.1953 10.625H21.7656V9.80597C21.7651 9.32717 21.5746 8.86814 21.236 8.52958C20.8975 8.19102 20.4385 8.00056 19.9597 8H15.3686C14.8898 8.00053 14.4307 8.19097 14.0921 8.52953C13.7536 8.8681 13.5631 9.32714 13.5625 9.80597V10.625H9.13281C8.56736 10.6257 8.02525 10.8506 7.62541 11.2504C7.22557 11.6502 7.00065 12.1924 7 12.7578V23.9141C7.00065 24.4795 7.22557 25.0216 7.62541 25.4215C8.02525 25.8213 8.56736 26.0462 9.13281 26.0469H26.1953C26.7608 26.0462 27.3029 25.8213 27.7027 25.4215C28.1026 25.0216 28.3275 24.4795 28.3281 23.9141V12.7578C28.3275 12.1924 28.1026 11.6502 27.7027 11.2504C27.3029 10.8506 26.7608 10.6257 26.1953 10.625Z" fill="#F7E3CB"/>
<path d="M26.1953 10.625H21.7656V9.80597C21.7651 9.32717 21.5746 8.86814 21.236 8.52958C20.8975 8.19102 20.4385 8.00056 19.9597 8H15.3686C14.8898 8.00053 14.4307 8.19097 14.0921 8.52953C13.7536 8.8681 13.5631 9.32714 13.5625 9.80597V10.625H9.13281C8.56736 10.6257 8.02525 10.8506 7.62541 11.2504C7.22557 11.6502 7.00065 12.1924 7 12.7578V23.9141C7.00065 24.4795 7.22557 25.0216 7.62541 25.4215C8.02525 25.8213 8.56736 26.0462 9.13281 26.0469H26.1953C26.7608 26.0462 27.3029 25.8213 27.7027 25.4215C28.1026 25.0216 28.3275 24.4795 28.3281 23.9141V12.7578C28.3275 12.1924 28.1026 11.6502 27.7027 11.2504C27.3029 10.8506 26.7608 10.6257 26.1953 10.625ZM14.5469 9.80597C14.5471 9.58812 14.6338 9.37927 14.7879 9.22524C14.9419 9.07122 15.1508 8.98459 15.3686 8.98438H19.9597C20.1775 8.9846 20.3863 9.07123 20.5404 9.22526C20.6944 9.37929 20.781 9.58814 20.7812 9.80597V10.625H14.5469V9.80597ZM27.3438 23.9141C27.3434 24.2185 27.2223 24.5104 27.007 24.7257C26.7917 24.941 26.4998 25.0621 26.1953 25.0625H9.13281C8.82834 25.0621 8.53645 24.941 8.32116 24.7257C8.10586 24.5104 7.98475 24.2185 7.98438 23.9141V20.1303C8.32667 20.3512 8.72541 20.4687 9.13281 20.4688H14.2188V21.2891C14.2187 21.3537 14.2315 21.4177 14.2562 21.4774C14.2809 21.5371 14.3172 21.5914 14.3629 21.6371C14.4086 21.6828 14.4629 21.7191 14.5226 21.7438C14.5823 21.7685 14.6463 21.7813 14.7109 21.7812H20.6172C20.6818 21.7813 20.7458 21.7685 20.8056 21.7438C20.8653 21.7191 20.9195 21.6828 20.9652 21.6371C21.0109 21.5914 21.0472 21.5371 21.0719 21.4774C21.0967 21.4177 21.1094 21.3537 21.1094 21.2891V20.4688H26.1953C26.6027 20.4687 27.0015 20.3512 27.3438 20.1303V23.9141ZM15.2031 20.7969V19.1562H20.125V20.7969H15.2031ZM27.3438 18.3359C27.3434 18.6404 27.2223 18.9323 27.007 19.1476C26.7917 19.3629 26.4998 19.484 26.1953 19.4844H21.1094V18.6641C21.1094 18.5994 21.0967 18.5354 21.0719 18.4757C21.0472 18.416 21.0109 18.3617 20.9652 18.316C20.9195 18.2703 20.8653 18.234 20.8056 18.2093C20.7458 18.1846 20.6818 18.1719 20.6172 18.1719H14.7109C14.6463 18.1719 14.5823 18.1846 14.5226 18.2093C14.4629 18.234 14.4086 18.2703 14.3629 18.316C14.3172 18.3617 14.2809 18.416 14.2562 18.4757C14.2315 18.5354 14.2187 18.5994 14.2188 18.6641V19.4844H9.13281C8.82834 19.484 8.53645 19.3629 8.32116 19.1476C8.10586 18.9323 7.98475 18.6404 7.98438 18.3359V12.7578C7.98475 12.4533 8.10586 12.1614 8.32116 11.9462C8.53645 11.7309 8.82834 11.6097 9.13281 11.6094H26.1953C26.4998 11.6097 26.7917 11.7309 27.007 11.9462C27.2223 12.1614 27.3434 12.4533 27.3438 12.7578V18.3359Z" fill="#F38F18"/>
</svg>
