<svg width="20" height="17" viewBox="0 0 20 17" fill="none" xmlns="http://www.w3.org/2000/svg">
<path d="M0.775391 3.27148H18.7754V16.2715H0.775391V3.27148Z" fill="#333333"/>
<path d="M0.775391 3.27148H18.7754V16.2715H0.775391V3.27148Z" fill="#484A9E"/>
<path d="M17.5957 2.40625H13.5352V1.65547C13.5346 1.21657 13.3601 0.795796 13.0497 0.485447C12.7394 0.175099 12.3186 0.000517415 11.8797 0H7.67125C7.23232 0.000485563 6.81151 0.175052 6.50113 0.485403C6.19076 0.795754 6.01615 1.21655 6.01562 1.65547V2.40625H1.95508C1.43674 2.40685 0.939809 2.61302 0.573291 2.97954C0.206773 3.34606 0.000599317 3.84299 0 4.36133V14.5879C0.000599317 15.1062 0.206773 15.6032 0.573291 15.9697C0.939809 16.3362 1.43674 16.5424 1.95508 16.543H17.5957C18.114 16.5424 18.611 16.3362 18.9775 15.9697C19.344 15.6032 19.5502 15.1062 19.5508 14.5879V4.36133C19.5502 3.84299 19.344 3.34606 18.9775 2.97954C18.611 2.61302 18.114 2.40685 17.5957 2.40625ZM6.91797 1.65547C6.91821 1.45578 6.99765 1.26433 7.13887 1.12314C7.28009 0.981949 7.47155 0.902543 7.67125 0.902344H11.8797C12.0794 0.902548 12.2708 0.981961 12.412 1.12316C12.5532 1.26435 12.6326 1.45579 12.6328 1.65547V2.40625H6.91797V1.65547ZM18.6484 14.5879C18.6481 14.867 18.5371 15.1346 18.3397 15.3319C18.1424 15.5293 17.8748 15.6403 17.5957 15.6406H1.95508C1.67598 15.6403 1.40841 15.5293 1.21106 15.3319C1.01371 15.1346 0.902685 14.867 0.902344 14.5879V11.1194C1.21611 11.3219 1.58163 11.4297 1.95508 11.4297H6.61719V12.1816C6.61718 12.2409 6.62884 12.2996 6.65151 12.3543C6.67418 12.409 6.70741 12.4588 6.74931 12.5007C6.79121 12.5426 6.84095 12.5758 6.89569 12.5985C6.95044 12.6212 7.00911 12.6328 7.06836 12.6328H12.4824C12.5417 12.6328 12.6003 12.6212 12.6551 12.5985C12.7098 12.5758 12.7596 12.5426 12.8015 12.5007C12.8434 12.4588 12.8766 12.409 12.8993 12.3543C12.9219 12.2996 12.9336 12.2409 12.9336 12.1816V11.4297H17.5957C17.9692 11.4297 18.3347 11.3219 18.6484 11.1194V14.5879ZM7.51953 11.7305V10.2266H12.0312V11.7305H7.51953ZM18.6484 9.47461C18.6481 9.75371 18.5371 10.0213 18.3397 10.2186C18.1424 10.416 17.8748 10.527 17.5957 10.5273H12.9336V9.77539C12.9336 9.71614 12.9219 9.65747 12.8993 9.60272C12.8766 9.54798 12.8434 9.49824 12.8015 9.45634C12.7596 9.41445 12.7098 9.38121 12.6551 9.35854C12.6003 9.33587 12.5417 9.32421 12.4824 9.32422H7.06836C7.00911 9.32421 6.95044 9.33587 6.89569 9.35854C6.84095 9.38121 6.79121 9.41445 6.74931 9.45634C6.70741 9.49824 6.67418 9.54798 6.65151 9.60272C6.62884 9.65747 6.61718 9.71614 6.61719 9.77539V10.5273H1.95508C1.67598 10.527 1.40841 10.416 1.21106 10.2186C1.01371 10.0213 0.902685 9.75371 0.902344 9.47461V4.36133C0.902685 4.08223 1.01371 3.81466 1.21106 3.61731C1.40841 3.41996 1.67598 3.30893 1.95508 3.30859H17.5957C17.8748 3.30893 18.1424 3.41996 18.3397 3.61731C18.5371 3.81466 18.6481 4.08223 18.6484 4.36133V9.47461Z" fill="#333333"/>
<path d="M17.5957 2.40625H13.5352V1.65547C13.5346 1.21657 13.3601 0.795796 13.0497 0.485447C12.7394 0.175099 12.3186 0.000517415 11.8797 0H7.67125C7.23232 0.000485563 6.81151 0.175052 6.50113 0.485403C6.19076 0.795754 6.01615 1.21655 6.01562 1.65547V2.40625H1.95508C1.43674 2.40685 0.939809 2.61302 0.573291 2.97954C0.206773 3.34606 0.000599317 3.84299 0 4.36133V14.5879C0.000599317 15.1062 0.206773 15.6032 0.573291 15.9697C0.939809 16.3362 1.43674 16.5424 1.95508 16.543H17.5957C18.114 16.5424 18.611 16.3362 18.9775 15.9697C19.344 15.6032 19.5502 15.1062 19.5508 14.5879V4.36133C19.5502 3.84299 19.344 3.34606 18.9775 2.97954C18.611 2.61302 18.114 2.40685 17.5957 2.40625ZM6.91797 1.65547C6.91821 1.45578 6.99765 1.26433 7.13887 1.12314C7.28009 0.981949 7.47155 0.902543 7.67125 0.902344H11.8797C12.0794 0.902548 12.2708 0.981961 12.412 1.12316C12.5532 1.26435 12.6326 1.45579 12.6328 1.65547V2.40625H6.91797V1.65547ZM18.6484 14.5879C18.6481 14.867 18.5371 15.1346 18.3397 15.3319C18.1424 15.5293 17.8748 15.6403 17.5957 15.6406H1.95508C1.67598 15.6403 1.40841 15.5293 1.21106 15.3319C1.01371 15.1346 0.902685 14.867 0.902344 14.5879V11.1194C1.21611 11.3219 1.58163 11.4297 1.95508 11.4297H6.61719V12.1816C6.61718 12.2409 6.62884 12.2996 6.65151 12.3543C6.67418 12.409 6.70741 12.4588 6.74931 12.5007C6.79121 12.5426 6.84095 12.5758 6.89569 12.5985C6.95044 12.6212 7.00911 12.6328 7.06836 12.6328H12.4824C12.5417 12.6328 12.6003 12.6212 12.6551 12.5985C12.7098 12.5758 12.7596 12.5426 12.8015 12.5007C12.8434 12.4588 12.8766 12.409 12.8993 12.3543C12.9219 12.2996 12.9336 12.2409 12.9336 12.1816V11.4297H17.5957C17.9692 11.4297 18.3347 11.3219 18.6484 11.1194V14.5879ZM7.51953 11.7305V10.2266H12.0312V11.7305H7.51953ZM18.6484 9.47461C18.6481 9.75371 18.5371 10.0213 18.3397 10.2186C18.1424 10.416 17.8748 10.527 17.5957 10.5273H12.9336V9.77539C12.9336 9.71614 12.9219 9.65747 12.8993 9.60272C12.8766 9.54798 12.8434 9.49824 12.8015 9.45634C12.7596 9.41445 12.7098 9.38121 12.6551 9.35854C12.6003 9.33587 12.5417 9.32421 12.4824 9.32422H7.06836C7.00911 9.32421 6.95044 9.33587 6.89569 9.35854C6.84095 9.38121 6.79121 9.41445 6.74931 9.45634C6.70741 9.49824 6.67418 9.54798 6.65151 9.60272C6.62884 9.65747 6.61718 9.71614 6.61719 9.77539V10.5273H1.95508C1.67598 10.527 1.40841 10.416 1.21106 10.2186C1.01371 10.0213 0.902685 9.75371 0.902344 9.47461V4.36133C0.902685 4.08223 1.01371 3.81466 1.21106 3.61731C1.40841 3.41996 1.67598 3.30893 1.95508 3.30859H17.5957C17.8748 3.30893 18.1424 3.41996 18.3397 3.61731C18.5371 3.81466 18.6481 4.08223 18.6484 4.36133V9.47461Z" fill="#484A9E"/>
</svg>
