<svg width="17" height="17" viewBox="0 0 17 17" fill="none" xmlns="http://www.w3.org/2000/svg">
<path d="M8.5 0C6.24566 0 4.08365 0.895533 2.48959 2.48959C0.895533 4.08365 0 6.24566 0 8.5C0 10.7543 0.895533 12.9163 2.48959 14.5104C4.08365 16.1045 6.24566 17 8.5 17C10.7543 17 12.9163 16.1045 14.5104 14.5104C16.1045 12.9163 17 10.7543 17 8.5C17 6.24566 16.1045 4.08365 14.5104 2.48959C12.9163 0.895533 10.7543 0 8.5 0V0ZM1.04833 9.14222H3.41889C3.45667 10.0017 3.57661 10.8554 3.77778 11.6922H1.73778C1.35736 10.8903 1.12385 10.0266 1.04833 9.14222ZM9.14222 4.04222V1.12389C10.0524 1.46977 10.8002 2.14353 11.2389 3.01278C11.4325 3.3405 11.6034 3.68144 11.7489 4.03278L9.14222 4.04222ZM12.1833 5.31722C12.4024 6.15117 12.5328 7.00589 12.5706 7.86722H9.14222V5.31722H12.1833ZM7.85778 1.12389V4.04222H5.25111C5.3968 3.6906 5.56723 3.34975 5.76111 3.02222C6.19789 2.14942 6.946 1.47207 7.85778 1.12389ZM7.85778 5.31722V7.86722H4.43889C4.47667 7.00589 4.607 6.15117 4.82611 5.31722H7.85778ZM3.41889 7.85778H1.04833C1.12385 6.97339 1.35736 6.10972 1.73778 5.30778H3.77778C3.57623 6.14422 3.45604 6.9982 3.41889 7.85778ZM4.43889 9.14222H7.85778V11.6922H4.82611C4.60703 10.8583 4.47723 10.0035 4.43889 9.14222ZM7.86722 12.92V15.8383C6.95708 15.4925 6.2092 14.8187 5.77056 13.9494C5.57667 13.6219 5.40625 13.2811 5.26056 12.9294L7.86722 12.92ZM9.14222 15.8383V12.9672H11.7489C11.6032 13.3188 11.4328 13.6597 11.2389 13.9872C10.8002 14.8565 10.0524 15.5302 9.14222 15.8761V15.8383ZM9.14222 11.645V9.095H12.5611C12.5228 9.95632 12.393 10.8111 12.1739 11.645H9.14222ZM13.5906 9.095H15.9611C15.8856 9.97938 15.6521 10.8431 15.2717 11.645H13.2222C13.4206 10.8233 13.5405 9.98561 13.5811 9.14222L13.5906 9.095ZM13.5906 7.82C13.5473 6.97596 13.424 6.13794 13.2222 5.31722H15.2622C15.6428 6.12 15.8761 6.98322 15.9517 7.86722L13.5906 7.82ZM14.535 4.04222H12.8444C12.5386 3.18306 12.0952 2.37927 11.5317 1.66222C12.7069 2.18977 13.7278 3.00905 14.4972 4.04222H14.535ZM5.46833 1.66222C4.9048 2.37927 4.46144 3.18306 4.15556 4.04222H2.50278C3.27224 3.00905 4.29308 2.18977 5.46833 1.66222ZM2.49333 12.9956H4.15556C4.46144 13.8547 4.9048 14.6585 5.46833 15.3756C4.28983 14.8401 3.26867 14.0108 2.50278 12.9672L2.49333 12.9956ZM11.5222 15.3756C12.0858 14.6585 12.5291 13.8547 12.835 12.9956H14.4972C13.7231 14.0149 12.7026 14.8208 11.5317 15.3378L11.5222 15.3756Z" fill="black"/>
</svg>
