<svg width="35" height="35" viewBox="0 0 35 35" fill="none" xmlns="http://www.w3.org/2000/svg">
<rect x="4.375" y="4.375" width="26.25" height="26.25" fill="#484A9E" fill-opacity="0.1"/>
<path fill-rule="evenodd" clip-rule="evenodd" d="M3.5 5.25153C3.5 4.28418 4.2781 3.5 5.25152 3.5H29.7485C30.7158 3.5 31.5 4.2781 31.5 5.25153V29.7485C31.5 30.7158 30.7219 31.5 29.7485 31.5H5.25152C4.28418 31.5 3.5 30.7219 3.5 29.7485V5.25153ZM5.25 5.69616V29.3038C5.25 29.5528 5.44975 29.75 5.69616 29.75H29.3038C29.5528 29.75 29.75 29.5502 29.75 29.3038V5.69616C29.75 5.44721 29.5503 5.25 29.3038 5.25H5.69616C5.44721 5.25 5.25 5.44975 5.25 5.69616ZM19.25 20.1169C19.25 19.6381 19.6446 19.25 20.1169 19.25H23.6331C24.1119 19.25 24.5 19.6446 24.5 20.1169V23.6331C24.5 24.1119 24.1054 24.5 23.6331 24.5H20.1169C19.6381 24.5 19.25 24.1054 19.25 23.6331V20.1169ZM10.5 20.1169C10.5 19.6381 10.8946 19.25 11.3669 19.25H14.8831C15.3619 19.25 15.75 19.6446 15.75 20.1169V23.6331C15.75 24.1119 15.3554 24.5 14.8831 24.5H11.3669C10.8881 24.5 10.5 24.1054 10.5 23.6331V20.1169ZM19.25 11.3669C19.25 10.8881 19.6446 10.5 20.1169 10.5H23.6331C24.1119 10.5 24.5 10.8946 24.5 11.3669V14.8831C24.5 15.3619 24.1054 15.75 23.6331 15.75H20.1169C19.6381 15.75 19.25 15.3554 19.25 14.8831V11.3669ZM10.5 11.3669C10.5 10.8881 10.8946 10.5 11.3669 10.5H14.8831C15.3619 10.5 15.75 10.8946 15.75 11.3669V14.8831C15.75 15.3619 15.3554 15.75 14.8831 15.75H11.3669C10.8881 15.75 10.5 15.3554 10.5 14.8831V11.3669Z" fill="#484A9E"/>
</svg>
