<svg width="14" height="18" viewBox="0 0 14 18" fill="none" xmlns="http://www.w3.org/2000/svg">
<path d="M13.8275 16.0859C13.8731 16.0859 13.9169 16.0687 13.9492 16.0379C13.9815 16.0071 13.9997 15.9654 13.9997 15.9219V0.53125C13.9997 0.390354 13.9409 0.255228 13.8364 0.1556C13.7318 0.0559711 13.59 0 13.4421 0H0.438642C0.323338 0.0009986 0.212991 0.0448226 0.131073 0.12215C0.0491557 0.199477 0.00213059 0.304207 0 0.414063C0 0.414063 0 12.9766 0 16.8672C0 17.1676 0.125253 17.4558 0.348204 17.6682C0.571155 17.8806 0.873542 18 1.18884 18H13.7824C13.812 18 13.8413 17.9943 13.8685 17.9832C13.8957 17.9721 13.9202 17.9558 13.9405 17.9353C13.9609 17.9148 13.9766 17.8906 13.9868 17.8641C13.9969 17.8376 14.0013 17.8094 13.9997 17.7812C13.9946 17.7391 13.9734 17.7003 13.9401 17.6722C13.9068 17.644 13.8638 17.6286 13.8193 17.6289C13.7522 17.6269 13.6886 17.6001 13.6419 17.5541C13.5953 17.5082 13.5692 17.4467 13.5692 17.3828V16.332C13.5692 16.2668 13.5964 16.2042 13.6449 16.158C13.6933 16.1119 13.759 16.0859 13.8275 16.0859ZM12.118 6.34766C12.1365 6.40518 12.131 6.46727 12.1028 6.52108C12.0746 6.57489 12.0257 6.61629 11.9663 6.63672L11.0562 6.95312C11.024 6.9649 10.9896 6.97039 10.955 6.96928C10.9205 6.96816 10.8866 6.96045 10.8552 6.94661C10.8239 6.93277 10.7958 6.91308 10.7726 6.8887C10.7494 6.86432 10.7315 6.83575 10.7201 6.80469C10.7016 6.74716 10.707 6.68507 10.7353 6.63126C10.7635 6.57745 10.8124 6.53605 10.8718 6.51562L11.7818 6.19922C11.8141 6.18744 11.8485 6.18195 11.883 6.18307C11.9176 6.18419 11.9515 6.19189 11.9828 6.20573C12.0142 6.21957 12.0423 6.23927 12.0655 6.26364C12.0887 6.28802 12.1066 6.31659 12.118 6.34766ZM9.90839 5.17578L10.6094 4.53906C10.6334 4.51568 10.6621 4.4971 10.6938 4.48441C10.7255 4.47173 10.7595 4.4652 10.7939 4.4652C10.8282 4.4652 10.8622 4.47173 10.8939 4.48441C10.9256 4.4971 10.9543 4.51568 10.9783 4.53906C11.021 4.58249 11.0447 4.63974 11.0447 4.69922C11.0447 4.7587 11.021 4.81595 10.9783 4.85937L10.2773 5.49219C10.2533 5.51557 10.2246 5.53415 10.1929 5.54683C10.1612 5.55952 10.1272 5.56605 10.0929 5.56605C10.0585 5.56605 10.0245 5.55952 9.99282 5.54683C9.96114 5.53415 9.93244 5.51557 9.90839 5.49219C9.86574 5.44876 9.84201 5.39151 9.84201 5.33203C9.84201 5.27255 9.86574 5.2153 9.90839 5.17188V5.17578ZM10.2322 8.22266C10.2321 8.69497 10.1178 9.16092 9.89809 9.58432C9.67841 10.0077 9.35929 10.3772 8.96552 10.6641C8.89614 10.7144 8.84002 10.7794 8.8016 10.854C8.76318 10.9286 8.74351 11.0107 8.74414 11.0938C8.74361 11.1397 8.73351 11.1852 8.71443 11.2274C8.69534 11.2697 8.66764 11.3079 8.63294 11.3398C8.59825 11.3718 8.55724 11.3969 8.51229 11.4137C8.46734 11.4304 8.41935 11.4385 8.37109 11.4375H5.61216C5.5639 11.4375 5.51612 11.4284 5.47158 11.4107C5.42705 11.393 5.38664 11.367 5.35271 11.3343C5.31878 11.3016 5.29199 11.2628 5.27389 11.2202C5.2558 11.1775 5.24676 11.1319 5.24731 11.0859C5.24668 11.0042 5.2264 10.9236 5.18803 10.8505C5.14965 10.7774 5.09421 10.7136 5.02594 10.6641C4.59002 10.3446 4.24678 9.92452 4.02864 9.4435C3.81051 8.96247 3.72469 8.4364 3.77929 7.91498C3.83389 7.39356 4.02711 6.89401 4.34069 6.46354C4.65427 6.03307 5.07786 5.6859 5.57143 5.45482C6.065 5.22374 6.61225 5.11639 7.16147 5.14291C7.7107 5.16943 8.24376 5.32894 8.71028 5.60638C9.17681 5.88382 9.56139 6.27002 9.8277 6.72849C10.094 7.18695 10.2332 7.70255 10.2322 8.22656V8.22266ZM8.18252 12.4023H5.80073C5.69201 12.4023 5.58774 12.3612 5.51086 12.2879C5.43398 12.2147 5.39079 12.1153 5.39079 12.0117V11.918C5.39079 11.8879 5.40331 11.8591 5.42561 11.8379C5.4479 11.8166 5.47814 11.8047 5.50967 11.8047H8.49408C8.52561 11.8047 8.55585 11.8166 8.57814 11.8379C8.60044 11.8591 8.61296 11.8879 8.61296 11.918V12.0117C8.60974 12.1146 8.56401 12.2122 8.4857 12.2831C8.4074 12.3541 8.30285 12.3927 8.19482 12.3906L8.18252 12.4023ZM8.48178 12.793C8.48232 12.8923 8.46225 12.9908 8.42273 13.0827C8.38321 13.1746 8.32502 13.2582 8.2515 13.3286C8.17798 13.399 8.09057 13.4549 7.99431 13.493C7.89805 13.5312 7.79483 13.5508 7.69058 13.5508H7.584C7.55388 13.5507 7.52422 13.5578 7.49773 13.5715C7.47123 13.5851 7.44875 13.6049 7.43232 13.6289C7.38328 13.699 7.31683 13.7565 7.23888 13.7962C7.16093 13.836 7.07389 13.8568 6.98548 13.8568C6.89707 13.8568 6.81002 13.836 6.73207 13.7962C6.65412 13.7565 6.58768 13.699 6.53864 13.6289C6.52221 13.6049 6.49972 13.5851 6.47323 13.5715C6.44673 13.5578 6.41707 13.5507 6.38696 13.5508H6.28037C6.17612 13.5508 6.0729 13.5312 5.97664 13.493C5.88038 13.4549 5.79298 13.399 5.71946 13.3286C5.64593 13.2582 5.58774 13.1746 5.54822 13.0827C5.5087 12.9908 5.48863 12.8923 5.48917 12.793C5.49024 12.7626 5.50366 12.7338 5.52661 12.7126C5.54956 12.6915 5.58024 12.6797 5.61216 12.6797H8.3629C8.37951 12.678 8.3963 12.6797 8.41218 12.6847C8.42805 12.6896 8.44265 12.6977 8.45503 12.7084C8.46741 12.7191 8.47728 12.7322 8.48401 12.7467C8.49074 12.7613 8.49417 12.7771 8.49408 12.793H8.48178ZM8.44079 4.29688L8.81384 3.44531C8.82684 3.41516 8.84599 3.38777 8.8702 3.36474C8.8944 3.3417 8.92316 3.32347 8.95482 3.31112C8.98648 3.29876 9.02039 3.29252 9.0546 3.29276C9.08881 3.29299 9.12263 3.29971 9.15409 3.3125C9.2104 3.33876 9.25407 3.38451 9.27616 3.44041C9.29826 3.49632 9.29712 3.55815 9.27297 3.61328L8.89992 4.46484C8.88692 4.49499 8.86776 4.52238 8.84356 4.54542C8.81936 4.56846 8.7906 4.58668 8.75894 4.59904C8.72728 4.61139 8.69337 4.61764 8.65916 4.6174C8.62495 4.61716 8.59113 4.61045 8.55967 4.59766C8.50336 4.5714 8.45969 4.52564 8.4376 4.46974C8.4155 4.41384 8.41664 4.352 8.44079 4.29688ZM6.99778 2.87891C7.06088 2.8809 7.12075 2.90594 7.16501 2.94885C7.20927 2.99175 7.23453 3.04922 7.23554 3.10937V4.03125C7.23664 4.06389 7.2309 4.09642 7.21867 4.12692C7.20643 4.15743 7.18795 4.18532 7.16429 4.20895C7.14064 4.23258 7.11228 4.25149 7.08088 4.26457C7.04947 4.27766 7.01565 4.28465 6.98138 4.28516C6.91828 4.28316 6.8584 4.25812 6.81414 4.21522C6.76988 4.17231 6.74463 4.11484 6.74361 4.05469V3.13281C6.74252 3.10017 6.74825 3.06765 6.76049 3.03714C6.77272 3.00663 6.7912 2.97875 6.81486 2.95511C6.83852 2.93148 6.86687 2.91257 6.89828 2.89949C6.92968 2.8864 6.9635 2.87941 6.99778 2.87891ZM4.82506 3.31641C4.88342 3.2951 4.9481 3.29576 5.00597 3.31825C5.06384 3.34074 5.11055 3.38338 5.13662 3.4375L5.54657 4.27734C5.56101 4.30681 5.56917 4.33872 5.5706 4.37121C5.57202 4.40371 5.56666 4.43615 5.55485 4.46666C5.54303 4.49717 5.52498 4.52515 5.50175 4.54898C5.47851 4.5728 5.45055 4.592 5.41948 4.60547C5.36112 4.62678 5.29644 4.62612 5.23857 4.60363C5.18071 4.58114 5.13399 4.5385 5.10792 4.48438L4.69798 3.64453C4.68354 3.61506 4.67537 3.58316 4.67395 3.55066C4.67253 3.51817 4.67788 3.48572 4.6897 3.45521C4.70152 3.4247 4.71956 3.39672 4.7428 3.3729C4.76603 3.34907 4.79399 3.32987 4.82506 3.31641ZM3.0213 4.54688C3.06687 4.50623 3.12696 4.48362 3.18938 4.48362C3.2518 4.48362 3.31188 4.50623 3.35746 4.54688L4.07896 5.16016C4.10489 5.18174 4.12602 5.20805 4.14112 5.23753C4.15622 5.26701 4.16499 5.29907 4.1669 5.33182C4.16881 5.36458 4.16383 5.39737 4.15224 5.42826C4.14066 5.45915 4.12272 5.48753 4.09946 5.51172C4.05389 5.55236 3.9938 5.57498 3.93138 5.57498C3.86896 5.57498 3.80888 5.55236 3.7633 5.51172L3.0418 4.89844C3.01587 4.87685 2.99474 4.85055 2.97964 4.82106C2.96453 4.79158 2.95577 4.75952 2.95386 4.72677C2.95195 4.69401 2.95693 4.66123 2.96852 4.63033C2.9801 4.59944 2.99804 4.57106 3.0213 4.54688ZM1.88575 6.36328C1.90877 6.30723 1.95354 6.26177 2.01078 6.23632C2.06802 6.21087 2.13334 6.20737 2.19321 6.22656L3.11149 6.51172C3.14424 6.52147 3.17462 6.53733 3.20086 6.55839C3.2271 6.57945 3.24867 6.60528 3.26432 6.63438C3.27996 6.66347 3.28937 6.69524 3.29199 6.72784C3.29461 6.76043 3.29039 6.7932 3.27957 6.82422C3.25654 6.88027 3.21178 6.92573 3.15454 6.95118C3.0973 6.97663 3.03198 6.98012 2.97211 6.96094L2.05383 6.66406C1.9905 6.64428 1.93764 6.60193 1.90632 6.54588C1.87499 6.48982 1.86762 6.42439 1.88575 6.36328ZM13.2781 17.6406H1.27903C1.06461 17.6534 0.851896 17.5972 0.674987 17.481C0.498078 17.3649 0.367212 17.1955 0.30336 17H13.2781V17.6406ZM13.2781 16.7266H0.30336C0.344538 16.5646 0.44118 16.4202 0.578024 16.3164C0.77748 16.1665 1.025 16.0865 1.27903 16.0898H13.2781V16.7266Z" fill="#484A9E"/>
</svg>
