<svg width="17" height="17" viewBox="0 0 17 17" fill="none" xmlns="http://www.w3.org/2000/svg">
<path d="M2.26667 4.53333C3.51851 4.53333 4.53333 3.51851 4.53333 2.26667C4.53333 1.01482 3.51851 0 2.26667 0C1.01482 0 0 1.01482 0 2.26667C0 3.51851 1.01482 4.53333 2.26667 4.53333Z" fill="black"/>
<path d="M5.83156 5.94V16.9991H9.41005V11.5301C9.41005 10.0871 9.69299 8.68952 11.5577 8.68952C13.3968 8.68952 13.4196 10.3394 13.4196 11.6212V17H17V10.9352C17 7.95613 16.3316 5.66669 12.7028 5.66669C10.9605 5.66669 9.79268 6.5841 9.31511 7.45232H9.26668V5.94H5.83156ZM0 5.94H3.58419V16.9991H0V5.94Z" fill="black"/>
</svg>
