<svg width="35" height="35" viewBox="0 0 35 35" fill="none" xmlns="http://www.w3.org/2000/svg">
<rect x="4.375" y="4.375" width="26.25" height="26.25" fill="#484A9E" fill-opacity="0.1"/>
<path fill-rule="evenodd" clip-rule="evenodd" d="M3.28125 5.25153C3.28125 4.28418 4.05935 3.5 5.03277 3.5H29.5297C30.4971 3.5 31.2812 4.2781 31.2812 5.25153V29.7485C31.2812 30.7158 30.5031 31.5 29.5297 31.5H5.03277C4.06543 31.5 3.28125 30.7219 3.28125 29.7485V5.25153ZM5.03125 5.69616V29.3038C5.03125 29.5528 5.231 29.75 5.47741 29.75H29.0851C29.334 29.75 29.5312 29.5502 29.5312 29.3038V5.69616C29.5312 5.44721 29.3315 5.25 29.0851 5.25H5.47741C5.22846 5.25 5.03125 5.44975 5.03125 5.69616Z" fill="#484A9E"/>
<rect x="8.75" y="9.29688" width="16.4062" height="2.28" rx="1" fill="#484A9E"/>
<rect x="8.75" y="15.8594" width="16.4062" height="2.28" rx="1" fill="#484A9E"/>
<rect x="8.75" y="22.4219" width="16.4062" height="2.28" rx="1" fill="#484A9E"/>
</svg>
