<svg width="18" height="18" viewBox="0 0 18 18" fill="none" xmlns="http://www.w3.org/2000/svg">
<path d="M8.99977 3.35999C8.43312 3.35999 7.87921 3.52801 7.40806 3.84282C6.93691 4.15764 6.5697 4.60509 6.35285 5.1286C6.13601 5.65211 6.07927 6.22816 6.18982 6.78392C6.30036 7.33967 6.57323 7.85017 6.97391 8.25085C7.37458 8.65152 7.88508 8.92439 8.44083 9.03494C8.99659 9.14548 9.57264 9.08875 10.0962 8.8719C10.6197 8.65506 11.0671 8.28784 11.3819 7.81669C11.6967 7.34555 11.8648 6.79163 11.8648 6.22499C11.8648 5.46514 11.5629 4.73642 11.0256 4.19912C10.4883 3.66183 9.75961 3.35999 8.99977 3.35999ZM8.99977 8.08999C8.6309 8.08999 8.27033 7.98061 7.96363 7.77568C7.65693 7.57075 7.41789 7.27947 7.27673 6.93869C7.13557 6.59791 7.09864 6.22292 7.1706 5.86114C7.24256 5.49937 7.42019 5.16706 7.68101 4.90623C7.94184 4.64541 8.27415 4.46778 8.63592 4.39582C8.9977 4.32386 9.37269 4.36079 9.71347 4.50195C10.0543 4.64311 10.3455 4.88215 10.5505 5.18885C10.7554 5.49554 10.8648 5.85612 10.8648 6.22499C10.8634 6.71875 10.6664 7.19183 10.3168 7.54051C9.96714 7.88918 9.49353 8.08499 8.99977 8.08499V8.08999Z" fill="black"/>
<path d="M9.00035 1C7.44295 1.0013 5.94934 1.61884 4.84576 2.71775C3.74217 3.81665 3.11828 5.30762 3.11035 6.865C3.11035 9.2 4.42035 11.155 5.38035 12.58L5.55535 12.84C6.51049 14.2243 7.53514 15.5594 8.62535 16.84L9.00535 17.285L9.38535 16.84C10.4754 15.5592 11.5001 14.2242 12.4554 12.84L12.6304 12.575C13.5854 11.15 14.8954 9.2 14.8954 6.865C14.8874 5.30675 14.2628 3.81503 13.1582 2.71599C12.0535 1.61694 10.5586 0.99998 9.00035 1ZM11.7954 12L11.6154 12.265C10.7554 13.555 9.61535 15 9.00035 15.715C8.41035 15 7.24535 13.555 6.38535 12.265L6.21035 12C5.32535 10.68 4.11035 8.875 4.11035 6.845C4.11035 6.20284 4.23684 5.56696 4.48258 4.97368C4.72833 4.3804 5.08852 3.84133 5.5426 3.38725C5.99668 2.93317 6.53575 2.57297 7.12903 2.32723C7.72231 2.08148 8.35819 1.955 9.00035 1.955C9.64252 1.955 10.2784 2.08148 10.8717 2.32723C11.465 2.57297 12.004 2.93317 12.4581 3.38725C12.9122 3.84133 13.2724 4.3804 13.5181 4.97368C13.7639 5.56696 13.8904 6.20284 13.8904 6.845C13.8904 8.895 12.6804 10.7 11.7954 12Z" fill="black"/>
</svg>
