<svg width="516" height="533" viewBox="0 0 516 533" fill="none" xmlns="http://www.w3.org/2000/svg">
<path d="M209.943 56.8673L419.568 113.036L475.737 322.661L322.281 476.117L112.656 419.948L56.4872 210.323L209.943 56.8673Z" fill="url(#paint0_linear)"/>
<rect x="88.6091" y="210.144" width="461.233" height="346.404" rx="9" transform="rotate(-25.1036 88.6091 210.144)" fill="white" fill-opacity="0.6" stroke="white" stroke-width="2"/>
<path d="M204.528 331.65L208.554 329.764L208.223 329.057L204.994 330.569L203.946 328.331L206.917 326.939L206.586 326.232L203.614 327.624L202.572 325.399L205.749 323.91L205.417 323.203L201.443 325.065L204.528 331.65ZM209.837 329.163L210.596 328.808L209.15 325.72C208.811 324.997 209.099 324.239 209.691 323.961C210.266 323.692 210.844 323.88 211.108 324.442L212.693 327.825L213.465 327.464L211.958 324.248C211.66 323.611 211.839 322.955 212.533 322.629C213.073 322.376 213.671 322.446 214.013 323.176L215.561 326.481L216.32 326.126L214.772 322.82C214.228 321.659 213.352 321.414 212.471 321.827C211.764 322.159 211.398 322.726 211.384 323.356L211.332 323.38C210.841 322.968 210.265 322.861 209.616 323.165C208.972 323.466 208.641 323.998 208.682 324.622L208.618 324.652L208.256 323.88L207.523 324.224L209.837 329.163ZM219.216 324.91C220.077 324.507 220.311 323.833 220.314 323.439L220.353 323.421L220.666 324.09L221.425 323.734L219.901 320.48C219.165 318.911 217.885 319.291 217.254 319.586C216.508 319.936 215.78 320.591 215.816 321.672L216.657 321.592C216.655 321.153 216.87 320.582 217.594 320.243C218.291 319.916 218.809 320.125 219.105 320.758L219.118 320.784C219.289 321.15 218.901 321.293 218.055 321.831C217.194 322.379 216.289 323.05 216.819 324.182C217.271 325.147 218.277 325.35 219.216 324.91ZM219.012 324.175C218.407 324.458 217.844 324.393 217.596 323.865C217.325 323.286 217.768 322.859 218.324 322.505C218.627 322.316 219.447 321.822 219.503 321.607L219.829 322.302C220.118 322.919 219.912 323.753 219.012 324.175ZM222.81 323.085L223.569 322.73L221.255 317.79L220.496 318.146L222.81 323.085ZM220.496 317.142C220.792 317.003 220.928 316.657 220.796 316.374C220.663 316.091 220.31 315.974 220.014 316.113C219.718 316.251 219.583 316.597 219.715 316.88C219.848 317.163 220.201 317.28 220.496 317.142ZM222.633 315.137L221.874 315.493L224.959 322.078L225.718 321.723L222.633 315.137ZM230.028 319.704L229.817 317.528L232.479 316.281L234.015 317.835L234.852 317.444L229.348 311.991L228.525 312.377L229.192 320.095L230.028 319.704ZM229.736 316.703L229.399 313.238L229.45 313.214L231.897 315.691L229.736 316.703ZM237.688 316.24C238.64 315.794 238.684 315.052 238.725 314.704L238.815 314.661L239.17 315.42L239.903 315.077L236.818 308.491L236.059 308.847L237.198 311.278L237.134 311.308C236.846 311.129 236.273 310.676 235.308 311.128C234.061 311.712 233.663 313.107 234.392 314.663C235.127 316.232 236.453 316.819 237.688 316.24ZM237.471 315.51C236.519 315.956 235.639 315.349 235.145 314.295C234.657 313.253 234.753 312.219 235.718 311.767C236.644 311.333 237.482 311.85 238 312.957C238.525 314.076 238.385 315.083 237.471 315.51ZM243.312 313.605C244.264 313.159 244.308 312.417 244.349 312.069L244.439 312.026L244.795 312.785L245.528 312.442L242.442 305.856L241.683 306.212L242.822 308.643L242.758 308.673C242.47 308.494 241.897 308.041 240.932 308.493C239.685 309.077 239.287 310.472 240.016 312.028C240.751 313.597 242.077 314.184 243.312 313.605ZM243.096 312.875C242.144 313.321 241.263 312.714 240.769 311.66C240.281 310.618 240.377 309.584 241.342 309.132C242.268 308.698 243.106 309.215 243.625 310.322C244.149 311.441 244.009 312.448 243.096 312.875ZM247.023 311.741L247.782 311.386L246.318 308.26C246.004 307.591 246.303 306.855 247.023 306.518C247.225 306.423 247.453 306.364 247.51 306.352L247.148 305.581C247.059 305.615 246.856 305.702 246.744 305.754C246.152 306.032 245.794 306.607 245.843 307.18L245.792 307.204L245.442 306.458L244.709 306.802L247.023 311.741ZM252.361 309.366C253.364 308.896 253.863 308.051 253.745 307.196L252.915 307.334C252.963 307.939 252.637 308.405 252.042 308.684C251.151 309.101 250.267 308.814 249.736 307.772L253.321 306.092L253.171 305.771C252.309 303.931 250.92 303.813 249.891 304.295C248.554 304.922 248.16 306.393 248.871 307.911C249.583 309.428 250.933 310.035 252.361 309.366ZM249.429 307.116C249.12 306.323 249.343 305.384 250.211 304.977C251.034 304.591 251.851 304.962 252.242 305.798L249.429 307.116ZM257.215 302.292C256.649 301.702 255.895 301.483 254.918 301.941C253.876 302.429 253.381 303.382 253.773 304.218C254.092 304.9 254.711 305.167 255.718 304.954L256.631 304.761C257.184 304.643 257.53 304.771 257.69 305.112C257.889 305.537 257.601 306.095 256.894 306.426C256.273 306.717 255.759 306.633 255.375 306.165L254.739 306.683C255.309 307.439 256.21 307.562 257.22 307.089C258.368 306.551 258.856 305.558 258.456 304.706C258.134 304.018 257.5 303.786 256.518 303.983L255.7 304.147C255.047 304.276 254.691 304.203 254.514 303.824C254.315 303.399 254.62 302.88 255.225 302.597C255.887 302.286 256.332 302.525 256.624 302.804L257.215 302.292ZM261.946 300.075C261.38 299.485 260.626 299.266 259.649 299.724C258.607 300.212 258.112 301.165 258.504 302.002C258.823 302.683 259.442 302.95 260.449 302.737L261.362 302.545C261.915 302.427 262.261 302.555 262.421 302.896C262.62 303.32 262.332 303.878 261.625 304.21C261.004 304.501 260.49 304.416 260.106 303.949L259.47 304.466C260.041 305.223 260.941 305.346 261.951 304.873C263.099 304.335 263.587 303.342 263.187 302.49C262.865 301.801 262.231 301.569 261.249 301.767L260.431 301.93C259.778 302.059 259.423 301.987 259.245 301.607C259.046 301.183 259.351 300.663 259.956 300.38C260.618 300.07 261.064 300.308 261.355 300.587L261.946 300.075Z" fill="black"/>
<path d="M238.068 409.803L238.866 409.43L237.739 407.024L239.18 406.349C240.713 405.631 240.968 404.374 240.423 403.21C239.877 402.046 238.755 401.45 237.208 402.175L234.983 403.217L238.068 409.803ZM237.407 406.317L236.112 403.551L237.514 402.894C238.585 402.393 239.267 402.787 239.638 403.578C240.009 404.369 239.88 405.158 238.822 405.654L237.407 406.317ZM245.221 406.593C246.083 406.189 246.316 405.515 246.32 405.121L246.359 405.103L246.672 405.772L247.431 405.417L245.906 402.162C245.171 400.593 243.89 400.974 243.26 401.269C242.514 401.618 241.786 402.273 241.822 403.355L242.662 403.274C242.661 402.836 242.876 402.265 243.599 401.926C244.297 401.599 244.814 401.807 245.111 402.441L245.123 402.467C245.295 402.833 244.907 402.976 244.061 403.513C243.2 404.062 242.295 404.733 242.825 405.865C243.277 406.829 244.282 407.033 245.221 406.593ZM245.018 405.857C244.413 406.14 243.849 406.075 243.602 405.548C243.331 404.969 243.774 404.542 244.329 404.187C244.633 403.998 245.453 403.504 245.509 403.29L245.834 403.984C246.124 404.602 245.918 405.435 245.018 405.857ZM250.519 399.295C249.952 398.706 249.199 398.487 248.221 398.945C247.179 399.433 246.685 400.386 247.076 401.222C247.396 401.904 248.015 402.171 249.021 401.958L249.935 401.765C250.487 401.647 250.834 401.775 250.993 402.116C251.192 402.541 250.905 403.099 250.197 403.43C249.577 403.721 249.063 403.637 248.679 403.169L248.043 403.687C248.613 404.443 249.514 404.566 250.524 404.093C251.672 403.555 252.159 402.562 251.76 401.71C251.438 401.022 250.803 400.79 249.821 400.987L249.004 401.15C248.351 401.28 247.995 401.207 247.817 400.828C247.618 400.403 247.924 399.884 248.528 399.601C249.191 399.29 249.636 399.529 249.928 399.808L250.519 399.295ZM255.25 397.079C254.684 396.489 253.93 396.27 252.952 396.728C251.91 397.216 251.416 398.169 251.808 399.005C252.127 399.687 252.746 399.954 253.752 399.741L254.666 399.549C255.219 399.431 255.565 399.559 255.725 399.9C255.923 400.324 255.636 400.882 254.928 401.214C254.308 401.505 253.794 401.42 253.41 400.953L252.774 401.47C253.344 402.227 254.245 402.35 255.255 401.877C256.403 401.339 256.89 400.346 256.491 399.493C256.169 398.805 255.534 398.573 254.552 398.77L253.735 398.934C253.082 399.063 252.726 398.991 252.548 398.611C252.349 398.187 252.655 397.667 253.26 397.384C253.922 397.074 254.367 397.312 254.659 397.591L255.25 397.079ZM259.397 399.81L260.143 399.461L259.446 395.16L259.523 395.124L262.382 398.412L263.128 398.063L262.318 392.418L261.521 392.792L262.219 397.061L262.168 397.085L259.36 393.804L258.55 394.184L259.267 398.46L259.215 398.484L256.376 395.202L255.578 395.576L259.397 399.81ZM267.523 396.129C268.86 395.502 269.285 394.064 268.567 392.534C267.844 390.99 266.468 390.396 265.13 391.022C263.792 391.649 263.368 393.087 264.091 394.631C264.808 396.161 266.185 396.756 267.523 396.129ZM267.203 395.447C266.187 395.923 265.314 395.266 264.85 394.275C264.386 393.285 264.433 392.18 265.45 391.704C266.466 391.228 267.345 391.899 267.809 392.889C268.273 393.88 268.219 394.971 267.203 395.447ZM270.871 394.435L271.63 394.079L270.165 390.954C269.852 390.285 270.15 389.549 270.871 389.211C271.073 389.116 271.3 389.057 271.358 389.046L270.996 388.274C270.907 388.308 270.704 388.395 270.592 388.448C270 388.725 269.642 389.301 269.691 389.874L269.64 389.898L269.29 389.152L268.557 389.495L270.871 394.435ZM276.003 392.156C276.955 391.71 276.999 390.967 277.04 390.619L277.13 390.577L277.486 391.336L278.219 390.992L275.133 384.406L274.374 384.762L275.513 387.193L275.449 387.223C275.161 387.044 274.588 386.591 273.624 387.043C272.376 387.628 271.978 389.022 272.707 390.578C273.443 392.148 274.768 392.734 276.003 392.156ZM275.787 391.426C274.835 391.872 273.954 391.265 273.46 390.21C272.972 389.168 273.068 388.135 274.033 387.683C274.959 387.249 275.797 387.766 276.316 388.872C276.84 389.991 276.7 390.998 275.787 391.426Z" fill="black"/>
<g clip-path="url(#clip0)">
<path d="M348.23 225.694C368.985 215.97 377.716 190.811 367.731 169.499C357.746 148.187 332.827 138.793 312.072 148.517C291.317 158.241 282.586 183.401 292.571 204.713C302.556 226.024 327.476 235.418 348.23 225.694Z" fill="#F7D8BA"/>
<path d="M319.711 196.515C319.711 196.515 316.684 197.894 315.858 202.484C315.032 207.074 322.91 233.132 322.91 233.132L339.842 228.557L319.711 196.515Z" fill="#D6D6D6"/>
<path d="M346.4 157.594C348.118 162.026 346.42 166.868 342.577 168.354C338.734 169.84 334.222 167.45 332.515 162.986C330.807 158.523 332.494 153.713 336.337 152.226C340.18 150.74 344.676 153.164 346.4 157.594Z" fill="#1C2238"/>
<path d="M308.035 161.571C308.035 161.571 324.199 152.8 331.833 158.932C337.888 163.795 338.565 175.386 331.631 181.646C325.027 187.608 317.794 161.411 317.794 161.411L308.035 161.571Z" fill="#1C2238"/>
<path d="M316.384 158.805C316.384 158.805 300.229 161.634 302.136 170.43C303.565 177.093 315.71 174.382 315.71 174.382L316.384 158.805Z" fill="#1C2238"/>
<path d="M316.327 176.712C316.669 177.438 316.788 178.25 316.671 179.043C316.553 179.836 316.204 180.576 315.667 181.168C315.13 181.76 314.429 182.179 313.653 182.37C312.877 182.562 312.061 182.519 311.308 182.245C310.555 181.972 309.899 181.48 309.423 180.834C308.947 180.187 308.671 179.414 308.632 178.613C308.593 177.811 308.792 177.017 309.203 176.33C309.614 175.644 310.22 175.096 310.943 174.756C311.423 174.529 311.943 174.4 312.473 174.376C313.004 174.352 313.535 174.433 314.035 174.614C314.535 174.796 314.995 175.075 315.388 175.435C315.781 175.795 316.1 176.228 316.327 176.712Z" fill="#D69C79"/>
<path d="M321.982 186.711L326.21 196.056C327.528 198.869 329.936 199.587 332.691 198.296C335.046 197.193 336.676 194.93 335.865 192.449L328.899 178.776L321.982 186.711Z" fill="#EDB994"/>
<path d="M324.07 191.376L330.931 180.305L321.589 185.9L324.07 191.376Z" fill="#D69C79"/>
<path d="M324.997 187.085C320.159 188.979 314.67 186.686 312.987 182.774L309.047 173.49C308.03 171.129 307.966 168.466 308.869 166.066C309.771 163.666 311.569 161.715 313.883 160.625C318.812 158.316 325.559 160.039 327.886 164.992L330.964 172.479C333.353 178.287 330.631 184.433 324.997 187.085Z" fill="#EDB994"/>
<path d="M320.952 164.718C321.955 171.96 328.54 172.129 328.54 172.129L331.322 164.167C331.322 164.167 320.596 162.305 320.952 164.718Z" fill="#1C2238"/>
<path d="M335.227 172.78C335.982 170.674 334.892 168.346 332.79 167.579C330.689 166.812 328.372 167.897 327.617 170.003C326.861 172.108 327.952 174.437 330.053 175.203C332.155 175.97 334.471 174.885 335.227 172.78Z" fill="#EDB994"/>
<path d="M330.657 173.088C330.657 173.088 329.399 170.404 332.132 169.647" stroke="#3E2216" stroke-width="1.05" stroke-linecap="round" stroke-linejoin="round"/>
<path d="M322.891 164.811C322.891 164.811 313.375 162.251 307.08 170.097C307.08 170.097 305.229 160.392 320.927 158.202C336.626 156.013 329.662 165.573 329.662 165.573L322.891 164.811Z" fill="#1C2238"/>
<path d="M314.94 176.602C314.961 176.775 314.931 176.951 314.853 177.106C314.775 177.262 314.652 177.391 314.501 177.476C314.349 177.562 314.176 177.6 314.003 177.586C313.829 177.573 313.663 177.508 313.526 177.4C313.389 177.292 313.287 177.146 313.232 176.98C313.177 176.814 313.173 176.636 313.22 176.468C313.266 176.299 313.361 176.149 313.493 176.036C313.625 175.922 313.787 175.851 313.96 175.83C314.191 175.803 314.425 175.868 314.608 176.013C314.792 176.158 314.911 176.369 314.94 176.602Z" fill="#221914"/>
<path d="M322.234 173.918C322.259 174.049 322.257 174.185 322.229 174.315C322.2 174.446 322.145 174.569 322.068 174.678C321.99 174.786 321.891 174.878 321.776 174.946C321.662 175.015 321.535 175.059 321.402 175.076C321.27 175.093 321.135 175.083 321.007 175.047C320.879 175.01 320.759 174.947 320.655 174.863C320.551 174.778 320.466 174.673 320.404 174.554C320.342 174.435 320.305 174.305 320.295 174.172C320.269 174.04 320.271 173.905 320.299 173.774C320.328 173.643 320.383 173.52 320.461 173.412C320.538 173.303 320.638 173.212 320.752 173.144C320.866 173.075 320.994 173.031 321.126 173.014C321.258 172.996 321.393 173.006 321.521 173.043C321.65 173.08 321.769 173.142 321.873 173.227C321.977 173.312 322.062 173.416 322.124 173.535C322.186 173.654 322.224 173.784 322.234 173.918Z" fill="#221914"/>
<path d="M315.832 178.311L316.031 179.999C316.036 180.065 316.054 180.13 316.084 180.189C316.114 180.248 316.155 180.3 316.205 180.343C316.256 180.386 316.314 180.418 316.377 180.438C316.44 180.458 316.506 180.465 316.572 180.459L317.512 180.353" stroke="black" stroke-width="0.78" stroke-linecap="round" stroke-linejoin="round"/>
<path d="M318.853 169.524C318.853 169.524 316.1 170.055 316.52 171.495C316.52 171.495 316.838 172.452 319.22 171.932C321.601 171.413 322.456 170.973 322.373 170.003C322.29 169.034 320.103 169.148 318.853 169.524Z" fill="#221914"/>
<path d="M309.803 173.116C309.803 173.116 312.025 171.742 312.736 173.052C312.736 173.052 313.201 173.947 311.221 175.071C309.783 175.895 309.139 175.771 308.815 175.177C308.438 174.47 308.943 173.546 309.803 173.116Z" fill="#221914"/>
<path d="M321.331 179.428C321.331 179.428 320.861 181.9 317.758 182.267" stroke="black" stroke-width="0.78" stroke-linecap="round" stroke-linejoin="round"/>
<path d="M359.436 202.211C359.224 203.449 359.085 204.699 359.021 205.954C358.873 208.544 360.453 215.876 361.336 219.554L335.672 233.542L331.266 221.943C331.266 221.943 326.523 220.159 322 214.677C320.143 212.072 318.964 209.045 318.569 205.871C318.174 202.698 318.577 199.479 319.74 196.507L329.129 193.68L346.901 185.353L346.934 185.423L359.436 202.211Z" fill="white"/>
<path d="M319.711 196.515L328.934 193.208L340.64 188.28C340.64 188.28 342.025 196.922 332.786 201.126C323.548 205.33 319.711 196.515 319.711 196.515Z" fill="#EDB994"/>
<path d="M379.774 206.49L368.052 211.982L359.021 205.954L345.76 197.11C344.35 195.911 343.456 194.212 343.266 192.371C343.077 190.529 343.605 188.689 344.742 187.236C345.335 186.485 346.071 185.859 346.908 185.396C347.042 185.333 347.175 185.271 347.309 185.208C348.621 184.592 350.091 184.394 351.523 184.641C352.954 184.888 354.277 185.568 355.315 186.59C361.421 192.574 372.742 199.447 379.774 206.49Z" fill="white"/>
</g>
<rect x="207.364" y="345.23" width="257.47" height="35" rx="4.5" transform="rotate(-25.1036 207.364 345.23)" stroke="#ABABAB" stroke-opacity="0.5"/>
<rect x="242.212" y="419.457" width="257.47" height="35" rx="4.5" transform="rotate(-25.1036 242.212 419.457)" stroke="#ABABAB" stroke-opacity="0.5"/>
<g clip-path="url(#clip1)">
<path d="M66 191.523V240.889C66 246.374 133 246.374 133 240.889V191.523H66Z" fill="#484A9E"/>
<path d="M99.4974 218.452C104.065 218.452 107.767 214.743 107.767 210.167C107.767 205.592 104.065 201.882 99.4974 201.882C94.9302 201.882 91.2278 205.592 91.2278 210.167C91.2278 214.743 94.9302 218.452 99.4974 218.452Z" fill="#DFDFDF"/>
<path d="M99.5025 235.108C98.6035 235.108 97.7413 234.75 97.1056 234.113C96.4699 233.476 96.1128 232.612 96.1128 231.712V212.705H102.892V231.712C102.892 232.158 102.805 232.599 102.634 233.011C102.464 233.423 102.214 233.798 101.899 234.113C101.585 234.428 101.211 234.679 100.8 234.849C100.388 235.02 99.9477 235.108 99.5025 235.108Z" fill="#DFDFDF"/>
<path d="M127.13 188.007H120.35V184.669C120.35 179.129 118.154 173.817 114.244 169.9C110.334 165.983 105.032 163.782 99.5025 163.782C93.9732 163.782 88.6705 165.983 84.7607 169.9C80.851 173.817 78.6545 179.129 78.6545 184.669V188.007H71.875V184.669C71.875 177.328 74.7857 170.288 79.9669 165.097C85.148 159.907 92.1752 156.99 99.5025 156.99C106.83 156.99 113.857 159.907 119.038 165.097C124.219 170.288 127.13 177.328 127.13 184.669V188.007Z" fill="#484A9E"/>
</g>
<defs>
<linearGradient id="paint0_linear" x1="209.943" y1="56.8673" x2="322.281" y2="476.117" gradientUnits="userSpaceOnUse">
<stop stop-color="#E8E8FF"/>
<stop offset="1" stop-color="#B2B3E3" stop-opacity="0"/>
</linearGradient>
<clipPath id="clip0">
<rect width="83" height="87" fill="white" transform="translate(274.492 166.124) rotate(-25.1036)"/>
</clipPath>
<clipPath id="clip1">
<rect width="67" height="88" fill="white" transform="translate(66 157)"/>
</clipPath>
</defs>
</svg>
