<svg width="384" height="262" viewBox="0 0 384 262" fill="none" xmlns="http://www.w3.org/2000/svg">
<path d="M68.4845 207.243C71.4712 207.577 74.4145 208.224 77.2661 209.172L77.3868 209.214L77.7006 209.323C93.6342 215.001 100.955 213.934 107.22 212.017C124.119 206.827 134.174 184.482 161.581 188.804C173.206 190.613 182.555 193.132 189.845 198.208L190.002 198.328C191.047 199.058 192.067 199.805 193.02 200.57C207.276 209.865 221.477 197.749 225.551 195.007C225.853 194.79 226.155 193.066 226.469 192.849L226.722 192.656C244.581 180.082 272.99 167.339 300.355 170.473C347.431 175.844 366.346 229.142 366.346 229.142H14.7327C20.2249 216.538 42.2 204.241 68.4845 207.243Z" fill="#E3CDC9"/>
<path d="M32.8028 71.7134H60.5237C61.1704 71.7134 61.6946 71.1898 61.6946 70.544V62.8525C61.6946 62.2066 61.1704 61.6831 60.5237 61.6831H32.8028C32.1562 61.6831 31.632 62.2066 31.632 62.8525V70.544C31.632 71.1898 32.1562 71.7134 32.8028 71.7134Z" fill="#8155FF"/>
<path d="M37.5225 65.5708H57.2101" stroke="white" stroke-width="0.62" stroke-miterlimit="10"/>
<path d="M37.5225 67.8135H43.3165" stroke="white" stroke-width="0.62" stroke-miterlimit="10"/>
<path d="M58.1154 70.375V74.914L52.3274 70.375H58.1154Z" fill="#8155FF"/>
<path d="M357.927 119.255C359.787 119.255 361.295 117.727 361.295 115.843C361.295 113.959 359.787 112.431 357.927 112.431C356.067 112.431 354.559 113.959 354.559 115.843C354.559 117.727 356.067 119.255 357.927 119.255Z" stroke="white" stroke-width="1.09" stroke-miterlimit="10"/>
<path d="M19.1745 142.215C21.8312 142.215 23.9848 140.035 23.9848 137.345C23.9848 134.655 21.8312 132.474 19.1745 132.474C16.5179 132.474 14.3643 134.655 14.3643 137.345C14.3643 140.035 16.5179 142.215 19.1745 142.215Z" stroke="white" stroke-width="1.09" stroke-miterlimit="10"/>
<path d="M202.272 35.8356C202.263 36.191 202.149 36.5358 201.944 36.8268C201.739 37.1177 201.453 37.342 201.122 37.4715C200.79 37.601 200.428 37.63 200.08 37.5549C199.732 37.4798 199.414 37.3038 199.165 37.0491C198.917 36.7944 198.749 36.4722 198.683 36.1228C198.617 35.7734 198.656 35.4123 198.794 35.0846C198.932 34.757 199.164 34.4774 199.461 34.2807C199.757 34.0841 200.106 33.9791 200.462 33.979C200.947 33.9885 201.41 34.1887 201.748 34.5362C202.087 34.8837 202.276 35.3505 202.272 35.8356Z" stroke="white" stroke-width="1.09" stroke-miterlimit="10"/>
<path d="M293.408 53.3704H334.008C334.008 53.3704 333.809 51.4114 329.301 49.8441C324.792 48.2769 321.551 52.2914 316.451 49.8441C311.351 47.3968 308.647 43.8826 302.081 45.8416C300.175 46.3942 298.413 47.3536 296.915 48.6535C295.418 49.9535 294.221 51.5629 293.408 53.3704V53.3704Z" stroke="#FAFAFA" stroke-width="1.1" stroke-linecap="round" stroke-linejoin="round"/>
<path d="M251.329 90.0137H113.177V228.431H251.329V90.0137Z" fill="white"/>
<path d="M251.329 68.2415V90.014H113.177V68.2415C113.177 66.1632 114.004 64.17 115.475 62.7004C116.946 61.2309 118.942 60.4053 121.023 60.4053H243.489C245.568 60.4069 247.563 61.2332 249.033 62.7026C250.503 64.172 251.329 66.1642 251.329 68.2415Z" fill="#8155FF"/>
<path d="M229.921 80.4176C233.511 80.4176 236.421 77.511 236.421 73.9256C236.421 70.3402 233.511 67.4336 229.921 67.4336C226.331 67.4336 223.421 70.3402 223.421 73.9256C223.421 77.511 226.331 80.4176 229.921 80.4176Z" fill="#2B4183"/>
<path d="M229.915 76.3665C230.902 76.3665 231.85 75.9747 232.548 75.2772C233.246 74.5797 233.639 73.6337 233.639 72.6473V55.8417C233.639 54.8553 233.246 53.9094 232.548 53.2119C231.85 52.5144 230.902 52.1226 229.915 52.1226C228.927 52.1226 227.98 52.5144 227.282 53.2119C226.583 53.9094 226.191 54.8553 226.191 55.8417V72.6473C226.191 73.6337 226.583 74.5797 227.282 75.2772C227.98 75.9747 228.927 76.3665 229.915 76.3665Z" fill="#FFCB2D"/>
<path d="M184.051 80.4176C187.641 80.4176 190.552 77.511 190.552 73.9256C190.552 70.3402 187.641 67.4336 184.051 67.4336C180.462 67.4336 177.551 70.3402 177.551 73.9256C177.551 77.511 180.462 80.4176 184.051 80.4176Z" fill="#2B4183"/>
<path d="M184.045 76.3665C185.033 76.3665 185.981 75.9749 186.68 75.2776C187.38 74.5803 187.773 73.6343 187.775 72.6473V55.8417C187.773 54.8548 187.38 53.9088 186.68 53.2115C185.981 52.5142 185.033 52.1226 184.045 52.1226C183.058 52.1226 182.11 52.5144 181.412 53.2119C180.714 53.9094 180.321 54.8553 180.321 55.8417V72.6473C180.321 73.6337 180.714 74.5797 181.412 75.2772C182.11 75.9747 183.058 76.3665 184.045 76.3665Z" fill="#FFCB2D"/>
<path d="M138.182 80.4176C141.772 80.4176 144.682 77.511 144.682 73.9256C144.682 70.3402 141.772 67.4336 138.182 67.4336C134.592 67.4336 131.682 70.3402 131.682 73.9256C131.682 77.511 134.592 80.4176 138.182 80.4176Z" fill="#2B4183"/>
<path d="M138.182 76.3665C139.169 76.3665 140.117 75.9747 140.815 75.2772C141.513 74.5797 141.906 73.6337 141.906 72.6473V55.8417C141.906 54.8553 141.513 53.9094 140.815 53.2119C140.117 52.5144 139.169 52.1226 138.182 52.1226C137.194 52.1226 136.246 52.5142 135.546 53.2115C134.847 53.9088 134.454 54.8548 134.452 55.8417V72.6473C134.454 73.6343 134.847 74.5803 135.546 75.2776C136.246 75.9749 137.194 76.3665 138.182 76.3665Z" fill="#FFCB2D"/>
<path d="M204.65 138.496H230.917V112.262H204.65V138.496Z" stroke="#F0E0DF" stroke-width="2.21" stroke-miterlimit="10"/>
<path d="M169.699 138.496H195.965V112.262H169.699V138.496Z" stroke="#F0E0DF" stroke-width="2.21" stroke-miterlimit="10"/>
<path d="M134.748 138.496H161.014V112.262H134.748V138.496Z" stroke="#F0E0DF" stroke-width="2.21" stroke-miterlimit="10"/>
<path d="M204.65 171.793H230.917V145.56H204.65V171.793Z" stroke="#F0E0DF" stroke-width="2.21" stroke-miterlimit="10"/>
<path d="M169.699 171.793H195.965V145.56H169.699V171.793Z" stroke="#F0E0DF" stroke-width="2.21" stroke-miterlimit="10"/>
<path d="M134.748 171.793H161.014V145.56H134.748V171.793Z" fill="#F88AA0"/>
<path d="M144.241 154.928L151.526 162.426" stroke="white" stroke-width="2.02" stroke-miterlimit="10"/>
<path d="M151.526 154.928L144.241 162.426" stroke="white" stroke-width="2.02" stroke-miterlimit="10"/>
<path d="M204.65 205.097H230.917V178.864H204.65V205.097Z" stroke="#F0E0DF" stroke-width="2.21" stroke-miterlimit="10"/>
<path d="M169.699 205.097H195.965V178.864H169.699V205.097Z" stroke="#F0E0DF" stroke-width="2.21" stroke-miterlimit="10"/>
<path d="M134.748 205.097H161.014V178.864H134.748V205.097Z" stroke="#F0E0DF" stroke-width="2.21" stroke-miterlimit="10"/>
<path d="M248.957 137.224H236.174V145.632H248.957V137.224Z" fill="#FFA80A"/>
<path d="M250.924 139.406H234.206C233.292 139.406 232.415 139.043 231.769 138.398C231.123 137.752 230.76 136.877 230.76 135.964C230.759 135.512 230.848 135.063 231.02 134.645C231.193 134.227 231.447 133.847 231.767 133.526C232.087 133.206 232.467 132.952 232.886 132.779C233.304 132.605 233.753 132.516 234.206 132.516H250.924C251.84 132.516 252.718 132.879 253.365 133.526C254.013 134.173 254.376 135.05 254.376 135.964C254.375 136.877 254.01 137.753 253.363 138.398C252.716 139.043 251.839 139.406 250.924 139.406Z" fill="#FFCB2D"/>
<path d="M211.573 149.979L204.365 157.178L209.448 162.255L216.656 155.056L211.573 149.979Z" fill="#FFA80A"/>
<path d="M213.842 149.69L203.775 159.744C203.288 160.23 202.627 160.503 201.937 160.503C201.248 160.503 200.587 160.23 200.1 159.744C199.613 159.257 199.339 158.597 199.339 157.909C199.339 157.22 199.613 156.56 200.1 156.073L210.167 146.019C210.655 145.532 211.315 145.259 212.005 145.259C212.694 145.259 213.355 145.532 213.842 146.019C214.329 146.506 214.603 147.166 214.603 147.854C214.603 148.542 214.329 149.202 213.842 149.69Z" fill="#FFCB2D"/>
<path d="M242.414 228.316C266.277 228.316 285.622 208.996 285.622 185.163C285.622 161.33 266.277 142.01 242.414 142.01C218.551 142.01 199.206 161.33 199.206 185.163C199.206 208.996 218.551 228.316 242.414 228.316Z" fill="#F67B91"/>
<path d="M242.414 225.996C264.994 225.996 283.298 207.714 283.298 185.163C283.298 162.612 264.994 144.331 242.414 144.331C219.835 144.331 201.53 162.612 201.53 185.163C201.53 207.714 219.835 225.996 242.414 225.996Z" fill="#F88AA0"/>
<path d="M242.414 221.384C262.444 221.384 278.681 205.168 278.681 185.163C278.681 165.159 262.444 148.942 242.414 148.942C222.384 148.942 206.147 165.159 206.147 185.163C206.147 205.168 222.384 221.384 242.414 221.384Z" fill="#F6F6F6"/>
<g opacity="0.71">
<g opacity="0.71">
<path opacity="0.71" d="M202.743 156.507L257.708 241.578L282.544 220.245L228.158 144.102L202.743 156.507Z" fill="white"/>
<path opacity="0.71" d="M232.033 136.012L287.004 221.083L290.197 210.42L235.811 134.276L232.033 136.012Z" fill="white"/>
</g>
</g>
<path d="M242.595 157.104C242.354 157.102 242.123 157.006 241.953 156.835C241.782 156.665 241.685 156.434 241.684 156.194V154.054C241.71 153.832 241.816 153.627 241.983 153.479C242.15 153.33 242.366 153.248 242.589 153.248C242.813 153.248 243.029 153.33 243.195 153.479C243.362 153.627 243.469 153.832 243.494 154.054V156.194C243.494 156.433 243.4 156.663 243.232 156.833C243.064 157.003 242.835 157.101 242.595 157.104Z" fill="#8054FF"/>
<path d="M242.595 217.623C242.353 217.621 242.121 217.524 241.951 217.352C241.78 217.181 241.684 216.949 241.684 216.707V214.573C241.669 214.445 241.682 214.316 241.72 214.194C241.759 214.071 241.823 213.959 241.909 213.863C241.994 213.767 242.099 213.69 242.216 213.638C242.334 213.585 242.461 213.558 242.589 213.558C242.718 213.558 242.845 213.585 242.962 213.638C243.079 213.69 243.184 213.767 243.27 213.863C243.355 213.959 243.42 214.071 243.458 214.194C243.497 214.316 243.509 214.445 243.495 214.573V216.707C243.496 216.947 243.403 217.178 243.234 217.35C243.066 217.522 242.836 217.62 242.595 217.623Z" fill="#8054FF"/>
<path d="M221.93 165.651C221.688 165.651 221.456 165.555 221.284 165.386L219.775 163.873C219.604 163.702 219.508 163.47 219.508 163.228C219.508 162.986 219.604 162.754 219.775 162.583C219.947 162.412 220.179 162.316 220.421 162.316C220.663 162.316 220.896 162.412 221.067 162.583L222.582 164.096C222.667 164.181 222.734 164.281 222.78 164.392C222.826 164.502 222.85 164.621 222.85 164.741C222.85 164.861 222.826 164.98 222.78 165.09C222.734 165.201 222.667 165.301 222.582 165.386C222.408 165.557 222.174 165.652 221.93 165.651Z" fill="#8054FF"/>
<path d="M264.775 208.443C264.656 208.444 264.537 208.421 264.426 208.375C264.315 208.33 264.214 208.263 264.13 208.178L262.627 206.665C262.456 206.493 262.359 206.261 262.359 206.02C262.359 205.778 262.456 205.546 262.627 205.375C262.798 205.204 263.03 205.107 263.273 205.107C263.515 205.107 263.747 205.204 263.918 205.375L265.433 206.888C265.518 206.972 265.586 207.073 265.632 207.183C265.678 207.294 265.702 207.413 265.702 207.533C265.702 207.652 265.678 207.771 265.632 207.882C265.586 207.992 265.518 208.093 265.433 208.178C265.347 208.264 265.245 208.332 265.132 208.378C265.019 208.423 264.897 208.445 264.775 208.443Z" fill="#8054FF"/>
<path d="M220.415 208.443C220.295 208.441 220.176 208.414 220.066 208.366C219.956 208.317 219.857 208.247 219.775 208.159C219.69 208.075 219.623 207.974 219.577 207.864C219.531 207.753 219.507 207.634 219.507 207.514C219.507 207.395 219.531 207.276 219.577 207.165C219.623 207.055 219.69 206.954 219.775 206.869L221.29 205.357C221.461 205.185 221.694 205.089 221.936 205.089C222.178 205.089 222.41 205.185 222.582 205.357C222.753 205.528 222.849 205.76 222.849 206.001C222.849 206.243 222.753 206.475 222.582 206.646L221.061 208.159C220.978 208.248 220.878 208.318 220.767 208.367C220.656 208.416 220.536 208.441 220.415 208.443Z" fill="#8054FF"/>
<path d="M263.261 165.651C263.02 165.641 262.792 165.537 262.627 165.362C262.542 165.277 262.474 165.177 262.428 165.066C262.382 164.955 262.359 164.836 262.359 164.717C262.359 164.597 262.382 164.478 262.428 164.367C262.474 164.257 262.542 164.156 262.627 164.072L264.142 162.559C264.313 162.388 264.545 162.292 264.788 162.292C265.03 162.292 265.262 162.388 265.433 162.559C265.605 162.73 265.701 162.962 265.701 163.204C265.701 163.446 265.605 163.678 265.433 163.849L263.906 165.362C263.824 165.45 263.724 165.522 263.613 165.571C263.502 165.621 263.382 165.648 263.261 165.651Z" fill="#8054FF"/>
<path d="M213.372 186.29H211.229C211.101 186.305 210.972 186.293 210.849 186.254C210.727 186.215 210.614 186.151 210.518 186.066C210.422 185.98 210.345 185.876 210.293 185.759C210.24 185.642 210.213 185.515 210.213 185.386C210.213 185.258 210.24 185.131 210.293 185.014C210.345 184.897 210.422 184.792 210.518 184.707C210.614 184.621 210.727 184.557 210.849 184.518C210.972 184.48 211.101 184.467 211.229 184.482H213.372C213.594 184.508 213.799 184.614 213.947 184.781C214.096 184.947 214.178 185.163 214.178 185.386C214.178 185.61 214.096 185.825 213.947 185.992C213.799 186.158 213.594 186.265 213.372 186.29Z" fill="#8054FF"/>
<path d="M273.961 186.29H271.819C271.691 186.305 271.562 186.293 271.439 186.254C271.317 186.215 271.204 186.151 271.108 186.066C271.012 185.98 270.935 185.876 270.882 185.759C270.83 185.642 270.803 185.515 270.803 185.386C270.803 185.258 270.83 185.131 270.882 185.014C270.935 184.897 271.012 184.792 271.108 184.707C271.204 184.621 271.317 184.557 271.439 184.518C271.562 184.48 271.691 184.467 271.819 184.482H273.961C274.089 184.467 274.218 184.48 274.341 184.518C274.463 184.557 274.576 184.621 274.672 184.707C274.768 184.792 274.845 184.897 274.898 185.014C274.95 185.131 274.977 185.258 274.977 185.386C274.977 185.515 274.95 185.642 274.898 185.759C274.845 185.876 274.768 185.98 274.672 186.066C274.576 186.151 274.463 186.215 274.341 186.254C274.218 186.293 274.089 186.305 273.961 186.29Z" fill="#8054FF"/>
<path d="M244.774 185.037H240.417V166.163C240.417 165.586 240.646 165.033 241.055 164.625C241.463 164.217 242.017 163.987 242.595 163.987C242.882 163.987 243.165 164.042 243.43 164.151C243.695 164.26 243.935 164.421 244.138 164.623C244.34 164.825 244.501 165.065 244.61 165.33C244.719 165.594 244.775 165.877 244.774 166.163V185.037Z" fill="#8054FF"/>
<path d="M242.595 190.028C245.355 190.028 247.593 187.793 247.593 185.037C247.593 182.28 245.355 180.046 242.595 180.046C239.835 180.046 237.598 182.28 237.598 185.037C237.598 187.793 239.835 190.028 242.595 190.028Z" fill="#2B4183"/>
<path d="M93.435 140.165L101.329 174.946C101.574 176.557 101.395 178.203 100.81 179.724C100.225 181.245 99.2536 182.587 97.9917 183.62L74.4172 202.029L74.8518 185.079L86.627 175.476L74.4172 139.213L93.435 140.165Z" fill="#7041FD"/>
<path d="M62.9318 202.174L74.2785 196.242L69.8002 189.925L57.4697 196.622L61.4048 201.601L62.9318 202.174Z" fill="#FA849B"/>
<path d="M60.2278 193.964C60.2278 193.964 62.1411 200.986 67.6635 200.594L69.794 217.328L53.4983 196.707L60.2278 193.964Z" fill="#181F42"/>
<path d="M69.8024 217.321L53.5039 196.68L51.5514 198.218L67.8499 218.859L69.8024 217.321Z" fill="white"/>
<path d="M67.9471 202.777C66.9128 202.501 65.841 202.394 64.7725 202.457" stroke="white" stroke-width="1.5" stroke-linecap="round" stroke-linejoin="round"/>
<path d="M68.4178 205.23C67.3842 204.951 66.3118 204.843 65.2432 204.911" stroke="white" stroke-width="1.5" stroke-linecap="round" stroke-linejoin="round"/>
<path d="M68.8888 207.677C67.8551 207.398 66.7827 207.29 65.7141 207.358" stroke="white" stroke-width="1.5" stroke-linecap="round" stroke-linejoin="round"/>
<path d="M73.0592 222.662L74.2119 210.088L66.4684 209.69L65.3157 223.506H71.665L73.0592 222.662Z" fill="#FA849B"/>
<path d="M64.3199 219.697C64.3199 219.697 71.0313 222.542 74.1396 217.967L88.6246 226.653H62.3101L64.3199 219.697Z" fill="#181F42"/>
<path d="M88.6187 226.653H62.2981V229.136H88.6187V226.653Z" fill="white"/>
<path d="M76.0346 219.1C75.1758 219.74 74.4275 220.516 73.8196 221.397" stroke="white" stroke-width="1.5" stroke-linecap="round" stroke-linejoin="round"/>
<path d="M78.2497 220.251C77.3915 220.89 76.6434 221.663 76.0347 222.542" stroke="white" stroke-width="1.5" stroke-linecap="round" stroke-linejoin="round"/>
<path d="M80.4708 221.421C79.6099 222.058 78.8595 222.832 78.2498 223.711" stroke="white" stroke-width="1.5" stroke-linecap="round" stroke-linejoin="round"/>
<path d="M67.3679 139.315L63.813 212.668H77.2841L87.0978 139.557L67.3679 139.315Z" fill="#8155FF"/>
<path d="M93.4349 140.166L85.2689 152.951L83.5669 139.846L93.4349 140.166Z" fill="#8155FF"/>
<path d="M128.447 127.742L120.401 128.369L121.844 120.297L130.245 121.003L128.447 127.742Z" fill="#FA849B"/>
<path d="M135.218 127.35C134.372 128.075 133.33 128.533 132.224 128.666C131.117 128.8 129.996 128.602 129.001 128.099C128.007 127.597 127.184 126.81 126.637 125.841C126.09 124.871 125.843 123.761 125.927 122.651C126.012 121.541 126.424 120.481 127.111 119.604C127.798 118.728 128.73 118.075 129.789 117.728C130.848 117.381 131.987 117.355 133.06 117.653C134.134 117.952 135.095 118.561 135.822 119.405C136.796 120.539 137.28 122.013 137.167 123.503C137.054 124.992 136.353 126.376 135.218 127.35Z" fill="#FA849B"/>
<path d="M131.839 117.447C131.839 117.447 130.819 115.096 128.429 116.844C126.039 118.592 123.92 122.166 127.264 126.741L131.839 117.447Z" fill="#FA849B"/>
<path d="M131.839 117.416L138.321 115.789C138.581 115.705 138.864 115.724 139.11 115.843C139.356 115.962 139.547 116.172 139.642 116.428C139.72 116.645 139.713 116.884 139.623 117.096C139.532 117.308 139.365 117.479 139.154 117.573L132.575 120.514L131.839 117.416Z" fill="#FA849B"/>
<path d="M98.064 106.187L108.723 122.986C109.448 124.284 109.653 125.809 109.297 127.252C108.94 128.695 108.049 129.949 106.803 130.762C105.501 131.61 103.915 131.908 102.393 131.592C100.871 131.275 99.5359 130.37 98.6797 129.074L86.9346 112.92C86.1091 111.669 85.741 110.172 85.8928 108.682C86.0446 107.191 86.7068 105.799 87.7675 104.74C88.4807 104.029 89.3495 103.492 90.3055 103.173C91.2615 102.854 92.2785 102.761 93.2767 102.901C94.2748 103.042 95.2267 103.411 96.0574 103.981C96.8881 104.551 97.575 105.306 98.064 106.187Z" fill="#FFCD2E"/>
<path d="M94.7385 123.758L95.3662 114.565L97.6476 127.772L94.7385 123.758Z" fill="#F2BB19"/>
<path d="M103.176 121.304L126.576 118.556L126.503 129.231L104.739 132.034C103.936 132.19 103.108 132.162 102.317 131.954C101.526 131.745 100.792 131.361 100.171 130.829C99.5493 130.298 99.056 129.633 98.7279 128.884C98.3997 128.136 98.245 127.323 98.2755 126.506C98.3234 125.194 98.8465 123.943 99.7478 122.986C100.649 122.03 101.867 121.432 103.176 121.304Z" fill="#FFCD2E"/>
<path d="M62.6782 152.95C62.6782 152.95 65.2856 153.161 64.8631 150.178C64.4406 147.194 62.2316 143.589 56.51 144.397L62.6782 152.95Z" fill="#FA849B"/>
<path d="M43.7994 176.839H70.0657V150.606H43.7994V176.839Z" fill="#FFCD2E"/>
<path d="M45.0125 176.839H71.2788V150.606H45.0125V176.839Z" fill="#FFCD2E"/>
<path d="M52.1525 151.239C51.9059 150.131 51.9939 148.974 52.4055 147.916C52.817 146.858 53.5336 145.945 54.4645 145.294C55.3953 144.643 56.4988 144.282 57.6351 144.257C58.7715 144.232 59.8897 144.544 60.8483 145.154C61.807 145.764 62.563 146.644 63.0207 147.683C63.4784 148.722 63.6172 149.873 63.4197 150.991C63.2221 152.109 62.697 153.144 61.9107 153.963C61.1245 154.783 60.1125 155.352 59.0027 155.597C58.2664 155.76 57.505 155.777 56.7621 155.647C56.0191 155.516 55.3093 155.241 54.6731 154.836C54.0369 154.431 53.4868 153.905 53.0543 153.288C52.6218 152.671 52.3153 151.974 52.1525 151.239Z" fill="#FA849B"/>
<path d="M63.3663 122.757L63.1067 146.265L52.7861 145.783L52.5085 122.92C52.4555 122.104 52.5878 121.287 52.8955 120.529C53.2032 119.772 53.6784 119.093 54.2854 118.545C54.8925 117.997 55.6158 117.592 56.4013 117.363C57.1868 117.133 58.0142 117.083 58.8215 117.217C60.1235 117.432 61.3028 118.112 62.1392 119.132C62.9755 120.151 63.4117 121.44 63.3663 122.757Z" fill="#FFCD2E"/>
<path d="M76.6202 112.92L62.3825 126.784C61.2612 127.761 59.8111 128.277 58.3239 128.229C56.8368 128.181 55.4231 127.572 54.3674 126.525C53.2654 125.429 52.6423 123.942 52.6344 122.389C52.6264 120.836 53.2343 119.343 54.3252 118.236L67.6817 103.432C68.735 102.365 70.1246 101.695 71.6157 101.534C73.1069 101.372 74.6081 101.73 75.8658 102.546C76.7144 103.092 77.4242 103.829 77.9392 104.696C78.4542 105.564 78.7604 106.539 78.8336 107.545C78.9067 108.551 78.7448 109.56 78.3607 110.493C77.9766 111.425 77.3808 112.256 76.6202 112.92Z" fill="#FFCD2E"/>
<path d="M92.5116 102.829L72.2626 101.497C70.452 101.376 67.1808 104.692 67.3739 106.506V139.316L93.4471 140.165L96.0846 106.892C96.1491 105.88 95.8092 104.884 95.1393 104.122C94.4695 103.361 93.5244 102.896 92.5116 102.829Z" fill="#FFCD2E"/>
<path d="M67.3677 121.925L73.2462 116.192L67.3677 131.714V121.925Z" fill="#F2BB19"/>
<path d="M89.2102 89.2541C89.1322 89.9731 89.3423 90.6938 89.7947 91.2585C90.247 91.8233 90.9049 92.1862 91.6244 92.268C91.9809 92.2943 92.3391 92.2498 92.6784 92.1371C93.0176 92.0245 93.3312 91.8459 93.601 91.6117C93.8709 91.3775 94.0917 91.0923 94.2506 90.7725C94.4096 90.4527 94.5037 90.1046 94.5274 89.7484C94.5809 89.387 94.5599 89.0186 94.4657 88.6656C94.3716 88.3126 94.2062 87.9826 93.9798 87.6957C93.7534 87.4088 93.4707 87.1712 93.1491 86.9973C92.8274 86.8234 92.4736 86.7169 92.1093 86.6845C91.745 86.652 91.3779 86.6941 91.0305 86.8084C90.6831 86.9226 90.3627 87.1065 90.089 87.3488C89.8153 87.5911 89.594 87.8867 89.4388 88.2174C89.2835 88.5482 89.1975 88.9071 89.186 89.2722L89.2102 89.2541Z" fill="#E6728C"/>
<path d="M87.6529 95.7462L87.5322 102.377C87.4899 104.691 86.0837 105.903 83.8687 105.843C81.9796 105.789 79.9215 104.83 80.0422 102.787L80.7242 92.4067L87.6529 95.7462Z" fill="#FA849B"/>
<path d="M87.5986 100.135C87.5986 100.135 82.2029 100.49 80.6397 94.4024C80.1509 92.4855 87.6891 95.0654 87.6891 95.0654L87.5986 100.135Z" fill="#312725"/>
<path d="M85.631 97.6329C89.4092 97.7113 92.5838 94.6973 92.7528 91.5207L93.0727 84.89C93.2004 83.0038 92.5915 81.1415 91.3739 79.6939C90.1564 78.2463 88.4247 77.3261 86.5423 77.1262C82.5952 76.7705 78.4247 79.7242 78.0927 83.793L77.9116 88.9769C77.8118 91.1407 78.5635 93.2577 80.006 94.8752C81.4485 96.4927 83.4674 97.4825 85.631 97.6329Z" fill="#F8879D"/>
<path d="M88.8238 88.603L89.0048 90.7791L88.0693 90.7972" stroke="#312725" stroke-width="0.6" stroke-linecap="round" stroke-linejoin="round"/>
<path d="M84.7258 84.2031C84.7258 84.2031 86.2769 84.0946 86.283 84.7456C86.283 84.7456 86.283 85.1856 84.9189 85.2519C83.5549 85.3182 83.223 85.2037 83.1083 84.7878C82.9936 84.3719 83.9774 84.191 84.7258 84.2031Z" fill="#312725"/>
<path d="M91.22 85.7278C91.22 85.7278 89.9465 85.565 89.8318 86.1738C89.8318 86.1738 89.7654 86.5897 90.882 86.6982C91.9985 86.8067 92.3667 86.6982 92.4753 86.3426C92.584 85.987 91.8235 85.7458 91.22 85.7278Z" fill="#312725"/>
<path d="M90.2181 88.2056C90.2159 88.3335 90.2515 88.4593 90.3204 88.5672C90.3893 88.675 90.4885 88.7602 90.6056 88.8121C90.7227 88.864 90.8525 88.8802 90.9789 88.8588C91.1052 88.8374 91.2224 88.7793 91.3158 88.6918C91.4092 88.6042 91.4748 88.4911 91.5042 88.3666C91.5337 88.2421 91.5257 88.1116 91.4814 87.9916C91.437 87.8716 91.3582 87.7672 91.2549 87.6917C91.1515 87.6161 91.0281 87.5726 90.9001 87.5667C90.725 87.5618 90.5551 87.6262 90.4274 87.7459C90.2996 87.8656 90.2244 88.0308 90.2181 88.2056Z" fill="#312725"/>
<path d="M84.5326 87.9039C84.5303 88.0318 84.5659 88.1575 84.6348 88.2654C84.7037 88.3733 84.8029 88.4585 84.9201 88.5103C85.0372 88.5622 85.167 88.5784 85.2933 88.557C85.4196 88.5356 85.5368 88.4776 85.6303 88.39C85.7237 88.3025 85.7892 88.1894 85.8187 88.0648C85.8481 87.9403 85.8402 87.8099 85.7958 87.6898C85.7515 87.5698 85.6727 87.4655 85.5693 87.3899C85.4659 87.3143 85.3426 87.2709 85.2146 87.2649C85.0395 87.26 84.8696 87.3244 84.7418 87.4441C84.6141 87.5638 84.5389 87.729 84.5326 87.9039Z" fill="#312725"/>
<path d="M86.0959 91.7378C86.3548 92.048 86.6958 92.2792 87.0801 92.405C87.4643 92.5308 87.8762 92.5461 88.2687 92.4491" stroke="#312725" stroke-width="0.6" stroke-linecap="round" stroke-linejoin="round"/>
<path d="M91.5156 73.8711C90.0671 73.2683 86.3794 72.563 85.5646 75.8241C81.889 75.5468 76.0407 75.6131 75.4552 78.7958C74.5922 83.4674 77.9117 88.1028 77.9117 88.1028L78.8472 88.579C78.8472 88.579 81.2191 87.3433 80.6095 81.7495C80.6095 81.7495 89.1014 83.7929 93.0848 81.641C97.0682 79.489 95.8611 75.7397 91.5156 73.8711Z" fill="#312725"/>
<path d="M74.4231 88.754C74.393 89.2745 74.5172 89.7923 74.7801 90.2428C75.043 90.6932 75.4331 91.0562 75.9014 91.2865C76.3698 91.5168 76.8957 91.6041 77.4135 91.5375C77.9313 91.4709 78.4179 91.2533 78.8126 90.9121C79.2072 90.5708 79.4924 90.1209 79.6325 89.6186C79.7726 89.1164 79.7613 88.584 79.6002 88.0881C79.439 87.5922 79.135 87.1547 78.7263 86.8304C78.3175 86.506 77.8222 86.3092 77.302 86.2645C76.5904 86.2163 75.8886 86.4509 75.3493 86.9172C74.8101 87.3835 74.4772 88.0437 74.4231 88.754Z" fill="#F8879D"/>
<path d="M77.9419 89.7307C77.9419 89.7307 78.1109 87.7536 76.252 87.9223" stroke="#312725" stroke-width="0.6" stroke-linecap="round" stroke-linejoin="round"/>
<path d="M77.4832 101.84L89.6024 102.636C89.6024 102.636 89.9826 106.807 84.5929 106.524C78.5454 106.198 77.4832 101.84 77.4832 101.84Z" fill="#FA849B"/>
<path d="M330.888 202.734L318.944 197.177L323.253 190.468L336.241 196.773L332.433 202.077L330.888 202.734Z" fill="#FA849B"/>
<path d="M333.278 194.169C333.278 194.169 331.636 201.481 325.945 201.336L324.545 218.63L340.321 196.646L333.278 194.169Z" fill="#181F42"/>
<path d="M328.264 219.708L343.971 197.8L341.898 196.318L326.191 218.226L328.264 219.708Z" fill="white"/>
<path d="M325.758 203.597C326.807 203.261 327.904 203.1 329.005 203.12" stroke="white" stroke-width="1.55" stroke-linecap="round" stroke-linejoin="round"/>
<path d="M325.396 206.134C326.446 205.802 327.542 205.642 328.643 205.658" stroke="white" stroke-width="1.55" stroke-linecap="round" stroke-linejoin="round"/>
<path d="M325.021 208.672C326.071 208.339 327.168 208.178 328.269 208.196" stroke="white" stroke-width="1.55" stroke-linecap="round" stroke-linejoin="round"/>
<path d="M303.161 130.099C303.161 130.099 295.351 159.195 294.204 164.928C293.058 170.66 290.758 182.137 295.58 186.273C300.403 190.408 318.944 200.323 318.944 200.323L325.758 188.099L314.719 181.468L303.161 130.099Z" fill="#243B77"/>
<path d="M313.687 222.62L311.255 209.684L319.221 209.274L321.66 223.488H315.123L313.687 222.62Z" fill="#FA849B"/>
<path d="M322.052 219.57C322.052 219.57 315.135 222.499 311.943 217.804L297.029 226.731H324.11L322.052 219.57Z" fill="#181F42"/>
<path d="M297.059 229.287H324.14V226.731H297.059V229.287Z" fill="white"/>
<path d="M309.999 218.961C310.883 219.618 311.654 220.414 312.281 221.318" stroke="white" stroke-width="1.55" stroke-linecap="round" stroke-linejoin="round"/>
<path d="M307.718 220.137C308.6 220.797 309.371 221.595 309.999 222.5" stroke="white" stroke-width="1.55" stroke-linecap="round" stroke-linejoin="round"/>
<path d="M305.437 221.318C306.32 221.975 307.091 222.771 307.718 223.675" stroke="white" stroke-width="1.55" stroke-linecap="round" stroke-linejoin="round"/>
<path d="M303.161 130.099L302.383 173.988C302.359 175.563 302.484 177.138 302.757 178.69L309.287 212.536H322.982L319.167 174.362C319.33 167.339 321.666 159.479 322.535 150.913C322.535 150.913 325.215 135.03 317.87 130.177L303.161 130.099Z" fill="#2B4183"/>
<path d="M294.416 124.077L272.084 115.909L269.483 120.255L291.265 131.78C292.09 132.095 292.985 132.185 293.856 132.041C294.728 131.897 295.545 131.524 296.224 130.96C296.904 130.396 297.421 129.662 297.722 128.833C298.024 128.003 298.099 127.109 297.94 126.241C297.633 124.493 296.093 124.674 294.416 124.077Z" fill="#FA849B"/>
<path d="M269.332 112.6C269.136 112.392 268.888 112.237 268.615 112.152C268.341 112.066 268.05 112.053 267.769 112.112C267.608 112.145 267.457 112.219 267.332 112.325C267.206 112.431 267.109 112.567 267.049 112.72C266.989 112.873 266.968 113.039 266.988 113.202C267.009 113.366 267.07 113.521 267.166 113.655L267.485 114.179C266.773 114.457 265.289 114.523 262.585 111.768C262.374 111.546 262.094 111.402 261.791 111.358C261.487 111.314 261.178 111.374 260.913 111.527C260.741 111.645 260.619 111.823 260.571 112.026C260.523 112.229 260.552 112.442 260.653 112.624L260.69 112.679C260.512 112.615 260.321 112.592 260.133 112.612C259.945 112.631 259.764 112.693 259.603 112.793C259.43 112.912 259.309 113.091 259.262 113.295C259.215 113.5 259.246 113.714 259.35 113.896C259.375 113.949 259.406 113.999 259.44 114.047C259.259 114.066 259.085 114.128 258.933 114.228C258.761 114.346 258.639 114.524 258.592 114.727C258.545 114.93 258.577 115.143 258.68 115.325C258.737 115.444 258.815 115.552 258.909 115.644L259.018 115.747L258.963 115.777C258.793 115.896 258.673 116.075 258.627 116.277C258.58 116.479 258.61 116.692 258.71 116.874C258.769 116.995 258.849 117.105 258.945 117.199C259.623 117.894 260.365 118.524 261.16 119.08H261.196C261.525 119.299 261.866 119.5 262.216 119.683C263.78 120.593 267.129 119.834 270.008 120.286L272.259 116.066L269.332 112.6Z" fill="#FA849B"/>
<path d="M261.422 127.782L272.221 103.143L247.551 92.3575L236.752 116.997L261.422 127.782Z" fill="#FFCD2E"/>
<path d="M269.7 113.046L267.51 110.509C267.426 110.412 267.322 110.334 267.205 110.281C267.089 110.227 266.962 110.2 266.834 110.2C266.705 110.2 266.579 110.227 266.462 110.281C266.345 110.334 266.241 110.412 266.158 110.509C266.043 110.642 265.97 110.807 265.948 110.982C265.927 111.157 265.958 111.334 266.037 111.491L267.141 113.667C266.89 114.622 266.878 115.624 267.105 116.584C267.333 117.545 267.793 118.435 268.445 119.177L269.7 113.046Z" fill="#FA849B"/>
<path d="M304.314 124.541L296.184 131.003C295.384 131.644 294.405 132.022 293.382 132.084C292.358 132.147 291.341 131.891 290.469 131.352C287.952 129.803 286.413 128.369 288.223 126.036L297.156 116.994L304.314 124.541Z" fill="#FA849B"/>
<path d="M310.615 116.777C310.615 116.777 309.535 122.106 303.119 126.946L293.227 117.621L301.254 108.7L310.615 116.777Z" fill="#7041FD"/>
<path d="M326.047 123.824L343.242 145.47L347.135 142.89C347.135 142.89 337.267 124.547 332.686 118.779C332.135 118.088 331.41 117.557 330.585 117.239C329.761 116.921 328.866 116.828 327.993 116.97C327.121 117.112 326.302 117.483 325.62 118.045C324.939 118.608 324.42 119.342 324.116 120.171C323.506 121.841 324.907 122.456 326.047 123.824Z" fill="#FA849B"/>
<path d="M344.106 149.84C344.177 150.11 344.317 150.357 344.512 150.557C344.706 150.758 344.949 150.905 345.216 150.986C345.369 151.035 345.533 151.046 345.691 151.016C345.849 150.986 345.997 150.917 346.122 150.815C346.246 150.713 346.343 150.581 346.403 150.432C346.463 150.282 346.485 150.12 346.466 149.961V149.358C347.202 149.46 348.5 150.087 349.544 153.68C349.621 153.967 349.792 154.221 350.031 154.399C350.27 154.577 350.562 154.67 350.859 154.662C351.061 154.639 351.246 154.542 351.381 154.391C351.515 154.24 351.59 154.045 351.59 153.843C351.59 153.843 351.59 153.801 351.59 153.776C351.711 153.915 351.863 154.025 352.034 154.096C352.204 154.167 352.389 154.198 352.574 154.186C352.775 154.164 352.96 154.067 353.094 153.916C353.228 153.764 353.3 153.569 353.298 153.367C353.304 153.308 353.304 153.25 353.298 153.192C353.462 153.261 353.64 153.29 353.817 153.276C354.018 153.254 354.205 153.158 354.34 153.006C354.474 152.855 354.548 152.659 354.547 152.456C354.551 152.326 354.535 152.196 354.499 152.071C354.499 152.022 354.469 151.98 354.457 151.932H354.511C354.713 151.911 354.9 151.815 355.035 151.663C355.17 151.512 355.244 151.315 355.241 151.112C355.245 150.984 355.229 150.856 355.193 150.732C354.936 149.823 354.597 148.939 354.179 148.092V148.056C353.995 147.71 353.794 147.374 353.575 147.049C352.664 145.548 349.447 144.638 347.202 142.908L343.243 145.47L344.106 149.84Z" fill="#FA849B"/>
<path d="M323.483 110.466L331.329 117.32C332.097 117.997 332.639 118.895 332.879 119.89C333.12 120.885 333.049 121.93 332.675 122.884C331.588 125.626 330.447 127.392 327.846 126.024L317.32 118.827L323.483 110.466Z" fill="#FA849B"/>
<path d="M313.415 105.686C318.119 106.063 322.555 108.023 325.999 111.244L320.67 121.141L310.192 117.525L313.415 105.686Z" fill="#8155FF"/>
<path d="M304.93 106.289C304.93 106.289 298.429 108.097 298.405 116.789C298.405 121.545 303.161 130.111 303.161 130.111L317.839 130.189C317.839 130.189 319.994 124.216 321.286 118.821C322.577 113.426 318.449 108.29 313.44 105.698L304.93 106.289Z" fill="#8155FF"/>
<path d="M320.688 121.142L314.93 117.013L319.372 125.608L320.688 121.142Z" fill="#7041FD"/>
<path d="M308.635 109.062C310.669 108.76 311.393 107.398 311.092 105.367L308.828 93.709L302.684 94.6915L304.398 105.933C304.47 106.417 304.636 106.882 304.888 107.301C305.14 107.721 305.472 108.086 305.866 108.377C306.26 108.667 306.707 108.878 307.182 108.995C307.658 109.113 308.151 109.135 308.635 109.062Z" fill="#F8879D"/>
<path d="M307.422 96.0415C307.422 96.0415 309.414 102.256 304.133 104.372L303.644 100.665L309.076 96.5659" fill="#32292A"/>
<path d="M302.865 101.431C306.704 101.069 309.553 98.0008 309.227 94.583L308.165 83.3833H301.701C299.286 83.6063 296.033 86.7649 296.269 88.8867L297.397 95.8428C297.633 98.3504 299.642 101.738 302.865 101.431Z" fill="#F8879D"/>
<path d="M297.663 91.8223L296.19 95.5716C296.14 95.6616 296.116 95.7638 296.122 95.8665C296.127 95.9693 296.162 96.0685 296.221 96.1527C296.28 96.237 296.362 96.3029 296.456 96.343C296.551 96.383 296.656 96.3956 296.757 96.3793L299.286 96.1442L297.663 91.8223Z" fill="#F8879D"/>
<path d="M298.948 90.0558C298.948 90.0558 297.572 90.098 297.62 90.6586C297.62 90.6586 297.669 91.0504 298.87 90.9901C300.071 90.9298 300.367 90.8093 300.433 90.4295C300.499 90.0498 299.588 90.0136 298.948 90.0558Z" fill="#312725"/>
<path d="M299.021 92.7745C299.062 92.8597 299.082 92.9532 299.08 93.0476C299.078 93.142 299.054 93.2346 299.01 93.3179C298.965 93.4013 298.902 93.4731 298.825 93.5276C298.748 93.582 298.659 93.6176 298.565 93.6314C298.472 93.6453 298.376 93.637 298.286 93.6072C298.197 93.5775 298.115 93.5271 298.049 93.4601C297.982 93.3932 297.932 93.3115 297.903 93.2218C297.873 93.132 297.866 93.0366 297.88 92.9433C297.859 92.7896 297.898 92.6336 297.989 92.5078C298.08 92.3821 298.216 92.2962 298.369 92.2682C298.522 92.2541 298.674 92.2985 298.795 92.3926C298.916 92.4866 298.997 92.6232 299.021 92.7745Z" fill="#312725"/>
<path d="M298.58 97.1385C298.901 97.1116 299.206 96.99 299.458 96.7893C299.709 96.5886 299.895 96.3178 299.992 96.0112" stroke="#312725" stroke-width="0.6" stroke-linecap="round" stroke-linejoin="round"/>
<path d="M309.251 105.023L313.415 105.686C313.415 105.686 309.04 112.757 304.736 111.063C299.775 109.104 306.354 105.385 306.354 105.385L309.251 105.023Z" fill="#F8879D"/>
<path d="M307.507 92.3102C306.572 92.0738 305.719 91.5893 305.038 90.908C304.357 90.2267 303.873 89.374 303.638 88.4403L295.037 90.1341C295.037 90.1341 293.704 81.5806 304 79.9651C309.16 79.1574 312.45 81.6469 314.2 84.1424C314.993 85.33 315.47 86.7001 315.585 88.123C315.7 89.5459 315.45 90.9746 314.858 92.274C313.726 94.6613 311.901 96.6527 309.619 97.9884L308.828 93.7086C308.828 93.7086 308.08 92.4608 307.507 92.3102Z" fill="#32292A"/>
<path d="M311.629 91.6955C311.609 92.2213 311.434 92.7294 311.126 93.1565C310.818 93.5835 310.391 93.9104 309.898 94.0964C309.405 94.2824 308.869 94.3192 308.355 94.2022C307.841 94.0852 307.374 93.8196 307.01 93.4385C306.647 93.0575 306.404 92.578 306.312 92.0599C306.22 91.5418 306.283 91.0081 306.494 90.5256C306.704 90.0431 307.051 89.6331 307.494 89.347C307.936 89.0608 308.452 88.9111 308.979 88.9167C309.336 88.9237 309.689 89.0013 310.016 89.1451C310.343 89.2889 310.638 89.4959 310.884 89.7543C311.13 90.0127 311.323 90.3173 311.451 90.6505C311.579 90.9837 311.639 91.3388 311.629 91.6955Z" fill="#F8879D"/>
<path d="M308.032 92.3403C308.032 92.3403 308.032 90.3391 309.903 90.6586" stroke="#312725" stroke-width="0.6" stroke-linecap="round" stroke-linejoin="round"/>
<path d="M325.323 80.7189C325.544 82.0215 325.372 83.36 324.831 84.5652C324.289 85.7704 323.402 86.7882 322.282 87.4899C321.161 88.1916 319.857 88.5457 318.535 88.5073C317.213 88.469 315.932 88.0399 314.854 87.2744C313.776 86.5089 312.95 85.4414 312.48 84.2068C312.009 82.9722 311.916 81.6261 312.211 80.3385C312.507 79.051 313.178 77.8799 314.14 76.9734C315.102 76.0668 316.312 75.4656 317.616 75.2457C319.365 74.9524 321.158 75.364 322.603 76.3902C324.048 77.4163 325.027 78.9731 325.323 80.7189Z" fill="#32292A"/>
<path d="M384 229.498H0" stroke="#281F27" stroke-width="0.76" stroke-miterlimit="10"/>
</svg>
