<svg width="76" height="78" viewBox="0 0 76 78" fill="none" xmlns="http://www.w3.org/2000/svg">
<path d="M70.8389 47.7751C70.3875 52.1073 68.3897 56.1087 65.2371 58.9946C62.0845 61.8805 58.0046 63.4428 53.7973 63.3751H42.5932C40.7204 63.3751 38.9243 62.6047 37.6 61.2333C36.2757 59.8619 35.5318 58.002 35.5318 56.0626V46.3126L29.8826 50.7001L27.0581 46.8001L36.4733 39.4876C36.8807 39.1711 37.3763 39.0001 37.8856 39.0001C38.3949 39.0001 38.8904 39.1711 39.2979 39.4876L48.7131 46.8001L45.8885 50.7001L40.2394 46.3126V56.0626C40.2394 56.709 40.4874 57.329 40.9288 57.7862C41.3702 58.2433 41.9689 58.5001 42.5932 58.5001H53.7973C56.8218 58.5754 59.7641 57.4768 62.0463 55.4201C64.3285 53.3635 65.7856 50.4975 66.1313 47.3851C66.3701 44.5351 65.6332 41.6889 64.0496 39.3448C62.466 37.0008 60.1366 35.3084 57.4693 34.5638C57.0862 34.4608 56.7343 34.2593 56.4463 33.9781C56.1583 33.6969 55.9435 33.3451 55.8216 32.9551C54.5833 29.0538 52.1873 25.6568 48.975 23.2487C45.7628 20.8405 41.8983 19.544 37.9327 19.544C33.967 19.544 30.1026 20.8405 26.8903 23.2487C23.6781 25.6568 21.282 29.0538 20.0437 32.9551C19.9218 33.3451 19.707 33.6969 19.419 33.9781C19.131 34.2593 18.7791 34.4608 18.396 34.5638C15.7112 35.2892 13.3602 36.9735 11.7581 39.3194C10.1559 41.6653 9.40572 44.522 9.63986 47.3851C9.98558 50.4975 11.4427 53.3635 13.7248 55.4201C16.007 57.4768 18.9494 58.5754 21.9738 58.5001H30.8241V63.3751H21.9738C17.7666 63.4428 13.6867 61.8805 10.5341 58.9946C7.38147 56.1087 5.38362 52.1073 4.93225 47.7751C4.61915 44.0103 5.52171 40.2445 7.49834 37.0683C9.47497 33.892 12.4138 31.4851 15.8539 30.2251C17.5647 25.632 20.5785 21.683 24.4985 18.8978C28.4185 16.1127 33.061 14.6221 37.815 14.6221C42.5689 14.6221 47.2114 16.1127 51.1314 18.8978C55.0514 21.683 58.0652 25.632 59.776 30.2251C63.2424 31.4592 66.2125 33.8552 68.2162 37.0338C70.2199 40.2125 71.1428 43.9922 70.8389 47.7751Z" fill="black"/>
</svg>
