<svg width="516" height="523" viewBox="0 0 516 523" fill="none" xmlns="http://www.w3.org/2000/svg">
<path d="M219.716 62.8538L398.122 93.2789L460.975 262.995L345.424 402.286L167.018 371.861L104.165 202.145L219.716 62.8538Z" fill="url(#paint0_linear)"/>
<g clip-path="url(#clip0)">
<path d="M75.9477 387.615V187.522H393.192V387.615H75.9477Z" fill="url(#paint1_linear)" fill-opacity="0.7" stroke="white" stroke-width="3"/>
<path d="M394.74 186.07C381.803 198.43 368.626 210.116 355.593 222.428C342.56 234.74 329.287 246.474 316.062 258.064C302.836 269.654 288.409 282.543 274.558 294.662L273.308 295.816L236.421 327.846L234.594 329.337L232.814 327.846L195.976 295.768L194.677 294.662C180.779 282.543 166.928 270.616 153.126 257.968C139.323 245.32 126.771 234.355 113.642 222.428C100.513 210.501 87.4319 198.382 74.4951 186.07C88.2494 196.651 101.763 207.808 115.373 218.677C128.983 229.546 142.497 240.799 155.963 252.053C170.968 264.46 185.973 277.109 200.929 289.853C212.135 299.471 223.34 309.09 234.594 318.42C245.751 308.801 256.956 299.183 268.258 289.853C283.231 277.028 298.219 264.412 313.224 252.005C326.69 240.847 340.204 229.69 353.766 218.725C367.327 207.76 380.986 196.651 394.74 186.07Z" fill="white"/>
<path d="M201.457 294.47L201.073 294.807L196.263 299.087C188.232 305.868 180.008 312.36 171.64 318.66C161.445 326.451 151.009 333.905 140.525 341.312C130.041 348.718 119.412 355.739 108.592 362.761C97.771 369.782 86.8541 376.467 75.5525 382.671C85.1709 374.158 95.3664 366.223 105.562 358.625C115.757 351.026 126.242 343.38 136.678 335.925C147.114 328.471 157.838 321.498 168.659 314.476C177.267 308.946 186.02 303.511 194.965 298.413L201.217 294.903L201.457 294.47Z" fill="white"/>
<path d="M393.826 382.671C382.524 376.467 371.559 369.686 360.787 362.76C350.014 355.835 339.386 348.621 328.805 341.311C318.225 334.001 307.886 326.451 297.69 318.66C289.37 312.36 281.146 305.916 273.163 299.135L268.065 294.806L267.681 294.47H268.162L274.413 298.029C283.359 303.126 292.063 308.561 300.72 314.091C311.541 321.017 322.121 328.23 332.653 335.54C343.185 342.85 353.573 350.449 363.768 358.24C373.964 366.031 384.208 374.158 393.826 382.671Z" fill="white"/>
<g clip-path="url(#clip1)">
<path d="M-80.4328 275.564C-71.2793 299.899 -28.1779 326.035 14.2913 302.148C60.0667 276.411 50.0828 197.63 108.515 157.85" stroke="#484A9E" stroke-width="0.75" stroke-miterlimit="10" stroke-dasharray="4.01 5.01"/>
<path d="M110.603 156.466L112.292 155.396" stroke="#263238" stroke-width="0.75" stroke-miterlimit="10"/>
<path d="M107.3 144.996L102.834 162.783L114.87 151.187L163.064 127.822L107.3 144.996Z" fill="#484A9E"/>
<path opacity="0.1" d="M99.2069 156.705L94.7409 174.492L106.777 162.896L154.971 139.531L99.2069 156.705Z" fill="#FCFCFC"/>
<path d="M116.967 155.011L102.834 162.783L114.87 151.187L116.967 155.011Z" fill="#484A9E"/>
<path d="M114.87 151.187L163.064 127.822L126.159 172.173L114.87 151.187Z" fill="#7475BF"/>
<path d="M107.3 144.996L85.0863 133.721L163.064 127.822L107.3 144.996Z" fill="#7475BF"/>
</g>
<circle cx="383.939" cy="192.662" r="26" transform="rotate(26.3965 383.939 192.662)" fill="#21BC4C"/>
<path d="M374.112 196.716L381.955 202.283L394.655 186.817" stroke="white" stroke-width="2"/>
</g>
<defs>
<linearGradient id="paint0_linear" x1="219.716" y1="62.8538" x2="345.424" y2="402.286" gradientUnits="userSpaceOnUse">
<stop stop-color="#E8E8FF"/>
<stop offset="1" stop-color="#B2B3E3" stop-opacity="0"/>
</linearGradient>
<linearGradient id="paint1_linear" x1="234.57" y1="186.022" x2="234.57" y2="389.115" gradientUnits="userSpaceOnUse">
<stop stop-color="white"/>
<stop offset="1" stop-color="white" stop-opacity="0.56"/>
</linearGradient>
<clipPath id="clip0">
<rect width="469.186" height="469.186" fill="white" transform="translate(0 53)"/>
</clipPath>
<clipPath id="clip1">
<rect width="258.78" height="166.73" fill="white" transform="translate(-94.5569 152.384) rotate(-5.93109)"/>
</clipPath>
</defs>
</svg>
