<svg width="149" height="128" viewBox="0 0 149 128" fill="none" xmlns="http://www.w3.org/2000/svg">
<g filter="url(#filter0_d_10258_2314)">
<rect x="28" y="28" width="93" height="72" rx="10" fill="white"/>
</g>
<g clip-path="url(#clip0_10258_2314)">
<path d="M41 76.5C41 69.5964 46.5964 64 53.5 64V64C60.4036 64 66 69.5964 66 76.5V76.5C66 83.4036 60.4036 89 53.5 89V89C46.5964 89 41 83.4036 41 76.5V76.5Z" fill="url(#paint0_linear_10258_2314)"/>
<path d="M56.0833 78.4994V79.4994C56.0833 80.8327 58 81.416 58 81.416C58 81.416 55.7917 83.0827 53.5 83.0827C51.2083 83.0827 49 81.416 49 81.416C49 81.416 50.9317 80.8327 50.9167 79.4994C50.9016 78.166 50.9117 77.3827 50.9016 75.0984C49.7072 73.5503 49.7839 72.5113 50.437 71.7806C52.625 69.3327 58.5833 70.166 58.5833 70.166C58.5833 70.166 59.1393 76.1654 57.875 77.916C57.3333 78.666 56.0833 78.4994 56.0833 78.4994Z" fill="url(#paint1_linear_10258_2314)"/>
<g style="mix-blend-mode:multiply">
<path d="M56.0832 78.5C54.2498 78.2917 53.1665 77.5 53.1665 77.5C53.8505 78.5119 54.8928 79.2266 56.0832 79.5V78.5Z" fill="#FFDBC9"/>
</g>
<path d="M62.25 83.943C63.0433 85.5561 63.5 89.2763 63.5 89.2763H43.5C43.5 89.2763 43.9568 85.5556 44.75 83.943C45.5432 82.3303 50.175 80.8346 50.175 80.8346C51.0677 82.6673 55.9673 82.6673 56.8226 80.834C56.8226 80.834 61.4567 82.3299 62.25 83.943Z" fill="url(#paint2_linear_10258_2314)"/>
<path d="M53.1665 87.1667C53.1665 87.1007 53.1861 87.0363 53.2227 86.9815C53.2593 86.9267 53.3114 86.8839 53.3723 86.8587C53.4332 86.8335 53.5002 86.8269 53.5649 86.8397C53.6295 86.8526 53.6889 86.8843 53.7355 86.931C53.7822 86.9776 53.8139 87.037 53.8268 87.1016C53.8396 87.1663 53.833 87.2333 53.8078 87.2942C53.7826 87.3551 53.7398 87.4072 53.685 87.4438C53.6302 87.4805 53.5658 87.5 53.4998 87.5C53.4114 87.5 53.3266 87.4649 53.2641 87.4024C53.2016 87.3399 53.1665 87.2551 53.1665 87.1667ZM53.1665 85.5C53.1665 85.4341 53.1861 85.3696 53.2227 85.3148C53.2593 85.26 53.3114 85.2173 53.3723 85.192C53.4332 85.1668 53.5002 85.1602 53.5649 85.1731C53.6295 85.1859 53.6889 85.2177 53.7355 85.2643C53.7822 85.3109 53.8139 85.3703 53.8268 85.435C53.8396 85.4996 53.833 85.5667 53.8078 85.6276C53.7826 85.6885 53.7398 85.7405 53.685 85.7772C53.6302 85.8138 53.5658 85.8333 53.4998 85.8333C53.4114 85.8333 53.3266 85.7982 53.2641 85.7357C53.2016 85.6732 53.1665 85.5884 53.1665 85.5ZM53.1665 83.8333C53.1665 83.7674 53.1861 83.703 53.2227 83.6481C53.2593 83.5933 53.3114 83.5506 53.3723 83.5254C53.4332 83.5001 53.5002 83.4935 53.5649 83.5064C53.6295 83.5193 53.6889 83.551 53.7355 83.5976C53.7822 83.6442 53.8139 83.7036 53.8268 83.7683C53.8396 83.833 53.833 83.9 53.8078 83.9609C53.7826 84.0218 53.7398 84.0739 53.685 84.1105C53.6302 84.1471 53.5658 84.1667 53.4998 84.1667C53.4114 84.1667 53.3266 84.1315 53.2641 84.069C53.2016 84.0065 53.1665 83.9217 53.1665 83.8333Z" fill="white"/>
<path d="M51.9296 72.601C51.6646 72.3734 51.3426 72.2201 50.8875 72.4566C49.8084 73.0169 50.6251 75.1669 51.5834 75.1669C51.8334 75.1669 51.9577 75.952 50.8446 76.5002C50.8446 75.6252 49.5113 73.4585 49.3946 71.4859C48.053 70.9863 48.3863 68.9874 49.3074 68.9874C49.1604 67.155 52.0946 66.2085 53.2308 67.2601C54.3863 65.8752 57.303 66.5835 57.4791 67.785C59.4846 66.7145 60.803 69.7919 58.9251 70.9865C58.1523 71.4782 56.3446 71.6653 53.7352 71.6653C53.3413 71.6653 53.1206 71.7631 53.2308 72.2502C53.4441 73.194 52.949 73.7885 51.9296 72.601Z" fill="url(#paint3_linear_10258_2314)"/>
</g>
<g clip-path="url(#clip1_10258_2314)">
<path d="M89 64.5C89 57.5964 94.5964 52 101.5 52V52C108.404 52 114 57.5964 114 64.5V64.5C114 71.4036 108.404 77 101.5 77V77C94.5964 77 89 71.4036 89 64.5V64.5Z" fill="url(#paint4_linear_10258_2314)"/>
<path d="M107.542 65.2908C108.218 63.0457 108.634 59.2075 105.792 56.5825C103.619 54.5763 97.7501 54.3741 95.7084 58.7491C95.3676 59.4795 95.8334 60.6241 96.7501 60.5825C97.1104 60.5658 97.3334 61.7075 97.5418 62.4158C97.2501 65.2908 94.6516 65.3439 93.3334 67.5408C91.7084 70.2491 93.7084 74.2491 98.5001 74.2491C103.292 74.2491 106.039 70.2829 107.542 65.2908Z" fill="url(#paint5_linear_10258_2314)"/>
<path d="M109.167 71.8674C109.778 73.0444 110.084 77.332 110.084 77.332H92.917C92.917 77.332 93.2226 73.0444 93.8337 71.8674C94.7503 70.1019 101.5 67.832 101.5 67.832C101.5 67.832 108.25 70.1019 109.167 71.8674Z" fill="url(#paint6_linear_10258_2314)"/>
<path d="M103.5 68.8327C103.5 68.8327 102.437 69.416 101.458 69.416C100.479 69.416 99.5004 68.8327 99.5004 68.8327V66.9993C99.2899 67.0326 99.0766 67.0453 98.8636 67.0372C96.8646 67.037 96.1108 64.1253 96.5004 60.5827C96.7504 60.5827 97.3338 60.5827 98.1671 59.416C97.9588 61.041 100.375 60.791 101.292 59.4993C100.834 61.041 102.042 62.0827 103.084 61.4577C105.126 60.2321 105.586 63.9682 103.5 63.9993V68.8327Z" fill="url(#paint7_linear_10258_2314)"/>
<g style="mix-blend-mode:multiply" opacity="0.782">
<path d="M99.5005 67C100.534 66.8097 101.523 66.4282 102.417 65.875C102.417 65.875 101.375 67.6667 99.5005 67.6667V67Z" fill="#FFD7B8"/>
</g>
<path d="M101.503 69.3299C102.105 69.3027 103.5 69.0077 103.5 68.3704V67.832C103.653 67.832 104.091 68.193 104.316 68.4987C105.205 69.707 104.218 70.7904 103.414 70.7904C102.398 70.7904 101.725 69.9419 101.5 69.5337C101.275 69.942 100.602 70.7904 99.5867 70.7904C98.7818 70.7904 97.795 69.707 98.6847 68.4987C98.9097 68.193 99.3473 67.832 99.5002 67.832V68.3704C99.5002 69.0077 100.933 69.3027 101.503 69.3299Z" fill="white"/>
<path d="M101.167 74.9987C101.167 74.9328 101.187 74.8683 101.223 74.8135C101.26 74.7587 101.312 74.716 101.373 74.6907C101.434 74.6655 101.501 74.6589 101.565 74.6718C101.63 74.6846 101.689 74.7164 101.736 74.763C101.783 74.8096 101.814 74.869 101.827 74.9337C101.84 74.9983 101.834 75.0654 101.808 75.1263C101.783 75.1872 101.74 75.2392 101.686 75.2759C101.631 75.3125 101.566 75.332 101.5 75.332C101.412 75.332 101.327 75.2969 101.265 75.2344C101.202 75.1719 101.167 75.0871 101.167 74.9987ZM101.167 73.332C101.167 73.2661 101.187 73.2017 101.223 73.1468C101.26 73.092 101.312 73.0493 101.373 73.0241C101.434 72.9988 101.501 72.9922 101.565 73.0051C101.63 73.018 101.689 73.0497 101.736 73.0963C101.783 73.1429 101.814 73.2023 101.827 73.267C101.84 73.3317 101.834 73.3987 101.808 73.4596C101.783 73.5205 101.74 73.5726 101.686 73.6092C101.631 73.6458 101.566 73.6654 101.5 73.6654C101.412 73.6654 101.327 73.6302 101.265 73.5677C101.202 73.5052 101.167 73.4204 101.167 73.332ZM101.167 71.6654C101.167 71.5994 101.187 71.535 101.223 71.4802C101.26 71.4254 101.312 71.3826 101.373 71.3574C101.434 71.3322 101.501 71.3256 101.565 71.3384C101.63 71.3513 101.689 71.383 101.736 71.4297C101.783 71.4763 101.814 71.5357 101.827 71.6003C101.84 71.665 101.834 71.732 101.808 71.7929C101.783 71.8538 101.74 71.9059 101.686 71.9425C101.631 71.9791 101.566 71.9987 101.5 71.9987C101.412 71.9987 101.327 71.9636 101.265 71.9011C101.202 71.8386 101.167 71.7538 101.167 71.6654Z" fill="url(#paint8_linear_10258_2314)"/>
</g>
<g opacity="0.7">
<path d="M45 47.5C45 43.3579 48.3579 40 52.5 40H80.5C84.6421 40 88 43.3579 88 47.5C88 51.6421 84.6421 55 80.5 55H52.5C48.3579 55 45 51.6421 45 47.5Z" fill="url(#paint9_linear_10258_2314)"/>
<path d="M56.1863 58.8608L53.1295 54.5812C52.6567 53.9194 53.1298 53 53.9432 53H60.0568C60.8702 53 61.3433 53.9194 60.8705 54.5812L57.8137 58.8608C57.4149 59.4191 56.5851 59.4191 56.1863 58.8608Z" fill="url(#paint10_linear_10258_2314)"/>
</g>
<defs>
<filter id="filter0_d_10258_2314" x="0" y="0" width="149" height="128" filterUnits="userSpaceOnUse" color-interpolation-filters="sRGB">
<feFlood flood-opacity="0" result="BackgroundImageFix"/>
<feColorMatrix in="SourceAlpha" type="matrix" values="0 0 0 0 0 0 0 0 0 0 0 0 0 0 0 0 0 0 127 0" result="hardAlpha"/>
<feMorphology radius="4" operator="dilate" in="SourceAlpha" result="effect1_dropShadow_10258_2314"/>
<feOffset/>
<feGaussianBlur stdDeviation="12"/>
<feComposite in2="hardAlpha" operator="out"/>
<feColorMatrix type="matrix" values="0 0 0 0 0.282353 0 0 0 0 0.290196 0 0 0 0 0.619608 0 0 0 0.06 0"/>
<feBlend mode="normal" in2="BackgroundImageFix" result="effect1_dropShadow_10258_2314"/>
<feBlend mode="normal" in="SourceGraphic" in2="effect1_dropShadow_10258_2314" result="shape"/>
</filter>
<linearGradient id="paint0_linear_10258_2314" x1="53.5" y1="64" x2="53.5" y2="89" gradientUnits="userSpaceOnUse">
<stop stop-color="#EAEAEA"/>
<stop offset="1" stop-color="#ECECEC"/>
</linearGradient>
<linearGradient id="paint1_linear_10258_2314" x1="53.8525" y1="70.0293" x2="53.8525" y2="83.0827" gradientUnits="userSpaceOnUse">
<stop stop-color="#FFD4B3"/>
<stop offset="1" stop-color="#FFDCC2"/>
</linearGradient>
<linearGradient id="paint2_linear_10258_2314" x1="43.5" y1="85.0551" x2="63.5" y2="85.0551" gradientUnits="userSpaceOnUse">
<stop stop-color="#606C88"/>
<stop offset="1" stop-color="#3F4C6B"/>
</linearGradient>
<linearGradient id="paint3_linear_10258_2314" x1="54.1653" y1="76.5002" x2="54.1653" y2="66.5" gradientUnits="userSpaceOnUse">
<stop/>
<stop offset="1"/>
</linearGradient>
<linearGradient id="paint4_linear_10258_2314" x1="101.5" y1="52" x2="101.5" y2="77" gradientUnits="userSpaceOnUse">
<stop stop-color="#EAEAEA"/>
<stop offset="1" stop-color="#ECECEC"/>
</linearGradient>
<linearGradient id="paint5_linear_10258_2314" x1="100.407" y1="74.2491" x2="100.407" y2="55.2148" gradientUnits="userSpaceOnUse">
<stop/>
<stop offset="1"/>
</linearGradient>
<linearGradient id="paint6_linear_10258_2314" x1="92.917" y1="72.582" x2="110.084" y2="72.582" gradientUnits="userSpaceOnUse">
<stop stop-color="#606C88"/>
<stop offset="1" stop-color="#3F4C6B"/>
</linearGradient>
<linearGradient id="paint7_linear_10258_2314" x1="100.629" y1="59.416" x2="100.629" y2="69.416" gradientUnits="userSpaceOnUse">
<stop stop-color="#FFE0CC"/>
<stop offset="1" stop-color="#FFEADB"/>
</linearGradient>
<linearGradient id="paint8_linear_10258_2314" x1="101.5" y1="71.332" x2="101.5" y2="75.332" gradientUnits="userSpaceOnUse">
<stop stop-color="#130027"/>
<stop offset="1" stop-color="#130017"/>
</linearGradient>
<linearGradient id="paint9_linear_10258_2314" x1="45" y1="49.6398" x2="88" y2="49.6398" gradientUnits="userSpaceOnUse">
<stop stop-color="#C84E89"/>
<stop offset="1" stop-color="#F15F79"/>
</linearGradient>
<linearGradient id="paint10_linear_10258_2314" x1="45" y1="49.6398" x2="88" y2="49.6398" gradientUnits="userSpaceOnUse">
<stop stop-color="#C84E89"/>
<stop offset="1" stop-color="#F15F79"/>
</linearGradient>
<clipPath id="clip0_10258_2314">
<path d="M41 76.5C41 69.5964 46.5964 64 53.5 64V64C60.4036 64 66 69.5964 66 76.5V76.5C66 83.4036 60.4036 89 53.5 89V89C46.5964 89 41 83.4036 41 76.5V76.5Z" fill="white"/>
</clipPath>
<clipPath id="clip1_10258_2314">
<path d="M89 64.5C89 57.5964 94.5964 52 101.5 52V52C108.404 52 114 57.5964 114 64.5V64.5C114 71.4036 108.404 77 101.5 77V77C94.5964 77 89 71.4036 89 64.5V64.5Z" fill="white"/>
</clipPath>
</defs>
</svg>
