<svg width="30" height="30" viewBox="0 0 30 30" fill="none" xmlns="http://www.w3.org/2000/svg">
<rect width="30" height="30" rx="10" fill="url(#paint0_linear_10260_2462)"/>
<path d="M19.416 11.8155L19.3121 11.7562L18.2805 11.1624L16.1504 9.93037C15.4973 9.55186 14.5027 9.55186 13.8496 9.93037L11.7195 11.1624L10.6879 11.7636L10.5543 11.8378C9.22578 12.7284 9.13672 12.8917 9.13672 14.3241V17.7456C9.13672 19.178 9.22578 19.3413 10.584 20.2542L13.8496 22.1394C14.1762 22.3323 14.5844 22.4214 15 22.4214C15.4082 22.4214 15.8238 22.3323 16.1504 22.1394L19.4457 20.2319C20.7742 19.3413 20.8633 19.178 20.8633 17.7456V14.3241C20.8633 12.8917 20.7742 12.7284 19.416 11.8155Z" fill="white" fill-opacity="0.5"/>
<path d="M10.688 11.7641L11.7196 11.1629L13.7532 9.99023L13.8497 9.93086C14.5028 9.55234 15.4974 9.55234 16.1505 9.93086L16.247 9.99023L18.2806 11.1629L19.3122 11.7566V10.1684C19.3122 8.49844 18.3919 7.57812 16.722 7.57812H13.2708C11.6009 7.57812 10.688 8.49844 10.688 10.1684V11.7641Z" fill="white"/>
<path d="M17.1077 15.9952L16.6476 16.5593C16.5733 16.6409 16.5214 16.8042 16.5288 16.9155L16.5733 17.6429C16.603 18.0882 16.2839 18.3183 15.8683 18.155L15.1929 17.8878C15.089 17.8507 14.9108 17.8507 14.8069 17.8878L14.1315 18.155C13.7159 18.3183 13.3968 18.0882 13.4265 17.6429L13.471 16.9155C13.4784 16.8042 13.4265 16.6409 13.3522 16.5593L12.8921 15.9952C12.6026 15.6538 12.7288 15.2753 13.1593 15.164L13.8644 14.9858C13.9757 14.9562 14.1093 14.8522 14.1687 14.7558L14.562 14.1472C14.8069 13.7687 15.1929 13.7687 15.4378 14.1472L15.8312 14.7558C15.8905 14.8522 16.0241 14.9562 16.1355 14.9858L16.8405 15.164C17.271 15.2753 17.3972 15.6538 17.1077 15.9952Z" fill="white"/>
<defs>
<linearGradient id="paint0_linear_10260_2462" x1="0" y1="15" x2="30" y2="15" gradientUnits="userSpaceOnUse">
<stop stop-color="#FFA751"/>
<stop offset="1" stop-color="#FFE259"/>
</linearGradient>
</defs>
</svg>
