<svg width="30" height="30" viewBox="0 0 30 30" fill="none" xmlns="http://www.w3.org/2000/svg">
<rect width="30" height="30" rx="10" fill="url(#paint0_linear_10259_2443)"/>
<path d="M22.4219 10.7324V14.5176C22.4219 15.4601 22.1102 16.2543 21.5535 16.8035C21.0043 17.3602 20.2102 17.6719 19.2676 17.6719V19.0152C19.2676 19.5199 18.7035 19.8242 18.2879 19.5422L17.568 19.0672C17.6348 18.8371 17.6645 18.5847 17.6645 18.3176V15.2969C17.6645 13.7828 16.6551 12.7734 15.141 12.7734H10.1016C9.99765 12.7734 9.90117 12.7809 9.80469 12.7883V10.7324C9.80469 8.83984 11.0664 7.57812 12.959 7.57812H19.2676C21.1602 7.57812 22.4219 8.83984 22.4219 10.7324Z" fill="white" fill-opacity="0.5"/>
<path d="M17.6645 15.2969V18.3176C17.6645 18.5847 17.6348 18.8371 17.568 19.0672C17.2934 20.1582 16.3879 20.841 15.141 20.841H13.1223L10.8809 22.3328C10.5469 22.5629 10.1016 22.318 10.1016 21.9172V20.841C9.34453 20.841 8.71367 20.5887 8.27578 20.1508C7.83047 19.7055 7.57812 19.0746 7.57812 18.3176V15.2969C7.57812 13.8867 8.45391 12.9145 9.80469 12.7883C9.90117 12.7809 9.99765 12.7734 10.1016 12.7734H15.141C16.6551 12.7734 17.6645 13.7828 17.6645 15.2969Z" fill="white"/>
<defs>
<linearGradient id="paint0_linear_10259_2443" x1="-12" y1="2" x2="38.6667" y2="30" gradientUnits="userSpaceOnUse">
<stop stop-color="#0052D4"/>
<stop offset="0.5" stop-color="#4364F7"/>
<stop offset="1" stop-color="#6FB1FC"/>
</linearGradient>
</defs>
</svg>
