<svg width="29" height="29" viewBox="0 0 29 29" fill="none" xmlns="http://www.w3.org/2000/svg">
<rect width="29" height="29" rx="10" fill="url(#paint0_linear_10260_2451)"/>
<path d="M12.2613 9.19064C11.6873 6.70827 7.94942 6.7011 7.37546 9.19064C7.03826 10.6471 7.96377 11.8811 8.76731 12.6487C9.35561 13.2012 10.2811 13.2012 10.8694 12.6487C11.673 11.8811 12.5913 10.6471 12.2613 9.19064ZM9.84348 10.3386C9.44888 10.3386 9.12603 10.0157 9.12603 9.62111C9.12603 9.22651 9.44171 8.90366 9.8363 8.90366H9.84348C10.2452 8.90366 10.5609 9.22651 10.5609 9.62111C10.5609 10.0157 10.2452 10.3386 9.84348 10.3386Z" fill="white" fill-opacity="0.5"/>
<path d="M10.5609 9.62174C10.5609 10.0163 10.2452 10.3392 9.84342 10.3392C9.44883 10.3392 9.12598 10.0163 9.12598 9.62174C9.12598 9.22715 9.44165 8.9043 9.83625 8.9043H9.84342C10.2452 8.9043 10.5609 9.22715 10.5609 9.62174Z" fill="white"/>
<path d="M21.6099 17.8C21.036 15.3176 17.2837 15.3105 16.7026 17.8C16.3654 19.2564 17.2909 20.4904 18.1016 21.2581C18.6899 21.8105 19.6226 21.8105 20.2109 21.2581C21.0216 20.4904 21.9471 19.2564 21.6099 17.8ZM19.185 18.9479C18.7904 18.9479 18.4675 18.6251 18.4675 18.2305C18.4675 17.8359 18.7832 17.513 19.1778 17.513H19.185C19.5795 17.513 19.9024 17.8359 19.9024 18.2305C19.9024 18.6251 19.5795 18.9479 19.185 18.9479Z" fill="white" fill-opacity="0.5"/>
<path d="M19.9022 18.2311C19.9022 18.6257 19.5793 18.9486 19.1847 18.9486C18.7901 18.9486 18.4673 18.6257 18.4673 18.2311C18.4673 17.8365 18.783 17.5137 19.1776 17.5137H19.1847C19.5793 17.5137 19.9022 17.8365 19.9022 18.2311Z" fill="white"/>
<path d="M14.5 20.0599H12.5773C11.745 20.0599 11.0204 19.5577 10.7334 18.7828C10.4393 18.008 10.6545 17.1542 11.2787 16.6018L17.0111 11.5868C17.3555 11.2855 17.3627 10.8766 17.2622 10.5968C17.1546 10.317 16.882 10.0156 16.4228 10.0156H14.5C14.2059 10.0156 13.962 9.77169 13.962 9.47754C13.962 9.18339 14.2059 8.93945 14.5 8.93945H16.4228C17.255 8.93945 17.9797 9.44167 18.2666 10.2165C18.5608 10.9914 18.3456 11.8451 17.7214 12.3976L11.989 17.4125C11.6446 17.7138 11.6374 18.1228 11.7379 18.4026C11.8455 18.6824 12.1181 18.9837 12.5773 18.9837H14.5C14.7942 18.9837 15.0381 19.2277 15.0381 19.5218C15.0381 19.816 14.7942 20.0599 14.5 20.0599Z" fill="white"/>
<defs>
<linearGradient id="paint0_linear_10260_2451" x1="-4.08974" y1="-11.1538" x2="36.0641" y2="29" gradientUnits="userSpaceOnUse">
<stop stop-color="#C84E89"/>
<stop offset="1" stop-color="#F15F79"/>
</linearGradient>
</defs>
</svg>
