<svg width="149" height="128" viewBox="0 0 149 128" fill="none" xmlns="http://www.w3.org/2000/svg">
<g filter="url(#filter0_d_10258_2300)">
<rect x="28" y="28" width="93" height="72" rx="12" fill="white"/>
</g>
<rect opacity="0.6" x="58" y="39" width="35.4928" height="4" rx="2" fill="url(#paint0_linear_10258_2300)"/>
<rect opacity="0.3" x="58" y="47.1113" width="17.3767" height="3" rx="1.5" fill="url(#paint1_linear_10258_2300)"/>
<rect opacity="0.3" x="58" y="59.1113" width="49" height="3" rx="1.5" fill="url(#paint2_linear_10258_2300)"/>
<rect opacity="0.3" x="58" y="71.1113" width="45" height="3" rx="1.5" fill="url(#paint3_linear_10258_2300)"/>
<rect opacity="0.3" x="58" y="83.1113" width="45" height="3" rx="1.5" fill="url(#paint4_linear_10258_2300)"/>
<rect opacity="0.3" x="58" y="53.1113" width="39" height="3" rx="1.5" fill="url(#paint5_linear_10258_2300)"/>
<rect opacity="0.3" x="58" y="65.1113" width="50" height="3" rx="1.5" fill="url(#paint6_linear_10258_2300)"/>
<rect opacity="0.3" x="58" y="77.1113" width="50" height="3" rx="1.5" fill="url(#paint7_linear_10258_2300)"/>
<rect opacity="0.3" x="58" y="89.1113" width="50" height="3" rx="1.5" fill="url(#paint8_linear_10258_2300)"/>
<path d="M34 47.5C34 42.2533 38.2533 38 43.5 38V38C48.7467 38 53 42.2533 53 47.5V47.5C53 52.7467 48.7467 57 43.5 57V57C38.2533 57 34 52.7467 34 47.5V47.5Z" fill="url(#paint9_linear_10258_2300)"/>
<path d="M49.3266 52.8818C49.791 53.7685 50.0232 56.9985 50.0232 56.9985H36.9766C36.9766 56.9985 37.2088 53.7685 37.6732 52.8818C38.3699 51.5518 43.4999 49.8418 43.4999 49.8418C43.4999 49.8418 48.6299 51.5518 49.3266 52.8818Z" fill="url(#paint10_linear_10258_2300)"/>
<path d="M43.2466 55.48C43.2466 55.4299 43.2614 55.3809 43.2893 55.3393C43.3171 55.2976 43.3567 55.2651 43.403 55.246C43.4493 55.2268 43.5002 55.2218 43.5493 55.2315C43.5985 55.2413 43.6436 55.2655 43.6791 55.3009C43.7145 55.3363 43.7386 55.3814 43.7484 55.4306C43.7582 55.4797 43.7531 55.5307 43.734 55.577C43.7148 55.6232 43.6823 55.6628 43.6407 55.6907C43.599 55.7185 43.55 55.7333 43.4999 55.7333C43.4327 55.7333 43.3683 55.7067 43.3208 55.6591C43.2733 55.6116 43.2466 55.5472 43.2466 55.48ZM43.2466 54.2134C43.2466 54.1632 43.2614 54.1143 43.2893 54.0726C43.3171 54.0309 43.3567 53.9985 43.403 53.9793C43.4493 53.9601 43.5002 53.9551 43.5493 53.9649C43.5985 53.9747 43.6436 53.9988 43.6791 54.0342C43.7145 54.0696 43.7386 54.1148 43.7484 54.1639C43.7582 54.2131 43.7531 54.264 43.734 54.3103C43.7148 54.3566 43.6823 54.3962 43.6407 54.424C43.599 54.4518 43.55 54.4667 43.4999 54.4667C43.4327 54.4667 43.3683 54.44 43.3208 54.3925C43.2733 54.345 43.2466 54.2805 43.2466 54.2134ZM43.2466 52.9467C43.2466 52.8966 43.2614 52.8476 43.2893 52.8059C43.3171 52.7643 43.3567 52.7318 43.403 52.7126C43.4493 52.6935 43.5002 52.6885 43.5493 52.6982C43.5985 52.708 43.6436 52.7321 43.6791 52.7676C43.7145 52.803 43.7386 52.8481 43.7484 52.8973C43.7582 52.9464 43.7531 52.9973 43.734 53.0436C43.7148 53.0899 43.6823 53.1295 43.6407 53.1573C43.599 53.1852 43.55 53.2 43.4999 53.2C43.4327 53.2 43.3683 53.1733 43.3208 53.1258C43.2733 53.0783 43.2466 53.0139 43.2466 52.9467Z" fill="white"/>
<path d="M48.9132 49.1085L38.6242 47.8651C38.117 45.1722 38.7186 43.4756 40.4292 42.7752C41.22 40.1841 44.2978 40.3949 45.1702 40.6061C48.139 41.325 49.3867 44.1591 48.9132 49.1085Z" fill="url(#paint11_linear_10258_2300)"/>
<path d="M41.98 50.6023V46.8023C40.3954 46.7786 40.7044 44.0326 42.2967 44.8706C42.5817 44.9973 43.31 44.6489 43.0567 43.7939C44.7667 45.0606 47.1496 42.8376 47.3 44.2056C47.5961 46.898 47.0232 49.1109 45.504 49.111C45.3422 49.1172 45.1801 49.1076 45.02 49.0823V50.6023C44.5241 50.8978 44.0282 51.0456 43.5323 51.0456C43.0364 51.0456 42.519 50.8978 41.98 50.6023Z" fill="#FFDBC9"/>
<path d="M45.0199 49.0816V49.5882C44.0699 49.5882 43.331 49.1343 42.8032 48.2266C43.4366 48.6488 44.1754 48.9338 45.0199 49.0816Z" fill="#FFBC9E"/>
<path d="M43.4978 50.9802C43.9311 50.9595 45.0199 50.7353 45.0199 50.2509V49.8418C45.1361 49.8418 45.4686 50.1162 45.6397 50.3485C46.3158 51.2668 45.5658 52.0901 44.9542 52.0901C44.1824 52.0901 43.6709 51.4453 43.4999 51.1351C43.3289 51.4454 42.8174 52.0901 42.0457 52.0901C41.434 52.0901 40.684 51.2668 41.3601 50.3485C41.5312 50.1162 41.8638 49.8418 41.9799 49.8418V50.2509C41.9799 50.7353 43.0401 50.9595 43.4978 50.9802Z" fill="white"/>
<defs>
<filter id="filter0_d_10258_2300" x="0" y="0" width="149" height="128" filterUnits="userSpaceOnUse" color-interpolation-filters="sRGB">
<feFlood flood-opacity="0" result="BackgroundImageFix"/>
<feColorMatrix in="SourceAlpha" type="matrix" values="0 0 0 0 0 0 0 0 0 0 0 0 0 0 0 0 0 0 127 0" result="hardAlpha"/>
<feMorphology radius="4" operator="dilate" in="SourceAlpha" result="effect1_dropShadow_10258_2300"/>
<feOffset/>
<feGaussianBlur stdDeviation="12"/>
<feComposite in2="hardAlpha" operator="out"/>
<feColorMatrix type="matrix" values="0 0 0 0 0.282353 0 0 0 0 0.290196 0 0 0 0 0.619608 0 0 0 0.1 0"/>
<feBlend mode="normal" in2="BackgroundImageFix" result="effect1_dropShadow_10258_2300"/>
<feBlend mode="normal" in="SourceGraphic" in2="effect1_dropShadow_10258_2300" result="shape"/>
</filter>
<linearGradient id="paint0_linear_10258_2300" x1="58" y1="41" x2="93.4928" y2="41" gradientUnits="userSpaceOnUse">
<stop stop-color="#F44545"/>
<stop offset="1" stop-color="#EEA849"/>
</linearGradient>
<linearGradient id="paint1_linear_10258_2300" x1="58" y1="48.6113" x2="75.3767" y2="48.6113" gradientUnits="userSpaceOnUse">
<stop stop-color="#F44545"/>
<stop offset="1" stop-color="#EEA849"/>
</linearGradient>
<linearGradient id="paint2_linear_10258_2300" x1="58" y1="60.6113" x2="107" y2="60.6113" gradientUnits="userSpaceOnUse">
<stop stop-color="#F44545"/>
<stop offset="1" stop-color="#EEA849"/>
</linearGradient>
<linearGradient id="paint3_linear_10258_2300" x1="58" y1="72.6113" x2="103" y2="72.6113" gradientUnits="userSpaceOnUse">
<stop stop-color="#F44545"/>
<stop offset="1" stop-color="#EEA849"/>
</linearGradient>
<linearGradient id="paint4_linear_10258_2300" x1="58" y1="84.6113" x2="103" y2="84.6113" gradientUnits="userSpaceOnUse">
<stop stop-color="#F44545"/>
<stop offset="1" stop-color="#EEA849"/>
</linearGradient>
<linearGradient id="paint5_linear_10258_2300" x1="58" y1="54.6113" x2="97" y2="54.6113" gradientUnits="userSpaceOnUse">
<stop stop-color="#F44545"/>
<stop offset="1" stop-color="#EEA849"/>
</linearGradient>
<linearGradient id="paint6_linear_10258_2300" x1="58" y1="66.6113" x2="108" y2="66.6113" gradientUnits="userSpaceOnUse">
<stop stop-color="#F44545"/>
<stop offset="1" stop-color="#EEA849"/>
</linearGradient>
<linearGradient id="paint7_linear_10258_2300" x1="58" y1="78.6113" x2="108" y2="78.6113" gradientUnits="userSpaceOnUse">
<stop stop-color="#F44545"/>
<stop offset="1" stop-color="#EEA849"/>
</linearGradient>
<linearGradient id="paint8_linear_10258_2300" x1="58" y1="90.6113" x2="108" y2="90.6113" gradientUnits="userSpaceOnUse">
<stop stop-color="#F44545"/>
<stop offset="1" stop-color="#EEA849"/>
</linearGradient>
<linearGradient id="paint9_linear_10258_2300" x1="43.5" y1="38" x2="43.5" y2="57" gradientUnits="userSpaceOnUse">
<stop stop-color="#EAEAEA"/>
<stop offset="1" stop-color="#ECECEC"/>
</linearGradient>
<linearGradient id="paint10_linear_10258_2300" x1="36.9766" y1="53.4201" x2="50.0232" y2="53.4201" gradientUnits="userSpaceOnUse">
<stop stop-color="#606C88"/>
<stop offset="1" stop-color="#3F4C6B"/>
</linearGradient>
<linearGradient id="paint11_linear_10258_2300" x1="43.7305" y1="49.1085" x2="43.7305" y2="40.4902" gradientUnits="userSpaceOnUse">
<stop/>
<stop offset="1"/>
</linearGradient>
</defs>
</svg>
