<svg width="183" height="128" viewBox="0 0 183 128" fill="none" xmlns="http://www.w3.org/2000/svg">
<g filter="url(#filter0_d_10258_2286)">
<rect x="46" y="28" width="93" height="72" rx="12" fill="white"/>
</g>
<g filter="url(#filter1_d_10258_2286)">
<rect x="28" y="37" width="83.1921" height="22.5606" rx="2" fill="white"/>
</g>
<rect opacity="0.6" x="48" y="41.6992" width="35.4928" height="2.82007" rx="1.41003" fill="url(#paint0_linear_10258_2286)"/>
<rect opacity="0.3" x="48" y="47.8105" width="17.3767" height="2" rx="1" fill="url(#paint1_linear_10258_2286)"/>
<rect opacity="0.3" x="48" y="52.041" width="26.2499" height="2" rx="1" fill="url(#paint2_linear_10258_2286)"/>
<g clip-path="url(#clip0_10258_2286)">
<path d="M32.7002 48.0451C32.7002 44.8003 35.3306 42.1699 38.5753 42.1699V42.1699C41.8201 42.1699 44.4505 44.8003 44.4505 48.0451V48.0451C44.4505 51.2898 41.8201 53.9202 38.5753 53.9202V53.9202C35.3306 53.9202 32.7002 51.2898 32.7002 48.0451V48.0451Z" fill="url(#paint3_linear_10258_2286)"/>
<path d="M42.1787 51.3742C42.4659 51.9225 42.6095 53.9201 42.6095 53.9201H34.541C34.541 53.9201 34.6846 51.9225 34.9719 51.3742C35.4027 50.5517 38.5753 49.4941 38.5753 49.4941C38.5753 49.4941 41.7479 50.5517 42.1787 51.3742Z" fill="url(#paint4_linear_10258_2286)"/>
<path d="M38.4185 52.9812C38.4185 52.9502 38.4276 52.9199 38.4449 52.8941C38.4621 52.8684 38.4865 52.8483 38.5152 52.8364C38.5438 52.8246 38.5753 52.8215 38.6057 52.8275C38.6361 52.8336 38.664 52.8485 38.6859 52.8704C38.7078 52.8923 38.7227 52.9202 38.7288 52.9506C38.7348 52.981 38.7317 53.0125 38.7199 53.0411C38.708 53.0698 38.6879 53.0942 38.6622 53.1114C38.6364 53.1287 38.6061 53.1378 38.5751 53.1378C38.5336 53.1378 38.4937 53.1213 38.4643 53.092C38.435 53.0626 38.4185 53.0227 38.4185 52.9812ZM38.4185 52.1978C38.4185 52.1668 38.4276 52.1366 38.4449 52.1108C38.4621 52.085 38.4865 52.0649 38.5152 52.0531C38.5438 52.0412 38.5753 52.0381 38.6057 52.0442C38.6361 52.0502 38.664 52.0651 38.6859 52.087C38.7078 52.109 38.7227 52.1369 38.7288 52.1673C38.7348 52.1977 38.7317 52.2292 38.7199 52.2578C38.708 52.2864 38.6879 52.3109 38.6622 52.3281C38.6364 52.3453 38.6061 52.3545 38.5751 52.3545C38.5336 52.3545 38.4937 52.338 38.4643 52.3086C38.435 52.2792 38.4185 52.2394 38.4185 52.1978ZM38.4185 51.4145C38.4185 51.3835 38.4276 51.3532 38.4449 51.3274C38.4621 51.3017 38.4865 51.2816 38.5152 51.2697C38.5438 51.2579 38.5753 51.2548 38.6057 51.2608C38.6361 51.2669 38.664 51.2818 38.6859 51.3037C38.7078 51.3256 38.7227 51.3535 38.7288 51.3839C38.7348 51.4143 38.7317 51.4458 38.7199 51.4744C38.708 51.5031 38.6879 51.5275 38.6622 51.5447C38.6364 51.562 38.6061 51.5712 38.5751 51.5712C38.5336 51.5712 38.4937 51.5546 38.4643 51.5253C38.435 51.4959 38.4185 51.456 38.4185 51.4145Z" fill="white"/>
<path d="M41.9228 49.0408L35.5598 48.2718C35.2461 46.6065 35.6182 45.5572 36.6761 45.124C37.1651 43.5216 39.0685 43.652 39.6081 43.7826C41.4441 44.2272 42.2157 45.9799 41.9228 49.0408Z" fill="url(#paint5_linear_10258_2286)"/>
<path d="M37.6352 49.9652V47.6151C36.6552 47.6005 36.8463 45.9022 37.8311 46.4205C38.0073 46.4988 38.4577 46.2834 38.3011 45.7547C39.3586 46.538 40.8322 45.1632 40.9253 46.0093C41.1084 47.6743 40.7541 49.0429 39.8146 49.0429C39.7145 49.0468 39.6142 49.0408 39.5153 49.0252V49.9652C39.2086 50.148 38.9019 50.2394 38.5952 50.2394C38.2885 50.2394 37.9685 50.148 37.6352 49.9652Z" fill="#FFDBC9"/>
<path d="M39.5154 49.0249V49.3382C38.9279 49.3382 38.4709 49.0575 38.1445 48.4961C38.5362 48.7572 38.9932 48.9335 39.5154 49.0249Z" fill="#FFBC9E"/>
<path d="M38.574 50.1982C38.8419 50.1854 39.5153 50.0467 39.5153 49.7472V49.4941C39.5871 49.4941 39.7928 49.6638 39.8986 49.8075C40.3167 50.3754 39.8529 50.8846 39.4746 50.8846C38.9973 50.8846 38.681 50.4858 38.5753 50.2939C38.4695 50.4859 38.1532 50.8846 37.6759 50.8846C37.2976 50.8846 36.8338 50.3754 37.252 49.8075C37.3578 49.6638 37.5634 49.4941 37.6353 49.4941V49.7472C37.6353 50.0467 38.2909 50.1854 38.574 50.1982Z" fill="white"/>
</g>
<g filter="url(#filter2_d_10258_2286)">
<rect x="53" y="64" width="101.377" height="27.9073" rx="2" fill="white"/>
</g>
<rect opacity="0.65" x="77" y="69.6953" width="43.8543" height="4.55629" rx="2.27815" fill="url(#paint6_linear_10258_2286)"/>
<rect opacity="0.4" x="77" y="76.5293" width="25.6291" height="2" rx="1" fill="url(#paint7_linear_10258_2286)"/>
<rect opacity="0.4" x="77" y="81.0859" width="34.7417" height="2" rx="1" fill="url(#paint8_linear_10258_2286)"/>
<g clip-path="url(#clip1_10258_2286)">
<path d="M59.7178 77.7403C59.7178 73.8085 62.9052 70.6211 66.837 70.6211V70.6211C70.7688 70.6211 73.9562 73.8085 73.9562 77.7403V77.7403C73.9562 81.6721 70.7688 84.8595 66.837 84.8595V84.8595C62.9052 84.8595 59.7178 81.6721 59.7178 77.7403V77.7403Z" fill="url(#paint9_linear_10258_2286)"/>
<path d="M71.2032 81.7742C71.5512 82.4387 71.7253 84.8592 71.7253 84.8592H61.9482C61.9482 84.8592 62.1223 82.4387 62.4703 81.7742C62.9924 80.7776 66.8368 79.4961 66.8368 79.4961C66.8368 79.4961 70.6811 80.7776 71.2032 81.7742Z" fill="url(#paint10_linear_10258_2286)"/>
<path d="M66.647 83.7211C66.647 83.6836 66.6581 83.6468 66.679 83.6156C66.6998 83.5844 66.7295 83.5601 66.7642 83.5457C66.7989 83.5313 66.837 83.5276 66.8739 83.5349C66.9107 83.5422 66.9445 83.5603 66.9711 83.5869C66.9976 83.6134 67.0157 83.6472 67.023 83.6841C67.0303 83.7209 67.0266 83.7591 67.0122 83.7938C66.9978 83.8284 66.9735 83.8581 66.9423 83.8789C66.9111 83.8998 66.8744 83.9109 66.8368 83.9109C66.7865 83.9109 66.7382 83.8909 66.7026 83.8553C66.667 83.8197 66.647 83.7714 66.647 83.7211ZM66.647 82.7719C66.647 82.7343 66.6581 82.6976 66.679 82.6664C66.6998 82.6352 66.7295 82.6109 66.7642 82.5965C66.7989 82.5821 66.837 82.5784 66.8739 82.5857C66.9107 82.593 66.9445 82.6111 66.9711 82.6376C66.9976 82.6642 67.0157 82.698 67.023 82.7348C67.0303 82.7717 67.0266 82.8098 67.0122 82.8445C66.9978 82.8792 66.9735 82.9089 66.9423 82.9297C66.9111 82.9506 66.8744 82.9617 66.8368 82.9617C66.7865 82.9617 66.7382 82.9417 66.7026 82.9061C66.667 82.8705 66.647 82.8222 66.647 82.7719ZM66.647 81.8227C66.647 81.7851 66.6581 81.7484 66.679 81.7172C66.6998 81.686 66.7295 81.6616 66.7642 81.6473C66.7989 81.6329 66.837 81.6291 66.8739 81.6365C66.9107 81.6438 66.9445 81.6619 66.9711 81.6884C66.9976 81.715 67.0157 81.7488 67.023 81.7856C67.0303 81.8224 67.0266 81.8606 67.0122 81.8953C66.9978 81.93 66.9735 81.9596 66.9423 81.9805C66.9111 82.0014 66.8744 82.0125 66.8368 82.0125C66.7865 82.0125 66.7382 81.9925 66.7026 81.9569C66.667 81.9213 66.647 81.873 66.647 81.8227Z" fill="white"/>
<path d="M70.8931 78.9467L63.1827 78.0149C62.8025 75.9969 63.2534 74.7255 64.5353 74.2006C65.1279 72.2589 67.4344 72.4168 68.0882 72.5751C70.3129 73.1138 71.2479 75.2377 70.8931 78.9467Z" fill="url(#paint11_linear_10258_2286)"/>
<path d="M65.6978 80.0667V77.219C64.5102 77.2012 64.7419 75.1434 65.9351 75.7714C66.1487 75.8663 66.6945 75.6053 66.5046 74.9646C67.7861 75.9138 69.5718 74.2479 69.6845 75.2731C69.9064 77.2907 69.4771 78.949 68.3386 78.9491C68.2173 78.9538 68.0958 78.9465 67.9759 78.9276V80.0667C67.6043 80.2881 67.2327 80.3989 66.8611 80.3989C66.4894 80.3989 66.1017 80.2881 65.6978 80.0667Z" fill="#FFDBC9"/>
<path d="M67.9756 78.9278V79.3075C67.2637 79.3075 66.71 78.9674 66.3145 78.2871C66.7891 78.6035 67.3428 78.8171 67.9756 78.9278Z" fill="#FFBC9E"/>
<path d="M66.8352 80.3492C67.1598 80.3337 67.9758 80.1657 67.9758 79.8027V79.4961C68.0628 79.4961 68.3121 79.7017 68.4402 79.8758C68.9469 80.564 68.3849 81.181 67.9265 81.181C67.3482 81.181 66.9649 80.6977 66.8367 80.4653C66.7086 80.6978 66.3253 81.181 65.7469 81.181C65.2885 81.181 64.7265 80.564 65.2332 79.8758C65.3614 79.7017 65.6106 79.4961 65.6977 79.4961V79.8027C65.6977 80.1657 66.4922 80.3337 66.8352 80.3492Z" fill="white"/>
</g>
<defs>
<filter id="filter0_d_10258_2286" x="18" y="0" width="149" height="128" filterUnits="userSpaceOnUse" color-interpolation-filters="sRGB">
<feFlood flood-opacity="0" result="BackgroundImageFix"/>
<feColorMatrix in="SourceAlpha" type="matrix" values="0 0 0 0 0 0 0 0 0 0 0 0 0 0 0 0 0 0 127 0" result="hardAlpha"/>
<feMorphology radius="4" operator="dilate" in="SourceAlpha" result="effect1_dropShadow_10258_2286"/>
<feOffset/>
<feGaussianBlur stdDeviation="12"/>
<feComposite in2="hardAlpha" operator="out"/>
<feColorMatrix type="matrix" values="0 0 0 0 0.282353 0 0 0 0 0.290196 0 0 0 0 0.619608 0 0 0 0.1 0"/>
<feBlend mode="normal" in2="BackgroundImageFix" result="effect1_dropShadow_10258_2286"/>
<feBlend mode="normal" in="SourceGraphic" in2="effect1_dropShadow_10258_2286" result="shape"/>
</filter>
<filter id="filter1_d_10258_2286" x="0" y="9" width="139.192" height="78.5605" filterUnits="userSpaceOnUse" color-interpolation-filters="sRGB">
<feFlood flood-opacity="0" result="BackgroundImageFix"/>
<feColorMatrix in="SourceAlpha" type="matrix" values="0 0 0 0 0 0 0 0 0 0 0 0 0 0 0 0 0 0 127 0" result="hardAlpha"/>
<feMorphology radius="4" operator="dilate" in="SourceAlpha" result="effect1_dropShadow_10258_2286"/>
<feOffset/>
<feGaussianBlur stdDeviation="12"/>
<feComposite in2="hardAlpha" operator="out"/>
<feColorMatrix type="matrix" values="0 0 0 0 0.282353 0 0 0 0 0.290196 0 0 0 0 0.619608 0 0 0 0.08 0"/>
<feBlend mode="normal" in2="BackgroundImageFix" result="effect1_dropShadow_10258_2286"/>
<feBlend mode="normal" in="SourceGraphic" in2="effect1_dropShadow_10258_2286" result="shape"/>
</filter>
<filter id="filter2_d_10258_2286" x="25" y="36" width="157.377" height="83.9082" filterUnits="userSpaceOnUse" color-interpolation-filters="sRGB">
<feFlood flood-opacity="0" result="BackgroundImageFix"/>
<feColorMatrix in="SourceAlpha" type="matrix" values="0 0 0 0 0 0 0 0 0 0 0 0 0 0 0 0 0 0 127 0" result="hardAlpha"/>
<feMorphology radius="4" operator="dilate" in="SourceAlpha" result="effect1_dropShadow_10258_2286"/>
<feOffset/>
<feGaussianBlur stdDeviation="12"/>
<feComposite in2="hardAlpha" operator="out"/>
<feColorMatrix type="matrix" values="0 0 0 0 0.282353 0 0 0 0 0.290196 0 0 0 0 0.619608 0 0 0 0.03 0"/>
<feBlend mode="normal" in2="BackgroundImageFix" result="effect1_dropShadow_10258_2286"/>
<feBlend mode="normal" in="SourceGraphic" in2="effect1_dropShadow_10258_2286" result="shape"/>
</filter>
<linearGradient id="paint0_linear_10258_2286" x1="48" y1="43.1093" x2="83.4928" y2="43.1093" gradientUnits="userSpaceOnUse">
<stop stop-color="#F44545"/>
<stop offset="1" stop-color="#EEA849"/>
</linearGradient>
<linearGradient id="paint1_linear_10258_2286" x1="48" y1="48.8105" x2="65.3767" y2="48.8105" gradientUnits="userSpaceOnUse">
<stop stop-color="#F44545"/>
<stop offset="1" stop-color="#EEA849"/>
</linearGradient>
<linearGradient id="paint2_linear_10258_2286" x1="48" y1="53.041" x2="74.2499" y2="53.041" gradientUnits="userSpaceOnUse">
<stop stop-color="#F44545"/>
<stop offset="1" stop-color="#EEA849"/>
</linearGradient>
<linearGradient id="paint3_linear_10258_2286" x1="38.5753" y1="42.1699" x2="38.5753" y2="53.9202" gradientUnits="userSpaceOnUse">
<stop stop-color="#EAEAEA"/>
<stop offset="1" stop-color="#ECECEC"/>
</linearGradient>
<linearGradient id="paint4_linear_10258_2286" x1="34.541" y1="51.7071" x2="42.6095" y2="51.7071" gradientUnits="userSpaceOnUse">
<stop stop-color="#606C88"/>
<stop offset="1" stop-color="#3F4C6B"/>
</linearGradient>
<linearGradient id="paint5_linear_10258_2286" x1="38.7177" y1="49.0408" x2="38.7177" y2="43.7109" gradientUnits="userSpaceOnUse">
<stop/>
<stop offset="1"/>
</linearGradient>
<linearGradient id="paint6_linear_10258_2286" x1="77" y1="71.9735" x2="120.854" y2="71.9735" gradientUnits="userSpaceOnUse">
<stop stop-color="#00D2FF"/>
<stop offset="1" stop-color="#3A7BD5"/>
</linearGradient>
<linearGradient id="paint7_linear_10258_2286" x1="77" y1="77.5293" x2="102.629" y2="77.5293" gradientUnits="userSpaceOnUse">
<stop stop-color="#00D2FF"/>
<stop offset="1" stop-color="#3A7BD5"/>
</linearGradient>
<linearGradient id="paint8_linear_10258_2286" x1="77" y1="82.0859" x2="111.742" y2="82.0859" gradientUnits="userSpaceOnUse">
<stop stop-color="#00D2FF"/>
<stop offset="1" stop-color="#3A7BD5"/>
</linearGradient>
<linearGradient id="paint9_linear_10258_2286" x1="66.837" y1="70.6211" x2="66.837" y2="84.8595" gradientUnits="userSpaceOnUse">
<stop stop-color="#EAEAEA"/>
<stop offset="1" stop-color="#ECECEC"/>
</linearGradient>
<linearGradient id="paint10_linear_10258_2286" x1="61.9482" y1="82.1777" x2="71.7253" y2="82.1777" gradientUnits="userSpaceOnUse">
<stop stop-color="#606C88"/>
<stop offset="1" stop-color="#3F4C6B"/>
</linearGradient>
<linearGradient id="paint11_linear_10258_2286" x1="67.0093" y1="78.9467" x2="67.0093" y2="72.4883" gradientUnits="userSpaceOnUse">
<stop/>
<stop offset="1"/>
</linearGradient>
<clipPath id="clip0_10258_2286">
<path d="M32.7002 48.0451C32.7002 44.8003 35.3306 42.1699 38.5753 42.1699V42.1699C41.8201 42.1699 44.4505 44.8003 44.4505 48.0451V48.0451C44.4505 51.2898 41.8201 53.9202 38.5753 53.9202V53.9202C35.3306 53.9202 32.7002 51.2898 32.7002 48.0451V48.0451Z" fill="white"/>
</clipPath>
<clipPath id="clip1_10258_2286">
<path d="M59.7178 77.7403C59.7178 73.8085 62.9052 70.6211 66.837 70.6211V70.6211C70.7688 70.6211 73.9562 73.8085 73.9562 77.7403V77.7403C73.9562 81.6721 70.7688 84.8595 66.837 84.8595V84.8595C62.9052 84.8595 59.7178 81.6721 59.7178 77.7403V77.7403Z" fill="white"/>
</clipPath>
</defs>
</svg>
