<svg width="30" height="30" viewBox="0 0 30 30" fill="none" xmlns="http://www.w3.org/2000/svg">
<rect width="30" height="30" rx="10" fill="url(#paint0_linear_10260_2471)"/>
<path d="M12.7734 7.57812C10.8289 7.57812 9.24805 9.15898 9.24805 11.1035C9.24805 13.0109 10.7398 14.5547 12.6844 14.6215C12.7438 14.6141 12.8031 14.6141 12.8477 14.6215C12.8625 14.6215 12.8699 14.6215 12.8848 14.6215C12.8922 14.6215 12.8922 14.6215 12.8996 14.6215C14.7996 14.5547 16.2914 13.0109 16.2988 11.1035C16.2988 9.15898 14.718 7.57812 12.7734 7.57812Z" fill="white" fill-opacity="0.5"/>
<path d="M16.5437 16.5959C14.4729 15.2154 11.096 15.2154 9.01045 16.5959C8.06787 17.2268 7.54834 18.0803 7.54834 18.9932C7.54834 19.9061 8.06787 20.7521 9.00303 21.3756C10.0421 22.0732 11.4077 22.4221 12.7733 22.4221C14.139 22.4221 15.5046 22.0732 16.5437 21.3756C17.4788 20.7447 17.9983 19.8986 17.9983 18.9783C17.9909 18.0654 17.4788 17.2193 16.5437 16.5959Z" fill="white"/>
<path d="M20.93 11.5424C21.0487 12.9823 20.0245 14.244 18.6069 14.4147C18.5995 14.4147 18.5995 14.4147 18.5921 14.4147H18.5698C18.5253 14.4147 18.4808 14.4147 18.4437 14.4295C17.7237 14.4666 17.0632 14.2366 16.5659 13.8135C17.3304 13.1307 17.7683 12.1065 17.6792 10.9932C17.6272 10.392 17.4194 9.8428 17.1077 9.37522C17.3897 9.23421 17.7163 9.14515 18.0503 9.11546C19.505 8.98929 20.8038 10.0729 20.93 11.5424Z" fill="white" fill-opacity="0.5"/>
<path d="M22.4146 18.4069C22.3552 19.1269 21.895 19.7503 21.1231 20.1733C20.381 20.5815 19.4458 20.7745 18.5181 20.7522C19.0524 20.2698 19.3642 19.6687 19.4235 19.0304C19.4978 18.1101 19.0599 17.2269 18.1841 16.5218C17.6868 16.1284 17.1079 15.8167 16.4771 15.5866C18.1173 15.1116 20.1806 15.4308 21.4497 16.455C22.1325 17.0042 22.4813 17.6944 22.4146 18.4069Z" fill="white"/>
<defs>
<linearGradient id="paint0_linear_10260_2471" x1="0" y1="15" x2="30" y2="15" gradientUnits="userSpaceOnUse">
<stop stop-color="#4CB8C4"/>
<stop offset="1" stop-color="#3CD3AD"/>
</linearGradient>
</defs>
</svg>
