<svg width="30" height="30" viewBox="0 0 30 30" fill="none" xmlns="http://www.w3.org/2000/svg">
<rect width="30" height="30" rx="10" fill="url(#paint0_linear_11486_2963)"/>
<path opacity="0.4" d="M19.6985 18.4813L19.9878 20.825C20.0619 21.4406 19.4018 21.8707 18.8753 21.5518L15.7677 19.7051C15.4265 19.7051 15.0928 19.6828 14.7664 19.6383C15.3153 18.9931 15.6416 18.1772 15.6416 17.2947C15.6416 15.1883 13.8171 13.4825 11.5624 13.4825C10.7021 13.4825 9.90851 13.7273 9.24842 14.1574C9.22617 13.972 9.21875 13.7866 9.21875 13.5937C9.21875 10.2192 12.1483 7.48242 15.7677 7.48242C19.387 7.48242 22.3166 10.2192 22.3166 13.5937C22.3166 15.5962 21.2857 17.3688 19.6985 18.4813Z" fill="white"/>
<path d="M15.6417 17.2965C15.6417 18.1791 15.3154 18.9949 14.7666 19.6402C14.0323 20.5302 12.8679 21.1013 11.5626 21.1013L9.62681 22.2508C9.30048 22.4511 8.88515 22.1767 8.92965 21.7984L9.11506 20.3374C8.12123 19.6476 7.4834 18.5425 7.4834 17.2965C7.4834 15.9912 8.18057 14.8416 9.24857 14.1593C9.90865 13.7291 10.7022 13.4844 11.5626 13.4844C13.8172 13.4844 15.6417 15.1902 15.6417 17.2965Z" fill="white"/>
<defs>
<linearGradient id="paint0_linear_11486_2963" x1="0" y1="15" x2="30" y2="15" gradientUnits="userSpaceOnUse">
<stop stop-color="#BF5AE0"/>
<stop offset="1" stop-color="#A811DA"/>
</linearGradient>
</defs>
</svg>
