<svg width="60" height="61" viewBox="0 0 60 61" fill="none" xmlns="http://www.w3.org/2000/svg">
<circle cx="30" cy="30.2236" r="30" fill="#EAEAEA" fill-opacity="0.5"/>
<circle cx="30" cy="30.2236" r="29.5" stroke="#484A9E" stroke-opacity="0.1"/>
<path d="M34.6344 41.8306C34.4552 42.643 34.037 43.3718 33.4636 43.9453C32.675 44.7338 31.5878 45.2236 30.3931 45.2236C29.1983 45.2236 28.0992 44.7338 27.3106 43.9453C26.7491 43.3718 26.3309 42.643 26.1517 41.8306H19.8793C19.0789 41.8306 18.362 41.508 17.8483 40.9823C17.3226 40.4566 17 39.7398 17 38.9512C17 38.1627 17.3226 37.4339 17.8483 36.9202C18.1708 36.5856 18.589 36.3347 19.043 36.2033L20.405 27.8282C20.859 25.0683 22.0418 22.5235 23.8459 20.7195C24.5149 20.0504 25.2557 19.4889 26.0681 19.0588C26.1876 18.0671 26.6416 17.1711 27.3106 16.502C28.0992 15.7135 29.1983 15.2236 30.3931 15.2236C31.5878 15.2236 32.675 15.7135 33.4636 16.502C34.1326 17.1711 34.5866 18.0671 34.7061 19.0588C35.5305 19.4889 36.2712 20.0504 36.9283 20.7195C38.7443 22.5235 39.9271 25.0683 40.3811 27.8282L41.7431 36.2033C42.1971 36.3347 42.6033 36.5856 42.9379 36.9202C43.4636 37.4339 43.7861 38.1627 43.7861 38.9512C43.7861 39.7398 43.4636 40.4566 42.9379 40.9823C42.4122 41.508 41.6953 41.8306 40.9068 41.8306H34.6344ZM28.3859 18.1985C29.0191 18.0552 29.6882 17.9835 30.3931 17.9835C31.086 17.9835 31.767 18.0552 32.4002 18.1985C32.3166 18.0791 32.221 17.9596 32.1135 17.8521C31.6714 17.41 31.0621 17.1472 30.3931 17.1472C29.7121 17.1472 29.1147 17.41 28.6726 17.8521C28.5651 17.9596 28.4695 18.0791 28.3859 18.1985ZM26.0442 39.907H34.7419H40.9068C41.1697 39.907 41.4086 39.7995 41.5878 39.6322C41.7551 39.453 41.8626 39.2141 41.8626 38.9512C41.8626 38.6884 41.7551 38.4494 41.5878 38.2702C41.4086 38.103 41.1697 37.9954 40.9068 37.9954C40.4409 37.9954 40.0346 37.6609 39.963 37.183L38.4934 28.1388C38.0992 25.7613 37.0956 23.5988 35.5783 22.0695C34.2401 20.7314 32.4839 19.907 30.3931 19.907C28.3023 19.907 26.546 20.7314 25.2079 22.0695C23.6906 23.5988 22.675 25.7613 22.2927 28.1388L20.8351 37.1113C20.7873 37.6012 20.3811 37.9954 19.8793 37.9954C19.6165 37.9954 19.3775 38.103 19.1983 38.2702C19.0311 38.4494 18.9235 38.6884 18.9235 38.9512C18.9235 39.2141 19.0311 39.453 19.1983 39.6322C19.3775 39.7995 19.6165 39.907 19.8793 39.907H26.0442ZM32.1135 42.5952C32.3286 42.3801 32.5078 42.1173 32.6272 41.8306H28.1589C28.2784 42.1173 28.4576 42.3801 28.6726 42.5952C29.1147 43.0253 29.7121 43.3001 30.3931 43.3001C31.0621 43.3001 31.6714 43.0253 32.1135 42.5952Z" fill="#5E5E5E"/>
</svg>
