<svg width="23" height="22" viewBox="0 0 23 22" fill="none" xmlns="http://www.w3.org/2000/svg">
<path d="M0.0834961 21.917C0.0834961 19.7069 0.96147 17.5872 2.52427 16.0244C4.08708 14.4616 6.20669 13.5837 8.41683 13.5837C10.627 13.5837 12.7466 14.4616 14.3094 16.0244C15.8722 17.5872 16.7502 19.7069 16.7502 21.917H0.0834961ZM8.41683 12.542C4.9637 12.542 2.16683 9.74512 2.16683 6.29199C2.16683 2.83887 4.9637 0.0419922 8.41683 0.0419922C11.87 0.0419922 14.6668 2.83887 14.6668 6.29199C14.6668 9.74512 11.87 12.542 8.41683 12.542ZM18.8335 16.7087H23.0002V18.792H18.8335V16.7087ZM15.7085 11.5003H23.0002V13.5837H15.7085V11.5003ZM17.7918 6.29199H23.0002V8.37533H17.7918V6.29199Z" fill="#484A9E"/>
</svg>
