<svg width="28" height="28" viewBox="0 0 28 28" fill="none" xmlns="http://www.w3.org/2000/svg">
<path d="M25.6666 19.5305V5.44885C25.6666 4.04885 24.5233 3.01052 23.1349 3.12718H23.0649C20.6149 3.33718 16.8933 4.58552 14.8166 5.89218L14.6183 6.02052C14.2799 6.23052 13.7199 6.23052 13.3816 6.02052L13.0899 5.84552C11.0133 4.55052 7.30325 3.31385 4.85325 3.11552C3.46492 2.99885 2.33325 4.04885 2.33325 5.43718V19.5305C2.33325 20.6505 3.24325 21.7005 4.36325 21.8405L4.70159 21.8872C7.23325 22.2255 11.1416 23.5089 13.3816 24.7339L13.4283 24.7572C13.7433 24.9322 14.2449 24.9322 14.5483 24.7572C16.7883 23.5205 20.7083 22.2255 23.2516 21.8872L23.6366 21.8405C24.7566 21.7005 25.6666 20.6505 25.6666 19.5305Z" stroke="#292D32" stroke-width="2" stroke-linecap="round" stroke-linejoin="round"/>
<path d="M14 6.40552V23.9055" stroke="#292D32" stroke-width="2" stroke-linecap="round" stroke-linejoin="round"/>
<path d="M9.04175 9.90552H6.41675" stroke="#292D32" stroke-width="2" stroke-linecap="round" stroke-linejoin="round"/>
<path d="M9.91675 13.4055H6.41675" stroke="#292D32" stroke-width="2" stroke-linecap="round" stroke-linejoin="round"/>
</svg>
