<svg width="15" height="15" viewBox="0 0 15 15" fill="none" xmlns="http://www.w3.org/2000/svg">
<path d="M2.63992 1.27L7.49992 6.13L12.3399 1.29C12.4247 1.19972 12.5269 1.12749 12.6403 1.07766C12.7537 1.02783 12.8761 1.00141 12.9999 1C13.2651 1 13.5195 1.10536 13.707 1.29289C13.8946 1.48043 13.9999 1.73478 13.9999 2C14.0023 2.1226 13.9795 2.24439 13.9331 2.35788C13.8866 2.47138 13.8175 2.57419 13.7299 2.66L8.83992 7.5L13.7299 12.39C13.8947 12.5512 13.9914 12.7696 13.9999 13C13.9999 13.2652 13.8946 13.5196 13.707 13.7071C13.5195 13.8946 13.2651 14 12.9999 14C12.8725 14.0053 12.7453 13.984 12.6265 13.9375C12.5078 13.8911 12.3999 13.8204 12.3099 13.73L7.49992 8.87L2.64992 13.72C2.56542 13.8073 2.46448 13.8769 2.35292 13.925C2.24136 13.9731 2.12138 13.9986 1.99992 14C1.7347 14 1.48035 13.8946 1.29281 13.7071C1.10528 13.5196 0.999919 13.2652 0.999919 13C0.997587 12.8774 1.02033 12.7556 1.06676 12.6421C1.11319 12.5286 1.18233 12.4258 1.26992 12.34L6.15992 7.5L1.26992 2.61C1.1051 2.44876 1.00846 2.23041 0.999919 2C0.999919 1.73478 1.10528 1.48043 1.29281 1.29289C1.48035 1.10536 1.7347 1 1.99992 1C2.23992 1.003 2.46992 1.1 2.63992 1.27Z" fill="black"/>
</svg>
