<svg width="20" height="20" viewBox="0 0 20 20" fill="none" xmlns="http://www.w3.org/2000/svg">
<path d="M12 3.0303C12 2.54809 11.7893 2.08563 11.4142 1.74465C11.0391 1.40368 10.5304 1.21212 10 1.21212C9.46957 1.21212 8.96086 1.40368 8.58579 1.74465C8.21071 2.08563 8 2.54809 8 3.0303H6.66667C6.66667 2.22662 7.01786 1.45585 7.64298 0.887555C8.2681 0.319263 9.11594 0 10 0C10.8841 0 11.7319 0.319263 12.357 0.887555C12.9821 1.45585 13.3333 2.22662 13.3333 3.0303H19.3333C19.5101 3.0303 19.6797 3.09416 19.8047 3.20781C19.9298 3.32147 20 3.47563 20 3.63636C20 3.7971 19.9298 3.95125 19.8047 4.06491C19.6797 4.17857 19.5101 4.24242 19.3333 4.24242H18.5947L16.8667 17.8545C16.7914 18.4453 16.4799 18.9904 15.9914 19.386C15.5029 19.7815 14.8715 20.0001 14.2173 20H5.78267C5.12846 20.0001 4.49705 19.7815 4.00856 19.386C3.52006 18.9904 3.20857 18.4453 3.13333 17.8545L1.404 4.24242H0.666667C0.510633 4.24247 0.359524 4.19276 0.239655 4.10195C0.119786 4.01114 0.0387526 3.88499 0.0106665 3.74545L0 3.63636C0 3.47563 0.070238 3.32147 0.195262 3.20781C0.320287 3.09416 0.489856 3.0303 0.666667 3.0303H12ZM17.2507 4.24242H2.748L4.45733 17.7152C4.49496 18.0106 4.65081 18.2832 4.89519 18.4811C5.13958 18.6789 5.45545 18.7881 5.78267 18.7879H14.2173C14.5443 18.7878 14.8599 18.6784 15.104 18.4807C15.3481 18.2829 15.5037 18.0104 15.5413 17.7152L17.2507 4.24242ZM8 7.27273C8.32667 7.27273 8.6 7.46061 8.656 7.70788L8.66667 7.80364V15.2279C8.66667 15.52 8.368 15.7576 8 15.7576C7.67333 15.7576 7.4 15.5697 7.344 15.3224L7.33333 15.2267V7.80485C7.33333 7.51152 7.632 7.27394 8 7.27394V7.27273ZM12 7.27273C12.3267 7.27273 12.6 7.46061 12.656 7.70788L12.6667 7.80364V15.2279C12.6667 15.52 12.368 15.7576 12 15.7576C11.6733 15.7576 11.4 15.5697 11.344 15.3224L11.3333 15.2267V7.80485C11.3333 7.51152 11.632 7.27394 12 7.27394V7.27273Z" fill="#B72525"/>
</svg>
