<svg width="18" height="18" viewBox="0 0 18 18" fill="none" xmlns="http://www.w3.org/2000/svg">
<path d="M3.31499 15.434C3.21094 15.4338 3.10806 15.412 3.0129 15.3699C2.91774 15.3278 2.83238 15.2664 2.76224 15.1895C2.69084 15.1133 2.63636 15.0228 2.60236 14.9241C2.56837 14.8253 2.55563 14.7205 2.56499 14.6165L2.74874 12.596L11.2372 4.1105L13.89 6.7625L5.40374 15.2472L3.38324 15.431C3.36055 15.4331 3.33778 15.4341 3.31499 15.434ZM14.4195 6.23225L11.7675 3.58025L13.3582 1.9895C13.4279 1.91976 13.5106 1.86444 13.6017 1.8267C13.6927 1.78896 13.7903 1.76953 13.8889 1.76953C13.9874 1.76953 14.085 1.78896 14.1761 1.8267C14.2671 1.86444 14.3498 1.91976 14.4195 1.9895L16.0102 3.58025C16.08 3.6499 16.1353 3.73262 16.173 3.82367C16.2108 3.91471 16.2302 4.01231 16.2302 4.11087C16.2302 4.20943 16.2108 4.30703 16.173 4.39808C16.1353 4.48913 16.08 4.57184 16.0102 4.6415L14.4202 6.2315L14.4195 6.23225Z" fill="black"/>
</svg>
