<svg width="30" height="20" viewBox="0 0 30 20" fill="none" xmlns="http://www.w3.org/2000/svg">
<path d="M23.099 9.21875L23.3333 13.3333C23.3681 13.9323 23.0122 14.4878 22.2656 15C21.5191 15.5122 20.4991 15.918 19.2057 16.2174C17.9123 16.5169 16.5104 16.6667 15 16.6667C13.4896 16.6667 12.0877 16.5169 10.7943 16.2174C9.50087 15.918 8.4809 15.5122 7.73438 15C6.98785 14.4878 6.63194 13.9323 6.66667 13.3333L6.90104 9.21875L14.375 11.5755C14.566 11.6363 14.7743 11.6667 15 11.6667C15.2257 11.6667 15.434 11.6363 15.625 11.5755L23.099 9.21875ZM30 5C30 5.19965 29.9045 5.3342 29.7135 5.40365L15.1302 9.98698C15.0955 9.99566 15.0521 10 15 10C14.9479 10 14.9045 9.99566 14.8698 9.98698L6.38021 7.30469C6.00694 7.59983 5.69878 8.08377 5.45573 8.75651C5.21267 9.42925 5.0651 10.204 5.01302 11.0807C5.5599 11.3932 5.83333 11.8663 5.83333 12.5C5.83333 13.099 5.5816 13.5634 5.07812 13.8932L5.83333 19.5312C5.85069 19.6528 5.81597 19.7613 5.72917 19.8568C5.65104 19.9523 5.54688 20 5.41667 20H2.91667C2.78646 20 2.68229 19.9523 2.60417 19.8568C2.51736 19.7613 2.48264 19.6528 2.5 19.5312L3.25521 13.8932C2.75174 13.5634 2.5 13.099 2.5 12.5C2.5 11.8663 2.78212 11.3845 3.34635 11.0547C3.44184 9.25781 3.86719 7.82552 4.6224 6.75781L0.286458 5.40365C0.0954861 5.3342 0 5.19965 0 5C0 4.80035 0.0954861 4.6658 0.286458 4.59635L14.8698 0.0130208C14.9045 0.00434028 14.9479 0 15 0C15.0521 0 15.0955 0.00434028 15.1302 0.0130208L29.7135 4.59635C29.9045 4.6658 30 4.80035 30 5Z" fill="#484A9E"/>
</svg>
