<svg width="29" height="30" viewBox="0 0 29 30" fill="none" xmlns="http://www.w3.org/2000/svg">
<path d="M9.99687 27.0076H19.3302C24.0202 27.0076 24.8602 25.0621 25.1052 22.6938L25.9802 13.0271C26.2952 10.0788 25.4785 7.67422 20.4969 7.67422H8.8302C3.84854 7.67422 3.03187 10.0788 3.34687 13.0271L4.22187 22.6938C4.46687 25.0621 5.30687 27.0076 9.99687 27.0076Z" stroke="#222222" stroke-width="2" stroke-miterlimit="10" stroke-linecap="round" stroke-linejoin="round"/>
<path d="M9.99695 7.67423V6.70756C9.99695 4.56881 9.99695 2.8409 13.7303 2.8409H15.5969C19.3303 2.8409 19.3303 4.56881 19.3303 6.70756V7.67423" stroke="#222222" stroke-width="2" stroke-miterlimit="10" stroke-linecap="round" stroke-linejoin="round"/>
<path d="M16.9969 16.1326V17.3409C16.9969 17.353 16.9969 17.353 16.9969 17.3651C16.9969 18.6822 16.9852 19.7576 14.6635 19.7576C12.3535 19.7576 12.3302 18.6942 12.3302 17.3772V16.1326C12.3302 14.9242 12.3302 14.9242 13.4969 14.9242H15.8302C16.9969 14.9242 16.9969 14.9242 16.9969 16.1326Z" stroke="#222222" stroke-width="2" stroke-miterlimit="10" stroke-linecap="round" stroke-linejoin="round"/>
<path d="M25.9219 13.7159C23.2269 15.7459 20.1469 16.9542 16.9969 17.3651" stroke="#222222" stroke-width="2" stroke-miterlimit="10" stroke-linecap="round" stroke-linejoin="round"/>
<path d="M3.72021 14.0422C6.34522 15.903 9.30855 17.0268 12.3302 17.3772" stroke="#222222" stroke-width="2" stroke-miterlimit="10" stroke-linecap="round" stroke-linejoin="round"/>
</svg>
