<svg width="16" height="16" viewBox="0 0 16 16" fill="none" xmlns="http://www.w3.org/2000/svg">
<path d="M12.6667 7.33287H4.76008L7.18008 4.4262C7.29324 4.29005 7.34768 4.11453 7.33143 3.93825C7.31518 3.76197 7.22956 3.59936 7.09341 3.4862C6.95727 3.37304 6.78175 3.3186 6.60547 3.33485C6.42918 3.35111 6.26657 3.43672 6.15341 3.57287L2.82008 7.57287C2.79766 7.60468 2.7776 7.63811 2.76008 7.67287C2.76008 7.7062 2.76008 7.7262 2.71341 7.75953C2.6832 7.83597 2.66738 7.91734 2.66675 7.99953C2.66738 8.08173 2.6832 8.16309 2.71341 8.23953C2.71341 8.27287 2.71341 8.29287 2.76008 8.3262C2.7776 8.36096 2.79766 8.39438 2.82008 8.4262L6.15341 12.4262C6.2161 12.5015 6.29459 12.562 6.38331 12.6035C6.47203 12.6449 6.56881 12.6664 6.66675 12.6662C6.82252 12.6665 6.97347 12.6123 7.09341 12.5129C7.16092 12.4569 7.21672 12.3882 7.25762 12.3106C7.29852 12.233 7.32372 12.1482 7.33177 12.0608C7.33982 11.9735 7.33057 11.8855 7.30454 11.8017C7.27851 11.718 7.23622 11.6402 7.18008 11.5729L4.76008 8.6662H12.6667C12.8436 8.6662 13.0131 8.59596 13.1382 8.47094C13.2632 8.34591 13.3334 8.17634 13.3334 7.99953C13.3334 7.82272 13.2632 7.65315 13.1382 7.52813C13.0131 7.4031 12.8436 7.33287 12.6667 7.33287Z" fill="black"/>
</svg>
