<svg width="18" height="18" viewBox="0 0 18 18" fill="none" xmlns="http://www.w3.org/2000/svg">
<path d="M9.00001 3.36035C8.43337 3.36035 7.87945 3.52838 7.4083 3.84319C6.93716 4.158 6.56994 4.60545 6.3531 5.12896C6.13625 5.65247 6.07951 6.22853 6.19006 6.78429C6.30061 7.34004 6.57347 7.85054 6.97415 8.25121C7.37483 8.65189 7.88532 8.92476 8.44108 9.0353C8.99683 9.14585 9.57289 9.08911 10.0964 8.87227C10.6199 8.65542 11.0674 8.28821 11.3822 7.81706C11.697 7.34591 11.865 6.792 11.865 6.22535C11.865 5.46551 11.5632 4.73678 11.0259 4.19949C10.4886 3.6622 9.75986 3.36035 9.00001 3.36035ZM9.00001 8.09035C8.63115 8.09035 8.27057 7.98097 7.96387 7.77604C7.65717 7.57111 7.41813 7.27984 7.27698 6.93906C7.13582 6.59827 7.09889 6.22328 7.17085 5.86151C7.24281 5.49973 7.42043 5.16742 7.68126 4.9066C7.94208 4.64577 8.27439 4.46815 8.63617 4.39619C8.99794 4.32423 9.37293 4.36116 9.71372 4.50232C10.0545 4.64347 10.3458 4.88252 10.5507 5.18921C10.7556 5.49591 10.865 5.85649 10.865 6.22535C10.8637 6.71911 10.6666 7.1922 10.317 7.54087C9.96739 7.88955 9.49377 8.08535 9.00001 8.08535V8.09035Z" fill="#484A9E"/>
<path d="M9.00011 1C7.44271 1.0013 5.9491 1.61884 4.84551 2.71775C3.74192 3.81665 3.11803 5.30762 3.11011 6.865C3.11011 9.2 4.42011 11.155 5.38011 12.58L5.55511 12.84C6.51025 14.2243 7.53489 15.5594 8.62511 16.84L9.00511 17.285L9.38511 16.84C10.4752 15.5592 11.4998 14.2242 12.4551 12.84L12.6301 12.575C13.5851 11.15 14.8951 9.2 14.8951 6.865C14.8872 5.30675 14.2626 3.81503 13.1579 2.71599C12.0533 1.61694 10.5584 0.99998 9.00011 1ZM11.7951 12L11.6151 12.265C10.7551 13.555 9.61511 15 9.00011 15.715C8.41011 15 7.24511 13.555 6.38511 12.265L6.21011 12C5.32511 10.68 4.11011 8.875 4.11011 6.845C4.11011 6.20284 4.23659 5.56696 4.48234 4.97368C4.72808 4.3804 5.08828 3.84133 5.54236 3.38725C5.99643 2.93317 6.5355 2.57297 7.12879 2.32723C7.72207 2.08148 8.35794 1.955 9.00011 1.955C9.64227 1.955 10.2781 2.08148 10.8714 2.32723C11.4647 2.57297 12.0038 2.93317 12.4579 3.38725C12.9119 3.84133 13.2721 4.3804 13.5179 4.97368C13.7636 5.56696 13.8901 6.20284 13.8901 6.845C13.8901 8.895 12.6801 10.7 11.7951 12Z" fill="#484A9E"/>
</svg>
