<svg width="24" height="24" viewBox="0 0 24 24" fill="none" xmlns="http://www.w3.org/2000/svg">
<path d="M12 12C11.8517 12 11.7067 11.956 11.5833 11.8736C11.46 11.7912 11.3639 11.6741 11.3071 11.537C11.2503 11.4 11.2355 11.2492 11.2644 11.1037C11.2934 10.9582 11.3648 10.8246 11.4697 10.7197C11.5746 10.6148 11.7082 10.5434 11.8537 10.5144C11.9992 10.4855 12.15 10.5003 12.287 10.5571C12.4241 10.6139 12.5412 10.71 12.6236 10.8333C12.706 10.9567 12.75 11.1017 12.75 11.25C12.75 11.4489 12.671 11.6397 12.5303 11.7803C12.3897 11.921 12.1989 12 12 12ZM12 14.25C11.4875 14.2493 10.9833 14.3799 10.5356 14.6293C10.0879 14.8788 9.71157 15.2388 9.4425 15.675L9.5625 15.765C9.64914 15.8231 9.73932 15.8757 9.8325 15.9225C9.94368 15.9873 10.0589 16.045 10.1775 16.095C10.32 16.155 10.4625 16.215 10.605 16.26L10.74 16.2975C11.5664 16.5301 12.4411 16.5301 13.2675 16.2975H13.3875L13.8225 16.125C13.9378 16.076 14.0505 16.0209 14.16 15.96L14.4375 15.795C14.4804 15.7691 14.5206 15.7389 14.5575 15.705C14.2921 15.2632 13.9173 14.8973 13.4694 14.6424C13.0214 14.3876 12.5154 14.2524 12 14.25ZM23.25 10.3875V13.6125C23.25 13.8114 23.171 14.0022 23.0303 14.1428C22.8897 14.2835 22.6989 14.3625 22.5 14.3625H19.6575C19.5135 14.8426 19.3225 15.3073 19.0875 15.75L21.0975 17.76C21.2372 17.9005 21.3156 18.0906 21.3156 18.2888C21.3156 18.4869 21.2372 18.677 21.0975 18.8175L18.81 21.105C18.6695 21.2447 18.4794 21.3231 18.2813 21.3231C18.0831 21.3231 17.893 21.2447 17.7525 21.105L15.75 19.0875C15.3097 19.3221 14.8475 19.513 14.37 19.6575V22.5C14.37 22.6989 14.291 22.8897 14.1503 23.0303C14.0097 23.171 13.8189 23.25 13.62 23.25H10.395C10.1961 23.25 10.0053 23.171 9.86467 23.0303C9.72402 22.8897 9.645 22.6989 9.645 22.5V19.6575C9.16236 19.5139 8.69509 19.323 8.25 19.0875L6.2475 21.0975C6.10698 21.2372 5.91689 21.3156 5.71875 21.3156C5.52061 21.3156 5.33052 21.2372 5.19 21.0975L2.94 18.81C2.80031 18.6695 2.72191 18.4794 2.72191 18.2813C2.72191 18.0831 2.80031 17.893 2.94 17.7525L4.9125 15.75C4.67791 15.3097 4.487 14.8475 4.3425 14.37H1.5C1.30109 14.37 1.11032 14.291 0.96967 14.1503C0.829018 14.0097 0.75 13.8189 0.75 13.62V10.395C0.75 10.1961 0.829018 10.0053 0.96967 9.86467C1.11032 9.72402 1.30109 9.645 1.5 9.645H4.3425C4.48608 9.16236 4.67701 8.69509 4.9125 8.25L2.9025 6.2475C2.76281 6.10698 2.68441 5.91689 2.68441 5.71875C2.68441 5.52061 2.76281 5.33052 2.9025 5.19L5.19 2.94C5.33052 2.80031 5.52061 2.72191 5.71875 2.72191C5.91689 2.72191 6.10698 2.80031 6.2475 2.94L8.25 4.9125C8.69029 4.67791 9.1525 4.487 9.63 4.3425V1.5C9.63 1.30109 9.70902 1.11032 9.84967 0.96967C9.99032 0.829018 10.1811 0.75 10.38 0.75H13.605C13.8039 0.75 13.9947 0.829018 14.1353 0.96967C14.276 1.11032 14.355 1.30109 14.355 1.5V4.3425C14.8376 4.48608 15.3049 4.67701 15.75 4.9125L17.76 2.9025C17.9005 2.76281 18.0906 2.68441 18.2888 2.68441C18.4869 2.68441 18.677 2.76281 18.8175 2.9025L21.105 5.19C21.2447 5.33052 21.3231 5.52061 21.3231 5.71875C21.3231 5.91689 21.2447 6.10698 21.105 6.2475L19.0875 8.25C19.3221 8.69029 19.513 9.1525 19.6575 9.63H22.5C22.5991 9.63 22.6973 9.64964 22.7888 9.6878C22.8802 9.72596 22.9633 9.78188 23.033 9.85232C23.1027 9.92276 23.1578 10.0063 23.1951 10.0982C23.2323 10.19 23.251 10.2884 23.25 10.3875ZM18 12C18.0021 10.9989 17.7537 10.0132 17.2774 9.13269C16.8011 8.25216 16.1121 7.50481 15.273 6.95871C14.434 6.41261 13.4717 6.08512 12.4737 6.00608C11.4758 5.92704 10.4739 6.09896 9.55937 6.50618C8.64485 6.9134 7.84675 7.54297 7.23778 8.33754C6.62882 9.1321 6.22834 10.0664 6.07284 11.0554C5.91734 12.0443 6.01175 13.0564 6.34748 13.9995C6.68321 14.9426 7.24958 15.7868 7.995 16.455C9.08917 17.4538 10.5185 18.0052 12 18C12.1875 18 12.375 18 12.555 18C13.8349 17.887 15.0433 17.3605 15.9975 16.5C16.6307 15.9343 17.1366 15.2407 17.4818 14.465C17.827 13.6892 18.0036 12.8491 18 12ZM12 7.5C11.1731 7.50185 10.3626 7.73152 9.65764 8.16382C8.95268 8.59611 8.38047 9.2143 8.00384 9.9505C7.62722 10.6867 7.46074 11.5125 7.52268 12.3371C7.58463 13.1617 7.87261 13.9533 8.355 14.625C8.90899 13.8499 9.69797 13.274 10.605 12.9825C10.2439 12.6896 9.98248 12.292 9.85658 11.8445C9.73067 11.3969 9.7465 10.9214 9.90189 10.4832C10.0573 10.045 10.3446 9.66568 10.7243 9.39743C11.1041 9.12919 11.5576 8.98516 12.0225 8.98516C12.4874 8.98516 12.9409 9.12919 13.3207 9.39743C13.7004 9.66568 13.9877 10.045 14.1431 10.4832C14.2985 10.9214 14.3143 11.3969 14.1884 11.8445C14.0625 12.292 13.8011 12.6896 13.44 12.9825C14.347 13.274 15.136 13.8499 15.69 14.625C16.2312 13.8579 16.5148 12.9387 16.5 12C16.5 10.8065 16.0259 9.66193 15.182 8.81802C14.3381 7.97411 13.1935 7.5 12 7.5Z" fill="#484A9E"/>
</svg>
