<svg width="284" height="226" viewBox="0 0 284 226" fill="none" xmlns="http://www.w3.org/2000/svg">
<path d="M199.933 120.794C204.979 120.722 210.167 120.704 215.498 120.741C223.578 120.797 222.383 121.498 226.539 120.797C229.07 120.37 230.505 119.542 231.241 119.657C231.713 119.731 231.897 120.195 231.897 121.406C231.897 123.469 230.975 127.77 229.132 134.308L217.985 158.507L213.834 169.7C212.534 173.203 209.215 175.547 205.479 175.599L178.982 175.968L194.771 122.84C195.14 121.598 196.289 120.752 197.585 120.769L199.615 120.795C199.721 120.796 199.827 120.796 199.933 120.794Z" fill="#A339FF"/>
<path d="M218.775 179.382C218.707 180.13 218.078 180.717 217.312 180.717H214.714L221.275 205.2C221.271 205.292 220.766 205.495 220.087 205.677C219.773 205.761 219.456 205.831 219.24 205.859C219.023 205.887 218.883 205.886 218.872 205.844L212.139 180.717H58.6738L51.941 205.844C51.8923 205.922 51.353 205.845 50.674 205.663C50.3606 205.579 50.051 205.481 49.8496 205.397C49.6482 205.313 49.527 205.243 49.5383 205.2L56.0986 180.717H54.2703C53.4585 180.717 52.8004 180.059 52.8004 179.247C52.8004 178.435 53.4585 177.777 54.2703 177.777H216.219L235.14 122.826C235.404 122.058 236.241 121.65 237.008 121.915C237.776 122.179 238.184 123.015 237.919 123.783L218.775 179.382Z" fill="#D8DEED"/>
<path d="M62.5224 122.069L62.4073 122.14C61.9782 122.435 61.8607 123.015 62.1363 123.456L81.5443 153.833C81.8391 154.262 82.4192 154.38 82.8603 154.104L82.9753 154.032C83.4044 153.737 83.5219 153.157 83.2463 152.716L63.8503 122.359C63.5627 121.898 62.9826 121.781 62.5224 122.069ZM112.319 177.324L75.9119 177.324C75.3499 177.324 74.8943 177.779 74.8943 178.341C74.8943 178.903 75.3499 179.359 75.9119 179.359L112.319 179.359C112.881 179.359 113.337 178.903 113.337 178.341C113.337 177.779 112.881 177.324 112.319 177.324Z" fill="#FFCB3D"/>
<path d="M63.6822 122.101C63.7517 122.162 63.814 122.234 63.8665 122.318L83.2625 152.676C83.3571 152.827 83.4054 152.995 83.4107 153.162L94.6183 146.463L86.4411 131.414L81.7648 129.563C80.4872 129.268 79.2384 128.849 78.0304 128.324C75.1325 127.015 74.4207 125.833 70.6385 123.45C69.6222 122.805 68.5916 122.223 67.4842 121.688C66.8371 121.506 65.6026 121.237 64.5383 121.582C64.3609 121.64 64.2075 121.736 64.0613 121.8C63.918 121.89 63.7924 121.992 63.6822 122.101ZM75.796 177.292C75.8392 177.286 75.8833 177.283 75.9281 177.283L112.335 177.283C112.385 177.283 112.435 177.287 112.483 177.294L112.483 162.173L97.0129 162.173C94.0919 164.178 92.3224 165.49 91.7043 166.108C90.7772 167.035 89.7596 167.872 88.6741 168.618C86.0284 170.382 84.649 170.359 80.6238 172.304C79.5384 172.824 78.4982 173.389 77.458 174.045C76.4178 174.701 76.0786 175.402 75.8072 176.487C75.762 176.668 75.762 176.849 75.7394 177.008C75.7394 177.112 75.7597 177.206 75.796 177.292Z" fill="#474961"/>
<path opacity="0.176986" d="M63.6814 122.1C63.7512 122.161 63.8138 122.234 63.8665 122.318L83.2625 152.676C83.357 152.827 83.4052 152.994 83.4107 153.161L94.6168 146.463L86.4396 131.414L81.7633 129.563C80.4857 129.268 79.2369 128.849 78.0289 128.324C75.131 127.015 74.4192 125.833 70.637 123.45C69.6207 122.805 68.5901 122.222 67.4827 121.688C66.8355 121.506 65.6011 121.237 64.5368 121.582C64.3594 121.64 64.206 121.735 64.0598 121.8C63.9168 121.89 63.7914 121.991 63.6814 122.1Z" fill="#444444"/>
<path d="M88.6357 139.059L85.399 129.129C84.8551 127.46 85.5874 125.641 87.136 124.815L94.0522 121.125C97.48 115.775 102.217 112.271 108.826 114.953C109.03 115.036 109.241 115.125 109.458 115.219L109.266 115.109C120.355 108.901 127.202 105.441 129.81 104.728C132.418 104.014 135.065 105.049 137.753 107.831L165.855 147.104C182.959 148.125 191.534 153.161 191.579 162.212C191.623 171.262 186.775 176.784 177.035 178.776C167.429 179.579 159.535 179.302 153.353 177.944C146.349 178.321 140.353 177.397 135.363 175.172C127.344 171.595 119.847 163.731 112.87 151.577L112.521 162.374H88.9058C87.6569 162.374 86.6445 161.362 86.6445 160.113C86.6445 160.063 86.6462 160.013 86.6495 159.962C87.2086 151.581 87.8706 144.613 88.6357 139.059Z" fill="#DE3190"/>
<path opacity="0.176986" d="M153.402 177.941C146.378 178.326 140.364 177.402 135.363 175.172C127.344 171.595 119.846 163.73 112.87 151.577L112.521 162.374H88.9057C87.6568 162.374 86.6444 161.362 86.6444 160.113C86.6444 160.063 86.6461 160.012 86.6494 159.962C87.8866 141.415 89.6281 129.79 91.8738 125.087C95.3862 117.73 100.686 111.649 108.826 114.953C109.114 115.07 109.416 115.199 109.731 115.339L124.906 124.073L126.607 131.61C130.604 153.437 135.704 167.116 141.909 172.646C144.656 175.095 148.487 176.86 153.402 177.941Z" fill="#444444"/>
<path d="M191.212 119.048C193.199 119.166 195.519 119.733 197.612 121.36C200.078 123.264 201.072 125.438 202.871 129.819C204.365 133.458 205.651 136.678 204.176 138.568C203.097 139.951 201.206 139.951 199.935 139.865C198.052 139.496 196.301 139.358 194.595 139.301L190.537 148.132C190.125 149.29 187.256 156.553 186.411 157.449C183.999 160.029 177.87 157.466 168.025 149.759C165.54 147.536 164.847 144.877 165.946 141.779C166.577 139.799 167.167 137.962 167.714 136.268C166.456 136.098 164.631 135.641 163.87 134.265C162.712 132.166 164.633 129.21 166.798 125.927C169.384 121.964 170.776 120.021 173.545 118.604C175.249 117.737 176.965 117.431 178.529 117.424C181.436 116.803 185.952 116.657 191.212 119.048Z" fill="#FFCB3D"/>
<path opacity="0.176986" d="M167.635 136.304C166.387 136.117 164.682 135.642 163.954 134.324C162.795 132.226 164.787 129.311 166.881 125.986C169.431 121.938 170.859 119.935 173.628 118.517C175.229 117.703 176.839 117.403 178.325 117.386C177.156 117.648 176.261 117.984 175.699 118.25C174.28 118.916 173.884 119.483 172.845 121.336C172.261 122.378 170.524 127.367 167.635 136.304Z" fill="#444444"/>
<path d="M153.555 124.676L153.554 124.702L169.307 124.916C169.962 124.923 170.509 124.382 170.516 123.727L170.549 121.872C170.556 121.216 170.015 120.669 169.359 120.662L153.639 120.465L153.639 120.449L151.952 121.558C151.216 122.029 151.196 123.068 151.915 123.541L153.555 124.676Z" fill="#474BFF"/>
<path d="M187.123 113.529C187.499 114.71 188.105 116.251 188.941 118.151C187.897 117.798 186.77 117.528 185.559 117.342C183.743 117.062 182.928 117.036 182.022 117.034L181.854 115.642C180.46 116.123 180.539 116.079 180.415 116.133C179.429 116.376 178.429 116.437 177.437 116.362C175.501 116.147 173.382 112.504 172.564 107.366C172.497 106.932 172.473 106.523 172.449 106.115L172.416 101.992C172.398 101.04 172.626 100.146 173.075 99.3541C173.249 99.0462 173.469 98.7407 173.689 98.4352C176.207 95.3291 180.551 95.8285 181.359 95.9614C181.45 95.9661 181.539 95.9934 181.652 95.9994C182.478 96.2238 183.288 96.3116 184.124 96.3554C184.508 96.3755 184.787 96.6619 184.767 97.0458L184.661 102.95C184.664 103.335 186.528 102.974 186.937 102.95C188.026 102.917 189.473 103.808 189.867 104.938C190.166 106.132 189.968 107.775 189.178 108.594C188.891 108.881 188.212 110.523 187.142 113.519C187.138 113.521 187.132 113.525 187.123 113.529ZM166.722 124.889L167.948 124.905C168.496 125.925 169.016 126.885 169.46 127.695C169.942 128.171 170.282 128.505 170.329 128.556C181.053 140.014 186.422 145.746 186.435 145.752C186.486 145.75 186.597 145.056 186.865 142.453C186.885 141.929 186.945 140.655 187.043 139.094C191.401 139.455 195.264 138.949 199.935 139.865C200.617 139.911 201.499 139.913 202.331 139.71C202.012 142.417 201.51 146.049 200.649 150.298C198.063 163.058 195.763 164.386 194.748 164.775C193.882 165.108 191.223 165.855 186.436 162.486C184.515 160.739 182.579 158.862 180.647 156.863C175.202 151.241 170.578 145.49 166.644 139.829C165.946 141.665 165.555 142.994 165.473 143.815C165.394 144.613 165.599 145.659 166.006 147.104C166.017 147.143 165.967 147.143 165.855 147.104L162.679 142.715C163.026 142.151 163.707 140.243 164.723 136.99C163.202 134.681 161.794 132.393 160.49 130.141L155.896 124.779C155.478 124.271 155.516 123.52 156.032 123.082L156.492 122.717C156.699 122.542 156.943 122.451 157.189 122.436L156.878 122.072C156.461 121.565 156.498 120.814 157.015 120.376L157.474 120.011C157.81 119.726 158.24 119.651 158.621 119.775C158.546 119.369 158.678 118.938 159.022 118.646L159.482 118.281C159.999 117.843 160.752 117.93 161.179 118.417L161.658 118.977C161.297 117.418 161.426 115.942 162.919 115.454C162.919 115.454 164.158 117.805 165.658 120.623L163.04 120.591L166.722 124.889Z" fill="#F2A98A"/>
<path d="M194.439 103.778C194.522 104.211 194.588 104.624 194.674 105.038C194.988 105.099 195.323 105.185 195.698 105.363C195.963 105.49 197.778 106.287 198.534 107.867C199.614 110.142 198.452 113.75 194.963 115.945C194.776 116.048 194.614 116.108 194.614 116.108C194.014 116.325 193.447 116.341 192.858 116.355C192.745 116.349 192.608 116.365 192.608 116.365C191.375 116.285 190.06 116.199 188.666 116.108C187.888 115.982 187.391 115.317 187.176 114.112C187.117 113.783 187.093 113.38 187.083 112.926C187.023 112.09 186.916 110.561 186.84 109.337C187.593 109.24 188.29 108.892 188.816 108.354C189.652 107.537 189.92 106.306 189.549 105.177C189.155 104.046 188.025 103.149 186.936 103.183C186.527 103.207 186.135 103.345 185.762 103.552C185.291 103.889 184.885 104.298 184.631 104.828L183.52 107.442L183.54 107.459C183.525 107.461 183.51 107.462 183.496 107.463C181.47 107.674 180.58 100.019 176.256 98.7057C175.253 98.404 174.165 98.5085 173.546 98.6572C175.407 95.0626 181.341 95.8258 181.453 95.8317C182.801 96.0382 184.055 96.3744 184.777 96.4123C188.341 96.6896 189.742 96.3102 191.501 97.3081C192.161 97.6824 192.769 98.1672 193.212 98.8017C194.399 100.461 194.524 102.432 194.439 103.778ZM175.339 105.231C175.116 105.174 175.064 104.877 175.23 104.727C175.465 104.558 175.836 104.396 176.286 104.443C177.255 104.539 178.216 105.223 177.142 105.393C176.502 105.518 175.785 105.367 175.339 105.231ZM171.505 104.939C171.283 104.86 171.253 104.564 171.463 104.439C171.72 104.294 172.067 104.154 172.56 104.247C173.503 104.41 174.413 105.182 173.299 105.282C172.616 105.337 171.95 105.098 171.505 104.939Z" fill="#482D1F"/>
<path d="M173.346 106.153C173.336 106.029 173.428 105.919 173.553 105.909C173.677 105.899 173.786 105.991 173.797 106.116L173.907 107.458L173.908 107.486L173.805 109.88C173.812 109.908 173.833 109.927 173.862 109.931C173.94 109.927 174.019 109.929 174.107 109.936C174.175 109.941 174.226 109.947 174.346 109.962C174.694 110.005 174.845 110.005 175.041 109.942C175.16 109.904 175.287 109.97 175.326 110.089C175.364 110.208 175.298 110.335 175.179 110.373C174.902 110.462 174.7 110.461 174.291 110.411C174.178 110.397 174.131 110.391 174.072 110.387C173.997 110.381 173.932 110.38 173.872 110.383L173.847 110.383C173.583 110.37 173.382 110.171 173.353 109.919L173.352 109.884L173.455 107.481L173.346 106.153Z" fill="#482D1F"/>
<path d="M175.568 111.982C175.726 111.962 176.135 111.879 176.23 111.632C176.23 111.586 176.277 111.519 176.255 111.474C176.189 111.359 175.488 111.347 175.488 111.347C174.561 111.354 174.335 111.304 174.266 111.416C174.242 111.484 174.24 111.574 174.395 111.78C174.569 112.168 175.318 112.023 175.568 111.982Z" fill="#482D1F"/>
<path d="M181.777 115.639L183.647 114.967L182.013 116.962L181.777 115.639Z" fill="#482D1F"/>
<path d="M173.004 107.871C172.71 108.309 171.996 107.229 172.194 106.493C172.255 106.179 172.463 106.099 172.623 106.085C172.871 106.098 173.132 106.293 173.14 106.587C173.187 106.975 173.222 107.611 173.004 107.871ZM176.676 107.985C176.359 108.422 175.668 107.344 175.865 106.607C175.927 106.293 176.135 106.213 176.294 106.199C176.542 106.212 176.804 106.407 176.811 106.702C176.859 107.089 176.916 107.726 176.676 107.985Z" fill="#482D1F"/>
<path d="M141.548 111.424C140.963 111.849 140.833 112.671 141.258 113.256L160.651 139.948C161.076 140.533 161.897 140.663 162.483 140.238C163.068 139.813 163.198 138.991 162.773 138.406L143.38 111.714C142.955 111.129 142.134 110.999 141.548 111.424Z" fill="#474961"/>
<path opacity="0.2" d="M164.75 137.074C163.729 140.344 163.045 142.262 162.697 142.828L165.873 147.217C165.985 147.256 166.035 147.256 166.024 147.217C165.617 145.772 165.412 144.727 165.491 143.929C165.574 143.098 165.972 141.749 166.686 139.881L164.75 137.074Z" fill="#8C2A00"/>
<path d="M186.734 133.688C186.72 133.709 186.691 133.752 186.651 133.814C186.584 133.92 186.511 134.04 186.435 134.173C186.142 134.684 185.892 135.223 185.73 135.746C185.3 137.142 185.579 138.042 186.844 138.37C187.025 138.417 187.134 138.602 187.087 138.783C187.04 138.965 186.855 139.074 186.674 139.027C184.959 138.582 184.551 137.266 185.082 135.547C185.26 134.969 185.53 134.387 185.846 133.836C185.928 133.693 186.007 133.563 186.08 133.449C186.124 133.38 186.157 133.33 186.176 133.302C186.282 133.148 186.494 133.109 186.648 133.216C186.802 133.322 186.841 133.533 186.734 133.688Z" fill="#482D1F"/>
<path d="M87.3984 21H167.675C170.173 21 172.198 23.0249 172.198 25.5226V88.1612C172.198 88.9106 171.59 89.518 170.841 89.518H84.2325C83.4832 89.518 82.8757 88.9106 82.8757 88.1612V25.5226C82.8757 23.0249 84.9006 21 87.3984 21Z" fill="white"/>
<path d="M164.583 36.0972H88.9684C88.4688 36.0972 88.0638 36.5022 88.0638 37.0017V55.1111C88.0638 55.6107 88.4688 56.0156 88.9684 56.0156H164.583C165.083 56.0156 165.488 55.6107 165.488 55.1111V37.0017C165.488 36.5022 165.083 36.0972 164.583 36.0972Z" fill="#4939FF"/>
<path d="M129.512 44.3438C130.025 44.3438 130.44 43.9246 130.44 43.4075C130.44 42.8903 130.025 42.4711 129.512 42.4711C129 42.4711 128.584 42.8903 128.584 43.4075C128.584 43.9246 129 44.3438 129.512 44.3438Z" fill="#F2F6FB"/>
<path d="M129.567 50.0137C129.567 50.0137 129.365 50.0137 129.113 50.0137H121.341C121.09 50.0137 120.994 49.8408 121.125 49.6304L124.916 43.5413C125.048 43.3297 125.268 43.3289 125.405 43.5372L128.708 48.5866" fill="#F2F6FB"/>
<path d="M126.799 50.0193C126.799 50.0193 126.905 49.8487 127.039 49.6337L129.181 46.1863C129.313 45.9734 129.535 45.9667 129.676 46.1722L131.99 49.5335C132.131 49.7387 132.045 49.9112 131.795 49.9189L129.877 49.9783" fill="#F2F6FB"/>
<path d="M88.5161 59.601H115.548C115.798 59.601 116 59.8035 116 60.0532V62.3357C116 62.5854 115.798 62.7879 115.548 62.7879H88.5161C88.2663 62.7879 88.0638 62.5854 88.0638 62.3357V60.0532C88.0638 59.8035 88.2663 59.601 88.5161 59.601ZM88.5161 64.7798H107.566C107.816 64.7798 108.019 64.9823 108.019 65.232V67.5145C108.019 67.7642 107.816 67.9667 107.566 67.9667H88.5161C88.2663 67.9667 88.0638 67.7642 88.0638 67.5145V65.232C88.0638 64.9823 88.2663 64.7798 88.5161 64.7798ZM88.5161 69.9586H111.557C111.807 69.9586 112.009 70.1611 112.009 70.4108V72.6933C112.009 72.943 111.807 73.1455 111.557 73.1455H88.5161C88.2663 73.1455 88.0638 72.943 88.0638 72.6933V70.4108C88.0638 70.1611 88.2663 69.9586 88.5161 69.9586ZM88.5161 75.1374H103.575C103.825 75.1374 104.028 75.3398 104.028 75.5896V77.872C104.028 78.1218 103.825 78.3243 103.575 78.3243H88.5161C88.2663 78.3243 88.0638 78.1218 88.0638 77.872V75.5896C88.0638 75.3398 88.2663 75.1374 88.5161 75.1374ZM124.435 64.7798H152.265C152.514 64.7798 152.717 64.9823 152.717 65.232V67.5145C152.717 67.7642 152.514 67.9667 152.265 67.9667H124.435C124.185 67.9667 123.982 67.7642 123.982 67.5145V65.232C123.982 64.9823 124.185 64.7798 124.435 64.7798ZM124.435 69.9586H155.857C156.106 69.9586 156.309 70.1611 156.309 70.4108V72.6933C156.309 72.943 156.106 73.1455 155.857 73.1455H124.435C124.185 73.1455 123.982 72.943 123.982 72.6933V70.4108C123.982 70.1611 124.185 69.9586 124.435 69.9586ZM124.435 75.1374H159.448C159.698 75.1374 159.901 75.3398 159.901 75.5896V77.872C159.901 78.1218 159.698 78.3243 159.448 78.3243H124.435C124.185 78.3243 123.982 78.1218 123.982 77.872V75.5896C123.982 75.3398 124.185 75.1374 124.435 75.1374ZM124.435 80.3162H148.673C148.923 80.3162 149.125 80.5186 149.125 80.7684V83.0508C149.125 83.3006 148.923 83.5031 148.673 83.5031H124.435C124.185 83.5031 123.982 83.3006 123.982 83.0508V80.7684C123.982 80.5186 124.185 80.3162 124.435 80.3162ZM124.435 59.601H159.448C159.698 59.601 159.901 59.8035 159.901 60.0532V62.3357C159.901 62.5854 159.698 62.7879 159.448 62.7879H124.435C124.185 62.7879 123.982 62.5854 123.982 62.3357V60.0532C123.982 59.8035 124.185 59.601 124.435 59.601Z" fill="#E1E5F0"/>
<path d="M82.8759 24.8751C82.8759 22.7349 84.6101 21 86.7498 21H168.324C170.464 21 172.198 22.7345 172.198 24.8751V28.7501H82.8759V24.8751Z" fill="#313131"/>
<path d="M88.073 26.6365C88.9973 26.6365 89.7467 25.8873 89.7467 24.9632C89.7467 24.039 88.9973 23.2898 88.073 23.2898C87.1486 23.2898 86.3993 24.039 86.3993 24.9632C86.3993 25.8873 87.1486 26.6365 88.073 26.6365Z" fill="#FF5645"/>
<path d="M93.5345 26.6365C94.4589 26.6365 95.2082 25.8873 95.2082 24.9632C95.2082 24.039 94.4589 23.2898 93.5345 23.2898C92.6102 23.2898 91.8608 24.039 91.8608 24.9632C91.8608 25.8873 92.6102 26.6365 93.5345 26.6365Z" fill="#FFCB3D"/>
<path d="M99.1723 26.6365C100.097 26.6365 100.846 25.8873 100.846 24.9632C100.846 24.039 100.097 23.2898 99.1723 23.2898C98.248 23.2898 97.4987 24.039 97.4987 24.9632C97.4987 25.8873 98.248 26.6365 99.1723 26.6365Z" fill="#3ABF7C"/>
</svg>
