<svg width="284" height="226" viewBox="0 0 284 226" fill="none" xmlns="http://www.w3.org/2000/svg">
<path d="M166.348 36H88.0679C86.155 36 84.6044 37.5529 84.6044 39.4685V96.6984C84.6044 98.6139 86.155 100.167 88.0679 100.167H166.348C168.261 100.167 169.811 98.6139 169.811 96.6984V39.4685C169.811 37.5529 168.261 36 166.348 36Z" fill="white"/>
<path d="M84.6044 39.4695C84.6044 37.5534 86.1545 36 88.0669 36H166.517C168.429 36 169.98 37.5526 169.98 39.4695V43.2579H84.6044V39.4695Z" fill="#202020"/>
<path d="M89.572 41.2785C90.4555 41.2785 91.1718 40.5769 91.1718 39.7115C91.1718 38.846 90.4555 38.1444 89.572 38.1444C88.6885 38.1444 87.9723 38.846 87.9723 39.7115C87.9723 40.5769 88.6885 41.2785 89.572 41.2785Z" fill="#FF5645"/>
<path d="M94.7922 41.2785C95.6757 41.2785 96.392 40.5769 96.392 39.7115C96.392 38.846 95.6757 38.1444 94.7922 38.1444C93.9087 38.1444 93.1925 38.846 93.1925 39.7115C93.1925 40.5769 93.9087 41.2785 94.7922 41.2785Z" fill="#FFCB3D"/>
<path d="M100.181 41.2785C101.064 41.2785 101.781 40.5769 101.781 39.7115C101.781 38.846 101.064 38.1444 100.181 38.1444C99.2973 38.1444 98.5811 38.846 98.5811 39.7115C98.5811 40.5769 99.2973 41.2785 100.181 41.2785Z" fill="white"/>
<path d="M88.8238 48.1566H91.2295C91.4208 48.1566 91.5758 48.3118 91.5758 48.5034V49.3293C91.5758 49.5208 91.4208 49.6761 91.2295 49.6761H88.8238C88.6325 49.6761 88.4774 49.5208 88.4774 49.3293V48.5034C88.4774 48.3118 88.6325 48.1566 88.8238 48.1566ZM154.665 48.1566H165.592C165.783 48.1566 165.938 48.3118 165.938 48.5034V49.3293C165.938 49.5208 165.783 49.6761 165.592 49.6761H154.665C154.474 49.6761 154.319 49.5208 154.319 49.3293V48.5034C154.319 48.3118 154.474 48.1566 154.665 48.1566ZM133.751 48.1566H144.677C144.869 48.1566 145.024 48.3118 145.024 48.5034V49.3293C145.024 49.5208 144.869 49.6761 144.677 49.6761H133.751C133.56 49.6761 133.405 49.5208 133.405 49.3293V48.5034C133.405 48.3118 133.56 48.1566 133.751 48.1566ZM146.919 48.1566H152.424C152.615 48.1566 152.77 48.3118 152.77 48.5034V49.3293C152.77 49.5208 152.615 49.6761 152.424 49.6761H146.919C146.728 49.6761 146.573 49.5208 146.573 49.3293V48.5034C146.573 48.3118 146.728 48.1566 146.919 48.1566Z" fill="#D8DEED"/>
<path d="M92.6968 59.1735H115.242C115.434 59.1735 115.589 59.3288 115.589 59.5203V61.8658C115.589 62.0573 115.434 62.2126 115.242 62.2126H92.6968C92.5055 62.2126 92.3505 62.0573 92.3505 61.8658V59.5203C92.3505 59.3288 92.5055 59.1735 92.6968 59.1735ZM92.6968 64.1121H111.369C111.561 64.1121 111.716 64.2673 111.716 64.4589V66.8044C111.716 66.9959 111.561 67.1512 111.369 67.1512H92.6968C92.5055 67.1512 92.3505 66.9959 92.3505 66.8044V64.4589C92.3505 64.2673 92.5055 64.1121 92.6968 64.1121ZM92.6968 73.9893H103.623C103.815 73.9893 103.97 74.1445 103.97 74.3361V76.6815C103.97 76.8731 103.815 77.0284 103.623 77.0284H92.6968C92.5055 77.0284 92.3505 76.8731 92.3505 76.6815V74.3361C92.3505 74.1445 92.5055 73.9893 92.6968 73.9893ZM92.6968 69.0507H115.242C115.434 69.0507 115.589 69.2059 115.589 69.3975V71.7429C115.589 71.9345 115.434 72.0898 115.242 72.0898H92.6968C92.5055 72.0898 92.3505 71.9345 92.3505 71.7429V69.3975C92.3505 69.2059 92.5055 69.0507 92.6968 69.0507Z" fill="#E1E5F0"/>
<path d="M116.484 83.4865H137.157C138.182 83.4865 138.624 83.6073 139.047 83.834C139.471 84.0607 139.803 84.3934 140.029 84.8173C140.256 85.2413 140.376 85.684 140.376 86.7104V87.8606C140.376 88.887 140.256 89.3297 140.029 89.7536C139.803 90.1775 139.471 90.5102 139.047 90.737C138.624 90.9637 138.182 91.0844 137.157 91.0844H116.484C115.459 91.0844 115.017 90.9637 114.594 90.737C114.17 90.5102 113.838 90.1775 113.612 89.7536C113.385 89.3297 113.265 88.887 113.265 87.8606V86.7104C113.265 85.684 113.385 85.2413 113.612 84.8173C113.838 84.3934 114.17 84.0607 114.594 83.834C115.017 83.6073 115.459 83.4865 116.484 83.4865Z" fill="white"/>
<path d="M155.329 66.6101V70.5988C155.329 71.7716 154.593 72.8177 153.49 73.212C150.904 74.1367 148.317 74.599 145.731 74.599C143.145 74.599 140.558 74.1367 137.972 73.212C136.869 72.8177 136.133 71.7716 136.133 70.5988V66.8548L128.411 64.1255C128.107 64.0178 127.869 63.7743 127.769 63.4666C127.591 62.9202 127.89 62.333 128.435 62.155L143.87 57.1191C145.191 56.6882 146.618 56.7113 147.924 57.1848L161.663 62.1654C161.944 62.2673 162.167 62.4854 162.276 62.7639C162.486 63.2989 162.223 63.9027 161.688 64.1126L155.329 66.6101Z" fill="#474BFF"/>
<path opacity="0.176986" d="M155.329 66.6101V70.5988C155.329 71.7716 154.593 72.8178 153.49 73.2121C150.904 74.1367 148.317 74.5991 145.731 74.5991C143.145 74.5991 140.558 74.1367 137.972 73.2121C136.869 72.8178 136.133 71.7716 136.133 70.5988V66.8548L143.719 69.5363C145.131 70.0356 146.676 70.0089 148.07 69.4613L155.329 66.6101Z" fill="#444444"/>
<path d="M158.108 70.2211V65.7548L145.637 62.9595C145.411 62.9087 145.269 62.6875 145.321 62.4655C145.373 62.2435 145.598 62.1047 145.825 62.1555L158.623 65.0241C158.814 65.067 158.95 65.2338 158.95 65.4261V70.2211C159.393 70.3871 159.708 70.8076 159.708 71.3C159.708 71.7244 159.474 72.0953 159.126 72.296C159.156 72.3498 159.179 72.3974 159.195 72.4388C159.929 74.3956 160.862 76.4705 158.731 76.5766C157.507 76.6375 157.309 75.2418 158.137 72.3894C157.679 72.2313 157.35 71.8032 157.35 71.3C157.35 70.8076 157.665 70.3871 158.108 70.2211Z" fill="#474961"/>
<path d="M176.387 38.774C176.387 37.8166 177.163 37.0405 178.119 37.0405H193.635L199.939 43.3443V63.2277C199.939 64.1854 199.162 64.9618 198.207 64.9618H178.119C177.163 64.9618 176.387 64.1859 176.387 63.2284V38.774Z" fill="white"/>
<path d="M192.727 52.4708L184.875 56.4271C184.815 56.4572 184.743 56.4331 184.712 56.3732C184.704 56.3562 184.7 56.3376 184.7 56.3186V48.406C184.7 48.339 184.754 48.2846 184.821 48.2846C184.84 48.2846 184.858 48.289 184.875 48.2976L192.727 52.2539C192.787 52.284 192.811 52.357 192.781 52.4169C192.77 52.4401 192.751 52.459 192.727 52.4708Z" fill="#D8DEED"/>
<path d="M193.635 37.0405L199.939 43.3443L194.025 44.4113C193.083 44.5812 192.45 43.9546 192.612 43.01L193.635 37.0405Z" fill="#D8DEED"/>
<path d="M176.387 73.1119C176.387 72.1545 177.163 71.3785 178.119 71.3785H193.635L199.939 77.6822V97.5656C199.939 98.5233 199.162 99.2997 198.207 99.2997H178.119C177.163 99.2997 176.387 98.5238 176.387 97.5663V73.1119Z" fill="white"/>
<path d="M193.635 71.3785L199.939 77.6822L194.025 78.7492C193.083 78.9191 192.45 78.2925 192.612 77.348L193.635 71.3785Z" fill="#D8DEED"/>
<path d="M181.756 90.5427V83.18C181.756 83.0304 181.82 82.8881 181.932 82.7894C182.816 82.0108 183.895 81.6844 185.169 81.8101C186.53 81.9443 187.432 82.6357 187.875 83.8842V91.9324C187.875 92.0282 187.798 92.1059 187.702 92.1059C187.648 92.1059 187.597 92.0806 187.564 92.0376C186.953 91.2341 186.26 90.7315 185.486 90.5298C184.72 90.3305 183.718 90.4944 182.478 91.0216C182.214 91.1339 181.909 91.0105 181.797 90.746C181.77 90.6817 181.756 90.6125 181.756 90.5427ZM194.645 90.5427C194.645 90.6125 194.631 90.6817 194.603 90.746C194.491 91.0105 194.186 91.1339 193.922 91.0216C192.682 90.4944 191.68 90.3305 190.915 90.5298C190.14 90.7315 189.447 91.2341 188.836 92.0376C188.803 92.0806 188.752 92.1059 188.698 92.1059C188.603 92.1059 188.525 92.0282 188.525 91.9324V83.8842C188.968 82.6357 189.87 81.9443 191.231 81.8101C192.505 81.6844 193.585 82.0108 194.468 82.7894C194.58 82.8881 194.645 83.0304 194.645 83.18V90.5427Z" fill="#D8DEED"/>
<path d="M79.7572 158.784H204.859L213.734 121.879C215.379 115.041 221.983 110.606 228.924 111.679C229.238 111.728 229.549 111.789 229.857 111.864C235.996 113.344 239.774 119.528 238.296 125.676L228.298 167.248C226.654 174.086 220.049 178.52 213.108 177.447C212.795 177.399 212.483 177.337 212.175 177.263C208.439 176.362 205.578 173.72 204.243 170.404H80.3727C79.0379 173.72 76.1766 176.362 72.441 177.263C72.1328 177.337 71.8215 177.399 71.5082 177.447C64.5666 178.52 57.9625 174.086 56.3179 167.248L46.3204 125.676C44.842 119.528 48.62 113.344 54.7589 111.864C55.0672 111.789 55.3784 111.728 55.6917 111.679C62.6333 110.606 69.2374 115.041 70.882 121.879L79.7572 158.784Z" fill="#E1E5F0"/>
<mask id="mask0_113_1414" style="mask-type:alpha" maskUnits="userSpaceOnUse" x="72" y="111" width="141" height="48">
<path d="M89.4533 111.613H195.09C204.654 111.613 212.408 119.377 212.408 128.955V158.784H72.1357V128.955C72.1357 119.377 79.8891 111.613 89.4533 111.613Z" fill="white"/>
</mask>
<g mask="url(#mask0_113_1414)">
<path d="M89.4533 111.613H195.09C204.654 111.613 212.408 119.377 212.408 128.955V158.784H72.1357V128.955C72.1357 119.377 79.8891 111.613 89.4533 111.613Z" fill="#F2F6FB"/>
</g>
<path d="M67.8927 179.942L63.1178 188.224C62.3766 189.51 60.7349 189.95 59.4511 189.208C58.1672 188.466 57.7274 186.822 58.4686 185.536L62.2767 178.931C61.1628 178.058 60.4468 176.699 60.4468 175.173C60.4468 172.539 62.579 170.404 65.2091 170.404H218.989C221.619 170.404 223.751 172.539 223.751 175.173C223.751 176.605 223.12 177.89 222.121 178.765L226.025 185.536C226.766 186.822 226.327 188.466 225.043 189.208C223.759 189.95 222.117 189.51 221.376 188.224L216.601 179.942H67.8927Z" fill="#D8DEED"/>
<path d="M139.739 188.991C139.811 188.969 139.888 188.956 139.967 188.956H149.578C150.011 188.956 150.375 189.321 150.375 189.754C150.375 190.188 150.011 190.552 149.578 190.552H141.319H113.611C113.181 190.552 112.832 190.203 112.832 189.772C112.832 189.341 113.181 188.991 113.611 188.991H139.739Z" fill="#FFCB3D"/>
<path d="M141.311 188.991H139.967C139.888 188.991 139.811 189.003 139.739 189.026H113.611C113.485 189.026 113.367 189.056 113.261 189.109L113.005 177.883L125.969 178.068L128.426 171.129L139.82 174.587C140.389 176.524 140.976 178.461 141.562 180.415C141.872 181.435 142.183 182.438 142.493 183.441C143.458 183.822 144.286 184.168 144.872 184.427C145.993 184.911 146.941 185.361 147.976 186.035C147.976 186.035 148.872 186.589 149.373 187.384C149.528 187.644 149.666 187.938 149.752 188.249C149.786 188.387 149.786 188.526 149.804 188.647C149.798 188.76 149.773 188.887 149.74 189.008C149.688 188.997 149.634 188.991 149.578 188.991H141.314C141.321 188.966 141.325 188.941 141.324 188.916C141.324 188.941 141.319 188.966 141.311 188.991Z" fill="#474961"/>
<path opacity="0.176986" d="M141.341 188.991C141.353 188.952 141.355 188.911 141.347 188.87C141.329 188.731 141.329 188.592 141.295 188.471C141.087 187.638 140.429 186.945 140.048 186.581C139.268 186.078 138.489 185.627 137.641 185.228C134.575 183.702 133.692 183.719 131.683 182.349C130.852 181.777 130.09 181.135 129.38 180.407L126.401 178.083L125.993 178.077L128.453 171.129L139.848 174.587C140.417 176.524 141.003 178.461 141.589 180.415C141.899 181.435 142.21 182.438 142.52 183.441C143.486 183.822 144.313 184.168 144.9 184.427C146.02 184.911 146.969 185.361 148.003 186.035C148.003 186.035 148.9 186.589 149.4 187.384C149.555 187.644 149.693 187.938 149.779 188.249C149.814 188.387 149.814 188.526 149.831 188.647C149.825 188.762 149.799 188.891 149.766 189.014C149.705 188.999 149.643 188.991 149.578 188.991H141.341Z" fill="#444444"/>
<path d="M129.886 166.376C129.948 167.856 130.031 169.087 130.151 169.99C130.171 170.216 130.16 171.878 129.85 172.468C128.887 174.275 123.548 173.744 118.792 173.877C114.037 174.009 111.416 174.475 110 173.378C109.225 172.781 109.11 171.708 109.064 171.334C108.852 169.427 108.605 167.496 108.344 165.555C102.417 167.91 98.6895 169.306 97.1613 169.745C95.6492 170.179 93.9736 170.296 92.4497 170.367C79.4641 175.09 72.4727 167.469 71.7363 165.659C68.9236 158.744 69.7953 153.054 72.1825 149.017C73.722 146.413 85.5268 140.11 107.597 130.106C108.092 129.882 109.179 129.329 110.858 128.447C112.817 127.397 115.4 126.811 118.605 126.688C119.346 126.659 120.087 126.713 120.815 126.848C125.442 127.704 127.934 129.355 128.292 131.801C128.297 131.83 128.3 131.845 128.305 131.875C128.463 132.926 128.601 134.034 128.723 135.184C129.53 135.014 130.295 134.834 131.018 134.646C131.02 134.644 131.022 134.642 131.025 134.641C132.928 133.326 139.961 132.242 143.397 133.737C147.646 135.586 150.141 140.045 149.497 144.639H149.497C148.578 151.198 148.051 154.754 147.919 155.306C147.721 156.152 145.318 165.722 144.441 169.234C144.248 170.031 143.404 170.636 142.321 170.745C141.128 170.872 133.845 168.02 129.886 166.376Z" fill="#A339FF"/>
<path opacity="0.176986" d="M129.952 166.403C129.662 158.877 129.871 145.304 128.795 135.193C129.59 135.024 130.343 134.847 131.057 134.661C131.059 134.659 131.061 134.658 131.064 134.656C132.967 133.342 140 132.257 143.436 133.753C147.685 135.601 150.18 140.061 149.536 144.655C148.616 151.214 148.09 154.769 147.958 155.321C147.76 156.167 145.357 165.737 144.48 169.249C144.287 170.047 143.443 170.651 142.36 170.76C141.17 170.888 133.918 168.049 129.952 166.403ZM108.414 165.558C102.469 167.92 98.731 169.321 97.2002 169.76C95.7578 170.174 94.1668 170.3 92.7006 170.372C92.9507 170.279 93.203 170.182 93.4575 170.08C98.9929 167.862 103.723 164.492 107.648 159.969C107.903 161.832 108.165 163.699 108.414 165.558Z" fill="#444444"/>
<path d="M90.747 138.047C81.299 142.694 75.4391 146.035 73.1675 148.068L72.4824 148.41C69.0257 143.806 67.6274 137.572 68.2874 129.707C66.6363 129.303 65.2203 128.889 64.5734 128.585C63.2796 127.979 62.9293 126.651 63.5226 124.603C64.0195 122.635 65.0249 120.353 66.5387 117.758C68.3379 114.672 70.8761 114.583 72.5143 114.788C73.9451 113.721 80.9195 113.6 82.228 113.866C84.2865 114.299 87.3391 114.906 89.0118 117.393C89.5488 118.168 89.7985 118.921 89.9285 119.46C89.9285 119.46 90.1783 120.213 90.3557 121.034C90.7634 122.911 91.5717 129.481 90.747 138.047Z" fill="#FFCB3D"/>
<path d="M111.182 113.344L93.9372 128.894C93.5463 129.246 93.5147 129.849 93.8667 130.241C94.2187 130.632 94.8209 130.664 95.2118 130.311L112.457 114.762C112.848 114.409 112.879 113.806 112.527 113.415C112.175 113.023 111.573 112.991 111.182 113.344Z" fill="#474961"/>
<path d="M105.153 118.511L94.8599 111.857C94.2203 111.444 93.3861 111.497 92.8042 111.989L82.7264 120.501C81.9953 121.119 81.9026 122.213 82.5192 122.945C82.6225 123.068 82.7423 123.175 82.8752 123.265L94.4144 131.053L105.367 121.262C106.081 120.624 106.143 119.528 105.506 118.813C105.403 118.697 105.284 118.596 105.153 118.511Z" fill="#474BFF"/>
<path d="M76.732 107.531C76.2141 106.859 75.7501 106.228 75.5037 105.708C75.1384 104.951 75.3287 102.745 76.0194 101.865C76.7102 100.984 82.1875 96.9134 82.2566 96.9086C82.8403 96.8156 86.129 96.4288 87.9935 98.7669C88.1635 98.9636 88.3174 99.1788 88.4577 99.4471C88.7615 100.069 88.9308 100.753 88.9273 101.448L88.9004 104.545C88.8876 104.858 88.8575 105.173 88.809 105.472C88.4602 107.687 87.7727 109.526 86.9874 110.711C86.4074 111.604 85.7502 112.136 85.1468 112.196C84.9753 112.225 84.0412 112.273 82.9299 112.021C82.8574 112.002 82.8765 112.018 82.4244 111.857L82.5168 113.898C84.0161 114.212 85.9572 114.645 87.5188 115.785C85.2895 116.973 82.8207 117.507 80.1123 117.388C78.9474 117.337 77.7191 117.181 76.4274 116.919C75.4687 115.783 74.3006 115.113 73.6485 115.005C73.3513 114.956 72.9484 114.874 72.4765 114.82C72.4847 114.813 72.4929 114.806 72.5012 114.799C73.0709 114.329 74.7084 114.038 76.4958 113.879L76.6072 107.492L76.732 107.531ZM91.3395 132.385C91.3797 132.385 91.4198 132.383 91.4597 132.378C91.4211 132.38 91.3824 132.38 91.3438 132.378C91.3424 132.38 91.341 132.383 91.3395 132.385ZM93.6561 130.49L94.3906 130.979L95.0728 130.371C95.0953 130.354 95.1171 130.336 95.1383 130.317L95.5462 129.95L105.289 121.268C105.425 121.147 105.537 121.01 105.625 120.861L108.571 118.205C109.905 117.544 110.941 117.284 111.286 117.77C111.286 117.77 106.121 123.379 103.393 126.323C102.68 128.197 101.622 130.592 100.22 133.511C96.7276 135.146 93.5605 136.663 90.7185 138.061C90.9015 136.233 91.0091 134.495 91.0612 132.872C87.6683 138.692 82.4239 143.611 75.3278 147.627C66.2531 152.764 64.7739 135.251 64.5385 128.49C64.5718 128.507 64.6059 128.523 64.6406 128.539C66.5017 129.373 75.132 131.296 76.7311 131.036C76.7771 131.03 76.8215 131.02 76.8642 131.004L76.5924 135.205L86.6608 128.044C86.6629 128.041 86.6649 128.038 86.667 128.036L91.678 121.613C92.0608 121.122 92.7682 121.035 93.2581 121.418C93.4116 121.538 93.5255 121.69 93.5978 121.858L93.7428 121.642C94.0904 121.126 94.79 120.99 95.3054 121.338C95.6452 121.568 95.8201 121.951 95.8002 122.333C96.0705 122.307 96.3508 122.378 96.5847 122.555L96.5878 122.557C97.0629 122.915 97.1579 123.592 96.7998 124.068C96.7903 124.08 96.7805 124.093 96.7705 124.105L96.6968 124.194C97.051 124.11 97.4393 124.199 97.7256 124.467C98.1802 124.891 98.2051 125.604 97.7811 126.06L93.6561 130.49ZM130.489 166.553C133.529 167.804 138.084 169.59 140.644 170.348L139.821 174.587L130.085 171.632C130.16 171.116 130.157 170.594 130.145 170.453C130.035 169.63 129.958 168.528 129.901 167.208C129.892 166.948 129.882 166.677 129.87 166.395L130.489 166.553ZM113.01 174.081C114.438 174.102 116.314 173.946 118.792 173.877C120.562 173.827 122.412 173.87 124.087 173.85L126.119 177.645L125.969 178.068L113.021 177.883L113.01 174.081Z" fill="#F2A98A"/>
<path opacity="0.2" d="M91.0122 132.744C91.0813 132.624 91.1496 132.504 91.2171 132.384C91.5391 132.402 91.8664 132.281 92.1035 132.027L93.561 130.462L94.3376 130.979L95.0198 130.371C95.0423 130.354 95.0641 130.336 95.0853 130.317L95.4932 129.95L105.236 121.268C105.372 121.147 105.484 121.01 105.572 120.861L108.518 118.205C109.852 117.544 110.888 117.284 111.233 117.77C111.233 117.77 106.073 123.374 103.344 126.319C102.631 128.202 101.576 130.618 100.199 133.496C96.6939 135.137 93.5161 136.658 90.6655 138.061C90.8533 136.185 90.9617 134.403 91.0122 132.744Z" fill="#8C2A00"/>
<path d="M82.4248 111.863L80.0157 111.047L82.5064 113.893L82.4248 111.863Z" fill="#482D1F"/>
<path d="M85.1733 96.9895C86.1409 97.2375 87.1577 97.7384 87.93 98.707C88.1 98.9037 88.2539 99.1189 88.3942 99.3872C88.5281 99.6615 88.6359 99.9477 88.7143 100.242L79.942 103.305L81.0671 97.3876C82.7453 97.1427 84.1141 97.0101 85.1733 96.9895Z" fill="#482D1F"/>
<path d="M85.8521 97.3619C82.7805 100.374 80.8244 102.342 79.984 103.266C79.953 103.311 79.9219 103.357 79.8905 103.405C79.8534 103.248 79.7091 102.737 79.3132 102.243C79.2762 102.211 78.956 101.851 78.4935 101.692C77.6598 101.438 76.6141 101.876 76.0787 102.661C75.51 103.466 75.5812 104.486 75.9638 105.242C76.3464 105.997 77.011 106.316 77.2428 106.404L78.1753 106.582L78.2695 106.539C77.5839 107.992 76.959 109.299 76.559 109.394C75.8317 109.566 74.7102 108.01 73.9183 107.257C73.4151 106.778 72.2062 105.212 71.8446 103.03C71.7371 102.308 71.3379 99.8599 72.8393 97.9315C73.3632 97.2614 73.9855 96.9107 74.2412 96.7585C75.1114 96.2941 78.4521 96.0286 81.0188 95.888C80.5299 95.1294 80.2326 93.5574 80.127 91.1719C80.1235 91.0934 80.1467 91.0161 80.1929 90.9526C80.3053 90.7976 80.5219 90.7633 80.6767 90.876C82.8031 92.4241 84.1564 93.5488 84.7366 94.2501C85.1625 93.5712 86.4055 92.7803 88.4655 91.8775C88.5379 91.8458 88.6189 91.8398 88.6952 91.8606C88.8798 91.9108 88.9887 92.1014 88.9386 92.2862C88.0842 95.4341 87.4341 97.0878 86.9884 97.2474C86.7434 97.335 86.3646 97.3732 85.8521 97.3619Z" fill="#DE3190"/>
<path d="M88.0592 105.149C88.0965 104.938 88.2929 104.767 88.5027 104.787C88.6421 104.795 88.753 104.892 88.8217 105.13C88.9158 105.732 88.3125 106.539 88.0971 106.189C87.9432 105.974 88.0118 105.465 88.0592 105.149ZM84.258 104.939C84.2953 104.728 84.4917 104.558 84.7015 104.578C84.8409 104.585 84.9518 104.682 85.0205 104.921C85.1146 105.522 84.5113 106.33 84.2959 105.98C84.142 105.764 84.2106 105.255 84.258 104.939Z" fill="#482D1F"/>
<path d="M86.7707 105.374L86.9088 107.102C86.9092 107.109 86.8847 107.137 86.8765 107.138C86.782 107.144 86.685 107.145 86.5332 107.141C86.5037 107.14 86.4729 107.139 86.4285 107.138C86.3726 107.136 86.3419 107.135 86.3126 107.134C86.2122 107.131 86.129 107.129 86.0402 107.127C85.9445 107.126 85.8657 107.202 85.8641 107.298C85.8625 107.393 85.9387 107.472 86.0343 107.474C86.1214 107.476 86.203 107.478 86.302 107.481C86.3311 107.481 86.3615 107.482 86.4176 107.484C86.4625 107.486 86.4938 107.487 86.524 107.487C86.6859 107.492 86.7928 107.491 86.9006 107.484C87.0997 107.47 87.2681 107.276 87.2541 107.076L87.1159 105.346C87.1083 105.25 87.0248 105.179 86.9295 105.187C86.8342 105.194 86.763 105.278 86.7707 105.374Z" fill="#482D1F"/>
<path d="M85.7715 108.467C85.6469 108.423 85.3436 108.305 85.3142 108.134C85.3118 108.099 85.2909 108.048 85.3243 108.029C85.4046 107.936 85.6179 108.008 85.9349 108.073C86.4974 108.172 86.949 108.176 86.949 108.176C86.949 108.176 86.7956 108.464 86.6968 108.541C86.5039 108.763 85.9503 108.541 85.7715 108.467Z" fill="#482D1F"/>
<path d="M81.573 104.472L80.5389 104.232C80.3991 104.2 80.3121 104.06 80.3445 103.92C80.3769 103.78 80.5164 103.693 80.6562 103.725L81.7681 103.983C82.1526 103.257 82.8914 102.74 83.7704 102.679C85.1252 102.584 86.3003 103.607 86.395 104.963C86.3973 104.996 86.3989 105.028 86.3999 105.06L86.9264 105.088C87.0848 103.961 88.0113 103.06 89.1902 102.977C90.545 102.882 91.7201 103.905 91.8148 105.262C91.9095 106.619 90.888 107.795 89.5332 107.89C88.1793 107.985 87.0048 106.964 86.9088 105.608L86.3613 105.579C86.1644 106.66 85.2578 107.512 84.1135 107.592C82.7587 107.687 81.5836 106.664 81.4888 105.307C81.4686 105.018 81.4992 104.736 81.573 104.472ZM82.1305 104.44C82.032 104.696 81.9867 104.978 82.0071 105.271C82.0818 106.341 83.0086 107.148 84.0772 107.073C85.1458 106.998 85.9515 106.07 85.8768 105C85.8021 103.93 84.8752 103.123 83.8066 103.198C83.0729 103.249 82.4632 103.703 82.1772 104.328C82.1763 104.334 82.1753 104.339 82.174 104.345C82.1658 104.38 82.1507 104.412 82.1305 104.44ZM87.4221 105.421C87.4218 105.47 87.4234 105.52 87.4268 105.569C87.5016 106.639 88.4284 107.446 89.497 107.371C90.5656 107.297 91.3713 106.368 91.2965 105.298C91.2218 104.228 90.295 103.421 89.2264 103.496C88.2426 103.565 87.4817 104.357 87.4254 105.317C87.4285 105.336 87.4297 105.355 87.4287 105.375C87.4279 105.391 87.4256 105.406 87.4221 105.421Z" fill="#482D1F"/>
<path d="M107.808 160.089L106.316 145.608C106.301 145.466 106.173 145.362 106.031 145.376C105.888 145.391 105.784 145.519 105.799 145.662L107.292 160.143C107.306 160.286 107.434 160.39 107.577 160.375C107.719 160.36 107.823 160.232 107.808 160.089Z" fill="#482D1F"/>
<path d="M77.9139 126.919C77.9139 126.919 78.0686 129.846 76.9087 130.922" stroke="#482D1F" stroke-width="3" stroke-linecap="round" stroke-linejoin="round"/>
</svg>
