<svg width="284" height="226" viewBox="0 0 284 226" fill="none" xmlns="http://www.w3.org/2000/svg">
<path d="M227.3 154.667V140.527C227.3 131.953 227.3 123.398 227.3 114.843V101.726C227.3 101.254 219.139 100.861 209.325 100.861H207.28C197.486 100.861 189.305 101.254 189.305 101.726V154.706C189.305 155.178 197.467 155.571 207.28 155.571H209.325C219.119 155.591 227.3 155.178 227.3 154.667Z" fill="#D8DEED"/>
<path d="M169.266 202.888L169.344 202.927C169.757 203.144 170.288 203.026 170.485 202.652L193.514 160.35C193.73 159.957 193.553 159.465 193.14 159.249L193.062 159.21C192.649 158.993 192.118 159.111 191.921 159.485L186.218 169.947C182.501 176.791 178.784 183.615 175.048 190.459L168.892 201.747C168.676 202.141 168.853 202.652 169.266 202.888Z" fill="#D8DEED"/>
<path d="M226.435 158.521H212.02C203.288 158.521 194.556 158.521 185.844 158.521H172.471C171.999 158.521 171.586 158.915 171.586 159.387V159.485C171.586 159.957 171.98 160.35 172.471 160.35H226.474C226.946 160.35 227.359 159.957 227.359 159.485V159.387C227.359 158.915 226.946 158.521 226.435 158.521Z" fill="#D8DEED"/>
<path d="M233.475 201.747L227.32 190.459C223.603 183.615 219.886 176.791 216.149 169.947L210.446 159.485C210.249 159.111 209.718 158.974 209.306 159.21L209.227 159.249C208.814 159.465 208.637 159.977 208.853 160.35L231.882 202.652C232.079 203.025 232.61 203.163 233.023 202.927L233.101 202.888C233.514 202.652 233.691 202.14 233.475 201.747Z" fill="#D8DEED"/>
<path d="M212.251 201.157H192.452C192.316 201.157 192.187 201.183 192.072 201.23L193.822 190.882L207.752 189.161L212.251 201.157ZM187.422 201.202C187.334 201.173 187.24 201.157 187.142 201.157H155.893C155.793 201.157 155.696 201.174 155.607 201.204C155.548 201.107 155.504 200.999 155.48 200.882V200.862C155.48 200.764 155.46 200.666 155.48 200.567C155.5 200.449 155.5 200.351 155.539 200.233C155.795 199.348 156.483 198.601 156.935 198.188C156.994 198.129 157.034 198.109 157.093 198.07C157.958 197.539 158.843 197.047 159.767 196.634C161.576 195.808 165.588 194.117 166.788 193.507C168.341 192.72 170.485 191.383 172.727 188.984C172.845 188.925 173.002 188.846 173.002 188.846L186.769 188.512C186.769 188.512 186.828 188.709 186.828 188.728L187.516 200.784C187.516 200.934 187.482 201.075 187.422 201.202Z" fill="#474961"/>
<path d="M155.893 201.157H187.162C187.651 201.157 188.047 201.553 188.047 202.042C188.047 202.531 187.651 202.927 187.162 202.927H155.893C155.404 202.927 155.008 202.531 155.008 202.042C155.008 201.553 155.404 201.157 155.893 201.157ZM192.472 201.157H212.138C212.626 201.157 213.023 201.553 213.023 202.042C213.023 202.531 212.626 202.927 212.138 202.927H192.472C191.983 202.927 191.587 202.531 191.587 202.042C191.587 201.553 191.983 201.157 192.472 201.157Z" fill="#DE3190"/>
<path d="M211.057 156.333C211.056 156.625 211.056 156.92 211.056 157.218C211.056 167.24 210.702 181.587 210.584 186.351C210.565 186.974 210.643 188.677 209.463 189.759C208.991 190.18 208.48 190.363 208.165 190.473C204.684 191.627 199.807 191.646 194.458 191.206C194.104 191.169 193.534 190.968 192.767 190.748C191.607 190.4 190.761 189.374 190.643 188.146C190.092 182.759 188.578 168.046 188.46 166.746C188.303 165.097 188.165 163.228 188.047 161.102L187.661 154.94C185.616 154.507 183.667 154.032 181.823 153.534C184.349 163.67 186.813 174.266 188.991 184.794C189.089 185.255 189.266 186.332 188.755 187.35C187.811 189.214 185.353 189.137 179.473 189.867C172.55 190.751 169.659 191.655 168.086 189.791C167.555 189.195 167.378 188.561 167.319 188.272C165.883 180.72 158.764 158.755 155.991 142.998C155.991 142.959 155.972 142.94 155.972 142.902C155.754 141.647 155.791 140.411 156.045 139.253C156.594 133.853 161.097 129.586 166.662 129.47L183.486 129.118C190.841 128.987 214.653 128.22 215.356 128.894C216.059 129.567 216.348 135.211 216.427 137.611C216.427 138.492 216.427 139.392 216.446 140.254C216.446 144.472 215.719 148.334 214.499 151.315C213.654 153.377 212.592 155.008 211.392 156.058C211.281 156.155 211.169 156.246 211.057 156.333Z" fill="#A339FF"/>
<path opacity="0.176986" d="M211.022 156.359C211.025 152.896 211.045 149.916 211.081 147.959C211.12 146.274 211.415 137.002 207.6 135.079C207.266 134.914 206.931 134.767 206.263 134.529C205.732 134.346 202.978 133.375 199.439 133.521C197.138 133.613 193.676 133.759 190.825 136.068C186.872 139.293 186.97 144.331 187.01 145.156L187.623 154.932C185.573 154.497 183.621 154.02 181.773 153.521C180.496 148.396 179.204 143.39 177.924 138.569C176.744 134.13 172.595 131.248 168.209 131.805C166.577 132.016 164.944 132.228 163.312 132.439C159.675 132.921 156.913 135.635 156.066 139.067C156.697 133.755 161.161 129.584 166.662 129.47L183.486 129.118C190.841 128.987 214.653 128.22 215.356 128.894C216.059 129.567 216.348 135.211 216.427 137.611C216.427 138.492 216.427 139.392 216.446 140.254C216.446 144.472 215.719 148.334 214.499 151.315C213.654 153.377 212.592 155.008 211.392 156.058C211.27 156.165 211.147 156.265 211.022 156.359Z" fill="#444444"/>
<path d="M181.427 115.94L172.968 115.103C172.103 115.024 172.102 113.24 172.076 112.513C172.159 111.769 172.504 110.646 173.126 110.354C172.778 109.749 172.718 108.676 172.983 107.644C173.195 106.821 173.936 106.332 174.703 106.079C175.338 104.027 176.32 100.633 176.683 99.0106C177.77 94.0728 179.259 92.1907 179.771 91.6416C180.359 90.9913 180.933 90.5384 181.317 90.2495C183.906 88.329 186.707 87.9557 188.14 87.8663C188.179 87.8453 188.218 87.8439 188.258 87.8425L193.685 87.5764C194.415 87.4928 195.106 87.4402 195.73 87.3931C197.625 87.2605 199.582 87.1207 201.513 87.3628L207.591 87.4484C207.631 87.4484 207.67 87.4484 207.709 87.4681C209.145 87.5074 211.957 87.7827 214.612 89.6117C215.005 89.887 215.595 90.3196 216.205 90.949C216.736 91.4799 218.29 93.3089 219.548 98.2057C219.969 99.814 221.068 103.172 221.774 105.201C222.55 105.426 223.307 105.889 223.547 106.705C223.848 107.727 223.826 108.802 223.499 109.418C224.131 109.688 224.515 110.799 224.624 111.539C224.624 112.267 224.685 114.05 223.823 114.158L216.183 115.185C216.724 119.427 216.74 122.969 216.337 125.308C216.337 125.369 216.316 125.449 216.295 125.509C216.188 126.133 216.04 126.657 215.849 127.079C215.827 127.119 215.806 127.16 215.785 127.2C214.701 128.729 206.14 128.186 204.121 128.246C200.807 128.347 196.983 128.367 192.267 128.266C190.801 128.226 188.018 128.488 184.618 127.602C184.597 127.602 184.576 127.582 184.576 127.582C184.576 127.582 184.151 127.461 183.662 127.18C183.429 127.039 183.153 126.878 182.919 126.657C180.794 124.745 181.262 120.176 181.262 120.176C181.317 118.679 181.373 117.269 181.427 115.94Z" fill="#5A5EDC"/>
<path d="M200.475 81.8128L200.689 88.0777C200.689 88.2154 200.63 88.3531 200.512 88.4121C200 88.7267 199.273 89.0807 198.368 89.2774C196.736 89.651 195.339 89.3757 194.553 89.1397C194.395 89.1004 194.277 88.943 194.277 88.7857L194.2 85.2864C193.084 85.7025 193.147 85.6612 193.043 85.6957C191.804 86.0104 190.743 85.971 190.546 85.9317C189.838 85.8727 189.091 85.2827 188.422 84.2798C187.517 82.9425 186.711 80.8579 186.278 78.3603C186.2 78.0063 186.18 77.6523 186.16 77.2983L186.082 73.7781C186.062 72.9915 186.259 72.2245 186.632 71.4969C186.79 71.1822 186.947 70.9266 187.144 70.7102C187.185 70.6567 187.228 70.6043 187.271 70.5532C188.817 68.5564 191.891 68.2943 193.319 68.4486C193.496 68.4683 194.125 68.547 195.03 68.606C195.521 68.6453 195.915 68.6453 196.151 68.665C199.081 68.783 200.241 68.429 201.716 69.2156C201.991 69.3533 202.621 69.7073 203.171 70.3956C204.725 72.3425 204.351 74.8598 204.253 75.6071C203.899 77.849 202.601 79.2256 202.208 79.7959C201.763 80.4519 201.029 81.2463 200.475 81.8128ZM173.303 124.064L174.705 115.285L181.416 115.807L181.342 121.811C183.907 121.524 186.445 121.491 187.727 122.046C187.764 122.061 187.8 122.078 187.835 122.094C193.91 120.945 204.313 119.043 210.692 118.245L210.05 115.977L223.261 114.201C223.858 120.703 223.179 128.57 216.617 129.376C209.043 130.307 196.504 130.307 179 129.376H170.354C170.232 126.85 171.896 125.397 173.303 124.064Z" fill="#FFC3A8"/>
<path d="M203.875 77.0348C202.953 77.036 202.074 77.08 201.2 77.1289C201.331 76.4278 201.226 75.6597 200.767 75.0195C200.138 74.1345 198.958 73.6429 198.014 73.9576C197.483 74.1345 197.129 74.5475 197.09 74.5869C196.559 75.2555 196.441 75.9635 196.441 75.9635L196.342 76.9391C194.762 75.3027 192.748 73.2338 191.246 71.6543C190.36 71.897 188.899 72.1397 187.237 71.7867C187.01 71.7364 186.796 71.6606 186.593 71.5751C186.606 71.5489 186.619 71.5229 186.632 71.4969C186.79 71.1822 186.947 70.9266 187.144 70.7102C187.185 70.6567 187.228 70.6043 187.271 70.5532C188.817 68.5564 191.891 68.2943 193.319 68.4486C193.496 68.4683 194.125 68.547 195.03 68.606C195.521 68.6453 195.915 68.6453 196.151 68.665C199.081 68.783 200.241 68.429 201.716 69.2156C201.991 69.3533 202.621 69.7073 203.171 70.3956C204.725 72.3425 204.351 74.8598 204.253 75.6071C204.17 76.1298 204.037 76.6054 203.875 77.0348ZM186.863 76.2388C186.667 76.1995 186.608 75.9438 186.745 75.8062C186.922 75.6488 187.237 75.4915 187.63 75.4915C188.437 75.4915 189.302 76.0225 188.397 76.2585C187.866 76.4158 187.237 76.3371 186.863 76.2388ZM190.914 76.3765C190.718 76.3371 190.659 76.0815 190.816 75.9438C190.993 75.7865 191.308 75.6292 191.721 75.6292C192.527 75.6292 193.392 76.1798 192.488 76.3961C191.917 76.5731 191.308 76.4551 190.914 76.3765Z" fill="#482D1F"/>
<path opacity="0.2" d="M173.287 124.112L174.705 115.285L181.416 115.807L181.342 121.844C177.847 122.236 174.303 123.101 173.815 123.6C173.646 123.77 173.469 123.94 173.287 124.112Z" fill="#FFC3A8"/>
<path d="M188.397 77.6351C188.378 77.9694 188.319 78.52 188.122 78.7167C187.788 79.0117 187.355 78.0284 187.611 77.4188C187.709 77.1631 187.847 77.1238 188.004 77.1434C188.24 77.1828 188.397 77.3991 188.397 77.6351ZM191.917 77.5761C191.937 77.9104 191.937 78.461 191.74 78.697C191.445 79.0314 190.895 78.0874 191.091 77.4581C191.17 77.2024 191.308 77.1434 191.465 77.1434C191.701 77.1434 191.898 77.3401 191.917 77.5761Z" fill="#482D1F"/>
<path d="M190.305 81.6273C190.442 81.5879 190.777 81.4896 190.836 81.2733C190.836 81.2339 190.855 81.175 190.836 81.1356C190.757 80.998 190.521 81.0766 190.167 81.0963C189.538 81.1356 189.026 81.0766 189.026 81.0766C189.026 81.0766 189.164 81.4699 189.262 81.5879C189.479 81.8829 190.108 81.6863 190.305 81.6273Z" fill="#482D1F"/>
<path d="M188.675 79.7514C188.638 79.9731 188.81 80.1909 189.034 80.2283C189.083 80.2329 189.083 80.2329 189.115 80.2353C189.446 80.2608 189.654 80.2703 190.01 80.2703C190.119 80.2703 190.207 80.1823 190.207 80.0736C190.207 79.965 190.119 79.877 190.01 79.877C189.665 79.877 189.467 79.8679 189.145 79.8431L189.081 79.8382C189.081 79.8374 189.063 79.8148 189.063 79.811L189.359 77.7017L189.361 77.6744V76.5141C189.361 76.4055 189.273 76.3174 189.164 76.3174C189.056 76.3174 188.968 76.4055 188.968 76.5141V77.6607L188.675 79.7514Z" fill="#482D1F"/>
<path d="M201.202 76.0921C201.292 76.6684 201.188 77.2957 200.927 77.8002C200.609 78.4359 200.161 78.7826 199.583 79.0494C199.485 79.095 199.442 79.2118 199.487 79.3104C199.533 79.409 199.65 79.4521 199.748 79.4066C200.002 79.2892 200.204 79.176 200.438 78.9951C200.782 78.7285 201.07 78.394 201.277 77.9787C201.576 77.4027 201.694 76.6907 201.591 76.0314C201.574 75.9241 201.473 75.8507 201.366 75.8675C201.259 75.8842 201.185 75.9848 201.202 76.0921Z" fill="#482D1F"/>
<path d="M188.491 77.6768C188.471 78.0111 188.412 78.5618 188.215 78.7585C187.881 79.0534 187.448 78.0701 187.704 77.4605C187.802 77.2048 187.94 77.1655 188.097 77.1852C188.333 77.2245 188.491 77.4408 188.491 77.6768ZM192.011 77.6178C192.031 77.9521 192.031 78.5028 191.834 78.7388C191.539 79.0731 190.988 78.1291 191.185 77.4998C191.264 77.2442 191.401 77.1852 191.559 77.1852C191.795 77.1852 191.991 77.3818 192.011 77.6178Z" fill="#482D1F"/>
<path d="M190.398 81.669C190.536 81.6297 190.87 81.5314 190.929 81.3151C190.929 81.2757 190.949 81.2167 190.929 81.1774C190.851 81.0397 190.615 81.1184 190.261 81.1381C189.631 81.1774 189.12 81.1184 189.12 81.1184C189.12 81.1184 189.258 81.5117 189.356 81.6297C189.572 81.9247 190.202 81.728 190.398 81.669Z" fill="#482D1F"/>
<path d="M201.296 76.1339C201.386 76.7102 201.282 77.3375 201.02 77.842C200.702 78.4777 200.255 78.8245 199.677 79.0912C199.578 79.1368 199.535 79.2536 199.581 79.3522C199.626 79.4508 199.743 79.4939 199.842 79.4484C200.096 79.3311 200.298 79.2178 200.531 79.0369C200.875 78.7703 201.163 78.4358 201.371 78.0205C201.67 77.4445 201.787 76.7325 201.684 76.0732C201.667 75.9659 201.567 75.8925 201.46 75.9093C201.352 75.926 201.279 76.0266 201.296 76.1339Z" fill="#482D1F"/>
<path d="M210.335 116.035C210.383 116.19 210.296 116.355 210.14 116.403C209.984 116.451 209.819 116.364 209.771 116.208C209.211 114.387 207.421 108.866 207.043 107.846C206.987 107.694 207.064 107.524 207.217 107.467C207.37 107.41 207.54 107.488 207.596 107.641C207.98 108.675 209.772 114.203 210.335 116.035ZM183.479 99.5157C182.988 104.061 182.594 107.687 181.709 115.839C181.692 116.001 181.546 116.118 181.384 116.1C181.222 116.082 181.105 115.937 181.123 115.775C182.008 107.624 182.401 103.998 182.893 99.4523C182.91 99.2903 183.056 99.1732 183.218 99.1907C183.38 99.2082 183.497 99.3537 183.479 99.5157Z" fill="#482D1F"/>
<path d="M194.205 85.3557L195.816 84.6379L194.243 87.2307L194.205 85.3557Z" fill="#482D1F"/>
<path d="M115.302 202.652L115.224 202.691C114.811 202.907 114.28 202.789 114.083 202.416L91.0541 160.114C90.8378 159.721 91.0148 159.229 91.4278 159.013L91.5064 158.974C91.9194 158.757 92.4504 158.875 92.6471 159.249L98.3502 169.711C102.067 176.555 105.784 183.379 109.52 190.223L115.676 201.511C115.892 201.905 115.715 202.416 115.302 202.652Z" fill="#D8DEED"/>
<path d="M58.8413 158.285H73.2565C81.9882 158.285 90.7199 158.285 99.4319 158.285H112.805C113.277 158.285 113.69 158.679 113.69 159.151V159.249C113.69 159.721 113.296 160.114 112.805 160.114H58.802C58.33 160.114 57.917 159.721 57.917 159.249V159.151C57.917 158.679 58.33 158.285 58.8413 158.285Z" fill="#D8DEED"/>
<path d="M51.0928 201.511L57.2483 190.223C60.9651 183.379 64.682 176.555 68.4186 169.711L74.1217 159.249C74.3183 158.875 74.8493 158.738 75.2623 158.974L75.341 159.013C75.754 159.229 75.931 159.741 75.7146 160.114L52.6858 202.416C52.4891 202.79 51.9581 202.927 51.5451 202.691L51.4665 202.652C51.0535 202.416 50.8765 201.905 51.0928 201.511Z" fill="#D8DEED"/>
<path d="M52.9218 102.355L54.79 117.459C55.9307 126.603 57.0516 135.748 58.1922 144.873L59.9229 158.875C59.9818 159.367 59.6475 159.859 59.1755 159.918L59.0772 159.937C58.6052 159.996 58.1726 159.642 58.0939 159.111L51.0732 102.552C51.0142 102.06 51.3485 101.569 51.8205 101.51L51.9188 101.49C52.4104 101.431 52.8628 101.824 52.9218 102.355Z" fill="#D8DEED"/>
<path d="M86.123 201.139H96.7572C97.2488 201.139 97.6618 201.543 97.6618 202.024C97.6618 202.505 97.2488 202.909 96.7572 202.909H85.8426C85.3509 202.909 84.9576 202.524 84.9379 202.024C84.9379 201.543 85.3509 201.139 85.8426 201.139H86.123L86.3342 201.296C86.7275 201.591 86.8062 202.162 86.5112 202.555C86.2162 202.948 85.6459 203.027 85.2526 202.732L65.5079 188.022C65.1146 187.727 65.036 187.156 65.3309 186.763C65.6259 186.37 66.1962 186.291 66.5896 186.586L86.123 201.139ZM138.075 202.888H106.846C106.354 202.888 105.961 202.495 105.961 202.003C105.961 201.512 106.354 201.118 106.846 201.118H138.095C138.587 201.118 138.98 201.512 138.98 202.003C138.96 202.495 138.567 202.888 138.075 202.888Z" fill="#FFCB3D"/>
<path d="M66.593 186.602L73.8069 176.378L85.6458 184.972C86.2948 187.175 86.9634 189.377 87.6321 191.599C87.986 192.76 88.34 193.9 88.694 195.041C89.7953 195.474 90.7393 195.867 91.4079 196.162C92.6862 196.713 93.7678 197.224 94.9478 197.991C94.9478 197.991 95.9704 198.62 96.5408 199.525C96.7177 199.82 96.8751 200.154 96.9734 200.508C97.0127 200.665 97.0127 200.823 97.0324 200.96C97.0291 201.03 97.0191 201.104 97.0047 201.179C96.9203 201.153 96.831 201.139 96.7389 201.139H86.1047L66.593 186.602ZM138.321 201.152C138.244 201.13 138.162 201.118 138.077 201.118H106.828C106.704 201.118 106.587 201.143 106.481 201.188C106.425 201.065 106.393 200.929 106.393 200.784L107.255 189.339C107.229 188.945 111.675 188.755 120.592 188.768C120.809 188.768 121.005 188.827 121.182 188.965C123.424 191.364 125.568 192.701 127.121 193.488C128.321 194.098 132.333 195.789 134.142 196.615C135.066 197.028 135.951 197.52 136.817 198.051C136.876 198.09 136.915 198.11 136.974 198.169C137.426 198.582 138.115 199.329 138.37 200.214C138.41 200.332 138.41 200.43 138.429 200.548C138.449 200.646 138.429 200.745 138.429 200.843V200.863C138.408 200.967 138.371 201.064 138.321 201.152Z" fill="#474961"/>
<path d="M83.1262 156.334L75.2088 157.553C68.5236 158.629 60.9956 153.513 60.0187 146.189C59.923 145.547 59.8846 144.906 59.8846 144.264C59.8846 138.186 60.2768 131.694 66.5109 130.333C72.745 128.973 114.071 129.956 118.844 129.956C123.617 129.956 125.337 131.835 127.074 134.603C128.811 137.371 128.288 142.106 127.847 145.088C127.062 150.468 126.66 154.583 126.507 158.981C126.468 159.906 126.411 160.888 126.353 161.982C126.008 168.514 125.702 171.213 125.127 179.688C124.917 183.048 124.744 185.955 124.61 188.164C124.553 189.259 123.614 190.127 122.503 190.127H121.373L105.62 190.184C104.432 190.184 103.455 189.221 103.493 188.051L103.704 180.217L103.838 175.536C103.913 172.906 103.988 170.101 104.063 167.248C102.273 169.515 100.642 171.598 99.1697 173.498C97.9772 175.064 96.6115 176.863 94.9086 179.131C92.647 182.14 90.7394 184.736 89.2841 186.742C88.6469 187.603 87.4818 187.891 86.4757 187.487C86.321 187.428 86.1699 187.352 86.0247 187.26L84.9431 186.552L77.47 181.773L71.3932 177.879C70.2329 177.132 69.8986 175.637 70.6459 174.555L75.5821 167.358L78.532 163.051C79.5745 161.523 81.1059 159.284 83.1262 156.334Z" fill="#474BFF"/>
<path opacity="0.176986" d="M104 167.322C100.265 172.053 97.2228 175.983 94.8744 179.112C92.6128 182.121 90.7052 184.716 89.25 186.722C88.5223 187.706 87.1064 187.942 86.0247 187.253L84.9431 186.545L77.47 181.767L71.3932 177.873C70.2329 177.125 69.8986 175.631 70.6459 174.549L75.5821 167.351L78.532 163.045C79.58 161.509 81.1223 159.254 83.1587 156.28L104.372 153.014V153.562L104.238 158.243C104.158 161.224 104.079 164.301 104 167.322L104 167.322Z" fill="#444444"/>
<path d="M107.304 148.432C106.339 149.892 106.05 150.29 105.756 150.619C105.43 150.983 105.123 151.407 104.138 152.896C104.018 153.077 104.068 153.321 104.249 153.441C104.431 153.561 104.675 153.511 104.794 153.33C105.76 151.87 106.049 151.472 106.343 151.143C106.668 150.779 106.976 150.356 107.961 148.866C108.08 148.685 108.031 148.441 107.849 148.321C107.668 148.201 107.424 148.251 107.304 148.432Z" fill="#482D1F"/>
<path d="M92.47 106.937C95.3609 104.774 102.834 98.894 102.834 98.894C105.273 101.097 99.4121 105.049 99.4121 105.049" fill="#FFD6BA"/>
<mask id="mask0_113_1201" style="mask-type:alpha" maskUnits="userSpaceOnUse" x="59" y="89" width="34" height="43">
<path d="M82.123 89.9379C82.7387 90.1321 83.3598 90.3978 83.9744 90.7523C86.3147 92.1092 87.4356 93.8595 89.5006 97.4191C91.2312 100.369 92.7651 103.024 91.6638 104.794C90.9319 105.969 89.2946 106.276 88.1928 106.362L88.1436 110.93V111.126L88.0453 120.92C87.8859 124.085 87.6892 126.659 87.4553 128.642C87.1044 131.617 64.6423 132.843 64.6423 129.431C64.1113 128.133 63.9348 123.929 63.9544 122.434L64.1151 107.961C63.8613 107.985 63.6046 108.014 63.3448 108.047C62.2435 108.047 60.5326 107.839 59.7066 106.587C58.507 104.792 59.8836 101.892 61.4175 98.6373C63.2661 94.7355 64.0616 92.5094 66.5307 91.2303C67.6043 90.6741 68.4973 90.3994 69.2097 90.4062C70.6723 89.5456 72.365 89.0678 74.1611 89.1003L78.4876 89.179C79.7755 89.1929 81.0016 89.4613 82.123 89.9379Z" fill="white"/>
</mask>
<g mask="url(#mask0_113_1201)">
<path d="M82.123 89.9379C82.7387 90.1321 83.3598 90.3978 83.9744 90.7523C86.3147 92.1092 87.4356 93.8595 89.5006 97.4191C91.2312 100.369 92.7651 103.024 91.6638 104.794C90.9319 105.969 89.2946 106.276 88.1928 106.362L88.1436 110.93V111.126L88.0453 120.92C87.8859 124.085 87.6892 126.659 87.4553 128.642C87.1044 131.617 64.6423 132.843 64.6423 129.431C64.1113 128.133 63.9348 123.929 63.9544 122.434L64.1151 107.961C63.8613 107.985 63.6046 108.014 63.3448 108.047C62.2435 108.047 60.5326 107.839 59.7066 106.587C58.507 104.792 59.8836 101.892 61.4175 98.6373C63.2661 94.7355 64.0616 92.5094 66.5307 91.2303C67.6043 90.6741 68.4973 90.3994 69.2097 90.4062C70.6723 89.5456 72.365 89.0678 74.1611 89.1003L78.4876 89.179C79.7755 89.1929 81.0016 89.4613 82.123 89.9379Z" fill="#FFCB3D"/>
</g>
<path opacity="0.2" d="M77.3872 89.2277C79.2525 89.0575 81.7711 89.4817 83.9743 90.7523C86.3146 92.1093 87.4665 93.9371 89.5314 97.4966C91.262 100.447 92.765 103.024 91.6637 104.794C90.9396 105.956 89.3292 106.269 88.2281 106.359L88.2961 100.045V99.6909C88.3747 93.9878 84.0089 89.3073 78.5221 89.2483L77.3872 89.2277Z" fill="#8C2A00"/>
<path d="M97.5733 104.104L102.961 100.826C103.456 100.534 104.095 100.745 104.38 101.308L104.642 101.806C104.846 102.225 104.803 102.702 104.581 103.056C104.98 103.025 105.362 103.261 105.557 103.701L105.819 104.213C106.064 104.728 105.955 105.329 105.61 105.694C106.089 105.477 106.669 105.696 106.938 106.244L107.199 106.74C107.485 107.324 107.286 108.022 106.792 108.336L103.592 110.276C99.5527 113.169 95.7663 115.739 92.2332 117.987L92.4266 119.564C96.7248 120.213 102.641 121.106 110.175 122.244L110.257 122.257C111.635 122.139 112.837 122.346 113.658 122.515C115.716 122.309 117.754 122.084 119.793 121.878C121.443 121.398 125.146 120.612 125.388 122.965C125.388 122.965 123.799 123.482 121.647 124.166C118.604 125.134 114.416 126.458 112.051 127.212L111.967 127.215L102.224 129.828L86.5012 129.794C86.4839 129.731 86.4666 129.667 86.4494 129.604C87.0387 129.306 87.3934 128.979 87.44 128.628C87.7028 126.646 87.8996 124.069 88.0304 120.898L88.0336 120.579C83.1523 123.492 78.8159 125.712 75.0246 127.237C72.7827 128.142 70.5801 128.948 68.4365 129.656C63.4413 130.639 61.3192 127.823 60.7489 127.252C60.0802 126.584 58.7233 124.715 61.1815 113.663C61.6487 111.566 62.1372 109.668 62.6013 108.006C62.8604 108.029 63.1069 108.038 63.3288 108.038C68.1111 107.418 71.8091 108.524 76.4356 108.152C75.8672 109.602 75.1286 111.341 74.2201 113.368C78.7824 111.805 83.4287 110.052 88.1589 108.109L88.1781 106.325C88.9278 106.266 89.9254 106.105 90.7173 105.639C90.7187 105.647 90.7201 105.656 90.7215 105.664L90.8822 106.974C93.0507 106.057 95.2367 105.1 97.44 104.104C97.4693 104.089 97.5137 104.089 97.5733 104.104ZM73.7704 88.9902C74.1992 87.8632 74.6207 86.8668 75.0694 85.6807L75.0657 85.6785L75.4795 82.2495C75.4402 82.0332 75.2624 82.1189 75.0657 82.0599C74.5544 81.9223 74.1106 81.4956 73.7566 81.1022C73.1076 80.3549 73.0008 79.2674 73.3154 78.2644C73.7087 77.3008 74.7314 76.5731 75.6753 76.6518C76.0293 76.6911 76.3636 76.8288 76.6783 77.0254L76.698 77.0451C76.7963 77.1434 76.934 77.1631 77.0716 77.1828C77.4059 77.1828 77.6813 76.9468 77.7009 76.6124L77.8779 71.4796C77.8779 71.1453 78.1336 70.9093 78.4679 70.9093C79.1956 70.9093 79.9035 70.87 80.6312 70.7127C80.7295 70.7127 80.8082 70.693 80.8868 70.693C81.5948 70.6143 85.3903 70.3783 87.4356 73.1906C87.6126 73.4659 87.7896 73.7412 87.9273 74.0165C88.2812 74.7245 88.4386 75.5112 88.3796 76.3371L88.1632 79.9163C88.1239 80.2703 88.0846 80.6243 88.0059 80.998C87.0619 85.4228 85.056 88.4907 83.3647 88.589C82.4994 88.6087 81.6341 88.5104 80.7885 88.2547C80.6833 88.2021 80.75 88.2433 79.568 87.7654L79.3199 89.1053C80.4276 89.3153 81.5701 89.6537 82.7245 90.1605C82.3509 90.6521 81.9488 91.1063 81.5358 91.4209C77.052 94.9215 66.7795 91.1465 68.5529 90.4246C69.4231 90.0704 71.3151 89.3258 73.7704 88.9902Z" fill="#FFD6BA"/>
<path opacity="0.2" d="M88.1551 120.454C89.4755 119.665 90.8357 118.826 92.2357 117.936L92.4398 119.578C95.3004 120.019 101.231 120.913 110.232 122.262C110.235 122.262 110.238 122.261 110.241 122.261C111.653 122.128 112.885 122.365 113.722 122.538C115.78 122.332 117.754 122.084 119.793 121.878C121.443 121.398 125.146 120.612 125.388 122.965C125.188 123.035 123.92 123.424 121.768 124.108C118.725 125.076 114.537 126.399 112.172 127.154L112.088 127.157L102.345 129.77L86.622 129.736C86.6047 129.672 86.5874 129.609 86.5702 129.546C87.1595 129.248 87.5142 128.921 87.5608 128.57C87.8236 126.588 88.0204 124.011 88.1512 120.84L88.1551 120.454ZM88.2802 107.997L88.2989 106.267C89.0087 106.211 89.9406 106.064 90.71 105.652L90.8672 106.918C90.0021 107.284 89.1398 107.643 88.2802 107.997Z" fill="#FFD6BA"/>
<path d="M133.867 117.632C134.024 118.241 133.67 118.851 133.061 119.008L105.764 126.363C105.155 126.521 104.545 126.167 104.388 125.557C104.23 124.947 104.584 124.338 105.194 124.181L132.49 116.825C133.08 116.688 133.71 117.042 133.867 117.632Z" fill="#474961"/>
<path d="M69.1736 76.5552C69.2018 75.4073 69.4572 73.8817 70.4638 72.6203C70.8768 72.0893 71.4274 71.696 72.0174 71.401C73.5907 70.6143 74.7903 71.0077 77.8975 70.929C78.5268 70.929 79.4511 70.8307 80.6311 70.7127C81.4375 70.613 86.2906 69.993 87.4355 73.1906C87.0317 73.1119 86.0786 73.0923 85.1936 73.3086C81.3784 74.2525 80.2575 80.8603 78.5072 80.585C78.4905 80.5829 78.4728 80.58 78.4541 80.5759L78.4678 80.5653L77.6222 78.2447C77.4255 77.7728 77.0912 77.3991 76.6979 77.0844C76.3833 76.8878 76.0489 76.7501 75.6949 76.7108C74.751 76.6321 73.7283 77.3598 73.335 78.3234C72.9614 79.287 73.1384 80.3687 73.8267 81.116C74.2593 81.6076 74.8493 81.9419 75.4983 82.0599L75.5474 82.059C75.4228 83.5303 75.2364 85.5072 75.052 85.778C74.758 86.5493 74.479 87.2229 74.201 87.912C73.8047 87.8798 73.453 87.846 73.1777 87.8221C72.3124 87.7434 71.0341 87.6451 69.4215 87.5468C69.4215 87.5468 69.3035 87.5468 69.2052 87.5271C68.6938 87.4484 68.2022 87.3698 67.7105 87.1141C67.7105 87.1141 67.5532 87.0551 67.4156 86.9371C64.6427 84.6559 64.033 81.3913 65.213 79.5624C66.0586 78.2841 67.7105 77.7924 67.9465 77.7138C68.2612 77.6154 68.5759 77.5761 68.8512 77.5564C68.9586 77.234 69.0661 76.8954 69.1736 76.5552ZM85.3903 78.8741C84.997 78.9724 84.348 79.0707 83.817 78.9331C82.8927 78.7364 83.758 78.1857 84.6036 78.1464C84.997 78.1267 85.3116 78.2841 85.5083 78.4414C85.6459 78.5791 85.5869 78.8347 85.3903 78.8741ZM88.7335 78.7954C88.3402 78.9331 87.7305 79.11 87.1602 79.0117C86.1966 78.8741 87.0226 78.2447 87.8485 78.1464C88.2812 78.0874 88.5762 78.2251 88.7925 78.3627C88.9695 78.4807 88.9302 78.7364 88.7335 78.7954Z" fill="#482D1F"/>
<path d="M87.2782 81.2733C87.1012 81.0373 87.1602 80.5063 87.2192 80.1523C87.2389 79.8967 87.4749 79.7393 87.6912 79.7393C87.8289 79.759 88.0059 79.8377 88.0452 80.113C88.1829 80.762 87.5142 81.6666 87.2782 81.2733ZM84.0333 81.293C83.8367 81.057 83.9154 80.5063 83.9743 80.172C83.994 79.9163 84.23 79.759 84.4463 79.759C84.584 79.7787 84.761 79.8573 84.8003 80.1327C84.938 80.7816 84.289 81.6863 84.0333 81.293Z" fill="#482D1F"/>
<path d="M87.0799 79.7854C87.0945 79.6778 87.019 79.5787 86.9114 79.5641C86.8038 79.5495 86.7047 79.6249 86.6901 79.7326L86.5328 80.8929L86.531 80.9175L86.5115 83.0015C86.5041 83.0249 86.4855 83.0404 86.4597 83.0429C86.2131 83.0167 85.9163 83.0172 85.5684 83.0438C85.4601 83.0521 85.379 83.1466 85.3873 83.2549C85.3956 83.3632 85.4901 83.4442 85.5984 83.436C85.9303 83.4106 86.2081 83.4106 86.4306 83.4353L86.4523 83.4366C86.682 83.4366 86.8657 83.2732 86.902 83.0559L86.9046 83.0254L86.9242 80.9335L87.0799 79.7854Z" fill="#482D1F"/>
<path d="M85.351 84.9508C85.2133 84.9312 84.8593 84.8525 84.7807 84.6362C84.7807 84.5968 84.7413 84.5378 84.761 84.4985C84.82 84.4002 85.4296 84.4002 85.4296 84.4002C86.2359 84.4198 86.4326 84.3805 86.4916 84.4788C86.5113 84.5378 86.5113 84.6165 86.3736 84.7935C86.1966 85.1278 85.5476 85.0098 85.351 84.9508Z" fill="#482D1F"/>
<path d="M74.0966 113.1C74.2446 113.032 74.4198 113.097 74.4879 113.245C74.5561 113.393 74.4914 113.568 74.3434 113.636L68.1093 116.507C67.9613 116.575 67.7861 116.511 67.7179 116.363C67.6498 116.215 67.7145 116.04 67.8625 115.971L74.0966 113.1ZM77.5013 104.027C77.4471 103.873 77.5277 103.705 77.6813 103.65C77.835 103.596 78.0035 103.677 78.0577 103.83C78.0715 103.869 78.0945 103.939 78.1237 104.035C78.1718 104.194 78.2198 104.37 78.2646 104.559C78.3869 105.075 78.463 105.591 78.4701 106.078C78.4918 107.585 77.8406 108.55 76.34 108.53C76.1771 108.528 76.0468 108.394 76.0489 108.231C76.0511 108.069 76.1849 107.938 76.3478 107.94C77.4556 107.955 77.8977 107.3 77.8802 106.086C77.8738 105.648 77.8037 105.173 77.6905 104.695C77.6487 104.518 77.6038 104.354 77.5591 104.207C77.5326 104.119 77.5123 104.058 77.5013 104.027Z" fill="#482D1F"/>
<path d="M79.6084 87.7434L78.0155 87.0944L78.9595 90.6539L79.6084 87.7434Z" fill="#482D1F"/>
<path d="M217.743 128.59H60.2179C59.4576 128.59 58.8413 129.206 58.8413 129.966C58.8413 130.727 59.4576 131.343 60.2179 131.343H217.743C218.503 131.343 219.119 130.727 219.119 129.966C219.119 129.206 218.503 128.59 217.743 128.59Z" fill="#D8DEED"/>
<path d="M149.505 70.0061H93.6809C91.4889 70.0061 89.6987 68.0944 89.6987 65.7536V26.4865C89.6987 24.1457 91.4889 22.2341 93.6809 22.2341H149.505C151.697 22.2341 153.487 24.1457 153.487 26.4865V65.7341C153.487 68.0944 151.697 70.0061 149.505 70.0061Z" fill="#F2F6FB"/>
<path d="M108.051 48.7539C110.976 48.7539 113.346 46.4248 113.346 43.5517C113.346 40.6787 110.976 38.3496 108.051 38.3496C105.127 38.3496 102.757 40.6787 102.757 43.5517C102.757 46.4248 105.127 48.7539 108.051 48.7539Z" fill="#FFCB3D"/>
<path d="M121.162 48.7539C124.086 48.7539 126.457 46.4248 126.457 43.5517C126.457 40.6787 124.086 38.3496 121.162 38.3496C118.238 38.3496 115.867 40.6787 115.867 43.5517C115.867 46.4248 118.238 48.7539 121.162 48.7539Z" fill="#3ABF7C"/>
<path d="M134.273 48.7539C137.197 48.7539 139.568 46.4248 139.568 43.5517C139.568 40.6787 137.197 38.3496 134.273 38.3496C131.349 38.3496 128.978 40.6787 128.978 43.5517C128.978 46.4248 131.349 48.7539 134.273 48.7539Z" fill="#A339FF"/>
<path d="M139.459 57.1764H103.874C103.326 57.1764 102.883 57.62 102.883 58.1672C102.883 58.7145 103.326 59.1581 103.874 59.1581H139.459C140.006 59.1581 140.45 58.7145 140.45 58.1672C140.45 57.62 140.006 57.1764 139.459 57.1764Z" fill="#E1E5F0"/>
<path d="M139.397 53.2128H103.936C103.354 53.2128 102.883 53.6842 102.883 54.2656C102.883 54.8471 103.354 55.3185 103.936 55.3185H139.397C139.979 55.3185 140.45 54.8471 140.45 54.2656C140.45 53.6842 139.979 53.2128 139.397 53.2128Z" fill="#E1E5F0"/>
<path d="M89.52 24.7249C89.52 23.22 90.7397 22 92.2459 22H150.709C152.214 22 153.435 23.2197 153.435 24.7249V27.4499H89.52V24.7249Z" fill="#E1E5F0"/>
<path d="M93.2389 25.9635C93.9003 25.9635 94.4365 25.4367 94.4365 24.7868C94.4365 24.137 93.9003 23.6102 93.2389 23.6102C92.5774 23.6102 92.0413 24.137 92.0413 24.7868C92.0413 25.4367 92.5774 25.9635 93.2389 25.9635Z" fill="#FF5645"/>
<path d="M97.1469 25.9635C97.8084 25.9635 98.3446 25.4367 98.3446 24.7868C98.3446 24.137 97.8084 23.6102 97.1469 23.6102C96.4855 23.6102 95.9493 24.137 95.9493 24.7868C95.9493 25.4367 96.4855 25.9635 97.1469 25.9635Z" fill="#FFCB3D"/>
<path d="M101.181 25.9635C101.842 25.9635 102.378 25.4367 102.378 24.7868C102.378 24.137 101.842 23.6102 101.181 23.6102C100.519 23.6102 99.9833 24.137 99.9833 24.7868C99.9833 25.4367 100.519 25.9635 101.181 25.9635Z" fill="#3ABF7C"/>
<path d="M154.919 127.903C155.115 128.25 155.487 128.484 155.913 128.484H184.173C184.802 128.484 185.294 127.972 185.294 127.343C185.294 126.714 184.782 126.202 184.173 126.202H156.684L147.102 100.42C146.886 99.8302 146.237 99.5352 145.647 99.7515C145.057 99.9679 144.762 100.617 144.978 101.207L154.831 127.717C154.855 127.783 154.885 127.845 154.919 127.903Z" fill="#474961"/>
</svg>
