<svg width="284" height="226" viewBox="0 0 284 226" fill="none" xmlns="http://www.w3.org/2000/svg">
<path d="M248.776 31.8574H35.0954C34.0638 31.8574 33.2275 32.6164 33.2275 33.5526V162.554C33.2275 163.49 34.0638 164.249 35.0954 164.249H248.776C249.807 164.249 250.644 163.49 250.644 162.554V33.5526C250.644 32.6164 249.807 31.8574 248.776 31.8574Z" fill="white"/>
<path d="M33.2275 29.6544C33.2275 27.7816 34.8989 26.2633 36.964 26.2633H246.907C248.971 26.2633 250.644 27.7817 250.644 29.6544V33.722H33.2275V29.6544ZM180.478 111.272C180.478 109.399 182.15 107.881 184.214 107.881H234.06C236.124 107.881 237.796 109.399 237.796 111.272V140.365C237.796 142.238 236.124 143.756 234.06 143.756H184.214C182.15 143.756 180.478 142.238 180.478 140.365V111.272ZM113.276 111.272C113.276 109.399 114.949 107.881 117.012 107.881H166.859C168.922 107.881 170.595 109.399 170.595 111.272V140.365C170.595 142.238 168.922 143.756 166.859 143.756H117.012C114.949 143.756 113.276 142.238 113.276 140.365V111.272Z" fill="#D8DEED"/>
<path d="M38.7377 31.6879C39.7177 31.6879 40.5121 30.9669 40.5121 30.0775C40.5121 29.1881 39.7177 28.4671 38.7377 28.4671C37.7577 28.4671 36.9633 29.1881 36.9633 30.0775C36.9633 30.9669 37.7577 31.6879 38.7377 31.6879Z" fill="#FF5645"/>
<path d="M44.528 31.6879C45.508 31.6879 46.3024 30.9669 46.3024 30.0775C46.3024 29.1881 45.508 28.4671 44.528 28.4671C43.548 28.4671 42.7535 29.1881 42.7535 30.0775C42.7535 30.9669 43.548 31.6879 44.528 31.6879Z" fill="#FFCB3D"/>
<path d="M50.5052 31.6879C51.4852 31.6879 52.2796 30.9669 52.2796 30.0775C52.2796 29.1881 51.4852 28.4671 50.5052 28.4671C49.5252 28.4671 48.7307 29.1881 48.7307 30.0775C48.7307 30.9669 49.5252 31.6879 50.5052 31.6879Z" fill="#3ABF7C"/>
<path d="M217.697 126.419L201.501 133.768C201.409 133.81 201.297 133.776 201.251 133.692C201.238 133.669 201.231 133.643 201.231 133.616V118.918C201.231 118.824 201.315 118.748 201.418 118.748C201.447 118.748 201.475 118.754 201.501 118.766L217.697 126.115C217.79 126.157 217.827 126.259 217.781 126.343C217.763 126.376 217.733 126.402 217.697 126.419ZM143.85 134.326L142.638 134.338L142.647 134.326H128.272C128.066 134.326 127.987 134.197 128.097 134.037L138.34 119.133C138.449 118.974 138.63 118.971 138.744 119.128L146.09 129.305L148.974 125.1C149.083 124.941 149.266 124.936 149.384 125.092L156.001 133.8C156.119 133.955 156.048 134.085 155.841 134.091L149.563 134.267L149.499 134.268L149.537 134.326C149.537 134.326 149.369 134.326 149.163 134.326H143.85ZM149.401 121.522C148.123 121.522 147.087 120.576 147.087 119.408C147.087 118.24 148.123 117.293 149.401 117.293C150.678 117.293 151.714 118.24 151.714 119.408C151.714 120.576 150.678 121.522 149.401 121.522Z" fill="#F2F6FB"/>
<mask id="mask0_113_1713" style="mask-type:alpha" maskUnits="userSpaceOnUse" x="46" y="43" width="192" height="57">
<path d="M234.02 43.554H49.8515C47.7884 43.554 46.1158 45.0719 46.1158 46.9443V96.443C46.1158 98.3154 47.7884 99.8333 49.8515 99.8333H234.02C236.083 99.8333 237.756 98.3154 237.756 96.443V46.9443C237.756 45.0719 236.083 43.554 234.02 43.554Z" fill="white"/>
</mask>
<g mask="url(#mask0_113_1713)">
<path d="M234.02 43.554H49.8515C47.7884 43.554 46.1158 45.0719 46.1158 46.9443V96.443C46.1158 98.3154 47.7884 99.8333 49.8515 99.8333H234.02C236.083 99.8333 237.756 98.3154 237.756 96.443V46.9443C237.756 45.0719 236.083 43.554 234.02 43.554Z" fill="#E1E5F0"/>
<mask id="mask1_113_1713" style="mask-type:alpha" maskUnits="userSpaceOnUse" x="46" y="36" width="192" height="92">
<path d="M236.822 36.6039H47.2365C46.6176 36.6039 46.1158 37.0592 46.1158 37.6209V126.956C46.1158 127.518 46.6176 127.973 47.2365 127.973H236.822C237.441 127.973 237.943 127.518 237.943 126.956V37.6209C237.943 37.0592 237.441 36.6039 236.822 36.6039Z" fill="white"/>
</mask>
<g mask="url(#mask1_113_1713)">
<path d="M236.822 36.6039H47.2365C46.6176 36.6039 46.1158 37.0592 46.1158 37.6209V126.956C46.1158 127.518 46.6176 127.973 47.2365 127.973H236.822C237.441 127.973 237.943 127.518 237.943 126.956V37.6209C237.943 37.0592 237.441 36.6039 236.822 36.6039Z" fill="#E1E5F0"/>
<path d="M43.0364 137.37H265.901V43.5636C260.665 57.9761 250.689 65.8143 239.947 65.8143C233.74 65.8143 227.279 63.1997 221.326 57.7237C215.441 52.311 208.841 49.7254 202.331 49.7254C190.861 49.7241 179.667 57.7443 173.126 72.4493C167.999 83.9727 161.239 89.7358 154.478 89.7358C147.718 89.7358 140.956 83.9727 135.826 72.4452C129.281 57.7416 118.081 49.7186 106.61 49.7172C100.098 49.7172 93.4999 52.3014 87.6134 57.7154C81.6603 63.1901 75.1976 65.8046 68.992 65.8046C58.2483 65.8046 48.2724 57.9679 43.0364 43.554V137.37Z" fill="#D8DEED"/>
</g>
<mask id="mask2_113_1713" style="mask-type:alpha" maskUnits="userSpaceOnUse" x="56" y="47" width="48" height="49">
<path d="M79.9254 95.1379C93.0277 95.1379 103.649 84.5164 103.649 71.4141C103.649 58.3117 93.0277 47.6902 79.9254 47.6902C66.8231 47.6902 56.2015 58.3117 56.2015 71.4141C56.2015 84.5164 66.8231 95.1379 79.9254 95.1379Z" fill="white"/>
</mask>
<g mask="url(#mask2_113_1713)">
<path d="M79.9254 95.1379C93.0277 95.1379 103.649 84.5164 103.649 71.4141C103.649 58.3117 93.0277 47.6902 79.9254 47.6902C66.8231 47.6902 56.2015 58.3117 56.2015 71.4141C56.2015 84.5164 66.8231 95.1379 79.9254 95.1379Z" fill="#2A06BB"/>
<path d="M99.9791 102.085L91.6879 102.022L91.5001 92.2268L98.088 91.3274L98.5843 93.4838" fill="#BF865F"/>
<path d="M73.9922 69.3247C72.7818 68.7543 69.2712 68.9941 69.2387 69.0111C68.0086 69.0645 65.8556 69.2947 63.6098 70.9041C63.2771 71.1462 62.7785 71.5264 62.2662 72.0761C61.8198 72.54 60.9616 72.8047 59.9634 77.034C59.6042 78.5288 59.2065 82.2537 57.6024 84.7905C57.2805 85.2996 56.8625 87.3379 56.3484 90.9053C60.112 91.3402 62.9791 91.6666 64.9497 91.8845C64.5374 95.6595 64.5705 98.8071 64.9427 100.851C64.6777 102.096 64.598 102.836 64.7037 103.071C70.2889 103.118 73.6157 103.15 74.6841 103.166C77.3158 103.209 84.5292 103.769 91.2251 103.175C92.8802 101.541 92.6946 96.0947 92.6946 96.0947C92.6364 95.0232 92.5795 94.0045 92.5239 93.0361C95.6756 92.3056 98.2164 91.4994 100.146 90.6176C99.4395 87.2296 98.9794 85.244 98.7659 84.6608C98.1437 82.9954 96.7773 80.0653 96.4383 78.5528C95.3885 73.8685 94.0816 72.5518 93.6176 72.1023C93.0846 71.5693 90.8642 69.7135 87.5402 69.2972C86.8115 69.2059 85.3896 69.0981 83.2745 68.9737C82.3397 68.8271 81.449 68.7694 80.6853 68.7205C78.4797 68.5924 76.1701 68.4529 73.9922 69.3247Z" fill="#FFCB3D"/>
<path fill-rule="evenodd" clip-rule="evenodd" d="M74.0316 69.3543C75.7015 72.895 76.5843 76.2082 76.6798 79.2939C76.7754 82.3796 76.7848 87.6826 76.708 95.2027L86.6871 95.1574C86.5922 88.2828 86.3577 83 85.9837 79.309C85.6097 75.618 84.3513 72.1278 82.2084 68.8382C79.6181 68.5914 77.769 68.5385 76.661 68.6798C75.5531 68.821 74.6767 69.0459 74.0316 69.3543Z" fill="white"/>
<path d="M75.8814 64.003L75.6123 69.5428C75.6103 69.6657 75.6592 69.7896 75.7598 69.8442C76.1953 70.1336 76.8162 70.4616 77.5917 70.6519C78.9905 71.0123 80.1955 70.7893 80.8755 70.5914C81.0114 70.5588 81.1151 70.4203 81.1173 70.2798L81.2382 67.0142C82.1202 67.3599 82.0712 67.326 82.1577 67.3565C83.2192 67.6465 84.1333 67.6302 84.303 67.5997C84.9128 67.5607 85.5636 67.0671 86.1523 66.2182C86.9485 65.0865 87.6703 63.3125 88.0761 61.1784C88.1486 60.8762 88.1703 60.573 88.1919 60.2699L88.3071 57.2533C88.3346 56.5792 88.1758 55.9184 87.8642 55.2885C87.7331 55.0162 87.6012 54.7944 87.4349 54.6058C86.4345 53.2809 84.9601 52.7999 83.7692 52.6448C83.1356 52.5517 82.557 52.5445 82.1403 52.5815C81.9878 52.5954 81.4454 52.6526 80.6664 52.6884C80.243 52.7141 79.9046 52.7076 79.7013 52.7206C77.1791 52.7739 76.1858 52.4514 74.9064 53.1017C74.6677 53.2152 74.1215 53.5084 73.6386 54.0895C72.2759 55.7332 72.5633 57.8974 72.6378 58.5397C72.9121 60.4675 74.0101 61.6689 74.3407 62.1643C74.7354 62.7659 75.4055 63.5051 75.8814 64.003Z" fill="#DB9E75"/>
<path d="M67.6394 93.3632C67.6039 93.4986 67.6847 93.6375 67.8197 93.6735C67.9547 93.7094 68.0928 93.6289 68.1282 93.4935C68.7082 91.2765 70.5652 84.5604 70.9621 83.3164C71.0046 83.1831 70.9313 83.0401 70.7983 82.997C70.6654 82.9539 70.5232 83.027 70.4807 83.1603C70.0803 84.4155 68.2215 91.1377 67.6394 93.3632ZM93.4053 93.7824C93.4444 93.9169 93.5848 93.9945 93.7188 93.9556C93.8527 93.9168 93.9295 93.7762 93.8903 93.6416C93.2485 91.4377 91.3898 84.7094 91.0908 83.4358C91.0588 83.2993 90.9227 83.2144 90.7868 83.2461C90.651 83.2778 90.5668 83.4141 90.5989 83.5505C90.9006 84.8355 92.7609 91.57 93.4053 93.7824ZM81.238 67.0204L78.9354 66.0415L81.1121 69.7187L81.238 67.0204ZM86.2789 60.4824C86.2912 60.77 86.3344 61.2442 86.5002 61.4165C86.7826 61.6755 87.1664 60.8375 86.9556 60.3093C86.8748 60.088 86.7574 60.0519 86.6224 60.0662C86.4197 60.0962 86.2821 60.2795 86.2789 60.4824ZM83.2644 60.374C83.2431 60.661 83.2357 61.1342 83.4009 61.3403C83.6491 61.6325 84.1335 60.8302 83.9735 60.2861C83.9095 60.0651 83.7924 60.0121 83.6576 60.0095C83.4555 60.0057 83.2844 60.1715 83.2644 60.374ZM84.5913 63.8822C84.7589 63.9362 85.2954 64.1155 85.4846 63.8655C85.5704 63.7657 85.6936 63.4299 85.6936 63.4299C85.6936 63.4299 85.2549 63.4723 84.7163 63.4281C84.4134 63.4054 84.2123 63.334 84.1431 63.451C84.1257 63.4845 84.1418 63.5355 84.1412 63.5693C84.1889 63.7562 84.4739 63.8462 84.5913 63.8822ZM86.013 62.2967L85.79 60.495L85.8054 59.5096C85.8069 59.4162 85.7326 59.3391 85.6396 59.3373C85.5466 59.3356 85.47 59.4098 85.4685 59.5031L85.4529 60.5004L85.4542 60.5239L85.6792 62.3416C85.6797 62.3448 85.6641 62.364 85.6636 62.3647L85.6091 62.3679C85.3325 62.3839 85.1629 62.3884 84.8675 62.3828C84.7744 62.381 84.6978 62.4552 84.6964 62.5486C84.6949 62.6419 84.7692 62.719 84.8622 62.7208C85.1672 62.7267 85.3451 62.7219 85.6296 62.7054C85.6569 62.7038 85.6569 62.7038 85.699 62.7007C85.8915 62.6723 86.0417 62.4879 86.013 62.2967Z" fill="#482D1F"/>
<path d="M75.3134 59.3138C75.3331 58.8781 75.4667 58.4411 75.7482 58.0608C76.2999 57.3088 77.3188 56.9046 78.1243 57.1912C78.5775 57.3524 78.8756 57.7139 78.9088 57.7485C79.0378 57.9174 79.1372 58.0886 79.2133 58.2466C81.7513 57.092 83.7278 56.477 85.1429 56.4017C86.2251 56.3442 87.2777 56.5864 88.3008 57.1284C88.3088 56.4872 88.1511 55.8589 87.8563 55.2585C87.7256 54.9848 87.5941 54.762 87.4283 54.5724C86.4306 53.2412 84.9602 52.7578 83.7727 52.602C83.1408 52.5085 82.5638 52.5013 82.1483 52.5384C81.9962 52.5524 81.4552 52.6098 80.6784 52.6458C80.2561 52.6716 79.9187 52.6652 79.716 52.6782C77.2007 52.7317 76.2101 52.4077 74.9342 53.0611C74.6962 53.1752 74.1516 53.4698 73.6699 54.0537C72.311 55.7053 72.5977 57.8799 72.672 58.5253C72.7313 58.9458 72.8294 59.332 72.95 59.6839C73.652 59.5994 74.4398 59.476 75.3134 59.3138ZM87.6593 59.3395C87.8285 59.3088 87.8825 59.0896 87.7663 58.9687C87.6166 58.8303 87.3488 58.6896 87.0114 58.6831C86.3197 58.6699 85.5702 59.1131 86.3431 59.3312C86.7965 59.4755 87.3374 59.418 87.6593 59.3395ZM84.1821 59.3915C84.3513 59.3609 84.4054 59.1416 84.2723 59.0204C84.1225 58.882 83.8547 58.7413 83.5004 58.7345C82.8087 58.7213 82.059 59.1814 82.8322 59.3826C83.319 59.5445 83.8436 59.4528 84.1821 59.3915Z" fill="#482D1F"/>
<path d="M75.3475 58.976C75.2622 59.4688 75.343 60.0085 75.5614 60.4454C75.8265 60.9959 76.2071 61.3005 76.7012 61.5388C76.7854 61.5794 76.8209 61.6804 76.7804 61.7642C76.7399 61.848 76.6387 61.883 76.5544 61.8424C76.3372 61.7376 76.165 61.6372 75.9664 61.4782C75.6738 61.244 75.4305 60.9524 75.2573 60.5928C75.0079 60.0939 74.9162 59.4813 75.0137 58.9176C75.0296 58.8258 75.1172 58.7645 75.2094 58.7807C75.3015 58.7968 75.3634 58.8843 75.3475 58.976Z" fill="#482D1F"/>
</g>
</g>
<path d="M159.587 197.474C160.051 197.474 160.427 197.816 160.427 198.237C160.427 198.659 160.051 199 159.587 199H129.141C128.677 199 128.3 198.659 128.3 198.237C128.3 197.816 128.677 197.474 129.141 197.474H159.587ZM218.984 199H199.838C199.39 199 198.998 198.707 198.998 198.355V198.12C198.998 197.768 199.371 197.474 199.838 197.474H218.984C219.432 197.474 219.824 197.768 219.824 198.12V198.355C219.824 198.707 219.451 199 218.984 199Z" fill="#3ABF7C"/>
<path d="M159.685 197.48C159.652 197.476 159.62 197.474 159.586 197.474H129.273C129.253 197.382 129.243 197.265 129.246 197.113C129.267 196.995 129.269 196.859 129.309 196.724C129.549 195.914 129.839 195.376 130.689 194.898C131.539 194.42 132.407 193.993 133.311 193.617C136.645 192.195 137.784 192.213 139.976 190.908C140.883 190.363 141.717 189.732 142.496 189.049C143.016 188.594 144.138 187.855 145.864 186.831L159.799 186.831L159.685 197.48ZM219.086 197.479C219.052 197.476 219.018 197.474 218.984 197.474H199.903L201.412 188.827L214.786 187.183L219.086 197.479Z" fill="#474961"/>
<path d="M179.648 130.532C175.399 143.288 172.746 152.085 168.271 165.403C167.345 167.786 167.003 169.593 167.246 170.825C167.61 172.672 169.406 175.984 170.281 179.596C171.156 183.208 162.182 179.244 154.55 177.914C146.918 176.584 139.057 175.227 139.261 174.19C139.756 171.723 147.508 168.498 148.121 165.403C148.734 162.308 149.198 158.937 149.284 158.382C153.211 137.212 156.895 120.945 158.892 112.098C159.735 108.304 161.353 101.14 167.246 93.8074C167.629 93.3436 167.94 92.9826 168.122 92.7593C168.664 92.2393 169.271 91.8473 169.891 91.5524C169.877 91.448 169.863 91.3438 169.849 91.24C171.343 90.233 172.357 89.5049 178.401 89.087C178.551 89.0846 178.718 89.065 178.868 89.0626C184.728 88.7833 189.703 90.7241 193.456 94.9103C195.852 98.1458 197.728 102.126 199.087 106.849C200.334 111.185 205.084 130.624 213.338 165.164C213.71 166.161 214.07 166.893 214.418 167.36C215.579 168.913 219.004 171.031 221.422 174.008C223.84 176.984 213.866 176.676 206.298 178.278C198.73 179.88 190.94 181.542 190.662 180.519C190.144 178.59 193.573 174.545 194.61 171.429C191.467 163.67 188.38 155.61 185.386 147.282C183.353 141.607 181.443 136.021 179.648 130.532Z" fill="#2A06BB"/>
<path opacity="0.176986" d="M179.591 130.57C175.362 143.27 172.712 152.055 168.249 165.336C167.323 167.719 166.981 169.527 167.224 170.758C167.588 172.605 169.384 175.917 170.259 179.529C171.134 183.141 162.16 179.178 154.528 177.848C146.897 176.518 139.035 175.16 139.239 174.123C139.734 171.657 147.486 168.432 148.099 165.336C148.712 162.241 149.176 158.87 149.262 158.316C153.189 137.145 156.874 120.879 158.871 112.031C159.713 108.237 161.331 101.074 167.224 93.7409C167.608 93.277 167.918 92.9161 168.101 92.6928C168.631 92.1835 169.224 91.797 169.83 91.5043C170.524 96.7552 171.3 102.72 172.43 107.426C173.573 112.187 175.095 116.7 176.681 121.439C177.616 124.451 178.585 127.495 179.591 130.57Z" fill="#444444"/>
<path d="M186.813 65.1395C187.841 65.4098 188.815 65.8046 189.659 66.295C193.281 68.3986 195.413 72.4078 193.758 76.3553C193.413 77.1776 192.255 78.1733 190.285 79.3423C190.125 79.3586 189.966 79.3729 189.809 79.3852L189.189 85.4591C189.17 85.6455 189.152 85.8151 189.152 86.0015C189.133 86.8491 188.965 88.1035 188.162 89.0189C187.041 90.3072 185.379 92.1719 178.43 92.2397C170.959 92.3075 169.166 90.4428 168.008 89.1206C167.205 88.2222 166.999 87.1373 166.981 86.2558C166.981 86.0693 166.962 85.8998 166.943 85.7133L166.284 79.3385C162.78 78.8061 162.245 76.6993 161.667 75.069C160.49 71.7477 163.005 67.8423 166.129 65.9746C168.354 64.6442 171.083 64.0857 173.622 64.5619C174.789 64.2496 176.051 64.0741 177.384 64.0662H178.449C181.674 64.0487 184.616 64.3059 186.813 65.1395Z" fill="#3ABF7C"/>
<path opacity="0.176986" d="M166.277 79.2741C162.845 78.722 162.314 76.6348 161.74 75.0169C160.562 71.6956 163.078 67.7902 166.201 65.9225C168.448 64.5793 171.208 64.0229 173.768 64.5238C169.827 65.5333 166.941 68.097 165.953 71.0503C165.654 71.9318 165.598 72.8811 165.71 73.7964L166.277 79.2741Z" fill="#444444"/>
<path d="M172.326 61.5877C172.277 61.5988 172.227 61.6101 172.176 61.6215C170.537 61.9933 170.633 61.9654 170.518 61.9921C169.308 62.1531 168.308 62.0047 168.124 61.9591C166.592 61.6749 165.141 58.881 164.873 55.0745C164.84 54.7666 164.864 54.4622 164.868 54.1566L165.157 51.1332C165.21 50.4568 165.465 49.8103 165.882 49.259C165.925 49.1937 165.966 49.1454 166.007 49.097C166.151 48.9362 166.294 48.7753 166.435 48.6483C166.98 48.1391 167.606 47.788 168.242 47.5565C169.737 47.1076 171.38 47.1609 172.284 47.3372C172.413 47.3624 172.819 47.4392 173.392 47.5435C173.923 47.6961 174.439 47.7969 174.979 47.8481C175.275 47.8839 175.481 48.1349 175.46 48.4054L174.94 52.7226C174.927 52.8261 176.334 51.8498 177.791 52.1993C178.26 52.312 178.908 52.9108 179.734 53.9956C179.44 54.8133 179.286 55.2338 179.272 55.2572C178.661 56.2715 178.213 56.9092 177.928 57.1703L177.814 59.8892L178.006 64.0662H177.385C175.608 64.0767 173.959 64.3848 172.491 64.9176L172.326 61.5877ZM212.636 177.255L214.788 187.186L201.449 188.888L200.033 179.544C202.042 179.142 204.21 178.682 206.361 178.226C208.375 177.8 210.56 177.509 212.636 177.255ZM149.261 176.917C150.985 177.231 152.805 177.547 154.613 177.862C156.983 178.275 159.481 178.942 161.774 179.557L159.801 187.015H145.671L149.261 176.917ZM165.597 89.2694C163.459 90.8094 161.29 91.5038 159.091 91.3526C152.751 90.9169 146.227 85.2455 139.519 74.3385L139.52 74.3379L139.519 74.3378L132.884 62.8188C134.54 61.5633 136.069 61.6121 137.472 62.9654C138.765 64.5054 139.509 65.4244 139.705 65.7225C142.639 70.185 145.003 69.3942 147.874 72.6738L156.826 79.6691L160.098 76.6046C159.687 75.1895 159.29 73.6898 158.909 72.1054C157.916 71.497 156.386 70.3896 153.89 68.4922C153.656 68.3142 152.504 68.0776 150.434 67.7824C147.357 68.1483 145.967 67.3614 146.262 65.4215L159.463 64.6368C160.867 64.5533 162.221 65.1281 163.051 66.1601C164.054 67.4082 164.774 68.4523 165.21 69.2924L173.126 80.0656L177.245 74.002C178.449 75.9644 180.239 76.8527 182.705 78.1186C184.732 79.1585 187.171 79.5525 190.024 79.3005C184.523 89.1815 179.127 94.1919 173.837 94.3318C170.77 94.4129 168.023 92.7255 165.597 89.2694Z" fill="#ED9474"/>
<path opacity="0.2" d="M165.714 89.247C163.566 90.8027 161.387 91.5046 159.177 91.3526C152.837 90.9169 146.313 85.2455 139.604 74.3385L139.606 74.3379L139.605 74.3377L132.97 62.8188C134.626 61.5632 136.155 61.6121 137.558 62.9653C138.851 64.5054 139.595 65.4244 139.791 65.7224C142.725 70.185 145.088 69.3942 147.959 72.6738L156.912 79.6691L160.203 76.5867C161.808 82.0912 163.644 86.3113 165.714 89.247Z" fill="#8C2A00"/>
<path d="M172.397 63.0171L174.604 61.0577L172.33 61.5862L172.397 63.0171Z" fill="#482D1F"/>
<path d="M181.53 55.8567C181.286 56.6631 181.356 57.2803 181.741 57.7083C183.672 59.8542 184.549 60.1679 184.067 60.9533C183.515 61.8503 181.46 62.0866 177.902 61.662C175.531 60.2069 176.063 57.5824 176.067 57.3536C176.066 57.3517 176.065 57.3498 176.064 57.3478C176.311 57.3125 177.081 57.2589 177.72 56.7394C178.358 56.2361 178.781 55.3624 178.532 54.4629C178.317 53.5997 177.476 52.8496 176.581 52.8098C176.076 52.7947 175.65 52.9886 175.591 53.0188C174.909 53.3664 174.569 53.8886 174.569 53.8886L174.356 54.2546C174.297 54.1574 174.24 54.0666 174.187 53.9833C172.985 52.5815 171.781 51.1967 170.559 49.7937C168.4 49.1979 166.371 49.239 166.048 49.0486C166.192 48.8878 166.335 48.727 166.476 48.6C167.021 48.0908 167.647 47.7397 168.283 47.5081C169.778 47.0592 171.421 47.1125 172.325 47.2889C172.454 47.3141 172.86 47.3908 173.433 47.4951C173.599 47.5226 173.765 47.5502 173.969 47.5801C174.451 47.6447 174.821 47.7022 175.043 47.7333C177.862 48.0821 178.984 47.8644 180.345 48.6645C180.596 48.8163 181.167 49.1755 181.625 49.7992C182.945 51.6163 182.351 53.7367 182.19 54.3722C182.029 54.9407 181.793 55.4331 181.53 55.8567ZM164.678 52.9873C164.498 52.9329 164.451 52.7228 164.596 52.6195C164.781 52.5035 165.082 52.3662 165.455 52.3907C166.22 52.4417 167 52.9385 166.152 53.0832C165.61 53.1936 165.024 53.077 164.678 52.9873ZM168.275 53.388C168.094 53.3337 168.047 53.1236 168.212 53.0223C168.397 52.9063 168.697 52.769 169.089 52.7956C169.854 52.8467 170.631 53.3602 169.786 53.4881C169.225 53.5964 168.639 53.4798 168.275 53.388Z" fill="#482D1F"/>
<path d="M134.097 56.8421C134.593 56.5474 135.153 56.52 135.348 56.7937L144.564 69.1476C144.759 69.4214 144.541 69.8811 144.046 70.1927C143.55 70.4874 142.99 70.5148 142.795 70.241L133.579 57.8872C133.363 57.598 133.6 57.1367 134.097 56.8421Z" fill="#474961"/>
<path d="M165.894 54.4377C165.892 54.7279 165.884 55.2052 165.671 55.3864C165.389 55.6624 164.919 54.8244 165.122 54.3005C165.209 54.0711 165.348 54.0183 165.496 54.0348C165.719 54.0596 165.884 54.2317 165.894 54.4377ZM169.207 54.7045C169.224 54.9967 169.197 55.472 168.985 55.6532C168.703 55.9292 168.233 55.0912 168.435 54.5673C168.523 54.3379 168.662 54.2851 168.81 54.3016C169.033 54.3264 169.197 54.4985 169.207 54.7045Z" fill="#482D1F"/>
<path d="M167.821 57.9999C167.955 57.9808 168.284 57.9149 168.364 57.736C168.369 57.7024 168.394 57.654 168.38 57.6183C168.32 57.5091 168.072 57.5327 167.734 57.5291C167.134 57.5135 166.659 57.4093 166.659 57.4093C166.659 57.4093 166.761 57.7623 166.843 57.8568C166.992 58.1467 167.61 58.0277 167.821 57.9999Z" fill="#482D1F"/>
<path d="M166.377 56.4367L166.374 56.4553C166.349 56.639 166.464 56.8249 166.662 56.878C166.698 56.8853 166.719 56.889 166.739 56.8925C166.934 56.9259 167.074 56.9433 167.58 56.9996C167.682 57.011 167.775 56.945 167.788 56.852C167.8 56.7591 167.728 56.6745 167.625 56.6631C167.129 56.6078 166.992 56.5909 166.809 56.5594C166.79 56.5561 166.771 56.5527 166.752 56.5492C166.756 56.5497 166.743 56.5284 166.744 56.5033L167.207 54.7398L167.211 54.7154L167.308 53.7186C167.317 53.6253 167.241 53.5431 167.139 53.5348C167.036 53.5265 166.945 53.5954 166.936 53.6887L166.84 54.6732L166.377 56.4367Z" fill="#482D1F"/>
<path d="M177.407 74.0549C177.222 71.6375 177.663 69.8349 178.715 68.6392C178.811 68.5294 178.792 68.3695 178.671 68.2818C178.55 68.1942 178.373 68.2122 178.277 68.3219C177.125 69.6312 176.654 71.5566 176.848 74.0901C176.858 74.2302 176.992 74.3359 177.147 74.3261C177.301 74.3164 177.417 74.195 177.407 74.0549Z" fill="#482D1F"/>
</svg>
