<svg width="284" height="226" viewBox="0 0 284 226" fill="none" xmlns="http://www.w3.org/2000/svg">
<path d="M141.74 134.583H110.515V167.891H141.74V134.583Z" fill="#D1D1FF"/>
<path opacity="0.15" d="M141.74 134.583H110.515V153.393H141.74V134.583Z" fill="#1B1B43"/>
<path d="M104.214 165.172H148.04C150.128 165.172 152.131 165.997 153.607 167.466C155.084 168.935 155.914 170.927 155.914 173.004H96.3369C96.3369 171.975 96.5407 170.956 96.9366 170.006C97.3324 169.056 97.9127 168.192 98.6441 167.465C99.3756 166.737 100.244 166.16 101.2 165.767C102.155 165.374 103.179 165.171 104.214 165.172Z" fill="#D1D1FF"/>
<path d="M126.128 156.584C130.023 156.584 133.181 153.443 133.181 149.568C133.181 145.693 130.023 142.552 126.128 142.552C122.232 142.552 119.075 145.693 119.075 149.568C119.075 153.443 122.232 156.584 126.128 156.584Z" fill="white"/>
<path d="M196.997 57.2029H55.2573V149.295H196.997V57.2029Z" fill="#D1D1FF"/>
<path d="M118.491 165.168H107.089V165.372H118.491V165.168Z" fill="#1B1B43"/>
<path d="M144.682 165.168H133.281V165.372H144.682V165.168Z" fill="#1B1B43"/>
<path d="M192.148 63.863H60.1062V141.665H192.148V63.863Z" fill="white"/>
<g opacity="0.2">
<path opacity="0.2" d="M203.574 145.952C204.226 140.714 198.023 135.547 190.74 135.267C190.722 131.783 184.878 129.068 180.472 130.5C180.685 126.458 175.166 122.775 169.595 123.243C171.881 104.603 135.802 103.406 124.492 102.631C120.428 102.353 116.431 101.572 112.339 101.643C105.694 101.759 99.4819 104.345 94.4649 108.661C91.8884 110.874 90.4903 114.039 92.0007 116.716C86.2375 115.162 79.3812 115.925 74.5312 118.665C69.6812 121.405 67.0122 126.02 67.7207 130.427C64.8222 129.022 60.5455 129.358 58.1349 131.181C55.7243 133.005 55.462 136.103 57.5466 138.124C55.0685 137.508 52.1014 138.114 50.438 139.574C48.7746 141.034 48.5252 143.252 49.8418 144.886L53.1994 166.647L208.502 162.833L203.574 145.952Z" fill="#D1D1FF"/>
</g>
<g opacity="0.5">
<path opacity="0.5" d="M186.423 160.37C186.522 154.736 184.237 149.102 180.224 145.118C176.212 141.135 170.541 138.872 164.877 138.99C163.044 133.366 156.431 129.769 150.684 131.266C149.492 126.423 145.113 122.859 140.366 121.251C135.619 119.642 130.495 119.656 125.48 119.686C119.957 119.719 114.325 119.77 109.085 121.509C103.844 123.247 98.9682 126.99 97.3307 132.237C94.0109 130.89 89.9329 131.644 87.3216 134.086C84.7103 136.529 83.7017 140.532 84.8484 143.91C80.1345 142.277 74.5789 143.324 70.7941 146.563C67.0093 149.802 65.1372 155.109 66.0583 159.991L186.423 160.37Z" fill="#D1D1FF"/>
</g>
<path opacity="0.7" d="M113.552 102.681L104.624 153.229H148.996L138.62 102.681L125.372 97.6467L113.552 102.681Z" fill="#FFF2E0"/>
<path d="M118.89 100.491L115.374 122.172L119.27 117.302L120.244 131.587L124.626 117.626L129.496 136.132L129.983 114.704L137.286 124.769L132.417 96.5228L118.89 100.491Z" fill="#FFA121"/>
<path opacity="0.4" d="M120.864 100.069L118.436 113.904L121.127 110.797L121.799 119.913L124.826 111.003L128.19 122.814L128.525 109.139L133.57 115.562L130.208 97.536L120.864 100.069Z" fill="white"/>
<path opacity="0.5" d="M83.8049 109.605C82.5131 109.338 81.283 108.686 80.4732 108.204C80.1661 108.02 79.8462 107.768 79.8611 107.335C79.873 106.988 80.0996 106.633 80.3341 106.327C81.8653 104.332 84.3146 102.891 86.3288 103.016C88.4532 103.147 89.8006 105.28 88.2038 107.853C87.068 109.684 85.3868 109.932 83.8049 109.605Z" fill="#D1D1FF"/>
<path opacity="0.5" d="M162.718 112.903C164.066 113.595 165.671 113.897 166.978 113.802C167.565 113.759 168.208 113.61 168.547 113.13C168.779 112.801 168.822 112.376 168.812 111.974C168.759 109.838 167.346 107.802 165.521 106.735C164.031 105.868 161.884 105.835 160.707 107.242C160.355 107.675 160.124 108.192 160.036 108.742C159.949 109.292 160.009 109.855 160.21 110.375C160.646 111.482 161.592 112.332 162.718 112.903Z" fill="#D1D1FF"/>
<path opacity="0.5" d="M99.3321 118.823C100.311 118.42 100.775 117.304 100.37 116.33C99.9647 115.357 98.8428 114.895 97.8643 115.298C96.8858 115.701 96.4211 116.817 96.8264 117.79C97.2317 118.764 98.3536 119.226 99.3321 118.823Z" fill="#D1D1FF"/>
<path opacity="0.5" d="M154.132 126.732C155.191 126.732 156.05 125.878 156.05 124.825C156.05 123.771 155.191 122.917 154.132 122.917C153.073 122.917 152.214 123.771 152.214 124.825C152.214 125.878 153.073 126.732 154.132 126.732Z" fill="#D1D1FF"/>
<path opacity="0.5" d="M170.429 132.317C171.109 132.317 171.661 131.768 171.661 131.091C171.661 130.414 171.109 129.866 170.429 129.866C169.748 129.866 169.197 130.414 169.197 131.091C169.197 131.768 169.748 132.317 170.429 132.317Z" fill="#D1D1FF"/>
<path opacity="0.5" d="M85.7934 127.277C86.4739 127.277 87.0255 126.728 87.0255 126.051C87.0255 125.374 86.4739 124.826 85.7934 124.826C85.1129 124.826 84.5613 125.374 84.5613 126.051C84.5613 126.728 85.1129 127.277 85.7934 127.277Z" fill="#D1D1FF"/>
<path d="M156.748 78.2872C156.431 79.0684 155.926 79.7603 155.278 80.302C154.629 80.8437 153.856 81.2186 153.028 81.3938L136.96 84.7881L136.794 75.0451L156.748 78.2872Z" fill="#D1D1FF"/>
<path d="M156.748 78.2872H139.211V53.4123C146.422 73.7246 156.748 69.4338 156.748 78.2872Z" fill="#3335CF"/>
<path d="M95.5073 78.2872C95.8243 79.0684 96.3293 79.7603 96.978 80.302C97.6267 80.8437 98.3992 81.2186 99.2276 81.3938L115.296 84.7881L115.462 75.0451L95.5073 78.2872Z" fill="#D1D1FF"/>
<path d="M95.5073 78.2872H113.044V53.4123C105.833 73.7246 95.5073 69.4338 95.5073 78.2872Z" fill="#3335CF"/>
<path d="M137.937 89.7383C143.952 72.6186 142.423 53.6841 133.396 37.9275C133.231 37.6389 133.063 37.3512 132.893 37.0646H119.279C119.109 37.3512 118.942 37.6389 118.777 37.9275C109.75 53.6841 108.22 72.6215 114.236 89.7383L115.984 94.718L113.553 102.681H138.62L136.187 94.718L137.937 89.7383Z" fill="#C5C5FF"/>
<path d="M119.28 37.0635H126.083H132.893L126.086 26L119.28 37.0635Z" fill="#1B1B43"/>
<path d="M115.985 94.7278L136.182 94.718L138.62 102.681H113.552L115.985 94.7278Z" fill="#3335CF"/>
<path d="M126.088 107.908C125.682 107.908 125.293 107.747 125.006 107.462C124.719 107.176 124.558 106.789 124.558 106.385V80.3066C124.558 79.9029 124.719 79.5157 125.006 79.2302C125.293 78.9448 125.682 78.7844 126.088 78.7844C126.289 78.7843 126.488 78.8236 126.674 78.9C126.86 78.9765 127.028 79.0886 127.17 79.2299C127.313 79.3713 127.425 79.5392 127.502 79.7239C127.579 79.9087 127.618 80.1067 127.618 80.3066V106.383C127.619 106.584 127.579 106.782 127.503 106.967C127.426 107.152 127.313 107.32 127.171 107.461C127.029 107.603 126.86 107.715 126.674 107.792C126.488 107.868 126.289 107.908 126.088 107.908Z" fill="#1B1B43"/>
<path d="M131.06 57.7628C133.807 55.0299 133.807 50.5989 131.06 47.866C128.312 45.133 123.858 45.133 121.111 47.866C118.363 50.5989 118.363 55.0299 121.111 57.7628C123.858 60.4957 128.312 60.4958 131.06 57.7628Z" fill="white"/>
<path d="M129.607 56.3181C131.553 54.3831 131.553 51.2457 129.607 49.3107C127.662 47.3756 124.508 47.3756 122.563 49.3107C120.618 51.2457 120.618 54.3831 122.563 56.3181C124.508 58.2532 127.662 58.2532 129.607 56.3181Z" fill="#3335CF"/>
<path d="M125.268 51.3876C125.383 50.8993 125.079 50.4101 124.589 50.2948C124.098 50.1796 123.606 50.482 123.49 50.9702C123.374 51.4585 123.678 51.9477 124.169 52.063C124.66 52.1782 125.152 51.8758 125.268 51.3876Z" fill="white"/>
<path d="M126.088 71.5362H125.965L125.979 71.127H126.088C126.31 71.127 126.531 71.1055 126.749 71.0627L126.829 71.464C126.585 71.5119 126.337 71.536 126.088 71.5362ZM125.108 71.4087C124.828 71.3344 124.557 71.228 124.301 71.0914L124.5 70.7316C124.728 70.8523 124.969 70.9468 125.218 71.0133L125.108 71.4087ZM127.654 71.2001L127.479 70.8275C127.714 70.7213 127.937 70.5887 128.142 70.4321L128.391 70.7563C128.163 70.932 127.915 71.081 127.652 71.2001H127.654ZM123.589 70.6001C123.371 70.4104 123.176 70.1965 123.007 69.9626L123.34 69.7244C123.492 69.9329 123.666 70.1238 123.86 70.2937L123.589 70.6001ZM129.019 70.1573L128.702 69.8974C128.867 69.6992 129.007 69.4826 129.121 69.2519L129.489 69.4328C129.36 69.6915 129.202 69.9346 129.017 70.1573H129.019ZM122.585 69.2094C122.474 68.9431 122.394 68.6648 122.347 68.3801L122.752 68.3139C122.794 68.5674 122.865 68.8152 122.965 69.0523L122.585 69.2094ZM129.782 68.6164L129.385 68.5244C129.444 68.2739 129.473 68.0176 129.473 67.7604H129.884C129.882 68.05 129.847 68.3385 129.78 68.6203L129.782 68.6164ZM122.709 67.5459L122.299 67.5192C122.318 67.2316 122.37 66.9471 122.453 66.6711L122.851 66.7897C122.775 67.0356 122.727 67.2893 122.709 67.5459ZM129.447 67.4312C129.423 67.175 129.368 66.9226 129.284 66.679L129.673 66.5476C129.767 66.8207 129.828 67.1036 129.857 67.3907L129.447 67.4312ZM123.154 66.084L122.798 65.8794C122.943 65.63 123.117 65.3979 123.315 65.1875L123.613 65.4662C123.438 65.6546 123.285 65.8618 123.157 66.084H123.154ZM128.953 65.9851C128.816 65.7663 128.655 65.5636 128.473 65.3812L128.763 65.0916C128.968 65.2954 129.149 65.5215 129.302 65.7657L128.953 65.9851ZM124.203 64.969L123.974 64.629C124.215 64.4682 124.473 64.3355 124.744 64.2336L124.89 64.6152C124.649 64.7068 124.419 64.8255 124.206 64.969H124.203ZM127.867 64.9058C127.648 64.7706 127.415 64.6605 127.171 64.5776L127.303 64.1902C127.578 64.2827 127.841 64.4064 128.087 64.5588L127.867 64.9058ZM125.639 64.4303L125.585 64.0241C125.872 63.9876 126.163 63.9826 126.452 64.0093L126.412 64.4165C126.155 64.3927 125.897 64.3974 125.642 64.4303H125.639Z" fill="#1B1B43"/>
<path d="M229.383 158.894V146.987C229.383 139.767 229.383 132.563 229.383 125.359V114.313C229.383 113.915 222.51 113.584 214.246 113.584H212.524C204.277 113.584 197.387 113.915 197.387 114.313V158.927C197.387 159.325 204.26 159.656 212.524 159.656H214.246C222.493 159.672 229.383 159.325 229.383 158.894Z" fill="#D8DEED"/>
<path d="M180.512 199.501L180.578 199.534C180.926 199.716 181.373 199.617 181.539 199.302L200.931 163.68C201.114 163.349 200.965 162.935 200.617 162.753L200.551 162.72C200.203 162.537 199.756 162.637 199.59 162.951L194.787 171.762C191.657 177.525 188.528 183.271 185.381 189.034L180.198 198.54C180.015 198.871 180.164 199.302 180.512 199.501Z" fill="#D8DEED"/>
<path d="M228.654 162.14H216.515C209.162 162.14 201.809 162.14 194.473 162.14H183.212C182.814 162.14 182.466 162.471 182.466 162.869V162.951C182.466 163.349 182.798 163.68 183.212 163.68H228.687C229.084 163.68 229.432 163.349 229.432 162.951V162.869C229.432 162.471 229.084 162.14 228.654 162.14Z" fill="#D8DEED"/>
<path d="M234.583 198.54L229.399 189.034C226.269 183.271 223.139 177.525 219.993 171.762L215.19 162.951C215.024 162.637 214.577 162.521 214.23 162.72L214.163 162.753C213.816 162.935 213.666 163.365 213.849 163.68L233.241 199.302C233.407 199.617 233.854 199.733 234.202 199.534L234.268 199.501C234.616 199.302 234.765 198.871 234.583 198.54Z" fill="#D8DEED"/>
<path d="M216.71 198.043H200.037C199.923 198.043 199.814 198.065 199.717 198.105L201.191 189.39L212.921 187.941L216.71 198.043ZM195.802 198.081C195.728 198.056 195.648 198.043 195.566 198.043H169.251C169.167 198.043 169.086 198.057 169.01 198.083C168.961 198.001 168.924 197.91 168.903 197.811V197.795C168.903 197.712 168.887 197.629 168.903 197.546C168.92 197.447 168.92 197.364 168.953 197.265C169.168 196.52 169.748 195.89 170.129 195.543C170.179 195.493 170.212 195.476 170.261 195.443C170.99 194.996 171.735 194.582 172.514 194.234C174.037 193.539 177.416 192.115 178.426 191.601C179.734 190.939 181.539 189.813 183.427 187.792C183.526 187.743 183.659 187.676 183.659 187.676L195.251 187.395C195.251 187.395 195.301 187.56 195.301 187.577L195.881 197.729C195.881 197.855 195.852 197.974 195.802 198.081Z" fill="#474961"/>
<path d="M169.251 198.043H195.582C195.994 198.043 196.328 198.377 196.328 198.789C196.328 199.2 195.994 199.534 195.582 199.534H169.251C168.84 199.534 168.506 199.2 168.506 198.789C168.506 198.377 168.84 198.043 169.251 198.043ZM200.054 198.043H216.614C217.026 198.043 217.36 198.377 217.36 198.789C217.36 199.2 217.026 199.534 216.614 199.534H200.054C199.642 199.534 199.309 199.2 199.309 198.789C199.309 198.377 199.642 198.043 200.054 198.043Z" fill="#DE3190"/>
<path d="M215.704 160.297C215.704 160.543 215.704 160.791 215.704 161.042C215.704 169.482 215.406 181.563 215.306 185.575C215.29 186.099 215.356 187.534 214.362 188.445C213.965 188.799 213.534 188.954 213.269 189.046C210.338 190.018 206.231 190.034 201.727 189.663C201.429 189.633 200.948 189.463 200.302 189.278C199.325 188.985 198.613 188.121 198.514 187.087C198.05 182.551 196.775 170.161 196.676 169.065C196.543 167.677 196.427 166.103 196.328 164.313L196.002 159.124C194.281 158.759 192.64 158.359 191.087 157.94C193.214 166.476 195.288 175.399 197.123 184.264C197.206 184.653 197.355 185.559 196.924 186.416C196.129 187.986 194.059 187.921 189.107 188.536C183.278 189.281 180.844 190.041 179.519 188.472C179.072 187.97 178.923 187.436 178.873 187.193C177.664 180.833 171.669 162.337 169.334 149.068C169.334 149.035 169.317 149.019 169.317 148.987C169.134 147.93 169.165 146.89 169.38 145.914C169.841 141.366 173.634 137.773 178.32 137.676L192.487 137.38C198.681 137.269 218.732 136.623 219.325 137.191C219.917 137.758 220.16 142.511 220.226 144.531C220.226 145.273 220.226 146.031 220.243 146.757C220.243 150.309 219.63 153.561 218.603 156.071C217.891 157.808 216.997 159.181 215.987 160.066C215.893 160.147 215.799 160.224 215.704 160.297Z" fill="#A339FF"/>
<path opacity="0.176986" d="M215.675 160.319C215.678 157.403 215.694 154.893 215.725 153.246C215.758 151.826 216.006 144.019 212.793 142.399C212.512 142.26 212.23 142.137 211.667 141.936C211.22 141.782 208.902 140.964 205.921 141.087C203.983 141.165 201.068 141.288 198.667 143.232C195.338 145.948 195.421 150.191 195.454 150.885L195.971 159.117C194.245 158.751 192.601 158.35 191.045 157.929C189.97 153.614 188.881 149.398 187.803 145.338C186.81 141.6 183.315 139.173 179.622 139.642C178.248 139.82 176.873 139.998 175.499 140.176C172.436 140.582 170.11 142.867 169.397 145.758C169.928 141.284 173.687 137.772 178.32 137.676L192.487 137.38C198.681 137.269 218.732 136.623 219.325 137.191C219.917 137.758 220.16 142.511 220.226 144.531C220.226 145.273 220.226 146.031 220.243 146.757C220.243 150.309 219.63 153.561 218.603 156.071C217.891 157.808 216.997 159.181 215.987 160.066C215.884 160.155 215.78 160.24 215.675 160.319Z" fill="#444444"/>
<path d="M190.753 126.283L183.63 125.577C182.901 125.511 182.9 124.009 182.879 123.397C182.949 122.77 183.239 121.825 183.763 121.579C183.47 121.069 183.42 120.165 183.643 119.296C183.821 118.603 184.445 118.191 185.091 117.979C185.625 116.25 186.452 113.392 186.759 112.026C187.674 107.868 188.928 106.283 189.359 105.821C189.854 105.273 190.337 104.892 190.66 104.649C192.841 103.031 195.2 102.717 196.407 102.642C196.439 102.624 196.472 102.623 196.505 102.622L201.076 102.398C201.69 102.327 202.272 102.283 202.797 102.243C204.394 102.132 206.042 102.014 207.668 102.218L212.786 102.29C212.819 102.29 212.852 102.29 212.885 102.306C214.094 102.34 216.462 102.571 218.698 104.111C219.029 104.343 219.526 104.708 220.04 105.238C220.487 105.685 221.795 107.225 222.855 111.348C223.209 112.703 224.135 115.53 224.729 117.239C225.382 117.429 226.02 117.819 226.223 118.505C226.476 119.366 226.457 120.271 226.182 120.791C226.714 121.018 227.038 121.953 227.129 122.577C227.129 123.189 227.18 124.691 226.455 124.782L220.021 125.647C220.477 129.219 220.49 132.202 220.151 134.171C220.151 134.222 220.133 134.29 220.115 134.341C220.026 134.866 219.9 135.307 219.739 135.663C219.721 135.697 219.704 135.73 219.686 135.764C218.773 137.052 211.564 136.595 209.864 136.646C207.073 136.73 203.853 136.747 199.881 136.662C198.647 136.629 196.303 136.849 193.441 136.103C193.423 136.103 193.405 136.086 193.405 136.086C193.405 136.086 193.047 135.985 192.636 135.747C192.439 135.629 192.206 135.493 192.009 135.307C190.22 133.697 190.614 129.85 190.614 129.85C190.661 128.589 190.707 127.402 190.753 126.283Z" fill="#5655B8"/>
<path d="M206.794 97.5441L206.973 102.82C206.973 102.936 206.924 103.052 206.824 103.101C206.394 103.366 205.781 103.664 205.019 103.83C203.645 104.145 202.469 103.913 201.806 103.714C201.674 103.681 201.575 103.548 201.575 103.416L201.51 100.469C200.569 100.82 200.623 100.785 200.535 100.814C199.492 101.079 198.598 101.046 198.432 101.013C197.836 100.963 197.207 100.466 196.644 99.6215C195.882 98.4954 195.203 96.74 194.839 94.6368C194.772 94.3387 194.756 94.0406 194.739 93.7425L194.673 90.7782C194.656 90.1157 194.822 89.4699 195.137 88.8571C195.269 88.5922 195.402 88.3769 195.567 88.1947C195.602 88.1496 195.638 88.1055 195.674 88.0624C196.976 86.3809 199.565 86.1603 200.767 86.2902C200.916 86.3068 201.446 86.373 202.208 86.4227C202.622 86.4558 202.953 86.4558 203.152 86.4724C205.62 86.5718 206.597 86.2737 207.839 86.9361C208.071 87.052 208.6 87.3501 209.064 87.9297C210.372 89.5692 210.058 91.689 209.975 92.3183C209.677 94.2062 208.584 95.3654 208.253 95.8457C207.878 96.3981 207.26 97.067 206.794 97.5441ZM183.912 133.124L185.093 125.731L190.744 126.17L190.682 131.227C192.842 130.984 194.979 130.957 196.058 131.424C196.089 131.437 196.12 131.451 196.15 131.465C201.265 130.497 210.026 128.895 215.398 128.224L214.857 126.313L225.982 124.818C226.484 130.293 225.913 136.918 220.387 137.597C214.009 138.381 203.45 138.381 188.71 137.597H181.429C181.326 135.469 182.727 134.246 183.912 133.124Z" fill="#FFC3A8"/>
<path d="M209.657 93.5206C208.88 93.5216 208.14 93.5586 207.404 93.5998C207.514 93.0094 207.426 92.3626 207.04 91.8235C206.51 91.0783 205.516 90.6643 204.721 90.9293C204.274 91.0783 203.976 91.4261 203.943 91.4592C203.496 92.0223 203.396 92.6184 203.396 92.6184L203.313 93.44C201.982 92.062 200.287 90.3198 199.022 88.9897C198.276 89.194 197.045 89.3984 195.646 89.1011C195.455 89.0588 195.274 88.995 195.104 88.923C195.114 88.901 195.125 88.879 195.137 88.8571C195.269 88.5922 195.402 88.3769 195.567 88.1947C195.602 88.1496 195.638 88.1055 195.674 88.0624C196.976 86.3809 199.565 86.1603 200.767 86.2902C200.916 86.3068 201.446 86.373 202.208 86.4227C202.622 86.4558 202.953 86.4558 203.152 86.4724C205.62 86.5718 206.597 86.2737 207.839 86.9361C208.071 87.052 208.6 87.3501 209.064 87.9297C210.372 89.5692 210.058 91.689 209.975 92.3183C209.906 92.7585 209.793 93.159 209.657 93.5206ZM195.331 92.8503C195.166 92.8172 195.116 92.6019 195.232 92.4859C195.381 92.3535 195.646 92.221 195.977 92.221C196.656 92.221 197.385 92.6681 196.623 92.8668C196.176 92.9993 195.646 92.9331 195.331 92.8503ZM198.743 92.9662C198.577 92.9331 198.527 92.7178 198.66 92.6019C198.809 92.4694 199.074 92.3369 199.422 92.3369C200.101 92.3369 200.829 92.8006 200.068 92.9828C199.587 93.1318 199.074 93.0324 198.743 92.9662Z" fill="#482D1F"/>
<path opacity="0.2" d="M183.899 133.164L185.093 125.731L190.744 126.17L190.681 131.254C187.739 131.584 184.754 132.313 184.343 132.733C184.201 132.876 184.052 133.019 183.899 133.164Z" fill="#FFC3A8"/>
<path d="M196.623 94.0261C196.606 94.3076 196.557 94.7713 196.391 94.9369C196.109 95.1853 195.745 94.3573 195.96 93.8439C196.043 93.6286 196.159 93.5955 196.292 93.6121C196.49 93.6452 196.623 93.8274 196.623 94.0261ZM199.587 93.9764C199.604 94.2579 199.604 94.7216 199.438 94.9204C199.19 95.2019 198.726 94.407 198.892 93.877C198.958 93.6618 199.074 93.6121 199.206 93.6121C199.405 93.6121 199.571 93.7777 199.587 93.9764Z" fill="#482D1F"/>
<path d="M198.229 97.3879C198.345 97.3548 198.627 97.272 198.676 97.0898C198.676 97.0567 198.693 97.007 198.676 96.9739C198.61 96.8579 198.411 96.9242 198.113 96.9407C197.583 96.9739 197.153 96.9242 197.153 96.9242C197.153 96.9242 197.269 97.2554 197.352 97.3548C197.534 97.6032 198.064 97.4376 198.229 97.3879Z" fill="#482D1F"/>
<path d="M196.856 95.8082C196.825 95.9949 196.97 96.1784 197.159 96.2098C197.2 96.2136 197.2 96.2136 197.227 96.2157C197.506 96.2372 197.681 96.2452 197.981 96.2452C198.072 96.2452 198.146 96.171 198.146 96.0796C198.146 95.9881 198.072 95.914 197.981 95.914C197.69 95.914 197.524 95.9064 197.252 95.8855L197.199 95.8813C197.198 95.8806 197.183 95.8616 197.184 95.8584L197.433 94.0822L197.434 94.0592V93.0821C197.434 92.9906 197.36 92.9165 197.269 92.9165C197.177 92.9165 197.103 92.9906 197.103 93.0821V94.0476L196.856 95.8082Z" fill="#482D1F"/>
<path d="M207.406 92.7268C207.481 93.212 207.394 93.7403 207.174 94.1651C206.906 94.7005 206.529 94.9924 206.043 95.2171C205.959 95.2554 205.923 95.3538 205.962 95.4369C206 95.5199 206.098 95.5562 206.181 95.5178C206.395 95.4191 206.565 95.3237 206.762 95.1713C207.052 94.9469 207.294 94.6652 207.469 94.3154C207.72 93.8304 207.82 93.2308 207.733 92.6756C207.719 92.5853 207.634 92.5235 207.544 92.5376C207.453 92.5517 207.392 92.6364 207.406 92.7268Z" fill="#482D1F"/>
<path d="M196.701 94.0612C196.685 94.3428 196.635 94.8065 196.47 94.9721C196.188 95.2205 195.824 94.3925 196.039 93.8791C196.122 93.6638 196.238 93.6307 196.37 93.6472C196.569 93.6803 196.701 93.8625 196.701 94.0612ZM199.666 94.0116C199.682 94.2931 199.682 94.7568 199.517 94.9555C199.268 95.237 198.805 94.4421 198.97 93.9122C199.036 93.6969 199.152 93.6472 199.285 93.6472C199.484 93.6472 199.649 93.8128 199.666 94.0116Z" fill="#482D1F"/>
<path d="M198.308 97.4231C198.424 97.3899 198.705 97.3071 198.755 97.125C198.755 97.0919 198.772 97.0422 198.755 97.009C198.689 96.8931 198.49 96.9594 198.192 96.9759C197.662 97.009 197.231 96.9594 197.231 96.9594C197.231 96.9594 197.347 97.2906 197.43 97.3899C197.612 97.6384 198.142 97.4727 198.308 97.4231Z" fill="#482D1F"/>
<path d="M207.485 92.762C207.56 93.2472 207.473 93.7755 207.253 94.2003C206.985 94.7357 206.608 95.0276 206.121 95.2523C206.038 95.2906 206.002 95.389 206.04 95.4721C206.079 95.5551 206.177 95.5914 206.26 95.553C206.474 95.4542 206.644 95.3589 206.841 95.2065C207.13 94.982 207.373 94.7004 207.548 94.3506C207.799 93.8656 207.898 93.266 207.812 92.7108C207.798 92.6205 207.713 92.5587 207.623 92.5728C207.532 92.5869 207.47 92.6716 207.485 92.762Z" fill="#482D1F"/>
<path d="M215.097 126.362C215.137 126.493 215.064 126.632 214.932 126.673C214.801 126.713 214.662 126.639 214.622 126.508C214.15 124.974 212.643 120.326 212.325 119.467C212.277 119.338 212.342 119.195 212.471 119.147C212.6 119.1 212.743 119.165 212.79 119.294C213.113 120.164 214.622 124.819 215.097 126.362ZM192.481 112.452C192.067 116.279 191.736 119.333 190.991 126.197C190.976 126.333 190.854 126.432 190.717 126.417C190.581 126.402 190.482 126.28 190.497 126.143C191.242 119.279 191.574 116.226 191.988 112.398C192.002 112.262 192.125 112.163 192.261 112.178C192.398 112.193 192.496 112.315 192.481 112.452Z" fill="#482D1F"/>
<path d="M201.514 100.528L202.87 99.9231L201.546 102.106L201.514 100.528Z" fill="#482D1F"/>
<path d="M168.431 137.357C168.596 137.648 168.909 137.845 169.267 137.845H193.065C193.595 137.845 194.009 137.415 194.009 136.885C194.009 136.355 193.578 135.924 193.065 135.924H169.917L161.848 114.213C161.666 113.716 161.12 113.468 160.623 113.65C160.126 113.832 159.878 114.379 160.06 114.876L168.357 137.199C168.377 137.255 168.402 137.307 168.431 137.357Z" fill="#474961"/>
</svg>
