<svg width="284" height="226" viewBox="0 0 284 226" fill="none" xmlns="http://www.w3.org/2000/svg">
<g clip-path="url(#clip0_113_1312)">
<path d="M195.381 42.6947C195.114 40.9467 194.449 39.2818 193.385 37.6999C192.322 36.118 190.763 34.7153 188.709 33.492C186.658 32.2698 183.953 31.4259 180.596 30.9603C177.917 30.5888 175.136 30.5752 172.254 30.9193C169.372 31.2634 166.811 31.9708 164.572 33.0417L166.213 40.8042L164.622 41.7734L166.61 42.676C168.805 41.8785 170.777 41.3518 172.527 41.0959C174.277 40.84 176.095 40.8443 177.983 41.1087C179.873 41.3707 181.239 42.0291 182.083 43.0838C182.926 44.1411 183.257 45.3176 183.077 46.6146C182.859 48.1848 182.168 49.5097 181.003 50.5893C179.837 51.6688 178.564 52.7479 177.181 53.8264C176.222 54.5747 175.285 55.3546 174.369 56.1659C173.455 56.9767 172.619 57.873 171.872 58.8428C171.109 59.834 170.462 60.9106 169.943 62.0511C169.405 63.2189 169.032 64.5601 168.824 66.075C168.756 66.5639 168.685 67.1468 168.62 67.8278C168.607 67.953 168.597 68.0758 168.587 68.197L166.628 67.9253L168.564 69.6818L178.958 71.1232C178.954 70.7392 178.98 70.3554 179.037 69.9756L179.172 68.9998C179.305 68.0656 179.621 67.167 180.1 66.356C180.596 65.5085 181.177 64.715 181.834 63.9883C182.504 63.2464 183.23 62.5588 184.006 61.932C184.789 61.2942 185.542 60.6943 186.262 60.1324C187.221 59.384 188.214 58.584 189.242 57.7325C190.252 56.8996 191.186 55.9767 192.033 54.9752C192.882 53.9618 193.614 52.8546 194.215 51.675C194.838 50.4653 195.255 49.1023 195.467 47.5862C195.679 46.0701 195.65 44.4396 195.381 42.6947Z" fill="#E49B31"/>
<path d="M175.854 40.2882C173.984 40.0289 172.188 40.0198 170.464 40.2608C168.74 40.5018 166.793 41.0061 164.622 41.7738L162.583 32.4402C164.789 31.411 167.316 30.7332 170.165 30.407C173.013 30.0809 175.76 30.1019 178.406 30.4702C181.725 30.9305 184.399 31.7551 186.429 32.9439C188.458 34.1328 190.002 35.4951 191.06 37.0307C192.114 38.567 192.776 40.1809 193.045 41.8724C193.314 43.5639 193.346 45.1433 193.142 46.6108C192.938 48.079 192.53 49.3975 191.917 50.5663C191.325 51.7084 190.605 52.7783 189.771 53.755C188.935 54.724 188.015 55.6148 187.021 56.4168C186.008 57.2385 185.029 58.01 184.082 58.7316C183.372 59.2746 182.63 59.8534 181.858 60.4678C181.095 61.0716 180.379 61.7353 179.719 62.4527C179.072 63.1531 178.5 63.9198 178.012 64.7401C177.541 65.5223 177.232 66.3922 177.103 67.2975L176.972 68.2413C176.916 68.609 176.892 68.9807 176.898 69.3525L166.624 67.9278C166.592 67.3292 166.609 66.729 166.674 66.1329C166.737 65.474 166.804 64.9097 166.87 64.4363C167.073 62.9701 167.438 61.6725 167.965 60.5435C168.475 59.439 169.112 58.3982 169.862 57.4426C170.6 56.504 171.425 55.6385 172.325 54.858C173.227 54.0752 174.151 53.3221 175.097 52.5984C176.457 51.5591 177.713 50.518 178.864 49.4753C180.01 48.4322 180.689 47.1513 180.902 45.6326C181.076 44.3737 180.746 43.2355 179.91 42.2092C179.074 41.1829 177.721 40.5472 175.854 40.2882Z" fill="#FFCB3D"/>
<path d="M178.256 81.4139C177.993 83.3067 177.184 84.6837 175.828 85.545C174.472 86.4062 173.029 86.7315 171.497 86.5206C169.964 86.308 168.663 85.6022 167.594 84.4032C166.525 83.2042 166.122 81.659 166.384 79.7676C166.646 77.8775 167.455 76.5005 168.81 75.6368C170.898 74.3039 173.71 74.3334 175.743 75.7526C177.545 77.0134 178.562 79.206 178.256 81.4139Z" fill="#E49B31"/>
<path d="M176.222 81.1319C175.96 83.0247 175.151 84.4017 173.795 85.263C172.439 86.1243 170.995 86.4495 169.464 86.2387C167.931 86.026 166.629 85.3202 165.561 84.1212C164.492 82.9222 164.088 81.377 164.35 79.4857C164.612 77.5955 165.421 76.2186 166.776 75.3548C168.131 74.4911 169.576 74.1659 171.109 74.3794C172.64 74.5917 173.94 75.2975 175.01 76.4966C176.08 77.6958 176.484 79.2409 176.222 81.1319Z" fill="#FBC343"/>
</g>
<g clip-path="url(#clip1_113_1312)">
<path d="M158.684 25.5488C158.599 24.9944 158.388 24.4663 158.051 23.9645C157.714 23.4627 157.219 23.0178 156.568 22.6297C155.917 22.242 155.059 21.9743 153.994 21.8266C153.145 21.7088 152.263 21.7045 151.348 21.8136C150.434 21.9228 149.622 22.1472 148.912 22.4869L149.432 24.9492L148.927 25.2566L149.558 25.5429C150.254 25.2899 150.88 25.1229 151.435 25.0417C151.99 24.9605 152.567 24.9619 153.166 25.0458C153.765 25.1289 154.198 25.3377 154.466 25.6723C154.734 26.0076 154.838 26.3808 154.781 26.7922C154.712 27.2903 154.493 27.7106 154.123 28.053C153.754 28.3955 153.35 28.7377 152.911 29.0798C152.607 29.3172 152.31 29.5646 152.019 29.8219C151.729 30.0791 151.464 30.3634 151.227 30.6711C150.985 30.9855 150.78 31.327 150.615 31.6888C150.445 32.0592 150.326 32.4846 150.26 32.9651C150.239 33.1202 150.216 33.3051 150.195 33.5211C150.191 33.5608 150.188 33.5998 150.185 33.6382L149.564 33.5521L150.178 34.1092L153.475 34.5664C153.473 34.4447 153.482 34.3229 153.5 34.2024L153.543 33.8929C153.585 33.5966 153.685 33.3115 153.837 33.0543C153.994 32.7855 154.179 32.5338 154.387 32.3032C154.599 32.0679 154.83 31.8498 155.076 31.651C155.325 31.4487 155.563 31.2584 155.792 31.0801C156.096 30.8427 156.411 30.589 156.737 30.3189C157.057 30.0547 157.354 29.7619 157.622 29.4442C157.891 29.1228 158.124 28.7716 158.314 28.3974C158.512 28.0137 158.644 27.5814 158.711 27.1005C158.779 26.6195 158.77 26.1023 158.684 25.5488Z" fill="#E49B31"/>
<path d="M152.49 24.7855C151.897 24.7032 151.327 24.7003 150.78 24.7768C150.234 24.8532 149.616 25.0132 148.927 25.2567L148.281 22.2961C148.98 21.9696 149.782 21.7546 150.686 21.6511C151.589 21.5477 152.46 21.5544 153.3 21.6712C154.352 21.8172 155.201 22.0787 155.844 22.4559C156.488 22.833 156.978 23.2651 157.314 23.7522C157.648 24.2395 157.858 24.7514 157.943 25.288C158.029 25.8245 158.039 26.3255 157.974 26.791C157.909 27.2568 157.78 27.675 157.586 28.0457C157.398 28.408 157.169 28.7474 156.905 29.0572C156.64 29.3645 156.348 29.6471 156.032 29.9015C155.711 30.1622 155.4 30.4069 155.1 30.6358C154.875 30.808 154.64 30.9916 154.395 31.1865C154.153 31.378 153.926 31.5886 153.716 31.8161C153.511 32.0383 153.33 32.2815 153.175 32.5417C153.025 32.7898 152.927 33.0658 152.886 33.3529L152.845 33.6523C152.827 33.7689 152.819 33.8869 152.821 34.0048L149.562 33.5528C149.552 33.363 149.558 33.1726 149.578 32.9835C149.598 32.7745 149.62 32.5955 149.64 32.4453C149.705 31.9803 149.821 31.5687 149.988 31.2105C150.15 30.8602 150.352 30.53 150.589 30.2269C150.824 29.9292 151.085 29.6547 151.371 29.4071C151.657 29.1588 151.95 28.9199 152.25 28.6903C152.681 28.3606 153.08 28.0304 153.445 27.6997C153.809 27.3688 154.024 26.9625 154.091 26.4807C154.147 26.0814 154.042 25.7204 153.777 25.3948C153.512 25.0693 153.082 24.8676 152.49 24.7855Z" fill="#FFCB3D"/>
<path d="M153.252 37.8307C153.169 38.4311 152.912 38.8679 152.482 39.1411C152.052 39.4143 151.594 39.5175 151.108 39.4506C150.622 39.3831 150.209 39.1593 149.87 38.7789C149.531 38.3986 149.403 37.9085 149.486 37.3085C149.569 36.709 149.826 36.2722 150.256 35.9982C150.918 35.5754 151.81 35.5848 152.455 36.0349C153.027 36.4349 153.349 37.1304 153.252 37.8307Z" fill="#E49B31"/>
<path d="M152.607 37.7412C152.524 38.3416 152.267 38.7784 151.837 39.0516C151.407 39.3248 150.949 39.428 150.463 39.3611C149.977 39.2937 149.564 39.0698 149.225 38.6894C148.886 38.3091 148.758 37.819 148.841 37.219C148.924 36.6195 149.181 36.1827 149.611 35.9087C150.04 35.6347 150.499 35.5316 150.985 35.5993C151.471 35.6666 151.883 35.8905 152.222 36.2709C152.562 36.6513 152.69 37.1414 152.607 37.7412Z" fill="#FBC343"/>
</g>
<g clip-path="url(#clip2_113_1312)">
<path d="M215.186 50.0614C214.896 49.5817 214.499 49.1747 213.995 48.8404C213.491 48.506 212.864 48.2844 212.114 48.1754C211.364 48.0665 210.469 48.1478 209.429 48.4193C208.598 48.6359 207.782 48.9697 206.979 49.4207C206.177 49.8717 205.512 50.3901 204.986 50.9758L206.41 53.051L206.062 53.5283L206.754 53.5513C207.3 53.0509 207.814 52.657 208.296 52.3694C208.777 52.0819 209.311 51.8622 209.896 51.7103C210.481 51.5576 210.962 51.5845 211.337 51.791C211.713 51.9983 211.952 52.3029 212.057 52.7048C212.184 53.1914 212.143 53.6636 211.932 54.1215C211.722 54.5794 211.48 55.0503 211.206 55.5343C211.016 55.8701 210.836 56.2124 210.666 56.5614C210.497 56.91 210.361 57.2743 210.26 57.6492C210.156 58.0323 210.098 58.4264 210.084 58.8236C210.068 59.2311 210.122 59.6695 210.245 60.1386C210.285 60.2902 210.335 60.4695 210.398 60.677C210.41 60.7152 210.422 60.7525 210.434 60.7891L209.827 60.9475L210.607 61.2271L213.828 60.3866C213.78 60.2747 213.741 60.159 213.712 60.0408L213.633 59.7385C213.558 59.4486 213.541 59.1469 213.583 58.851C213.626 58.5425 213.7 58.2394 213.804 57.9466C213.91 57.6479 214.039 57.3582 214.19 57.0802C214.343 56.7982 214.49 56.531 214.633 56.2788C214.823 55.9431 215.017 55.588 215.215 55.2136C215.409 54.8468 215.571 54.4629 215.697 54.0665C215.823 53.6665 215.903 53.2532 215.936 52.8345C215.971 52.4044 215.928 51.9543 215.806 51.4843C215.684 51.0143 215.477 50.54 215.186 50.0614Z" fill="#E49B31"/>
<path d="M209.172 51.7286C208.593 51.8798 208.065 52.0954 207.59 52.3754C207.114 52.6554 206.605 53.0397 206.062 53.5284L204.33 51.0412C204.852 50.4716 205.51 49.966 206.305 49.5244C207.1 49.0828 207.907 48.7552 208.727 48.5418C209.756 48.2734 210.64 48.1901 211.379 48.2919C212.118 48.3937 212.736 48.6053 213.232 48.9268C213.728 49.2488 214.118 49.6413 214.402 50.1043C214.686 50.5672 214.888 51.0261 215.006 51.481C215.125 51.9359 215.165 52.3718 215.128 52.7888C215.093 53.1954 215.012 53.5964 214.886 53.9839C214.759 54.3693 214.598 54.7421 214.404 55.0979C214.207 55.4617 214.014 55.8068 213.824 56.1332C213.682 56.3786 213.535 56.6383 213.383 56.9121C213.233 57.1818 213.104 57.4632 212.997 57.7537C212.893 58.0374 212.819 58.3315 212.775 58.6312C212.732 58.9176 212.747 59.2101 212.819 59.4911L212.896 59.7835C212.924 59.898 212.962 60.0099 213.009 60.1181L209.826 60.9488C209.744 60.7773 209.676 60.5993 209.622 60.4168C209.561 60.2161 209.512 60.0425 209.474 59.8958C209.355 59.4415 209.304 59.0169 209.322 58.6221C209.337 58.2365 209.397 57.8542 209.501 57.4831C209.603 57.1184 209.739 56.7646 209.908 56.4264C210.078 56.0876 210.257 55.7546 210.446 55.4277C210.718 54.9579 210.96 54.5003 211.17 54.0549C211.38 53.61 211.423 53.1521 211.301 52.6813C211.199 52.2912 210.964 51.9979 210.594 51.7987C210.225 51.5995 209.751 51.5776 209.172 51.7286Z" fill="#FFCB3D"/>
<path d="M214.872 63.4873C215.025 64.0738 214.956 64.5756 214.663 64.9927C214.37 65.4098 213.987 65.6805 213.512 65.8047C213.037 65.9287 212.57 65.88 212.111 65.6585C211.653 65.437 211.347 65.0333 211.194 64.4472C211.041 63.8615 211.11 63.3598 211.403 62.9421C211.853 62.2978 212.68 61.9649 213.448 62.1338C214.129 62.2842 214.694 62.8032 214.872 63.4873Z" fill="#E49B31"/>
<path d="M214.242 63.6518C214.395 64.2382 214.325 64.74 214.033 65.1572C213.74 65.5743 213.357 65.8449 212.882 65.9691C212.407 66.0931 211.94 66.0444 211.481 65.8229C211.022 65.6014 210.717 65.1977 210.564 64.6116C210.411 64.0259 210.48 63.5242 210.773 63.1065C211.065 62.6888 211.448 62.4181 211.923 62.2944C212.398 62.1706 212.865 62.2194 213.324 62.4408C213.783 62.6622 214.089 63.0658 214.242 63.6518Z" fill="#FBC343"/>
</g>
<path d="M64.8408 205C64.3737 205 64 204.676 64 204.288V204.029C64 203.641 64.3924 203.318 64.8408 203.318H83.9934C84.4605 203.318 84.8342 203.641 84.8342 204.029V204.288C84.8342 204.676 84.4418 205 83.9934 205H64.8408ZM116.226 203.318H147.991C148.455 203.318 148.832 203.694 148.832 204.159C148.832 204.623 148.455 205 147.991 205H116.226C115.761 205 115.385 204.623 115.385 204.159C115.385 203.694 115.761 203.318 116.226 203.318Z" fill="#FF5645"/>
<path d="M148.091 203.324C148.058 203.32 148.025 203.318 147.991 203.318H116.226C116.172 203.318 116.12 203.323 116.07 203.332L117.571 191.356H131.622C132.974 192.318 134.088 193.141 134.967 193.823C135.226 194.024 135.481 194.226 135.732 194.428C136.973 195.429 138.337 196.267 139.79 196.922C141.234 197.572 142.679 198.246 144.123 198.944C145.02 199.374 145.879 199.841 146.739 200.383C147.15 200.757 147.879 201.505 148.103 202.402C148.14 202.552 148.14 202.701 148.159 202.832C148.159 203.007 148.133 203.172 148.091 203.324ZM84.3004 203.367C84.2055 203.335 84.102 203.318 83.9934 203.318H65.0813C65.8383 201.676 67.5271 197.692 70.1476 191.365H84.9646L84.3004 203.367Z" fill="#474961"/>
<path d="M104.903 131.91L90.4122 183.938C89.7369 186.363 87.5288 188.04 85.0123 188.04H73.1865C70.0907 188.04 67.5809 185.53 67.5809 182.433C67.5809 181.957 67.6415 181.483 67.7612 181.023L83.3452 121.04C85.6224 108.577 87.537 100.491 89.089 96.781C91.5387 90.9249 96.3668 88.0027 98.4589 87.8543C108.324 87.1549 113.411 87.4483 113.722 88.7343C116.393 89.5199 123.237 100.597 129.063 127.706C132.663 144.458 134.603 162.86 134.884 182.913C134.928 186.009 132.454 188.555 129.358 188.598C129.331 188.599 129.304 188.599 129.277 188.599L118.275 188.594C115.311 188.593 112.86 186.284 112.682 183.325L110.172 141.733L104.903 131.91Z" fill="#A339FF"/>
<path d="M138.542 59.4171L139.464 72.595C139.514 73.3158 138.971 73.941 138.25 73.9914L133.404 74.3304C132.683 74.3808 132.058 73.8373 132.008 73.1165L130.887 57.0817C130.88 56.9828 130.884 56.8857 130.899 56.7917L130.795 56.7563L125.652 55.9C123.855 55.6008 122.479 54.1387 122.288 52.3266L122.288 52.3219C122.097 50.5066 123.126 48.7828 124.813 48.0889L130.003 45.9551L141.309 38.3006C141.501 38.1704 141.724 38.0937 141.956 38.0785C142.677 38.0313 143.3 38.5775 143.347 39.2985L144.677 59.607C144.689 59.78 144.666 59.9535 144.609 60.1174C144.375 60.8008 143.631 61.1646 142.947 60.93L138.542 59.4171Z" fill="#AED6F1"/>
<path opacity="0.176986" d="M137.021 55.3751L132.175 55.7141C131.454 55.7645 130.911 56.3897 130.961 57.1105L132.082 73.1453C132.132 73.8661 132.757 74.4096 133.478 74.3592L138.324 74.0202C139.045 73.9698 139.588 73.3446 139.538 72.6238L138.417 56.589C138.367 55.8682 137.742 55.3247 137.021 55.3751Z" fill="#444444"/>
<path d="M144.123 38.5253C144.065 37.7015 143.351 37.0804 142.527 37.138C141.704 37.1956 141.083 37.9101 141.14 38.7339L142.639 60.1758C142.697 60.9996 143.411 61.6207 144.235 61.5631C145.058 61.5055 145.679 60.791 145.622 59.9672L144.123 38.5253Z" fill="#4669B1"/>
<path d="M111.233 58.5656C114.243 59.8949 116.42 62.4192 117.231 65.2735C117.511 66.2454 117.563 67.2921 117.458 68.3014L116.304 81.4409C116.286 81.6465 116.269 81.8334 116.269 82.039C116.251 83.0109 116.059 84.2071 115.307 85.1977C114.222 86.6556 112.543 88.7116 105.547 88.6368C99.0404 88.562 97.4837 86.5061 96.4342 85.0856C95.6821 84.0763 95.5247 82.6932 95.5072 81.7587C95.5072 81.5531 95.4897 81.3661 95.4722 81.1606L94.9732 74.7428C94.4978 75.1332 94.0554 75.4337 93.6532 75.612C92.1165 76.293 91.0831 74.9397 90.553 71.5521C88.864 69.3741 83.871 66.1996 92.0207 59.9982C95.0752 57.6739 97.914 57.6038 100.08 58.5802C101.478 58.0003 103.07 57.6541 104.788 57.5853L104.823 57.088C104.859 56.5732 105.305 56.185 105.82 56.221L110.48 56.5469C110.995 56.5829 111.383 57.0295 111.347 57.5444L111.295 58.2902C111.288 58.3871 111.266 58.4796 111.233 58.5656Z" fill="#FFCB3D"/>
<path d="M70.1476 191.365L71.3902 187.758L85.254 188.04L84.9646 191.365H70.1476ZM127.741 121.788C122.216 98.8553 116.155 89.3656 113.71 88.7247C113.708 88.7127 113.706 88.7008 113.703 88.6889C115.446 87.4504 117.518 85.6984 119.92 83.433C125.774 93.0723 128.908 102.496 129.323 111.705C129.562 117.021 129.035 120.382 127.741 121.788ZM129.449 62.1127C129.555 62.0613 129.67 62.0234 129.792 62.0019L138.073 60.5414C138.784 60.4159 139.463 60.8911 139.588 61.6027L139.686 62.1549C139.744 62.4833 139.674 62.8046 139.511 63.0678C139.741 63.2587 139.906 63.5287 139.962 63.8456L140.059 64.3978C140.143 64.873 139.959 65.3336 139.616 65.6245C140.071 65.7637 140.434 66.1477 140.523 66.6492L140.62 67.2013C140.745 67.913 140.27 68.5915 139.559 68.717L132.823 69.905C122.197 81.8227 114.823 88.6738 110.7 90.4583C106.965 92.0754 101.301 87.0833 93.7098 75.482C96.0198 74.3277 99.5706 69.4312 103.101 66.5333C103.145 66.4969 103.188 66.4595 103.229 66.421L110.475 75.7109C123.117 66.6295 129.439 62.0889 129.439 62.0889L129.449 62.1127ZM111.059 54.7127L110.944 56.7714C107.659 56.6716 105.834 56.5179 105.468 56.3103L105.577 52.8907L105.468 51.5868L105.562 50.531L107.08 50.69L107.156 50.515C107.136 50.4977 107.135 50.4791 107.135 50.4791C107.066 50.2965 106.888 50.1591 106.739 50.1695C106.397 50.0998 105.88 49.9485 105.422 49.5497C104.782 48.9761 104.359 48.0127 104.589 47.0223C104.804 46.0705 104.874 44.5663 105.77 44.5224C106.275 44.5058 107.076 44.489 107.135 44.5224C107.194 44.5557 108.426 45.3674 108.376 44.9213C108.343 44.6238 108.169 43.0371 107.856 40.1611C107.835 39.8628 108.041 39.5861 108.338 39.5466C108.877 39.4902 109.393 39.3791 109.925 39.2108C110.498 39.0958 110.904 39.0112 111.033 38.9834C111.937 38.789 113.581 38.7302 115.077 39.2251C115.713 39.4804 116.339 39.8675 116.884 40.429C117.025 40.569 117.169 40.7463 117.312 40.9237C117.353 40.977 117.395 41.0303 117.437 41.1023C117.854 41.7102 118.11 42.423 118.162 43.1688L118.451 46.5023C118.456 46.8393 118.48 47.1749 118.447 47.5144C118.179 51.7114 116.727 54.792 115.194 55.1053C115.011 55.1556 114.01 55.3192 112.799 55.1417C112.685 55.1122 112.781 55.143 111.141 54.733C111.114 54.7262 111.086 54.7194 111.059 54.7127ZM117.502 192.428L117.909 188.599L130.47 188.453L131.688 191.517L117.502 192.428Z" fill="#FFD6BA"/>
<path opacity="0.176986" d="M104.852 131.789L113.667 88.8349C113.669 88.794 113.666 88.754 113.659 88.7148C116.273 89.3052 123.194 100.332 129.077 127.706C132.686 144.499 134.623 162.909 134.889 182.936C134.929 185.943 132.525 188.413 129.519 188.453C129.495 188.453 129.47 188.453 129.446 188.453C127.789 188.453 124.088 188.482 118.343 188.538C115.357 188.567 112.872 186.25 112.692 183.269L110.186 141.733L104.852 131.789Z" fill="#444444"/>
<path opacity="0.2" d="M127.741 121.788C122.216 98.8554 116.154 89.3657 113.71 88.7247C113.708 88.7127 113.706 88.7008 113.703 88.689C115.446 87.4504 117.518 85.6984 119.92 83.433C125.774 93.0724 128.908 102.496 129.323 111.705C129.562 117.021 129.035 120.382 127.741 121.788Z" fill="#FFC3A8"/>
<path d="M110.964 56.54L109.028 54.1367L111.12 54.7273L110.964 56.54Z" fill="#482D1F"/>
<path d="M108.961 46.6125L108.747 46.2069C108.747 46.2069 108.407 45.6311 107.725 45.2479C107.666 45.2145 107.239 45.0008 106.734 45.0174C105.838 45.0613 104.997 45.8883 104.783 46.8401C104.534 47.8319 104.957 48.7953 105.595 49.3502C106.234 49.9238 107.101 49.988 107.348 50.027L107.353 50.0264C107.727 50.8026 107.763 51.6326 107.46 52.5166C107.197 53.2819 106.466 54.0044 105.599 54.5908L103.95 54.4798L105.518 52.4157C104.922 51.935 104.009 51.1608 103.466 50.5109C103.037 49.9975 101.663 48.8383 101.123 46.7401C101.066 46.4902 100.953 46.032 100.892 45.455C99.8453 46.0315 98.5828 46.2578 97.2985 46.0081C94.4621 45.4566 92.5938 42.7917 93.1254 40.0558C93.6571 37.3199 96.3874 35.5491 99.2238 36.1006C101.407 36.5252 103.017 38.2022 103.4 40.1999C104.59 39.6089 105.754 39.7635 108.272 39.4201C108.495 39.3858 108.865 39.3224 109.347 39.2512C109.551 39.2182 109.717 39.1878 109.884 39.1575C110.456 39.0425 110.862 38.9578 110.992 38.9301C111.896 38.7357 113.54 38.6769 115.036 39.1718C115.672 39.4271 116.298 39.8142 116.843 40.3757C116.984 40.5157 117.577 41.1606 117.721 41.3379C117.898 41.9432 117.26 42.1807 116.82 42.3239C115.445 42.7573 113.517 41.8262 112.758 41.6919C111.536 43.2388 110.332 44.7657 109.129 46.3113C109.075 46.4044 109.019 46.5051 108.961 46.6125ZM118.869 45.7382C118.5 45.8325 117.925 45.9374 117.414 45.8145C116.561 45.6159 117.358 45.1062 118.123 45.0661C118.496 45.0466 118.785 45.1999 118.961 45.3404C119.116 45.4446 119.054 45.6911 118.869 45.7382ZM115.274 46.0176C114.913 46.1373 114.347 46.2821 113.789 46.1812C112.927 46.0611 113.683 45.4786 114.444 45.3852C114.833 45.3373 115.132 45.4701 115.317 45.598C115.5 45.7074 115.455 45.9577 115.274 46.0176Z" fill="#482D1F"/>
<path d="M117.586 47.2559C117.585 47.0308 117.755 46.8283 117.978 46.8088C118.127 46.7957 118.264 46.8588 118.341 47.096C118.56 47.6771 118.079 48.6011 117.79 48.3074C117.603 48.0986 117.576 47.5756 117.586 47.2559ZM114.255 47.5661C114.255 47.341 114.424 47.1385 114.648 47.119C114.797 47.1059 114.933 47.169 115.01 47.4062C115.23 47.9873 114.748 48.9113 114.46 48.6176C114.273 48.4088 114.246 47.8859 114.255 47.5661ZM115.935 51.1709C115.803 51.1405 115.48 51.0638 115.414 50.8614C115.412 50.8241 115.39 50.769 115.407 50.7307C115.475 50.5962 115.702 50.6591 116.039 50.6601C116.637 50.6475 117.12 50.5661 117.12 50.5661C117.12 50.5661 117.009 50.9462 116.921 51.0631C116.75 51.3715 116.143 51.2162 115.935 51.1709ZM116.662 47.5353L116.661 47.523L116.658 47.5109L116.662 47.5353ZM117.061 49.4924C117.108 49.7028 116.956 49.918 116.745 49.9647C116.721 49.9696 116.7 49.9738 116.678 49.9777C116.547 50.0019 116.425 50.0164 116.197 50.0374C116.162 50.0406 116.029 50.0526 116.027 50.0528C115.953 50.0595 115.892 50.0651 115.83 50.0711C115.727 50.081 115.636 50.0057 115.626 49.903C115.616 49.8002 115.691 49.7089 115.794 49.6991C115.857 49.6929 115.918 49.6873 115.993 49.6805C115.995 49.6803 116.128 49.6683 116.163 49.6651C116.38 49.6452 116.494 49.6316 116.611 49.6101C116.629 49.6066 116.648 49.603 116.666 49.5992C116.681 49.596 116.697 49.5736 116.696 49.5701L116.292 47.5855L116.289 47.5612L116.212 46.4609C116.205 46.3579 116.283 46.2687 116.386 46.2615C116.489 46.2544 116.578 46.332 116.585 46.435L116.661 47.523L117.061 49.4924Z" fill="#482D1F"/>
<path d="M103.462 66.5831C103.339 64.2757 102.748 62.0693 101.69 59.9663C101.62 59.828 101.452 59.7722 101.314 59.8418C101.175 59.9114 101.12 60.0799 101.189 60.2182C102.212 62.2525 102.783 64.3834 102.903 66.6131C102.911 66.7678 103.043 66.8864 103.197 66.8781C103.352 66.8698 103.471 66.7377 103.462 66.5831Z" fill="#482D1F"/>
<defs>
<clipPath id="clip0_113_1312">
<rect width="34.6511" height="56.4685" fill="white" transform="translate(163.15 28.3542) rotate(7.8949)"/>
</clipPath>
<clipPath id="clip1_113_1312">
<rect width="10.9914" height="17.912" fill="white" transform="translate(148.46 21) rotate(7.8949)"/>
</clipPath>
<clipPath id="clip2_113_1312">
<rect width="10.9914" height="17.912" fill="white" transform="translate(204 49.7751) rotate(-14.6243)"/>
</clipPath>
</defs>
</svg>
