<svg width="333" height="241" viewBox="0 0 333 241" fill="none" xmlns="http://www.w3.org/2000/svg">
<g filter="url(#filter0_d_6775_2386)">
<rect x="28" y="28" width="277" height="185" rx="10" fill="white"/>
</g>
<g filter="url(#filter1_d_6775_2386)">
<rect x="48.0972" y="87" width="240.16" height="48" rx="10" fill="white"/>
</g>
<g filter="url(#filter2_d_6775_2386)">
<rect x="48.0972" y="148" width="109.529" height="48" rx="10" fill="white"/>
</g>
<g filter="url(#filter3_d_6775_2386)">
<rect x="178.728" y="148" width="109.529" height="48" rx="10" fill="white"/>
</g>
<rect opacity="0.65" x="94.3203" y="97" width="96.4659" height="6" rx="3" fill="url(#paint0_linear_6775_2386)"/>
<rect opacity="0.65" x="67" y="162" width="81" height="8" rx="4" fill="url(#paint1_linear_6775_2386)"/>
<rect opacity="0.65" x="191" y="162" width="87" height="8" rx="4" fill="url(#paint2_linear_6775_2386)"/>
<rect opacity="0.4" x="94.3203" y="110" width="47.2281" height="4" rx="2" fill="url(#paint3_linear_6775_2386)"/>
<rect opacity="0.4" x="94.3203" y="177" width="26.1262" height="4" rx="2" fill="url(#paint4_linear_6775_2386)"/>
<rect opacity="0.4" x="224.951" y="177" width="26.1262" height="4" rx="2" fill="url(#paint5_linear_6775_2386)"/>
<rect opacity="0.4" x="94.3203" y="119" width="71.3446" height="4" rx="2" fill="url(#paint6_linear_6775_2386)"/>
<g clip-path="url(#clip0_6775_2386)">
<path d="M61.1602 107.449C61.1602 101.126 66.3417 96 72.665 96V96C78.9883 96 84.1698 101.126 84.1698 107.449V107.449C84.1698 113.773 78.9883 118.899 72.665 118.899V118.899C66.3417 118.899 61.1602 113.773 61.1602 107.449V107.449Z" fill="url(#paint7_linear_6775_2386)"/>
<path d="M79.7212 113.937C80.2836 115.006 80.5649 118.899 80.5649 118.899H64.7649C64.7649 118.899 65.0461 115.006 65.6086 113.937C66.4523 112.334 72.6649 110.273 72.6649 110.273C72.6649 110.273 78.8775 112.334 79.7212 113.937Z" fill="url(#paint8_linear_6775_2386)"/>
<path d="M72.3582 117.067C72.3582 117.007 72.3761 116.948 72.4099 116.897C72.4436 116.847 72.4915 116.808 72.5475 116.785C72.6036 116.762 72.6653 116.756 72.7248 116.768C72.7843 116.779 72.839 116.808 72.8819 116.851C72.9248 116.894 72.954 116.948 72.9659 117.007C72.9777 117.067 72.9716 117.128 72.9484 117.184C72.9252 117.24 72.8859 117.287 72.8354 117.321C72.7849 117.354 72.7256 117.372 72.665 117.372C72.5836 117.372 72.5055 117.34 72.448 117.283C72.3905 117.226 72.3582 117.148 72.3582 117.067ZM72.3582 115.54C72.3582 115.48 72.3761 115.421 72.4099 115.371C72.4436 115.321 72.4915 115.281 72.5475 115.258C72.6036 115.235 72.6653 115.229 72.7248 115.241C72.7843 115.253 72.839 115.282 72.8819 115.324C72.9248 115.367 72.954 115.422 72.9659 115.481C72.9777 115.54 72.9716 115.601 72.9484 115.657C72.9252 115.713 72.8859 115.761 72.8354 115.794C72.7849 115.828 72.7256 115.846 72.665 115.846C72.5836 115.846 72.5055 115.814 72.448 115.756C72.3905 115.699 72.3582 115.621 72.3582 115.54ZM72.3582 114.014C72.3582 113.953 72.3761 113.894 72.4099 113.844C72.4436 113.794 72.4915 113.755 72.5475 113.732C72.6036 113.709 72.6653 113.703 72.7248 113.714C72.7843 113.726 72.839 113.755 72.8819 113.798C72.9248 113.841 72.954 113.895 72.9659 113.954C72.9777 114.013 72.9716 114.075 72.9484 114.131C72.9252 114.186 72.8859 114.234 72.8354 114.268C72.7849 114.301 72.7256 114.319 72.665 114.319C72.5836 114.319 72.5055 114.287 72.448 114.23C72.3905 114.172 72.3582 114.095 72.3582 114.014Z" fill="white"/>
<path d="M79.2203 109.389L66.7601 107.891C66.1458 104.645 66.8744 102.6 68.946 101.756C69.9037 98.6335 73.631 98.8876 74.6875 99.1421C78.2828 100.008 79.7938 103.424 79.2203 109.389Z" fill="url(#paint9_linear_6775_2386)"/>
<path d="M70.824 111.19V106.61C68.9049 106.581 69.2792 103.272 71.2075 104.282C71.5526 104.434 72.4347 104.015 72.1279 102.984C74.1988 104.511 77.0845 101.832 77.2667 103.48C77.6253 106.725 76.9315 109.392 75.0917 109.392C74.8956 109.4 74.6993 109.388 74.5056 109.358V111.19C73.905 111.546 73.3044 111.724 72.7039 111.724C72.1033 111.724 71.4767 111.546 70.824 111.19Z" fill="#FFDBC9"/>
<path d="M74.5057 109.358V109.968C73.3553 109.968 72.4604 109.421 71.8213 108.327C72.5883 108.836 73.4831 109.179 74.5057 109.358Z" fill="#FFBC9E"/>
<path d="M72.6623 111.645C73.187 111.62 74.5056 111.35 74.5056 110.767V110.273C74.6462 110.273 75.049 110.604 75.2561 110.884C76.075 111.991 75.1667 112.983 74.4259 112.983C73.4913 112.983 72.8719 112.206 72.6648 111.832C72.4577 112.206 71.8383 112.983 70.9036 112.983C70.1629 112.983 69.2546 111.991 70.0734 110.884C70.2806 110.604 70.6834 110.273 70.824 110.273V110.767C70.824 111.35 72.108 111.62 72.6623 111.645Z" fill="white"/>
</g>
<path d="M28 38C28 32.4772 32.4772 28 38 28H295C300.523 28 305 32.4772 305 38V52.5033H28V38Z" fill="url(#paint10_linear_6775_2386)"/>
<path d="M190.508 64.1426H283.456" stroke="white"/>
<g filter="url(#filter4_d_6775_2386)">
<rect x="251.077" y="33" width="40.1941" height="40" rx="10" fill="#20A4E9"/>
</g>
<path d="M270.798 58.75C274.752 58.75 277.957 55.56 277.957 51.625C277.957 47.69 274.752 44.5 270.798 44.5C266.843 44.5 263.638 47.69 263.638 51.625C263.638 55.56 266.843 58.75 270.798 58.75Z" fill="white"/>
<path d="M280.193 61.4999C280.057 61.4999 279.921 61.4474 279.823 61.3499L276.412 57.9549C276.208 57.7524 276.208 57.4224 276.412 57.2124C276.615 57.0099 276.947 57.0099 277.158 57.2124L280.569 60.6074C280.773 60.8099 280.773 61.1399 280.569 61.3499C280.464 61.4474 280.328 61.4999 280.193 61.4999Z" fill="white"/>
<rect opacity="0.65" x="233.995" y="103" width="39.1893" height="16" rx="8" fill="url(#paint11_linear_6775_2386)"/>
<defs>
<filter id="filter0_d_6775_2386" x="0" y="0" width="333" height="241" filterUnits="userSpaceOnUse" color-interpolation-filters="sRGB">
<feFlood flood-opacity="0" result="BackgroundImageFix"/>
<feColorMatrix in="SourceAlpha" type="matrix" values="0 0 0 0 0 0 0 0 0 0 0 0 0 0 0 0 0 0 127 0" result="hardAlpha"/>
<feMorphology radius="4" operator="dilate" in="SourceAlpha" result="effect1_dropShadow_6775_2386"/>
<feOffset/>
<feGaussianBlur stdDeviation="12"/>
<feComposite in2="hardAlpha" operator="out"/>
<feColorMatrix type="matrix" values="0 0 0 0 0.282353 0 0 0 0 0.290196 0 0 0 0 0.619608 0 0 0 0.06 0"/>
<feBlend mode="normal" in2="BackgroundImageFix" result="effect1_dropShadow_6775_2386"/>
<feBlend mode="normal" in="SourceGraphic" in2="effect1_dropShadow_6775_2386" result="shape"/>
</filter>
<filter id="filter1_d_6775_2386" x="20.0972" y="59" width="296.16" height="104" filterUnits="userSpaceOnUse" color-interpolation-filters="sRGB">
<feFlood flood-opacity="0" result="BackgroundImageFix"/>
<feColorMatrix in="SourceAlpha" type="matrix" values="0 0 0 0 0 0 0 0 0 0 0 0 0 0 0 0 0 0 127 0" result="hardAlpha"/>
<feMorphology radius="4" operator="dilate" in="SourceAlpha" result="effect1_dropShadow_6775_2386"/>
<feOffset/>
<feGaussianBlur stdDeviation="12"/>
<feComposite in2="hardAlpha" operator="out"/>
<feColorMatrix type="matrix" values="0 0 0 0 0.282353 0 0 0 0 0.290196 0 0 0 0 0.619608 0 0 0 0.08 0"/>
<feBlend mode="normal" in2="BackgroundImageFix" result="effect1_dropShadow_6775_2386"/>
<feBlend mode="normal" in="SourceGraphic" in2="effect1_dropShadow_6775_2386" result="shape"/>
</filter>
<filter id="filter2_d_6775_2386" x="20.0972" y="120" width="165.529" height="104" filterUnits="userSpaceOnUse" color-interpolation-filters="sRGB">
<feFlood flood-opacity="0" result="BackgroundImageFix"/>
<feColorMatrix in="SourceAlpha" type="matrix" values="0 0 0 0 0 0 0 0 0 0 0 0 0 0 0 0 0 0 127 0" result="hardAlpha"/>
<feMorphology radius="4" operator="dilate" in="SourceAlpha" result="effect1_dropShadow_6775_2386"/>
<feOffset/>
<feGaussianBlur stdDeviation="12"/>
<feComposite in2="hardAlpha" operator="out"/>
<feColorMatrix type="matrix" values="0 0 0 0 0.282353 0 0 0 0 0.290196 0 0 0 0 0.619608 0 0 0 0.08 0"/>
<feBlend mode="normal" in2="BackgroundImageFix" result="effect1_dropShadow_6775_2386"/>
<feBlend mode="normal" in="SourceGraphic" in2="effect1_dropShadow_6775_2386" result="shape"/>
</filter>
<filter id="filter3_d_6775_2386" x="150.728" y="120" width="165.529" height="104" filterUnits="userSpaceOnUse" color-interpolation-filters="sRGB">
<feFlood flood-opacity="0" result="BackgroundImageFix"/>
<feColorMatrix in="SourceAlpha" type="matrix" values="0 0 0 0 0 0 0 0 0 0 0 0 0 0 0 0 0 0 127 0" result="hardAlpha"/>
<feMorphology radius="4" operator="dilate" in="SourceAlpha" result="effect1_dropShadow_6775_2386"/>
<feOffset/>
<feGaussianBlur stdDeviation="12"/>
<feComposite in2="hardAlpha" operator="out"/>
<feColorMatrix type="matrix" values="0 0 0 0 0.282353 0 0 0 0 0.290196 0 0 0 0 0.619608 0 0 0 0.08 0"/>
<feBlend mode="normal" in2="BackgroundImageFix" result="effect1_dropShadow_6775_2386"/>
<feBlend mode="normal" in="SourceGraphic" in2="effect1_dropShadow_6775_2386" result="shape"/>
</filter>
<filter id="filter4_d_6775_2386" x="223.077" y="17" width="96.1941" height="96" filterUnits="userSpaceOnUse" color-interpolation-filters="sRGB">
<feFlood flood-opacity="0" result="BackgroundImageFix"/>
<feColorMatrix in="SourceAlpha" type="matrix" values="0 0 0 0 0 0 0 0 0 0 0 0 0 0 0 0 0 0 127 0" result="hardAlpha"/>
<feMorphology radius="4" operator="dilate" in="SourceAlpha" result="effect1_dropShadow_6775_2386"/>
<feOffset dy="12"/>
<feGaussianBlur stdDeviation="12"/>
<feComposite in2="hardAlpha" operator="out"/>
<feColorMatrix type="matrix" values="0 0 0 0 0.0156863 0 0 0 0 0.807843 0 0 0 0 0.992157 0 0 0 0.15 0"/>
<feBlend mode="normal" in2="BackgroundImageFix" result="effect1_dropShadow_6775_2386"/>
<feBlend mode="normal" in="SourceGraphic" in2="effect1_dropShadow_6775_2386" result="shape"/>
</filter>
<linearGradient id="paint0_linear_6775_2386" x1="94.3203" y1="100" x2="190.786" y2="100" gradientUnits="userSpaceOnUse">
<stop stop-color="#00D2FF"/>
<stop offset="1" stop-color="#3A7BD5"/>
</linearGradient>
<linearGradient id="paint1_linear_6775_2386" x1="67" y1="166" x2="148" y2="166" gradientUnits="userSpaceOnUse">
<stop stop-color="#00D2FF"/>
<stop offset="1" stop-color="#3A7BD5"/>
</linearGradient>
<linearGradient id="paint2_linear_6775_2386" x1="191" y1="166" x2="278" y2="166" gradientUnits="userSpaceOnUse">
<stop stop-color="#00D2FF"/>
<stop offset="1" stop-color="#3A7BD5"/>
</linearGradient>
<linearGradient id="paint3_linear_6775_2386" x1="94.3203" y1="112" x2="141.548" y2="112" gradientUnits="userSpaceOnUse">
<stop stop-color="#00D2FF"/>
<stop offset="1" stop-color="#3A7BD5"/>
</linearGradient>
<linearGradient id="paint4_linear_6775_2386" x1="94.3203" y1="179" x2="120.446" y2="179" gradientUnits="userSpaceOnUse">
<stop stop-color="#00D2FF"/>
<stop offset="1" stop-color="#3A7BD5"/>
</linearGradient>
<linearGradient id="paint5_linear_6775_2386" x1="224.951" y1="179" x2="251.077" y2="179" gradientUnits="userSpaceOnUse">
<stop stop-color="#00D2FF"/>
<stop offset="1" stop-color="#3A7BD5"/>
</linearGradient>
<linearGradient id="paint6_linear_6775_2386" x1="94.3203" y1="121" x2="165.665" y2="121" gradientUnits="userSpaceOnUse">
<stop stop-color="#00D2FF"/>
<stop offset="1" stop-color="#3A7BD5"/>
</linearGradient>
<linearGradient id="paint7_linear_6775_2386" x1="72.665" y1="96" x2="72.665" y2="118.899" gradientUnits="userSpaceOnUse">
<stop stop-color="#EAEAEA"/>
<stop offset="1" stop-color="#ECECEC"/>
</linearGradient>
<linearGradient id="paint8_linear_6775_2386" x1="64.7649" y1="114.586" x2="80.5649" y2="114.586" gradientUnits="userSpaceOnUse">
<stop stop-color="#606C88"/>
<stop offset="1" stop-color="#3F4C6B"/>
</linearGradient>
<linearGradient id="paint9_linear_6775_2386" x1="72.944" y1="109.389" x2="72.944" y2="99.0024" gradientUnits="userSpaceOnUse">
<stop/>
<stop offset="1"/>
</linearGradient>
<linearGradient id="paint10_linear_6775_2386" x1="28" y1="40.2517" x2="305" y2="40.2517" gradientUnits="userSpaceOnUse">
<stop stop-color="#00D2FF"/>
<stop offset="1" stop-color="#3A7BD5"/>
</linearGradient>
<linearGradient id="paint11_linear_6775_2386" x1="233.995" y1="111" x2="273.184" y2="111" gradientUnits="userSpaceOnUse">
<stop stop-color="#00D2FF"/>
<stop offset="1" stop-color="#3A7BD5"/>
</linearGradient>
<clipPath id="clip0_6775_2386">
<path d="M61.1602 107.449C61.1602 101.126 66.3417 96 72.665 96V96C78.9883 96 84.1698 101.126 84.1698 107.449V107.449C84.1698 113.773 78.9883 118.899 72.665 118.899V118.899C66.3417 118.899 61.1602 113.773 61.1602 107.449V107.449Z" fill="white"/>
</clipPath>
</defs>
</svg>
