<svg width="234" height="260" viewBox="0 0 234 260" fill="none" xmlns="http://www.w3.org/2000/svg">
<g filter="url(#filter0_d_6489_1255)">
<g filter="url(#filter1_d_6489_1255)">
<rect x="50" y="50" width="134" height="160" rx="10" fill="white"/>
</g>
<path d="M50 60C50 54.4772 54.4772 50 60 50H174C179.523 50 184 54.4772 184 60V67H50V60Z" fill="url(#paint0_linear_6489_1255)"/>
<g filter="url(#filter2_d_6489_1255)">
<rect x="62" y="79" width="109" height="119" rx="12" fill="white"/>
</g>
<rect x="91" y="94" width="47" height="4" rx="1" fill="url(#paint1_linear_6489_1255)"/>
<rect x="91" y="117" width="47" height="4" rx="1" fill="url(#paint2_linear_6489_1255)"/>
<path d="M91 140C91 139.448 91.4477 139 92 139H137C137.552 139 138 139.448 138 140V142C138 142.552 137.552 143 137 143H92C91.4477 143 91 142.552 91 142V140Z" fill="url(#paint3_linear_6489_1255)"/>
<rect x="91" y="162" width="47" height="4" rx="1" fill="url(#paint4_linear_6489_1255)"/>
<rect x="91" y="185" width="47" height="4" rx="1" fill="url(#paint5_linear_6489_1255)"/>
<rect x="91" y="88" width="71" height="3" rx="1.5" fill="url(#paint6_linear_6489_1255)"/>
<rect x="143" y="94" width="19" height="7" rx="2" fill="url(#paint7_diamond_6489_1255)"/>
<rect x="143" y="116" width="19" height="6" rx="2" fill="url(#paint8_diamond_6489_1255)"/>
<rect x="143" y="139" width="19" height="6" rx="2" fill="url(#paint9_diamond_6489_1255)"/>
<rect x="143" y="160" width="19" height="7" rx="2" fill="url(#paint10_diamond_6489_1255)"/>
<rect x="143" y="183" width="19" height="7" rx="2" fill="url(#paint11_diamond_6489_1255)"/>
<rect x="91" y="110" width="71" height="3" rx="1.5" fill="url(#paint12_linear_6489_1255)"/>
<rect x="91" y="133" width="71" height="3" rx="1.5" fill="url(#paint13_linear_6489_1255)"/>
<rect x="91" y="155" width="71" height="2" rx="1" fill="url(#paint14_linear_6489_1255)"/>
<rect x="91" y="177" width="71" height="3" rx="1.5" fill="url(#paint15_linear_6489_1255)"/>
<g clip-path="url(#clip0_6489_1255)">
<path d="M69 94C69 90.134 72.134 87 76 87H77C80.866 87 84 90.134 84 94V94C84 97.866 80.866 101 77 101H76C72.134 101 69 97.866 69 94V94Z" fill="url(#paint16_linear_6489_1255)"/>
<path d="M80.125 94.4433C80.5306 93.1861 80.7806 91.0367 79.075 89.5667C77.7715 88.4432 74.25 88.33 73.025 90.78C72.8205 91.189 73.1 91.83 73.65 91.8067C73.8662 91.7973 74 92.4367 74.125 92.8333C73.95 94.4433 72.3909 94.4731 71.6 95.7033C70.625 97.22 71.825 99.46 74.7 99.46C77.575 99.46 79.2231 97.2389 80.125 94.4433Z" fill="url(#paint17_linear_6489_1255)"/>
<path d="M81.1001 98.1265C81.4667 98.7857 81.6501 101.187 81.6501 101.187H71.3501C71.3501 101.187 71.5334 98.7857 71.9001 98.1265C72.4501 97.1379 76.5001 95.8667 76.5001 95.8667C76.5001 95.8667 80.5501 97.1379 81.1001 98.1265Z" fill="url(#paint18_linear_6489_1255)"/>
<path d="M77.7001 96.4267C77.7001 96.4267 77.0618 96.7533 76.4746 96.7533C75.8874 96.7533 75.3001 96.4267 75.3001 96.4267V95.4C75.1738 95.4186 75.0458 95.4257 74.918 95.4212C73.7186 95.4211 73.2664 93.7905 73.5001 91.8067C73.6501 91.8067 74.0001 91.8067 74.5001 91.1533C74.3751 92.0633 75.8251 91.9233 76.3751 91.2C76.1001 92.0633 76.8251 92.6467 77.4501 92.2967C78.6757 91.6103 78.9512 93.7025 77.7001 93.72V96.4267Z" fill="url(#paint19_linear_6489_1255)"/>
<g style="mix-blend-mode:multiply" opacity="0.782">
<path d="M75.3 95.4C75.9203 95.2934 76.5138 95.0798 77.0501 94.77C77.0501 94.77 76.4251 95.7734 75.3 95.7734V95.4Z" fill="#FFD7B8"/>
</g>
<path d="M76.5017 96.7055C76.8631 96.6903 77.7001 96.5251 77.7001 96.1682V95.8667C77.7918 95.8667 78.0543 96.0689 78.1894 96.24C78.7232 96.9167 78.1311 97.5234 77.6482 97.5234C77.0389 97.5234 76.6351 97.0482 76.5001 96.8196C76.3651 97.0483 75.9613 97.5234 75.352 97.5234C74.8691 97.5234 74.277 96.9167 74.8108 96.24C74.9458 96.0689 75.2084 95.8667 75.3001 95.8667V96.1682C75.3001 96.5251 76.1597 96.6903 76.5017 96.7055Z" fill="white"/>
<path d="M76.3 99.88C76.3 99.8431 76.3118 99.807 76.3338 99.7763C76.3557 99.7456 76.387 99.7217 76.4235 99.7075C76.4601 99.6934 76.5003 99.6897 76.5391 99.6969C76.5779 99.7041 76.6135 99.7219 76.6415 99.748C76.6694 99.7741 76.6885 99.8074 76.6962 99.8436C76.7039 99.8798 76.7 99.9173 76.6848 99.9514C76.6697 99.9855 76.644 100.015 76.6112 100.035C76.5783 100.056 76.5396 100.067 76.5 100.067C76.447 100.067 76.3961 100.047 76.3586 100.012C76.3211 99.977 76.3 99.9295 76.3 99.88ZM76.3 98.9467C76.3 98.9097 76.3118 98.8737 76.3338 98.843C76.3557 98.8123 76.387 98.7883 76.4235 98.7742C76.4601 98.7601 76.5003 98.7564 76.5391 98.7636C76.5779 98.7708 76.6135 98.7886 76.6415 98.8147C76.6694 98.8408 76.6885 98.874 76.6962 98.9102C76.7039 98.9465 76.7 98.984 76.6848 99.0181C76.6697 99.0522 76.644 99.0814 76.6112 99.1019C76.5783 99.1224 76.5396 99.1333 76.5 99.1333C76.447 99.1333 76.3961 99.1137 76.3586 99.0787C76.3211 99.0436 76.3 98.9962 76.3 98.9467ZM76.3 98.0133C76.3 97.9764 76.3118 97.9403 76.3338 97.9096C76.3557 97.8789 76.387 97.855 76.4235 97.8409C76.4601 97.8267 76.5003 97.823 76.5391 97.8302C76.5779 97.8374 76.6135 97.8552 76.6415 97.8813C76.6694 97.9074 76.6885 97.9407 76.6962 97.9769C76.7039 98.0131 76.7 98.0507 76.6848 98.0848C76.6697 98.1189 76.644 98.148 76.6112 98.1685C76.5783 98.189 76.5396 98.2 76.5 98.2C76.447 98.2 76.3961 98.1803 76.3586 98.1453C76.3211 98.1103 76.3 98.0628 76.3 98.0133Z" fill="url(#paint20_linear_6489_1255)"/>
</g>
<g clip-path="url(#clip1_6489_1255)">
<path d="M69 115C69 111.134 72.134 108 76 108H77C80.866 108 84 111.134 84 115V115C84 118.866 80.866 122 77 122H76C72.134 122 69 118.866 69 115V115Z" fill="url(#paint21_linear_6489_1255)"/>
<path d="M80.125 115.443C80.5306 114.186 80.7806 112.037 79.075 110.567C77.7715 109.443 74.25 109.33 73.025 111.78C72.8205 112.189 73.1 112.83 73.65 112.807C73.8662 112.797 74 113.437 74.125 113.833C73.95 115.443 72.3909 115.473 71.6 116.703C70.625 118.22 71.825 120.46 74.7 120.46C77.575 120.46 79.2231 118.239 80.125 115.443Z" fill="url(#paint22_linear_6489_1255)"/>
<path d="M81.1001 119.127C81.4667 119.786 81.6501 122.187 81.6501 122.187H71.3501C71.3501 122.187 71.5334 119.786 71.9001 119.127C72.4501 118.138 76.5001 116.867 76.5001 116.867C76.5001 116.867 80.5501 118.138 81.1001 119.127Z" fill="url(#paint23_linear_6489_1255)"/>
<path d="M77.7001 117.427C77.7001 117.427 77.0618 117.753 76.4746 117.753C75.8874 117.753 75.3001 117.427 75.3001 117.427V116.4C75.1738 116.419 75.0458 116.426 74.918 116.421C73.7186 116.421 73.2664 114.791 73.5001 112.807C73.6501 112.807 74.0001 112.807 74.5001 112.153C74.3751 113.063 75.8251 112.923 76.3751 112.2C76.1001 113.063 76.8251 113.647 77.4501 113.297C78.6757 112.61 78.9512 114.703 77.7001 114.72V117.427Z" fill="url(#paint24_linear_6489_1255)"/>
<g style="mix-blend-mode:multiply" opacity="0.782">
<path d="M75.3 116.4C75.9203 116.293 76.5138 116.08 77.0501 115.77C77.0501 115.77 76.4251 116.773 75.3 116.773V116.4Z" fill="#FFD7B8"/>
</g>
<path d="M76.5017 117.706C76.8631 117.69 77.7001 117.525 77.7001 117.168V116.867C77.7918 116.867 78.0543 117.069 78.1894 117.24C78.7232 117.917 78.1311 118.523 77.6482 118.523C77.0389 118.523 76.6351 118.048 76.5001 117.82C76.3651 118.048 75.9613 118.523 75.352 118.523C74.8691 118.523 74.277 117.917 74.8108 117.24C74.9458 117.069 75.2084 116.867 75.3001 116.867V117.168C75.3001 117.525 76.1597 117.69 76.5017 117.706Z" fill="white"/>
<path d="M76.3 120.88C76.3 120.843 76.3118 120.807 76.3338 120.776C76.3557 120.746 76.387 120.722 76.4235 120.708C76.4601 120.693 76.5003 120.69 76.5391 120.697C76.5779 120.704 76.6135 120.722 76.6415 120.748C76.6694 120.774 76.6885 120.807 76.6962 120.844C76.7039 120.88 76.7 120.917 76.6848 120.951C76.6697 120.986 76.644 121.015 76.6112 121.035C76.5783 121.056 76.5396 121.067 76.5 121.067C76.447 121.067 76.3961 121.047 76.3586 121.012C76.3211 120.977 76.3 120.93 76.3 120.88ZM76.3 119.947C76.3 119.91 76.3118 119.874 76.3338 119.843C76.3557 119.812 76.387 119.788 76.4235 119.774C76.4601 119.76 76.5003 119.756 76.5391 119.764C76.5779 119.771 76.6135 119.789 76.6415 119.815C76.6694 119.841 76.6885 119.874 76.6962 119.91C76.7039 119.946 76.7 119.984 76.6848 120.018C76.6697 120.052 76.644 120.081 76.6112 120.102C76.5783 120.122 76.5396 120.133 76.5 120.133C76.447 120.133 76.3961 120.114 76.3586 120.079C76.3211 120.044 76.3 119.996 76.3 119.947ZM76.3 119.013C76.3 118.976 76.3118 118.94 76.3338 118.91C76.3557 118.879 76.387 118.855 76.4235 118.841C76.4601 118.827 76.5003 118.823 76.5391 118.83C76.5779 118.837 76.6135 118.855 76.6415 118.881C76.6694 118.907 76.6885 118.941 76.6962 118.977C76.7039 119.013 76.7 119.051 76.6848 119.085C76.6697 119.119 76.644 119.148 76.6112 119.169C76.5783 119.189 76.5396 119.2 76.5 119.2C76.447 119.2 76.3961 119.18 76.3586 119.145C76.3211 119.11 76.3 119.063 76.3 119.013Z" fill="url(#paint25_linear_6489_1255)"/>
</g>
<g clip-path="url(#clip2_6489_1255)">
<path d="M69 138C69 134.134 72.134 131 76 131H77C80.866 131 84 134.134 84 138V138C84 141.866 80.866 145 77 145H76C72.134 145 69 141.866 69 138V138Z" fill="url(#paint26_linear_6489_1255)"/>
<path d="M80.125 138.443C80.5306 137.186 80.7806 135.037 79.075 133.567C77.7715 132.443 74.25 132.33 73.025 134.78C72.8205 135.189 73.1 135.83 73.65 135.807C73.8662 135.797 74 136.437 74.125 136.833C73.95 138.443 72.3909 138.473 71.6 139.703C70.625 141.22 71.825 143.46 74.7 143.46C77.575 143.46 79.2231 141.239 80.125 138.443Z" fill="url(#paint27_linear_6489_1255)"/>
<path d="M81.1001 142.127C81.4667 142.786 81.6501 145.187 81.6501 145.187H71.3501C71.3501 145.187 71.5334 142.786 71.9001 142.127C72.4501 141.138 76.5001 139.867 76.5001 139.867C76.5001 139.867 80.5501 141.138 81.1001 142.127Z" fill="url(#paint28_linear_6489_1255)"/>
<path d="M77.7001 140.427C77.7001 140.427 77.0618 140.753 76.4746 140.753C75.8874 140.753 75.3001 140.427 75.3001 140.427V139.4C75.1738 139.419 75.0458 139.426 74.918 139.421C73.7186 139.421 73.2664 137.791 73.5001 135.807C73.6501 135.807 74.0001 135.807 74.5001 135.153C74.3751 136.063 75.8251 135.923 76.3751 135.2C76.1001 136.063 76.8251 136.647 77.4501 136.297C78.6757 135.61 78.9512 137.703 77.7001 137.72V140.427Z" fill="url(#paint29_linear_6489_1255)"/>
<g style="mix-blend-mode:multiply" opacity="0.782">
<path d="M75.3 139.4C75.9203 139.293 76.5138 139.08 77.0501 138.77C77.0501 138.77 76.4251 139.773 75.3 139.773V139.4Z" fill="#FFD7B8"/>
</g>
<path d="M76.5017 140.706C76.8631 140.69 77.7001 140.525 77.7001 140.168V139.867C77.7918 139.867 78.0543 140.069 78.1894 140.24C78.7232 140.917 78.1311 141.523 77.6482 141.523C77.0389 141.523 76.6351 141.048 76.5001 140.82C76.3651 141.048 75.9613 141.523 75.352 141.523C74.8691 141.523 74.277 140.917 74.8108 140.24C74.9458 140.069 75.2084 139.867 75.3001 139.867V140.168C75.3001 140.525 76.1597 140.69 76.5017 140.706Z" fill="white"/>
<path d="M76.3 143.88C76.3 143.843 76.3118 143.807 76.3338 143.776C76.3557 143.746 76.387 143.722 76.4235 143.708C76.4601 143.693 76.5003 143.69 76.5391 143.697C76.5779 143.704 76.6135 143.722 76.6415 143.748C76.6694 143.774 76.6885 143.807 76.6962 143.844C76.7039 143.88 76.7 143.917 76.6848 143.951C76.6697 143.986 76.644 144.015 76.6112 144.035C76.5783 144.056 76.5396 144.067 76.5 144.067C76.447 144.067 76.3961 144.047 76.3586 144.012C76.3211 143.977 76.3 143.93 76.3 143.88ZM76.3 142.947C76.3 142.91 76.3118 142.874 76.3338 142.843C76.3557 142.812 76.387 142.788 76.4235 142.774C76.4601 142.76 76.5003 142.756 76.5391 142.764C76.5779 142.771 76.6135 142.789 76.6415 142.815C76.6694 142.841 76.6885 142.874 76.6962 142.91C76.7039 142.946 76.7 142.984 76.6848 143.018C76.6697 143.052 76.644 143.081 76.6112 143.102C76.5783 143.122 76.5396 143.133 76.5 143.133C76.447 143.133 76.3961 143.114 76.3586 143.079C76.3211 143.044 76.3 142.996 76.3 142.947ZM76.3 142.013C76.3 141.976 76.3118 141.94 76.3338 141.91C76.3557 141.879 76.387 141.855 76.4235 141.841C76.4601 141.827 76.5003 141.823 76.5391 141.83C76.5779 141.837 76.6135 141.855 76.6415 141.881C76.6694 141.907 76.6885 141.941 76.6962 141.977C76.7039 142.013 76.7 142.051 76.6848 142.085C76.6697 142.119 76.644 142.148 76.6112 142.169C76.5783 142.189 76.5396 142.2 76.5 142.2C76.447 142.2 76.3961 142.18 76.3586 142.145C76.3211 142.11 76.3 142.063 76.3 142.013Z" fill="url(#paint30_linear_6489_1255)"/>
</g>
<g clip-path="url(#clip3_6489_1255)">
<path d="M69 160C69 156.134 72.134 153 76 153H77C80.866 153 84 156.134 84 160V160C84 163.866 80.866 167 77 167H76C72.134 167 69 163.866 69 160V160Z" fill="url(#paint31_linear_6489_1255)"/>
<path d="M80.125 160.443C80.5306 159.186 80.7806 157.037 79.075 155.567C77.7715 154.443 74.25 154.33 73.025 156.78C72.8205 157.189 73.1 157.83 73.65 157.807C73.8662 157.797 74 158.437 74.125 158.833C73.95 160.443 72.3909 160.473 71.6 161.703C70.625 163.22 71.825 165.46 74.7 165.46C77.575 165.46 79.2231 163.239 80.125 160.443Z" fill="url(#paint32_linear_6489_1255)"/>
<path d="M81.1001 164.127C81.4667 164.786 81.6501 167.187 81.6501 167.187H71.3501C71.3501 167.187 71.5334 164.786 71.9001 164.127C72.4501 163.138 76.5001 161.867 76.5001 161.867C76.5001 161.867 80.5501 163.138 81.1001 164.127Z" fill="url(#paint33_linear_6489_1255)"/>
<path d="M77.7001 162.427C77.7001 162.427 77.0618 162.753 76.4746 162.753C75.8874 162.753 75.3001 162.427 75.3001 162.427V161.4C75.1738 161.419 75.0458 161.426 74.918 161.421C73.7186 161.421 73.2664 159.791 73.5001 157.807C73.6501 157.807 74.0001 157.807 74.5001 157.153C74.3751 158.063 75.8251 157.923 76.3751 157.2C76.1001 158.063 76.8251 158.647 77.4501 158.297C78.6757 157.61 78.9512 159.703 77.7001 159.72V162.427Z" fill="url(#paint34_linear_6489_1255)"/>
<g style="mix-blend-mode:multiply" opacity="0.782">
<path d="M75.3 161.4C75.9203 161.293 76.5138 161.08 77.0501 160.77C77.0501 160.77 76.4251 161.773 75.3 161.773V161.4Z" fill="#FFD7B8"/>
</g>
<path d="M76.5017 162.706C76.8631 162.69 77.7001 162.525 77.7001 162.168V161.867C77.7918 161.867 78.0543 162.069 78.1894 162.24C78.7232 162.917 78.1311 163.523 77.6482 163.523C77.0389 163.523 76.6351 163.048 76.5001 162.82C76.3651 163.048 75.9613 163.523 75.352 163.523C74.8691 163.523 74.277 162.917 74.8108 162.24C74.9458 162.069 75.2084 161.867 75.3001 161.867V162.168C75.3001 162.525 76.1597 162.69 76.5017 162.706Z" fill="white"/>
<path d="M76.3 165.88C76.3 165.843 76.3118 165.807 76.3338 165.776C76.3557 165.746 76.387 165.722 76.4235 165.708C76.4601 165.693 76.5003 165.69 76.5391 165.697C76.5779 165.704 76.6135 165.722 76.6415 165.748C76.6694 165.774 76.6885 165.807 76.6962 165.844C76.7039 165.88 76.7 165.917 76.6848 165.951C76.6697 165.986 76.644 166.015 76.6112 166.035C76.5783 166.056 76.5396 166.067 76.5 166.067C76.447 166.067 76.3961 166.047 76.3586 166.012C76.3211 165.977 76.3 165.93 76.3 165.88ZM76.3 164.947C76.3 164.91 76.3118 164.874 76.3338 164.843C76.3557 164.812 76.387 164.788 76.4235 164.774C76.4601 164.76 76.5003 164.756 76.5391 164.764C76.5779 164.771 76.6135 164.789 76.6415 164.815C76.6694 164.841 76.6885 164.874 76.6962 164.91C76.7039 164.946 76.7 164.984 76.6848 165.018C76.6697 165.052 76.644 165.081 76.6112 165.102C76.5783 165.122 76.5396 165.133 76.5 165.133C76.447 165.133 76.3961 165.114 76.3586 165.079C76.3211 165.044 76.3 164.996 76.3 164.947ZM76.3 164.013C76.3 163.976 76.3118 163.94 76.3338 163.91C76.3557 163.879 76.387 163.855 76.4235 163.841C76.4601 163.827 76.5003 163.823 76.5391 163.83C76.5779 163.837 76.6135 163.855 76.6415 163.881C76.6694 163.907 76.6885 163.941 76.6962 163.977C76.7039 164.013 76.7 164.051 76.6848 164.085C76.6697 164.119 76.644 164.148 76.6112 164.169C76.5783 164.189 76.5396 164.2 76.5 164.2C76.447 164.2 76.3961 164.18 76.3586 164.145C76.3211 164.11 76.3 164.063 76.3 164.013Z" fill="url(#paint35_linear_6489_1255)"/>
</g>
<g clip-path="url(#clip4_6489_1255)">
<path d="M69 182.5C69 178.358 72.3579 175 76.5 175V175C80.6421 175 84 178.358 84 182.5V182.5C84 186.642 80.6421 190 76.5 190V190C72.3579 190 69 186.642 69 182.5V182.5Z" fill="url(#paint36_linear_6489_1255)"/>
<path d="M80.125 182.975C80.5306 181.628 80.7806 179.325 79.075 177.75C77.7715 176.546 74.25 176.425 73.025 179.05C72.8205 179.488 73.1 180.175 73.65 180.15C73.8662 180.14 74 180.825 74.125 181.25C73.95 182.975 72.3909 183.007 71.6 184.325C70.625 185.95 71.825 188.35 74.7 188.35C77.575 188.35 79.2231 185.97 80.125 182.975Z" fill="url(#paint37_linear_6489_1255)"/>
<path d="M81.1001 186.921C81.4667 187.627 81.6501 190.2 81.6501 190.2H71.3501C71.3501 190.2 71.5334 187.627 71.9001 186.921C72.4501 185.861 76.5001 184.5 76.5001 184.5C76.5001 184.5 80.5501 185.861 81.1001 186.921Z" fill="url(#paint38_linear_6489_1255)"/>
<path d="M77.7001 185.1C77.7001 185.1 77.0618 185.45 76.4746 185.45C75.8874 185.45 75.3001 185.1 75.3001 185.1V184C75.1738 184.02 75.0458 184.027 74.918 184.022C73.7186 184.022 73.2664 182.275 73.5001 180.15C73.6501 180.15 74.0001 180.15 74.5001 179.45C74.3751 180.425 75.8251 180.275 76.3751 179.5C76.1001 180.425 76.8251 181.05 77.4501 180.675C78.6757 179.939 78.9512 182.181 77.7001 182.2V185.1Z" fill="url(#paint39_linear_6489_1255)"/>
<g style="mix-blend-mode:multiply" opacity="0.782">
<path d="M75.3 184C75.9203 183.886 76.5138 183.657 77.0501 183.325C77.0501 183.325 76.4251 184.4 75.3 184.4V184Z" fill="#FFD7B8"/>
</g>
<path d="M76.5017 185.399C76.8631 185.382 77.7001 185.205 77.7001 184.823V184.5C77.7918 184.5 78.0543 184.717 78.1894 184.9C78.7232 185.625 78.1311 186.275 77.6482 186.275C77.0389 186.275 76.6351 185.766 76.5001 185.521C76.3651 185.766 75.9613 186.275 75.352 186.275C74.8691 186.275 74.277 185.625 74.8108 184.9C74.9458 184.717 75.2084 184.5 75.3001 184.5V184.823C75.3001 185.205 76.1597 185.382 76.5017 185.399Z" fill="white"/>
<path d="M76.3 188.8C76.3 188.76 76.3118 188.721 76.3338 188.688C76.3557 188.656 76.387 188.63 76.4235 188.615C76.4601 188.6 76.5003 188.596 76.5391 188.603C76.5779 188.611 76.6135 188.63 76.6415 188.658C76.6694 188.686 76.6885 188.722 76.6962 188.761C76.7039 188.799 76.7 188.84 76.6848 188.876C76.6697 188.913 76.644 188.944 76.6112 188.966C76.5783 188.988 76.5396 189 76.5 189C76.447 189 76.3961 188.979 76.3586 188.941C76.3211 188.904 76.3 188.853 76.3 188.8ZM76.3 187.8C76.3 187.76 76.3118 187.721 76.3338 187.688C76.3557 187.656 76.387 187.63 76.4235 187.615C76.4601 187.6 76.5003 187.596 76.5391 187.603C76.5779 187.611 76.6135 187.63 76.6415 187.658C76.6694 187.686 76.6885 187.722 76.6962 187.761C76.7039 187.799 76.7 187.84 76.6848 187.876C76.6697 187.913 76.644 187.944 76.6112 187.966C76.5783 187.988 76.5396 188 76.5 188C76.447 188 76.3961 187.979 76.3586 187.941C76.3211 187.904 76.3 187.853 76.3 187.8ZM76.3 186.8C76.3 186.76 76.3118 186.721 76.3338 186.688C76.3557 186.656 76.387 186.63 76.4235 186.615C76.4601 186.6 76.5003 186.596 76.5391 186.603C76.5779 186.611 76.6135 186.63 76.6415 186.658C76.6694 186.686 76.6885 186.722 76.6962 186.761C76.7039 186.799 76.7 186.84 76.6848 186.876C76.6697 186.913 76.644 186.944 76.6112 186.966C76.5783 186.988 76.5396 187 76.5 187C76.447 187 76.3961 186.979 76.3586 186.941C76.3211 186.904 76.3 186.853 76.3 186.8Z" fill="url(#paint40_linear_6489_1255)"/>
</g>
</g>
<defs>
<filter id="filter0_d_6489_1255" x="0" y="0" width="234" height="260" filterUnits="userSpaceOnUse" color-interpolation-filters="sRGB">
<feFlood flood-opacity="0" result="BackgroundImageFix"/>
<feColorMatrix in="SourceAlpha" type="matrix" values="0 0 0 0 0 0 0 0 0 0 0 0 0 0 0 0 0 0 127 0" result="hardAlpha"/>
<feOffset/>
<feGaussianBlur stdDeviation="25"/>
<feComposite in2="hardAlpha" operator="out"/>
<feColorMatrix type="matrix" values="0 0 0 0 0.282353 0 0 0 0 0.290196 0 0 0 0 0.619608 0 0 0 0.08 0"/>
<feBlend mode="normal" in2="BackgroundImageFix" result="effect1_dropShadow_6489_1255"/>
<feBlend mode="normal" in="SourceGraphic" in2="effect1_dropShadow_6489_1255" result="shape"/>
</filter>
<filter id="filter1_d_6489_1255" x="22" y="22" width="190" height="216" filterUnits="userSpaceOnUse" color-interpolation-filters="sRGB">
<feFlood flood-opacity="0" result="BackgroundImageFix"/>
<feColorMatrix in="SourceAlpha" type="matrix" values="0 0 0 0 0 0 0 0 0 0 0 0 0 0 0 0 0 0 127 0" result="hardAlpha"/>
<feMorphology radius="4" operator="dilate" in="SourceAlpha" result="effect1_dropShadow_6489_1255"/>
<feOffset/>
<feGaussianBlur stdDeviation="12"/>
<feComposite in2="hardAlpha" operator="out"/>
<feColorMatrix type="matrix" values="0 0 0 0 0.282353 0 0 0 0 0.290196 0 0 0 0 0.619608 0 0 0 0.06 0"/>
<feBlend mode="normal" in2="BackgroundImageFix" result="effect1_dropShadow_6489_1255"/>
<feBlend mode="normal" in="SourceGraphic" in2="effect1_dropShadow_6489_1255" result="shape"/>
</filter>
<filter id="filter2_d_6489_1255" x="7" y="24" width="219" height="229" filterUnits="userSpaceOnUse" color-interpolation-filters="sRGB">
<feFlood flood-opacity="0" result="BackgroundImageFix"/>
<feColorMatrix in="SourceAlpha" type="matrix" values="0 0 0 0 0 0 0 0 0 0 0 0 0 0 0 0 0 0 127 0" result="hardAlpha"/>
<feMorphology radius="5" operator="dilate" in="SourceAlpha" result="effect1_dropShadow_6489_1255"/>
<feOffset/>
<feGaussianBlur stdDeviation="25"/>
<feComposite in2="hardAlpha" operator="out"/>
<feColorMatrix type="matrix" values="0 0 0 0 0.282353 0 0 0 0 0.290196 0 0 0 0 0.619608 0 0 0 0.1 0"/>
<feBlend mode="normal" in2="BackgroundImageFix" result="effect1_dropShadow_6489_1255"/>
<feBlend mode="normal" in="SourceGraphic" in2="effect1_dropShadow_6489_1255" result="shape"/>
</filter>
<linearGradient id="paint0_linear_6489_1255" x1="50" y1="55.5781" x2="147.394" y2="118.216" gradientUnits="userSpaceOnUse">
<stop stop-color="#667EEA"/>
<stop offset="1" stop-color="#FA709A"/>
</linearGradient>
<linearGradient id="paint1_linear_6489_1255" x1="91.5434" y1="95.8125" x2="137.474" y2="101.358" gradientUnits="userSpaceOnUse">
<stop stop-color="#F9F7C6"/>
<stop offset="1" stop-color="#E8FCDB"/>
</linearGradient>
<linearGradient id="paint2_linear_6489_1255" x1="91.5434" y1="118.813" x2="137.474" y2="124.358" gradientUnits="userSpaceOnUse">
<stop stop-color="#F9F7C6"/>
<stop offset="1" stop-color="#E8FCDB"/>
</linearGradient>
<linearGradient id="paint3_linear_6489_1255" x1="91.5434" y1="140.813" x2="137.474" y2="146.358" gradientUnits="userSpaceOnUse">
<stop stop-color="#F9F7C6"/>
<stop offset="1" stop-color="#E8FCDB"/>
</linearGradient>
<linearGradient id="paint4_linear_6489_1255" x1="91.5434" y1="163.813" x2="137.474" y2="169.358" gradientUnits="userSpaceOnUse">
<stop stop-color="#F9F7C6"/>
<stop offset="1" stop-color="#E8FCDB"/>
</linearGradient>
<linearGradient id="paint5_linear_6489_1255" x1="91.5434" y1="186.813" x2="137.474" y2="192.358" gradientUnits="userSpaceOnUse">
<stop stop-color="#F9F7C6"/>
<stop offset="1" stop-color="#E8FCDB"/>
</linearGradient>
<linearGradient id="paint6_linear_6489_1255" x1="91.8208" y1="89.3594" x2="158.285" y2="105.524" gradientUnits="userSpaceOnUse">
<stop stop-color="#FFE5F2"/>
<stop offset="1" stop-color="#FEEADC"/>
</linearGradient>
<radialGradient id="paint7_diamond_6489_1255" cx="0" cy="0" r="1" gradientUnits="userSpaceOnUse" gradientTransform="translate(162 99.8333) rotate(-169.988) scale(19.2938 87.2865)">
<stop stop-color="#484A9E"/>
<stop offset="0.385417" stop-color="#6E6DE4"/>
<stop offset="1" stop-color="#484A9E"/>
</radialGradient>
<radialGradient id="paint8_diamond_6489_1255" cx="0" cy="0" r="1" gradientUnits="userSpaceOnUse" gradientTransform="translate(162 121) rotate(-171.396) scale(19.2163 75.1188)">
<stop stop-color="#484A9E"/>
<stop offset="0.385417" stop-color="#6E6DE4"/>
<stop offset="1" stop-color="#484A9E"/>
</radialGradient>
<radialGradient id="paint9_diamond_6489_1255" cx="0" cy="0" r="1" gradientUnits="userSpaceOnUse" gradientTransform="translate(162 144) rotate(-171.396) scale(19.2163 75.1188)">
<stop stop-color="#484A9E"/>
<stop offset="0.385417" stop-color="#6E6DE4"/>
<stop offset="1" stop-color="#484A9E"/>
</radialGradient>
<radialGradient id="paint10_diamond_6489_1255" cx="0" cy="0" r="1" gradientUnits="userSpaceOnUse" gradientTransform="translate(162 165.833) rotate(-169.988) scale(19.2938 87.2865)">
<stop stop-color="#484A9E"/>
<stop offset="0.385417" stop-color="#6E6DE4"/>
<stop offset="1" stop-color="#484A9E"/>
</radialGradient>
<radialGradient id="paint11_diamond_6489_1255" cx="0" cy="0" r="1" gradientUnits="userSpaceOnUse" gradientTransform="translate(162 188.833) rotate(-169.988) scale(19.2938 87.2865)">
<stop stop-color="#484A9E"/>
<stop offset="0.385417" stop-color="#6E6DE4"/>
<stop offset="1" stop-color="#484A9E"/>
</radialGradient>
<linearGradient id="paint12_linear_6489_1255" x1="91.8208" y1="111.359" x2="158.285" y2="127.524" gradientUnits="userSpaceOnUse">
<stop stop-color="#FFE5F2"/>
<stop offset="1" stop-color="#FEEADC"/>
</linearGradient>
<linearGradient id="paint13_linear_6489_1255" x1="91.8208" y1="134.359" x2="158.285" y2="150.524" gradientUnits="userSpaceOnUse">
<stop stop-color="#FFE5F2"/>
<stop offset="1" stop-color="#FEEADC"/>
</linearGradient>
<linearGradient id="paint14_linear_6489_1255" x1="91.8208" y1="155.906" x2="153.949" y2="178.571" gradientUnits="userSpaceOnUse">
<stop stop-color="#FFE5F2"/>
<stop offset="1" stop-color="#FEEADC"/>
</linearGradient>
<linearGradient id="paint15_linear_6489_1255" x1="91.8208" y1="178.359" x2="158.285" y2="194.524" gradientUnits="userSpaceOnUse">
<stop stop-color="#FFE5F2"/>
<stop offset="1" stop-color="#FEEADC"/>
</linearGradient>
<linearGradient id="paint16_linear_6489_1255" x1="76.5" y1="87" x2="76.5" y2="101" gradientUnits="userSpaceOnUse">
<stop stop-color="#EAEAEA"/>
<stop offset="1" stop-color="#ECECEC"/>
</linearGradient>
<linearGradient id="paint17_linear_6489_1255" x1="75.8441" y1="99.46" x2="75.8441" y2="88.8008" gradientUnits="userSpaceOnUse">
<stop/>
<stop offset="1"/>
</linearGradient>
<linearGradient id="paint18_linear_6489_1255" x1="71.3501" y1="98.5267" x2="81.6501" y2="98.5267" gradientUnits="userSpaceOnUse">
<stop stop-color="#606C88"/>
<stop offset="1" stop-color="#3F4C6B"/>
</linearGradient>
<linearGradient id="paint19_linear_6489_1255" x1="75.9774" y1="91.1533" x2="75.9774" y2="96.7533" gradientUnits="userSpaceOnUse">
<stop stop-color="#FFE0CC"/>
<stop offset="1" stop-color="#FFEADB"/>
</linearGradient>
<linearGradient id="paint20_linear_6489_1255" x1="76.5" y1="97.8267" x2="76.5" y2="100.067" gradientUnits="userSpaceOnUse">
<stop stop-color="#130027"/>
<stop offset="1" stop-color="#130017"/>
</linearGradient>
<linearGradient id="paint21_linear_6489_1255" x1="76.5" y1="108" x2="76.5" y2="122" gradientUnits="userSpaceOnUse">
<stop stop-color="#EAEAEA"/>
<stop offset="1" stop-color="#ECECEC"/>
</linearGradient>
<linearGradient id="paint22_linear_6489_1255" x1="75.8441" y1="120.46" x2="75.8441" y2="109.801" gradientUnits="userSpaceOnUse">
<stop/>
<stop offset="1"/>
</linearGradient>
<linearGradient id="paint23_linear_6489_1255" x1="71.3501" y1="119.527" x2="81.6501" y2="119.527" gradientUnits="userSpaceOnUse">
<stop stop-color="#606C88"/>
<stop offset="1" stop-color="#3F4C6B"/>
</linearGradient>
<linearGradient id="paint24_linear_6489_1255" x1="75.9774" y1="112.153" x2="75.9774" y2="117.753" gradientUnits="userSpaceOnUse">
<stop stop-color="#FFE0CC"/>
<stop offset="1" stop-color="#FFEADB"/>
</linearGradient>
<linearGradient id="paint25_linear_6489_1255" x1="76.5" y1="118.827" x2="76.5" y2="121.067" gradientUnits="userSpaceOnUse">
<stop stop-color="#130027"/>
<stop offset="1" stop-color="#130017"/>
</linearGradient>
<linearGradient id="paint26_linear_6489_1255" x1="76.5" y1="131" x2="76.5" y2="145" gradientUnits="userSpaceOnUse">
<stop stop-color="#EAEAEA"/>
<stop offset="1" stop-color="#ECECEC"/>
</linearGradient>
<linearGradient id="paint27_linear_6489_1255" x1="75.8441" y1="143.46" x2="75.8441" y2="132.801" gradientUnits="userSpaceOnUse">
<stop/>
<stop offset="1"/>
</linearGradient>
<linearGradient id="paint28_linear_6489_1255" x1="71.3501" y1="142.527" x2="81.6501" y2="142.527" gradientUnits="userSpaceOnUse">
<stop stop-color="#606C88"/>
<stop offset="1" stop-color="#3F4C6B"/>
</linearGradient>
<linearGradient id="paint29_linear_6489_1255" x1="75.9774" y1="135.153" x2="75.9774" y2="140.753" gradientUnits="userSpaceOnUse">
<stop stop-color="#FFE0CC"/>
<stop offset="1" stop-color="#FFEADB"/>
</linearGradient>
<linearGradient id="paint30_linear_6489_1255" x1="76.5" y1="141.827" x2="76.5" y2="144.067" gradientUnits="userSpaceOnUse">
<stop stop-color="#130027"/>
<stop offset="1" stop-color="#130017"/>
</linearGradient>
<linearGradient id="paint31_linear_6489_1255" x1="76.5" y1="153" x2="76.5" y2="167" gradientUnits="userSpaceOnUse">
<stop stop-color="#EAEAEA"/>
<stop offset="1" stop-color="#ECECEC"/>
</linearGradient>
<linearGradient id="paint32_linear_6489_1255" x1="75.8441" y1="165.46" x2="75.8441" y2="154.801" gradientUnits="userSpaceOnUse">
<stop/>
<stop offset="1"/>
</linearGradient>
<linearGradient id="paint33_linear_6489_1255" x1="71.3501" y1="164.527" x2="81.6501" y2="164.527" gradientUnits="userSpaceOnUse">
<stop stop-color="#606C88"/>
<stop offset="1" stop-color="#3F4C6B"/>
</linearGradient>
<linearGradient id="paint34_linear_6489_1255" x1="75.9774" y1="157.153" x2="75.9774" y2="162.753" gradientUnits="userSpaceOnUse">
<stop stop-color="#FFE0CC"/>
<stop offset="1" stop-color="#FFEADB"/>
</linearGradient>
<linearGradient id="paint35_linear_6489_1255" x1="76.5" y1="163.827" x2="76.5" y2="166.067" gradientUnits="userSpaceOnUse">
<stop stop-color="#130027"/>
<stop offset="1" stop-color="#130017"/>
</linearGradient>
<linearGradient id="paint36_linear_6489_1255" x1="76.5" y1="175" x2="76.5" y2="190" gradientUnits="userSpaceOnUse">
<stop stop-color="#EAEAEA"/>
<stop offset="1" stop-color="#ECECEC"/>
</linearGradient>
<linearGradient id="paint37_linear_6489_1255" x1="75.8441" y1="188.35" x2="75.8441" y2="176.929" gradientUnits="userSpaceOnUse">
<stop/>
<stop offset="1"/>
</linearGradient>
<linearGradient id="paint38_linear_6489_1255" x1="71.3501" y1="187.35" x2="81.6501" y2="187.35" gradientUnits="userSpaceOnUse">
<stop stop-color="#606C88"/>
<stop offset="1" stop-color="#3F4C6B"/>
</linearGradient>
<linearGradient id="paint39_linear_6489_1255" x1="75.9774" y1="179.45" x2="75.9774" y2="185.45" gradientUnits="userSpaceOnUse">
<stop stop-color="#FFE0CC"/>
<stop offset="1" stop-color="#FFEADB"/>
</linearGradient>
<linearGradient id="paint40_linear_6489_1255" x1="76.5" y1="186.6" x2="76.5" y2="189" gradientUnits="userSpaceOnUse">
<stop stop-color="#130027"/>
<stop offset="1" stop-color="#130017"/>
</linearGradient>
<clipPath id="clip0_6489_1255">
<path d="M69 94C69 90.134 72.134 87 76 87H77C80.866 87 84 90.134 84 94V94C84 97.866 80.866 101 77 101H76C72.134 101 69 97.866 69 94V94Z" fill="white"/>
</clipPath>
<clipPath id="clip1_6489_1255">
<path d="M69 115C69 111.134 72.134 108 76 108H77C80.866 108 84 111.134 84 115V115C84 118.866 80.866 122 77 122H76C72.134 122 69 118.866 69 115V115Z" fill="white"/>
</clipPath>
<clipPath id="clip2_6489_1255">
<path d="M69 138C69 134.134 72.134 131 76 131H77C80.866 131 84 134.134 84 138V138C84 141.866 80.866 145 77 145H76C72.134 145 69 141.866 69 138V138Z" fill="white"/>
</clipPath>
<clipPath id="clip3_6489_1255">
<path d="M69 160C69 156.134 72.134 153 76 153H77C80.866 153 84 156.134 84 160V160C84 163.866 80.866 167 77 167H76C72.134 167 69 163.866 69 160V160Z" fill="white"/>
</clipPath>
<clipPath id="clip4_6489_1255">
<path d="M69 182.5C69 178.358 72.3579 175 76.5 175V175C80.6421 175 84 178.358 84 182.5V182.5C84 186.642 80.6421 190 76.5 190V190C72.3579 190 69 186.642 69 182.5V182.5Z" fill="white"/>
</clipPath>
</defs>
</svg>
