<svg width="332" height="241" viewBox="0 0 332 241" fill="none" xmlns="http://www.w3.org/2000/svg">
<g filter="url(#filter0_d_6775_2329)">
<rect x="28" y="28" width="275.662" height="185" rx="10" fill="white"/>
</g>
<g filter="url(#filter1_d_6775_2329)">
<rect x="48" y="63" width="239" height="41" rx="10" fill="white"/>
</g>
<g filter="url(#filter2_d_6775_2329)">
<rect x="48" y="112" width="239" height="41" rx="10" fill="white"/>
</g>
<g filter="url(#filter3_d_6775_2329)">
<rect x="48" y="161" width="239" height="41" rx="10" fill="white"/>
</g>
<g clip-path="url(#clip0_6775_2329)">
<path d="M61 83.3043C61 77.0611 66.0611 72 72.3043 72V72C78.5476 72 83.6087 77.0611 83.6087 83.3043V83.3043C83.6087 89.5476 78.5476 94.6087 72.3043 94.6087V94.6087C66.0611 94.6087 61 89.5476 61 83.3043V83.3043Z" fill="url(#paint0_linear_6775_2329)"/>
<path d="M74.716 85.2639V86.9596C74.716 87.2861 69.8928 87.1763 69.8928 86.7055C69.8928 86.2623 69.9019 84.2542 69.8928 82.1883C68.8127 80.7882 68.8127 79.9132 69.6667 79.0089C70.5207 78.1045 76.6001 77.6523 76.6001 77.6523C76.6001 77.6523 77.0562 82.0392 77.1276 83.2292C77.1563 83.7077 77.4667 85.2639 76.2609 85.2639H74.716Z" fill="url(#paint1_linear_6775_2329)"/>
<g style="mix-blend-mode:multiply">
<path d="M74.7143 85.1187C73.7324 85.0116 72.7835 84.7016 71.9277 84.2085C71.9277 84.2085 72.5306 85.6404 74.7143 86.0289V85.1187Z" fill="#FFD7B8"/>
</g>
<path d="M80.2175 90.3363C80.6958 91.3088 81.0726 92.9166 81.3479 95.1595H63.261C63.5364 92.9163 63.9132 91.3086 64.3914 90.3363C64.868 89.3672 69.29 87.502 69.29 87.502C69.29 87.502 69.378 86.6494 69.5914 86.5272C69.8048 86.405 74.7633 86.405 75.0175 86.5272C75.2717 86.6494 75.319 87.5016 75.319 87.5016C75.319 87.5016 79.7418 89.3692 80.2175 90.3363Z" fill="url(#paint2_linear_6775_2329)"/>
<path d="M70.8741 79.9285C70.6344 79.7227 70.3432 79.5841 69.9316 79.798C68.9557 80.3047 69.6034 82.2594 70.6954 82.2213C71.0723 82.2082 70.8995 82.9591 69.8928 83.455C69.8928 82.6637 68.687 80.7043 68.5815 78.9203C67.3682 78.4685 67.6696 76.6608 68.5026 76.6608C68.3697 75.0035 71.0233 74.1476 72.0508 75.0986C73.0957 73.8461 75.7334 74.4867 75.8927 75.5733C77.7064 74.6051 78.8986 77.3881 77.2003 78.4685C76.5015 78.9132 74.8667 79.0824 72.5069 79.0824C71.3745 79.0824 72.0257 81.7328 72.3798 82.5884C72.832 83.6811 75.3566 83.8318 76.1479 83.7188C76.7659 83.6305 77.0899 83.3797 77.1276 83.2289C77.6928 84.7362 76.9769 85.6405 75.8465 85.6405C73.9247 85.6405 72.003 85.0753 71.7015 83.6811C71.4616 82.5716 71.4748 80.7809 70.8741 79.9285Z" fill="url(#paint3_linear_6775_2329)"/>
</g>
<rect x="94" y="73" width="107" height="4" rx="2" fill="url(#paint4_linear_6775_2329)"/>
<rect x="94" y="122" width="107" height="4" rx="2" fill="url(#paint5_linear_6775_2329)"/>
<rect x="94" y="171" width="107" height="4" rx="2" fill="url(#paint6_linear_6775_2329)"/>
<rect opacity="0.5" x="94" y="82" width="51" height="4" rx="2" fill="url(#paint7_linear_6775_2329)"/>
<rect opacity="0.5" x="94" y="131" width="51" height="4" rx="2" fill="url(#paint8_linear_6775_2329)"/>
<rect opacity="0.5" x="94" y="180" width="51" height="4" rx="2" fill="url(#paint9_linear_6775_2329)"/>
<rect opacity="0.5" x="94" y="91" width="79" height="4" rx="2" fill="url(#paint10_linear_6775_2329)"/>
<rect opacity="0.5" x="94" y="140" width="79" height="4" rx="2" fill="url(#paint11_linear_6775_2329)"/>
<rect opacity="0.5" x="94" y="189" width="79" height="4" rx="2" fill="url(#paint12_linear_6775_2329)"/>
<g clip-path="url(#clip1_6775_2329)">
<path d="M61 132.449C61 126.126 66.126 121 72.4493 121V121C78.7725 121 83.8986 126.126 83.8986 132.449V132.449C83.8986 138.773 78.7725 143.899 72.4493 143.899V143.899C66.126 143.899 61 138.773 61 132.449V132.449Z" fill="url(#paint13_linear_6775_2329)"/>
<path d="M79.4715 138.937C80.0312 140.006 80.3111 143.899 80.3111 143.899H64.5874C64.5874 143.899 64.8673 140.006 65.427 138.937C66.2666 137.334 72.4492 135.273 72.4492 135.273C72.4492 135.273 78.6318 137.334 79.4715 138.937Z" fill="url(#paint14_linear_6775_2329)"/>
<path d="M72.144 142.067C72.144 142.007 72.1619 141.948 72.1955 141.897C72.229 141.847 72.2767 141.808 72.3325 141.785C72.3883 141.762 72.4497 141.756 72.5089 141.768C72.5681 141.779 72.6226 141.808 72.6653 141.851C72.708 141.894 72.737 141.948 72.7488 142.007C72.7606 142.067 72.7545 142.128 72.7314 142.184C72.7083 142.24 72.6692 142.287 72.619 142.321C72.5688 142.354 72.5097 142.372 72.4494 142.372C72.3684 142.372 72.2907 142.34 72.2335 142.283C72.1762 142.226 72.144 142.148 72.144 142.067ZM72.144 140.54C72.144 140.48 72.1619 140.421 72.1955 140.371C72.229 140.321 72.2767 140.281 72.3325 140.258C72.3883 140.235 72.4497 140.229 72.5089 140.241C72.5681 140.253 72.6226 140.282 72.6653 140.324C72.708 140.367 72.737 140.422 72.7488 140.481C72.7606 140.54 72.7545 140.601 72.7314 140.657C72.7083 140.713 72.6692 140.761 72.619 140.794C72.5688 140.828 72.5097 140.846 72.4494 140.846C72.3684 140.846 72.2907 140.814 72.2335 140.756C72.1762 140.699 72.144 140.621 72.144 140.54ZM72.144 139.014C72.144 138.953 72.1619 138.894 72.1955 138.844C72.229 138.794 72.2767 138.755 72.3325 138.732C72.3883 138.709 72.4497 138.703 72.5089 138.714C72.5681 138.726 72.6226 138.755 72.6653 138.798C72.708 138.841 72.737 138.895 72.7488 138.954C72.7606 139.013 72.7545 139.075 72.7314 139.131C72.7083 139.186 72.6692 139.234 72.619 139.268C72.5688 139.301 72.5097 139.319 72.4494 139.319C72.3684 139.319 72.2907 139.287 72.2335 139.23C72.1762 139.172 72.144 139.095 72.144 139.014Z" fill="white"/>
<path d="M78.9731 134.389L66.573 132.891C65.9617 129.645 66.6868 127.6 68.7484 126.756C69.7014 123.634 73.4108 123.888 74.4622 124.142C78.0401 125.008 79.5438 128.424 78.9731 134.389Z" fill="url(#paint15_linear_6775_2329)"/>
<path d="M70.6175 136.19V131.61C68.7076 131.581 69.0801 128.272 70.9991 129.282C71.3426 129.434 72.2204 129.015 71.915 127.984C73.9759 129.511 76.8477 126.832 77.0291 128.48C77.3859 131.725 76.6954 134.392 74.8645 134.392C74.6694 134.4 74.4741 134.388 74.2812 134.358V136.19C73.6836 136.546 73.0859 136.724 72.4883 136.724C71.8906 136.724 71.267 136.546 70.6175 136.19Z" fill="#FFDBC9"/>
<path d="M74.2811 134.358V134.968C73.1362 134.968 72.2457 134.421 71.6096 133.327C72.3729 133.836 73.2634 134.179 74.2811 134.358Z" fill="#FFBC9E"/>
<path d="M72.4468 136.645C72.9689 136.62 74.2812 136.35 74.2812 135.767V135.273C74.4212 135.273 74.822 135.604 75.0281 135.884C75.843 136.991 74.9391 137.983 74.2019 137.983C73.2718 137.983 72.6554 137.206 72.4493 136.832C72.2432 137.206 71.6268 137.983 70.6966 137.983C69.9595 137.983 69.0556 136.991 69.8705 135.884C70.0766 135.604 70.4774 135.273 70.6174 135.273V135.767C70.6174 136.35 71.8952 136.62 72.4468 136.645Z" fill="white"/>
</g>
<path d="M28 38C28 32.4772 32.4772 28 38 28H293.662C299.185 28 303.662 32.4772 303.662 38V52.5033H28V38Z" fill="url(#paint16_linear_6775_2329)"/>
<path d="M189.722 64.1426H282.222" stroke="white"/>
<path d="M259 75C254.028 75 250 79.0275 250 84C250 85.6875 250.472 87.285 251.305 88.635C252.857 91.245 255.715 93 259 93C262.285 93 265.142 91.245 266.695 88.635C267.528 87.285 268 85.6875 268 84C268 79.0275 263.972 75 259 75Z" fill="url(#paint17_linear_6775_2329)"/>
<path d="M256.359 81.3178L256.229 81.4486V80.9813C256.229 80.6449 255.949 80.3645 255.614 80.3645C255.279 80.3645 255 80.6449 255 80.9813V82.9626C255 83.2991 255.279 83.5794 255.614 83.5794H257.587C257.922 83.5794 258.202 83.2991 258.202 82.9626C258.202 82.6262 257.922 82.3458 257.587 82.3458H257.122L257.252 82.215C258.518 80.9439 260.566 80.9439 261.831 82.215C263.097 83.486 263.097 85.5421 261.831 86.8131C260.566 88.0841 258.518 88.0841 257.252 86.8131C256.787 86.3458 256.471 85.7477 256.359 85.1121C256.303 84.7757 255.968 84.5514 255.633 84.6075C255.298 84.6636 255.074 85 255.13 85.3364C255.298 86.2336 255.726 87.0561 256.359 87.6916C257.234 88.5701 258.388 89 259.523 89C260.677 89 261.813 88.5701 262.688 87.6916C264.437 85.9346 264.437 83.0748 262.688 81.3178C260.957 79.5607 258.109 79.5607 256.359 81.3178Z" fill="white"/>
<path d="M259 122C254.028 122 250 126.028 250 131C250 132.688 250.472 134.285 251.305 135.635C252.857 138.245 255.715 140 259 140C262.285 140 265.142 138.245 266.695 135.635C267.528 134.285 268 132.688 268 131C268 126.028 263.972 122 259 122Z" fill="url(#paint18_linear_6775_2329)"/>
<path d="M256.359 128.318L256.229 128.449V127.981C256.229 127.645 255.949 127.364 255.614 127.364C255.279 127.364 255 127.645 255 127.981V129.963C255 130.299 255.279 130.579 255.614 130.579H257.587C257.922 130.579 258.202 130.299 258.202 129.963C258.202 129.626 257.922 129.346 257.587 129.346H257.122L257.252 129.215C258.518 127.944 260.566 127.944 261.831 129.215C263.097 130.486 263.097 132.542 261.831 133.813C260.566 135.084 258.518 135.084 257.252 133.813C256.787 133.346 256.471 132.748 256.359 132.112C256.303 131.776 255.968 131.551 255.633 131.607C255.298 131.664 255.074 132 255.13 132.336C255.298 133.234 255.726 134.056 256.359 134.692C257.234 135.57 258.388 136 259.523 136C260.677 136 261.813 135.57 262.688 134.692C264.437 132.935 264.437 130.075 262.688 128.318C260.957 126.561 258.109 126.561 256.359 128.318Z" fill="white"/>
<path d="M259 173C254.028 173 250 177.028 250 182C250 183.688 250.472 185.285 251.305 186.635C252.857 189.245 255.715 191 259 191C262.285 191 265.142 189.245 266.695 186.635C267.528 185.285 268 183.688 268 182C268 177.028 263.972 173 259 173Z" fill="url(#paint19_linear_6775_2329)"/>
<path d="M256.359 179.318L256.229 179.449V178.981C256.229 178.645 255.949 178.364 255.614 178.364C255.279 178.364 255 178.645 255 178.981V180.963C255 181.299 255.279 181.579 255.614 181.579H257.587C257.922 181.579 258.202 181.299 258.202 180.963C258.202 180.626 257.922 180.346 257.587 180.346H257.122L257.252 180.215C258.518 178.944 260.566 178.944 261.831 180.215C263.097 181.486 263.097 183.542 261.831 184.813C260.566 186.084 258.518 186.084 257.252 184.813C256.787 184.346 256.471 183.748 256.359 183.112C256.303 182.776 255.968 182.551 255.633 182.607C255.298 182.664 255.074 183 255.13 183.336C255.298 184.234 255.726 185.056 256.359 185.692C257.234 186.57 258.388 187 259.523 187C260.677 187 261.813 186.57 262.688 185.692C264.437 183.935 264.437 181.075 262.688 179.318C260.957 177.561 258.109 177.561 256.359 179.318Z" fill="white"/>
<g filter="url(#filter4_d_6775_2329)">
<rect x="250" y="33" width="40" height="40" rx="10" fill="#2395B2"/>
</g>
<g clip-path="url(#clip2_6775_2329)">
<path d="M61 181.45C61 175.126 66.1263 170 72.45 170V170C78.7737 170 83.9 175.126 83.9 181.45V181.45C83.9 187.774 78.7737 192.9 72.45 192.9V192.9C66.1263 192.9 61 187.774 61 181.45V181.45Z" fill="url(#paint20_linear_6775_2329)"/>
<path d="M74.8165 183.282V184.198C74.8165 185.419 76.5721 185.954 76.5721 185.954C76.5721 185.954 74.5493 187.48 72.4501 187.48C70.351 187.48 68.3281 185.954 68.3281 185.954C68.3281 185.954 70.0976 185.419 70.0838 184.198C70.07 182.977 70.0792 182.259 70.07 180.167C68.976 178.749 69.0462 177.797 69.6444 177.128C71.6486 174.885 77.1065 175.649 77.1065 175.649C77.1065 175.649 77.6158 181.144 76.4576 182.748C75.9615 183.435 74.8165 183.282 74.8165 183.282Z" fill="url(#paint21_linear_6775_2329)"/>
<path d="M74.8164 183.282C73.1371 183.091 72.1448 182.366 72.1448 182.366C72.7713 183.293 73.7261 183.948 74.8164 184.198V183.282Z" fill="#DB6F3D"/>
<path d="M80.465 188.267C81.1917 189.745 81.61 193.153 81.61 193.153H63.29C63.29 193.153 63.7085 189.744 64.435 188.267C65.1616 186.79 69.4043 185.42 69.4043 185.42C70.2221 187.099 74.7101 187.099 75.4935 185.419C75.4935 185.419 79.7383 186.79 80.465 188.267Z" fill="url(#paint22_linear_6775_2329)"/>
<path d="M71.0114 177.879C70.7687 177.67 70.4737 177.53 70.0568 177.746C69.0684 178.259 69.8164 180.229 70.6943 180.229C70.9233 180.229 71.0372 180.948 70.0176 181.45C70.0176 180.649 68.7962 178.664 68.6894 176.857C67.4604 176.399 67.7657 174.568 68.6094 174.568C68.4748 172.89 71.1626 172.023 72.2033 172.986C73.2617 171.718 75.9334 172.367 76.0947 173.467C77.9318 172.486 79.1394 175.305 77.4192 176.4C76.7114 176.85 75.0556 177.021 72.6653 177.021C72.3045 177.021 72.1024 177.111 72.2033 177.557C72.3986 178.422 71.9451 178.966 71.0114 177.879Z" fill="url(#paint23_linear_6775_2329)"/>
</g>
<path d="M274.75 44.56V43C274.75 42.59 274.41 42.25 274 42.25C273.59 42.25 273.25 42.59 273.25 43V44.5H266.75V43C266.75 42.59 266.41 42.25 266 42.25C265.59 42.25 265.25 42.59 265.25 43V44.56C262.55 44.81 261.24 46.42 261.04 48.81C261.02 49.1 261.26 49.34 261.54 49.34H278.46C278.75 49.34 278.99 49.09 278.96 48.81C278.76 46.42 277.45 44.81 274.75 44.56Z" fill="white"/>
<path d="M277 56C274.79 56 273 57.79 273 60C273 60.75 273.21 61.46 273.58 62.06C274.27 63.22 275.54 64 277 64C278.46 64 279.73 63.22 280.42 62.06C280.79 61.46 281 60.75 281 60C281 57.79 279.21 56 277 56Z" fill="white"/>
<path d="M278 50.8398H262C261.45 50.8398 261 51.2898 261 51.8398V57.9998C261 60.9998 262.5 62.9998 266 62.9998H270.93C271.62 62.9998 272.1 62.3298 271.88 61.6798C271.68 61.0998 271.51 60.4598 271.51 59.9998C271.51 56.9698 273.98 54.4998 277.01 54.4998C277.3 54.4998 277.59 54.5198 277.87 54.5698C278.47 54.6598 279.01 54.1898 279.01 53.5898V51.8498C279 51.2898 278.55 50.8398 278 50.8398ZM267.21 59.2098C267.02 59.3898 266.76 59.4998 266.5 59.4998C266.24 59.4998 265.98 59.3898 265.79 59.2098C265.61 59.0198 265.5 58.7598 265.5 58.4998C265.5 58.2398 265.61 57.9798 265.79 57.7898C265.89 57.6998 265.99 57.6298 266.12 57.5798C266.49 57.4198 266.93 57.5098 267.21 57.7898C267.39 57.9798 267.5 58.2398 267.5 58.4998C267.5 58.7598 267.39 59.0198 267.21 59.2098ZM267.21 55.7098C267.16 55.7498 267.11 55.7898 267.06 55.8298C267 55.8698 266.94 55.8998 266.88 55.9198C266.82 55.9498 266.76 55.9698 266.7 55.9798C266.63 55.9898 266.56 55.9998 266.5 55.9998C266.24 55.9998 265.98 55.8898 265.79 55.7098C265.61 55.5198 265.5 55.2598 265.5 54.9998C265.5 54.7398 265.61 54.4798 265.79 54.2898C266.02 54.0598 266.37 53.9498 266.7 54.0198C266.76 54.0298 266.82 54.0498 266.88 54.0798C266.94 54.0998 267 54.1298 267.06 54.1698C267.11 54.2098 267.16 54.2498 267.21 54.2898C267.39 54.4798 267.5 54.7398 267.5 54.9998C267.5 55.2598 267.39 55.5198 267.21 55.7098ZM270.71 55.7098C270.52 55.8898 270.26 55.9998 270 55.9998C269.74 55.9998 269.48 55.8898 269.29 55.7098C269.11 55.5198 269 55.2598 269 54.9998C269 54.7398 269.11 54.4798 269.29 54.2898C269.67 53.9198 270.34 53.9198 270.71 54.2898C270.89 54.4798 271 54.7398 271 54.9998C271 55.2598 270.89 55.5198 270.71 55.7098Z" fill="white"/>
<path d="M275.604 58.5857L275.546 58.6438V58.4361C275.546 58.2866 275.422 58.162 275.273 58.162C275.124 58.162 275 58.2866 275 58.4361V59.3167C275 59.4663 275.124 59.5909 275.273 59.5909H276.15C276.299 59.5909 276.423 59.4663 276.423 59.3167C276.423 59.1672 276.299 59.0426 276.15 59.0426H275.943L276.001 58.9844C276.564 58.4195 277.474 58.4195 278.036 58.9844C278.599 59.5493 278.599 60.4631 278.036 61.028C277.474 61.5929 276.564 61.5929 276.001 61.028C275.794 60.8204 275.654 60.5545 275.604 60.2721C275.579 60.1225 275.43 60.0228 275.281 60.0478C275.132 60.0727 275.033 60.2222 275.058 60.3718C275.132 60.7705 275.323 61.136 275.604 61.4185C275.993 61.8089 276.506 62 277.01 62C277.523 62 278.028 61.8089 278.417 61.4185C279.194 60.6376 279.194 59.3666 278.417 58.5857C277.647 57.8048 276.382 57.8048 275.604 58.5857Z" fill="#2395B2"/>
<defs>
<filter id="filter0_d_6775_2329" x="0" y="0" width="331.662" height="241" filterUnits="userSpaceOnUse" color-interpolation-filters="sRGB">
<feFlood flood-opacity="0" result="BackgroundImageFix"/>
<feColorMatrix in="SourceAlpha" type="matrix" values="0 0 0 0 0 0 0 0 0 0 0 0 0 0 0 0 0 0 127 0" result="hardAlpha"/>
<feMorphology radius="4" operator="dilate" in="SourceAlpha" result="effect1_dropShadow_6775_2329"/>
<feOffset/>
<feGaussianBlur stdDeviation="12"/>
<feComposite in2="hardAlpha" operator="out"/>
<feColorMatrix type="matrix" values="0 0 0 0 0.282353 0 0 0 0 0.290196 0 0 0 0 0.619608 0 0 0 0.06 0"/>
<feBlend mode="normal" in2="BackgroundImageFix" result="effect1_dropShadow_6775_2329"/>
<feBlend mode="normal" in="SourceGraphic" in2="effect1_dropShadow_6775_2329" result="shape"/>
</filter>
<filter id="filter1_d_6775_2329" x="20" y="35" width="295" height="97" filterUnits="userSpaceOnUse" color-interpolation-filters="sRGB">
<feFlood flood-opacity="0" result="BackgroundImageFix"/>
<feColorMatrix in="SourceAlpha" type="matrix" values="0 0 0 0 0 0 0 0 0 0 0 0 0 0 0 0 0 0 127 0" result="hardAlpha"/>
<feMorphology radius="4" operator="dilate" in="SourceAlpha" result="effect1_dropShadow_6775_2329"/>
<feOffset/>
<feGaussianBlur stdDeviation="12"/>
<feComposite in2="hardAlpha" operator="out"/>
<feColorMatrix type="matrix" values="0 0 0 0 0.282353 0 0 0 0 0.290196 0 0 0 0 0.619608 0 0 0 0.08 0"/>
<feBlend mode="normal" in2="BackgroundImageFix" result="effect1_dropShadow_6775_2329"/>
<feBlend mode="normal" in="SourceGraphic" in2="effect1_dropShadow_6775_2329" result="shape"/>
</filter>
<filter id="filter2_d_6775_2329" x="20" y="84" width="295" height="97" filterUnits="userSpaceOnUse" color-interpolation-filters="sRGB">
<feFlood flood-opacity="0" result="BackgroundImageFix"/>
<feColorMatrix in="SourceAlpha" type="matrix" values="0 0 0 0 0 0 0 0 0 0 0 0 0 0 0 0 0 0 127 0" result="hardAlpha"/>
<feMorphology radius="4" operator="dilate" in="SourceAlpha" result="effect1_dropShadow_6775_2329"/>
<feOffset/>
<feGaussianBlur stdDeviation="12"/>
<feComposite in2="hardAlpha" operator="out"/>
<feColorMatrix type="matrix" values="0 0 0 0 0.282353 0 0 0 0 0.290196 0 0 0 0 0.619608 0 0 0 0.08 0"/>
<feBlend mode="normal" in2="BackgroundImageFix" result="effect1_dropShadow_6775_2329"/>
<feBlend mode="normal" in="SourceGraphic" in2="effect1_dropShadow_6775_2329" result="shape"/>
</filter>
<filter id="filter3_d_6775_2329" x="20" y="133" width="295" height="97" filterUnits="userSpaceOnUse" color-interpolation-filters="sRGB">
<feFlood flood-opacity="0" result="BackgroundImageFix"/>
<feColorMatrix in="SourceAlpha" type="matrix" values="0 0 0 0 0 0 0 0 0 0 0 0 0 0 0 0 0 0 127 0" result="hardAlpha"/>
<feMorphology radius="4" operator="dilate" in="SourceAlpha" result="effect1_dropShadow_6775_2329"/>
<feOffset/>
<feGaussianBlur stdDeviation="12"/>
<feComposite in2="hardAlpha" operator="out"/>
<feColorMatrix type="matrix" values="0 0 0 0 0.282353 0 0 0 0 0.290196 0 0 0 0 0.619608 0 0 0 0.08 0"/>
<feBlend mode="normal" in2="BackgroundImageFix" result="effect1_dropShadow_6775_2329"/>
<feBlend mode="normal" in="SourceGraphic" in2="effect1_dropShadow_6775_2329" result="shape"/>
</filter>
<filter id="filter4_d_6775_2329" x="222" y="17" width="96" height="96" filterUnits="userSpaceOnUse" color-interpolation-filters="sRGB">
<feFlood flood-opacity="0" result="BackgroundImageFix"/>
<feColorMatrix in="SourceAlpha" type="matrix" values="0 0 0 0 0 0 0 0 0 0 0 0 0 0 0 0 0 0 127 0" result="hardAlpha"/>
<feMorphology radius="4" operator="dilate" in="SourceAlpha" result="effect1_dropShadow_6775_2329"/>
<feOffset dy="12"/>
<feGaussianBlur stdDeviation="12"/>
<feComposite in2="hardAlpha" operator="out"/>
<feColorMatrix type="matrix" values="0 0 0 0 0.137255 0 0 0 0 0.584314 0 0 0 0 0.698039 0 0 0 0.15 0"/>
<feBlend mode="normal" in2="BackgroundImageFix" result="effect1_dropShadow_6775_2329"/>
<feBlend mode="normal" in="SourceGraphic" in2="effect1_dropShadow_6775_2329" result="shape"/>
</filter>
<linearGradient id="paint0_linear_6775_2329" x1="72.3043" y1="72" x2="72.3043" y2="94.6087" gradientUnits="userSpaceOnUse">
<stop stop-color="#EAEAEA"/>
<stop offset="1" stop-color="#ECECEC"/>
</linearGradient>
<linearGradient id="paint1_linear_6775_2329" x1="73.1181" y1="77.6523" x2="73.1181" y2="87.147" gradientUnits="userSpaceOnUse">
<stop stop-color="#FFD4B3"/>
<stop offset="1" stop-color="#FFDCC2"/>
</linearGradient>
<linearGradient id="paint2_linear_6775_2329" x1="63.261" y1="90.7975" x2="81.3479" y2="90.7975" gradientUnits="userSpaceOnUse">
<stop stop-color="#606C88"/>
<stop offset="1" stop-color="#3F4C6B"/>
</linearGradient>
<linearGradient id="paint3_linear_6775_2329" x1="72.8959" y1="85.6405" x2="72.8959" y2="74.4111" gradientUnits="userSpaceOnUse">
<stop/>
<stop offset="1"/>
</linearGradient>
<linearGradient id="paint4_linear_6775_2329" x1="95.237" y1="74.8125" x2="193.873" y2="101.926" gradientUnits="userSpaceOnUse">
<stop stop-color="#F9F7C6"/>
<stop offset="1" stop-color="#E8FCDB"/>
</linearGradient>
<linearGradient id="paint5_linear_6775_2329" x1="95.237" y1="123.813" x2="193.873" y2="150.926" gradientUnits="userSpaceOnUse">
<stop stop-color="#F9F7C6"/>
<stop offset="1" stop-color="#E8FCDB"/>
</linearGradient>
<linearGradient id="paint6_linear_6775_2329" x1="95.237" y1="172.813" x2="193.873" y2="199.926" gradientUnits="userSpaceOnUse">
<stop stop-color="#F9F7C6"/>
<stop offset="1" stop-color="#E8FCDB"/>
</linearGradient>
<linearGradient id="paint7_linear_6775_2329" x1="94.5896" y1="83.8125" x2="144.302" y2="90.3259" gradientUnits="userSpaceOnUse">
<stop stop-color="#F9F7C6"/>
<stop offset="1" stop-color="#E8FCDB"/>
</linearGradient>
<linearGradient id="paint8_linear_6775_2329" x1="94.5896" y1="132.813" x2="144.302" y2="139.326" gradientUnits="userSpaceOnUse">
<stop stop-color="#F9F7C6"/>
<stop offset="1" stop-color="#E8FCDB"/>
</linearGradient>
<linearGradient id="paint9_linear_6775_2329" x1="94.5896" y1="181.813" x2="144.302" y2="188.326" gradientUnits="userSpaceOnUse">
<stop stop-color="#F9F7C6"/>
<stop offset="1" stop-color="#E8FCDB"/>
</linearGradient>
<linearGradient id="paint10_linear_6775_2329" x1="94.9133" y1="92.8125" x2="170.142" y2="108.081" gradientUnits="userSpaceOnUse">
<stop stop-color="#F9F7C6"/>
<stop offset="1" stop-color="#E8FCDB"/>
</linearGradient>
<linearGradient id="paint11_linear_6775_2329" x1="94.9133" y1="141.813" x2="170.142" y2="157.081" gradientUnits="userSpaceOnUse">
<stop stop-color="#F9F7C6"/>
<stop offset="1" stop-color="#E8FCDB"/>
</linearGradient>
<linearGradient id="paint12_linear_6775_2329" x1="94.9133" y1="190.813" x2="170.142" y2="206.081" gradientUnits="userSpaceOnUse">
<stop stop-color="#F9F7C6"/>
<stop offset="1" stop-color="#E8FCDB"/>
</linearGradient>
<linearGradient id="paint13_linear_6775_2329" x1="72.4493" y1="121" x2="72.4493" y2="143.899" gradientUnits="userSpaceOnUse">
<stop stop-color="#EAEAEA"/>
<stop offset="1" stop-color="#ECECEC"/>
</linearGradient>
<linearGradient id="paint14_linear_6775_2329" x1="64.5874" y1="139.586" x2="80.3111" y2="139.586" gradientUnits="userSpaceOnUse">
<stop stop-color="#606C88"/>
<stop offset="1" stop-color="#3F4C6B"/>
</linearGradient>
<linearGradient id="paint15_linear_6775_2329" x1="72.7271" y1="134.389" x2="72.7271" y2="124.002" gradientUnits="userSpaceOnUse">
<stop/>
<stop offset="1"/>
</linearGradient>
<linearGradient id="paint16_linear_6775_2329" x1="28" y1="40.2517" x2="303.662" y2="40.2517" gradientUnits="userSpaceOnUse">
<stop stop-color="#2193B0"/>
<stop offset="1" stop-color="#6DD5ED"/>
</linearGradient>
<linearGradient id="paint17_linear_6775_2329" x1="250" y1="84" x2="268" y2="84" gradientUnits="userSpaceOnUse">
<stop stop-color="#2193B0"/>
<stop offset="1" stop-color="#6DD5ED"/>
</linearGradient>
<linearGradient id="paint18_linear_6775_2329" x1="250" y1="131" x2="268" y2="131" gradientUnits="userSpaceOnUse">
<stop stop-color="#2193B0"/>
<stop offset="1" stop-color="#6DD5ED"/>
</linearGradient>
<linearGradient id="paint19_linear_6775_2329" x1="250" y1="182" x2="268" y2="182" gradientUnits="userSpaceOnUse">
<stop stop-color="#2193B0"/>
<stop offset="1" stop-color="#6DD5ED"/>
</linearGradient>
<linearGradient id="paint20_linear_6775_2329" x1="72.45" y1="170" x2="72.45" y2="192.9" gradientUnits="userSpaceOnUse">
<stop stop-color="#EAEAEA"/>
<stop offset="1" stop-color="#ECECEC"/>
</linearGradient>
<linearGradient id="paint21_linear_6775_2329" x1="72.7731" y1="175.523" x2="72.7731" y2="187.48" gradientUnits="userSpaceOnUse">
<stop stop-color="#FFD4B3"/>
<stop offset="1" stop-color="#FFDCC2"/>
</linearGradient>
<linearGradient id="paint22_linear_6775_2329" x1="63.29" y1="189.286" x2="81.61" y2="189.286" gradientUnits="userSpaceOnUse">
<stop stop-color="#606C88"/>
<stop offset="1" stop-color="#3F4C6B"/>
</linearGradient>
<linearGradient id="paint23_linear_6775_2329" x1="73.0593" y1="181.45" x2="73.0593" y2="172.29" gradientUnits="userSpaceOnUse">
<stop/>
<stop offset="1"/>
</linearGradient>
<clipPath id="clip0_6775_2329">
<path d="M61 83.3043C61 77.0611 66.0611 72 72.3043 72V72C78.5476 72 83.6087 77.0611 83.6087 83.3043V83.3043C83.6087 89.5476 78.5476 94.6087 72.3043 94.6087V94.6087C66.0611 94.6087 61 89.5476 61 83.3043V83.3043Z" fill="white"/>
</clipPath>
<clipPath id="clip1_6775_2329">
<path d="M61 132.449C61 126.126 66.126 121 72.4493 121V121C78.7725 121 83.8986 126.126 83.8986 132.449V132.449C83.8986 138.773 78.7725 143.899 72.4493 143.899V143.899C66.126 143.899 61 138.773 61 132.449V132.449Z" fill="white"/>
</clipPath>
<clipPath id="clip2_6775_2329">
<path d="M61 181.45C61 175.126 66.1263 170 72.45 170V170C78.7737 170 83.9 175.126 83.9 181.45V181.45C83.9 187.774 78.7737 192.9 72.45 192.9V192.9C66.1263 192.9 61 187.774 61 181.45V181.45Z" fill="white"/>
</clipPath>
</defs>
</svg>
