<svg width="332" height="241" viewBox="0 0 332 241" fill="none" xmlns="http://www.w3.org/2000/svg">
<g filter="url(#filter0_d_6775_2284)">
<rect x="28" y="28" width="275.662" height="185" rx="10" fill="white"/>
</g>
<g clip-path="url(#clip0_6775_2284)">
<path d="M81 76C81 73.2386 83.2386 71 86 71H151C153.761 71 156 73.2386 156 76V141C156 143.761 153.761 146 151 146H86C83.2386 146 81 143.761 81 141V76Z" fill="url(#paint0_linear_6775_2284)"/>
<path d="M126.25 114.5V117.5C126.25 121.5 132 123.25 132 123.25C132 123.25 125.375 128.25 118.5 128.25C111.625 128.25 105 123.25 105 123.25C105 123.25 110.795 121.5 110.75 117.5C110.705 113.5 110.735 111.15 110.705 104.297C107.122 99.6528 107.352 96.5358 109.311 94.3438C115.875 87 133.75 89.5 133.75 89.5C133.75 89.5 135.418 107.498 131.625 112.75C130 115 126.25 114.5 126.25 114.5Z" fill="url(#paint1_linear_6775_2284)"/>
<g style="mix-blend-mode:multiply">
<path d="M126.25 114.5C120.75 113.875 117.5 111.5 117.5 111.5C119.552 114.536 122.679 116.68 126.25 117.5V114.5Z" fill="#FFDBC9"/>
</g>
<path d="M144.75 130.827C147.13 135.666 148.5 146.827 148.5 146.827H88.5C88.5 146.827 89.8705 135.665 92.25 130.827C94.6295 125.989 108.525 121.502 108.525 121.502C111.203 127 125.902 127 128.468 121.5C128.468 121.5 142.37 125.988 144.75 130.827Z" fill="url(#paint2_linear_6775_2284)"/>
<path d="M117.5 140.5C117.5 140.302 117.559 140.109 117.669 139.944C117.778 139.78 117.935 139.652 118.117 139.576C118.3 139.5 118.501 139.481 118.695 139.519C118.889 139.558 119.067 139.653 119.207 139.793C119.347 139.933 119.442 140.111 119.481 140.305C119.519 140.499 119.5 140.7 119.424 140.883C119.348 141.065 119.22 141.222 119.056 141.331C118.891 141.441 118.698 141.5 118.5 141.5C118.235 141.5 117.98 141.395 117.793 141.207C117.605 141.02 117.5 140.765 117.5 140.5ZM117.5 135.5C117.5 135.302 117.559 135.109 117.669 134.944C117.778 134.78 117.935 134.652 118.117 134.576C118.3 134.5 118.501 134.481 118.695 134.519C118.889 134.558 119.067 134.653 119.207 134.793C119.347 134.933 119.442 135.111 119.481 135.305C119.519 135.499 119.5 135.7 119.424 135.883C119.348 136.065 119.22 136.222 119.056 136.331C118.891 136.441 118.698 136.5 118.5 136.5C118.235 136.5 117.98 136.395 117.793 136.207C117.605 136.02 117.5 135.765 117.5 135.5ZM117.5 130.5C117.5 130.302 117.559 130.109 117.669 129.944C117.778 129.78 117.935 129.652 118.117 129.576C118.3 129.5 118.501 129.481 118.695 129.519C118.889 129.558 119.067 129.653 119.207 129.793C119.347 129.933 119.442 130.111 119.481 130.305C119.519 130.499 119.5 130.7 119.424 130.883C119.348 131.065 119.22 131.222 119.056 131.331C118.891 131.441 118.698 131.5 118.5 131.5C118.235 131.5 117.98 131.395 117.793 131.207C117.605 131.02 117.5 130.765 117.5 130.5Z" fill="white"/>
<path d="M113.789 96.8024C112.994 96.1196 112.028 95.6599 110.662 96.3694C107.425 98.0501 109.875 104.5 112.75 104.5C113.5 104.5 113.873 106.856 110.534 108.5C110.534 105.875 106.534 99.3751 106.184 93.4571C102.159 91.9584 103.159 85.9616 105.922 85.9616C105.481 80.4646 114.284 77.6251 117.692 80.7799C121.159 76.6251 129.909 78.7501 130.437 82.3546C136.454 79.1429 140.409 88.3751 134.775 91.9591C132.457 93.4341 127.034 93.9954 119.205 93.9954C118.024 93.9954 117.362 94.2889 117.692 95.7501C118.332 98.5816 116.847 100.365 113.789 96.8024Z" fill="url(#paint3_linear_6775_2284)"/>
</g>
<path d="M28 38C28 32.4772 32.4772 28 38 28H293.662C299.185 28 303.662 32.4772 303.662 38V52.5033H28V38Z" fill="url(#paint4_linear_6775_2284)"/>
<rect x="177" y="183" width="43" height="21" rx="10.5" fill="url(#paint5_linear_6775_2284)"/>
<rect x="145" y="183" width="22" height="21" rx="10.5" fill="url(#paint6_linear_6775_2284)"/>
<rect x="115" y="183" width="22" height="21" rx="10.5" fill="url(#paint7_linear_6775_2284)"/>
<rect opacity="0.6" x="81" y="152" width="52" height="6" rx="3" fill="url(#paint8_linear_6775_2284)"/>
<rect opacity="0.6" x="180" y="152" width="52" height="6" rx="3" fill="url(#paint9_linear_6775_2284)"/>
<path d="M189.722 64.1426H282.222" stroke="white"/>
<path d="M196.182 189.219L196.72 189.047C197.225 188.886 197.763 189.147 197.98 189.656L198.409 190.67C198.596 191.111 198.493 191.631 198.152 191.954L197.205 192.853C197.263 193.391 197.444 193.92 197.747 194.441C198.035 194.946 198.421 195.387 198.883 195.739L200.02 195.359C200.452 195.215 200.921 195.381 201.185 195.769L201.802 196.674C202.109 197.126 202.054 197.749 201.673 198.132L201.264 198.543C200.857 198.951 200.275 199.1 199.738 198.932C198.468 198.536 197.301 197.36 196.236 195.405C195.17 193.447 194.793 191.785 195.107 190.421C195.239 189.847 195.648 189.39 196.182 189.219Z" fill="white"/>
<path d="M159.125 194C159.125 194.353 159.066 194.692 158.959 195.008L158.45 194.5C158.483 194.335 158.5 194.168 158.5 194V193.375C158.5 193.292 158.533 193.213 158.592 193.154C158.65 193.096 158.73 193.063 158.812 193.063C158.895 193.063 158.975 193.096 159.033 193.154C159.092 193.213 159.125 193.292 159.125 193.375V194ZM156 196.5C156.511 196.5 156.986 196.347 157.382 196.083L157.831 196.533C157.385 196.856 156.861 197.055 156.312 197.11V198.375H158.188C158.27 198.375 158.35 198.408 158.408 198.467C158.467 198.525 158.5 198.605 158.5 198.688C158.5 198.771 158.467 198.85 158.408 198.909C158.35 198.967 158.27 199 158.188 199H153.812C153.73 199 153.65 198.967 153.592 198.909C153.533 198.85 153.5 198.771 153.5 198.688C153.5 198.605 153.533 198.525 153.592 198.467C153.65 198.408 153.73 198.375 153.812 198.375H155.688V197.11C154.917 197.032 154.202 196.671 153.682 196.097C153.163 195.522 152.875 194.775 152.875 194V193.375C152.875 193.292 152.908 193.213 152.967 193.154C153.025 193.096 153.105 193.063 153.188 193.063C153.27 193.063 153.35 193.096 153.408 193.154C153.467 193.213 153.5 193.292 153.5 193.375V194C153.5 194.663 153.763 195.299 154.232 195.768C154.701 196.237 155.337 196.5 156 196.5ZM157.875 190.875V193.925L154.224 190.273C154.367 189.853 154.654 189.497 155.036 189.269C155.417 189.04 155.866 188.955 156.304 189.027C156.743 189.099 157.141 189.325 157.429 189.663C157.716 190.002 157.874 190.431 157.875 190.875Z" fill="black"/>
<path d="M156.929 195.629L154.125 192.825V194C154.125 194.328 154.211 194.651 154.375 194.936C154.538 195.22 154.774 195.457 155.058 195.622C155.342 195.787 155.664 195.874 155.992 195.876C156.32 195.877 156.643 195.792 156.929 195.629ZM152.029 189.846L159.529 197.346L159.971 196.904L152.471 189.404L152.029 189.846Z" fill="black"/>
<g clip-path="url(#clip1_6775_2284)">
<path fill-rule="evenodd" clip-rule="evenodd" d="M127.851 196.728C128.029 196.538 128.143 196.297 128.177 196.039L130.121 196.903C130.216 196.945 130.32 196.963 130.424 196.955C130.528 196.947 130.628 196.913 130.715 196.856C130.803 196.799 130.874 196.722 130.924 196.63C130.974 196.539 131 196.436 131 196.332V191.668C131 191.564 130.974 191.462 130.924 191.37C130.874 191.279 130.803 191.201 130.715 191.145C130.628 191.088 130.528 191.054 130.424 191.046C130.321 191.038 130.216 191.055 130.121 191.098L128.177 191.961C128.137 191.661 127.99 191.385 127.762 191.185C127.534 190.985 127.241 190.875 126.938 190.875H123.67L127.851 196.728H127.851ZM121.529 191.103C121.366 191.219 121.232 191.372 121.14 191.55C121.048 191.727 121 191.925 121 192.125V195.875C121 196.207 121.132 196.525 121.366 196.759C121.601 196.993 121.918 197.125 122.25 197.125H125.83L121.529 191.104V191.103ZM127.621 198.556L121.371 189.806L121.879 189.444L128.129 198.194L127.621 198.556Z" fill="black"/>
</g>
<g clip-path="url(#clip2_6775_2284)">
<path d="M180 76C180 73.2386 182.239 71 185 71H250C252.761 71 255 73.2386 255 76V141C255 143.761 252.761 146 250 146H185C182.239 146 180 143.761 180 141V76Z" fill="url(#paint10_linear_6775_2284)"/>
<path d="M235.625 110.875C237.653 104.14 238.903 92.6249 230.375 84.7499C223.858 78.7314 206.25 78.1249 200.125 91.2499C199.103 93.4409 200.5 96.8749 203.25 96.7499C204.331 96.6999 205 100.125 205.625 102.25C204.75 110.875 196.955 111.034 193 117.625C188.125 125.75 194.125 137.75 208.5 137.75C222.875 137.75 231.116 125.851 235.625 110.875Z" fill="url(#paint11_linear_6775_2284)"/>
<path d="M240.5 130.606C242.333 134.137 243.25 147 243.25 147H191.75C191.75 147 192.667 134.137 194.5 130.606C197.25 125.31 217.5 118.5 217.5 118.5C217.5 118.5 237.75 125.31 240.5 130.606Z" fill="url(#paint12_linear_6775_2284)"/>
<path d="M223.5 121.5C223.5 121.5 220.309 123.25 217.373 123.25C214.437 123.25 211.5 121.5 211.5 121.5V116C210.868 116.1 210.229 116.138 209.59 116.113C203.593 116.113 201.331 107.378 202.5 96.75C203.25 96.75 205 96.75 207.5 93.25C206.875 98.125 214.125 97.375 216.875 93.5C215.5 98.125 219.125 101.25 222.25 99.375C228.378 95.6982 229.755 106.906 223.5 107V121.5Z" fill="url(#paint13_linear_6775_2284)"/>
<g style="mix-blend-mode:multiply" opacity="0.782">
<path d="M211.5 116C214.601 115.429 217.569 114.284 220.25 112.625C220.25 112.625 217.125 118 211.5 118V116Z" fill="#FFD7B8"/>
</g>
<path d="M217.508 122.994C219.315 122.912 223.5 122.027 223.5 120.115V118.5C223.959 118.5 225.271 119.583 225.947 120.5C228.616 124.125 225.655 127.375 223.241 127.375C220.194 127.375 218.175 124.83 217.5 123.605C216.825 124.83 214.806 127.375 211.76 127.375C209.345 127.375 206.385 124.125 209.054 120.5C209.729 119.583 211.042 118.5 211.5 118.5V120.115C211.5 122.027 215.798 122.912 217.508 122.994Z" fill="white"/>
<path d="M216.5 140C216.5 139.802 216.559 139.609 216.669 139.444C216.778 139.28 216.935 139.152 217.117 139.076C217.3 139 217.501 138.981 217.695 139.019C217.889 139.058 218.067 139.153 218.207 139.293C218.347 139.433 218.442 139.611 218.481 139.805C218.519 139.999 218.5 140.2 218.424 140.383C218.348 140.565 218.22 140.722 218.056 140.831C217.891 140.941 217.698 141 217.5 141C217.235 141 216.98 140.895 216.793 140.707C216.605 140.52 216.5 140.265 216.5 140ZM216.5 135C216.5 134.802 216.559 134.609 216.669 134.444C216.778 134.28 216.935 134.152 217.117 134.076C217.3 134 217.501 133.981 217.695 134.019C217.889 134.058 218.067 134.153 218.207 134.293C218.347 134.433 218.442 134.611 218.481 134.805C218.519 134.999 218.5 135.2 218.424 135.383C218.348 135.565 218.22 135.722 218.056 135.831C217.891 135.941 217.698 136 217.5 136C217.235 136 216.98 135.895 216.793 135.707C216.605 135.52 216.5 135.265 216.5 135ZM216.5 130C216.5 129.802 216.559 129.609 216.669 129.444C216.778 129.28 216.935 129.152 217.117 129.076C217.3 129 217.501 128.981 217.695 129.019C217.889 129.058 218.067 129.153 218.207 129.293C218.347 129.433 218.442 129.611 218.481 129.805C218.519 129.999 218.5 130.2 218.424 130.383C218.348 130.565 218.22 130.722 218.056 130.831C217.891 130.941 217.698 131 217.5 131C217.235 131 216.98 130.895 216.793 130.707C216.605 130.52 216.5 130.265 216.5 130Z" fill="url(#paint14_linear_6775_2284)"/>
</g>
<defs>
<filter id="filter0_d_6775_2284" x="0" y="0" width="331.662" height="241" filterUnits="userSpaceOnUse" color-interpolation-filters="sRGB">
<feFlood flood-opacity="0" result="BackgroundImageFix"/>
<feColorMatrix in="SourceAlpha" type="matrix" values="0 0 0 0 0 0 0 0 0 0 0 0 0 0 0 0 0 0 127 0" result="hardAlpha"/>
<feMorphology radius="4" operator="dilate" in="SourceAlpha" result="effect1_dropShadow_6775_2284"/>
<feOffset/>
<feGaussianBlur stdDeviation="12"/>
<feComposite in2="hardAlpha" operator="out"/>
<feColorMatrix type="matrix" values="0 0 0 0 0.282353 0 0 0 0 0.290196 0 0 0 0 0.619608 0 0 0 0.06 0"/>
<feBlend mode="normal" in2="BackgroundImageFix" result="effect1_dropShadow_6775_2284"/>
<feBlend mode="normal" in="SourceGraphic" in2="effect1_dropShadow_6775_2284" result="shape"/>
</filter>
<linearGradient id="paint0_linear_6775_2284" x1="118.5" y1="71" x2="118.5" y2="146" gradientUnits="userSpaceOnUse">
<stop stop-color="#EAEAEA"/>
<stop offset="1" stop-color="#ECECEC"/>
</linearGradient>
<linearGradient id="paint1_linear_6775_2284" x1="119.558" y1="89.0898" x2="119.558" y2="128.25" gradientUnits="userSpaceOnUse">
<stop stop-color="#FFD4B3"/>
<stop offset="1" stop-color="#FFDCC2"/>
</linearGradient>
<linearGradient id="paint2_linear_6775_2284" x1="88.5" y1="134.163" x2="148.5" y2="134.163" gradientUnits="userSpaceOnUse">
<stop stop-color="#606C88"/>
<stop offset="1" stop-color="#3F4C6B"/>
</linearGradient>
<linearGradient id="paint3_linear_6775_2284" x1="120.496" y1="108.5" x2="120.496" y2="78.4995" gradientUnits="userSpaceOnUse">
<stop/>
<stop offset="1"/>
</linearGradient>
<linearGradient id="paint4_linear_6775_2284" x1="28" y1="40.2517" x2="303.662" y2="40.2517" gradientUnits="userSpaceOnUse">
<stop stop-color="#02AAB0"/>
<stop offset="1" stop-color="#00CDAC"/>
</linearGradient>
<linearGradient id="paint5_linear_6775_2284" x1="175" y1="186" x2="220" y2="202.5" gradientUnits="userSpaceOnUse">
<stop stop-color="#D31027"/>
<stop offset="1" stop-color="#EC465A"/>
</linearGradient>
<linearGradient id="paint6_linear_6775_2284" x1="124" y1="193.5" x2="167" y2="193.5" gradientUnits="userSpaceOnUse">
<stop stop-color="#8E9EAB"/>
<stop offset="1" stop-color="#EEF2F3"/>
</linearGradient>
<linearGradient id="paint7_linear_6775_2284" x1="94" y1="193.5" x2="137" y2="193.5" gradientUnits="userSpaceOnUse">
<stop stop-color="#8E9EAB"/>
<stop offset="1" stop-color="#EEF2F3"/>
</linearGradient>
<linearGradient id="paint8_linear_6775_2284" x1="81" y1="155" x2="133" y2="155" gradientUnits="userSpaceOnUse">
<stop stop-color="#02AAB0"/>
<stop offset="1" stop-color="#00CDAC"/>
</linearGradient>
<linearGradient id="paint9_linear_6775_2284" x1="180" y1="155" x2="232" y2="155" gradientUnits="userSpaceOnUse">
<stop stop-color="#02AAB0"/>
<stop offset="1" stop-color="#00CDAC"/>
</linearGradient>
<linearGradient id="paint10_linear_6775_2284" x1="217.5" y1="71" x2="217.5" y2="146" gradientUnits="userSpaceOnUse">
<stop stop-color="#EAEAEA"/>
<stop offset="1" stop-color="#ECECEC"/>
</linearGradient>
<linearGradient id="paint11_linear_6775_2284" x1="214.221" y1="137.75" x2="214.221" y2="80.647" gradientUnits="userSpaceOnUse">
<stop/>
<stop offset="1"/>
</linearGradient>
<linearGradient id="paint12_linear_6775_2284" x1="191.75" y1="132.75" x2="243.25" y2="132.75" gradientUnits="userSpaceOnUse">
<stop stop-color="#606C88"/>
<stop offset="1" stop-color="#3F4C6B"/>
</linearGradient>
<linearGradient id="paint13_linear_6775_2284" x1="214.887" y1="93.25" x2="214.887" y2="123.25" gradientUnits="userSpaceOnUse">
<stop stop-color="#FFE0CC"/>
<stop offset="1" stop-color="#FFEADB"/>
</linearGradient>
<linearGradient id="paint14_linear_6775_2284" x1="217.5" y1="129" x2="217.5" y2="141" gradientUnits="userSpaceOnUse">
<stop stop-color="#130027"/>
<stop offset="1" stop-color="#130017"/>
</linearGradient>
<clipPath id="clip0_6775_2284">
<path d="M81 76C81 73.2386 83.2386 71 86 71H151C153.761 71 156 73.2386 156 76V141C156 143.761 153.761 146 151 146H86C83.2386 146 81 143.761 81 141V76Z" fill="white"/>
</clipPath>
<clipPath id="clip1_6775_2284">
<rect width="10" height="10" fill="white" transform="translate(121 189)"/>
</clipPath>
<clipPath id="clip2_6775_2284">
<path d="M180 76C180 73.2386 182.239 71 185 71H250C252.761 71 255 73.2386 255 76V141C255 143.761 252.761 146 250 146H185C182.239 146 180 143.761 180 141V76Z" fill="white"/>
</clipPath>
</defs>
</svg>
