<svg width="332" height="241" viewBox="0 0 332 241" fill="none" xmlns="http://www.w3.org/2000/svg">
<g filter="url(#filter0_d_6775_2232)">
<rect x="28" y="28" width="275.662" height="185" rx="10" fill="white"/>
</g>
<path d="M28 38C28 32.4772 32.4772 28 38 28H293.662C299.185 28 303.662 32.4772 303.662 38V52.5033H28V38Z" fill="url(#paint0_linear_6775_2232)" fill-opacity="0.75"/>
<path d="M189.722 64.1426H282.222" stroke="white"/>
<g filter="url(#filter1_d_6775_2232)">
<rect x="59" y="63" width="156" height="39" rx="10" fill="white"/>
</g>
<g clip-path="url(#clip0_6775_2232)">
<path d="M178.826 82.7824C178.826 76.5392 183.887 71.478 190.131 71.478V71.478C196.374 71.478 201.435 76.5392 201.435 82.7824V82.7824C201.435 89.0256 196.374 94.0867 190.131 94.0867V94.0867C183.887 94.0867 178.826 89.0256 178.826 82.7824V82.7824Z" fill="url(#paint1_linear_6775_2232)"/>
<path d="M192.542 84.742V86.4376C192.542 86.7642 187.719 86.6544 187.719 86.1835C187.719 85.7404 187.728 83.7323 187.719 81.6663C186.639 80.2663 186.639 79.3912 187.493 78.4869C188.347 77.5825 194.426 77.1304 194.426 77.1304C194.426 77.1304 194.882 81.5172 194.954 82.7072C194.982 83.1857 195.293 84.742 194.087 84.742H192.542Z" fill="url(#paint2_linear_6775_2232)"/>
<g style="mix-blend-mode:multiply">
<path d="M192.541 84.5967C191.559 84.4896 190.61 84.1797 189.754 83.6865C189.754 83.6865 190.357 85.1184 192.541 85.507V84.5967Z" fill="#FFD7B8"/>
</g>
<path d="M198.044 89.8143C198.522 90.7869 198.899 92.3946 199.174 94.6375H181.087C181.363 92.3944 181.739 90.7866 182.218 89.8143C182.694 88.8452 187.116 86.98 187.116 86.98C187.116 86.98 187.204 86.1275 187.418 86.0052C187.631 85.883 192.589 85.8831 192.844 86.0052C193.098 86.1274 193.145 86.9796 193.145 86.9796C193.145 86.9796 197.568 88.8472 198.044 89.8143Z" fill="url(#paint3_linear_6775_2232)"/>
<path d="M188.7 79.4066C188.461 79.2007 188.169 79.0621 187.758 79.276C186.782 79.7827 187.43 81.7374 188.522 81.6993C188.898 81.6862 188.726 82.4371 187.719 82.9331C187.719 82.1418 186.513 80.1823 186.408 78.3984C185.194 77.9466 185.496 76.1388 186.329 76.1388C186.196 74.4815 188.849 73.6256 189.877 74.5766C190.922 73.3241 193.56 73.9647 193.719 75.0513C195.533 74.0831 196.725 76.8662 195.027 77.9466C194.328 78.3912 192.693 78.5604 190.333 78.5604C189.201 78.5604 189.852 81.2109 190.206 82.0664C190.658 83.1591 193.183 83.3099 193.974 83.1968C194.592 83.1086 194.916 82.8577 194.954 82.707C195.519 84.2142 194.803 85.1186 193.673 85.1186C191.751 85.1186 189.829 84.5533 189.528 83.1591C189.288 82.0496 189.301 80.2589 188.7 79.4066Z" fill="url(#paint4_linear_6775_2232)"/>
</g>
<rect x="67.4783" y="70.9131" width="94.9565" height="3.95652" rx="1.97826" fill="url(#paint5_linear_6775_2232)"/>
<rect opacity="0.5" x="67.4783" y="79.9565" width="52.5652" height="3.95652" rx="1.97826" fill="url(#paint6_linear_6775_2232)"/>
<rect opacity="0.5" x="67.4783" y="89" width="70.087" height="3.95652" rx="1.97826" fill="url(#paint7_linear_6775_2232)"/>
<g filter="url(#filter2_d_6775_2232)">
<rect x="48" y="161" width="158" height="39.5" rx="10" fill="white"/>
</g>
<rect x="56.5869" y="169.015" width="96.1739" height="4.00725" rx="2" fill="url(#paint8_linear_6775_2232)"/>
<rect opacity="0.5" x="56.5869" y="178.174" width="53.2391" height="4.00725" rx="2" fill="url(#paint9_linear_6775_2232)"/>
<rect opacity="0.5" x="56.5869" y="187.333" width="70.9855" height="4.00725" rx="2" fill="url(#paint10_linear_6775_2232)"/>
<g clip-path="url(#clip1_6775_2232)">
<path d="M169.935 181.036C169.935 174.713 175.061 169.587 181.384 169.587V169.587C187.707 169.587 192.833 174.713 192.833 181.036V181.036C192.833 187.359 187.707 192.485 181.384 192.485V192.485C175.061 192.485 169.935 187.359 169.935 181.036V181.036Z" fill="url(#paint11_linear_6775_2232)"/>
<path d="M188.406 187.524C188.966 188.593 189.246 192.485 189.246 192.485H173.522C173.522 192.485 173.802 188.593 174.362 187.524C175.201 185.921 181.384 183.86 181.384 183.86C181.384 183.86 187.567 185.921 188.406 187.524Z" fill="url(#paint12_linear_6775_2232)"/>
<path d="M181.079 190.654C181.079 190.593 181.097 190.534 181.13 190.484C181.164 190.434 181.212 190.395 181.267 190.372C181.323 190.349 181.385 190.343 181.444 190.354C181.503 190.366 181.557 190.395 181.6 190.438C181.643 190.481 181.672 190.535 181.684 190.594C181.695 190.654 181.689 190.715 181.666 190.771C181.643 190.826 181.604 190.874 181.554 190.908C181.504 190.941 181.445 190.959 181.384 190.959C181.303 190.959 181.226 190.927 181.168 190.87C181.111 190.812 181.079 190.735 181.079 190.654ZM181.079 189.127C181.079 189.067 181.097 189.008 181.13 188.958C181.164 188.907 181.212 188.868 181.267 188.845C181.323 188.822 181.385 188.816 181.444 188.828C181.503 188.84 181.557 188.869 181.6 188.911C181.643 188.954 181.672 189.009 181.684 189.068C181.695 189.127 181.689 189.188 181.666 189.244C181.643 189.3 181.604 189.348 181.554 189.381C181.504 189.415 181.445 189.433 181.384 189.433C181.303 189.433 181.226 189.4 181.168 189.343C181.111 189.286 181.079 189.208 181.079 189.127ZM181.079 187.601C181.079 187.54 181.097 187.481 181.13 187.431C181.164 187.381 181.212 187.342 181.267 187.319C181.323 187.296 181.385 187.289 181.444 187.301C181.503 187.313 181.557 187.342 181.6 187.385C181.643 187.428 181.672 187.482 181.684 187.541C181.695 187.6 181.689 187.662 181.666 187.718C181.643 187.773 181.604 187.821 181.554 187.855C181.504 187.888 181.445 187.906 181.384 187.906C181.303 187.906 181.226 187.874 181.168 187.817C181.111 187.759 181.079 187.682 181.079 187.601Z" fill="white"/>
<path d="M187.908 182.976L175.508 181.477C174.896 178.232 175.622 176.187 177.683 175.343C178.636 172.22 182.346 172.474 183.397 172.729C186.975 173.595 188.479 177.011 187.908 182.976Z" fill="url(#paint13_linear_6775_2232)"/>
<path d="M179.552 184.776V180.197C177.642 180.168 178.015 176.859 179.934 177.869C180.277 178.021 181.155 177.602 180.85 176.571C182.911 178.098 185.783 175.419 185.964 177.067C186.321 180.312 185.63 182.979 183.799 182.979C183.604 182.987 183.409 182.975 183.216 182.945V184.776C182.618 185.133 182.021 185.311 181.423 185.311C180.825 185.311 180.202 185.133 179.552 184.776Z" fill="#FFDBC9"/>
<path d="M183.216 182.944V183.555C182.071 183.555 181.181 183.008 180.544 181.914C181.308 182.423 182.198 182.766 183.216 182.944Z" fill="#FFBC9E"/>
<path d="M181.382 185.232C181.904 185.207 183.216 184.937 183.216 184.353V183.86C183.356 183.86 183.757 184.191 183.963 184.471C184.778 185.578 183.874 186.57 183.137 186.57C182.207 186.57 181.59 185.793 181.384 185.419C181.178 185.793 180.562 186.57 179.631 186.57C178.894 186.57 177.99 185.578 178.805 184.471C179.011 184.191 179.412 183.86 179.552 183.86V184.353C179.552 184.937 180.83 185.207 181.382 185.232Z" fill="white"/>
</g>
<g filter="url(#filter3_d_6775_2232)">
<rect x="123" y="112" width="164" height="41" rx="10" fill="white"/>
</g>
<rect x="172.319" y="120.319" width="99.8261" height="4.15942" rx="2" fill="url(#paint14_linear_6775_2232)"/>
<rect opacity="0.5" x="172.319" y="129.826" width="55.2609" height="4.15942" rx="2" fill="url(#paint15_linear_6775_2232)"/>
<rect opacity="0.5" x="172.319" y="139.333" width="73.6812" height="4.15942" rx="2" fill="url(#paint16_linear_6775_2232)"/>
<g clip-path="url(#clip2_6775_2232)">
<path d="M136.073 132.797C136.073 126.234 141.393 120.913 147.957 120.913V120.913C154.52 120.913 159.841 126.234 159.841 132.797V132.797C159.841 139.361 154.52 144.681 147.957 144.681V144.681C141.393 144.681 136.073 139.361 136.073 132.797V132.797Z" fill="url(#paint17_linear_6775_2232)"/>
<path d="M153.7 133.55C154.343 131.415 154.739 127.766 152.037 125.27C149.971 123.363 144.391 123.171 142.45 127.33C142.126 128.025 142.569 129.113 143.441 129.073C143.783 129.058 143.995 130.143 144.193 130.816C143.916 133.55 141.445 133.6 140.192 135.689C138.647 138.264 140.549 142.067 145.104 142.067C149.66 142.067 152.271 138.296 153.7 133.55Z" fill="url(#paint18_linear_6775_2232)"/>
<path d="M155.245 139.803C155.826 140.922 156.117 144.998 156.117 144.998H139.796C139.796 144.998 140.087 140.922 140.668 139.803C141.539 138.124 147.957 135.966 147.957 135.966C147.957 135.966 154.374 138.124 155.245 139.803Z" fill="url(#paint19_linear_6775_2232)"/>
<path d="M149.858 136.917C149.858 136.917 148.846 137.472 147.916 137.472C146.986 137.472 146.055 136.917 146.055 136.917V135.174C145.855 135.206 145.652 135.218 145.45 135.21C143.549 135.21 142.832 132.442 143.203 129.074C143.441 129.074 143.995 129.074 144.787 127.964C144.589 129.509 146.887 129.272 147.758 128.044C147.323 129.509 148.471 130.5 149.462 129.905C151.404 128.74 151.84 132.292 149.858 132.322V136.917Z" fill="url(#paint20_linear_6775_2232)"/>
<g style="mix-blend-mode:multiply" opacity="0.782">
<path d="M146.055 135.174C147.038 134.993 147.978 134.63 148.828 134.104C148.828 134.104 147.838 135.808 146.055 135.808V135.174Z" fill="#FFD7B8"/>
</g>
<path d="M147.959 137.39C148.532 137.365 149.858 137.084 149.858 136.478V135.966C150.003 135.966 150.419 136.31 150.633 136.6C151.479 137.749 150.541 138.779 149.776 138.779C148.81 138.779 148.17 137.972 147.956 137.584C147.743 137.972 147.103 138.779 146.137 138.779C145.372 138.779 144.434 137.749 145.28 136.6C145.494 136.31 145.91 135.966 146.055 135.966V136.478C146.055 137.084 147.417 137.365 147.959 137.39Z" fill="white"/>
<path d="M147.64 142.779C147.64 142.717 147.658 142.655 147.693 142.603C147.728 142.551 147.777 142.511 147.835 142.487C147.893 142.463 147.957 142.456 148.018 142.469C148.08 142.481 148.136 142.511 148.181 142.555C148.225 142.6 148.255 142.656 148.267 142.718C148.28 142.779 148.273 142.843 148.249 142.901C148.225 142.959 148.185 143.008 148.133 143.043C148.081 143.078 148.019 143.096 147.957 143.096C147.873 143.096 147.792 143.063 147.732 143.004C147.673 142.944 147.64 142.863 147.64 142.779ZM147.64 141.195C147.64 141.132 147.658 141.071 147.693 141.019C147.728 140.967 147.777 140.926 147.835 140.902C147.893 140.878 147.957 140.872 148.018 140.884C148.08 140.896 148.136 140.926 148.181 140.971C148.225 141.015 148.255 141.072 148.267 141.133C148.28 141.195 148.273 141.258 148.249 141.316C148.225 141.374 148.185 141.424 148.133 141.458C148.081 141.493 148.019 141.512 147.957 141.512C147.873 141.512 147.792 141.478 147.732 141.419C147.673 141.36 147.64 141.279 147.64 141.195ZM147.64 139.61C147.64 139.548 147.658 139.486 147.693 139.434C147.728 139.382 147.777 139.342 147.835 139.318C147.893 139.294 147.957 139.287 148.018 139.3C148.08 139.312 148.136 139.342 148.181 139.386C148.225 139.431 148.255 139.487 148.267 139.549C148.28 139.61 148.273 139.674 148.249 139.732C148.225 139.79 148.185 139.839 148.133 139.874C148.081 139.909 148.019 139.927 147.957 139.927C147.873 139.927 147.792 139.894 147.732 139.834C147.673 139.775 147.64 139.694 147.64 139.61Z" fill="url(#paint21_linear_6775_2232)"/>
</g>
<g filter="url(#filter4_d_6775_2232)">
<rect x="28" y="28" width="275.662" height="185" rx="10" fill="white"/>
</g>
<g filter="url(#filter5_d_6775_2232)">
<rect x="48" y="137" width="239" height="46" rx="10" fill="white"/>
</g>
<g clip-path="url(#clip3_6775_2232)">
<path d="M54 88.5C54 76.0736 64.0736 66 76.5 66V66C88.9264 66 99 76.0736 99 88.5V88.5C99 100.926 88.9264 111 76.5 111V111C64.0736 111 54 100.926 54 88.5V88.5Z" fill="url(#paint22_linear_6775_2232)"/>
<path d="M81.2999 92.4V95.775C81.2999 96.4249 71.6999 96.2064 71.6999 95.2692C71.6999 94.3872 71.7179 90.3903 71.6999 86.2782C69.5501 83.4916 69.5501 81.75 71.2499 79.95C72.9497 78.15 85.0499 77.25 85.0499 77.25C85.0499 77.25 85.9577 85.9815 86.0999 88.35C86.1571 89.3025 86.7749 92.4 84.3749 92.4H81.2999Z" fill="url(#paint23_linear_6775_2232)"/>
<g style="mix-blend-mode:multiply">
<path d="M81.2964 92.112C79.3421 91.8988 77.4534 91.2818 75.75 90.3003C75.75 90.3003 76.95 93.1503 81.2964 93.9237V92.112Z" fill="#FFD7B8"/>
</g>
<path d="M92.25 102.496C93.202 104.432 93.952 107.632 94.5 112.096H58.5C59.0482 107.631 59.7982 104.431 60.75 102.496C61.6986 100.567 70.5 96.8546 70.5 96.8546C70.5 96.8546 70.6752 95.1577 71.1 94.9144C71.5248 94.6711 81.3941 94.6712 81.9 94.9144C82.406 95.1575 82.5 96.8537 82.5 96.8537C82.5 96.8537 91.3032 100.571 92.25 102.496Z" fill="url(#paint24_linear_6775_2232)"/>
<path d="M73.6531 81.781C73.1761 81.3714 72.5965 81.0955 71.7772 81.5212C69.8348 82.5297 71.1239 86.4204 73.2976 86.3445C74.0476 86.3184 73.7038 87.813 71.7001 88.8001C71.7001 87.2251 69.3001 83.3252 69.0901 79.7743C66.6751 78.8751 67.2751 75.277 68.933 75.277C68.6684 71.9784 73.9501 70.2747 75.9952 72.1675C78.0751 69.6747 83.3251 70.9497 83.642 73.1124C87.2521 71.1853 89.6251 76.7247 86.2448 78.8751C84.8539 79.7601 81.6001 80.0968 76.9031 80.0968C74.6492 80.0968 75.9454 85.3723 76.6501 87.0751C77.5501 89.2502 82.5751 89.5501 84.1501 89.3252C85.3801 89.1495 86.0251 88.6502 86.1001 88.3502C87.2251 91.3502 85.8001 93.1502 83.5501 93.1502C79.7251 93.1502 75.9001 92.0252 75.3001 89.2502C74.8225 87.0417 74.8487 83.4775 73.6531 81.781Z" fill="url(#paint25_linear_6775_2232)"/>
</g>
<rect opacity="0.75" x="111" y="78" width="69" height="10" rx="5" fill="url(#paint26_linear_6775_2232)"/>
<rect opacity="0.6" x="65" y="145" width="109" height="4" rx="2" fill="url(#paint27_linear_6775_2232)"/>
<rect opacity="0.4" x="240" y="152" width="39" height="16" rx="5" fill="url(#paint28_linear_6775_2232)"/>
<rect opacity="0.5" x="111" y="95" width="34" height="4" rx="2" fill="url(#paint29_linear_6775_2232)"/>
<rect opacity="0.4" x="65.4785" y="153.957" width="52.5652" height="3.95652" rx="1.97826" fill="url(#paint30_linear_6775_2232)"/>
<rect opacity="0.4" x="65" y="163" width="81" height="4" rx="2" fill="url(#paint31_linear_6775_2232)"/>
<path d="M28 38C28 32.4772 32.4772 28 38 28H293.662C299.185 28 303.662 32.4772 303.662 38V52.5033H28V38Z" fill="url(#paint32_linear_6775_2232)"/>
<path d="M189.722 64.1426H282.222" stroke="white"/>
<defs>
<filter id="filter0_d_6775_2232" x="0" y="0" width="331.662" height="241" filterUnits="userSpaceOnUse" color-interpolation-filters="sRGB">
<feFlood flood-opacity="0" result="BackgroundImageFix"/>
<feColorMatrix in="SourceAlpha" type="matrix" values="0 0 0 0 0 0 0 0 0 0 0 0 0 0 0 0 0 0 127 0" result="hardAlpha"/>
<feMorphology radius="4" operator="dilate" in="SourceAlpha" result="effect1_dropShadow_6775_2232"/>
<feOffset/>
<feGaussianBlur stdDeviation="12"/>
<feComposite in2="hardAlpha" operator="out"/>
<feColorMatrix type="matrix" values="0 0 0 0 0.282353 0 0 0 0 0.290196 0 0 0 0 0.619608 0 0 0 0.06 0"/>
<feBlend mode="normal" in2="BackgroundImageFix" result="effect1_dropShadow_6775_2232"/>
<feBlend mode="normal" in="SourceGraphic" in2="effect1_dropShadow_6775_2232" result="shape"/>
</filter>
<filter id="filter1_d_6775_2232" x="31" y="35" width="212" height="95" filterUnits="userSpaceOnUse" color-interpolation-filters="sRGB">
<feFlood flood-opacity="0" result="BackgroundImageFix"/>
<feColorMatrix in="SourceAlpha" type="matrix" values="0 0 0 0 0 0 0 0 0 0 0 0 0 0 0 0 0 0 127 0" result="hardAlpha"/>
<feMorphology radius="4" operator="dilate" in="SourceAlpha" result="effect1_dropShadow_6775_2232"/>
<feOffset/>
<feGaussianBlur stdDeviation="12"/>
<feComposite in2="hardAlpha" operator="out"/>
<feColorMatrix type="matrix" values="0 0 0 0 0.282353 0 0 0 0 0.290196 0 0 0 0 0.619608 0 0 0 0.08 0"/>
<feBlend mode="normal" in2="BackgroundImageFix" result="effect1_dropShadow_6775_2232"/>
<feBlend mode="normal" in="SourceGraphic" in2="effect1_dropShadow_6775_2232" result="shape"/>
</filter>
<filter id="filter2_d_6775_2232" x="20" y="133" width="214" height="95.5" filterUnits="userSpaceOnUse" color-interpolation-filters="sRGB">
<feFlood flood-opacity="0" result="BackgroundImageFix"/>
<feColorMatrix in="SourceAlpha" type="matrix" values="0 0 0 0 0 0 0 0 0 0 0 0 0 0 0 0 0 0 127 0" result="hardAlpha"/>
<feMorphology radius="4" operator="dilate" in="SourceAlpha" result="effect1_dropShadow_6775_2232"/>
<feOffset/>
<feGaussianBlur stdDeviation="12"/>
<feComposite in2="hardAlpha" operator="out"/>
<feColorMatrix type="matrix" values="0 0 0 0 0.282353 0 0 0 0 0.290196 0 0 0 0 0.619608 0 0 0 0.08 0"/>
<feBlend mode="normal" in2="BackgroundImageFix" result="effect1_dropShadow_6775_2232"/>
<feBlend mode="normal" in="SourceGraphic" in2="effect1_dropShadow_6775_2232" result="shape"/>
</filter>
<filter id="filter3_d_6775_2232" x="95" y="84" width="220" height="97" filterUnits="userSpaceOnUse" color-interpolation-filters="sRGB">
<feFlood flood-opacity="0" result="BackgroundImageFix"/>
<feColorMatrix in="SourceAlpha" type="matrix" values="0 0 0 0 0 0 0 0 0 0 0 0 0 0 0 0 0 0 127 0" result="hardAlpha"/>
<feMorphology radius="4" operator="dilate" in="SourceAlpha" result="effect1_dropShadow_6775_2232"/>
<feOffset/>
<feGaussianBlur stdDeviation="12"/>
<feComposite in2="hardAlpha" operator="out"/>
<feColorMatrix type="matrix" values="0 0 0 0 0.282353 0 0 0 0 0.290196 0 0 0 0 0.619608 0 0 0 0.08 0"/>
<feBlend mode="normal" in2="BackgroundImageFix" result="effect1_dropShadow_6775_2232"/>
<feBlend mode="normal" in="SourceGraphic" in2="effect1_dropShadow_6775_2232" result="shape"/>
</filter>
<filter id="filter4_d_6775_2232" x="0" y="0" width="331.662" height="241" filterUnits="userSpaceOnUse" color-interpolation-filters="sRGB">
<feFlood flood-opacity="0" result="BackgroundImageFix"/>
<feColorMatrix in="SourceAlpha" type="matrix" values="0 0 0 0 0 0 0 0 0 0 0 0 0 0 0 0 0 0 127 0" result="hardAlpha"/>
<feMorphology radius="4" operator="dilate" in="SourceAlpha" result="effect1_dropShadow_6775_2232"/>
<feOffset/>
<feGaussianBlur stdDeviation="12"/>
<feComposite in2="hardAlpha" operator="out"/>
<feColorMatrix type="matrix" values="0 0 0 0 0.282353 0 0 0 0 0.290196 0 0 0 0 0.619608 0 0 0 0.06 0"/>
<feBlend mode="normal" in2="BackgroundImageFix" result="effect1_dropShadow_6775_2232"/>
<feBlend mode="normal" in="SourceGraphic" in2="effect1_dropShadow_6775_2232" result="shape"/>
</filter>
<filter id="filter5_d_6775_2232" x="20" y="109" width="295" height="102" filterUnits="userSpaceOnUse" color-interpolation-filters="sRGB">
<feFlood flood-opacity="0" result="BackgroundImageFix"/>
<feColorMatrix in="SourceAlpha" type="matrix" values="0 0 0 0 0 0 0 0 0 0 0 0 0 0 0 0 0 0 127 0" result="hardAlpha"/>
<feMorphology radius="4" operator="dilate" in="SourceAlpha" result="effect1_dropShadow_6775_2232"/>
<feOffset/>
<feGaussianBlur stdDeviation="12"/>
<feComposite in2="hardAlpha" operator="out"/>
<feColorMatrix type="matrix" values="0 0 0 0 0.282353 0 0 0 0 0.290196 0 0 0 0 0.619608 0 0 0 0.08 0"/>
<feBlend mode="normal" in2="BackgroundImageFix" result="effect1_dropShadow_6775_2232"/>
<feBlend mode="normal" in="SourceGraphic" in2="effect1_dropShadow_6775_2232" result="shape"/>
</filter>
<linearGradient id="paint0_linear_6775_2232" x1="28" y1="40.2517" x2="303.662" y2="40.2517" gradientUnits="userSpaceOnUse">
<stop stop-color="#EC008C"/>
<stop offset="1" stop-color="#FC6767"/>
</linearGradient>
<linearGradient id="paint1_linear_6775_2232" x1="190.131" y1="71.478" x2="190.131" y2="94.0867" gradientUnits="userSpaceOnUse">
<stop stop-color="#EAEAEA"/>
<stop offset="1" stop-color="#ECECEC"/>
</linearGradient>
<linearGradient id="paint2_linear_6775_2232" x1="190.944" y1="77.1304" x2="190.944" y2="86.625" gradientUnits="userSpaceOnUse">
<stop stop-color="#FFD4B3"/>
<stop offset="1" stop-color="#FFDCC2"/>
</linearGradient>
<linearGradient id="paint3_linear_6775_2232" x1="181.087" y1="90.2756" x2="199.174" y2="90.2756" gradientUnits="userSpaceOnUse">
<stop stop-color="#606C88"/>
<stop offset="1" stop-color="#3F4C6B"/>
</linearGradient>
<linearGradient id="paint4_linear_6775_2232" x1="190.722" y1="85.1186" x2="190.722" y2="73.8892" gradientUnits="userSpaceOnUse">
<stop/>
<stop offset="1"/>
</linearGradient>
<linearGradient id="paint5_linear_6775_2232" x1="68.576" y1="72.7059" x2="157.326" y2="94.5942" gradientUnits="userSpaceOnUse">
<stop stop-color="#F9F7C6"/>
<stop offset="1" stop-color="#E8FCDB"/>
</linearGradient>
<linearGradient id="paint6_linear_6775_2232" x1="68.086" y1="81.7493" x2="119.25" y2="88.7346" gradientUnits="userSpaceOnUse">
<stop stop-color="#F9F7C6"/>
<stop offset="1" stop-color="#E8FCDB"/>
</linearGradient>
<linearGradient id="paint7_linear_6775_2232" x1="68.2885" y1="90.7928" x2="135.55" y2="103.037" gradientUnits="userSpaceOnUse">
<stop stop-color="#F9F7C6"/>
<stop offset="1" stop-color="#E8FCDB"/>
</linearGradient>
<linearGradient id="paint8_linear_6775_2232" x1="57.6988" y1="170.83" x2="147.587" y2="192.999" gradientUnits="userSpaceOnUse">
<stop stop-color="#F9F7C6"/>
<stop offset="1" stop-color="#E8FCDB"/>
</linearGradient>
<linearGradient id="paint9_linear_6775_2232" x1="57.2024" y1="179.99" x2="109.023" y2="187.064" gradientUnits="userSpaceOnUse">
<stop stop-color="#F9F7C6"/>
<stop offset="1" stop-color="#E8FCDB"/>
</linearGradient>
<linearGradient id="paint10_linear_6775_2232" x1="57.4076" y1="189.149" x2="125.532" y2="201.55" gradientUnits="userSpaceOnUse">
<stop stop-color="#F9F7C6"/>
<stop offset="1" stop-color="#E8FCDB"/>
</linearGradient>
<linearGradient id="paint11_linear_6775_2232" x1="181.384" y1="169.587" x2="181.384" y2="192.485" gradientUnits="userSpaceOnUse">
<stop stop-color="#EAEAEA"/>
<stop offset="1" stop-color="#ECECEC"/>
</linearGradient>
<linearGradient id="paint12_linear_6775_2232" x1="173.522" y1="188.173" x2="189.246" y2="188.173" gradientUnits="userSpaceOnUse">
<stop stop-color="#606C88"/>
<stop offset="1" stop-color="#3F4C6B"/>
</linearGradient>
<linearGradient id="paint13_linear_6775_2232" x1="181.662" y1="182.976" x2="181.662" y2="172.589" gradientUnits="userSpaceOnUse">
<stop/>
<stop offset="1"/>
</linearGradient>
<linearGradient id="paint14_linear_6775_2232" x1="173.473" y1="122.204" x2="266.774" y2="145.214" gradientUnits="userSpaceOnUse">
<stop stop-color="#F9F7C6"/>
<stop offset="1" stop-color="#E8FCDB"/>
</linearGradient>
<linearGradient id="paint15_linear_6775_2232" x1="172.958" y1="131.711" x2="226.746" y2="139.054" gradientUnits="userSpaceOnUse">
<stop stop-color="#F9F7C6"/>
<stop offset="1" stop-color="#E8FCDB"/>
</linearGradient>
<linearGradient id="paint16_linear_6775_2232" x1="173.171" y1="141.218" x2="243.882" y2="154.09" gradientUnits="userSpaceOnUse">
<stop stop-color="#F9F7C6"/>
<stop offset="1" stop-color="#E8FCDB"/>
</linearGradient>
<linearGradient id="paint17_linear_6775_2232" x1="147.957" y1="120.913" x2="147.957" y2="144.681" gradientUnits="userSpaceOnUse">
<stop stop-color="#EAEAEA"/>
<stop offset="1" stop-color="#ECECEC"/>
</linearGradient>
<linearGradient id="paint18_linear_6775_2232" x1="146.917" y1="142.067" x2="146.917" y2="123.97" gradientUnits="userSpaceOnUse">
<stop/>
<stop offset="1"/>
</linearGradient>
<linearGradient id="paint19_linear_6775_2232" x1="139.796" y1="140.482" x2="156.117" y2="140.482" gradientUnits="userSpaceOnUse">
<stop stop-color="#606C88"/>
<stop offset="1" stop-color="#3F4C6B"/>
</linearGradient>
<linearGradient id="paint20_linear_6775_2232" x1="147.128" y1="127.964" x2="147.128" y2="137.472" gradientUnits="userSpaceOnUse">
<stop stop-color="#FFE0CC"/>
<stop offset="1" stop-color="#FFEADB"/>
</linearGradient>
<linearGradient id="paint21_linear_6775_2232" x1="147.957" y1="139.293" x2="147.957" y2="143.096" gradientUnits="userSpaceOnUse">
<stop stop-color="#130027"/>
<stop offset="1" stop-color="#130017"/>
</linearGradient>
<linearGradient id="paint22_linear_6775_2232" x1="76.5" y1="66" x2="76.5" y2="111" gradientUnits="userSpaceOnUse">
<stop stop-color="#EAEAEA"/>
<stop offset="1" stop-color="#ECECEC"/>
</linearGradient>
<linearGradient id="paint23_linear_6775_2232" x1="78.1195" y1="77.25" x2="78.1195" y2="96.1481" gradientUnits="userSpaceOnUse">
<stop stop-color="#FFD4B3"/>
<stop offset="1" stop-color="#FFDCC2"/>
</linearGradient>
<linearGradient id="paint24_linear_6775_2232" x1="58.5" y1="103.414" x2="94.5" y2="103.414" gradientUnits="userSpaceOnUse">
<stop stop-color="#606C88"/>
<stop offset="1" stop-color="#3F4C6B"/>
</linearGradient>
<linearGradient id="paint25_linear_6775_2232" x1="77.6774" y1="93.1502" x2="77.6774" y2="70.7993" gradientUnits="userSpaceOnUse">
<stop/>
<stop offset="1"/>
</linearGradient>
<linearGradient id="paint26_linear_6775_2232" x1="111" y1="83" x2="180" y2="83" gradientUnits="userSpaceOnUse">
<stop stop-color="#AA076B"/>
<stop offset="1" stop-color="#61045F"/>
</linearGradient>
<linearGradient id="paint27_linear_6775_2232" x1="65" y1="147" x2="174" y2="147" gradientUnits="userSpaceOnUse">
<stop stop-color="#AA076B"/>
<stop offset="1" stop-color="#61045F"/>
</linearGradient>
<linearGradient id="paint28_linear_6775_2232" x1="240" y1="160" x2="279" y2="160" gradientUnits="userSpaceOnUse">
<stop stop-color="#AA076B"/>
<stop offset="1" stop-color="#61045F"/>
</linearGradient>
<linearGradient id="paint29_linear_6775_2232" x1="111" y1="97" x2="145" y2="97" gradientUnits="userSpaceOnUse">
<stop stop-color="#AA076B"/>
<stop offset="1" stop-color="#61045F"/>
</linearGradient>
<linearGradient id="paint30_linear_6775_2232" x1="65.4785" y1="155.935" x2="118.044" y2="155.935" gradientUnits="userSpaceOnUse">
<stop stop-color="#AA076B"/>
<stop offset="1" stop-color="#61045F"/>
</linearGradient>
<linearGradient id="paint31_linear_6775_2232" x1="65" y1="165" x2="146" y2="165" gradientUnits="userSpaceOnUse">
<stop stop-color="#AA076B"/>
<stop offset="1" stop-color="#61045F"/>
</linearGradient>
<linearGradient id="paint32_linear_6775_2232" x1="28" y1="40.2517" x2="303.662" y2="40.2517" gradientUnits="userSpaceOnUse">
<stop stop-color="#AA076B"/>
<stop offset="1" stop-color="#61045F"/>
</linearGradient>
<clipPath id="clip0_6775_2232">
<path d="M178.826 82.7824C178.826 76.5392 183.887 71.478 190.131 71.478V71.478C196.374 71.478 201.435 76.5392 201.435 82.7824V82.7824C201.435 89.0256 196.374 94.0867 190.131 94.0867V94.0867C183.887 94.0867 178.826 89.0256 178.826 82.7824V82.7824Z" fill="white"/>
</clipPath>
<clipPath id="clip1_6775_2232">
<path d="M169.935 181.036C169.935 174.713 175.061 169.587 181.384 169.587V169.587C187.707 169.587 192.833 174.713 192.833 181.036V181.036C192.833 187.359 187.707 192.485 181.384 192.485V192.485C175.061 192.485 169.935 187.359 169.935 181.036V181.036Z" fill="white"/>
</clipPath>
<clipPath id="clip2_6775_2232">
<path d="M136.073 132.797C136.073 126.234 141.393 120.913 147.957 120.913V120.913C154.52 120.913 159.841 126.234 159.841 132.797V132.797C159.841 139.361 154.52 144.681 147.957 144.681V144.681C141.393 144.681 136.073 139.361 136.073 132.797V132.797Z" fill="white"/>
</clipPath>
<clipPath id="clip3_6775_2232">
<path d="M54 88.5C54 76.0736 64.0736 66 76.5 66V66C88.9264 66 99 76.0736 99 88.5V88.5C99 100.926 88.9264 111 76.5 111V111C64.0736 111 54 100.926 54 88.5V88.5Z" fill="white"/>
</clipPath>
</defs>
</svg>
