<svg width="28" height="28" viewBox="0 0 28 28" fill="none" xmlns="http://www.w3.org/2000/svg">
<path d="M5.81341 8.39635C7.22321 8.39635 8.36607 7.25348 8.36607 5.84368C8.36607 4.43388 7.22321 3.29102 5.81341 3.29102C4.40361 3.29102 3.26074 4.43388 3.26074 5.84368C3.26074 7.25348 4.40361 8.39635 5.81341 8.39635Z" fill="#0E76A8"/>
<path d="M10.7765 10.3305V24.4926H15.1737V17.4891C15.1737 15.6411 15.5213 13.8515 17.8127 13.8515C20.0725 13.8515 20.1005 15.9643 20.1005 17.6058V24.4938H24.5V16.7273C24.5 12.9123 23.6787 9.98047 19.2197 9.98047C17.0788 9.98047 15.6438 11.1553 15.057 12.2671H14.9975V10.3305H10.7765ZM3.61084 10.3305H8.01501V24.4926H3.61084V10.3305Z" fill="#0E76A8"/>
</svg>
