<svg width="25" height="21" viewBox="0 0 25 21" fill="none" xmlns="http://www.w3.org/2000/svg">
<path d="M25 2.48516C24.0801 2.89307 23.0916 3.16875 22.0541 3.29277C23.1132 2.65801 23.9264 1.65283 24.3093 0.455176C23.3025 1.05262 22.201 1.47356 21.0523 1.6998C20.1167 0.703027 18.7838 0.0800781 17.3085 0.0800781C14.4759 0.0800781 12.1793 2.37656 12.1793 5.20898C12.1793 5.61103 12.2247 6.00244 12.3121 6.37793C8.04941 6.16396 4.27012 4.12207 1.74033 1.01895C1.29893 1.77646 1.046 2.65762 1.046 3.59746C1.046 5.37695 1.95156 6.94678 3.32773 7.8666C2.51323 7.84109 1.71665 7.6211 1.00449 7.225C1.0042 7.24648 1.0042 7.26797 1.0042 7.28955C1.0042 9.77461 2.77217 11.8477 5.11846 12.3188C4.36317 12.5243 3.57093 12.5543 2.80225 12.4067C3.45488 14.4444 5.34912 15.9272 7.59346 15.9687C5.83809 17.3443 3.62646 18.1644 1.22354 18.1644C0.809473 18.1644 0.40127 18.14 0 18.0927C2.26982 19.5479 4.96582 20.3971 7.8623 20.3971C17.2966 20.3971 22.4555 12.5815 22.4555 5.80381C22.4555 5.58135 22.4506 5.36016 22.4406 5.14023C23.4448 4.41434 24.3114 3.51525 25 2.48516" fill="#55ACEE"/>
</svg>
