<svg width="197" height="145" viewBox="0 0 197 145" fill="none" xmlns="http://www.w3.org/2000/svg">
<g filter="url(#filter0_d_8477_2114)">
<rect x="48.0254" y="28" width="103.463" height="89" rx="12" fill="white"/>
</g>
<g filter="url(#filter1_d_8477_2114)">
<rect x="28" y="46.9131" width="92.5512" height="25.0986" rx="2" fill="white"/>
</g>
<rect opacity="0.6" x="48.4878" y="52.1416" width="39.4857" height="3.13733" rx="1.56866" fill="url(#paint0_linear_8477_2114)"/>
<rect opacity="0.3" x="49.5352" y="58.9395" width="19.3315" height="2.09155" rx="1.04578" fill="url(#paint1_linear_8477_2114)"/>
<rect opacity="0.3" x="50.0566" y="63.6465" width="29.203" height="2.09155" rx="1.04578" fill="url(#paint2_linear_8477_2114)"/>
<g clip-path="url(#clip0_8477_2114)">
<path d="M33.229 59.2011C33.229 55.5913 36.1553 52.665 39.7651 52.665V52.665C43.3749 52.665 46.3012 55.5913 46.3012 59.2011V59.2011C46.3012 62.8109 43.3749 65.7372 39.7651 65.7372V65.7372C36.1553 65.7372 33.229 62.8109 33.229 59.2011V59.2011Z" fill="url(#paint3_linear_8477_2114)"/>
<path d="M43.7738 62.905C44.0933 63.5151 44.2531 65.7373 44.2531 65.7373H35.2769C35.2769 65.7373 35.4366 63.5151 35.7562 62.905C36.2355 61.99 39.765 60.8135 39.765 60.8135C39.765 60.8135 43.2945 61.99 43.7738 62.905Z" fill="url(#paint4_linear_8477_2114)"/>
<path d="M39.5908 64.6917C39.5908 64.6572 39.601 64.6235 39.6202 64.5948C39.6393 64.5662 39.6666 64.5438 39.6984 64.5306C39.7303 64.5174 39.7653 64.514 39.7991 64.5207C39.8329 64.5274 39.864 64.544 39.8884 64.5684C39.9127 64.5928 39.9293 64.6238 39.9361 64.6577C39.9428 64.6915 39.9393 64.7265 39.9262 64.7584C39.913 64.7902 39.8906 64.8174 39.862 64.8366C39.8333 64.8557 39.7996 64.866 39.7651 64.866C39.7189 64.866 39.6746 64.8476 39.6419 64.8149C39.6092 64.7822 39.5908 64.7379 39.5908 64.6917ZM39.5908 63.8202C39.5908 63.7857 39.601 63.752 39.6202 63.7233C39.6393 63.6947 39.6666 63.6723 39.6984 63.6592C39.7303 63.646 39.7653 63.6425 39.7991 63.6492C39.8329 63.656 39.864 63.6726 39.8884 63.6969C39.9127 63.7213 39.9293 63.7524 39.9361 63.7862C39.9428 63.82 39.9393 63.855 39.9262 63.8869C39.913 63.9187 39.8906 63.946 39.862 63.9651C39.8333 63.9843 39.7996 63.9945 39.7651 63.9945C39.7189 63.9945 39.6746 63.9761 39.6419 63.9434C39.6092 63.9107 39.5908 63.8664 39.5908 63.8202ZM39.5908 62.9487C39.5908 62.9142 39.601 62.8805 39.6202 62.8519C39.6393 62.8232 39.6666 62.8009 39.6984 62.7877C39.7303 62.7745 39.7653 62.771 39.7991 62.7778C39.8329 62.7845 39.864 62.8011 39.8884 62.8255C39.9127 62.8498 39.9293 62.8809 39.9361 62.9147C39.9428 62.9485 39.9393 62.9836 39.9262 63.0154C39.913 63.0473 39.8906 63.0745 39.862 63.0936C39.8333 63.1128 39.7996 63.123 39.7651 63.123C39.7189 63.123 39.6746 63.1046 39.6419 63.072C39.6092 63.0393 39.5908 62.9949 39.5908 62.9487Z" fill="white"/>
<path d="M43.4892 60.3084L36.4103 59.4529C36.0613 57.6002 36.4752 56.4329 37.6521 55.951C38.1962 54.1683 40.3138 54.3133 40.914 54.4586C42.9565 54.9532 43.8149 56.9031 43.4892 60.3084Z" fill="url(#paint5_linear_8477_2114)"/>
<path d="M38.7191 61.336V58.7216C37.6288 58.7053 37.8415 56.816 38.937 57.3926C39.1331 57.4797 39.6342 57.2401 39.4599 56.6518C40.6364 57.5233 42.2758 55.9938 42.3793 56.935C42.583 58.7874 42.1889 60.3099 41.1437 60.31C41.0323 60.3143 40.9208 60.3076 40.8107 60.2902V61.336C40.4695 61.5394 40.1283 61.641 39.7871 61.641C39.4459 61.641 39.0899 61.5394 38.7191 61.336Z" fill="#FFDBC9"/>
<path d="M40.8107 60.2904V60.639C40.1571 60.639 39.6488 60.3267 39.2856 59.7021C39.7214 59.9926 40.2297 60.1887 40.8107 60.2904Z" fill="#FFBC9E"/>
<path d="M39.7637 61.5967C40.0618 61.5825 40.8109 61.4282 40.8109 61.095V60.8135C40.8909 60.8135 41.1197 61.0022 41.2374 61.1621C41.7026 61.7939 41.1866 62.3604 40.7657 62.3604C40.2347 62.3604 39.8828 61.9167 39.7652 61.7033C39.6475 61.9168 39.2956 62.3604 38.7646 62.3604C38.3438 62.3604 37.8278 61.7939 38.293 61.1621C38.4107 61.0022 38.6395 60.8135 38.7194 60.8135V61.095C38.7194 61.4282 39.4488 61.5825 39.7637 61.5967Z" fill="white"/>
</g>
<rect opacity="0.75" x="95.9756" y="55.2793" width="19.3469" height="8.36621" rx="4.1831" fill="url(#paint6_linear_8477_2114)"/>
<g filter="url(#filter2_d_8477_2114)">
<rect x="55.8125" y="76.9502" width="112.782" height="31.0469" rx="2" fill="white"/>
</g>
<rect opacity="0.65" x="82.4233" y="83.2861" width="48.7879" height="5.06887" rx="2.53444" fill="url(#paint7_linear_8477_2114)"/>
<rect opacity="0.4" x="85.5913" y="90.8887" width="28.5124" height="3.16805" rx="1.58402" fill="url(#paint8_linear_8477_2114)"/>
<rect opacity="0.4" x="84.959" y="95.958" width="38.6502" height="3.80166" rx="1.90083" fill="url(#paint9_linear_8477_2114)"/>
<g clip-path="url(#clip1_8477_2114)">
<path d="M63.2861 92.2375C63.2861 87.8633 66.8321 84.3174 71.2062 84.3174V84.3174C75.5804 84.3174 79.1264 87.8633 79.1264 92.2375V92.2375C79.1264 96.6117 75.5804 100.158 71.2062 100.158V100.158C66.8321 100.158 63.2861 96.6117 63.2861 92.2375V92.2375Z" fill="url(#paint10_linear_8477_2114)"/>
<path d="M76.0637 96.7258C76.4509 97.4651 76.6445 100.158 76.6445 100.158H65.7676C65.7676 100.158 65.9612 97.4651 66.3484 96.7258C66.9292 95.617 71.2061 94.1914 71.2061 94.1914C71.2061 94.1914 75.4829 95.617 76.0637 96.7258Z" fill="url(#paint11_linear_8477_2114)"/>
<path d="M70.9946 98.8906C70.9946 98.8488 71.007 98.808 71.0302 98.7733C71.0534 98.7385 71.0864 98.7115 71.125 98.6955C71.1636 98.6795 71.2061 98.6753 71.247 98.6835C71.288 98.6916 71.3256 98.7117 71.3552 98.7413C71.3847 98.7708 71.4048 98.8084 71.413 98.8494C71.4211 98.8904 71.417 98.9328 71.401 98.9714C71.385 99.01 71.3579 99.043 71.3232 99.0662C71.2884 99.0894 71.2476 99.1018 71.2058 99.1018C71.1498 99.1018 71.0961 99.0796 71.0565 99.0399C71.0169 99.0003 70.9946 98.9466 70.9946 98.8906ZM70.9946 97.8346C70.9946 97.7928 71.007 97.752 71.0302 97.7173C71.0534 97.6825 71.0864 97.6555 71.125 97.6395C71.1636 97.6235 71.2061 97.6193 71.247 97.6275C71.288 97.6356 71.3256 97.6557 71.3552 97.6853C71.3847 97.7148 71.4048 97.7524 71.413 97.7934C71.4211 97.8344 71.417 97.8768 71.401 97.9154C71.385 97.954 71.3579 97.987 71.3232 98.0102C71.2884 98.0334 71.2476 98.0458 71.2058 98.0458C71.1498 98.0458 71.0961 98.0235 71.0565 97.9839C71.0169 97.9443 70.9946 97.8906 70.9946 97.8346ZM70.9946 96.7786C70.9946 96.7368 71.007 96.696 71.0302 96.6612C71.0534 96.6265 71.0864 96.5994 71.125 96.5835C71.1636 96.5675 71.2061 96.5633 71.247 96.5714C71.288 96.5796 71.3256 96.5997 71.3552 96.6292C71.3847 96.6588 71.4048 96.6964 71.413 96.7374C71.4211 96.7784 71.417 96.8208 71.401 96.8594C71.385 96.898 71.3579 96.931 71.3232 96.9542C71.2884 96.9774 71.2476 96.9898 71.2058 96.9898C71.1498 96.9898 71.0961 96.9675 71.0565 96.9279C71.0169 96.8883 70.9946 96.8346 70.9946 96.7786Z" fill="white"/>
<path d="M75.719 93.5796L67.1412 92.5429C66.7183 90.2979 67.2199 88.8834 68.646 88.2995C69.3053 86.1393 71.8712 86.3151 72.5986 86.4912C75.0736 87.0905 76.1138 89.4533 75.719 93.5796Z" fill="url(#paint12_linear_8477_2114)"/>
<path d="M69.9387 94.8247V91.6567C68.6175 91.6369 68.8752 89.3476 70.2027 90.0462C70.4403 90.1518 71.0475 89.8614 70.8363 89.1486C72.2619 90.2046 74.2485 88.3513 74.3739 89.4918C74.6208 91.7364 74.1431 93.5813 72.8766 93.5815C72.7416 93.5866 72.6065 93.5786 72.4731 93.5575V94.8247C72.0597 95.0711 71.6462 95.1943 71.2328 95.1943C70.8194 95.1943 70.388 95.0711 69.9387 94.8247Z" fill="#FFDBC9"/>
<path d="M72.4735 93.5575V93.9799C71.6815 93.9799 71.0655 93.6015 70.6255 92.8447C71.1535 93.1967 71.7695 93.4343 72.4735 93.5575Z" fill="#FFBC9E"/>
<path d="M71.2044 95.1405C71.5656 95.1232 72.4733 94.9363 72.4733 94.5325V94.1914C72.5702 94.1914 72.8474 94.4201 72.99 94.6138C73.5537 95.3794 72.9285 96.0658 72.4185 96.0658C71.7751 96.0658 71.3487 95.5282 71.2061 95.2696C71.0636 95.5283 70.6371 96.0658 69.9937 96.0658C69.4838 96.0658 68.8585 95.3794 69.4222 94.6138C69.5648 94.4201 69.8421 94.1914 69.9389 94.1914V94.5325C69.9389 94.9363 70.8228 95.1232 71.2044 95.1405Z" fill="white"/>
</g>
<rect opacity="0.65" x="138.815" y="88.3555" width="25.978" height="10.7714" rx="5" fill="url(#paint13_linear_8477_2114)"/>
<defs>
<filter id="filter0_d_8477_2114" x="20.0254" y="0" width="159.462" height="145" filterUnits="userSpaceOnUse" color-interpolation-filters="sRGB">
<feFlood flood-opacity="0" result="BackgroundImageFix"/>
<feColorMatrix in="SourceAlpha" type="matrix" values="0 0 0 0 0 0 0 0 0 0 0 0 0 0 0 0 0 0 127 0" result="hardAlpha"/>
<feMorphology radius="4" operator="dilate" in="SourceAlpha" result="effect1_dropShadow_8477_2114"/>
<feOffset/>
<feGaussianBlur stdDeviation="12"/>
<feComposite in2="hardAlpha" operator="out"/>
<feColorMatrix type="matrix" values="0 0 0 0 0.282353 0 0 0 0 0.290196 0 0 0 0 0.619608 0 0 0 0.1 0"/>
<feBlend mode="normal" in2="BackgroundImageFix" result="effect1_dropShadow_8477_2114"/>
<feBlend mode="normal" in="SourceGraphic" in2="effect1_dropShadow_8477_2114" result="shape"/>
</filter>
<filter id="filter1_d_8477_2114" x="0" y="18.9131" width="148.551" height="81.0986" filterUnits="userSpaceOnUse" color-interpolation-filters="sRGB">
<feFlood flood-opacity="0" result="BackgroundImageFix"/>
<feColorMatrix in="SourceAlpha" type="matrix" values="0 0 0 0 0 0 0 0 0 0 0 0 0 0 0 0 0 0 127 0" result="hardAlpha"/>
<feMorphology radius="4" operator="dilate" in="SourceAlpha" result="effect1_dropShadow_8477_2114"/>
<feOffset/>
<feGaussianBlur stdDeviation="12"/>
<feComposite in2="hardAlpha" operator="out"/>
<feColorMatrix type="matrix" values="0 0 0 0 0.282353 0 0 0 0 0.290196 0 0 0 0 0.619608 0 0 0 0.08 0"/>
<feBlend mode="normal" in2="BackgroundImageFix" result="effect1_dropShadow_8477_2114"/>
<feBlend mode="normal" in="SourceGraphic" in2="effect1_dropShadow_8477_2114" result="shape"/>
</filter>
<filter id="filter2_d_8477_2114" x="27.8125" y="48.9502" width="168.782" height="87.0469" filterUnits="userSpaceOnUse" color-interpolation-filters="sRGB">
<feFlood flood-opacity="0" result="BackgroundImageFix"/>
<feColorMatrix in="SourceAlpha" type="matrix" values="0 0 0 0 0 0 0 0 0 0 0 0 0 0 0 0 0 0 127 0" result="hardAlpha"/>
<feMorphology radius="4" operator="dilate" in="SourceAlpha" result="effect1_dropShadow_8477_2114"/>
<feOffset/>
<feGaussianBlur stdDeviation="12"/>
<feComposite in2="hardAlpha" operator="out"/>
<feColorMatrix type="matrix" values="0 0 0 0 0.282353 0 0 0 0 0.290196 0 0 0 0 0.619608 0 0 0 0.03 0"/>
<feBlend mode="normal" in2="BackgroundImageFix" result="effect1_dropShadow_8477_2114"/>
<feBlend mode="normal" in="SourceGraphic" in2="effect1_dropShadow_8477_2114" result="shape"/>
</filter>
<linearGradient id="paint0_linear_8477_2114" x1="48.4878" y1="53.7103" x2="87.9735" y2="53.7103" gradientUnits="userSpaceOnUse">
<stop stop-color="#F44545"/>
<stop offset="1" stop-color="#EEA849"/>
</linearGradient>
<linearGradient id="paint1_linear_8477_2114" x1="49.5352" y1="59.9852" x2="68.8667" y2="59.9852" gradientUnits="userSpaceOnUse">
<stop stop-color="#F44545"/>
<stop offset="1" stop-color="#EEA849"/>
</linearGradient>
<linearGradient id="paint2_linear_8477_2114" x1="50.0566" y1="64.6923" x2="79.2596" y2="64.6923" gradientUnits="userSpaceOnUse">
<stop stop-color="#F44545"/>
<stop offset="1" stop-color="#EEA849"/>
</linearGradient>
<linearGradient id="paint3_linear_8477_2114" x1="39.7651" y1="52.665" x2="39.7651" y2="65.7372" gradientUnits="userSpaceOnUse">
<stop stop-color="#EAEAEA"/>
<stop offset="1" stop-color="#ECECEC"/>
</linearGradient>
<linearGradient id="paint4_linear_8477_2114" x1="35.2769" y1="63.2754" x2="44.2531" y2="63.2754" gradientUnits="userSpaceOnUse">
<stop stop-color="#606C88"/>
<stop offset="1" stop-color="#3F4C6B"/>
</linearGradient>
<linearGradient id="paint5_linear_8477_2114" x1="39.9235" y1="60.3084" x2="39.9235" y2="54.3789" gradientUnits="userSpaceOnUse">
<stop/>
<stop offset="1"/>
</linearGradient>
<linearGradient id="paint6_linear_8477_2114" x1="95.9756" y1="59.4624" x2="115.322" y2="59.4624" gradientUnits="userSpaceOnUse">
<stop stop-color="#F44545"/>
<stop offset="1" stop-color="#EEA849"/>
</linearGradient>
<linearGradient id="paint7_linear_8477_2114" x1="82.4233" y1="85.8206" x2="131.211" y2="85.8206" gradientUnits="userSpaceOnUse">
<stop stop-color="#00D2FF"/>
<stop offset="1" stop-color="#3A7BD5"/>
</linearGradient>
<linearGradient id="paint8_linear_8477_2114" x1="85.5913" y1="92.4727" x2="114.104" y2="92.4727" gradientUnits="userSpaceOnUse">
<stop stop-color="#00D2FF"/>
<stop offset="1" stop-color="#3A7BD5"/>
</linearGradient>
<linearGradient id="paint9_linear_8477_2114" x1="84.959" y1="97.8588" x2="123.609" y2="97.8588" gradientUnits="userSpaceOnUse">
<stop stop-color="#00D2FF"/>
<stop offset="1" stop-color="#3A7BD5"/>
</linearGradient>
<linearGradient id="paint10_linear_8477_2114" x1="71.2062" y1="84.3174" x2="71.2062" y2="100.158" gradientUnits="userSpaceOnUse">
<stop stop-color="#EAEAEA"/>
<stop offset="1" stop-color="#ECECEC"/>
</linearGradient>
<linearGradient id="paint11_linear_8477_2114" x1="65.7676" y1="97.1746" x2="76.6445" y2="97.1746" gradientUnits="userSpaceOnUse">
<stop stop-color="#606C88"/>
<stop offset="1" stop-color="#3F4C6B"/>
</linearGradient>
<linearGradient id="paint12_linear_8477_2114" x1="71.3983" y1="93.5796" x2="71.3983" y2="86.3945" gradientUnits="userSpaceOnUse">
<stop/>
<stop offset="1"/>
</linearGradient>
<linearGradient id="paint13_linear_8477_2114" x1="138.815" y1="93.7411" x2="164.793" y2="93.7411" gradientUnits="userSpaceOnUse">
<stop stop-color="#00D2FF"/>
<stop offset="1" stop-color="#3A7BD5"/>
</linearGradient>
<clipPath id="clip0_8477_2114">
<path d="M33.229 59.2011C33.229 55.5913 36.1553 52.665 39.7651 52.665V52.665C43.3749 52.665 46.3012 55.5913 46.3012 59.2011V59.2011C46.3012 62.8109 43.3749 65.7372 39.7651 65.7372V65.7372C36.1553 65.7372 33.229 62.8109 33.229 59.2011V59.2011Z" fill="white"/>
</clipPath>
<clipPath id="clip1_8477_2114">
<path d="M63.2861 92.2375C63.2861 87.8633 66.8321 84.3174 71.2062 84.3174V84.3174C75.5804 84.3174 79.1264 87.8633 79.1264 92.2375V92.2375C79.1264 96.6117 75.5804 100.158 71.2062 100.158V100.158C66.8321 100.158 63.2861 96.6117 63.2861 92.2375V92.2375Z" fill="white"/>
</clipPath>
</defs>
</svg>
