<svg width="60" height="60" viewBox="0 0 60 60" fill="none" xmlns="http://www.w3.org/2000/svg">
<g clip-path="url(#clip0_5930_224)">
<path d="M55.133 9.11898C55.692 8.55685 56.0059 7.79628 56.0059 7.00348C56.0059 6.21068 55.692 5.45011 55.133 4.88798C54.8564 4.60666 54.5266 4.38324 54.1628 4.23078C53.799 4.07831 53.4085 3.99985 53.014 3.99998C52.6199 3.99885 52.2295 4.07626 51.8657 4.2277C51.5019 4.37914 51.1719 4.60156 50.895 4.88198L48.978 6.78198C43.6282 2.3959 36.9242 -0.001653 30.0062 -0.00292918C23.0883 -0.00420535 16.3834 2.39087 11.032 6.77498L9.11898 4.86698C8.55685 4.30792 7.79628 3.9941 7.00348 3.9941C6.21068 3.9941 5.45011 4.30792 4.88798 4.86698C4.60716 5.14415 4.38407 5.47425 4.23163 5.83818C4.07919 6.20211 4.00041 6.59266 3.99985 6.98723C3.99929 7.3818 4.07697 7.77256 4.22838 8.13692C4.37979 8.50129 4.60194 8.83201 4.88198 9.10998L6.78198 11.027C2.3959 16.3768 -0.001653 23.0808 -0.00292918 29.9987C-0.00420535 36.9167 2.39087 43.6215 6.77498 48.973L4.86698 50.881C4.30792 51.4431 3.9941 52.2037 3.9941 52.9965C3.9941 53.7893 4.30792 54.5499 4.86698 55.112C5.14351 55.3933 5.47331 55.6167 5.83713 55.7692C6.20096 55.9216 6.5915 56.0001 6.98598 56C7.38006 56.0011 7.77042 55.9237 8.13425 55.7723C8.49808 55.6208 8.82808 55.3984 9.10498 55.118L11.022 53.218C16.3718 57.6041 23.0758 60.0016 29.9937 60.0029C36.9117 60.0042 43.6165 57.6091 48.968 53.225L50.88 55.136C51.157 55.4141 51.4863 55.6345 51.849 55.7845C52.2117 55.9345 52.6005 56.0111 52.993 56.01C53.7862 56.0114 54.5478 55.6986 55.111 55.14C55.3918 54.8628 55.6149 54.5327 55.7673 54.1688C55.9198 53.8048 55.9986 53.4143 55.9991 53.0197C55.9997 52.6252 55.922 52.2344 55.7706 51.87C55.6192 51.5057 55.397 51.1749 55.117 50.897L53.217 48.98C57.6031 43.6302 60.0006 36.9262 60.0019 30.0082C60.0032 23.0903 57.6081 16.3854 53.224 11.034L55.133 9.11898ZM52.308 6.29998C52.3998 6.20637 52.5093 6.13201 52.6302 6.08124C52.7511 6.03047 52.8809 6.00433 53.012 6.00433C53.1431 6.00433 53.2729 6.03047 53.3938 6.08124C53.5146 6.13201 53.6242 6.20637 53.716 6.29998C53.8963 6.49021 53.9968 6.74235 53.9968 7.00448C53.9968 7.2666 53.8963 7.51875 53.716 7.70898L51.9 9.52598C51.4426 9.03798 50.9703 8.56565 50.483 8.10898L52.308 6.29998ZM47.551 51.8L43.281 47.53C44.8813 46.3147 46.3087 44.8873 47.524 43.287L51.794 47.557C50.5343 49.1162 49.112 50.5366 47.551 51.794V51.8ZM40 47.294V45.78C40.0005 45.439 40.088 45.1038 40.254 44.806L43.9 38.229C44.007 38.04 44.1 37.876 44.192 37.729C44.7486 36.9341 45.0322 35.9799 45 35.01C44.9691 33.4783 44.6463 31.9667 44.049 30.556C44.004 30.456 43.939 30.33 43.888 30.22C43.958 29.481 44 28.737 44 28C44 21.463 41.4 18.012 40.285 16.843C40.1061 16.6533 40.0045 16.4037 40 16.143V12.706C43.0396 14.4555 45.5645 16.9753 47.3201 20.0114C49.0757 23.0476 50.0001 26.4928 50.0001 30C50.0001 33.5072 49.0757 36.9524 47.3201 39.9885C45.5645 43.0247 43.0396 45.5445 40 47.294ZM8.20598 47.551L12.476 43.281C13.6913 44.8813 15.1187 46.3087 16.719 47.524L12.449 51.794C10.8877 50.5347 9.46528 49.1123 8.20598 47.551ZM9.99998 30C10.0068 25.9292 11.2549 21.9572 13.5776 18.6141C15.9004 15.271 19.1873 12.7156 23 11.289V13.456C22.2175 13.4699 21.4719 13.7913 20.9245 14.3507C20.3772 14.91 20.072 15.6624 20.075 16.445C20.0768 16.6655 20.1026 16.8851 20.152 17.1C19.6542 17.2317 19.1995 17.4913 18.833 17.853C18.5507 18.1322 18.3269 18.4649 18.1747 18.8317C18.0226 19.1985 17.9452 19.5919 17.947 19.989C17.9497 20.2089 17.9766 20.4279 18.027 20.642C17.6167 20.7532 17.2349 20.9508 16.9072 21.2216C16.5795 21.4924 16.3135 21.8301 16.1271 22.2122C15.9406 22.5942 15.838 23.0117 15.8261 23.4366C15.8141 23.8615 15.8932 24.2841 16.058 24.676C15.5895 24.8525 15.1729 25.144 14.8464 25.5237C14.52 25.9033 14.2942 26.3589 14.1899 26.8486C14.0855 27.3382 14.106 27.8463 14.2493 28.326C14.3926 28.8057 14.6541 29.2418 15.01 29.594L17.466 32.052C16.8683 32.1531 16.3178 32.4405 15.893 32.873C15.6083 33.1489 15.3824 33.4796 15.2289 33.8451C15.0754 34.2107 14.9976 34.6035 15 35C14.9996 35.6589 15.2158 36.2997 15.6153 36.8237C16.0148 37.3477 16.5755 37.7259 17.211 37.9C17.0552 38.292 16.9843 38.7125 17.0029 39.1339C17.0215 39.5553 17.1291 39.968 17.3187 40.3448C17.5084 40.7215 17.7756 41.0539 18.103 41.3199C18.4304 41.5859 18.8104 41.7795 19.218 41.888C19.0365 42.3428 18.969 42.8351 19.0216 43.322C19.0742 43.8089 19.2451 44.2755 19.5195 44.6811C19.7939 45.0867 20.1635 45.4189 20.5958 45.6488C21.0282 45.8787 21.5103 45.9993 22 46H23V48.711C19.1873 47.2843 15.9004 44.729 13.5776 41.3859C11.2549 38.0427 10.0068 34.0708 9.99998 30ZM12.449 8.20598L16.719 12.476C15.1187 13.6913 13.6913 15.1187 12.476 16.719L8.20598 12.449C9.46528 10.8877 10.8877 9.46528 12.449 8.20598ZM38.824 18.206C39.75 19.181 41.86 22.012 41.988 27.485C41.7703 27.2653 41.5363 27.0624 41.288 26.878L36.788 23.738C36.0982 23.2552 35.2515 23.0509 34.4175 23.166C33.5835 23.2812 32.8238 23.7072 32.2906 24.3587C31.7575 25.0103 31.4902 25.8393 31.5423 26.6795C31.5945 27.5198 31.9623 28.3094 32.572 28.89L36.937 33.331L26.873 43.692C26.7801 43.7902 26.668 43.8683 26.5436 43.9213C26.4192 43.9743 26.2852 44.0011 26.15 44H22C21.7348 44 21.4804 43.8946 21.2929 43.7071C21.1053 43.5196 21 43.2652 21 43C21.0046 42.7362 21.1114 42.4845 21.298 42.298C21.4845 42.1114 21.7362 42.0046 22 42H25.17C25.5653 42.001 25.9569 41.9235 26.3221 41.7719C26.6872 41.6203 27.0186 41.3977 27.297 41.117L29.707 38.707C29.8891 38.5184 29.9899 38.2658 29.9877 38.0036C29.9854 37.7414 29.8802 37.4906 29.6948 37.3052C29.5094 37.1198 29.2586 37.0146 28.9964 37.0123C28.7342 37.01 28.4816 37.1108 28.293 37.293L25.883 39.703C25.79 39.7978 25.6791 39.8732 25.5567 39.9247C25.4342 39.9762 25.3028 40.0028 25.17 40.003H20C19.7348 40.003 19.4804 39.8976 19.2929 39.7101C19.1053 39.5225 19 39.2682 19 39.003C19 38.7378 19.1053 38.4834 19.2929 38.2959C19.4804 38.1083 19.7348 38.003 20 38.003H23.172C23.5661 38.0041 23.9565 37.927 24.3206 37.7761C24.6847 37.6252 25.0152 37.4036 25.293 37.124L25.707 36.71C25.8891 36.5214 25.9899 36.2688 25.9877 36.0066C25.9854 35.7444 25.8802 35.4936 25.6948 35.3082C25.5094 35.1228 25.2586 35.0176 24.9964 35.0153C24.7342 35.013 24.4816 35.1138 24.293 35.296L23.879 35.71C23.6915 35.8975 23.4372 36.0029 23.172 36.003H18C17.7348 36.003 17.4804 35.8976 17.2929 35.7101C17.1053 35.5225 17 35.2682 17 35.003C17.0039 34.739 17.1105 34.4869 17.2972 34.3002C17.4839 34.1135 17.736 34.0069 18 34.003H20.66C21.2637 34.0013 21.8528 33.817 22.3499 33.4743C22.8469 33.1317 23.2287 32.6466 23.445 32.083C23.9681 32.3246 24.5503 32.4087 25.1204 32.3251C25.6905 32.2414 26.224 31.9936 26.6556 31.6119C27.0873 31.2301 27.3985 30.731 27.5513 30.1754C27.704 29.6198 27.6918 29.0317 27.516 28.483C28.0083 28.3306 28.4526 28.0532 28.8057 27.6779C29.1588 27.3026 29.4086 26.8422 29.5307 26.3415C29.6528 25.8409 29.643 25.3171 29.5023 24.8214C29.3616 24.3257 29.0949 23.8749 28.728 23.513L28.6 23.385C29.0372 23.1835 29.419 22.8788 29.7125 22.4971C30.0059 22.1155 30.2023 21.6683 30.2847 21.194C30.3672 20.7196 30.3332 20.2324 30.1857 19.7741C30.0382 19.3158 29.7816 18.9002 29.438 18.563L25.193 14.318C25.133 14.259 25.064 14.218 25 14.162V10.662C29.3235 9.51448 33.9091 9.87533 38 11.685V16.14C38.004 16.9086 38.2983 17.6472 38.824 18.208V18.206ZM22.367 17.153C22.1846 16.9624 22.0828 16.7088 22.0828 16.445C22.0828 16.1812 22.1846 15.9276 22.367 15.737C22.556 15.5516 22.8102 15.4477 23.075 15.4477C23.3398 15.4477 23.594 15.5516 23.783 15.737L28.022 19.977C28.1151 20.0699 28.189 20.1802 28.2394 20.3017C28.2898 20.4232 28.3158 20.5534 28.3158 20.685C28.3158 20.8165 28.2898 20.9468 28.2394 21.0682C28.189 21.1897 28.1151 21.3001 28.022 21.393C27.8304 21.573 27.5774 21.6733 27.3145 21.6733C27.0516 21.6733 26.7985 21.573 26.607 21.393L22.367 17.153ZM20.95 18.977C21.2122 18.9766 21.4639 19.0801 21.65 19.265L27.311 24.927C27.4041 25.0199 27.478 25.1302 27.5284 25.2517C27.5788 25.3732 27.6048 25.5034 27.6048 25.635C27.6048 25.7665 27.5788 25.8968 27.5284 26.0182C27.478 26.1397 27.4041 26.2501 27.311 26.343C27.121 26.5262 26.8674 26.6286 26.6035 26.6286C26.3396 26.6286 26.0859 26.5262 25.896 26.343L20.24 20.677C20.0552 20.4889 19.9516 20.2357 19.9516 19.972C19.9516 19.7083 20.0552 19.4551 20.24 19.267C20.3329 19.1736 20.4436 19.0998 20.5656 19.05C20.6875 19.0001 20.8182 18.9753 20.95 18.977ZM18.829 22.524C19.0905 22.5221 19.3422 22.6239 19.529 22.807L25.36 28.64C25.5437 28.8297 25.6464 29.0834 25.6464 29.3475C25.6464 29.6116 25.5437 29.8653 25.36 30.055C25.1696 30.2338 24.9182 30.3333 24.657 30.3333C24.3958 30.3333 24.1444 30.2338 23.954 30.055L18.114 24.224C17.934 24.0337 17.8333 23.7819 17.8324 23.52C17.8315 23.258 17.9304 23.0056 18.109 22.814C18.204 22.7207 18.3166 22.647 18.4401 22.5973C18.5636 22.5475 18.6958 22.5226 18.829 22.524ZM16.424 26.765C16.6134 26.5842 16.8651 26.4833 17.127 26.4833C17.3888 26.4833 17.6406 26.5842 17.83 26.765L21.36 30.3C21.545 30.4872 21.6488 30.7398 21.6488 31.003C21.6488 31.2662 21.545 31.5188 21.36 31.706C21.1704 31.8902 20.9164 31.9933 20.652 31.9933C20.3876 31.9933 20.1336 31.8902 19.944 31.706L16.419 28.178C16.2325 27.9898 16.1283 27.7354 16.1292 27.4704C16.1301 27.2055 16.2361 26.9518 16.424 26.765ZM25 46H26.15C26.5525 46.001 26.9511 45.9207 27.3217 45.7638C27.6924 45.6069 28.0275 45.3767 28.307 45.087L38.383 34.738C38.7486 34.3633 38.9528 33.8603 38.9517 33.3368C38.9506 32.8133 38.7442 32.3111 38.377 31.938L33.967 27.451C33.7626 27.2496 33.6258 26.9897 33.5753 26.7073C33.5248 26.4249 33.5631 26.1337 33.685 25.874C33.7723 25.7035 33.8948 25.5536 34.0445 25.4342C34.1942 25.3148 34.3676 25.2285 34.5532 25.1812C34.7387 25.1339 34.9322 25.1267 35.1208 25.1599C35.3094 25.1931 35.4888 25.2661 35.647 25.374L40.147 28.512C41.0729 29.2512 41.7851 30.2239 42.21 31.33C42.7052 32.4952 42.9733 33.7442 43 35.01C43.0331 35.6217 42.8454 36.225 42.471 36.71C42.376 36.871 38.506 43.834 38.506 43.834C38.1742 44.4318 38 45.1043 38 45.788V48.319C33.9091 50.1286 29.3235 50.4895 25 49.342V46ZM43.285 12.479L47.551 8.20598C49.1123 9.46528 50.5347 10.8877 51.794 12.449L47.521 16.715C46.3075 15.1175 44.8825 13.6925 43.285 12.479ZM45.933 6.99398L41.609 11.324C38.1269 9.15222 34.1053 8.0009 30.0015 8.0009C25.8976 8.0009 21.8761 9.15222 18.394 11.324L14.066 6.99998C18.7431 3.74834 24.3031 2.00551 29.9995 2.00551C35.6959 2.00551 41.2559 3.74834 45.933 6.99998V6.99398ZM6.29998 7.69198C6.20637 7.60018 6.13201 7.49064 6.08124 7.36976C6.03047 7.24888 6.00433 7.11909 6.00433 6.98798C6.00433 6.85687 6.03047 6.72708 6.08124 6.6062C6.13201 6.48532 6.20637 6.37577 6.29998 6.28398C6.49055 6.10431 6.74257 6.00425 7.00448 6.00425C7.26639 6.00425 7.51841 6.10431 7.70898 6.28398L9.52598 8.09998C9.03798 8.55665 8.56565 9.02898 8.10898 9.51698L6.29998 7.69198ZM6.99998 14.066L11.327 18.394C9.15593 21.8758 8.00501 25.8968 8.00501 30C8.00501 34.1032 9.15593 38.1242 11.327 41.606L6.99998 45.934C3.74798 41.2568 2.00495 35.6966 2.00495 30C2.00495 24.3034 3.74798 18.7431 6.99998 14.066ZM7.69998 53.704C7.60818 53.7976 7.49864 53.872 7.37776 53.9227C7.25688 53.9735 7.12709 53.9996 6.99598 53.9996C6.86487 53.9996 6.73508 53.9735 6.6142 53.9227C6.49332 53.872 6.38377 53.7976 6.29198 53.704C6.11164 53.5137 6.01112 53.2616 6.01112 52.9995C6.01112 52.7374 6.11164 52.4852 6.29198 52.295L8.09998 50.474C8.55665 50.962 9.02898 51.4343 9.51698 51.891L7.69998 53.704ZM14.074 53.004L18.402 48.677C21.8838 50.848 25.9048 51.9989 30.008 51.9989C34.1112 51.9989 38.1322 50.848 41.614 48.677L45.942 53.004C41.2648 56.256 35.7046 57.999 30.008 57.999C24.3114 57.999 18.7511 56.256 14.074 53.004ZM53.712 52.304C53.8056 52.3958 53.88 52.5053 53.9307 52.6262C53.9815 52.7471 54.0076 52.8769 54.0076 53.008C54.0076 53.1391 53.9815 53.2689 53.9307 53.3898C53.88 53.5106 53.8056 53.6202 53.712 53.712C53.5216 53.8921 53.2695 53.9925 53.0075 53.9925C52.7454 53.9925 52.4933 53.8921 52.303 53.712L50.474 51.9C50.962 51.4426 51.4343 50.9703 51.891 50.483L53.712 52.304ZM53.012 45.93L48.685 41.602C50.8567 38.1199 52.0081 34.0983 52.0081 29.9945C52.0081 25.8906 50.8567 21.8691 48.685 18.387L53.015 14.063C56.2666 18.7401 58.0094 24.3001 58.0094 29.9965C58.0094 35.6928 56.2666 41.2529 53.015 45.93H53.012Z" fill="url(#paint0_linear_5930_224)"/>
</g>
<defs>
<linearGradient id="paint0_linear_5930_224" x1="38.7471" y1="-30.6584" x2="38.7428" y2="113.272" gradientUnits="userSpaceOnUse">
<stop stop-color="#1E6BFF"/>
<stop offset="1" stop-color="#6A9CFF"/>
</linearGradient>
<clipPath id="clip0_5930_224">
<rect width="60" height="60" fill="white"/>
</clipPath>
</defs>
</svg>
