<svg width="66" height="66" viewBox="0 0 66 66" fill="none" xmlns="http://www.w3.org/2000/svg">
<g clip-path="url(#clip0_5930_177)">
<path d="M45.8906 30.9697C48.4536 30.9697 50.5312 28.892 50.5312 26.3291C50.5312 23.7662 48.4536 21.6885 45.8906 21.6885C43.3277 21.6885 41.25 23.7662 41.25 26.3291C41.25 28.892 43.3277 30.9697 45.8906 30.9697Z" fill="url(#paint0_linear_5930_177)"/>
<path d="M55.6876 42.2811V39.4411C55.6876 35.7592 53.7515 32.5487 50.8722 30.7979C49.6441 32.1655 47.8691 33.0321 45.8907 33.0321C44.8544 33.0321 43.877 32.7894 43.002 32.3669C45.6707 34.872 47.4703 38.3615 47.8686 42.2811H55.6876Z" fill="url(#paint1_linear_5930_177)"/>
<path d="M20.1094 30.9697C22.6723 30.9697 24.75 28.892 24.75 26.3291C24.75 23.7662 22.6723 21.6885 20.1094 21.6885C17.5464 21.6885 15.4688 23.7662 15.4688 26.3291C15.4688 28.892 17.5464 30.9697 20.1094 30.9697Z" fill="url(#paint2_linear_5930_177)"/>
<path d="M10.3125 39.4411V42.2811H18.1315C18.5295 38.362 20.3292 34.8725 22.9977 32.3669C22.1225 32.7899 21.1452 33.0321 20.1094 33.0321C18.131 33.0321 16.3557 32.1655 15.1276 30.7979C12.2486 32.5487 10.3125 35.7592 10.3125 39.4411Z" fill="url(#paint3_linear_5930_177)"/>
<path d="M33 31.7432C36.4173 31.7432 39.1875 28.9729 39.1875 25.5557C39.1875 22.1384 36.4173 19.3682 33 19.3682C29.5827 19.3682 26.8125 22.1384 26.8125 25.5557C26.8125 28.9729 29.5827 31.7432 33 31.7432Z" fill="url(#paint4_linear_5930_177)"/>
<path d="M45.8906 43.9306C45.8906 38.5246 42.8593 33.8628 38.482 31.7036C37.0228 33.0063 35.1053 33.8059 33 33.8059C30.8947 33.8059 28.977 33.0063 27.5177 31.7036C23.1404 33.8628 20.1094 38.5246 20.1094 43.9306V47.4377H45.8906V43.9306Z" fill="url(#paint5_linear_5930_177)"/>
<path d="M62.5145 30.2975C62.3131 30.0432 62.0019 29.8962 61.6786 29.9068C61.3539 29.9153 61.0522 30.076 60.8644 30.3408L57.9398 34.4658C57.6105 34.9306 57.7203 35.5746 58.1846 35.9039C58.3658 36.0323 58.5743 36.0938 58.7802 36.0938C59.1035 36.0938 59.4213 35.9427 59.6226 35.6592L60.8191 33.9719C60.3045 48.8756 48.0272 60.8438 33 60.8438C19.4064 60.8438 8.06418 51.0494 5.64143 38.1487H3.54443C5.98585 52.2111 18.24 62.9063 33 62.9063C49.1551 62.9063 62.308 50.0977 62.8791 34.0826L64.16 35.7025C64.5136 36.1492 65.1611 36.2247 65.6088 35.8712C66.0554 35.5182 66.1309 34.8697 65.7775 34.4225L62.5145 30.2975Z" fill="url(#paint6_linear_5930_177)"/>
<path d="M0.190164 31.5342L3.11466 35.6592C3.30251 35.9241 3.6041 36.0847 3.92863 36.0932C3.93798 36.0938 3.94679 36.0938 3.95586 36.0938C4.27054 36.0938 4.56888 35.9497 4.76451 35.7025L8.02751 31.5775C8.38097 31.1304 8.30515 30.4818 7.85854 30.1288C7.41137 29.7748 6.76284 29.8509 6.41008 30.2975L5.18547 31.8454C5.79375 17.0262 18.0341 5.15625 33 5.15625C46.5931 5.15625 57.9353 14.9506 60.3584 27.8508H62.4556C60.0139 13.7884 47.7613 3.09375 33 3.09375C16.7866 3.09375 3.59608 15.9975 3.11668 32.0956L1.87243 30.3408C1.54314 29.876 0.899589 29.7663 0.434884 30.0961C-0.029663 30.4254 -0.139435 31.0694 0.190164 31.5342Z" fill="url(#paint7_linear_5930_177)"/>
</g>
<defs>
<linearGradient id="paint0_linear_5930_177" x1="47.2437" y1="16.9469" x2="47.243" y2="39.209" gradientUnits="userSpaceOnUse">
<stop stop-color="#1E6BFF"/>
<stop offset="1" stop-color="#6A9CFF"/>
</linearGradient>
<linearGradient id="paint1_linear_5930_177" x1="51.1941" y1="24.9313" x2="51.1934" y2="52.4751" gradientUnits="userSpaceOnUse">
<stop stop-color="#1E6BFF"/>
<stop offset="1" stop-color="#6A9CFF"/>
</linearGradient>
<linearGradient id="paint2_linear_5930_177" x1="21.4624" y1="16.9469" x2="21.4618" y2="39.209" gradientUnits="userSpaceOnUse">
<stop stop-color="#1E6BFF"/>
<stop offset="1" stop-color="#6A9CFF"/>
</linearGradient>
<linearGradient id="paint3_linear_5930_177" x1="18.5044" y1="24.9313" x2="18.5036" y2="52.4751" gradientUnits="userSpaceOnUse">
<stop stop-color="#1E6BFF"/>
<stop offset="1" stop-color="#6A9CFF"/>
</linearGradient>
<linearGradient id="paint4_linear_5930_177" x1="34.8041" y1="13.0461" x2="34.8032" y2="42.7289" gradientUnits="userSpaceOnUse">
<stop stop-color="#1E6BFF"/>
<stop offset="1" stop-color="#6A9CFF"/>
</linearGradient>
<linearGradient id="paint5_linear_5930_177" x1="36.7585" y1="23.6654" x2="36.7578" y2="61.4054" gradientUnits="userSpaceOnUse">
<stop stop-color="#1E6BFF"/>
<stop offset="1" stop-color="#6A9CFF"/>
</linearGradient>
<linearGradient id="paint6_linear_5930_177" x1="43.8772" y1="13.0473" x2="43.876" y2="92.2015" gradientUnits="userSpaceOnUse">
<stop stop-color="#1E6BFF"/>
<stop offset="1" stop-color="#6A9CFF"/>
</linearGradient>
<linearGradient id="paint7_linear_5930_177" x1="40.3327" y1="-13.7651" x2="40.3315" y2="65.389" gradientUnits="userSpaceOnUse">
<stop stop-color="#1E6BFF"/>
<stop offset="1" stop-color="#6A9CFF"/>
</linearGradient>
<clipPath id="clip0_5930_177">
<rect width="66" height="66" fill="white"/>
</clipPath>
</defs>
</svg>
