<svg width="48" height="43" viewBox="0 0 48 43" fill="none" xmlns="http://www.w3.org/2000/svg">
<path d="M47.07 31.83C46.806 31.566 43.308 28.068 39.546 24.438V14.34C40.008 14.01 40.338 13.548 40.47 13.02C40.602 12.426 40.272 11.766 40.008 11.304C39.942 11.172 39.876 11.04 39.81 10.908L39.744 10.71C39.678 10.578 39.612 10.446 39.546 10.314V2.65798C39.546 1.66798 38.754 0.809985 37.698 0.809985H24.036V0.611985C24.036 0.347985 23.838 0.0839844 23.508 0.0839844H15.39C15.126 0.0839844 14.862 0.281985 14.862 0.545985V0.743984H4.89596C3.90596 0.743984 3.04796 1.53598 3.04796 2.59198V9.45598C2.91596 9.58798 2.71796 9.78598 2.65196 9.98398C1.72796 11.634 2.25596 14.538 2.78396 16.386C2.58596 16.518 2.38796 16.65 2.18996 16.848C1.99196 16.98 0.935961 17.838 1.00196 18.63C1.00196 19.488 1.66196 20.082 2.18996 20.61C2.32196 20.742 2.38796 20.808 2.51996 20.94C2.71796 21.138 2.91596 21.336 3.04796 21.534V29.058C1.52996 32.622 0.209961 36.12 0.209961 37.044C0.209961 37.176 0.27596 37.308 0.40796 37.44C0.53996 37.506 0.671961 37.572 0.803961 37.506L3.83996 36.846L6.54596 42.06C6.61196 42.192 6.80996 42.324 7.00796 42.324H7.07396C7.27196 42.324 7.46996 42.126 7.46996 41.928C7.46996 41.862 7.93196 39.948 8.78996 37.044H16.446V37.11C16.446 37.374 16.644 37.638 16.974 37.638H24.96C25.092 37.638 25.224 37.572 25.29 37.506C25.356 37.44 25.422 37.308 25.422 37.176V37.11H37.698C38.094 37.11 38.49 36.978 38.754 36.78C39.018 37.11 39.348 37.374 39.612 37.704L40.602 38.76C40.668 38.892 40.8 38.892 40.932 38.892C40.998 38.892 41.064 38.892 41.13 38.826C41.328 38.76 41.46 38.562 41.46 38.364V32.952L46.674 32.556C46.872 32.556 47.004 32.424 47.07 32.226C47.202 32.16 47.202 31.962 47.07 31.83ZM23.97 20.016L24.432 36.252V36.846H17.436V36.252V26.286C18.096 18.696 20.802 16.386 21.198 16.056C21.33 16.188 21.396 16.386 21.528 16.518C21.396 16.65 21.066 16.98 20.67 17.508C20.406 17.838 20.142 18.234 19.878 18.762C19.746 19.026 19.614 19.224 19.482 19.488C19.35 19.752 19.284 20.016 19.152 20.28C19.086 20.544 19.02 20.808 18.888 21.072C18.822 21.336 18.756 21.6 18.69 21.864C18.624 22.128 18.624 22.392 18.558 22.656C18.492 22.92 18.558 23.118 18.492 23.316C18.426 23.712 18.492 24.108 18.492 24.372C18.492 24.636 18.492 24.768 18.492 24.768H18.558C18.558 24.768 18.624 24.636 18.69 24.372C18.69 24.24 18.756 24.108 18.756 23.91C18.756 23.712 18.822 23.58 18.888 23.316C18.954 23.118 18.954 22.92 19.02 22.656C19.086 22.458 19.152 22.194 19.218 21.93C19.35 21.468 19.482 20.94 19.68 20.412C19.746 20.148 19.878 19.884 19.944 19.686C20.076 19.422 20.142 19.224 20.274 18.96C20.472 18.498 20.67 18.036 20.868 17.706C21.132 17.178 21.396 16.782 21.462 16.584C22.32 17.706 23.112 18.894 23.97 20.016ZM3.50996 10.578C3.64196 10.314 3.83996 10.116 4.03796 10.05C4.16996 9.98398 4.36796 9.91798 4.56596 9.85198C9.44996 9.05998 13.938 10.38 16.908 11.7C16.776 11.7 16.644 11.766 16.512 11.766L15.654 11.436L15.06 11.172C14.862 11.106 14.664 11.04 14.466 10.974L13.212 10.644C12.816 10.512 12.354 10.512 11.958 10.446L11.298 10.38C11.1 10.38 10.902 10.38 10.638 10.314C10.242 10.314 9.77996 10.248 9.38396 10.314L8.72396 10.38C8.52596 10.38 8.32796 10.446 8.06396 10.446C7.86596 10.512 7.66796 10.512 7.40396 10.578C7.20596 10.644 7.00796 10.644 6.74396 10.71C6.67796 10.776 6.54596 10.842 6.47996 10.908C6.47996 10.908 6.47996 11.04 6.54596 11.172C6.61196 11.304 6.67796 11.304 6.80996 11.37C6.87596 11.436 7.00796 11.436 7.07396 11.502C7.46996 11.634 7.86596 11.7 8.26196 11.766C9.05396 11.898 9.84596 11.898 10.638 11.964V11.898C10.242 11.766 9.84596 11.7 9.44996 11.634C9.05396 11.568 8.65796 11.436 8.32796 11.37C8.06396 11.304 7.79996 11.238 7.53596 11.106C7.60196 11.106 7.60196 11.106 7.66796 11.106C7.79996 11.04 7.99796 11.04 8.19596 11.04C8.39396 11.04 8.59196 10.974 8.78996 10.974H9.38396C9.58196 10.974 9.77996 10.974 9.97796 10.974H10.572C10.968 10.974 11.364 11.04 11.826 11.04C12.222 11.106 12.684 11.106 13.08 11.172C13.476 11.238 13.872 11.304 14.268 11.37C14.664 11.436 15.126 11.568 15.522 11.634C15.72 11.7 15.984 11.766 16.182 11.766C14.862 12.03 13.608 12.36 12.552 12.624C9.77996 13.35 6.67796 14.142 4.03796 15.66C3.90596 15.726 3.77396 15.792 3.64196 15.858C3.17996 14.208 2.84996 11.832 3.50996 10.578ZM15.852 1.79998V1.13998H22.98V1.79998V4.70399C22.98 4.70399 22.914 7.27798 20.472 10.908C19.152 10.512 18.03 10.644 18.03 10.644C17.964 10.644 17.832 10.71 17.766 10.776C16.446 9.05998 15.852 6.88198 15.852 3.91198V1.79998ZM17.634 14.934C17.04 13.482 17.964 12.03 18.36 11.568C18.888 11.568 20.208 11.568 21.396 12.294C21.462 12.294 21.528 12.36 21.594 12.36C21.066 13.086 20.934 14.142 20.868 14.604C20.274 15.264 18.558 15.132 17.634 14.934ZM22.782 11.964C22.716 11.964 22.716 11.964 22.782 11.964C22.716 11.964 22.716 11.898 22.65 11.898L22.584 11.832C23.706 10.71 24.96 9.71998 26.346 8.92798C26.148 9.12598 26.016 9.32399 25.818 9.52199C25.62 9.71999 25.488 9.91798 25.356 10.182C25.224 10.38 25.092 10.644 24.96 10.908L25.026 10.974C25.686 10.182 26.478 9.52198 27.336 8.92798C27.534 8.79598 27.732 8.66398 27.996 8.53198C28.194 8.39998 28.458 8.26798 28.656 8.20198L29.382 7.87198L30.108 7.60798C30.372 7.54198 30.57 7.47598 30.834 7.40998C31.098 7.34398 31.296 7.27798 31.56 7.21198L32.286 7.07998C32.55 7.01398 32.814 7.01399 33.078 7.01399C33.342 7.01399 33.606 6.94798 33.87 6.94798H34.662C34.926 6.94798 35.19 7.01399 35.454 7.01399L36.18 7.07998C36.312 7.14598 36.444 7.34398 36.51 7.47598C36.51 7.54198 36.51 7.67398 36.51 7.73998C36.444 7.80598 36.444 7.87198 36.378 7.93798C36.312 8.00398 36.246 8.06998 36.18 8.13598C36.114 8.20198 36.048 8.26798 35.916 8.26798C35.718 8.39998 35.586 8.46598 35.388 8.53198C35.19 8.59798 34.992 8.66398 34.794 8.72998C34.596 8.79598 34.398 8.86198 34.2 8.92798C33.804 9.05998 33.408 9.12598 33.012 9.25798V9.32399C33.408 9.32399 33.87 9.32398 34.266 9.25798C34.464 9.25798 34.662 9.19199 34.926 9.19199C35.124 9.12599 35.322 9.12598 35.586 9.05998C35.784 8.99398 35.982 8.92798 36.246 8.86198C36.378 8.79598 36.444 8.79599 36.576 8.66399C36.708 8.59799 36.774 8.53198 36.906 8.39998C36.972 8.33398 37.038 8.26798 37.104 8.20198C37.17 8.13598 37.236 8.00398 37.236 7.93798C37.302 7.73998 37.368 7.47598 37.302 7.21198C37.236 7.01398 37.17 6.88199 37.038 6.68399C37.368 6.94799 37.566 7.47599 37.698 8.00399L37.764 8.33399C37.962 9.05999 38.292 9.71998 38.556 10.38C38.622 10.578 38.754 10.776 38.82 10.974L38.886 11.172C38.952 11.304 39.018 11.436 39.084 11.634C39.282 11.964 39.48 12.426 39.414 12.624C39.282 13.02 38.952 13.416 38.49 13.68C37.962 14.01 37.302 14.274 36.708 14.406C36.642 14.406 31.692 15.66 28.458 15C27.006 14.208 24.96 13.02 22.782 11.964ZM2.84996 19.95C2.45396 19.554 1.99196 19.092 1.92596 18.696C1.92596 18.564 2.32196 18.036 2.78396 17.706C2.84996 17.64 2.98196 17.574 3.04796 17.508L3.11396 17.442C3.37796 17.244 3.64196 17.046 3.90596 16.848C3.90596 16.848 3.97196 16.848 3.97196 16.782C6.61196 15.198 9.84596 14.34 12.75 13.548C13.872 13.284 15.192 12.954 16.578 12.69C16.314 13.548 16.248 14.538 16.776 15.594C16.842 15.726 16.974 15.792 17.106 15.858C15.522 16.386 14.268 17.376 13.41 18.63C13.212 18.96 13.014 19.29 12.816 19.686C12.486 20.346 12.09 21.006 11.628 21.534C11.034 22.128 10.308 22.524 9.51596 22.986C9.25196 23.118 9.05396 23.25 8.78996 23.382C8.65796 23.448 8.52596 23.514 8.39396 23.58C7.86596 23.91 7.40396 24.174 6.87596 24.24C6.61196 24.24 6.41396 24.174 6.21596 24.042C5.95196 23.844 5.75396 23.58 5.48996 23.25C5.42396 23.184 5.35796 23.052 5.29196 22.986L5.09396 22.722C4.69796 22.194 4.30196 21.732 3.90596 21.27C3.64196 20.94 3.37796 20.61 3.04796 20.346C2.98196 20.28 2.91596 20.28 2.91596 20.214C2.98196 20.082 2.91596 20.016 2.84996 19.95ZM6.80996 40.542L5.09396 37.176L4.56596 36.12L4.49996 36.054C4.43396 35.988 4.36796 35.922 4.30196 35.922C4.23596 35.922 4.10396 35.856 4.03796 35.922L3.17996 36.054L1.33196 36.45C1.59596 35.526 2.25596 33.744 3.04796 31.698C3.37796 30.972 3.70796 30.114 4.03796 29.322C4.63196 27.87 5.29196 26.352 5.95196 24.9C6.21596 25.098 6.61196 25.164 7.00796 25.164H7.07396C7.86596 25.164 8.52596 24.702 9.05396 24.372C9.18596 24.306 9.31796 24.24 9.38396 24.174C9.58196 24.042 9.84596 23.91 10.11 23.778C10.902 23.316 11.76 22.854 12.42 22.194C13.014 21.6 13.41 20.874 13.806 20.148C14.004 19.818 14.136 19.488 14.334 19.158C14.928 18.234 15.786 17.508 16.842 17.046C12.684 22.326 9.71396 30.642 7.99796 36.186C7.86596 36.516 7.79996 36.846 7.73396 37.176C7.33796 38.562 7.00796 39.75 6.80996 40.542ZM40.932 32.16C40.668 32.16 40.47 32.424 40.47 32.622V37.242L40.338 37.11C40.008 36.78 39.678 36.45 39.414 36.12C39.15 35.79 38.82 35.526 38.556 35.196C37.764 34.404 37.038 33.546 36.246 32.754C34.2 30.576 32.088 28.398 30.042 26.154C26.94 22.722 24.234 18.828 21.726 15.132C21.792 15.066 21.792 15 21.792 14.934C21.792 14.274 22.056 13.35 22.386 12.954C27.072 15.198 30.768 17.904 30.768 17.97C32.418 19.224 35.52 22.062 38.556 24.966C38.886 25.296 39.216 25.626 39.546 25.89C42.12 28.332 44.43 30.642 45.618 31.83L40.932 32.16Z" fill="url(#paint0_linear_5930_199)"/>
<path d="M30.108 10.908C30.306 10.842 30.57 10.7761 30.768 10.6441C30.966 10.5781 31.164 10.446 31.362 10.446C32.088 10.182 32.55 9.91805 32.55 9.91805V9.85205C32.55 9.85205 32.022 9.85205 31.23 9.91805C30.834 9.98405 30.372 10.116 29.91 10.248C29.448 10.38 28.986 10.644 28.524 10.908C28.26 11.04 28.062 11.172 27.798 11.238C27.6 11.37 27.336 11.502 27.138 11.568C26.742 11.832 26.346 12.0301 26.016 12.2941C25.356 12.6901 24.96 13.02 24.96 13.02L25.026 13.086C25.026 13.086 25.488 12.822 26.148 12.492C26.478 12.294 26.94 12.1621 27.336 11.9641C27.534 11.8981 27.798 11.766 27.996 11.7C28.26 11.634 28.458 11.502 28.722 11.436C29.184 11.238 29.646 11.04 30.108 10.908Z" fill="url(#paint1_linear_5930_199)"/>
<defs>
<linearGradient id="paint0_linear_5930_199" x1="30.5353" y1="-21.4954" x2="30.5325" y2="79.8218" gradientUnits="userSpaceOnUse">
<stop stop-color="#1E6BFF"/>
<stop offset="1" stop-color="#6A9CFF"/>
</linearGradient>
<linearGradient id="paint1_linear_5930_199" x1="29.8614" y1="8.19988" x2="29.8614" y2="15.957" gradientUnits="userSpaceOnUse">
<stop stop-color="#1E6BFF"/>
<stop offset="1" stop-color="#6A9CFF"/>
</linearGradient>
</defs>
</svg>
