<svg width="54" height="48" viewBox="0 0 54 48" fill="none" xmlns="http://www.w3.org/2000/svg">
<path d="M46.3674 14.9932C50.4924 14.9932 53.8487 11.6368 53.8487 7.51185C53.8487 3.38616 50.4924 0.0297852 46.3674 0.0297852C42.2417 0.0297852 38.8846 3.38616 38.8846 7.51185C38.8846 8.21379 38.9932 8.89853 39.1864 9.56472L23.9996 17.1575C21.6504 13.3831 17.5797 11.0848 13.0669 11.0848C5.94513 11.0848 0.150879 16.879 0.150879 24.0002C0.150879 31.1206 5.94513 36.9155 13.0663 36.9155C17.579 36.9155 21.6504 34.6172 23.9996 30.8422L39.1864 38.4349C38.9946 39.1011 38.8853 39.7858 38.8853 40.4878C38.8853 44.6128 42.2424 47.9698 46.3681 47.9698C50.4924 47.9698 53.8481 44.6128 53.8481 40.4878C53.8481 36.3614 50.4924 33.0043 46.3681 33.0043C46.3619 33.0043 46.355 33.0071 46.3502 33.0071C43.9797 33.0126 41.8168 34.1284 40.4219 35.9764L25.2089 28.3706C25.7211 26.966 25.9823 25.5017 25.9823 24.0002C25.9823 22.498 25.7211 21.0336 25.2089 19.6283L40.4074 12.0294C41.8044 13.885 43.9859 14.9932 46.3674 14.9932ZM46.3674 2.78047C48.9764 2.78047 51.0987 4.90347 51.0987 7.51253C51.0987 10.1216 48.9764 12.2439 46.3674 12.2439C44.5675 12.2439 42.9478 11.2408 42.1413 9.62591C42.1399 9.62247 42.1372 9.61903 42.1358 9.6156C41.8044 8.94872 41.6346 8.24197 41.6346 7.51185C41.6346 4.90347 43.7576 2.78047 46.3674 2.78047ZM13.0663 34.1655C7.46106 34.1655 2.90088 29.6047 2.90088 24.0002C2.90088 18.395 7.46106 13.8348 13.0663 13.8348C16.9843 13.8348 20.4851 16.0327 22.2045 19.5727C22.2045 19.5733 22.2045 19.574 22.2052 19.5747C22.8865 20.9765 23.2316 22.4657 23.2316 24.0008C23.2316 25.536 22.8865 27.0238 22.2059 28.4263C22.2059 28.4277 22.2052 28.4277 22.2052 28.429C20.4858 31.9669 16.985 34.1655 13.0663 34.1655ZM46.3674 35.7564C46.3694 35.7564 46.3708 35.7564 46.3722 35.7564C48.9799 35.7578 51.0987 37.8808 51.0987 40.4885C51.0987 43.0975 48.9771 45.2212 46.3687 45.2212C43.759 45.2212 41.636 43.0975 41.636 40.4885C41.636 39.7542 41.8051 39.0427 42.1393 38.3778C42.1393 38.3772 42.1406 38.3765 42.1406 38.3758C42.1406 38.3751 42.1406 38.3751 42.1406 38.3744C42.9512 36.7595 44.5702 35.7564 46.3674 35.7564Z" fill="url(#paint0_linear_5930_176)"/>
<defs>
<linearGradient id="paint0_linear_5930_176" x1="34.828" y1="-24.4616" x2="34.825" y2="90.5278" gradientUnits="userSpaceOnUse">
<stop stop-color="#1E6BFF"/>
<stop offset="1" stop-color="#6A9CFF"/>
</linearGradient>
</defs>
</svg>
