<svg width="295" height="120" viewBox="0 0 295 120" fill="none" xmlns="http://www.w3.org/2000/svg">
<g filter="url(#filter0_d_8732_2285)">
<rect x="28" y="28" width="239" height="64" rx="10" fill="white"/>
</g>
<rect x="45" y="36" width="109" height="4" rx="2" fill="url(#paint0_linear_8732_2285)"/>
<rect x="220" y="52" width="39" height="16" rx="4" fill="url(#paint1_linear_8732_2285)"/>
<rect opacity="0.5" x="45.4785" y="44.957" width="52.5652" height="3.95652" rx="1.97826" fill="url(#paint2_linear_8732_2285)"/>
<rect opacity="0.5" x="45" y="54" width="81" height="4" rx="2" fill="url(#paint3_linear_8732_2285)"/>
<g clip-path="url(#clip0_8732_2285)">
<path d="M45 74.4493C45 68.126 50.126 63 56.4493 63V63C62.7725 63 67.8986 68.126 67.8986 74.4493V74.4493C67.8986 80.7725 62.7725 85.8986 56.4493 85.8986V85.8986C50.126 85.8986 45 80.7725 45 74.4493V74.4493Z" fill="url(#paint4_linear_8732_2285)"/>
<path d="M63.4719 80.9372C64.0317 82.0058 64.3116 85.8986 64.3116 85.8986H48.5879C48.5879 85.8986 48.8678 82.0058 49.4275 80.9372C50.2671 79.3343 56.4497 77.2734 56.4497 77.2734C56.4497 77.2734 62.6323 79.3343 63.4719 80.9372Z" fill="url(#paint5_linear_8732_2285)"/>
<path d="M56.1445 84.0664C56.1445 84.0061 56.1624 83.947 56.196 83.8968C56.2295 83.8466 56.2772 83.8075 56.333 83.7844C56.3888 83.7613 56.4502 83.7552 56.5094 83.767C56.5686 83.7788 56.623 83.8079 56.6657 83.8506C56.7084 83.8933 56.7375 83.9477 56.7493 84.0069C56.7611 84.0661 56.755 84.1275 56.7319 84.1833C56.7088 84.2391 56.6697 84.2868 56.6195 84.3203C56.5693 84.3539 56.5102 84.3718 56.4498 84.3718C56.3689 84.3718 56.2912 84.3396 56.234 84.2823C56.1767 84.2251 56.1445 84.1474 56.1445 84.0664ZM56.1445 82.5399C56.1445 82.4795 56.1624 82.4205 56.196 82.3703C56.2295 82.3201 56.2772 82.2809 56.333 82.2578C56.3888 82.2347 56.4502 82.2287 56.5094 82.2404C56.5686 82.2522 56.623 82.2813 56.6657 82.324C56.7084 82.3667 56.7375 82.4211 56.7493 82.4803C56.7611 82.5395 56.755 82.6009 56.7319 82.6567C56.7088 82.7125 56.6697 82.7602 56.6195 82.7937C56.5693 82.8273 56.5102 82.8452 56.4498 82.8452C56.3689 82.8452 56.2912 82.813 56.234 82.7558C56.1767 82.6985 56.1445 82.6209 56.1445 82.5399ZM56.1445 81.0133C56.1445 80.9529 56.1624 80.8939 56.196 80.8437C56.2295 80.7935 56.2772 80.7544 56.333 80.7312C56.3888 80.7081 56.4502 80.7021 56.5094 80.7139C56.5686 80.7257 56.623 80.7547 56.6657 80.7974C56.7084 80.8401 56.7375 80.8945 56.7493 80.9538C56.7611 81.013 56.755 81.0744 56.7319 81.1302C56.7088 81.1859 56.6697 81.2336 56.6195 81.2672C56.5693 81.3007 56.5102 81.3186 56.4498 81.3186C56.3689 81.3186 56.2912 81.2865 56.234 81.2292C56.1767 81.172 56.1445 81.0943 56.1445 81.0133Z" fill="white"/>
<path d="M62.9731 76.3886L50.573 74.89C49.9617 71.6446 50.6868 69.5999 52.7484 68.7557C53.7014 65.6331 57.4108 65.8871 58.4622 66.1416C62.0401 67.008 63.5438 70.4237 62.9731 76.3886Z" fill="url(#paint6_linear_8732_2285)"/>
<path d="M54.6182 78.1896V73.6098C52.7084 73.5813 53.0809 70.2718 54.9998 71.2818C55.3433 71.4345 56.2211 71.0147 55.9158 69.9842C57.9766 71.5108 60.8484 68.8317 61.0298 70.4804C61.3866 73.7252 60.6962 76.3922 58.8653 76.3923C58.6702 76.3998 58.4748 76.3882 58.282 76.3577V78.1896C57.6843 78.5458 57.0867 78.7239 56.489 78.7239C55.8913 78.7239 55.2677 78.5458 54.6182 78.1896Z" fill="#FFDBC9"/>
<path d="M58.2809 76.3576V76.9682C57.1359 76.9682 56.2454 76.4212 55.6094 75.3271C56.3727 75.836 57.2632 76.1795 58.2809 76.3576Z" fill="#FFBC9E"/>
<path d="M56.4468 78.6454C56.9689 78.6205 58.2812 78.3503 58.2812 77.7665V77.2734C58.4212 77.2734 58.822 77.6041 59.0281 77.8841C59.843 78.9908 58.9391 79.9831 58.2019 79.9831C57.2718 79.9831 56.6554 79.2059 56.4493 78.8321C56.2432 79.2061 55.6268 79.9831 54.6966 79.9831C53.9595 79.9831 53.0556 78.9908 53.8705 77.8841C54.0766 77.6041 54.4774 77.2734 54.6174 77.2734V77.7665C54.6174 78.3503 55.8952 78.6205 56.4468 78.6454Z" fill="white"/>
</g>
<path d="M263.5 44C270.956 44 277 37.9558 277 30.5C277 23.0442 270.956 17 263.5 17C256.044 17 250 23.0442 250 30.5C250 37.9558 256.044 44 263.5 44Z" fill="#E0F1E4"/>
<path d="M271.073 31.4679H255.851C255.574 31.4679 255.307 31.3581 255.111 31.1624C254.915 30.9668 254.805 30.7015 254.805 30.4249C254.805 30.1483 254.915 29.8829 255.111 29.6873C255.307 29.4917 255.574 29.3818 255.851 29.3818H271.073C271.35 29.3818 271.616 29.4917 271.812 29.6873C272.009 29.8829 272.119 30.1483 272.119 30.4249C272.119 30.7015 272.009 30.9668 271.812 31.1624C271.616 31.3581 271.35 31.4679 271.073 31.4679Z" fill="#489E89"/>
<path d="M263.46 39.054C263.183 39.054 262.917 38.9441 262.721 38.7485C262.524 38.5529 262.414 38.2875 262.414 38.0109V22.838C262.414 22.5613 262.524 22.296 262.721 22.1004C262.917 21.9048 263.183 21.7949 263.46 21.7949C263.738 21.7949 264.004 21.9048 264.2 22.1004C264.397 22.296 264.507 22.5613 264.507 22.838V38.0109C264.507 38.2875 264.397 38.5529 264.2 38.7485C264.004 38.9441 263.738 39.054 263.46 39.054Z" fill="#489E89"/>
<defs>
<filter id="filter0_d_8732_2285" x="0" y="0" width="295" height="120" filterUnits="userSpaceOnUse" color-interpolation-filters="sRGB">
<feFlood flood-opacity="0" result="BackgroundImageFix"/>
<feColorMatrix in="SourceAlpha" type="matrix" values="0 0 0 0 0 0 0 0 0 0 0 0 0 0 0 0 0 0 127 0" result="hardAlpha"/>
<feMorphology radius="4" operator="dilate" in="SourceAlpha" result="effect1_dropShadow_8732_2285"/>
<feOffset/>
<feGaussianBlur stdDeviation="12"/>
<feComposite in2="hardAlpha" operator="out"/>
<feColorMatrix type="matrix" values="0 0 0 0 0.282353 0 0 0 0 0.290196 0 0 0 0 0.619608 0 0 0 0.08 0"/>
<feBlend mode="normal" in2="BackgroundImageFix" result="effect1_dropShadow_8732_2285"/>
<feBlend mode="normal" in="SourceGraphic" in2="effect1_dropShadow_8732_2285" result="shape"/>
</filter>
<linearGradient id="paint0_linear_8732_2285" x1="46.2601" y1="37.8125" x2="146.474" y2="65.8751" gradientUnits="userSpaceOnUse">
<stop stop-color="#F9F7C6"/>
<stop offset="1" stop-color="#E8FCDB"/>
</linearGradient>
<linearGradient id="paint1_linear_8732_2285" x1="220.451" y1="59.25" x2="259.095" y2="60.218" gradientUnits="userSpaceOnUse">
<stop stop-color="#FFE5F2"/>
<stop offset="1" stop-color="#FEEADC"/>
</linearGradient>
<linearGradient id="paint2_linear_8732_2285" x1="46.0862" y1="46.7498" x2="97.2504" y2="53.7351" gradientUnits="userSpaceOnUse">
<stop stop-color="#F9F7C6"/>
<stop offset="1" stop-color="#E8FCDB"/>
</linearGradient>
<linearGradient id="paint3_linear_8732_2285" x1="45.9364" y1="55.8125" x2="122.914" y2="71.8309" gradientUnits="userSpaceOnUse">
<stop stop-color="#F9F7C6"/>
<stop offset="1" stop-color="#E8FCDB"/>
</linearGradient>
<linearGradient id="paint4_linear_8732_2285" x1="56.4493" y1="63" x2="56.4493" y2="85.8986" gradientUnits="userSpaceOnUse">
<stop stop-color="#EAEAEA"/>
<stop offset="1" stop-color="#ECECEC"/>
</linearGradient>
<linearGradient id="paint5_linear_8732_2285" x1="48.5879" y1="81.586" x2="64.3116" y2="81.586" gradientUnits="userSpaceOnUse">
<stop stop-color="#606C88"/>
<stop offset="1" stop-color="#3F4C6B"/>
</linearGradient>
<linearGradient id="paint6_linear_8732_2285" x1="56.7271" y1="76.3886" x2="56.7271" y2="66.002" gradientUnits="userSpaceOnUse">
<stop/>
<stop offset="1"/>
</linearGradient>
<clipPath id="clip0_8732_2285">
<path d="M45 74.4493C45 68.126 50.126 63 56.4493 63V63C62.7725 63 67.8986 68.126 67.8986 74.4493V74.4493C67.8986 80.7725 62.7725 85.8986 56.4493 85.8986V85.8986C50.126 85.8986 45 80.7725 45 74.4493V74.4493Z" fill="white"/>
</clipPath>
</defs>
</svg>
