<svg width="17" height="23" viewBox="0 0 17 23" fill="none" xmlns="http://www.w3.org/2000/svg">
<path d="M16.25 2.39418V22.1462C16.2504 22.2615 16.2178 22.3745 16.1561 22.472C16.0944 22.5695 16.006 22.6475 15.9014 22.6969C15.8215 22.73 15.7356 22.7463 15.649 22.7448C15.504 22.7445 15.3637 22.6937 15.2524 22.6011L8.12501 16.4121L0.997618 22.6011C0.91047 22.6774 0.803024 22.7269 0.688248 22.7437C0.573471 22.7604 0.456272 22.7438 0.350795 22.6957C0.245317 22.6476 0.156071 22.5701 0.0938281 22.4726C0.0315852 22.3751 -0.000994053 22.2617 2.31104e-05 22.1462V2.39418C0.00192542 1.75979 0.255798 1.15192 0.706194 0.703333C1.15659 0.254747 1.76691 0.00189467 2.40387 0H13.8462C14.4831 0.00189467 15.0934 0.254747 15.5438 0.703333C15.9942 1.15192 16.2481 1.75979 16.25 2.39418Z" fill="#484A9E"/>
</svg>
