<svg width="18" height="24" viewBox="0 0 18 24" fill="none" xmlns="http://www.w3.org/2000/svg">
<path d="M14.6144 0.625H3.3125C2.66603 0.625 2.04605 0.881807 1.58893 1.33893C1.13181 1.79605 0.875 2.41603 0.875 3.0625V22.5625C0.875392 22.7095 0.915649 22.8536 0.991483 22.9795C1.06732 23.1054 1.17589 23.2084 1.30563 23.2775C1.43268 23.3427 1.57468 23.3733 1.71733 23.3662C1.85997 23.3591 1.99821 23.3145 2.11813 23.2369L9 18.6625L15.8656 23.2369C15.9878 23.3174 16.1295 23.3633 16.2757 23.37C16.4218 23.3766 16.5671 23.3437 16.6961 23.2746C16.8251 23.2055 16.933 23.1029 17.0085 22.9776C17.084 22.8522 17.1242 22.7088 17.125 22.5625V3.13563C17.125 2.46977 16.8605 1.83118 16.3897 1.36035C15.9188 0.889512 15.2802 0.625 14.6144 0.625ZM15.5 21.0431L9.44687 16.9806C9.31421 16.8933 9.15885 16.8467 9 16.8467C8.84115 16.8467 8.68579 16.8933 8.55312 16.9806L2.5 21.0431V3.0625C2.5 2.84701 2.5856 2.64035 2.73798 2.48798C2.89035 2.3356 3.09701 2.25 3.3125 2.25H14.6062C14.7232 2.24893 14.8393 2.27104 14.9477 2.31507C15.056 2.35909 15.1546 2.42416 15.2377 2.5065C15.3208 2.58885 15.3868 2.68684 15.4318 2.79482C15.4768 2.90281 15.5 3.01864 15.5 3.13563V21.0431Z" fill="black"/>
</svg>
