<svg width="16" height="18" viewBox="0 0 16 18" fill="none" xmlns="http://www.w3.org/2000/svg">
<path d="M15.6611 4.71517C15.6556 4.69109 15.6485 4.66741 15.6398 4.64429C15.6356 4.63304 15.6338 4.62104 15.6289 4.61017C15.6181 4.58543 15.6056 4.56149 15.5914 4.53854C15.5865 4.53029 15.5828 4.52129 15.5775 4.51342C15.5572 4.48295 15.534 4.45457 15.5081 4.42867L11.4311 0.352041C11.4052 0.326185 11.3769 0.302947 11.3464 0.282665C11.3385 0.277415 11.3295 0.273665 11.3213 0.26879C11.2983 0.254604 11.2744 0.242072 11.2496 0.23129C11.2388 0.226415 11.2268 0.224541 11.2155 0.220416C11.1576 0.197846 11.0958 0.186642 11.0336 0.187415H2.38989C1.8431 0.18811 1.3189 0.405632 0.932252 0.792275C0.545609 1.17892 0.328087 1.70312 0.327393 2.24992V15.7499C0.328087 16.2967 0.545609 16.8209 0.932252 17.2076C1.3189 17.5942 1.8431 17.8117 2.38989 17.8124H13.6099C14.1567 17.8117 14.6809 17.5942 15.0675 17.2076C15.4542 16.8209 15.6717 16.2967 15.6724 15.7499V4.82617C15.6724 4.78888 15.6686 4.75169 15.6611 4.71517ZM11.5961 2.10779L13.752 4.26367H12.5336C12.285 4.26367 12.0465 4.16489 11.8707 3.98908C11.6949 3.81326 11.5961 3.57481 11.5961 3.32617V2.10779ZM13.6099 16.6874H2.38989C2.14125 16.6874 1.9028 16.5886 1.72698 16.4128C1.55116 16.237 1.45239 15.9986 1.45239 15.7499V2.24992C1.45239 2.00128 1.55116 1.76282 1.72698 1.587C1.9028 1.41119 2.14125 1.31242 2.38989 1.31242H10.4711V3.32617C10.4718 3.87296 10.6894 4.39716 11.076 4.78381C11.4626 5.17045 11.9868 5.38797 12.5336 5.38867H14.5474V15.7499C14.5474 15.9986 14.4486 16.237 14.2728 16.4128C14.097 16.5886 13.8585 16.6874 13.6099 16.6874Z" fill="black"/>
</svg>
