<svg width="16" height="18" viewBox="0 0 16 18" fill="none" xmlns="http://www.w3.org/2000/svg">
<path d="M15.6724 5.38875V15.75C15.6714 16.2967 15.4538 16.8207 15.0672 17.2073C14.6806 17.5939 14.1566 17.8115 13.6099 17.8125H2.38989C1.84319 17.8115 1.31916 17.5939 0.93258 17.2073C0.546001 16.8207 0.328384 16.2967 0.327393 15.75V2.25C0.328384 1.7033 0.546001 1.17927 0.93258 0.792687C1.31916 0.406108 1.84319 0.188491 2.38989 0.1875H10.4711V3.32625C10.4721 3.87295 10.6897 4.39698 11.0763 4.78356C11.4629 5.17014 11.9869 5.38776 12.5336 5.38875H15.6724ZM12.5336 4.26375H15.3424L11.5961 0.5175V3.32625C11.5961 3.57489 11.6949 3.81335 11.8707 3.98916C12.0465 4.16498 12.285 4.26375 12.5336 4.26375Z" fill="#484A9E"/>
</svg>
