<svg width="24" height="22" viewBox="0 0 24 22" fill="none" xmlns="http://www.w3.org/2000/svg">
<path d="M22.9767 8.54452L13.1416 1.10696C12.8125 0.85951 12.4118 0.725708 12 0.725708C11.5881 0.725708 11.1875 0.85951 10.8583 1.10696L1.02331 8.54456C0.895859 8.64095 0.801908 8.77493 0.754718 8.92758C0.707528 9.08024 0.709483 9.24387 0.760308 9.39536C0.811133 9.54684 0.908259 9.67854 1.03797 9.77185C1.16769 9.86516 1.32343 9.91536 1.48322 9.91537H3.04322V19.3815C3.0438 19.8834 3.2434 20.3645 3.59825 20.7193C3.95309 21.0742 4.4342 21.2738 4.93603 21.2744H9.17443C9.30173 21.2744 9.42382 21.2238 9.51384 21.1338C9.60385 21.0438 9.65443 20.9217 9.65443 20.7944V16.556C9.65443 15.9339 9.90155 15.3372 10.3414 14.8974C10.7813 14.4575 11.3779 14.2103 12 14.2103C12.6221 14.2103 13.2188 14.4575 13.6586 14.8974C14.0985 15.3372 14.3457 15.9339 14.3457 16.556V20.7944C14.3457 20.9217 14.3962 21.0438 14.4862 21.1338C14.5763 21.2238 14.6984 21.2744 14.8257 21.2744H19.0641C19.5659 21.2738 20.047 21.0742 20.4018 20.7193C20.7566 20.3645 20.9562 19.8834 20.9568 19.3815V9.91537H22.5168C22.6766 9.91534 22.8323 9.86512 22.962 9.77181C23.0918 9.67849 23.1889 9.54679 23.2397 9.3953C23.2905 9.24381 23.2924 9.08018 23.2452 8.92753C23.1981 8.77487 23.1041 8.64089 22.9767 8.54452H22.9767ZM20.4768 8.95537C20.3495 8.95537 20.2274 9.00594 20.1374 9.09596C20.0474 9.18598 19.9968 9.30807 19.9968 9.43537V19.3815C19.9966 19.6289 19.8982 19.866 19.7233 20.0409C19.5484 20.2158 19.3113 20.3141 19.064 20.3144H15.3056V16.556C15.3056 15.6793 14.9573 14.8385 14.3374 14.2185C13.7175 13.5986 12.8767 13.2503 12 13.2503C11.1233 13.2503 10.2825 13.5986 9.66257 14.2185C9.04265 14.8385 8.69438 15.6793 8.69438 16.556V20.3144H4.93598C4.68867 20.3141 4.45158 20.2157 4.27671 20.0408C4.10184 19.866 4.00348 19.6289 4.00322 19.3815V9.43537C4.00322 9.30807 3.95265 9.18598 3.86263 9.09596C3.77261 9.00594 3.65052 8.95537 3.52322 8.95537H2.07153L11.4373 1.87266C11.5995 1.7507 11.797 1.68476 12 1.68476C12.203 1.68476 12.4005 1.7507 12.5627 1.87266L21.9286 8.95537H20.4768Z" fill="black"/>
</svg>
