<svg width="24" height="24" viewBox="0 0 24 24" fill="none" xmlns="http://www.w3.org/2000/svg">
<path d="M11.9856 -0.000371002C11.7258 0.00377147 11.4778 0.108842 11.2942 0.292599L0.293904 11.2926C0.154128 11.4325 0.0589524 11.6106 0.0204064 11.8046C-0.0181396 11.9985 0.00167381 12.1995 0.0773427 12.3822C0.153012 12.5649 0.281139 12.7211 0.445534 12.831C0.609928 12.9409 0.80321 12.9996 1.00095 12.9996H3.001V13.9996V20.9996C3.001 22.6443 4.35633 23.9996 6.00107 23.9996H8.00894C8.00479 23.9568 8.00284 23.9138 8.00308 23.8707V17.1266C8.00216 16.8283 8.10658 16.5418 8.29337 16.3302C8.48016 16.1185 8.73404 15.9989 8.99919 15.9977H15.0013C15.2664 15.9989 15.5203 16.1185 15.7071 16.3302C15.8939 16.5418 15.9983 16.8283 15.9974 17.1266V23.8707C15.997 23.9138 15.9944 23.9569 15.9896 23.9996H18.0014C19.647 23.9996 21.0864 22.652 20.9995 20.9488L21.0014 20.9996V13.9996V12.9996H23.0015C23.1992 12.9996 23.3925 12.9409 23.5569 12.831C23.7213 12.7211 23.8494 12.5649 23.9251 12.3822C24.0008 12.1995 24.0206 11.9985 23.982 11.8046C23.9435 11.6106 23.8483 11.4325 23.7085 11.2926L12.7083 0.292598C12.6136 0.197858 12.5008 0.123106 12.3767 0.0727793C12.2525 0.0224529 12.1195 -0.00242225 11.9856 -0.000371002ZM14.0013 18.2477V22.7496H14.0052V18.2477H14.0013Z" fill="#484A9E"/>
</svg>
