<svg width="38" height="38" viewBox="0 0 38 38" fill="none" xmlns="http://www.w3.org/2000/svg">
<path fill-rule="evenodd" clip-rule="evenodd" d="M19.4885 0C18.1078 0 16.9885 1.11929 16.9885 2.5V16.0859H2.5C1.11929 16.0859 0 17.2052 0 18.5859C0 19.9667 1.11929 21.0859 2.5 21.0859H16.9885V35.5C16.9885 36.8807 18.1078 38 19.4885 38C20.8692 38 21.9885 36.8807 21.9885 35.5V21.0859H35.5C36.8807 21.0859 38 19.9667 38 18.5859C38 17.2052 36.8807 16.0859 35.5 16.0859H21.9885V2.5C21.9885 1.11929 20.8692 0 19.4885 0Z" fill="black"/>
</svg>
