<svg width="332" height="241" viewBox="0 0 332 241" fill="none" xmlns="http://www.w3.org/2000/svg">
<g filter="url(#filter0_d_6534_696)">
<rect x="28" y="28" width="275.662" height="185" rx="10" fill="white"/>
</g>
<path opacity="0.8" d="M28 38C28 32.4772 32.4772 28 38 28H293.662C299.185 28 303.662 32.4772 303.662 38V52.5033H28V38Z" fill="url(#paint0_linear_6534_696)"/>
<path d="M189.723 64.1423H282.223" stroke="white"/>
<g clip-path="url(#clip0_6534_696)">
<path d="M53 174.5C53 164.283 61.2827 156 71.5 156V156C81.7173 156 90 164.283 90 174.5V174.5C90 184.717 81.7173 193 71.5 193V193C61.2827 193 53 184.717 53 174.5V174.5Z" fill="url(#paint1_linear_6534_696)"/>
<path d="M75.4471 177.707V180.482C75.4471 181.016 67.5538 180.836 67.5538 180.066C67.5538 179.341 67.5686 176.054 67.5538 172.673C65.7861 170.382 65.7861 168.95 67.1838 167.47C68.5814 165.99 78.5304 165.25 78.5304 165.25C78.5304 165.25 79.2768 172.429 79.3938 174.377C79.4408 175.16 79.9488 177.707 77.9754 177.707H75.4471Z" fill="url(#paint2_linear_6534_696)"/>
<g style="mix-blend-mode:multiply">
<path d="M75.4442 177.47C73.8373 177.294 72.2843 176.787 70.8838 175.98C70.8838 175.98 71.8705 178.323 75.4442 178.959V177.47Z" fill="#FFD7B8"/>
</g>
<path d="M84.4502 186.008C85.233 187.599 85.8496 190.231 86.3002 193.901H56.7002C57.1509 190.23 57.7676 187.599 58.5502 186.008C59.3302 184.422 66.5669 181.369 66.5669 181.369C66.5669 181.369 66.7109 179.974 67.0602 179.774C67.4095 179.574 75.5242 179.574 75.9402 179.774C76.3562 179.974 76.4335 181.369 76.4335 181.369C76.4335 181.369 83.6717 184.425 84.4502 186.008Z" fill="url(#paint3_linear_6534_696)"/>
<path d="M69.1589 168.975C68.7667 168.639 68.2901 168.412 67.6165 168.762C66.0194 169.591 67.0794 172.79 68.8666 172.728C69.4832 172.706 69.2006 173.935 67.5531 174.747C67.5531 173.452 65.5797 170.245 65.4071 167.325C63.4214 166.586 63.9147 163.628 65.278 163.628C65.0604 160.915 69.4031 159.515 71.0846 161.071C72.7947 159.021 77.1114 160.07 77.372 161.848C80.3403 160.263 82.2914 164.818 79.5121 166.586C78.3684 167.314 75.6931 167.591 71.8311 167.591C69.9779 167.591 71.0437 171.928 71.6231 173.328C72.3631 175.117 76.4947 175.363 77.7897 175.178C78.8011 175.034 79.3314 174.623 79.3931 174.377C80.3181 176.843 79.1464 178.323 77.2964 178.323C74.1514 178.323 71.0064 177.398 70.5131 175.117C70.1204 173.301 70.142 170.37 69.1589 168.975Z" fill="url(#paint4_linear_6534_696)"/>
</g>
<rect x="53" y="71" width="152" height="17" rx="2" fill="url(#paint5_linear_6534_696)"/>
<rect opacity="0.5" x="53" y="100" width="99" height="7" rx="2" fill="url(#paint6_linear_6534_696)"/>
<rect opacity="0.5" x="53" y="117" width="70" height="7" rx="2" fill="url(#paint7_linear_6534_696)"/>
<rect opacity="0.5" x="53" y="134" width="115" height="7" rx="2" fill="url(#paint8_linear_6534_696)"/>
<rect opacity="0.75" x="228" y="172" width="54" height="19" rx="2" fill="url(#paint9_linear_6534_696)"/>
<g filter="url(#filter1_d_6534_696)">
<rect x="255" y="34" width="40" height="40" rx="10" fill="#7C8AEC"/>
</g>
<path d="M287 54C287 60.6274 281.627 66 275 66C268.373 66 263 60.6274 263 54C263 47.3726 268.373 42 275 42C281.627 42 287 47.3726 287 54ZM264.694 54C264.694 59.6917 269.308 64.3058 275 64.3058C280.692 64.3058 285.306 59.6917 285.306 54C285.306 48.3083 280.692 43.6942 275 43.6942C269.308 43.6942 264.694 48.3083 264.694 54Z" fill="white"/>
<path d="M275 50V58" stroke="white" stroke-width="1.5" stroke-linecap="round"/>
<path d="M271 54H279" stroke="white" stroke-width="1.5" stroke-linecap="round"/>
<defs>
<filter id="filter0_d_6534_696" x="0" y="0" width="331.662" height="241" filterUnits="userSpaceOnUse" color-interpolation-filters="sRGB">
<feFlood flood-opacity="0" result="BackgroundImageFix"/>
<feColorMatrix in="SourceAlpha" type="matrix" values="0 0 0 0 0 0 0 0 0 0 0 0 0 0 0 0 0 0 127 0" result="hardAlpha"/>
<feMorphology radius="4" operator="dilate" in="SourceAlpha" result="effect1_dropShadow_6534_696"/>
<feOffset/>
<feGaussianBlur stdDeviation="12"/>
<feComposite in2="hardAlpha" operator="out"/>
<feColorMatrix type="matrix" values="0 0 0 0 0.282353 0 0 0 0 0.290196 0 0 0 0 0.619608 0 0 0 0.06 0"/>
<feBlend mode="normal" in2="BackgroundImageFix" result="effect1_dropShadow_6534_696"/>
<feBlend mode="normal" in="SourceGraphic" in2="effect1_dropShadow_6534_696" result="shape"/>
</filter>
<filter id="filter1_d_6534_696" x="227" y="18" width="96" height="96" filterUnits="userSpaceOnUse" color-interpolation-filters="sRGB">
<feFlood flood-opacity="0" result="BackgroundImageFix"/>
<feColorMatrix in="SourceAlpha" type="matrix" values="0 0 0 0 0 0 0 0 0 0 0 0 0 0 0 0 0 0 127 0" result="hardAlpha"/>
<feMorphology radius="4" operator="dilate" in="SourceAlpha" result="effect1_dropShadow_6534_696"/>
<feOffset dy="12"/>
<feGaussianBlur stdDeviation="12"/>
<feComposite in2="hardAlpha" operator="out"/>
<feColorMatrix type="matrix" values="0 0 0 0 0.462745 0 0 0 0 0.596078 0 0 0 0 0.92549 0 0 0 0.15 0"/>
<feBlend mode="normal" in2="BackgroundImageFix" result="effect1_dropShadow_6534_696"/>
<feBlend mode="normal" in="SourceGraphic" in2="effect1_dropShadow_6534_696" result="shape"/>
</filter>
<linearGradient id="paint0_linear_6534_696" x1="28" y1="40.2517" x2="303.662" y2="40.2517" gradientUnits="userSpaceOnUse">
<stop stop-color="#4776E6"/>
<stop offset="1" stop-color="#8E54E9"/>
</linearGradient>
<linearGradient id="paint1_linear_6534_696" x1="71.5" y1="156" x2="71.5" y2="193" gradientUnits="userSpaceOnUse">
<stop stop-color="#EAEAEA"/>
<stop offset="1" stop-color="#ECECEC"/>
</linearGradient>
<linearGradient id="paint2_linear_6534_696" x1="72.8321" y1="165.25" x2="72.8321" y2="180.788" gradientUnits="userSpaceOnUse">
<stop stop-color="#FFD4B3"/>
<stop offset="1" stop-color="#FFDCC2"/>
</linearGradient>
<linearGradient id="paint3_linear_6534_696" x1="56.7002" y1="186.763" x2="86.3002" y2="186.763" gradientUnits="userSpaceOnUse">
<stop stop-color="#606C88"/>
<stop offset="1" stop-color="#3F4C6B"/>
</linearGradient>
<linearGradient id="paint4_linear_6534_696" x1="72.4677" y1="178.323" x2="72.4677" y2="159.946" gradientUnits="userSpaceOnUse">
<stop/>
<stop offset="1"/>
</linearGradient>
<linearGradient id="paint5_linear_6534_696" x1="54.7572" y1="78.7031" x2="204.202" y2="92.4343" gradientUnits="userSpaceOnUse">
<stop stop-color="#F9F7C6"/>
<stop offset="1" stop-color="#E8FCDB"/>
</linearGradient>
<linearGradient id="paint6_linear_6534_696" x1="54.1445" y1="103.172" x2="150.272" y2="117.142" gradientUnits="userSpaceOnUse">
<stop stop-color="#F9F7C6"/>
<stop offset="1" stop-color="#E8FCDB"/>
</linearGradient>
<linearGradient id="paint7_linear_6534_696" x1="53.8092" y1="120.172" x2="122.488" y2="127.229" gradientUnits="userSpaceOnUse">
<stop stop-color="#F9F7C6"/>
<stop offset="1" stop-color="#E8FCDB"/>
</linearGradient>
<linearGradient id="paint8_linear_6534_696" x1="54.3295" y1="137.172" x2="165.191" y2="155.888" gradientUnits="userSpaceOnUse">
<stop stop-color="#F9F7C6"/>
<stop offset="1" stop-color="#E8FCDB"/>
</linearGradient>
<linearGradient id="paint9_linear_6534_696" x1="228" y1="181.5" x2="282" y2="181.5" gradientUnits="userSpaceOnUse">
<stop stop-color="#4776E6"/>
<stop offset="1" stop-color="#8E54E9"/>
</linearGradient>
<clipPath id="clip0_6534_696">
<path d="M53 174.5C53 164.283 61.2827 156 71.5 156V156C81.7173 156 90 164.283 90 174.5V174.5C90 184.717 81.7173 193 71.5 193V193C61.2827 193 53 184.717 53 174.5V174.5Z" fill="white"/>
</clipPath>
</defs>
</svg>
