<svg width="332" height="241" viewBox="0 0 332 241" fill="none" xmlns="http://www.w3.org/2000/svg">
<g filter="url(#filter0_d_6559_815)">
<rect x="28" y="28" width="275.662" height="185" rx="10" fill="white"/>
</g>
<g filter="url(#filter1_d_6559_815)">
<rect x="41" y="141" width="120" height="41" rx="10" fill="white"/>
</g>
<g clip-path="url(#clip0_6559_815)">
<path d="M54 161.304C54 155.061 59.0611 150 65.3043 150C71.5476 150 76.6087 155.061 76.6087 161.304C76.6087 167.548 71.5476 172.609 65.3043 172.609C59.0611 172.609 54 167.548 54 161.304Z" fill="url(#paint0_linear_6559_815)"/>
<path d="M67.7158 163.264V164.959C67.7158 165.286 62.8926 165.176 62.8926 164.705C62.8926 164.262 62.9016 162.254 62.8926 160.188C61.8125 158.788 61.8125 157.913 62.6665 157.009C63.5205 156.104 69.5998 155.652 69.5998 155.652C69.5998 155.652 70.0559 160.039 70.1274 161.229C70.1561 161.708 70.4665 163.264 69.2607 163.264H67.7158Z" fill="url(#paint1_linear_6559_815)"/>
<g style="mix-blend-mode:multiply">
<path d="M67.7143 163.119C66.7324 163.012 65.7835 162.702 64.9277 162.209C64.9277 162.209 65.5306 163.641 67.7143 164.029V163.119Z" fill="#FFD7B8"/>
</g>
<path d="M73.2173 168.336C73.6956 169.309 74.0724 170.916 74.3477 173.159H56.2607C56.5362 170.916 56.913 169.308 57.3912 168.336C57.8678 167.367 62.2897 165.502 62.2897 165.502C62.2897 165.502 62.3778 164.649 62.5912 164.527C62.8046 164.405 67.7631 164.405 68.0173 164.527C68.2715 164.649 68.3187 165.501 68.3187 165.501C68.3187 165.501 72.7416 167.369 73.2173 168.336Z" fill="url(#paint2_linear_6559_815)"/>
<path d="M63.8741 157.929C63.6344 157.723 63.3432 157.584 62.9316 157.798C61.9557 158.305 62.6034 160.259 63.6954 160.221C64.0723 160.208 63.8995 160.959 62.8928 161.455C62.8928 160.664 61.687 158.704 61.5815 156.92C60.3682 156.469 60.6696 154.661 61.5026 154.661C61.3697 153.004 64.0233 152.148 65.0508 153.099C66.0957 151.846 68.7334 152.487 68.8927 153.573C70.7064 152.605 71.8986 155.388 70.2003 156.469C69.5015 156.913 67.8667 157.082 65.5069 157.082C64.3745 157.082 65.0257 159.733 65.3798 160.588C65.832 161.681 68.3566 161.832 69.1479 161.719C69.7659 161.631 70.0899 161.38 70.1276 161.229C70.6928 162.736 69.9769 163.641 68.8465 163.641C66.9247 163.641 65.003 163.075 64.7015 161.681C64.4616 160.572 64.4748 158.781 63.8741 157.929Z" fill="url(#paint3_linear_6559_815)"/>
</g>
<rect x="83" y="151" width="58" height="4" rx="2" fill="url(#paint4_linear_6559_815)"/>
<rect opacity="0.5" x="83" y="160" width="28" height="4" rx="2" fill="url(#paint5_linear_6559_815)"/>
<rect opacity="0.5" x="83" y="169" width="43" height="4" rx="2" fill="url(#paint6_linear_6559_815)"/>
<g filter="url(#filter2_d_6559_815)">
<rect x="41" y="90" width="120" height="41" rx="10" fill="white"/>
</g>
<rect x="83" y="100" width="58" height="4" rx="2" fill="url(#paint7_linear_6559_815)"/>
<rect opacity="0.5" x="83" y="109" width="28" height="4" rx="2" fill="url(#paint8_linear_6559_815)"/>
<rect opacity="0.5" x="83" y="118" width="43" height="4" rx="2" fill="url(#paint9_linear_6559_815)"/>
<g clip-path="url(#clip1_6559_815)">
<path d="M54 110.449C54 104.126 59.126 99 65.4493 99C71.7725 99 76.8986 104.126 76.8986 110.449C76.8986 116.773 71.7725 121.899 65.4493 121.899C59.126 121.899 54 116.773 54 110.449Z" fill="url(#paint10_linear_6559_815)"/>
<path d="M72.4719 116.937C73.0317 118.006 73.3116 121.898 73.3116 121.898H57.5879C57.5879 121.898 57.8678 118.006 58.4275 116.937C59.2671 115.334 65.4497 113.273 65.4497 113.273C65.4497 113.273 71.6323 115.334 72.4719 116.937Z" fill="url(#paint11_linear_6559_815)"/>
<path d="M65.1445 120.067C65.1445 120.006 65.1624 119.947 65.196 119.897C65.2295 119.847 65.2772 119.808 65.333 119.785C65.3888 119.761 65.4502 119.755 65.5094 119.767C65.5686 119.779 65.623 119.808 65.6657 119.851C65.7084 119.893 65.7375 119.948 65.7493 120.007C65.7611 120.066 65.755 120.128 65.7319 120.183C65.7088 120.239 65.6697 120.287 65.6195 120.32C65.5693 120.354 65.5102 120.372 65.4498 120.372C65.3689 120.372 65.2912 120.34 65.234 120.282C65.1767 120.225 65.1445 120.148 65.1445 120.067ZM65.1445 118.54C65.1445 118.48 65.1624 118.421 65.196 118.37C65.2295 118.32 65.2772 118.281 65.333 118.258C65.3888 118.235 65.4502 118.229 65.5094 118.241C65.5686 118.252 65.623 118.281 65.6657 118.324C65.7084 118.367 65.7375 118.421 65.7493 118.48C65.7611 118.54 65.755 118.601 65.7319 118.657C65.7088 118.713 65.6697 118.76 65.6195 118.794C65.5693 118.827 65.5102 118.845 65.4498 118.845C65.3689 118.845 65.2912 118.813 65.234 118.756C65.1767 118.699 65.1445 118.621 65.1445 118.54ZM65.1445 117.013C65.1445 116.953 65.1624 116.894 65.196 116.844C65.2295 116.794 65.2772 116.754 65.333 116.731C65.3888 116.708 65.4502 116.702 65.5094 116.714C65.5686 116.726 65.623 116.755 65.6657 116.798C65.7084 116.84 65.7375 116.895 65.7493 116.954C65.7611 117.013 65.755 117.074 65.7319 117.13C65.7088 117.186 65.6697 117.234 65.6195 117.267C65.5693 117.301 65.5102 117.319 65.4498 117.319C65.3689 117.319 65.2912 117.287 65.234 117.229C65.1767 117.172 65.1445 117.094 65.1445 117.013Z" fill="white"/>
<path d="M71.9731 112.389L59.573 110.89C58.9617 107.645 59.6868 105.6 61.7484 104.756C62.7014 101.633 66.4108 101.887 67.4622 102.142C71.0401 103.008 72.5438 106.424 71.9731 112.389Z" fill="url(#paint12_linear_6559_815)"/>
<path d="M63.6182 114.189V109.61C61.7084 109.581 62.0809 106.272 63.9998 107.282C64.3433 107.434 65.2211 107.014 64.9158 105.984C66.9766 107.511 69.8484 104.831 70.0298 106.48C70.3866 109.725 69.6962 112.392 67.8653 112.392C67.6702 112.4 67.4748 112.388 67.282 112.357V114.189C66.6843 114.546 66.0867 114.724 65.489 114.724C64.8913 114.724 64.2677 114.546 63.6182 114.189Z" fill="#FFDBC9"/>
<path d="M67.2818 112.357V112.968C66.1369 112.968 65.2464 112.421 64.6104 111.327C65.3736 111.836 66.2641 112.179 67.2818 112.357Z" fill="#FFBC9E"/>
<path d="M65.4468 114.645C65.9689 114.62 67.2812 114.35 67.2812 113.766V113.273C67.4212 113.273 67.822 113.604 68.0281 113.884C68.843 114.991 67.9391 115.983 67.2019 115.983C66.2718 115.983 65.6554 115.206 65.4493 114.832C65.2432 115.206 64.6268 115.983 63.6966 115.983C62.9595 115.983 62.0556 114.991 62.8705 113.884C63.0766 113.604 63.4774 113.273 63.6174 113.273V113.766C63.6174 114.35 64.8952 114.62 65.4468 114.645Z" fill="white"/>
</g>
<g filter="url(#filter3_d_6559_815)">
<rect x="171" y="142" width="120" height="41" rx="10" fill="white"/>
</g>
<rect x="213" y="152" width="58" height="4" rx="2" fill="url(#paint13_linear_6559_815)"/>
<rect opacity="0.5" x="213" y="161" width="28" height="4" rx="2" fill="url(#paint14_linear_6559_815)"/>
<rect opacity="0.5" x="213" y="170" width="43" height="4" rx="2" fill="url(#paint15_linear_6559_815)"/>
<g clip-path="url(#clip2_6559_815)">
<path d="M206.9 161.45C206.9 155.126 201.774 150 195.45 150C189.127 150 184 155.126 184 161.45C184 167.774 189.127 172.9 195.45 172.9C201.774 172.9 206.9 167.774 206.9 161.45Z" fill="url(#paint16_linear_6559_815)"/>
<path d="M188.427 167.938C187.868 169.007 187.588 172.9 187.588 172.9H203.312C203.312 172.9 203.033 169.007 202.473 167.938C201.633 166.335 195.45 164.274 195.45 164.274C195.45 164.274 189.267 166.335 188.427 167.938Z" fill="url(#paint17_linear_6559_815)"/>
<path d="M195.756 171.068C195.756 171.008 195.738 170.949 195.704 170.898C195.671 170.848 195.623 170.809 195.567 170.786C195.512 170.763 195.45 170.757 195.391 170.769C195.332 170.78 195.277 170.809 195.235 170.852C195.192 170.895 195.163 170.949 195.151 171.008C195.139 171.068 195.145 171.129 195.168 171.185C195.192 171.241 195.231 171.288 195.281 171.322C195.331 171.355 195.39 171.373 195.451 171.373C195.532 171.373 195.609 171.341 195.666 171.284C195.724 171.227 195.756 171.149 195.756 171.068ZM195.756 169.541C195.756 169.481 195.738 169.422 195.704 169.372C195.671 169.322 195.623 169.282 195.567 169.259C195.512 169.236 195.45 169.23 195.391 169.242C195.332 169.254 195.277 169.283 195.235 169.325C195.192 169.368 195.163 169.423 195.151 169.482C195.139 169.541 195.145 169.602 195.168 169.658C195.192 169.714 195.231 169.762 195.281 169.795C195.331 169.829 195.39 169.847 195.451 169.847C195.532 169.847 195.609 169.815 195.666 169.757C195.724 169.7 195.756 169.622 195.756 169.541ZM195.756 168.015C195.756 167.954 195.738 167.895 195.704 167.845C195.671 167.795 195.623 167.756 195.567 167.733C195.512 167.709 195.45 167.703 195.391 167.715C195.332 167.727 195.277 167.756 195.235 167.799C195.192 167.841 195.163 167.896 195.151 167.955C195.139 168.014 195.145 168.076 195.168 168.132C195.192 168.187 195.231 168.235 195.281 168.269C195.331 168.302 195.39 168.32 195.451 168.32C195.532 168.32 195.609 168.288 195.666 168.231C195.724 168.173 195.756 168.096 195.756 168.015Z" fill="white"/>
<path d="M188.925 163.39L201.326 161.891C201.938 158.645 201.213 156.601 199.151 155.756C198.198 152.634 194.488 152.888 193.437 153.142C189.859 154.009 188.355 157.424 188.925 163.39Z" fill="url(#paint18_linear_6559_815)"/>
<path d="M197.282 165.19V160.61C199.192 160.582 198.82 157.272 196.9 158.282C196.557 158.435 195.679 158.015 195.984 156.985C193.923 158.511 191.051 155.832 190.87 157.481C190.513 160.726 191.204 163.393 193.035 163.393C193.23 163.4 193.425 163.389 193.618 163.358V165.19C194.216 165.547 194.814 165.725 195.411 165.725C196.009 165.725 196.633 165.547 197.282 165.19Z" fill="#FFDBC9"/>
<path d="M193.618 163.358V163.969C194.763 163.969 195.654 163.422 196.29 162.328C195.527 162.837 194.636 163.18 193.618 163.358Z" fill="#FFBC9E"/>
<path d="M195.452 165.646C194.93 165.621 193.618 165.351 193.618 164.767V164.274C193.478 164.274 193.077 164.605 192.871 164.885C192.056 165.992 192.96 166.984 193.697 166.984C194.627 166.984 195.244 166.207 195.45 165.833C195.656 166.207 196.273 166.984 197.203 166.984C197.94 166.984 198.844 165.992 198.029 164.885C197.823 164.605 197.422 164.274 197.282 164.274V164.767C197.282 165.351 196.004 165.621 195.452 165.646Z" fill="white"/>
</g>
<path d="M28 38C28 32.4772 32.4772 28 38 28H293.662C299.185 28 303.662 32.4772 303.662 38V52.5033H28V38Z" fill="url(#paint19_linear_6559_815)" fill-opacity="0.75"/>
<path d="M189.722 64.1423H282.222" stroke="white"/>
<g filter="url(#filter4_d_6559_815)">
<rect x="250" y="33" width="40" height="40" rx="10" fill="#F350A3"/>
</g>
<path d="M274.19 43H265.81C262.17 43 260 45.17 260 48.81V57.18C260 60.83 262.17 63 265.81 63H274.18C277.82 63 279.99 60.83 279.99 57.19V48.81C280 45.17 277.83 43 274.19 43ZM269.5 58.25C269.5 58.61 269.14 58.85 268.81 58.71C267.6 58.19 266.02 57.71 264.92 57.57L264.73 57.55C264.12 57.47 263.62 56.9 263.62 56.28V48.58C263.62 47.81 264.24 47.24 265 47.3C266.25 47.4 268.1 48 269.26 48.66C269.42 48.75 269.5 48.92 269.5 49.09V58.25ZM276.38 56.27C276.38 56.89 275.88 57.46 275.27 57.54L275.06 57.56C273.97 57.71 272.4 58.18 271.19 58.69C270.86 58.83 270.5 58.59 270.5 58.23V49.08C270.5 48.9 270.59 48.73 270.75 48.64C271.91 47.99 273.72 47.41 274.95 47.3H274.99C275.76 47.3 276.38 47.92 276.38 48.69V56.27Z" fill="white"/>
<g filter="url(#filter5_d_6559_815)">
<rect x="171" y="90" width="120" height="41" rx="10" fill="white"/>
</g>
<rect x="217" y="100" width="54" height="4" rx="2" fill="url(#paint20_linear_6559_815)"/>
<rect opacity="0.5" x="217" y="109" width="26" height="4" rx="2" fill="url(#paint21_linear_6559_815)"/>
<rect opacity="0.5" x="217" y="118" width="40" height="4" rx="2" fill="url(#paint22_linear_6559_815)"/>
<g clip-path="url(#clip3_6559_815)">
<path d="M184 110.45C184 104.126 189.126 99 195.45 99C201.774 99 206.9 104.126 206.9 110.45C206.9 116.774 201.774 121.9 195.45 121.9C189.126 121.9 184 116.774 184 110.45Z" fill="url(#paint23_linear_6559_815)"/>
<path d="M197.816 112.282V113.198C197.816 114.419 199.572 114.954 199.572 114.954C199.572 114.954 197.549 116.48 195.45 116.48C193.351 116.48 191.328 114.954 191.328 114.954C191.328 114.954 193.098 114.419 193.084 113.198C193.07 111.977 193.079 111.259 193.07 109.167C191.976 107.749 192.046 106.797 192.644 106.128C194.649 103.885 200.106 104.649 200.106 104.649C200.106 104.649 200.616 110.144 199.458 111.748C198.961 112.435 197.816 112.282 197.816 112.282Z" fill="url(#paint24_linear_6559_815)"/>
<path d="M197.816 112.282C196.137 112.091 195.145 111.366 195.145 111.366C195.771 112.293 196.726 112.948 197.816 113.198V112.282Z" fill="#DB6F3D"/>
<path d="M203.465 117.267C204.192 118.745 204.61 122.152 204.61 122.152H186.29C186.29 122.152 186.708 118.744 187.435 117.267C188.162 115.79 192.404 114.42 192.404 114.42C193.222 116.099 197.71 116.099 198.494 114.419C198.494 114.419 202.738 115.79 203.465 117.267Z" fill="url(#paint25_linear_6559_815)"/>
<path d="M194.012 106.878C193.769 106.67 193.474 106.529 193.057 106.746C192.069 107.259 192.817 109.229 193.695 109.229C193.924 109.229 194.037 109.948 193.018 110.45C193.018 109.648 191.796 107.664 191.69 105.857C190.461 105.399 190.766 103.568 191.61 103.568C191.475 101.89 194.163 101.023 195.204 101.986C196.262 100.717 198.934 101.366 199.095 102.467C200.932 101.486 202.14 104.305 200.419 105.399C199.712 105.85 198.056 106.021 195.666 106.021C195.305 106.021 195.103 106.111 195.204 106.557C195.399 107.422 194.945 107.966 194.012 106.878Z" fill="url(#paint26_linear_6559_815)"/>
</g>
<defs>
<filter id="filter0_d_6559_815" x="0" y="0" width="331.662" height="241" filterUnits="userSpaceOnUse" color-interpolation-filters="sRGB">
<feFlood flood-opacity="0" result="BackgroundImageFix"/>
<feColorMatrix in="SourceAlpha" type="matrix" values="0 0 0 0 0 0 0 0 0 0 0 0 0 0 0 0 0 0 127 0" result="hardAlpha"/>
<feMorphology radius="4" operator="dilate" in="SourceAlpha" result="effect1_dropShadow_6559_815"/>
<feOffset/>
<feGaussianBlur stdDeviation="12"/>
<feComposite in2="hardAlpha" operator="out"/>
<feColorMatrix type="matrix" values="0 0 0 0 0.282353 0 0 0 0 0.290196 0 0 0 0 0.619608 0 0 0 0.06 0"/>
<feBlend mode="normal" in2="BackgroundImageFix" result="effect1_dropShadow_6559_815"/>
<feBlend mode="normal" in="SourceGraphic" in2="effect1_dropShadow_6559_815" result="shape"/>
</filter>
<filter id="filter1_d_6559_815" x="13" y="113" width="176" height="97" filterUnits="userSpaceOnUse" color-interpolation-filters="sRGB">
<feFlood flood-opacity="0" result="BackgroundImageFix"/>
<feColorMatrix in="SourceAlpha" type="matrix" values="0 0 0 0 0 0 0 0 0 0 0 0 0 0 0 0 0 0 127 0" result="hardAlpha"/>
<feMorphology radius="4" operator="dilate" in="SourceAlpha" result="effect1_dropShadow_6559_815"/>
<feOffset/>
<feGaussianBlur stdDeviation="12"/>
<feComposite in2="hardAlpha" operator="out"/>
<feColorMatrix type="matrix" values="0 0 0 0 0.282353 0 0 0 0 0.290196 0 0 0 0 0.619608 0 0 0 0.08 0"/>
<feBlend mode="normal" in2="BackgroundImageFix" result="effect1_dropShadow_6559_815"/>
<feBlend mode="normal" in="SourceGraphic" in2="effect1_dropShadow_6559_815" result="shape"/>
</filter>
<filter id="filter2_d_6559_815" x="13" y="62" width="176" height="97" filterUnits="userSpaceOnUse" color-interpolation-filters="sRGB">
<feFlood flood-opacity="0" result="BackgroundImageFix"/>
<feColorMatrix in="SourceAlpha" type="matrix" values="0 0 0 0 0 0 0 0 0 0 0 0 0 0 0 0 0 0 127 0" result="hardAlpha"/>
<feMorphology radius="4" operator="dilate" in="SourceAlpha" result="effect1_dropShadow_6559_815"/>
<feOffset/>
<feGaussianBlur stdDeviation="12"/>
<feComposite in2="hardAlpha" operator="out"/>
<feColorMatrix type="matrix" values="0 0 0 0 0.282353 0 0 0 0 0.290196 0 0 0 0 0.619608 0 0 0 0.08 0"/>
<feBlend mode="normal" in2="BackgroundImageFix" result="effect1_dropShadow_6559_815"/>
<feBlend mode="normal" in="SourceGraphic" in2="effect1_dropShadow_6559_815" result="shape"/>
</filter>
<filter id="filter3_d_6559_815" x="143" y="114" width="176" height="97" filterUnits="userSpaceOnUse" color-interpolation-filters="sRGB">
<feFlood flood-opacity="0" result="BackgroundImageFix"/>
<feColorMatrix in="SourceAlpha" type="matrix" values="0 0 0 0 0 0 0 0 0 0 0 0 0 0 0 0 0 0 127 0" result="hardAlpha"/>
<feMorphology radius="4" operator="dilate" in="SourceAlpha" result="effect1_dropShadow_6559_815"/>
<feOffset/>
<feGaussianBlur stdDeviation="12"/>
<feComposite in2="hardAlpha" operator="out"/>
<feColorMatrix type="matrix" values="0 0 0 0 0.282353 0 0 0 0 0.290196 0 0 0 0 0.619608 0 0 0 0.08 0"/>
<feBlend mode="normal" in2="BackgroundImageFix" result="effect1_dropShadow_6559_815"/>
<feBlend mode="normal" in="SourceGraphic" in2="effect1_dropShadow_6559_815" result="shape"/>
</filter>
<filter id="filter4_d_6559_815" x="222" y="17" width="96" height="96" filterUnits="userSpaceOnUse" color-interpolation-filters="sRGB">
<feFlood flood-opacity="0" result="BackgroundImageFix"/>
<feColorMatrix in="SourceAlpha" type="matrix" values="0 0 0 0 0 0 0 0 0 0 0 0 0 0 0 0 0 0 127 0" result="hardAlpha"/>
<feMorphology radius="4" operator="dilate" in="SourceAlpha" result="effect1_dropShadow_6559_815"/>
<feOffset dy="12"/>
<feGaussianBlur stdDeviation="12"/>
<feComposite in2="hardAlpha" operator="out"/>
<feColorMatrix type="matrix" values="0 0 0 0 0.952941 0 0 0 0 0.313725 0 0 0 0 0.639216 0 0 0 0.15 0"/>
<feBlend mode="normal" in2="BackgroundImageFix" result="effect1_dropShadow_6559_815"/>
<feBlend mode="normal" in="SourceGraphic" in2="effect1_dropShadow_6559_815" result="shape"/>
</filter>
<filter id="filter5_d_6559_815" x="143" y="62" width="176" height="97" filterUnits="userSpaceOnUse" color-interpolation-filters="sRGB">
<feFlood flood-opacity="0" result="BackgroundImageFix"/>
<feColorMatrix in="SourceAlpha" type="matrix" values="0 0 0 0 0 0 0 0 0 0 0 0 0 0 0 0 0 0 127 0" result="hardAlpha"/>
<feMorphology radius="4" operator="dilate" in="SourceAlpha" result="effect1_dropShadow_6559_815"/>
<feOffset/>
<feGaussianBlur stdDeviation="12"/>
<feComposite in2="hardAlpha" operator="out"/>
<feColorMatrix type="matrix" values="0 0 0 0 0.282353 0 0 0 0 0.290196 0 0 0 0 0.619608 0 0 0 0.08 0"/>
<feBlend mode="normal" in2="BackgroundImageFix" result="effect1_dropShadow_6559_815"/>
<feBlend mode="normal" in="SourceGraphic" in2="effect1_dropShadow_6559_815" result="shape"/>
</filter>
<linearGradient id="paint0_linear_6559_815" x1="65.3043" y1="150" x2="65.3043" y2="172.609" gradientUnits="userSpaceOnUse">
<stop stop-color="#EAEAEA"/>
<stop offset="1" stop-color="#ECECEC"/>
</linearGradient>
<linearGradient id="paint1_linear_6559_815" x1="66.1179" y1="155.652" x2="66.1179" y2="165.147" gradientUnits="userSpaceOnUse">
<stop stop-color="#FFD4B3"/>
<stop offset="1" stop-color="#FFDCC2"/>
</linearGradient>
<linearGradient id="paint2_linear_6559_815" x1="56.2607" y1="168.797" x2="74.3477" y2="168.797" gradientUnits="userSpaceOnUse">
<stop stop-color="#606C88"/>
<stop offset="1" stop-color="#3F4C6B"/>
</linearGradient>
<linearGradient id="paint3_linear_6559_815" x1="65.8959" y1="163.641" x2="65.8959" y2="152.411" gradientUnits="userSpaceOnUse">
<stop/>
<stop offset="1"/>
</linearGradient>
<linearGradient id="paint4_linear_6559_815" x1="83.6705" y1="152.813" x2="139.928" y2="161.195" gradientUnits="userSpaceOnUse">
<stop stop-color="#F9F7C6"/>
<stop offset="1" stop-color="#E8FCDB"/>
</linearGradient>
<linearGradient id="paint5_linear_6559_815" x1="83.3237" y1="161.813" x2="110.943" y2="163.799" gradientUnits="userSpaceOnUse">
<stop stop-color="#F9F7C6"/>
<stop offset="1" stop-color="#E8FCDB"/>
</linearGradient>
<linearGradient id="paint6_linear_6559_815" x1="83.4971" y1="170.813" x2="125.617" y2="175.465" gradientUnits="userSpaceOnUse">
<stop stop-color="#F9F7C6"/>
<stop offset="1" stop-color="#E8FCDB"/>
</linearGradient>
<linearGradient id="paint7_linear_6559_815" x1="83.6705" y1="101.813" x2="139.928" y2="110.195" gradientUnits="userSpaceOnUse">
<stop stop-color="#F9F7C6"/>
<stop offset="1" stop-color="#E8FCDB"/>
</linearGradient>
<linearGradient id="paint8_linear_6559_815" x1="83.3237" y1="110.813" x2="110.943" y2="112.799" gradientUnits="userSpaceOnUse">
<stop stop-color="#F9F7C6"/>
<stop offset="1" stop-color="#E8FCDB"/>
</linearGradient>
<linearGradient id="paint9_linear_6559_815" x1="83.4971" y1="119.813" x2="125.617" y2="124.465" gradientUnits="userSpaceOnUse">
<stop stop-color="#F9F7C6"/>
<stop offset="1" stop-color="#E8FCDB"/>
</linearGradient>
<linearGradient id="paint10_linear_6559_815" x1="65.4493" y1="99" x2="65.4493" y2="121.899" gradientUnits="userSpaceOnUse">
<stop stop-color="#EAEAEA"/>
<stop offset="1" stop-color="#ECECEC"/>
</linearGradient>
<linearGradient id="paint11_linear_6559_815" x1="57.5879" y1="117.586" x2="73.3116" y2="117.586" gradientUnits="userSpaceOnUse">
<stop stop-color="#606C88"/>
<stop offset="1" stop-color="#3F4C6B"/>
</linearGradient>
<linearGradient id="paint12_linear_6559_815" x1="65.7271" y1="112.389" x2="65.7271" y2="102.002" gradientUnits="userSpaceOnUse">
<stop/>
<stop offset="1"/>
</linearGradient>
<linearGradient id="paint13_linear_6559_815" x1="213.671" y1="153.813" x2="269.928" y2="162.195" gradientUnits="userSpaceOnUse">
<stop stop-color="#F9F7C6"/>
<stop offset="1" stop-color="#E8FCDB"/>
</linearGradient>
<linearGradient id="paint14_linear_6559_815" x1="213.324" y1="162.813" x2="240.943" y2="164.799" gradientUnits="userSpaceOnUse">
<stop stop-color="#F9F7C6"/>
<stop offset="1" stop-color="#E8FCDB"/>
</linearGradient>
<linearGradient id="paint15_linear_6559_815" x1="213.497" y1="171.813" x2="255.617" y2="176.465" gradientUnits="userSpaceOnUse">
<stop stop-color="#F9F7C6"/>
<stop offset="1" stop-color="#E8FCDB"/>
</linearGradient>
<linearGradient id="paint16_linear_6559_815" x1="195.45" y1="150" x2="195.45" y2="172.9" gradientUnits="userSpaceOnUse">
<stop stop-color="#EAEAEA"/>
<stop offset="1" stop-color="#ECECEC"/>
</linearGradient>
<linearGradient id="paint17_linear_6559_815" x1="203.312" y1="168.587" x2="187.588" y2="168.587" gradientUnits="userSpaceOnUse">
<stop stop-color="#606C88"/>
<stop offset="1" stop-color="#3F4C6B"/>
</linearGradient>
<linearGradient id="paint18_linear_6559_815" x1="195.172" y1="163.39" x2="195.172" y2="153.002" gradientUnits="userSpaceOnUse">
<stop/>
<stop offset="1"/>
</linearGradient>
<linearGradient id="paint19_linear_6559_815" x1="28" y1="40.2517" x2="303.662" y2="40.2517" gradientUnits="userSpaceOnUse">
<stop stop-color="#EC008C"/>
<stop offset="1" stop-color="#FC6767"/>
</linearGradient>
<linearGradient id="paint20_linear_6559_815" x1="217.624" y1="101.813" x2="270.154" y2="109.1" gradientUnits="userSpaceOnUse">
<stop stop-color="#F9F7C6"/>
<stop offset="1" stop-color="#E8FCDB"/>
</linearGradient>
<linearGradient id="paint21_linear_6559_815" x1="217.301" y1="110.813" x2="242.965" y2="112.527" gradientUnits="userSpaceOnUse">
<stop stop-color="#F9F7C6"/>
<stop offset="1" stop-color="#E8FCDB"/>
</linearGradient>
<linearGradient id="paint22_linear_6559_815" x1="217.462" y1="119.813" x2="256.708" y2="123.845" gradientUnits="userSpaceOnUse">
<stop stop-color="#F9F7C6"/>
<stop offset="1" stop-color="#E8FCDB"/>
</linearGradient>
<linearGradient id="paint23_linear_6559_815" x1="195.45" y1="99" x2="195.45" y2="121.9" gradientUnits="userSpaceOnUse">
<stop stop-color="#EAEAEA"/>
<stop offset="1" stop-color="#ECECEC"/>
</linearGradient>
<linearGradient id="paint24_linear_6559_815" x1="195.773" y1="104.523" x2="195.773" y2="116.48" gradientUnits="userSpaceOnUse">
<stop stop-color="#FFD4B3"/>
<stop offset="1" stop-color="#FFDCC2"/>
</linearGradient>
<linearGradient id="paint25_linear_6559_815" x1="186.29" y1="118.286" x2="204.61" y2="118.286" gradientUnits="userSpaceOnUse">
<stop stop-color="#606C88"/>
<stop offset="1" stop-color="#3F4C6B"/>
</linearGradient>
<linearGradient id="paint26_linear_6559_815" x1="196.06" y1="110.45" x2="196.06" y2="101.29" gradientUnits="userSpaceOnUse">
<stop/>
<stop offset="1"/>
</linearGradient>
<clipPath id="clip0_6559_815">
<path d="M54 161.304C54 155.061 59.0611 150 65.3043 150C71.5476 150 76.6087 155.061 76.6087 161.304C76.6087 167.548 71.5476 172.609 65.3043 172.609C59.0611 172.609 54 167.548 54 161.304Z" fill="white"/>
</clipPath>
<clipPath id="clip1_6559_815">
<path d="M54 110.449C54 104.126 59.126 99 65.4493 99C71.7725 99 76.8986 104.126 76.8986 110.449C76.8986 116.773 71.7725 121.899 65.4493 121.899C59.126 121.899 54 116.773 54 110.449Z" fill="white"/>
</clipPath>
<clipPath id="clip2_6559_815">
<path d="M206.9 161.45C206.9 155.126 201.774 150 195.45 150C189.127 150 184 155.126 184 161.45C184 167.774 189.127 172.9 195.45 172.9C201.774 172.9 206.9 167.774 206.9 161.45Z" fill="white"/>
</clipPath>
<clipPath id="clip3_6559_815">
<path d="M184 110.45C184 104.126 189.126 99 195.45 99C201.774 99 206.9 104.126 206.9 110.45C206.9 116.774 201.774 121.9 195.45 121.9C189.126 121.9 184 116.774 184 110.45Z" fill="white"/>
</clipPath>
</defs>
</svg>
