<svg width="332" height="241" viewBox="0 0 332 241" fill="none" xmlns="http://www.w3.org/2000/svg">
<g filter="url(#filter0_d_6534_835)">
<rect x="28" y="28" width="275.662" height="185" rx="10" fill="white"/>
</g>
<rect opacity="0.8" x="95" y="81" width="64" height="7" rx="3.5" fill="url(#paint0_linear_6534_835)"/>
<rect opacity="0.8" x="95" y="120" width="64" height="7" rx="3.5" fill="url(#paint1_linear_6534_835)"/>
<rect opacity="0.8" x="95" y="162" width="64" height="7" rx="3.5" fill="url(#paint2_linear_6534_835)"/>
<rect opacity="0.8" x="95" y="93" width="42" height="4" rx="2" fill="url(#paint3_linear_6534_835)"/>
<rect opacity="0.8" x="95" y="132" width="42" height="4" rx="2" fill="url(#paint4_linear_6534_835)"/>
<rect opacity="0.8" x="95" y="174" width="42" height="4" rx="2" fill="url(#paint5_linear_6534_835)"/>
<g clip-path="url(#clip0_6534_835)">
<path d="M53 120C53 117.239 55.2386 115 58 115H78C80.7614 115 83 117.239 83 120V140C83 142.761 80.7614 145 78 145H58C55.2386 145 53 142.761 53 140V120Z" fill="url(#paint6_linear_6534_835)"/>
<path d="M75.2505 130.95C76.0617 128.256 76.5617 123.65 73.1505 120.5C70.5435 118.093 63.5005 117.85 61.0505 123.1C60.6415 123.976 61.2005 125.35 62.3005 125.3C62.7328 125.28 63.0005 126.65 63.2505 127.5C62.9005 130.95 59.7823 131.014 58.2005 133.65C56.2505 136.9 58.6505 141.7 64.4005 141.7C70.1505 141.7 73.4467 136.941 75.2505 130.95Z" fill="url(#paint7_linear_6534_835)"/>
<path d="M77.2012 138.842C77.9345 140.255 78.3012 145.4 78.3012 145.4H57.7012C57.7012 145.4 58.0679 140.255 58.8012 138.842C59.9012 136.724 68.0012 134 68.0012 134C68.0012 134 76.1012 136.724 77.2012 138.842Z" fill="url(#paint8_linear_6534_835)"/>
<path d="M70.4017 135.2C70.4017 135.2 69.1251 135.9 67.9507 135.9C66.7763 135.9 65.6017 135.2 65.6017 135.2V133C65.349 133.04 65.0931 133.055 64.8375 133.045C62.4387 133.045 61.5342 129.551 62.0017 125.3C62.3017 125.3 63.0017 125.3 64.0017 123.9C63.7517 125.85 66.6517 125.55 67.7517 124C67.2017 125.85 68.6517 127.1 69.9017 126.35C72.3528 124.879 72.9038 129.363 70.4017 129.4V135.2Z" fill="url(#paint9_linear_6534_835)"/>
<g style="mix-blend-mode:multiply" opacity="0.782">
<path d="M65.6016 133C66.842 132.772 68.029 132.314 69.1016 131.65C69.1016 131.65 67.8516 133.8 65.6016 133.8V133Z" fill="#FFD7B8"/>
</g>
<path d="M68.0045 135.797C68.7272 135.765 70.4012 135.411 70.4012 134.646V134C70.5846 134 71.1097 134.433 71.3798 134.8C72.4474 136.25 71.2632 137.55 70.2974 137.55C69.0788 137.55 68.2712 136.532 68.0012 136.042C67.7312 136.532 66.9236 137.55 65.705 137.55C64.7392 137.55 63.555 136.25 64.6226 134.8C64.8927 134.433 65.4178 134 65.6012 134V134.646C65.6012 135.411 67.3204 135.765 68.0045 135.797Z" fill="white"/>
<path d="M67.5996 142.6C67.5996 142.521 67.6231 142.444 67.667 142.378C67.711 142.312 67.7734 142.261 67.8465 142.231C67.9196 142.2 68 142.192 68.0776 142.208C68.1552 142.223 68.2265 142.261 68.2824 142.317C68.3384 142.373 68.3765 142.444 68.3919 142.522C68.4073 142.6 68.3994 142.68 68.3692 142.753C68.3389 142.826 68.2876 142.889 68.2218 142.933C68.1561 142.977 68.0787 143 67.9996 143C67.8935 143 67.7918 142.958 67.7168 142.883C67.6418 142.808 67.5996 142.706 67.5996 142.6ZM67.5996 140.6C67.5996 140.521 67.6231 140.444 67.667 140.378C67.711 140.312 67.7734 140.261 67.8465 140.231C67.9196 140.2 68 140.192 68.0776 140.208C68.1552 140.223 68.2265 140.261 68.2824 140.317C68.3384 140.373 68.3765 140.444 68.3919 140.522C68.4073 140.6 68.3994 140.68 68.3692 140.753C68.3389 140.826 68.2876 140.889 68.2218 140.933C68.1561 140.977 68.0787 141 67.9996 141C67.8935 141 67.7918 140.958 67.7168 140.883C67.6418 140.808 67.5996 140.706 67.5996 140.6ZM67.5996 138.6C67.5996 138.521 67.6231 138.444 67.667 138.378C67.711 138.312 67.7734 138.261 67.8465 138.231C67.9196 138.2 68 138.192 68.0776 138.208C68.1552 138.223 68.2265 138.261 68.2824 138.317C68.3384 138.373 68.3765 138.444 68.3919 138.522C68.4073 138.6 68.3994 138.68 68.3692 138.753C68.3389 138.826 68.2876 138.889 68.2218 138.933C68.1561 138.977 68.0787 139 67.9996 139C67.8935 139 67.7918 138.958 67.7168 138.883C67.6418 138.808 67.5996 138.706 67.5996 138.6Z" fill="url(#paint10_linear_6534_835)"/>
</g>
<g clip-path="url(#clip1_6534_835)">
<path d="M53 81C53 78.2386 55.2386 76 58 76H78C80.7614 76 83 78.2386 83 81V101C83 103.761 80.7614 106 78 106H58C55.2386 106 53 103.761 53 101V81Z" fill="url(#paint11_linear_6534_835)"/>
<path d="M71.0996 93.4V94.6C71.0996 96.2 73.3996 96.9 73.3996 96.9C73.3996 96.9 70.7496 98.9 67.9996 98.9C65.2496 98.9 62.5996 96.9 62.5996 96.9C62.5996 96.9 64.9177 96.2 64.8996 94.6C64.8815 93 64.8936 92.06 64.8815 89.3188C63.4483 87.4611 63.5403 86.2143 64.324 85.3375C66.9496 82.4 74.0996 83.4 74.0996 83.4C74.0996 83.4 74.7668 90.5993 73.2496 92.7C72.5996 93.6 71.0996 93.4 71.0996 93.4Z" fill="url(#paint12_linear_6534_835)"/>
<g style="mix-blend-mode:multiply">
<path d="M71.0996 93.4001C68.8996 93.1501 67.5996 92.2001 67.5996 92.2001C68.4204 93.4143 69.6712 94.272 71.0996 94.6001V93.4001Z" fill="#FFDBC9"/>
</g>
<path d="M78.5 99.9309C79.452 101.867 80 106.331 80 106.331H56C56 106.331 56.5482 101.866 57.5 99.9309C58.4518 97.9957 64.01 96.2008 64.01 96.2008C65.0813 98.4001 70.9608 98.4001 71.9871 96.2001C71.9871 96.2001 77.548 97.9952 78.5 99.9309Z" fill="url(#paint13_linear_6534_835)"/>
<path d="M67.5996 103.8C67.5996 103.721 67.6231 103.644 67.667 103.578C67.711 103.512 67.7734 103.461 67.8465 103.43C67.9196 103.4 68.0001 103.392 68.0776 103.408C68.1552 103.423 68.2265 103.461 68.2825 103.517C68.3384 103.573 68.3765 103.644 68.3919 103.722C68.4074 103.8 68.3994 103.88 68.3692 103.953C68.3389 104.026 68.2876 104.089 68.2218 104.133C68.1561 104.177 68.0787 104.2 67.9996 104.2C67.8935 104.2 67.7918 104.158 67.7168 104.083C67.6418 104.008 67.5996 103.906 67.5996 103.8ZM67.5996 101.8C67.5996 101.721 67.6231 101.644 67.667 101.578C67.711 101.512 67.7734 101.461 67.8465 101.43C67.9196 101.4 68.0001 101.392 68.0776 101.408C68.1552 101.423 68.2265 101.461 68.2825 101.517C68.3384 101.573 68.3765 101.644 68.3919 101.722C68.4074 101.8 68.3994 101.88 68.3692 101.953C68.3389 102.026 68.2876 102.089 68.2218 102.133C68.1561 102.177 68.0787 102.2 67.9996 102.2C67.8935 102.2 67.7918 102.158 67.7168 102.083C67.6418 102.008 67.5996 101.906 67.5996 101.8ZM67.5996 99.8C67.5996 99.7209 67.6231 99.6436 67.667 99.5778C67.711 99.512 67.7734 99.4607 67.8465 99.4305C67.9196 99.4002 68.0001 99.3923 68.0776 99.4077C68.1552 99.4231 68.2265 99.4612 68.2825 99.5172C68.3384 99.5731 68.3765 99.6444 68.3919 99.722C68.4074 99.7996 68.3994 99.88 68.3692 99.9531C68.3389 100.026 68.2876 100.089 68.2218 100.133C68.1561 100.177 68.0787 100.2 67.9996 100.2C67.8935 100.2 67.7918 100.158 67.7168 100.083C67.6418 100.008 67.5996 99.9061 67.5996 99.8Z" fill="white"/>
<path d="M66.1156 86.3209C65.7976 86.0478 65.4112 85.8639 64.865 86.1477C63.5701 86.82 64.5501 89.4 65.7001 89.4C66.0001 89.4 66.1493 90.3422 64.8136 91C64.8136 89.95 63.2136 87.35 63.0736 84.9828C61.4636 84.3833 61.8636 81.9846 62.9689 81.9846C62.7925 79.7858 66.3136 78.65 67.677 79.9119C69.0636 78.25 72.5636 79.1 72.7749 80.5418C75.1816 79.2571 76.7636 82.95 74.5101 84.3836C73.5828 84.9736 71.4136 85.1981 68.2823 85.1981C67.8096 85.1981 67.5448 85.3155 67.677 85.9C67.9329 87.0326 67.3388 87.746 66.1156 86.3209Z" fill="url(#paint14_linear_6534_835)"/>
</g>
<path d="M28 38C28 32.4772 32.4772 28 38 28H293.662C299.185 28 303.662 32.4772 303.662 38V52.5033H28V38Z" fill="url(#paint15_linear_6534_835)"/>
<path d="M189.723 64.1423H282.223" stroke="white"/>
<g filter="url(#filter1_d_6534_835)">
<rect x="253" y="36" width="40" height="40" rx="10" fill="#3E98D7"/>
</g>
<path d="M281.9 45.9H265.1C264.44 45.9 263.9 46.44 263.9 47.1V59.7C263.9 60.36 264.44 60.9 265.1 60.9H281.9C282.56 60.9 283.1 60.36 283.1 59.7V47.1C283.1 46.44 282.56 45.9 281.9 45.9ZM274.1 59.7C274.1 60 273.86 60.3 273.5 60.3C273.2 60.3 272.9 60.06 272.9 59.7C272.9 59.4 273.14 59.1 273.5 59.1C273.86 59.1 274.1 59.34 274.1 59.7Z" fill="white"/>
<path d="M277.341 63.3H276.441L275.841 61.5H271.041L270.441 63.3H269.541C269.061 63.3 268.641 63.72 268.641 64.2C268.641 64.68 269.061 65.1 269.541 65.1H277.341C277.821 65.1 278.241 64.68 278.241 64.2C278.241 63.72 277.881 63.3 277.341 63.3Z" fill="white"/>
<path d="M276.681 53.4601C276.681 53.4001 276.681 53.3401 276.681 53.2801C276.561 52.8601 275.781 52.4401 275.541 52.2001C275.061 52.9801 274.281 53.1001 273.441 53.1001C272.601 53.1001 271.821 52.9801 271.341 52.2001C271.041 52.4401 270.321 52.8601 270.201 53.2801C270.201 53.3401 270.201 53.4001 270.201 53.4601V57.3001H276.801V53.4601H276.681Z" fill="#3E98D7"/>
<path d="M273.38 51.9C274.374 51.9 275.18 51.0942 275.18 50.1C275.18 49.1059 274.374 48.3 273.38 48.3C272.386 48.3 271.58 49.1059 271.58 50.1C271.58 51.0942 272.386 51.9 273.38 51.9Z" fill="#3E98D7"/>
<path d="M53 161C53 158.239 55.2386 156 58 156H78C80.7614 156 83 158.239 83 161V181C83 183.761 80.7614 186 78 186H58C55.2386 186 53 183.761 53 181V161Z" fill="url(#paint16_linear_6534_835)"/>
<path d="M77.1992 179.5C77.9325 180.9 78.2992 186 78.2992 186H57.6992C57.6992 186 58.0659 180.9 58.7992 179.5C59.8992 177.4 67.9992 174.7 67.9992 174.7C67.9992 174.7 76.0992 177.4 77.1992 179.5Z" fill="url(#paint17_linear_6534_835)"/>
<path d="M67.5996 183.6C67.5996 183.521 67.6231 183.444 67.667 183.378C67.711 183.312 67.7734 183.261 67.8465 183.23C67.9196 183.2 68.0001 183.192 68.0776 183.208C68.1552 183.223 68.2265 183.261 68.2825 183.317C68.3384 183.373 68.3765 183.444 68.3919 183.522C68.4074 183.6 68.3994 183.68 68.3692 183.753C68.3389 183.826 68.2876 183.889 68.2218 183.933C68.1561 183.976 68.0787 184 67.9996 184C67.8935 184 67.7918 183.958 67.7168 183.883C67.6418 183.808 67.5996 183.706 67.5996 183.6ZM67.5996 181.6C67.5996 181.521 67.6231 181.444 67.667 181.378C67.711 181.312 67.7734 181.261 67.8465 181.23C67.9196 181.2 68.0001 181.192 68.0776 181.208C68.1552 181.223 68.2265 181.261 68.2825 181.317C68.3384 181.373 68.3765 181.444 68.3919 181.522C68.4074 181.6 68.3994 181.68 68.3692 181.753C68.3389 181.826 68.2876 181.889 68.2218 181.933C68.1561 181.976 68.0787 182 67.9996 182C67.8935 182 67.7918 181.958 67.7168 181.883C67.6418 181.808 67.5996 181.706 67.5996 181.6ZM67.5996 179.6C67.5996 179.521 67.6231 179.444 67.667 179.378C67.711 179.312 67.7734 179.261 67.8465 179.23C67.9196 179.2 68.0001 179.192 68.0776 179.208C68.1552 179.223 68.2265 179.261 68.2825 179.317C68.3384 179.373 68.3765 179.444 68.3919 179.522C68.4074 179.6 68.3994 179.68 68.3692 179.753C68.3389 179.826 68.2876 179.889 68.2218 179.933C68.1561 179.976 68.0787 180 67.9996 180C67.8935 180 67.7918 179.958 67.7168 179.883C67.6418 179.808 67.5996 179.706 67.5996 179.6Z" fill="white"/>
<path d="M76.5459 173.541L60.3002 171.578C59.4992 167.326 60.4492 164.647 63.1502 163.541C64.3988 159.45 69.2585 159.783 70.636 160.116C75.3235 161.251 77.2935 165.726 76.5459 173.541Z" fill="url(#paint18_linear_6534_835)"/>
<path d="M65.5984 175.9V169.9C63.0963 169.863 63.5843 165.527 66.0984 166.85C66.5484 167.05 67.6984 166.5 67.2984 165.15C69.9984 167.15 73.7608 163.64 73.9984 165.8C74.4659 170.051 73.5613 173.545 71.1626 173.545C70.907 173.555 70.6511 173.54 70.3984 173.5V175.9C69.6154 176.367 68.8324 176.6 68.0494 176.6C67.2664 176.6 66.4494 176.367 65.5984 175.9Z" fill="#FFDBC9"/>
<path d="M70.3984 173.5V174.3C68.8984 174.3 67.7318 173.583 66.8984 172.15C67.8984 172.817 69.0651 173.267 70.3984 173.5Z" fill="#FFBC9E"/>
<path d="M67.9959 176.497C68.68 176.465 70.3992 176.111 70.3992 175.346V174.7C70.5826 174.7 71.1077 175.133 71.3778 175.5C72.4454 176.95 71.2612 178.25 70.2954 178.25C69.0768 178.25 68.2692 177.232 67.9992 176.742C67.7292 177.232 66.9216 178.25 65.703 178.25C64.7372 178.25 63.553 176.95 64.6206 175.5C64.8907 175.133 65.4158 174.7 65.5992 174.7V175.346C65.5992 176.111 67.2732 176.465 67.9959 176.497Z" fill="white"/>
<defs>
<filter id="filter0_d_6534_835" x="0" y="0" width="331.662" height="241" filterUnits="userSpaceOnUse" color-interpolation-filters="sRGB">
<feFlood flood-opacity="0" result="BackgroundImageFix"/>
<feColorMatrix in="SourceAlpha" type="matrix" values="0 0 0 0 0 0 0 0 0 0 0 0 0 0 0 0 0 0 127 0" result="hardAlpha"/>
<feMorphology radius="4" operator="dilate" in="SourceAlpha" result="effect1_dropShadow_6534_835"/>
<feOffset/>
<feGaussianBlur stdDeviation="12"/>
<feComposite in2="hardAlpha" operator="out"/>
<feColorMatrix type="matrix" values="0 0 0 0 0.282353 0 0 0 0 0.290196 0 0 0 0 0.619608 0 0 0 0.06 0"/>
<feBlend mode="normal" in2="BackgroundImageFix" result="effect1_dropShadow_6534_835"/>
<feBlend mode="normal" in="SourceGraphic" in2="effect1_dropShadow_6534_835" result="shape"/>
</filter>
<filter id="filter1_d_6534_835" x="225" y="20" width="96" height="96" filterUnits="userSpaceOnUse" color-interpolation-filters="sRGB">
<feFlood flood-opacity="0" result="BackgroundImageFix"/>
<feColorMatrix in="SourceAlpha" type="matrix" values="0 0 0 0 0 0 0 0 0 0 0 0 0 0 0 0 0 0 127 0" result="hardAlpha"/>
<feMorphology radius="4" operator="dilate" in="SourceAlpha" result="effect1_dropShadow_6534_835"/>
<feOffset dy="12"/>
<feGaussianBlur stdDeviation="12"/>
<feComposite in2="hardAlpha" operator="out"/>
<feColorMatrix type="matrix" values="0 0 0 0 0.254902 0 0 0 0 0.541176 0 0 0 0 0.854902 0 0 0 0.15 0"/>
<feBlend mode="normal" in2="BackgroundImageFix" result="effect1_dropShadow_6534_835"/>
<feBlend mode="normal" in="SourceGraphic" in2="effect1_dropShadow_6534_835" result="shape"/>
</filter>
<linearGradient id="paint0_linear_6534_835" x1="95" y1="84.5" x2="159" y2="84.5" gradientUnits="userSpaceOnUse">
<stop stop-color="#4284DB"/>
<stop offset="1" stop-color="#29EAC4"/>
</linearGradient>
<linearGradient id="paint1_linear_6534_835" x1="95" y1="123.5" x2="159" y2="123.5" gradientUnits="userSpaceOnUse">
<stop stop-color="#4284DB"/>
<stop offset="1" stop-color="#29EAC4"/>
</linearGradient>
<linearGradient id="paint2_linear_6534_835" x1="95" y1="165.5" x2="159" y2="165.5" gradientUnits="userSpaceOnUse">
<stop stop-color="#4284DB"/>
<stop offset="1" stop-color="#29EAC4"/>
</linearGradient>
<linearGradient id="paint3_linear_6534_835" x1="95" y1="95" x2="137" y2="95" gradientUnits="userSpaceOnUse">
<stop stop-color="#4284DB"/>
<stop offset="1" stop-color="#29EAC4"/>
</linearGradient>
<linearGradient id="paint4_linear_6534_835" x1="95" y1="134" x2="137" y2="134" gradientUnits="userSpaceOnUse">
<stop stop-color="#4284DB"/>
<stop offset="1" stop-color="#29EAC4"/>
</linearGradient>
<linearGradient id="paint5_linear_6534_835" x1="95" y1="176" x2="137" y2="176" gradientUnits="userSpaceOnUse">
<stop stop-color="#4284DB"/>
<stop offset="1" stop-color="#29EAC4"/>
</linearGradient>
<linearGradient id="paint6_linear_6534_835" x1="68" y1="115" x2="68" y2="145" gradientUnits="userSpaceOnUse">
<stop stop-color="#EAEAEA"/>
<stop offset="1" stop-color="#ECECEC"/>
</linearGradient>
<linearGradient id="paint7_linear_6534_835" x1="66.6887" y1="141.7" x2="66.6887" y2="118.859" gradientUnits="userSpaceOnUse">
<stop/>
<stop offset="1"/>
</linearGradient>
<linearGradient id="paint8_linear_6534_835" x1="57.7012" y1="139.7" x2="78.3012" y2="139.7" gradientUnits="userSpaceOnUse">
<stop stop-color="#606C88"/>
<stop offset="1" stop-color="#3F4C6B"/>
</linearGradient>
<linearGradient id="paint9_linear_6534_835" x1="66.9563" y1="123.9" x2="66.9563" y2="135.9" gradientUnits="userSpaceOnUse">
<stop stop-color="#FFE0CC"/>
<stop offset="1" stop-color="#FFEADB"/>
</linearGradient>
<linearGradient id="paint10_linear_6534_835" x1="67.9996" y1="138.2" x2="67.9996" y2="143" gradientUnits="userSpaceOnUse">
<stop stop-color="#130027"/>
<stop offset="1" stop-color="#130017"/>
</linearGradient>
<linearGradient id="paint11_linear_6534_835" x1="68" y1="76" x2="68" y2="106" gradientUnits="userSpaceOnUse">
<stop stop-color="#EAEAEA"/>
<stop offset="1" stop-color="#ECECEC"/>
</linearGradient>
<linearGradient id="paint12_linear_6534_835" x1="68.4227" y1="83.236" x2="68.4227" y2="98.9" gradientUnits="userSpaceOnUse">
<stop stop-color="#FFD4B3"/>
<stop offset="1" stop-color="#FFDCC2"/>
</linearGradient>
<linearGradient id="paint13_linear_6534_835" x1="56" y1="101.265" x2="80" y2="101.265" gradientUnits="userSpaceOnUse">
<stop stop-color="#606C88"/>
<stop offset="1" stop-color="#3F4C6B"/>
</linearGradient>
<linearGradient id="paint14_linear_6534_835" x1="68.7984" y1="91" x2="68.7984" y2="78.9998" gradientUnits="userSpaceOnUse">
<stop/>
<stop offset="1"/>
</linearGradient>
<linearGradient id="paint15_linear_6534_835" x1="28" y1="40.2517" x2="303.662" y2="40.2517" gradientUnits="userSpaceOnUse">
<stop stop-color="#4284DB"/>
<stop offset="1" stop-color="#29EAC4"/>
</linearGradient>
<linearGradient id="paint16_linear_6534_835" x1="68" y1="156" x2="68" y2="186" gradientUnits="userSpaceOnUse">
<stop stop-color="#EAEAEA"/>
<stop offset="1" stop-color="#ECECEC"/>
</linearGradient>
<linearGradient id="paint17_linear_6534_835" x1="57.6992" y1="180.35" x2="78.2992" y2="180.35" gradientUnits="userSpaceOnUse">
<stop stop-color="#606C88"/>
<stop offset="1" stop-color="#3F4C6B"/>
</linearGradient>
<linearGradient id="paint18_linear_6534_835" x1="68.3628" y1="173.541" x2="68.3628" y2="159.933" gradientUnits="userSpaceOnUse">
<stop/>
<stop offset="1"/>
</linearGradient>
<clipPath id="clip0_6534_835">
<path d="M53 120C53 117.239 55.2386 115 58 115H78C80.7614 115 83 117.239 83 120V140C83 142.761 80.7614 145 78 145H58C55.2386 145 53 142.761 53 140V120Z" fill="white"/>
</clipPath>
<clipPath id="clip1_6534_835">
<path d="M53 81C53 78.2386 55.2386 76 58 76H78C80.7614 76 83 78.2386 83 81V101C83 103.761 80.7614 106 78 106H58C55.2386 106 53 103.761 53 101V81Z" fill="white"/>
</clipPath>
</defs>
</svg>
