<svg width="267" height="247" viewBox="0 0 267 247" fill="none" xmlns="http://www.w3.org/2000/svg">
<g clip-path="url(#clip0_388_2371)">
<path d="M167.542 0H6.72861C3.0125 0 0 3.01167 0 6.72675V124.109C0 127.824 3.0125 130.835 6.72861 130.835H167.542C171.259 130.835 174.271 127.824 174.271 124.109V6.72675C174.271 3.01167 171.259 0 167.542 0Z" fill="#F2F6FB"/>
<path d="M26.2027 120.656C17.4913 120.656 10.4294 113.523 10.4294 104.725C10.4294 95.926 17.4913 88.7932 26.2027 88.7932C34.9141 88.7932 41.9761 95.926 41.9761 104.725C41.9761 113.523 34.9141 120.656 26.2027 120.656ZM26.2372 104.658C27.4011 104.658 28.3447 103.717 28.3447 102.557C28.3447 101.396 27.4011 100.455 26.2372 100.455C25.0732 100.455 24.1297 101.396 24.1297 102.557C24.1297 103.717 25.0732 104.658 26.2372 104.658ZM26.2372 105.708C24.1275 105.708 22.4173 107.414 22.4173 109.517H30.0571C30.0571 107.414 28.3469 105.708 26.2372 105.708Z" fill="#D8DEED"/>
<path d="M10.4293 28.2546C10.4293 27.5104 11.0294 26.907 11.7747 26.907H123.144C123.887 26.907 124.489 27.5093 124.489 28.2546V76.4328C124.489 77.1771 123.889 77.7805 123.144 77.7805H11.7747C11.0317 77.7805 10.4293 77.1782 10.4293 76.4328V28.2546ZM52.6181 101.757H141.012C142.387 101.757 143.502 102.872 143.502 104.246V105.59C143.502 106.965 142.387 108.079 141.012 108.079H52.6181C51.243 108.079 50.1282 106.965 50.1282 105.59V104.246C50.1282 102.872 51.243 101.757 52.6181 101.757ZM52.6181 112.03H156.838C158.213 112.03 159.328 113.145 159.328 114.52V115.863C159.328 117.238 158.213 118.352 156.838 118.352H52.6181C51.243 118.352 50.1282 117.238 50.1282 115.863V114.52C50.1282 113.145 51.243 112.03 52.6181 112.03ZM52.6181 91.4838H118.855C120.23 91.4838 121.345 92.5983 121.345 93.9731V95.3165C121.345 96.6913 120.23 97.8058 118.855 97.8058H52.6181C51.243 97.8058 50.1282 96.6913 50.1282 95.3165V93.9731C50.1282 92.5983 51.243 91.4838 52.6181 91.4838ZM0 6.72823C0 3.01233 3.01224 0 6.73117 0H167.876C171.594 0 174.607 3.01261 174.607 6.72823V14.7989H0V6.72823Z" fill="#E1E5F0"/>
<path d="M137.967 66.6519H158.536C159.691 66.6519 160.689 66.886 161.512 67.3257C162.334 67.7654 162.979 68.4106 163.419 69.2328C163.859 70.0549 164.093 71.0529 164.093 72.2071V72.2252C164.093 73.3794 163.859 74.3773 163.419 75.1995C162.979 76.0216 162.334 76.6669 161.512 77.1066C160.689 77.5463 159.691 77.7804 158.536 77.7804H137.967C136.812 77.7804 135.814 77.5463 134.992 77.1066C134.169 76.6669 133.524 76.0216 133.084 75.1995C132.644 74.3773 132.41 73.3794 132.41 72.2252V72.2071C132.41 71.0529 132.644 70.0549 133.084 69.2328C133.524 68.4106 134.169 67.7654 134.992 67.3257C135.814 66.886 136.812 66.6519 137.967 66.6519Z" fill="#474BFF"/>
<path d="M9.9247 10.7627C11.6898 10.7627 13.1208 9.33219 13.1208 7.56752C13.1208 5.80286 11.6898 4.37231 9.9247 4.37231C8.15955 4.37231 6.72861 5.80286 6.72861 7.56752C6.72861 9.33219 8.15955 10.7627 9.9247 10.7627Z" fill="#FF5645"/>
<path d="M20.354 10.7627C22.1192 10.7627 23.5501 9.33219 23.5501 7.56752C23.5501 5.80286 22.1192 4.37231 20.354 4.37231C18.5889 4.37231 17.158 5.80286 17.158 7.56752C17.158 9.33219 18.5889 10.7627 20.354 10.7627Z" fill="#FFCB3D"/>
<path d="M31.1198 10.7627C32.885 10.7627 34.3159 9.33219 34.3159 7.56752C34.3159 5.80286 32.885 4.37231 31.1198 4.37231C29.3547 4.37231 27.9237 5.80286 27.9237 7.56752C27.9237 9.33219 29.3547 10.7627 31.1198 10.7627Z" fill="#3ABF7C"/>
</g>
<g clip-path="url(#clip1_388_2371)">
<path d="M255.211 191.924H94.0035C93.2254 191.924 92.5947 192.678 92.5947 193.607C92.5947 194.537 93.2254 195.291 94.0035 195.291H255.211C255.989 195.291 256.62 194.537 256.62 193.607C256.62 192.678 255.989 191.924 255.211 191.924Z" fill="#D8DEED"/>
</g>
<path d="M235.497 194.762H254.522C255.099 194.762 255.604 194.281 255.604 193.703V193.583C255.604 193.006 255.099 192.525 254.474 192.525H236.844C226.166 192.525 215.488 192.525 204.833 192.525H188.479C187.901 192.525 187.396 193.006 187.396 193.583V193.703C187.396 194.281 187.877 194.762 188.479 194.762H211.688L205.29 206.498C200.745 214.868 196.199 223.214 191.629 231.583L184.101 245.388C183.837 245.869 184.053 246.494 184.558 246.783L184.655 246.831C185.16 247.096 185.809 246.951 186.05 246.495L214.213 194.762H232.972L261.136 246.495C261.376 246.951 262.025 247.12 262.531 246.831L262.627 246.783C263.132 246.494 263.348 245.869 263.084 245.388L255.556 231.583C251.01 223.214 246.465 214.868 241.895 206.498L235.497 194.762ZM255.532 185.337V171.353C255.532 160.688 255.532 150.047 255.532 139.406V126.698C255.532 124.706 253.917 123.091 251.924 123.091H212.674C210.681 123.091 209.066 124.706 209.066 126.698V185.378C209.066 187.371 210.681 188.986 212.674 188.986C212.675 188.986 212.676 188.986 212.677 188.986L251.928 188.944C253.919 188.942 255.532 187.328 255.532 185.337Z" fill="#D8DEED"/>
<g clip-path="url(#clip2_388_2371)">
<path d="M191.365 244.813L215.254 227.016C215.735 226.655 216.432 226.751 216.793 227.232C217.153 227.713 217.057 228.411 216.576 228.771L192.429 246.761C191.948 247.122 191.251 247.026 190.89 246.545C190.529 246.064 190.626 245.366 191.107 245.005L191.365 244.813H191.708C192.309 244.813 192.814 245.307 192.814 245.895C192.79 246.507 192.309 246.978 191.708 246.978H178.36C177.759 246.978 177.254 246.484 177.254 245.895C177.254 245.307 177.759 244.813 178.36 244.813H191.365ZM233.748 247.027H209.072C208.495 247.027 207.99 246.611 207.99 246.111V245.778C207.99 245.279 208.471 244.862 209.072 244.862H233.724C234.302 244.862 234.807 245.279 234.807 245.778V246.111C234.855 246.611 234.35 247.027 233.748 247.027Z" fill="#FFCB3D"/>
<path d="M211.231 232.754C211.589 232.902 217.48 232.68 228.902 232.088L233.011 244.862H209.073C209.065 244.862 209.059 244.862 209.052 244.863C210.613 237.088 211.345 233.047 211.249 232.74L211.231 232.754ZM215.163 227.083L191.365 244.813H178.36C178.213 244.813 178.072 244.842 177.943 244.895C177.922 244.792 177.907 244.69 177.903 244.595C177.927 244.426 177.927 244.234 177.975 244.042C178.095 243.609 178.288 243.2 178.504 242.839C179.202 241.733 180.452 240.963 180.452 240.963C181.895 240.025 183.218 239.4 184.781 238.726C185.599 238.366 186.754 237.885 188.1 237.356C188.533 235.961 188.966 234.566 189.399 233.147C190.217 230.429 191.035 227.735 191.828 225.042L206.307 214.531L215.163 227.083Z" fill="#474961"/>
<path d="M210.965 221.178C209.357 222.16 206.565 222.89 202.182 224.371C194.13 227.096 190.912 228.884 188.541 227.058C187.748 226.475 187.373 225.781 187.226 225.451C183.526 216.848 169.258 192.602 161.814 174.636C161.804 174.59 161.775 174.572 161.765 174.526C159.377 168.735 162.099 162.262 167.836 160.297C169.732 159.646 171.634 159.017 173.53 158.365C175.249 157.788 177.037 157.676 178.752 157.971L178.657 157.814L235.942 156.178C236.928 156.665 237.567 158.652 238.69 161.771C239.814 164.891 240.17 170.328 240.074 170.947C240.074 175.792 239.208 180.239 237.765 183.668C236.755 186.035 235.504 187.916 234.061 189.11C233.813 189.319 233.56 189.507 233.304 189.672C233.303 190.005 233.303 190.342 233.303 190.682C233.303 203.262 232.87 221.237 232.726 227.213C232.702 228.004 232.798 230.143 231.355 231.492C230.946 231.887 230.537 232.05 229.768 232.398C229.167 232.677 226.473 233.515 221.086 233.98C220.749 234.003 220.388 234.026 220.027 234.003C214.626 233.799 213.18 233.442 211.137 232.824L216.576 228.771C217.057 228.41 217.153 227.713 216.793 227.232C216.432 226.751 215.735 226.655 215.253 227.016L215.142 227.098L210.965 221.178ZM205.603 201.675C205.448 199.858 205.31 197.838 205.188 195.589L204.77 188.74L198.197 186.315C200.681 191.362 203.161 196.498 205.603 201.675Z" fill="#474BFF"/>
<path opacity="0.176986" d="M233.304 189.582C233.307 185.198 233.331 181.445 233.375 178.968C233.424 176.852 233.784 165.225 229.119 162.807C228.71 162.597 228.301 162.435 227.483 162.132C226.834 161.9 223.467 160.691 219.137 160.877C216.324 160.993 212.091 161.179 208.603 164.086C203.793 168.108 203.913 174.457 203.962 175.48L204.766 188.643L198.158 186.196C194.383 178.525 190.598 171.058 186.925 163.962C185.109 160.462 181.728 158.241 178.102 157.838L235.942 156.089C236.928 156.575 237.567 158.562 238.69 161.682C239.814 164.802 240.17 170.238 240.074 170.858C240.074 175.703 239.208 180.149 237.765 183.579C236.755 185.946 235.504 187.826 234.061 189.021C233.813 189.23 233.56 189.417 233.304 189.582Z" fill="#444444"/>
<path d="M211.406 221.366C212.479 220.631 213.28 219.79 213.493 218.955C213.805 217.792 213.592 216.7 213.11 215.624C210.476 209.736 208.651 205.831 207.632 203.902C207.539 203.726 207.321 203.658 207.145 203.751C206.968 203.844 206.901 204.063 206.994 204.239C208.003 206.149 209.823 210.045 212.451 215.919C212.872 216.858 213.056 217.801 212.795 218.772C212.637 219.393 211.937 220.128 210.998 220.771C210.834 220.883 210.792 221.108 210.905 221.272C211.017 221.436 211.242 221.478 211.406 221.366Z" fill="#482D1F"/>
<mask id="mask0_388_2371" style="mask-type:alpha" maskUnits="userSpaceOnUse" x="185" y="106" width="64" height="51">
<path d="M236.623 140.782C237.185 145.856 237.198 150.088 236.777 152.879C236.777 152.951 236.754 153.048 236.732 153.121C236.62 153.873 236.464 154.503 236.262 155.012C236.24 155.061 236.217 155.109 236.195 155.158C235.054 157 226.038 156.346 223.912 156.418C220.422 156.54 198.553 157.156 198.038 156.817C197.792 156.647 197.501 154.77 197.255 154.503C196.418 153.641 196.775 148.369 197.568 142.05L185.471 141.024C186.316 134.647 186.883 131.041 187.171 130.207C188.013 127.826 190.433 123.315 190.986 121.199C192.526 115.21 194.426 112.973 195.075 112.324C195.821 111.554 196.542 111.025 197.023 110.688C200.27 108.452 203.709 108.115 205.465 108.067C205.489 108.055 207.288 107.931 209.058 107.812C210.481 107.363 212.31 107.225 215.075 107.225C217.099 107.225 218.826 107.347 220.251 107.516C219.848 107.024 219.768 106.896 220.713 106.937L229.251 107.297C229.299 107.297 229.347 107.297 229.395 107.321C231.151 107.37 234.59 107.706 237.837 109.943C238.318 110.28 239.04 110.809 239.785 111.578C240.434 112.228 242.334 114.464 243.874 120.453C244.427 122.569 246.819 126.463 247.661 128.844C248.222 130.431 248.539 133.839 248.612 139.068C245.046 139.788 241.049 140.359 236.623 140.782V140.782Z" fill="white"/>
</mask>
<g mask="url(#mask0_388_2371)">
<path d="M236.623 140.782C237.185 145.856 237.198 150.088 236.777 152.879C236.777 152.951 236.754 153.048 236.732 153.121C236.62 153.873 236.464 154.503 236.262 155.012C236.24 155.061 236.217 155.109 236.195 155.158C235.054 157 226.038 156.346 223.912 156.418C220.422 156.54 198.553 157.156 198.038 156.817C197.792 156.647 197.501 154.77 197.255 154.503C196.418 153.641 196.775 148.369 197.568 142.05L185.471 141.024C186.316 134.647 186.883 131.041 187.171 130.207C188.013 127.826 190.433 123.315 190.986 121.199C192.526 115.21 194.426 112.973 195.075 112.324C195.821 111.554 196.542 111.025 197.023 110.688C200.27 108.452 203.709 108.115 205.465 108.067C205.489 108.055 207.288 107.931 209.058 107.812C210.481 107.363 212.31 107.225 215.075 107.225C217.099 107.225 218.826 107.347 220.251 107.516C219.848 107.024 219.768 106.896 220.713 106.937L229.251 107.297C229.299 107.297 229.347 107.297 229.395 107.321C231.151 107.37 234.59 107.706 237.837 109.943C238.318 110.28 239.04 110.809 239.785 111.578C240.434 112.228 242.334 114.464 243.874 120.453C244.427 122.569 246.819 126.463 247.661 128.844C248.222 130.431 248.539 133.839 248.612 139.068C245.046 139.788 241.049 140.359 236.623 140.782V140.782Z" fill="#FFCB3D"/>
<path d="M210.39 107.546C208.435 108.108 207.21 110.066 206.713 113.421C206.217 116.776 205.616 126.637 204.912 143.004L215.926 146.417L227.441 143.342C226.729 125.873 226.139 115.83 225.672 113.211C224.97 109.283 224.304 108.506 222.01 107.546C219.715 106.586 217.535 106.721 214.988 106.953C213.29 107.107 211.758 107.305 210.39 107.546Z" fill="#FFCB3D"/>
</g>
<path d="M220.545 100.303L220.809 108.067C220.809 108.235 220.737 108.404 220.593 108.476C219.967 108.861 219.078 109.294 217.971 109.534C215.975 109.991 214.267 109.654 213.305 109.366C213.113 109.318 212.969 109.125 212.969 108.933L212.876 104.746C211.627 105.211 211.697 105.164 211.574 105.205C210.059 105.59 208.76 105.542 208.519 105.494C207.653 105.421 206.74 104.7 205.922 103.473C204.816 101.838 203.829 99.2886 203.3 96.2341C203.204 95.8012 203.18 95.3683 203.156 94.9354L203.06 90.6304C203.036 89.6683 203.276 88.7304 203.733 87.8405C203.926 87.4557 204.118 87.143 204.359 86.8785C204.366 86.8684 204.374 86.8584 204.382 86.8485C204.39 86.8344 204.399 86.8204 204.407 86.8063C206.259 84.2329 210.131 83.8962 211.91 84.0886C212.127 84.1126 212.897 84.2088 214.003 84.281C214.604 84.3291 215.085 84.3291 215.374 84.3531C218.957 84.4974 220.376 84.0645 222.18 85.0266C222.517 85.1949 223.286 85.6278 223.96 86.4696C225.86 88.8506 225.306 91.9291 225.186 92.843C224.753 95.5848 223.262 97.2683 222.781 97.9658C222.277 98.7097 221.331 99.6124 220.545 100.303ZM187.552 152.844C185.697 150.274 185.661 145.759 186.15 141.047C186.685 141.047 190.487 141.32 197.555 141.865C199.006 141.985 201.461 142.278 204.922 142.742L217.655 145.662L232.618 142.002L232.546 141.322C234.616 141.055 236.125 140.854 237.071 140.719C239.616 140.356 243.344 139.809 248.255 139.079C248.88 146.473 247.808 154.67 240.723 157.01H210.794L184.931 157.772C184.532 157.783 184.2 157.47 184.188 157.072C184.184 156.914 184.231 156.759 184.323 156.63C185.408 155.118 186.484 153.856 187.552 152.844Z" fill="#F5BCA3"/>
<path opacity="0.2" d="M187.57 152.87C185.697 150.304 185.659 145.774 186.15 141.047C186.685 141.047 189.427 141.234 194.376 141.609C196.094 141.675 199.609 142.053 204.922 142.742C209.967 143.899 214.246 144.88 217.762 145.686L204.121 149.022C203.757 148.897 203.383 148.784 202.998 148.684C196.649 147.04 191.598 150.013 189.819 151.12C188.996 151.631 188.247 152.233 187.57 152.87Z" fill="#8C2A00"/>
<path d="M224.917 93.9955C223.853 93.7284 222.682 93.4072 221.471 93.0569C221.386 92.7254 221.241 92.4032 221.026 92.1035C220.257 91.0212 218.717 90.4138 217.562 90.7986C217.003 90.9851 216.604 91.3855 216.474 91.5238C213.549 90.5807 210.964 89.6698 209.755 89.1671C208.344 88.5807 207.406 88.0212 206.94 87.4885C205.26 88.4798 203.969 89.1406 203.068 89.4708C203.172 88.8766 203.374 88.2956 203.663 87.7338C203.855 87.349 204.048 87.0363 204.288 86.7718C204.296 86.7617 204.304 86.7517 204.312 86.7418C204.32 86.7277 204.328 86.7137 204.336 86.6996C206.188 84.1262 210.06 83.7895 211.84 83.9819C212.056 84.0059 212.826 84.1021 213.932 84.1743C214.534 84.2224 215.015 84.2224 215.303 84.2465C218.887 84.3908 220.306 83.9578 222.11 84.9199C222.446 85.0882 223.216 85.5211 223.889 86.3629C225.789 88.7439 225.332 91.8224 225.212 92.7363C225.141 93.1842 225.04 93.6038 224.917 93.9955ZM203.902 93.5885C203.661 93.5404 203.589 93.2278 203.757 93.0594C203.974 92.867 204.359 92.6746 204.84 92.6746C205.826 92.6746 206.884 93.324 205.778 93.6126C205.128 93.805 204.359 93.6847 203.902 93.5885ZM208.856 93.7569C208.616 93.7088 208.543 93.3961 208.736 93.2278C208.952 93.0354 209.337 92.843 209.842 92.843C210.828 92.843 211.886 93.5164 210.78 93.7809C210.083 93.9733 209.337 93.8531 208.856 93.7569Z" fill="#482D1F"/>
<path d="M212.824 104.691L215.555 103.272L212.993 107.225L212.824 104.691Z" fill="#482D1F"/>
<path d="M205.777 95.2721C205.753 95.681 205.681 96.3544 205.441 96.5949C205.032 96.9557 204.503 95.7531 204.815 95.0076C204.936 94.6949 205.104 94.6468 205.296 94.6709C205.585 94.719 205.777 94.9835 205.777 95.2721ZM210.083 95.224C210.107 95.6329 210.107 96.3063 209.866 96.5949C209.505 97.0038 208.832 95.8493 209.072 95.0797C209.169 94.7671 209.337 94.6949 209.529 94.6949C209.818 94.6949 210.058 94.9354 210.083 95.224Z" fill="#482D1F"/>
<path d="M208.11 100.178C208.279 100.13 208.688 100.01 208.76 99.7454C208.76 99.6973 208.784 99.6251 208.76 99.577C208.664 99.4086 208.375 99.5048 207.942 99.5289C207.172 99.577 206.547 99.5048 206.547 99.5048C206.547 99.5048 206.716 99.9859 206.836 100.13C207.1 100.491 207.87 100.25 208.11 100.178Z" fill="#482D1F"/>
<path d="M206.117 97.8602C206.071 98.1314 206.282 98.3977 206.556 98.4434C206.616 98.449 206.616 98.449 206.655 98.452C207.06 98.4832 207.314 98.4948 207.75 98.4948C207.882 98.4948 207.99 98.3871 207.99 98.2543C207.99 98.1215 207.882 98.0138 207.75 98.0138C207.328 98.0138 207.086 98.0027 206.692 97.9724L206.614 97.9664C206.613 97.9653 206.591 97.9377 206.592 97.9331L206.954 95.3535L206.956 95.3201V93.9012C206.956 93.7683 206.848 93.6606 206.716 93.6606C206.583 93.6606 206.475 93.7683 206.475 93.9012V95.3034L206.117 97.8602Z" fill="#482D1F"/>
<path d="M221.461 93.1131C221.571 93.8178 221.445 94.585 221.125 95.202C220.736 95.9795 220.189 96.4035 219.482 96.7298C219.361 96.7854 219.309 96.9283 219.364 97.0489C219.42 97.1695 219.563 97.2222 219.683 97.1665C219.994 97.023 220.241 96.8845 220.527 96.6632C220.947 96.3373 221.299 95.9282 221.553 95.4202C221.919 94.7159 222.063 93.8451 221.937 93.0389C221.916 92.9076 221.793 92.8179 221.662 92.8384C221.531 92.8589 221.441 92.9819 221.461 93.1131Z" fill="#482D1F"/>
<path d="M199.494 141.846C199.962 133.024 200.169 129.1 200.428 124.181C200.453 123.701 201.174 123.739 201.149 124.219L200.214 141.884C200.189 142.364 199.468 142.326 199.494 141.846ZM233.014 141.097C233.154 141.553 232.474 141.769 232.326 141.315L228.983 131.07C228.837 130.622 229.5 130.39 229.664 130.832C230.133 132.096 232.325 138.857 233.014 141.097Z" fill="#482D1F"/>
</g>
<g clip-path="url(#clip3_388_2371)">
<path d="M255.211 155.607H94.0035C93.2254 155.607 92.5947 156.361 92.5947 157.291C92.5947 158.221 93.2254 158.975 94.0035 158.975H255.211C255.989 158.975 256.62 158.221 256.62 157.291C256.62 156.361 255.989 155.607 255.211 155.607Z" fill="#D8DEED"/>
</g>
<g clip-path="url(#clip4_388_2371)">
<path d="M92.5947 157.753L92.5947 320.689C92.5947 321.476 93.3484 322.113 94.2782 322.113C95.208 322.113 95.9618 321.476 95.9618 320.689L95.9618 157.753C95.9618 156.966 95.208 156.329 94.2782 156.329C93.3484 156.329 92.5947 156.966 92.5947 157.753Z" fill="#D8DEED"/>
</g>
<g clip-path="url(#clip5_388_2371)">
<path d="M143.043 154.563C143.342 155.09 143.91 155.446 144.56 155.446H187.712C188.673 155.446 189.424 154.668 189.424 153.71C189.424 152.752 188.643 151.974 187.712 151.974H145.739L131.107 112.739C130.777 111.841 129.786 111.392 128.885 111.722C127.984 112.051 127.534 113.038 127.864 113.936L142.909 154.279C142.946 154.379 142.991 154.474 143.043 154.563Z" fill="#474961"/>
</g>
<g clip-path="url(#clip6_388_2371)">
<path d="M160.904 152.782C159.782 153.976 158.124 154.627 156.365 154.396C153.478 154.021 151.422 151.378 151.804 148.468C152.185 145.557 154.821 143.525 157.732 143.906C158.403 143.993 159.029 144.203 159.591 144.51L159.214 142.139H173.164C173.095 142.436 172.658 146.132 171.853 153.225C171.82 153.515 171.747 153.769 171.628 154.01C171.572 154.119 171.522 154.205 171.429 154.353C171.201 154.713 170.854 154.963 170.451 155.147C170.107 155.299 169.836 155.371 168.621 155.422C168.066 155.438 163.736 155.384 163.175 155.422C161.956 155.398 161.298 154.347 161.262 154.212C161.153 153.981 161.034 153.697 161.008 153.439L160.904 152.782ZM156.655 152.108C158.314 152.329 159.827 151.141 160.041 149.505C160.255 147.869 159.074 146.332 157.438 146.118C155.802 145.904 154.265 147.086 154.051 148.721C153.848 150.41 155.019 151.894 156.655 152.108Z" fill="#FFCB3D"/>
<path d="M166.189 142.62C170.041 142.62 173.164 142.405 173.164 142.139C173.164 141.874 170.041 141.658 166.189 141.658C162.337 141.658 159.214 141.874 159.214 142.139C159.214 142.405 162.337 142.62 166.189 142.62Z" fill="#474961"/>
</g>
<defs>
<clipPath id="clip0_388_2371">
<rect width="174.607" height="130.835" fill="white"/>
</clipPath>
<clipPath id="clip1_388_2371">
<rect width="164.025" height="3.36709" fill="white" transform="translate(92.5947 191.924)"/>
</clipPath>
<clipPath id="clip2_388_2371">
<rect width="125.544" height="181.823" fill="white" transform="translate(140.937 65.1772)"/>
</clipPath>
<clipPath id="clip3_388_2371">
<rect width="164.025" height="3.36709" fill="white" transform="translate(92.5947 155.607)"/>
</clipPath>
<clipPath id="clip4_388_2371">
<rect width="90.6708" height="3.36709" fill="white" transform="translate(92.5947 247) rotate(-90)"/>
</clipPath>
<clipPath id="clip5_388_2371">
<rect width="106.304" height="79.6075" fill="white" transform="translate(105.342 75.9998)"/>
</clipPath>
<clipPath id="clip6_388_2371">
<rect width="24.7721" height="19.962" fill="white" transform="translate(149.834 135.646)"/>
</clipPath>
</defs>
</svg>
