<svg width="332" height="241" viewBox="0 0 332 241" fill="none" xmlns="http://www.w3.org/2000/svg">
<g filter="url(#filter0_d_7176_1474)">
<rect x="28" y="28" width="275.662" height="185" rx="10" fill="white"/>
</g>
<g filter="url(#filter1_d_7176_1474)">
<rect x="48" y="63" width="239" height="64" rx="10" fill="white"/>
</g>
<g filter="url(#filter2_d_7176_1474)">
<rect x="48" y="137" width="239" height="64" rx="10" fill="white"/>
</g>
<g clip-path="url(#clip0_7176_1474)">
<path d="M66 109.304C66 103.061 71.0611 98 77.3043 98C83.5476 98 88.6087 103.061 88.6087 109.304C88.6087 115.548 83.5476 120.609 77.3043 120.609C71.0611 120.609 66 115.548 66 109.304Z" fill="url(#paint0_linear_7176_1474)"/>
<path d="M79.7158 111.264V112.959C79.7158 113.286 74.8926 113.176 74.8926 112.705C74.8926 112.262 74.9016 110.254 74.8926 108.188C73.8125 106.788 73.8125 105.913 74.6665 105.009C75.5205 104.104 81.5998 103.652 81.5998 103.652C81.5998 103.652 82.0559 108.039 82.1274 109.229C82.1561 109.707 82.4665 111.264 81.2607 111.264H79.7158Z" fill="url(#paint1_linear_7176_1474)"/>
<g style="mix-blend-mode:multiply">
<path d="M79.7138 111.119C78.732 111.012 77.783 110.702 76.9272 110.209C76.9272 110.209 77.5301 111.641 79.7138 112.029V111.119Z" fill="#FFD7B8"/>
</g>
<path d="M85.2173 116.336C85.6956 117.309 86.0724 118.916 86.3477 121.159H68.2607C68.5362 118.916 68.913 117.308 69.3912 116.336C69.8678 115.367 74.2897 113.502 74.2897 113.502C74.2897 113.502 74.3778 112.649 74.5912 112.527C74.8046 112.405 79.7631 112.405 80.0173 112.527C80.2715 112.649 80.3187 113.501 80.3187 113.501C80.3187 113.501 84.7416 115.369 85.2173 116.336Z" fill="url(#paint2_linear_7176_1474)"/>
<path d="M75.8741 105.929C75.6344 105.723 75.3432 105.584 74.9316 105.798C73.9557 106.305 74.6034 108.259 75.6954 108.221C76.0723 108.208 75.8995 108.959 74.8928 109.455C74.8928 108.664 73.687 106.704 73.5815 104.92C72.3682 104.469 72.6696 102.661 73.5026 102.661C73.3697 101.004 76.0233 100.148 77.0508 101.099C78.0957 99.8461 80.7334 100.487 80.8927 101.573C82.7064 100.605 83.8986 103.388 82.2003 104.469C81.5015 104.913 79.8667 105.082 77.5069 105.082C76.3745 105.082 77.0257 107.733 77.3798 108.588C77.832 109.681 80.3566 109.832 81.1479 109.719C81.7659 109.631 82.0899 109.38 82.1276 109.229C82.6928 110.736 81.9769 111.641 80.8465 111.641C78.9247 111.641 77.003 111.075 76.7015 109.681C76.4616 108.572 76.4748 106.781 75.8741 105.929Z" fill="url(#paint3_linear_7176_1474)"/>
</g>
<rect x="65" y="71" width="109" height="4" rx="2" fill="url(#paint4_linear_7176_1474)"/>
<rect x="65" y="145" width="109" height="4" rx="2" fill="url(#paint5_linear_7176_1474)"/>
<rect x="240" y="87" width="39" height="16" rx="2" fill="url(#paint6_linear_7176_1474)"/>
<rect x="240" y="161" width="39" height="16" rx="2" fill="url(#paint7_linear_7176_1474)"/>
<rect opacity="0.5" x="65.4785" y="79.9565" width="52.5652" height="3.95652" rx="1.97826" fill="url(#paint8_linear_7176_1474)"/>
<rect opacity="0.5" x="65.4785" y="153.957" width="52.5652" height="3.95652" rx="1.97826" fill="url(#paint9_linear_7176_1474)"/>
<rect opacity="0.5" x="65" y="89" width="81" height="4" rx="2" fill="url(#paint10_linear_7176_1474)"/>
<rect opacity="0.5" x="65" y="163" width="81" height="4" rx="2" fill="url(#paint11_linear_7176_1474)"/>
<g clip-path="url(#clip1_7176_1474)">
<path d="M65 183.449C65 177.126 70.126 172 76.4493 172C82.7725 172 87.8986 177.126 87.8986 183.449C87.8986 189.773 82.7725 194.899 76.4493 194.899C70.126 194.899 65 189.773 65 183.449Z" fill="url(#paint12_linear_7176_1474)"/>
<path d="M83.4715 189.937C84.0312 191.006 84.3111 194.899 84.3111 194.899H68.5874C68.5874 194.899 68.8673 191.006 69.427 189.937C70.2666 188.334 76.4492 186.273 76.4492 186.273C76.4492 186.273 82.6318 188.334 83.4715 189.937Z" fill="url(#paint13_linear_7176_1474)"/>
<path d="M76.144 193.067C76.144 193.006 76.1619 192.947 76.1955 192.897C76.229 192.847 76.2767 192.808 76.3325 192.785C76.3883 192.762 76.4497 192.755 76.5089 192.767C76.5681 192.779 76.6226 192.808 76.6653 192.851C76.708 192.894 76.737 192.948 76.7488 193.007C76.7606 193.066 76.7545 193.128 76.7314 193.184C76.7083 193.239 76.6692 193.287 76.619 193.321C76.5688 193.354 76.5097 193.372 76.4494 193.372C76.3684 193.372 76.2907 193.34 76.2335 193.283C76.1762 193.225 76.144 193.148 76.144 193.067ZM76.144 191.54C76.144 191.48 76.1619 191.421 76.1955 191.371C76.229 191.32 76.2767 191.281 76.3325 191.258C76.3883 191.235 76.4497 191.229 76.5089 191.241C76.5681 191.252 76.6226 191.282 76.6653 191.324C76.708 191.367 76.737 191.421 76.7488 191.481C76.7606 191.54 76.7545 191.601 76.7314 191.657C76.7083 191.713 76.6692 191.76 76.619 191.794C76.5688 191.828 76.5097 191.845 76.4494 191.845C76.3684 191.845 76.2907 191.813 76.2335 191.756C76.1762 191.699 76.144 191.621 76.144 191.54ZM76.144 190.014C76.144 189.953 76.1619 189.894 76.1955 189.844C76.229 189.794 76.2767 189.755 76.3325 189.731C76.3883 189.708 76.4497 189.702 76.5089 189.714C76.5681 189.726 76.6226 189.755 76.6653 189.798C76.708 189.84 76.737 189.895 76.7488 189.954C76.7606 190.013 76.7545 190.075 76.7314 190.13C76.7083 190.186 76.6692 190.234 76.619 190.267C76.5688 190.301 76.5097 190.319 76.4494 190.319C76.3684 190.319 76.2907 190.287 76.2335 190.229C76.1762 190.172 76.144 190.095 76.144 190.014Z" fill="white"/>
<path d="M82.9731 185.389L70.573 183.89C69.9617 180.645 70.6868 178.6 72.7484 177.756C73.7014 174.633 77.4108 174.887 78.4622 175.142C82.0401 176.008 83.5438 179.424 82.9731 185.389Z" fill="url(#paint14_linear_7176_1474)"/>
<path d="M74.6172 187.189V182.61C72.7074 182.581 73.0799 179.272 74.9989 180.282C75.3423 180.434 76.2201 180.014 75.9148 178.984C77.9757 180.511 80.8474 177.832 81.0288 179.48C81.3856 182.725 80.6952 185.392 78.8643 185.392C78.6692 185.4 78.4738 185.388 78.281 185.357V187.189C77.6833 187.546 77.0857 187.724 76.488 187.724C75.8904 187.724 75.2668 187.546 74.6172 187.189Z" fill="#FFDBC9"/>
<path d="M78.2814 185.358V185.968C77.1364 185.968 76.2459 185.421 75.6099 184.327C76.3731 184.836 77.2636 185.179 78.2814 185.358Z" fill="#FFBC9E"/>
<path d="M76.4468 187.645C76.9689 187.62 78.2812 187.35 78.2812 186.767V186.273C78.4212 186.273 78.822 186.604 79.0281 186.884C79.843 187.991 78.9391 188.983 78.2019 188.983C77.2718 188.983 76.6554 188.206 76.4493 187.832C76.2432 188.206 75.6268 188.983 74.6966 188.983C73.9595 188.983 73.0556 187.991 73.8705 186.884C74.0766 186.604 74.4774 186.273 74.6174 186.273V186.767C74.6174 187.35 75.8952 187.62 76.4468 187.645Z" fill="white"/>
</g>
<path d="M28 38C28 32.4772 32.4772 28 38 28H293.662C299.185 28 303.662 32.4772 303.662 38V52.5033H28V38Z" fill="url(#paint15_linear_7176_1474)"/>
<path d="M189.722 64.1423H282.222" stroke="white"/>
<g filter="url(#filter3_d_7176_1474)">
<rect x="251" y="35" width="40" height="40" rx="10" fill="#36B9D0"/>
</g>
<path d="M271 46.6666C266.408 46.6666 262.667 50.4083 262.667 55C262.667 59.5916 266.408 63.3333 271 63.3333C275.592 63.3333 279.333 59.5916 279.333 55C279.333 50.4083 275.592 46.6666 271 46.6666ZM274.625 57.975C274.508 58.175 274.3 58.2833 274.083 58.2833C273.975 58.2833 273.867 58.2583 273.767 58.1916L271.183 56.65C270.542 56.2666 270.067 55.425 270.067 54.6833V51.2666C270.067 50.925 270.35 50.6416 270.692 50.6416C271.033 50.6416 271.317 50.925 271.317 51.2666V54.6833C271.317 54.9833 271.567 55.425 271.825 55.575L274.408 57.1166C274.708 57.2916 274.808 57.675 274.625 57.975Z" fill="white"/>
<defs>
<filter id="filter0_d_7176_1474" x="0" y="0" width="331.662" height="241" filterUnits="userSpaceOnUse" color-interpolation-filters="sRGB">
<feFlood flood-opacity="0" result="BackgroundImageFix"/>
<feColorMatrix in="SourceAlpha" type="matrix" values="0 0 0 0 0 0 0 0 0 0 0 0 0 0 0 0 0 0 127 0" result="hardAlpha"/>
<feMorphology radius="4" operator="dilate" in="SourceAlpha" result="effect1_dropShadow_7176_1474"/>
<feOffset/>
<feGaussianBlur stdDeviation="12"/>
<feComposite in2="hardAlpha" operator="out"/>
<feColorMatrix type="matrix" values="0 0 0 0 0.282353 0 0 0 0 0.290196 0 0 0 0 0.619608 0 0 0 0.06 0"/>
<feBlend mode="normal" in2="BackgroundImageFix" result="effect1_dropShadow_7176_1474"/>
<feBlend mode="normal" in="SourceGraphic" in2="effect1_dropShadow_7176_1474" result="shape"/>
</filter>
<filter id="filter1_d_7176_1474" x="20" y="35" width="295" height="120" filterUnits="userSpaceOnUse" color-interpolation-filters="sRGB">
<feFlood flood-opacity="0" result="BackgroundImageFix"/>
<feColorMatrix in="SourceAlpha" type="matrix" values="0 0 0 0 0 0 0 0 0 0 0 0 0 0 0 0 0 0 127 0" result="hardAlpha"/>
<feMorphology radius="4" operator="dilate" in="SourceAlpha" result="effect1_dropShadow_7176_1474"/>
<feOffset/>
<feGaussianBlur stdDeviation="12"/>
<feComposite in2="hardAlpha" operator="out"/>
<feColorMatrix type="matrix" values="0 0 0 0 0.282353 0 0 0 0 0.290196 0 0 0 0 0.619608 0 0 0 0.08 0"/>
<feBlend mode="normal" in2="BackgroundImageFix" result="effect1_dropShadow_7176_1474"/>
<feBlend mode="normal" in="SourceGraphic" in2="effect1_dropShadow_7176_1474" result="shape"/>
</filter>
<filter id="filter2_d_7176_1474" x="20" y="109" width="295" height="120" filterUnits="userSpaceOnUse" color-interpolation-filters="sRGB">
<feFlood flood-opacity="0" result="BackgroundImageFix"/>
<feColorMatrix in="SourceAlpha" type="matrix" values="0 0 0 0 0 0 0 0 0 0 0 0 0 0 0 0 0 0 127 0" result="hardAlpha"/>
<feMorphology radius="4" operator="dilate" in="SourceAlpha" result="effect1_dropShadow_7176_1474"/>
<feOffset/>
<feGaussianBlur stdDeviation="12"/>
<feComposite in2="hardAlpha" operator="out"/>
<feColorMatrix type="matrix" values="0 0 0 0 0.282353 0 0 0 0 0.290196 0 0 0 0 0.619608 0 0 0 0.08 0"/>
<feBlend mode="normal" in2="BackgroundImageFix" result="effect1_dropShadow_7176_1474"/>
<feBlend mode="normal" in="SourceGraphic" in2="effect1_dropShadow_7176_1474" result="shape"/>
</filter>
<filter id="filter3_d_7176_1474" x="223" y="19" width="96" height="96" filterUnits="userSpaceOnUse" color-interpolation-filters="sRGB">
<feFlood flood-opacity="0" result="BackgroundImageFix"/>
<feColorMatrix in="SourceAlpha" type="matrix" values="0 0 0 0 0 0 0 0 0 0 0 0 0 0 0 0 0 0 127 0" result="hardAlpha"/>
<feMorphology radius="4" operator="dilate" in="SourceAlpha" result="effect1_dropShadow_7176_1474"/>
<feOffset dy="12"/>
<feGaussianBlur stdDeviation="12"/>
<feComposite in2="hardAlpha" operator="out"/>
<feColorMatrix type="matrix" values="0 0 0 0 0.25098 0 0 0 0 0.560784 0 0 0 0 0.85098 0 0 0 0.15 0"/>
<feBlend mode="normal" in2="BackgroundImageFix" result="effect1_dropShadow_7176_1474"/>
<feBlend mode="normal" in="SourceGraphic" in2="effect1_dropShadow_7176_1474" result="shape"/>
</filter>
<linearGradient id="paint0_linear_7176_1474" x1="77.3043" y1="98" x2="77.3043" y2="120.609" gradientUnits="userSpaceOnUse">
<stop stop-color="#EAEAEA"/>
<stop offset="1" stop-color="#ECECEC"/>
</linearGradient>
<linearGradient id="paint1_linear_7176_1474" x1="78.1179" y1="103.652" x2="78.1179" y2="113.147" gradientUnits="userSpaceOnUse">
<stop stop-color="#FFD4B3"/>
<stop offset="1" stop-color="#FFDCC2"/>
</linearGradient>
<linearGradient id="paint2_linear_7176_1474" x1="68.2607" y1="116.797" x2="86.3477" y2="116.797" gradientUnits="userSpaceOnUse">
<stop stop-color="#606C88"/>
<stop offset="1" stop-color="#3F4C6B"/>
</linearGradient>
<linearGradient id="paint3_linear_7176_1474" x1="77.8959" y1="111.641" x2="77.8959" y2="100.411" gradientUnits="userSpaceOnUse">
<stop/>
<stop offset="1"/>
</linearGradient>
<linearGradient id="paint4_linear_7176_1474" x1="66.2601" y1="72.8125" x2="166.474" y2="100.875" gradientUnits="userSpaceOnUse">
<stop stop-color="#F9F7C6"/>
<stop offset="1" stop-color="#E8FCDB"/>
</linearGradient>
<linearGradient id="paint5_linear_7176_1474" x1="66.2601" y1="146.813" x2="166.474" y2="174.875" gradientUnits="userSpaceOnUse">
<stop stop-color="#F9F7C6"/>
<stop offset="1" stop-color="#E8FCDB"/>
</linearGradient>
<linearGradient id="paint6_linear_7176_1474" x1="240.451" y1="94.25" x2="279.095" y2="95.218" gradientUnits="userSpaceOnUse">
<stop stop-color="#FFE5F2"/>
<stop offset="1" stop-color="#FEEADC"/>
</linearGradient>
<linearGradient id="paint7_linear_7176_1474" x1="240.451" y1="168.25" x2="279.095" y2="169.218" gradientUnits="userSpaceOnUse">
<stop stop-color="#FFE5F2"/>
<stop offset="1" stop-color="#FEEADC"/>
</linearGradient>
<linearGradient id="paint8_linear_7176_1474" x1="66.0862" y1="81.7493" x2="117.25" y2="88.7346" gradientUnits="userSpaceOnUse">
<stop stop-color="#F9F7C6"/>
<stop offset="1" stop-color="#E8FCDB"/>
</linearGradient>
<linearGradient id="paint9_linear_7176_1474" x1="66.0862" y1="155.749" x2="117.25" y2="162.735" gradientUnits="userSpaceOnUse">
<stop stop-color="#F9F7C6"/>
<stop offset="1" stop-color="#E8FCDB"/>
</linearGradient>
<linearGradient id="paint10_linear_7176_1474" x1="65.9364" y1="90.8125" x2="142.914" y2="106.831" gradientUnits="userSpaceOnUse">
<stop stop-color="#F9F7C6"/>
<stop offset="1" stop-color="#E8FCDB"/>
</linearGradient>
<linearGradient id="paint11_linear_7176_1474" x1="65.9364" y1="164.813" x2="142.914" y2="180.831" gradientUnits="userSpaceOnUse">
<stop stop-color="#F9F7C6"/>
<stop offset="1" stop-color="#E8FCDB"/>
</linearGradient>
<linearGradient id="paint12_linear_7176_1474" x1="76.4493" y1="172" x2="76.4493" y2="194.899" gradientUnits="userSpaceOnUse">
<stop stop-color="#EAEAEA"/>
<stop offset="1" stop-color="#ECECEC"/>
</linearGradient>
<linearGradient id="paint13_linear_7176_1474" x1="68.5874" y1="190.586" x2="84.3111" y2="190.586" gradientUnits="userSpaceOnUse">
<stop stop-color="#606C88"/>
<stop offset="1" stop-color="#3F4C6B"/>
</linearGradient>
<linearGradient id="paint14_linear_7176_1474" x1="76.7271" y1="185.389" x2="76.7271" y2="175.002" gradientUnits="userSpaceOnUse">
<stop/>
<stop offset="1"/>
</linearGradient>
<linearGradient id="paint15_linear_7176_1474" x1="28" y1="40.2517" x2="303.662" y2="40.2517" gradientUnits="userSpaceOnUse">
<stop stop-color="#4284DB"/>
<stop offset="1" stop-color="#29EAC4"/>
</linearGradient>
<clipPath id="clip0_7176_1474">
<path d="M66 109.304C66 103.061 71.0611 98 77.3043 98C83.5476 98 88.6087 103.061 88.6087 109.304C88.6087 115.548 83.5476 120.609 77.3043 120.609C71.0611 120.609 66 115.548 66 109.304Z" fill="white"/>
</clipPath>
<clipPath id="clip1_7176_1474">
<path d="M65 183.449C65 177.126 70.126 172 76.4493 172C82.7725 172 87.8986 177.126 87.8986 183.449C87.8986 189.773 82.7725 194.899 76.4493 194.899C70.126 194.899 65 189.773 65 183.449Z" fill="white"/>
</clipPath>
</defs>
</svg>
